<svg id="Male-Body" viewBox="0 0 1800 3300" version="1.1" xmlns="http://www.w3.org/2000/svg" style="stroke:black;stroke-width:2px;fill-rule:evenodd;height:100%;"><g id="Back_M" transform="translate(0,560)"><g id="Cape_M"><g id="None_Back_M" class="option" style="display: inherit;"></g></g></g><g id="Flight-Suit" transform="translate(260,575)"><g id="Soft-Parts_M"><g id="Suit_M"><g id="Neck-Seal_M"><g id="Standard-Neck-Seal_M" class="option" style="display: inherit; fill: rgb(41, 35, 35);"><path d="M785.8,54.9c0-9.6-9.8-17.3-21.9-17.3c0,0-82.7,9.1-124,9.1s-124-9.1-124-9.1c-12.1,0-21.9,7.8-21.9,17.3 c0,9.6,9.8,17.3,21.9,17.3c0,0,82.7,9.1,124,9.1s124-9.1,124-9.1C775.9,72.2,785.8,64.4,785.8,54.9z"/><path d="M793.2,75.1c0-10-10.3-18.2-23-18.2c0,0-86.9,9.6-130.3,9.6c-43.4,0-130.3-9.6-130.3-9.6 c-12.7,0-23,8.1-23,18.2s10.3,18.2,23,18.2c0,0,86.9,9.6,130.3,9.6c43.4,0,130.3-9.6,130.3-9.6C782.8,93.3,793.2,85.1,793.2,75.1 z"/><path d="M801.5,100.2c0-10.6-10.9-19.2-24.3-19.2c0,0-91.6,10.1-137.4,10.1S502.4,81.1,502.4,81.1 c-13.4,0-24.3,8.6-24.3,19.2s10.9,19.2,24.3,19.2c0,0,91.6,10.1,137.4,10.1s137.4-10.1,137.4-10.1 C790.7,119.4,801.5,110.8,801.5,100.2z"/><path d="M809.6,123.3c0-11.1-11.4-20.1-25.5-20.1c0,0-96.2,10.6-144.3,10.6c-48.1,0-144.3-10.6-144.3-10.6 c-14.1,0-25.5,9-25.5,20.1s11.4,20.1,25.5,20.1c0,0,96.2,10.6,144.3,10.6c48.1,0,144.3-10.6,144.3-10.6 C798.2,143.4,809.6,134.4,809.6,123.3z"/><path d="M817.7,145.9c0-8.4-12-15.2-26.7-15.2c0,0-100.8,8-151.1,8s-151.1-8-151.1-8c-14.7,0-26.7,6.8-26.7,15.2 c0,8.4,12,15.2,26.7,15.2c0,0,100.7,8,151.1,8s151.1-8,151.1-8C805.7,161.1,817.7,154.3,817.7,145.9z"/><path d="M817.7,171.2c0-8.4-12-15.2-26.7-15.2c0,0-100.8,8-151.1,8s-151.1-8-151.1-8c-14.7,0-26.7,6.8-26.7,15.2 c0,8.4,12,15.2,26.7,15.2c0,0,100.7,15.4,151.1,15.4S791,186.4,791,186.4C805.7,186.4,817.7,179.6,817.7,171.2z"/></g></g><g id="Flight-Suit_M" style="fill: rgb(41, 35, 35);"><path d="M516.6,1664.2l-15.7,92.9L384,2323.3c0,0-52.3,31.5-79.1,36.9c-26.8,5.4-81.9-4.7-81.9-4.7l40.8-458.5 l30.8-195.8l7-83.3c0,0-26.8-242.9-18.1-364c8.7-121.1,70.6-362.6,70.6-362.6l285.9,6.2l285.9-6.2c0,0,61.8,241.5,70.6,362.6 c8.7,121.1-18.1,364-18.1,364l7,83.3l30.8,195.8l40.8,458.5c0,0-56.4,12.7-83.2,7.3c-26.8-5.4-77.8-39.6-77.8-39.6l-116.9-566.3 l-15.7-92.9l-123.2-323.4L516.6,1664.2z"/><g><path d="M1110.7,436.8l127,444l11,228.9l-101.2,19.5l-64.2-215.5L938.7,551.9l7.3-165.8l24.5-39.6L1110.7,436.8z"/><path d="M169.3,436.6l139.9-90.1l24.5,39.6l5.5,171L196.7,913.8l-64.2,215.5l-101.2-19.5l11-228.9L169.3,436.6z"/></g></g></g><g id="Boots_M"><g id="Basic_Boots_M" class="option" style="display: inherit;"><g id="Main_Basic-Boot_M" style="fill: rgb(153, 44, 197);"><path d="M895.4,2286.4c15.5,0.2,34.4,9.9,48,12.2c14.6,2.5,30.5,2.2,46,0.7l6.3-0.7l0.2,0l0.8-0.1l2.1-0.3l3.2-0.4 l1.3-0.2c3.6-0.5,7.2-1.1,10.8-1.7l5.6-1.1l1.2-0.3l0.4-0.1l0.9-0.2l3.9-0.9l3.4-0.9l0.6-0.2c11.9-3.2,23.8-7.1,23.8-7.1 c3.5,15.5,5.3,33.2,11.9,47.6c10.5,22.7,10.1,32.5,27.6,49.7c12.1,11.8,43.2,32.5,57.6,41.5c6.1,3.8,12.6,6.7,19.2,9.2l0.6,0.2 c26.5,9.9,55.1,13.6,69.5,43c3.1,6.4,5.8,14.1,5.3,21.3c-0.7,9.3-10.8,10.6-18.6,12.8c-19.5,5.6-36.4,9.8-58.9,14.9 c-25.8,5.8-49,9.3-75.2,8.6c-19.5-0.6-36.1-1.3-53.3-11.7c-6.9-4.2-14-8.4-20-13.9c-13.4-12.3-22.1-25.1-39.4-32.5 c-12.5-5.3-25.3-9.7-38.5-12.8c-18.7-4.5-46-10.7-56-29.2c-3.9-13.9,0.1-20.7,1.4-32.6l0.6-5.1c1-7.8,2.4-15.7,2.8-24.1 c0.8-16.1-3.2-32-4.2-48.1c-0.6-9.1-1-18.2-1.2-27.3c0-1.5-0.8-8,0.6-8.6c2.1-0.8,4.3-1.3,6.5-1.5L895.4,2286.4z"/><path d="M384.9,2286.4c-15.5,0.2-34.4,9.9-48,12.2c-14.6,2.5-30.5,2.2-46,0.7l-6.3-0.7l-0.2,0l-0.8-0.1l-2.1-0.3 l-3.2-0.4l-1.3-0.2c-3.6-0.5-7.2-1.1-10.8-1.7l-5.6-1.1l-1.2-0.3l-0.4-0.1l-0.9-0.2l-3.9-0.9l-3.4-0.9l-0.6-0.2 c-11.9-3.2-23.8-7.1-23.8-7.1c-3.5,15.5-5.3,33.2-11.9,47.6c-10.5,22.7-10.1,32.5-27.6,49.7c-12.1,11.8-43.2,32.5-57.6,41.5 c-6.1,3.8-12.6,6.7-19.2,9.2l-0.6,0.2c-26.5,9.9-55.1,13.6-69.5,43c-3.1,6.4-5.8,14.1-5.3,21.3c0.7,9.3,10.8,10.6,18.6,12.8 c19.5,5.6,36.4,9.8,58.9,14.9c25.8,5.8,49,9.3,75.2,8.6c19.6-0.6,36.1-1.3,53.3-11.7c6.9-4.2,14-8.4,20-13.9 c13.4-12.3,22.1-25.1,39.4-32.5c12.5-5.3,25.3-9.7,38.5-12.8c18.7-4.5,46-10.7,56-29.2c3.9-13.9-0.1-20.7-1.4-32.6l-0.6-5.1 c-1-7.8-2.4-15.7-2.8-24.1c-0.8-16.1,3.2-32,4.2-48.1c0.6-9.1,1-18.2,1.2-27.3c0-1.5,0.8-8-0.6-8.6c-2.1-0.8-4.3-1.3-6.5-1.5 L384.9,2286.4z"/></g><g id="Bottom_Basic-Boot_M" style="fill: rgb(111, 103, 103);"><path d="M885.4,2433.9c5,9.2,14.3,15.4,24.7,19.8c9.5,4.8,20.6,6.8,31.3,9.4c1.4,0.3,2.9,0.7,4.3,1.1 c2.1,0.6,4.3,1.1,6.4,1.8c0.6,0.2,1.3,0.4,1.9,0.6l1.1,0.3c0.7,0.2,1.4,0.4,2,0.6c0.3,0.1,0.6,0.2,0.9,0.3 c1.2,0.4,2.3,0.7,3.4,1.1c0.4,0.1,0.8,0.3,1.2,0.4l0.6,0.2c1.8,0.6,3.5,1.3,5.3,1.9c0.4,0.1,0.8,0.3,1.1,0.4 c1.6,0.6,3.2,1.2,4.8,1.8l1.2,0.5c1,0.4,1.9,0.8,2.9,1.2c0.4,0.2,0.8,0.3,1.2,0.5c2.8,1.2,5.4,2.6,7.9,4l0.3,0.2 c0.2,0.1,0.4,0.2,0.6,0.3c0.8,0.5,1.5,1,2.2,1.5l0.5,0.3c0.2,0.1,0.3,0.2,0.5,0.3c0.7,0.5,1.5,1.1,2.2,1.6l0.6,0.5l0.9,0.8 c3,2.4,5.7,5,8.5,7.7l0.8,0.8c1.5,1.5,3,3,4.5,4.6c1.5,1.6,3.1,3.2,4.7,4.8c1.6,1.6,3.3,3.3,5.1,4.9l0.6,0.5 c0.5,0.5,1.1,0.9,1.6,1.4c0.1,0.1,0.2,0.2,0.3,0.2c0.9,0.7,1.8,1.4,2.7,2.1c0.6,0.5,1.2,0.9,1.8,1.4l0.3,0.2 c0.8,0.5,1.6,1.1,2.3,1.6c0.3,0.2,0.7,0.5,1,0.7c1.2,0.8,2.3,1.5,3.5,2.2c0.8,0.5,1.6,1,2.4,1.5l1,0.6l2.6,1.6l1.2,0.7l0.8,0.5 l0.8,0.5c1.2,0.6,2.4,1.3,3.6,1.8c0.6,0.3,1.1,0.5,1.7,0.8l0.6,0.3c3.6,1.6,7.2,2.8,10.8,3.7l0.7,0.2l0.8,0.2 c0.3,0.1,0.5,0.1,0.8,0.2c0.7,0.2,1.5,0.3,2.2,0.5c0.6,0.1,1.2,0.2,1.7,0.3l1.4,0.2l0.4,0.1c0.4,0.1,0.8,0.1,1.2,0.2 c0.6,0.1,1.3,0.2,1.9,0.3c0.9,0.1,1.8,0.2,2.7,0.3c0.2,0,0.5,0.1,0.7,0.1c2.3,0.2,4.6,0.4,6.9,0.5c1.3,0.1,2.6,0.1,3.9,0.2l1.1,0 c2.4,0.1,4.9,0.2,7.5,0.3c1.6,0,3.2,0.1,4.8,0.1c0.6,0,1.2,0,1.8,0c0.8,0,1.7,0,2.5,0c0.6,0,1.2,0,1.8,0l0.6,0 c3-0.1,5.9-0.2,8.8-0.3c0.4,0,0.8,0,1.2-0.1l1.2-0.1c0.4,0,0.8,0,1.1-0.1c4.3-0.3,8.6-0.7,12.8-1.2l1.2-0.1 c1.1-0.1,2.1-0.3,3.2-0.4c0.5-0.1,0.9-0.1,1.4-0.2l1.2-0.2c0.9-0.1,1.8-0.3,2.6-0.4c3.7-0.6,7.4-1.2,11.2-1.9 c0.8-0.2,1.7-0.3,2.5-0.5l1.1-0.2c0.4-0.1,0.8-0.2,1.2-0.2l1.2-0.2c0.4-0.1,0.8-0.2,1.2-0.2l0.8-0.2c0.9-0.2,1.8-0.4,2.7-0.6 l1.2-0.3c1.1-0.2,2.1-0.5,3.2-0.7c0.9-0.2,1.8-0.4,2.8-0.6l0.3-0.1c5.9-1.3,11.4-2.6,16.7-3.9l2-0.5c1.5-0.4,3-0.7,4.4-1.1 l1.8-0.5l0.8-0.2c2.1-0.5,4.1-1,6.2-1.5c1.2-0.3,2.5-0.6,3.7-0.9c3.6-0.9,7.1-1.8,10.6-2.8l1.6-0.4c0.6-0.2,1.2-0.3,1.8-0.5 l0.7-0.2c2.7-0.8,5.5-1.5,8.3-2.3l0.7-0.2l1-0.3l2.9-0.8l1-0.3l1.5-0.4l0.6-0.2l1.2-0.4l1-0.4l0.5-0.2l0.6-0.2l0.3-0.1l0.6-0.3 l0.5-0.3l0.3-0.1l0.5-0.3l0.6-0.4l0.6-0.4l0.6-0.4c0.9-0.7,1.7-1.6,2.3-2.6l0,0c0,0,5.2,7.7,5.6,21.2 c-11.7,17-48.8,22.6-100,29.4c-50.9,6.8-82.2,5.5-103.5-3.7c-21.3-9.1-58.6-52.6-85.3-54.9c-26.7-2.3-58.2-16.5-71.2-24.1 c-6.7-3.9-4.7-32-4.7-32L885.4,2433.9z"/><path d="M394.9,2433.9c-5,9.2-14.3,15.4-24.7,19.8c-9.5,4.8-20.6,6.8-31.3,9.4c-1.4,0.3-2.9,0.7-4.3,1.1 c-2.1,0.6-4.3,1.1-6.4,1.8c-0.6,0.2-1.3,0.4-1.9,0.6l-1.1,0.3c-0.7,0.2-1.4,0.4-2,0.6c-0.3,0.1-0.6,0.2-0.9,0.3 c-1.2,0.4-2.3,0.7-3.4,1.1c-0.4,0.1-0.8,0.3-1.2,0.4l-0.6,0.2c-1.8,0.6-3.5,1.3-5.3,1.9c-0.4,0.1-0.8,0.3-1.1,0.4 c-1.6,0.6-3.2,1.2-4.8,1.8l-1.2,0.5c-1,0.4-1.9,0.8-2.9,1.2c-0.4,0.2-0.8,0.3-1.2,0.5c-2.8,1.2-5.4,2.6-7.9,4l-0.3,0.2 c-0.2,0.1-0.4,0.2-0.6,0.3c-0.8,0.5-1.5,1-2.2,1.5l-0.5,0.3c-0.2,0.1-0.3,0.2-0.5,0.3c-0.7,0.5-1.5,1.1-2.2,1.6l-0.6,0.5l-1,0.8 c-3,2.4-5.8,5-8.5,7.7l-0.8,0.8c-1.5,1.5-3,3-4.5,4.6c-1.5,1.6-3.1,3.2-4.7,4.8c-1.6,1.6-3.3,3.3-5.1,4.9l-0.6,0.5 c-0.5,0.5-1.1,0.9-1.6,1.4c-0.1,0.1-0.2,0.2-0.3,0.2c-0.9,0.7-1.8,1.4-2.7,2.1c-0.6,0.5-1.2,0.9-1.8,1.4l-0.3,0.2 c-0.8,0.5-1.5,1.1-2.3,1.6c-0.3,0.2-0.7,0.5-1,0.7c-1.2,0.8-2.3,1.5-3.5,2.2c-0.8,0.5-1.6,1-2.4,1.5l-1,0.6l-2.6,1.6l-1.2,0.7 l-0.8,0.5l-0.8,0.5c-1.2,0.6-2.4,1.3-3.6,1.8c-0.6,0.3-1.1,0.5-1.7,0.8l-0.6,0.3c-3.6,1.6-7.2,2.8-10.8,3.7l-0.7,0.2l-0.8,0.2 c-0.3,0.1-0.5,0.1-0.8,0.2c-0.7,0.2-1.5,0.3-2.2,0.5c-0.6,0.1-1.2,0.2-1.7,0.3l-1.4,0.2l-0.4,0.1c-0.4,0.1-0.8,0.1-1.1,0.2 c-0.6,0.1-1.3,0.2-1.9,0.3c-0.9,0.1-1.8,0.2-2.7,0.3c-0.2,0-0.5,0.1-0.7,0.1c-2.3,0.2-4.6,0.4-6.9,0.5c-1.3,0.1-2.6,0.1-3.9,0.2 l-1.1,0c-2.4,0.1-4.9,0.2-7.5,0.3c-1.6,0-3.2,0.1-4.8,0.1c-0.6,0-1.2,0-1.8,0c-0.8,0-1.7,0-2.5,0c-0.6,0-1.2,0-1.8,0l-0.6,0 c-3-0.1-5.9-0.2-8.8-0.3c-0.4,0-0.8,0-1.2-0.1l-1.2-0.1c-0.4,0-0.7,0-1.1-0.1c-4.3-0.3-8.6-0.7-12.8-1.2l-1.2-0.1 c-1.1-0.1-2.1-0.3-3.2-0.4c-0.5-0.1-0.9-0.1-1.4-0.2l-1.2-0.2c-0.9-0.1-1.8-0.3-2.6-0.4c-3.7-0.6-7.4-1.2-11.2-1.9 c-0.8-0.2-1.7-0.3-2.5-0.5l-1.1-0.2c-0.4-0.1-0.8-0.2-1.2-0.2l-1.2-0.2c-0.4-0.1-0.8-0.2-1.2-0.2l-0.8-0.2 c-0.9-0.2-1.8-0.4-2.7-0.6l-1.2-0.3c-1.1-0.2-2.1-0.5-3.2-0.7c-0.9-0.2-1.9-0.4-2.8-0.6l-0.3-0.1c-5.9-1.3-11.4-2.6-16.7-3.9 l-2-0.5c-1.5-0.4-3-0.7-4.5-1.1l-1.8-0.5l-0.8-0.2c-2.1-0.5-4.1-1-6.2-1.5c-1.2-0.3-2.5-0.6-3.7-0.9c-3.6-0.9-7.1-1.8-10.6-2.8 l-1.6-0.4c-0.6-0.2-1.2-0.3-1.8-0.5l-0.7-0.2c-2.7-0.8-5.5-1.5-8.3-2.3l-0.6-0.2l-1-0.3l-2.9-0.8l-1-0.3l-1.5-0.4l-0.6-0.2 l-1.2-0.4l-1-0.4l-0.5-0.2l-0.6-0.2l-0.3-0.1l-0.6-0.3l-0.5-0.3l-0.3-0.1l-0.5-0.3l-0.6-0.4l-0.6-0.4l-0.6-0.4 c-0.9-0.7-1.7-1.6-2.3-2.6l0,0c0,0-5.2,7.7-5.6,21.2c11.7,17,48.8,22.6,100,29.4c50.9,6.8,82.2,5.5,103.5-3.7 c21.3-9.1,58.6-52.6,85.3-54.9c26.7-2.3,58.2-16.5,71.2-24.1c6.7-3.9,4.7-32,4.7-32L394.9,2433.9z"/></g><g id="Top_Basic-Boot_M" style="fill: rgb(111, 103, 103);"><path d="M1032.2,2291.6c7.1,34.7,18.1,65,41.2,94.2c36,45.6,97.5,49.3,140,86.3c10.9,9.5,10.4,24.8,12.2,38.8 c-17.6,5-33.1,8.9-52.9,13.4c-1.4-14,1.1-29.6-10.5-39.7c-42.5-37-109.4-35.6-145.4-81.1c-23.5-29.8-23.6-68.1-30.5-103.8 c1.1-0.1,2.1-0.2,3.2-0.3l6.3-0.7l0.2,0l0.8-0.1l2.1-0.3l3.2-0.4l1.3-0.2c3.6-0.5,7.2-1.1,10.8-1.7l5.6-1.1l1.2-0.3l0.4-0.1 l0.9-0.2l3.9-0.9l3.4-0.9l0.6-0.2C1030.6,2292,1031.4,2291.8,1032.2,2291.6z"/><path d="M248,2291.6c-7.1,34.7-18.1,65-41.2,94.2c-36,45.6-97.5,49.3-140,86.3c-10.9,9.5-10.4,24.8-12.1,38.8 c17.6,5,33.1,8.9,52.9,13.4c1.4-14-1.1-29.6,10.5-39.7c42.5-37,109.4-35.6,145.4-81.1c23.5-29.8,23.6-68.1,30.4-103.8 c-1.1-0.1-2.1-0.2-3.2-0.3l-6.3-0.7l-0.2,0l-0.8-0.1l-2.1-0.3l-3.2-0.4l-1.3-0.2c-3.6-0.5-7.2-1.1-10.8-1.7l-5.6-1.1l-1.2-0.3 l-0.4-0.1l-0.9-0.2l-3.9-0.9l-3.4-0.9l-0.6-0.2C249.7,2292,248.9,2291.8,248,2291.6z"/></g><g id="Side_Basic-Boot_M" style="fill: rgb(111, 103, 103);"><path d="M899.6,2286.6c14.6,1.6,31.4,9.9,43.8,11.9c0.7,0.1,1.4,0.2,2,0.3c0.2,4.4,0.1,8.7,0.2,12.6 c0.5,21.8-2.2,114.8-6.5,114.6c-4.3-0.2-16.7-2.4-19.9-5.8c-2.1-2.2-2.5-7.6-3.2-10.5c-2.2-9.2-4.2-18.5-5.6-27.9 c-1.9-12.6-3.3-25.1-4.3-37.8C904.7,2324.9,901.8,2305.7,899.6,2286.6z"/><path d="M380.7,2286.6c-14.6,1.6-31.4,9.9-43.8,11.9c-0.7,0.1-1.4,0.2-2,0.3c-0.2,4.4-0.1,8.7-0.2,12.6 c-0.5,21.8,2.2,114.8,6.5,114.6c4.3-0.2,16.7-2.4,19.9-5.8c2.1-2.2,2.5-7.6,3.2-10.5c2.2-9.2,4.2-18.5,5.6-27.9 c1.9-12.6,3.4-25.1,4.3-37.8C375.5,2324.9,378.4,2305.7,380.7,2286.6z"/></g></g></g><g id="Sleeves_M" class="toggle" style="fill: rgb(41, 35, 35);"><g><path d="M928.3,573.2l28.4,62.9c0,0,44.9-34.2,74.8-51.1c29.9-17,46.4-28,73.3-38.4c26.9-10.4,53.9-15.7,53.9-15.7 l-64.3-130.6l-61.4-103.1l-122.7,54.8L928.3,573.2z"/><path d="M943.2,606.4c-2.1-2.6,53.8-48,91.2-67.6c37.4-19.6,108.6-39.4,108.6-39.4"/></g><g><path d="M351.7,573.2l-28.4,62.9c0,0-44.9-34.2-74.8-51.1c-29.9-17-46.4-28-73.3-38.4c-26.9-10.4-53.9-15.7-53.9-15.7 l64.3-130.6l61.4-103.1l122.7,54.8L351.7,573.2z"/><path d="M336.8,606.4c2.1-2.6-53.8-48-91.2-67.6c-37.4-19.6-108.6-39.4-108.6-39.4"/></g></g><g id="Gloves_M"><g id="Left-Glove_M"><g id="Basic_Left_Glove_M" class="option" style="display: inherit; fill: rgb(41, 35, 35);"><path d="M1208.1,1298.1c-5.7-0.3-11.1-0.2-16.8,1c-3.9,0.8-7.6,1.7-11.1,3.7c-10.5,6.1-7.6,19.3,1.7,24.3 c10.9,5.9,28.2,0.1,33.2-11.2C1217.3,1311.3,1210.9,1302.6,1208.1,1298.1"/><path d="M1188.9,1309.6c-5.7-0.3-11.1-0.2-16.8,1c-3.9,0.8-7.6,1.7-11.1,3.7c-10.5,6.1-7.6,19.3,1.7,24.3 c10.9,5.9,28.2,0.1,33.2-11.2C1198,1322.8,1191.7,1314.1,1188.9,1309.6"/><path d="M1175.1,1325.2c-5.7,0.5-12.6,1.3-18,3.3c-3.7,1.3-7.3,2.7-10.5,5.2c-9.6,7.4-5,20.1,5,23.8 c11.6,4.3,28-3.7,31.4-15.6C1184.4,1337.1,1175.1,1325.2,1175.1,1325.2z"/><path d="M1144,1148.2c0,0-16.5,22.9-20.8,39.4c-3,11.6-1.4,39.3-5.3,57.9c-3.8,18.6-7.3,28.9-7.3,28.9 s-14.6,29.8-12,36.6c2.5,6.8,15.4,12.9,22.8,9.3c9.1-4.5,20.5-25.5,27.6-40.2c7.3-15,13.3-36.4,13.3-36.4s10,3.5,15.2,7.4 c17.1,13.2,9.7,52.9,9.7,52.9s-7,14.2-17.6,30.2c-14.5,21.8-36.6,40.6-22,57.2c13.7,15.6,44.8-25.3,44.8-25.3l30.5-39.8 c0,0,35-57.7,36.8-68.9c1.4-8.5,0.2-37.1,0.2-37.1l-10.9-110.6l-55.5,4.6l-45.7,14.9L1144,1148.2"/></g></g><g id="Right-Glove_M"><g id="Basic_Right_Glove_M" class="option" style="display: inherit; fill: rgb(41, 35, 35);"><path d="M71.9,1298.1c5.7-0.3,11.1-0.2,16.8,1c3.9,0.8,7.6,1.7,11.1,3.7c10.5,6.1,7.6,19.3-1.7,24.3 c-10.9,5.9-28.2,0.1-33.2-11.2C62.7,1311.3,69.1,1302.6,71.9,1298.1"/><path d="M91.1,1309.6c5.7-0.3,11.1-0.2,16.8,1c3.9,0.8,7.6,1.7,11.1,3.7c10.5,6.1,7.6,19.3-1.7,24.3 c-10.9,5.9-28.2,0.1-33.2-11.2C82,1322.8,88.4,1314.1,91.1,1309.6"/><path d="M104.9,1325.2c5.7,0.5,12.6,1.3,18,3.3c3.7,1.3,7.3,2.7,10.5,5.2c9.6,7.4,5,20.1-5,23.8 c-11.6,4.3-28-3.7-31.4-15.6C95.6,1337.1,104.9,1325.2,104.9,1325.2z"/><path d="M136,1148.2c0,0,16.5,22.9,20.9,39.4c3,11.6,1.4,39.3,5.3,57.9c3.8,18.6,7.3,28.9,7.3,28.9 s14.6,29.8,12,36.6c-2.5,6.8-15.4,12.9-22.7,9.3c-9.2-4.5-20.5-25.5-27.7-40.2c-7.3-15-13.3-36.4-13.3-36.4s-10,3.5-15.2,7.4 c-17.1,13.2-9.7,52.9-9.7,52.9s7,14.2,17.6,30.2c14.4,21.8,36.6,40.6,22,57.2c-13.7,15.6-44.8-25.3-44.8-25.3l-30.5-39.8 c0,0-35-57.7-36.8-68.9c-1.4-8.5-0.2-37.1-0.2-37.1l10.9-110.6l55.5,4.6l45.7,14.9L136,1148.2"/></g></g></g></g></g><g id="Biceps_Current" transform="translate(199,588)"><g id="LeftBiceps_Current"><g id="Left-Biceps_M"><g id="Basic_Biceps_Left_M" class="option" style="display: inherit;"><path id="Main_Basic_Biceps_Left_M" d="M1224.3,527.2c-12.1-29.3-65.9-157.6-65.9-157.6s-88.4,36.5-110.4,45.6 c-6.2,2.6-9.2,9.7-6.6,16c10.4,25.2,35.8,86.8,51.7,125.1c3.6,8.7,10.5,15.6,19.1,19.2c8.7,3.6,18.4,3.6,27.1,0 c26-10.7,60.8-25.1,78.4-32.4C1223.9,540.6,1226.8,533.4,1224.3,527.2z" style="fill: rgb(222, 90, 0);"/><path id="Strap_Basic_Biceps_Left_M" d="M1065,488l-62,25.6l-1.5,45.7l79.4-32.8L1065,488" style="fill: rgb(153, 44, 197);"/></g></g></g><g id="RightBiceps_Current"><g id="Right-Biceps_M"><g id="Basic_Biceps_Right_M" class="option" style="display: inherit;"><path id="Main_Basic_Biceps_Right_M" d="M178,527.2c12.1-29.3,65.9-157.6,65.9-157.6s88.4,36.5,110.4,45.6 c6.2,2.6,9.2,9.7,6.6,16c-10.4,25.2-35.8,86.8-51.7,125.1c-3.6,8.7-10.5,15.6-19.1,19.2c-8.7,3.6-18.4,3.6-27.1,0 c-26-10.7-60.8-25.1-78.4-32.4C178.4,540.6,175.4,533.4,178,527.2z" style="fill: rgb(222, 90, 0);"/><path id="Strap_Basic_Biceps_Right_M" d="M337.2,488l62,25.6l1.5,45.7l-79.4-32.8L337.2,488" style="fill: rgb(153, 44, 197);"/></g></g></g></g><g id="Vest_Current" transform="translate(260,575)"><path id="Vest_M" d="M640,197.9c90.1-0.1,163.5-45.9,165.6-85.4l1.6,0.2l194.8,57.8l141.1,255.2l-30.3,12.4l-142.3-91.7 L946,386.1l-16.3,505.4c0,0-92.4,50.2-143.4,57c-36.5,4.8-91.5,7.2-146.2,7.1c-54.7,0.1-109.7-2.3-146.2-7.1 c-51-6.8-143.4-57-143.4-57L334,386.1l-24.5-39.6l-142.3,91.7l-30.3-12.4L278,170.5l194.8-57.8l1.6-0.2 C476.5,152.1,549.9,197.9,640,197.9" style="fill: rgb(41, 35, 35);"/></g><g id="Upper-Body_M_Wrapper" transform="translate(199,588)"><g id="Chest_Current" class="Galaxy_M"><g id="Abdomen_Galaxy_M"><path id="Abdomen-Plate_Galaxy_M" d="M627.2,751.4l-22,16l-111.9-16l-8.2-61.8l53-1.1l32.1-52.5l14.6-48.3l116-106.2 l0.2,0.2l0.2-0.2l116,106.2l14.6,48.3l32.1,52.5l53,1.1l-8.2,61.8l-111.9,16l-22-16H627.2z" style="fill: rgb(111, 103, 103);"/></g><g id="Full-Chest_Galaxy_M"><path id="Chest-Plate_Galaxy_M" d="M654.4,327.4l-0.2,108.2l34,34.4L569,582.9L553.5,635l-25.3,41.5h-43.7l-21.2-31 l-27-151.5l-39.6-61.9l50.1-162.1l57.8-7.3l8.1-35.8l61.9-7.6l19.6,32h213l19.6-32l61.9,7.6l8.1,35.8l57.8,7.3l50.1,162.1 l-39.6,61.9l-27,151.5l-21.2,31h-43.7L848.5,635L833,582.9l-119.2-113l34-34.4l-0.2-108.2L701,291.1L654.4,327.4z" style="fill: rgb(153, 44, 197);"/><g id="Accents_Chest-Plate_Galaxy_M" class="toggle" style="fill: rgb(111, 103, 103);"><rect x="818.8" y="303.9" width="98" height="13"/><rect x="818.8" y="326.9" width="98" height="13"/></g></g><g id="Iron-Heart_Galaxy_M"><path id="Heart_Galaxy_M" d="M672.4,432.5v-97.4l28.6-22.4l28.6,22.4v97.4L701,461.3L672.4,432.5z" style="fill: rgb(111, 103, 103);"/><rect id="Center_Heart_Galaxy_M" x="691.1" y="350" width="19.8" height="66.7" class="option" style="display: inherit; fill: rgb(221, 83, 0);"/></g><g id="Neck-Armor_Galaxy_M"><g id="Neck-Plate_Galaxy_M" style="fill: rgb(153, 44, 197);"><path d="M677.2,240.8l-78.3,1.3l-19.3-31.6l-74.7,8.9l-7.4,32.8l-47.9,5.9l-35.3-121.8l122.5-36.7 c0,0,16.2,27.5,28,37.2c12.1,9.9,28.2,21.6,43.3,28.2c16.5,7.2,36.7,12.1,55.9,15.2c2,0.3,4.1,0.6,6.2,0.9L677.2,240.8z"/><path d="M724.8,240.8l78.3,1.3l19.3-31.6l74.7,8.9l7.4,32.8l47.9,5.9l35.3-121.8L865.4,99.5c0,0-16.2,27.5-28,37.2 c-12.1,9.9-28.2,21.6-43.3,28.2c-16.5,7.2-36.7,12.1-55.9,15.2c-2,0.3-4.1,0.6-6.2,0.9L724.8,240.8z"/></g></g></g><g id="Collar_Current"/><g id="ChestAttachments_Current"><g id="Chest-Attachments_M"><g id="Bandoleer_Accessories_Chest_M" class="option" style="display: inherit;"><g id="Strap_Bandoleer_Accessories_Chest_M" style="fill: rgb(111, 103, 103);"><path d="M998.3,132.6l-70-33.6L485.5,901.7l70.1,38.6L998.3,132.6"/><path d="M979.3,119.7l-26.6-12.4l-88.4,160.2l25.6,14.1L979.3,119.7"/><path d="M854,351l-29.3-16.1L688.9,581.2l29.2,16.1L854,351"/><path d="M856.9,360.3l-41.5-22.9l-13.6,24.7l41.5,22.9L856.9,360.3"/><path d="M840.4,390.2l-41.5-22.9L785.3,392l41.5,22.9L840.4,390.2"/><path d="M823.9,420.1l-41.5-22.9l-13.6,24.7l41.5,22.9L823.9,420.1"/><path d="M807.4,450l-41.5-22.9l-13.6,24.7l41.5,22.9L807.4,450"/><path d="M790.9,479.9L749.4,457l-13.6,24.7l41.5,22.9L790.9,479.9"/><path d="M757.9,539.7l-41.5-22.9l-13.6,24.7l41.5,22.9L757.9,539.7"/><path d="M774.4,509.8l-41.5-22.9l-13.6,24.7l41.5,22.9L774.4,509.8"/><path d="M741.4,569.6l-41.5-22.9l-13.6,24.7l41.5,22.9L741.4,569.6"/></g><g id="Ammo_Bandoleer_Accessories_Chest_M" style="fill: rgb(255, 104, 0);"><g><g><path d="M855.4,362.9l17,9.4c1.8,1,2.5,3.3,1.5,5.1c-1.9,3.5-5,9.1-7,12.6c-1,1.8-3.3,2.5-5.1,1.5l-17-9.4 L855.4,362.9z"/><path d="M868,369.8l-1.4-0.8l-10.6,19.2l1.4,0.8L868,369.8z"/><path d="M865,368.1l-1.4-0.8L853,386.6l1.4,0.8L865,368.1z"/></g><g><path d="M813.9,340l-10.6,19.2l-17-9.4c-1.8-1-2.5-3.3-1.5-5.1c1.9-3.5,5-9.1,7-12.6c1-1.8,3.3-2.5,5.1-1.5 L813.9,340z"/><path d="M801.1,332.9l-1.4-0.8L789,351.3l1.4,0.8L801.1,332.9z"/></g></g><g><g><path d="M822.4,422.9l17,9.4c1.8,1,2.5,3.3,1.5,5.1c-1.9,3.5-5,9.1-7,12.6c-1,1.8-3.3,2.5-5.1,1.5l-17-9.4 L822.4,422.9z"/><path d="M834.9,429.8l-1.4-0.8l-10.6,19.2l1.4,0.8L834.9,429.8z"/><path d="M831.9,428.2l-1.4-0.8l-10.6,19.2l1.4,0.8L831.9,428.2z"/></g><g><path d="M780.8,400l-10.6,19.2l-17-9.4c-1.8-1-2.5-3.3-1.5-5.1c1.9-3.5,5-9.1,7-12.6c1-1.8,3.3-2.5,5.1-1.5 L780.8,400z"/><path d="M768,392.9l-1.4-0.8L756,411.3l1.4,0.8L768,392.9z"/></g></g><g><g><path d="M805.9,452.6l17,9.4c1.8,1,2.5,3.3,1.5,5.1c-1.9,3.5-5,9.1-7,12.6c-1,1.8-3.3,2.5-5.1,1.5l-17-9.4 L805.9,452.6z"/><path d="M818.5,459.5l-1.4-0.8L806.5,478l1.4,0.8L818.5,459.5z"/><path d="M815.5,457.9l-1.4-0.8l-10.6,19.2l1.4,0.8L815.5,457.9z"/></g><g><path d="M764.4,429.7l-10.6,19.2l-17-9.4c-1.8-1-2.5-3.3-1.5-5.1c1.9-3.5,5-9.1,7-12.6c1-1.8,3.3-2.5,5.1-1.5 L764.4,429.7z"/><path d="M751.6,422.6l-1.4-0.8l-10.6,19.2l1.4,0.8L751.6,422.6z"/></g></g><g><g><path d="M789.4,482.7l17,9.4c1.8,1,2.5,3.3,1.5,5.1c-1.9,3.5-5,9.1-7,12.6c-1,1.8-3.3,2.5-5.1,1.5l-17-9.4 L789.4,482.7z"/><path d="M801.9,489.6l-1.4-0.8L789.9,508l1.4,0.8L801.9,489.6z"/><path d="M798.9,488l-1.4-0.8l-10.6,19.2l1.4,0.8L798.9,488z"/></g><g><path d="M747.9,459.8L737.3,479l-17-9.4c-1.8-1-2.5-3.3-1.5-5.1c1.9-3.5,5-9.1,7-12.6c1-1.8,3.3-2.5,5.1-1.5 L747.9,459.8z"/><path d="M735,452.7l-1.4-0.8L723,471.1l1.4,0.8L735,452.7z"/></g></g></g><g id="Buckles_Bandoleer_Accessories_Chest_M" style="fill: rgb(153, 44, 197);"><g><path d="M902.4,264.8L871.9,248l-17.2,31.3l30.5,16.8L902.4,264.8z"/><path d="M894.6,270.1l-23-12.7l-17.2,31.3l23,12.7L894.6,270.1z"/></g><path d="M902.4,228.2l-19.7-10.8l17.1-31.1l39.8,21.9l-17.1,31.1L902.4,228.2l3.9-7l11.2,6.2l9.4-17.1l-22-12.1 l-9.4,17.1l10.8,5.9"/></g></g></g></g><g id="Gauntlets_Current"><g id="LeftGauntlets_Current"><g id="Left-Gauntlets_M"><g id="Heavy_Gauntlet_Left_M" class="option" style="display: inherit;"><g id="Top-2_Heavy_Gauntlet_Left_M" style="fill: rgb(153, 44, 197);"><path d="M1291.2,814.3l18.4,1.4l15.1,86.4l-15.6,13.1L1291.2,814.3z"/><path d="M1307.8,907.7l19.3,112.7l-10.1,13.7l11.8,66.3l-4.7,3.5l-32.6-181.5L1307.8,907.7z"/><circle cx="1307.9" cy="879.6" r="4"/></g><g id="Top-1_Heavy_Gauntlet_Left_M" style="fill: rgb(153, 44, 197);"><path d="M1277.8,1116.3l46.2-12.5l-32.6-181.5l16.3-14.7l-17.6-98.9l-69.9-7.2L1277.8,1116.3z"/><path d="M1272.2,806.9l19.3,115.4"/></g><g id="Accent-Top_Heavy_Gauntlet_Left_M" style="fill: rgb(111, 103, 103);"><path d="M1310.7,1075.9l-29.4,6l4.5,22.9l29.4-7L1310.7,1075.9z"/><path d="M1292.2,979.8l-29.4,6l17.2,89.6l29.4-6L1292.2,979.8z"/><path d="M1265.8,813.5l-33.2-2.5l17.4,98.2l30.8-6.3L1265.8,813.5z"/></g><path id="Bottom_Heavy_Gauntlet_Left_M" d="M1221.2,806.3c-35.7,1.4-72.9,16.8-96.1,46.9c-7.5,9.8-9.8,22.6-6.2,34.4 c17.4,57,74.3,243.5,74.3,243.5l84.6-14.8L1221.2,806.3z" style="fill: rgb(111, 103, 103);"/><g id="Accent-Bottom_Heavy_Gauntlet_Left_M" style="fill: rgb(111, 103, 103);"><path d="M1277.8,1116.3l-84.6,14.8l-4.6-15l86.2-16.2L1277.8,1116.3z"/><path d="M1225,827.3c-46.1,4.6-84.6,21.4-102.7,71.4l-3.4-11.1c-2.8-9.3-2-19.2,2.2-27.8l4.3-6.9 c23.2-29.9,60.2-45.2,95.8-46.6L1225,827.3z"/><path d="M1213,813.2l-37.3,7.4l29.4,148.1l37.3-7.4L1213,813.2z"/><path d="M1208.7,816.9l-27.5,5.4l27.2,137l27.5-5.4L1208.7,816.9z"/><path d="M1181.2,822.4l-5.4-1.8"/><path d="M1213,813.2l-4.4,3.7"/><path d="M1242.4,961.3l-6.6-7.4"/><path d="M1205.1,968.7l3.9-9.5"/></g><g id="No-Device_Attachment_Heavy_Gauntlet_Left_M" class="option" style="display: inherit;"></g></g></g></g><g id="RightGauntlets_Current"><g id="Right-Gauntlets_M"><g id="Heavy_Gauntlet_Right_M" class="option" style="display: inherit;"><g id="Top-2_Heavy_Gauntlet_Right_M" style="fill: rgb(153, 44, 197);"><path d="M112.8,814.3l-18.4,1.4l-15.1,86.4l15.6,13.1L112.8,814.3z"/><path d="M96.2,907.7l-19.3,112.7L87,1034l-11.8,66.3l4.7,3.5l32.6-181.5L96.2,907.7z"/><circle cx="96" cy="879.6" r="4"/></g><g id="Top-1_Heavy_Gauntlet_Right_M" style="fill: rgb(153, 44, 197);"><path d="M126.1,1116.3l-46.2-12.5l32.6-181.5l-16.3-14.7l17.6-98.9l69.9-7.2L126.1,1116.3z"/><path d="M131.8,806.9l-19.3,115.4"/></g><g id="Accent-Top_Heavy_Gauntlet_Right_M" style="fill: rgb(111, 103, 103);"><path d="M93.2,1075.9l29.4,6l-4.5,22.9l-29.4-7L93.2,1075.9z"/><path d="M111.7,979.8l29.4,6l-17.2,89.6l-29.4-6L111.7,979.8z"/><path d="M138.1,813.5l33.2-2.5l-17.4,98.2l-30.8-6.3L138.1,813.5z"/></g><path id="Bottom_Heavy_Gauntlet_Right_M" d="M182.8,806.3c35.7,1.4,72.9,16.8,96.1,46.9c7.5,9.8,9.8,22.6,6.2,34.4 c-17.4,57-74.3,243.5-74.3,243.5l-84.6-14.8L182.8,806.3z" style="fill: rgb(111, 103, 103);"/><g id="Accent-Bottom_Heavy_Gauntlet_Right_M" style="fill: rgb(111, 103, 103);"><path d="M126.1,1116.3l84.6,14.8l4.6-15l-86.1-16.2L126.1,1116.3z"/><path d="M178.9,827.3c46.1,4.6,84.6,21.4,102.7,71.4l3.4-11.1c2.8-9.3,2-19.2-2.2-27.8l-4.3-6.9 c-23.2-29.9-60.2-45.2-95.7-46.6L178.9,827.3z"/><path d="M190.9,813.2l37.3,7.4l-29.4,148.1l-37.3-7.4L190.9,813.2z"/><path d="M195.3,816.9l27.5,5.4l-27.2,137l-27.5-5.4L195.3,816.9z"/><path d="M222.8,822.4l5.4-1.8"/><path d="M190.9,813.2l4.4,3.7"/><path d="M161.5,961.3l6.6-7.4"/><path d="M198.8,968.7l-3.9-9.5"/></g><g id="No-Device_Attachment_Heavy_Gauntlet_Right_M" class="option" style="display: inherit;"></g></g></g></g></g></g><g id="Helmet_M_Wrapper" transform="translate(550,35)"><g id="Helmet_Current" class="Classic"><g id="Left-Earcap_Classic" class="toggle"><path id="Ear-Cap_Left_Classic" d="M565.5,584.4l18.7-27.6l-18.7-191.1l-26.1-16.4L565.5,584.4z" style="fill: rgb(153, 44, 197);"/></g><g id="Right-Earcap_Classic" class="toggle"><path id="Ear-Cap_Right_Classic" d="M135.1,584.4l-18.7-27.6l18.7-191.1l26.1-16.4L135.1,584.4z" style="fill: rgb(153, 44, 197);"/></g><g id="Helmet_Pieces_Classic"><g id="Face_Classic" style="fill: rgb(153, 44, 197);"><path d="M159.5,601c0,0,6.6-44.9,16.5-67.2c10.1-22.7,29.3-47.7,51.1-43.8c17.4,3.1,51.9,85.2,54.4,185.9 C279.9,674.5,159.5,601,159.5,601z"/><path d="M540.8,601c0,0-6.6-44.9-16.5-67.2c-10.1-22.7-29.3-47.7-51.1-43.8c-17.4,3.1-51.9,85.2-54.4,185.9 C420.5,674.5,540.8,601,540.8,601z"/></g><g id="Cheeks_Classic" style="fill: rgb(111, 103, 103);"><path d="M159.5,601v1l-26.2-2.1l18.9-174.8c6.6,2,60.7,19,79.1,36c19.5,18.1,32.4,46.3,38.5,72.7 c6.7,28.8,10.2,103.2,11.3,131.3c-4.6-95.7-37.2-172-54-175c-21.8-3.9-41,21.1-51.1,43.8C166.1,556.1,159.5,601,159.5,601z"/><path d="M419.2,665.1c1.1-28.1,4.6-102.5,11.3-131.3c6.2-26.4,19-54.5,38.5-72.7c18.1-16.8,71.3-33.5,79.1-35.9 L567.1,600l-26.2,2.1v-1c0,0-6.6-44.9-16.5-67.2c-10.1-22.7-29.3-47.7-51.1-43.8C456.5,493.1,423.8,569.4,419.2,665.1z"/></g><path id="Eyes_Classic" d="M418.8,676H281.5c0,0-3.4-106.4-11.7-142.2c-6.2-26.4-19-54.5-38.5-72.7 C211.7,443,152.6,425,152.6,425l7-67.4c0,0,61.1,7.9,91.9,9.9c28.9,1.8,87.3,2.3,98.8,2.3c11.5-0.1,69.9-0.5,98.8-2.3 c30.8-2,91.9-9.9,91.9-9.9l7,67.4c0,0-59.2,18.1-78.7,36.2c-19.5,18.1-32.4,46.3-38.5,72.7C422.2,569.6,418.9,675.8,418.8,676z" style="fill: rgb(153, 44, 197);"/><g id="Visors_Classic"><path id="Basic_Visor_Classic" style="display: inherit; fill: rgb(0, 0, 0);" d="M387.1,676h-73.8V425c0,0-41-3.8-60.9-8.3c-24.3-5.6-84.7-25-84.7-25 l0.8-14.1c0,0,55.8,9.5,83.9,12.5c27.5,2.9,65.2,6.9,97.8,6.9c32.6,0,70.3-4,97.8-6.9c28.1-3,83.9-12.5,83.9-12.5l0.8,14.1 c0,0-60.5,19.4-84.7,25c-19.9,4.6-60.9,8.3-60.9,8.3V676z" class="option"/></g><path id="Dome_Classic" d="M159.5,357.7l0-0.1l0-1.2c0.7-99.5,84.6-180.4,188.7-182.4v0l1.2,0l0.7,0l0.7,0l1.2,0v0 c104.1,2,188,82.8,188.7,182.4l0,1.2l0,0.1c-8.1,1-63.4,8-91.9,9.8c-28.9,1.8-87.3,2.3-98.8,2.3c-11.5-0.1-69.9-0.5-98.8-2.3 C222.9,365.6,167.6,358.7,159.5,357.7z" style="fill: rgb(111, 103, 103);"/></g></g></g><g transform="translate(199, 588)" id="Shoulders_Current"><g id="LeftShoulder_Current"><g id="Left-Shoulder_M"><g id="Classic_Shoulder_Left_M" class="option" style="display: inherit;"><path id="Main_Shoulder_Classic_Left_M" d="M1042.4,116.3l-26.7,120.8l21.4,69.6l143,72.4l24-36.9L1042.4,116.3z" style="fill: rgb(153, 44, 197);"/></g></g></g><g id="RightShoulder_Current"><g id="Right-Shoulder_M"><g id="Classic_Shoulder_Right_M" class="option" style="display: inherit;"><path id="Main_Shoulder_Classic_Right_M" d="M359.6,116.3l26.7,120.8l-21.4,69.6l-143,72.4l-24-36.9L359.6,116.3z" style="fill: rgb(153, 44, 197);"/></g></g></g></g><g id="Lower-Body_M_Wrapper" transform="translate(268,1340)"><g id="Knees_Current"><g id="LeftKnee_Current"><g id="Left-Knee_M"><g id="Basic_Knee_Left_M" class="option" style="display: inherit;"><g id="Knee_Basic-Knee_Left_M" style="fill: rgb(153, 44, 197);"><path d="M754.2,903.7l15.2-2.5c0,0,11.5,73.9,16.6,106.6c1.3,8.4-4.4,16.3-12.8,17.7l0,0L754.2,903.7z"/><path d="M768.9,898.2l8.7,54.8c11.1-6.3,39.2,5.3,48.4,38.2c16.8,60.4,31.5,74.3,84.2,68.8 c41-4.2,70.3-23.5,73.7-51.9c4.9-41.1,0-100.6-2.5-125.7c-0.3-3.1-1.9-6-4.4-7.9c-2.5-1.9-5.6-2.8-8.7-2.4 C923.9,877.9,768.9,898.2,768.9,898.2z"/><path d="M763.7,899l5.2-0.8l9.7,59.3l-5.2,0.8L763.7,899z"/></g></g></g></g><g id="RightKnee_Current"><g id="Right-Knee_M"><g id="Basic_Knee_Right_M" class="option" style="display: inherit;"><g id="Knee_Basic-Knee_Right_M" style="fill: rgb(153, 44, 197);"><path d="M511,903.7l-15.2-2.5c0,0-11.5,73.9-16.6,106.6c-1.3,8.4,4.4,16.3,12.8,17.7l0,0L511,903.7z"/><path d="M496.3,898.2l-8.7,54.8c-11.1-6.3-39.2,5.3-48.4,38.2c-16.8,60.4-31.5,74.3-84.2,68.8 c-41-4.2-70.3-23.5-73.7-51.9c-4.9-41.1,0-100.6,2.5-125.7c0.3-3.1,1.9-6,4.4-7.9c2.5-1.9,5.6-2.8,8.7-2.4 C341.3,877.9,496.3,898.2,496.3,898.2z"/><path d="M501.5,899l-5.2-0.8l-9.7,59.3l5.2,0.8L501.5,899z"/></g></g></g></g></g><g id="Shins_Current"><g id="LeftShin_Current"><g id="Left-Shin_M"><g id="Legacy_Shin_Left_M" class="option" style="display: inherit;"><path id="Plate-3_Legacy-Shin_Left_M" d="M858.7,1317.1l43.6,164c0,0,52.2,10.3,80.3,7c28.1-3.3,65.7-18.4,65.7-18.4 l-16.4-176.4l-75.2,46.7L858.7,1317.1" style="fill: rgb(153, 44, 197);"/><path id="Plate-2_Legacy-Shin_Left_M" d="M826.2,1215.9l25.4,99.5l105.2,24.5l81.7-50.7l-8.1-100.4l-91.7,47.2 L826.2,1215.9" style="fill: rgb(111, 103, 103);"/><path id="Plate-1_Legacy-Shin_Left_M" d="M864.4,1075.9l-63.4,69.6l18,69.1l119.7,21.3l98.1-50.5l-6.5-85l-77.2-37.3 L864.4,1075.9" style="fill: rgb(153, 44, 197);"/></g></g></g><g id="RightShin_Current"><g id="Right-Shin_M"><g id="Legacy_Shin_Right_M" class="option" style="display: inherit;"><path id="Plate-3_Legacy-Shin_Right_M" d="M406.5,1317.1l-43.6,164c0,0-52.2,10.3-80.3,7 c-28.1-3.3-65.7-18.4-65.7-18.4l16.4-176.4l75.2,46.7L406.5,1317.1" style="fill: rgb(153, 44, 197);"/><path id="Plate-2_Legacy-Shin_Right_M" d="M439,1215.9l-25.4,99.5l-105.2,24.5l-81.7-50.7l8.1-100.4l91.8,47.2 L439,1215.9" style="fill: rgb(111, 103, 103);"/><path id="Plate-1_Legacy-Shin_Right_M" d="M400.8,1075.9l63.4,69.6l-18,69.1L326.6,1236l-98.1-50.5l6.5-85l77.2-37.3 L400.8,1075.9" style="fill: rgb(153, 44, 197);"/></g></g></g></g><g id="Ankles_Current"><g id="LeftAnkle_Current"><g id="Left-Ankle_M"><g id="Heavy_Ankle_Left_M" class="option" style="display: inherit;"><path id="Plate_Heavy-Ankle_Left_M" d="M868.4,1545l3.8,38.4l78.7,98.7l76.7-34.6l83.6-21.6l-63.1-112.2 c-31.8-4.4-69-0.6-111.8,12.3l-23.8,21L868.4,1545" style="fill: rgb(111, 103, 103);"/><path id="Trim_Heavy-Ankle_Left_M" d="M936.3,1526l9,10.9l-28.1,23.9l-31.8-1.4l1.1,15.6l68.2,84.4l68.5-32.1 l82.4-19.6l8.5,17.3l-86.5,22.4l-76.7,34.6l-78.7-98.7l-3.8-38.4l44.1,2L936.3,1526" style="fill: rgb(153, 44, 197);"/></g></g></g><g id="RightAnkle_Current"><g id="Right-Ankle_M"><g id="Heavy_Ankle_Right_M" class="option" style="display: inherit;"><path id="Plate_Heavy-Ankle_Right_M" d="M396.6,1545l-3.8,38.4l-78.7,98.7l-76.7-34.6l-83.6-21.6l63.1-112.2 c31.8-4.4,69-0.6,111.8,12.3l23.8,21L396.6,1545" style="fill: rgb(111, 103, 103);"/><path id="Trim_Heavy-Ankle_Right_M" d="M328.7,1526l-9,10.9l28.1,23.9l31.9-1.4l-1.1,15.6l-68.2,84.4l-68.5-32.1 l-82.4-19.6l-8.5,17.3l86.5,22.4l76.7,34.6l78.7-98.7l3.8-38.4l-44.1,2L328.7,1526" style="fill: rgb(153, 44, 197);"/></g></g></g></g><g id="Toes_Current"><g id="LeftToe_Current"><g id="Left-Toe_M"><g id="None_Toe_Left_M" class="option" style="display: inherit;"></g></g></g><g id="RightToe_Current"><g id="Right-Toe_M"><g id="None_Toe_Right_M" class="option" style="display: inherit;"></g></g></g></g><g id="Thighs_Current"><g id="LeftThigh_Current"><g id="Left-Thigh_M"><g id="Legacy_Thigh_Left_M" class="option" style="display: inherit;"><path id="Plate-3_Legacy-Thigh_Left_M" d="M768.7,708.2l19.4,113l109.4,17l88.4-38.6l4.3-115.4l-100.6,47.3 L768.7,708.2" style="fill: rgb(111, 103, 103);"/><path id="Plate-2_Legacy-Thigh_Left_M" d="M744.4,599.4L763,707.2l126.5,24.3l106.4-50l5.2-131.3L880.9,627 L744.4,599.4" style="fill: rgb(153, 44, 197);"/><path id="Plate-1_Legacy-Thigh_Left_M" d="M1012.6,443L919,361.2l-125,20.5l-71.8,118.7l18,98.1L880.9,627 l125.8-80.3L1012.6,443" style="fill: rgb(111, 103, 103);"/><g id="Ridge_Legacy-Thigh_Left_M" class="toggle" style="fill: rgb(153, 44, 197);"><path d="M910.5,608.1l4.9,111.3l-25.9,12.2l-33.3-6.4l-15-106.1l39.6,8L910.5,608.1"/><path d="M915.4,719.3l6.8,108.1l-24.8,10.8l-28.5-4.4l-12.7-108.7l33.3,6.4L915.4,719.3"/><path d="M841.3,619l-30.8-240l42.9-21.9l45.4,7.4l11.8,243.6L880.9,627L841.3,619"/><path d="M853.3,357.1L880.9,627"/><path d="M880.9,627l8.6,104.5"/><path d="M889.6,731.5l7.9,106.8"/></g></g></g></g><g id="RightThigh_Current"><g id="Right-Thigh_M"><g id="Legacy_Thigh_Right_M" class="option" style="display: inherit;"><path id="Plate-3_Legacy-Thigh_Right_M" d="M496.5,708.2l-19.4,113l-109.4,17l-88.4-38.6l-4.3-115.4l100.6,47.3 L496.5,708.2" style="fill: rgb(111, 103, 103);"/><path id="Plate-2_Legacy-Thigh_Right_M" d="M520.9,599.4l-18.7,107.8l-126.5,24.3l-106.4-50l-5.2-131.3L384.3,627 L520.9,599.4" style="fill: rgb(153, 44, 197);"/><path id="Plate-1_Legacy-Thigh_Right_M" d="M252.7,443l93.6-81.9l125,20.5L543,500.4l-18,98.1L384.3,627l-125.8-80.3 L252.7,443" style="fill: rgb(111, 103, 103);"/><g id="Ridge_Legacy-Thigh_Right_M" class="toggle" style="fill: rgb(153, 44, 197);"><path d="M354.7,608.1l-4.9,111.3l25.9,12.2l33.3-6.4l15-106.1l-39.6,8L354.7,608.1"/><path d="M349.8,719.3l-6.8,108.1l24.8,10.8l28.4-4.4l12.7-108.7l-33.3,6.4L349.8,719.3"/><path d="M423.9,619l30.8-240l-42.9-21.9l-45.4,7.4l-11.8,243.6l29.6,18.9L423.9,619"/><path d="M411.9,357.1L384.3,627"/><path d="M384.3,627l-8.6,104.5"/><path d="M375.7,731.5l-7.9,106.8"/></g></g></g></g></g><g id="Groin_Current"><g id="Groin_M"><g id="Basic_Groin_M" class="option" style="display: inherit;"><path id="Groin-Plate_Basic_M" d="M566.1,514.1L455.3,270.1h354.3L698.8,514.1l-66.4,58.2L566.1,514.1z" style="fill: rgb(153, 44, 197);"/></g></g></g><g id="Waist_Current" class="M"><g id="Accessories_Waist_M"><g id="Kama_M" class="toggle" style=""><g id="Clean_Kama_M" class="option" style="display: inherit;"><g id="Trim_Kama-Clean" style="fill: rgb(153, 44, 197);"><path d="M806.7,101.6l38.1,609.9l280,186.2l-212.4-825L806.7,101.6z"/><path d="M458.8,101.6l-38.1,609.9l-280,186.2l212.4-825L458.8,101.6z"/></g><g id="Main_Kama-Clean" style="fill: rgb(111, 103, 103);"><path d="M826.6,100.3l36.8,589.9l252.6,173.6L912.4,72.7L826.6,100.3z"/><path d="M438.9,100.3l-36.8,589.9L149.4,863.9L353.1,72.7L438.9,100.3z"/></g></g></g><g id="Loin-Cloth_M" class="toggle" style=""><g id="Clean_Loin-Cloth_M" class="option" style="display: inherit;"><path id="Trim_Loin-Cloth-Clean" d="M766.8,140.8h-268v477.1l134,134l134-134V140.8z" style="fill: rgb(153, 44, 197);"/><path id="Main_Loin-Cloth-Clean" d="M749.6,191H515.9v415.9l116.8,116.8l116.8-116.8V191z" style="fill: rgb(111, 103, 103);"/></g></g><g id="Left-Holster_M" class="toggle" style=""><g id="Hanging-Holster_Left_M" class="option" style="display: inherit;"><g id="Weapon_Hanging-Holster-Left_M"><g id="Main_Weapon_Hanging-Holster-Left_M" style="fill: rgb(153, 44, 197);"><path d="M973.6,518l1.8-38.4l6.6,0.3l1.1-24.1l-6.6-0.3l0.6-12.6c0.2-4.1,5.8-7.1,12.5-6.8 c15.4,0.7,41.6,1.9,57,2.6c6.7,0.3,12,3.9,11.8,7.9l-0.6,12.6l-6.6-0.3l-1.1,24.1l6.6,0.3l-1.8,38.4l-15.5-0.7l-4.9,106.2 l-50.2-2.3l4.9-106.2L973.6,518z"/><path d="M1048.5,515.8l-8.9-0.4l-5.9,127.7l-50.2-2.3l5.9-127.7l-8.9-0.4l1.3-29.1l68.1,3.1L1048.5,515.8z"/><path d="M1037.8,446.7l-40.3-1.9l-1.8,39.4l40.3,1.9L1037.8,446.7z"/><path d="M1000.4,525.1l-6.6-0.3l-4.6,100.4l6.6,0.3L1000.4,525.1z"/><path d="M1018.3,503l-6.6-0.3l-4.6,100.4l6.6,0.3L1018.3,503z"/><path d="M1034.1,526.7l-6.6-0.3l-4.6,100.4l6.6,0.3L1034.1,526.7z"/></g><g id="Accent_Weapon_Hanging-Holster-Left_M" style="fill: rgb(221, 83, 0);"><path d="M1001.4,488.5l-0.2,4l28.4,1.3l0.2-4L1001.4,488.5z"/><path d="M1001.3,492.5l-0.2,4l28.4,1.3l0.2-4L1001.3,492.5z"/><path d="M1001.6,484.5l-0.2,4l28.4,1.3l0.2-4L1001.6,484.5z"/><path d="M1003.9,435l-0.2,4l28.4,1.3l0.2-4L1003.9,435z"/><path d="M1004.1,445.1l-6.6-0.3l-1.8,39.4l6.6,0.3L1004.1,445.1z"/><path d="M1037.8,446.7l-6.6-0.3l-1.8,39.4l6.6,0.3L1037.8,446.7z"/><path d="M1027.5,526.4l-10-0.5l-4.6,100.4l10,0.5L1027.5,526.4z"/><path d="M1010.5,525.6l-10-0.5l-4.6,100.4l10,0.5L1010.5,525.6z"/></g></g><path id="Holster_Hanging-Holster-Left_M" d="M974,666l-8.1-161.7l74.7,121.7l-16.5,220 c-17.4,18.3-34.6,18.4-51.4-2L974,666z" style="fill: rgb(111, 103, 103);"/><g id="Straps_Hanging-Holster-Left_M" style="fill: rgb(111, 103, 103);"><path d="M688.2,243.4c81.7,117.2,164,216.5,277.7,260.9l1.4,27.7c-141.4-59.6-217.2-160.6-300.8-288.6H688.2z"/><path d="M973.6,698.9c-76.4,58.5-159,90.4-258,95.7l7,21.9c85.6-7.8,165.5-39.5,251-94.5V698.9z"/><path d="M973.6,722l0.2-23.1c19.9,8.8,43,9.5,61.2,3l-1.8,23.6C1013.6,730.5,991.3,730.8,973.6,722z"/></g><g id="Buckle_Hanging-Holster-Left_M" style="fill: rgb(153, 44, 197);"><path d="M794.9,793.4l-10.7,1.6l0.5,3.5l10.7-1.6L794.9,793.4"/><path d="M765.7,361.8l-7.4-9.8l-2.8,2.1l7.4,9.8L765.7,361.8"/><path d="M762.8,364l-12.1,9.8l-28.6-35.3l27.6-22.3l28.6,35.3l-12.6,10.2l-6.1-8.1l6.2-5l-15.8-19.5l-15.2,12.3 l15.8,19.5l6.2-5.1L762.8,364"/><path d="M794.5,793.5l-8.4,1.3l-1.2-8.3l-20.6,4.4l2.9,19.3l20.6-4.4l-1.1-7.5l8.5-1.3l2.2,14.8l-37.3,8l-5.2-35 l37.3-8L794.5,793.5"/></g></g></g><g id="Right-Holster_M" class="toggle" style=""><g id="Hanging-Holster_Right_M" class="option" style="display: inherit;"><g id="Weapon_Hanging-Holster-Right_M"><g id="Main_Weapon_Hanging-Holster-Right_M" style="fill: rgb(153, 44, 197);"><path d="M291.6,518l-1.8-38.4l-6.6,0.3l-1.1-24.1l6.6-0.3l-0.6-12.6c-0.2-4.1-5.8-7.1-12.5-6.8 c-15.4,0.7-41.6,1.9-57,2.6c-6.7,0.3-12,3.9-11.8,7.9l0.6,12.6l6.6-0.3l1.1,24.1l-6.6,0.3l1.8,38.4l15.5-0.7l4.9,106.2 l50.2-2.3l-4.9-106.2L291.6,518z"/><path d="M216.7,515.8l8.9-0.4l5.9,127.7l50.2-2.3l-5.9-127.7l8.9-0.4l-1.3-29.1l-68.1,3.1L216.7,515.8z"/><path d="M227.4,446.7l40.3-1.9l1.8,39.4l-40.3,1.9L227.4,446.7z"/><path d="M264.8,525.1l6.6-0.3l4.6,100.4l-6.6,0.3L264.8,525.1z"/><path d="M246.9,503l6.6-0.3l4.6,100.4l-6.6,0.3L246.9,503z"/><path d="M231.1,526.7l6.6-0.3l4.6,100.4l-6.6,0.3L231.1,526.7z"/></g><g id="Accent_Weapon_Hanging-Holster-Right_M" style="fill: rgb(221, 83, 0);"><path d="M263.8,488.5l0.2,4l-28.4,1.3l-0.2-4L263.8,488.5z"/><path d="M263.9,492.5l0.2,4l-28.4,1.3l-0.2-4L263.9,492.5z"/><path d="M263.6,484.5l0.2,4l-28.4,1.3l-0.2-4L263.6,484.5z"/><path d="M261.3,435l0.2,4l-28.4,1.3l-0.2-4L261.3,435z"/><path d="M261.1,445.1l6.6-0.3l1.8,39.4l-6.6,0.3L261.1,445.1z"/><path d="M227.4,446.7l6.6-0.3l1.8,39.4l-6.6,0.3L227.4,446.7z"/><path d="M237.7,526.4l10-0.5l4.6,100.4l-10,0.5L237.7,526.4z"/><path d="M254.7,525.6l10-0.5l4.6,100.4l-10,0.5L254.7,525.6z"/></g></g><path id="Holster_Hanging-Holster-Right_M" d="M291.2,666l8.1-161.7L224.6,626l16.5,220c17.4,18.3,34.6,18.4,51.4-2 L291.2,666z" style="fill: rgb(111, 103, 103);"/><g id="Straps_Hanging-Holster-Right_M" style="fill: rgb(111, 103, 103);"><path d="M577,243.4c-81.7,117.2-164,216.5-277.7,260.9l-1.4,27.7c141.4-59.6,217.2-160.6,300.8-288.6H577z"/><path d="M291.6,698.9c76.4,58.5,159,90.4,258,95.7l-7,21.9c-85.6-7.8-165.5-39.5-251-94.5V698.9z"/><path d="M291.6,722l-0.2-23.1c-19.9,8.8-43,9.5-61.2,3l1.8,23.6C251.6,730.5,273.9,730.8,291.6,722z"/></g><g id="Buckle_Hanging-Holster-Right_M" style="fill: rgb(153, 44, 197);"><path d="M470.3,793.4L481,795l-0.5,3.5l-10.7-1.6L470.3,793.4"/><path d="M499.5,361.8l7.4-9.8l2.8,2.1l-7.4,9.8L499.5,361.8"/><path d="M502.4,364l12.1,9.8l28.6-35.3l-27.6-22.3L487,351.5l12.6,10.2l6.1-8.1l-6.2-5l15.8-19.5l15.2,12.3 l-15.8,19.5l-6.2-5.1L502.4,364"/><path d="M470.7,793.5l8.5,1.3l1.2-8.3l20.6,4.4l-2.9,19.3l-20.6-4.4l1.1-7.5l-8.5-1.3l-2.2,14.8l37.3,8l5.2-35 l-37.3-8L470.7,793.5"/></g></g></g></g><g id="Under-Belt_M"><g id="Girth-Belt_M" class="option" style="display: inherit; fill: rgb(111, 103, 103);"><path d="M632.4,115.8c-98.8,0-296.5-24-296.5-24l6.4-20.3c0,0,192.8,16,290.1,24c96.8-8,290.1-24,290.1-24l6.4,20.3 C929,91.8,731.3,115.8,632.4,115.8z"/><path d="M632.4,136.1c-100.9,0-302.7-24-302.7-24l6.2-20.3c0,0,247.1,20,296.5,24c49.4-4,296.5-24,296.5-24l6.2,20.3 C935.1,112.1,733.3,136.1,632.4,136.1z"/><path d="M632.4,156.5c-102.4,0-307.3-24-307.3-24l4.6-20.3c0,0,252.3,20,302.7,24c50.5-4,302.7-24,302.7-24l4.6,20.3 C939.7,132.5,734.9,156.5,632.4,156.5z"/><path d="M632.4,176.8c-103.7,0-311.2-24-311.2-24l3.9-20.3c0,0,256.1,20,307.3,24c51.2-4,307.3-24,307.3-24l3.9,20.3 C943.6,152.8,736.2,176.8,632.4,176.8z"/><path d="M632.4,197.1c-104.9,0-314.7-24-314.7-24l3.5-20.3c0,0,259.3,20,311.2,24c51.9-4,311.2-24,311.2-24l3.5,20.3 C947.1,173.1,737.3,197.1,632.4,197.1z"/><path d="M632.4,217.5c-106,0-318-24-318-24l3.3-20.3c0,0,262.2,20,314.7,24c52.4-4,314.7-24,314.7-24l3.3,20.3 C950.4,193.5,738.4,217.5,632.4,217.5z"/><path d="M632.4,237.8c-107.1,0-321.2-24-321.2-24l3.3-20.3c0,0,265,20,318,24c53-4,318-24,318-24l3.3,20.3 C953.7,213.8,739.5,237.8,632.4,237.8z"/><path d="M632.4,258.1c-108.2,0-324.6-24-324.6-24l3.4-20.3c0,0,267.7,20,321.2,24c53.5-4,321.2-24,321.2-24l3.3,20.3 C957,234.1,740.6,258.1,632.4,258.1z"/><path d="M632.4,278.5c-109.4,0-328.2-24-328.2-24l3.7-20.3c0,0,270.5,20,324.6,24c54.1-4,324.6-24,324.6-24l3.7,20.3 C960.7,254.5,741.8,278.5,632.4,278.5z"/><path d="M632.4,298.8c-110.8,0-332.4-24-332.4-24l4.2-20.3c0,0,273.5,20,328.2,24c54.7-4,328.2-24,328.2-24l4.2,20.3 C964.8,274.8,743.2,298.8,632.4,298.8z"/></g></g><g id="Belt_M"><g id="Pouch-Belt-4_M" class="option" style="display: inherit;"><path id="Main_Pouch-Belt-4_M" d="M953.4,201.3c-72.3,6.5-237.4,30.1-320.8,30.1c-84.2,0-249.3-23.8-320.7-30.1 l10.7-84.6C381.2,122,551.1,146,632.6,146c79.1,0,245.5-23.8,308.1-29.5L953.4,201.3z" style="fill: rgb(111, 103, 103);"/><rect id="Buckle_Pouch-Belt-4_M" x="573.5" y="137.9" width="119.5" height="98.1" style="fill: rgb(153, 44, 197);"/><g id="Pouches_Pouch-Belt-4_M" style="fill: rgb(153, 44, 197);"><g><g><path d="M364.6,100.2c-3.3-0.2-6.6,0.4-9.7,1.7c-7.1,3.1-19.7,8.6-19.7,8.6l78.2,4.5l21.2-10.1 C434.6,104.9,381.4,101.3,364.6,100.2z"/><path d="M437.3,107.9c0.1-0.9-0.3-1.8-1.1-2.4c-0.8-0.5-1.7-0.6-2.6-0.2c-7,3.3-20.3,9.6-20.3,9.6l-10.8,132.4 c6.9-4.4,13.7-7.3,20.5-9c4.2-1,7.2-4.7,7.3-8.9C431.7,188.8,433.4,148.3,437.3,107.9z"/><path d="M413.4,115l-78.2-4.5c-0.6,20.1-2.4,40.2-3.5,60.3c-1.1,22.2-1.7,44.5-3.6,66.9c-0.1,1.6,0.4,3.2,1.5,4.4 c1.1,1.2,2.7,1.9,4.3,1.8c22.1-0.2,44,1.1,65.9,3.8c1.5,0.2,3.1-0.3,4.3-1.2c1.2-1,1.9-2.4,2-3.9c1.1-15.7,3.9-56.9,3.9-56.9 L413.4,115z"/><path d="M413.4,115l-78.2-4.5c0,0-2,17.1-3.8,33.6c-0.9,8,1.5,16,6.7,22.2c5.2,6.2,12.7,9.9,20.7,10.4 c7.7,0.4,15.9,0.9,23.6,1.4c8.1,0.5,16-2.4,21.8-8c5.9-5.5,9.2-13.3,9.2-21.3C413.4,132.1,413.4,115,413.4,115z"/><path d="M371.5,161.7c2.8,0.2,4.9,2.8,4.7,5.8c-0.2,3-2.6,5.4-5.3,5.2c-2.8-0.2-4.9-2.8-4.7-5.8 C366.4,163.8,368.8,161.5,371.5,161.7z"/></g></g><g><path d="M285.7,109l5.8-9.1l30,1l3.7,11.3L285.7,109z"/><path d="M325.1,113.3c0.1-0.7-0.1-1.4-0.6-2c-0.5-0.5-1.1-0.9-1.9-0.9c-9-0.3-36.9-1.4-36.9-1.4L280.4,228 c1.2,3,16.3,4.9,28.4,5.2c5.3,0.1,9.7-4.1,9.8-9.3C319.5,187,320.8,150,325.1,113.3z"/></g><g><g><path d="M900.7,100.2c3.3-0.2,6.6,0.4,9.7,1.7c7.1,3.1,19.7,8.6,19.7,8.6l-78.2,4.5l-21.2-10.1 C830.6,104.9,883.8,101.3,900.7,100.2z"/><path d="M827.9,107.9c-0.1-0.9,0.3-1.8,1.1-2.4c0.8-0.5,1.7-0.6,2.6-0.2c7,3.3,20.3,9.6,20.3,9.6l10.8,132.4 c-6.9-4.4-13.7-7.3-20.5-9c-4.2-1-7.2-4.7-7.3-8.9C833.5,188.8,831.8,148.3,827.9,107.9z"/><path d="M851.9,115l78.2-4.5c0.6,20.1,2.4,40.2,3.5,60.3c1.1,22.2,1.7,44.5,3.6,66.9c0.1,1.6-0.4,3.2-1.5,4.4 c-1.1,1.2-2.7,1.9-4.3,1.8c-22.1-0.2-44,1.1-65.9,3.8c-1.5,0.2-3.1-0.3-4.3-1.2c-1.2-1-1.9-2.4-2-3.9 c-1.1-15.7-3.9-56.9-3.9-56.9L851.9,115z"/><path d="M851.9,115l78.2-4.5c0,0,2,17.1,3.8,33.6c0.9,8-1.5,16-6.7,22.2c-5.2,6.2-12.7,9.9-20.7,10.4 c-7.7,0.4-15.9,0.9-23.6,1.4c-8.1,0.5-16-2.4-21.8-8c-5.9-5.5-9.2-13.3-9.2-21.3C851.8,132.1,851.9,115,851.9,115z"/><path d="M893.7,161.7c-2.8,0.2-4.9,2.8-4.7,5.8c0.2,3,2.6,5.4,5.3,5.2c2.8-0.2,4.9-2.8,4.7-5.8 C898.8,163.8,896.4,161.5,893.7,161.7z"/></g></g><g><path d="M979.5,109l-5.8-9.1l-30,1l-3.7,11.3L979.5,109z"/><path d="M940.1,113.3c-0.1-0.7,0.1-1.4,0.6-2c0.5-0.5,1.1-0.9,1.9-0.9c9-0.3,36.9-1.4,36.9-1.4l5.3,119.1 c-1.2,3-16.3,4.9-28.4,5.2c-5.3,0.1-9.7-4.1-9.8-9.3C945.7,187,944.4,150,940.1,113.3z"/></g></g></g></g></g></g><g id="Helmet_M_Wrapper" transform="translate(550,35)"><g id="Helmet_Current"/></g><g id="Shoulders_Current" transform="translate(199,588)"><g id="LeftShoulder_Current"/><g id="RightShoulder_Current"/></g><g id="Front_M" transform="translate(0,550)"><g id="Cape_M"></g></g></svg>
