<svg id="Male-Body" viewBox="0 0 1800 3300" version="1.1" xmlns="http://www.w3.org/2000/svg" style="stroke:black;stroke-width:2px;fill-rule:evenodd;height:100%;"><g id="Back_M" transform="translate(0,560)"><g id="Cape_M"><g id="None_Back_M" class="option" style="display: inherit;"></g></g></g><g id="Flight-Suit" transform="translate(260,575)"><g id="Soft-Parts_M"><g id="Suit_M"><g id="Neck-Seal_M"><path id="Plain-Neck-Seal_M" d="M774.5,39.6l31.2,72.9l-2.2,72.3l-163.5,17v0.1l-0.3,0l-0.3,0v-0.1l-162.5-17 l-2.2-72.3l31.2-72.9L640,46.7L774.5,39.6" class="option" style="display: inherit; fill: rgb(96, 61, 32);"/></g><g id="Flight-Suit_M" style="fill: rgb(210, 164, 125);"><path d="M516.6,1664.2l-15.7,92.9L384,2323.3c0,0-52.3,31.5-79.1,36.9c-26.8,5.4-81.9-4.7-81.9-4.7l40.8-458.5 l30.8-195.8l7-83.3c0,0-26.8-242.9-18.1-364c8.7-121.1,70.6-362.6,70.6-362.6l285.9,6.2l285.9-6.2c0,0,61.8,241.5,70.6,362.6 c8.7,121.1-18.1,364-18.1,364l7,83.3l30.8,195.8l40.8,458.5c0,0-56.4,12.7-83.2,7.3c-26.8-5.4-77.8-39.6-77.8-39.6l-116.9-566.3 l-15.7-92.9l-123.2-323.4L516.6,1664.2z"/><g><path d="M1110.7,436.8l127,444l11,228.9l-101.2,19.5l-64.2-215.5L938.7,551.9l7.3-165.8l24.5-39.6L1110.7,436.8z"/><path d="M169.3,436.6l139.9-90.1l24.5,39.6l5.5,171L196.7,913.8l-64.2,215.5l-101.2-19.5l11-228.9L169.3,436.6z"/></g></g></g><g id="Boots_M"><g id="Gunslinger_Boots_M" class="option" style="display: inherit;"><g id="Main_Gunslinger-Boot_M" style="fill: rgb(0, 0, 0);"><path d="M880.6,2390.9c0.4,2.1,7.7,36.3,45.3,45.8c12.5,3.2,34-3.5,47.5-10.4c18.5-9.4,37.9-16.8,57.6-22.6l0.6,0.8 c0.3,0.4,0.6,0.9,0.9,1.3c6.2,8.6,12.9,16.7,20,24.1l0.6,0.6l0.4,0.3c0.7,0.7,1.5,1.5,2.2,2.2c4.2,4.1,8.6,7.9,13.1,11.4l1.3,1 l1,0.8c0.3,0.2,0.6,0.5,0.9,0.7c0.7,0.5,1.4,1,2.1,1.5c9.4,6.6,21.8,16.6,34.3,14.8c11.7-1.7,24.9-6.4,34.7-11.1 c8.2-3.9,16.8-9.3,22.6-14.9c1.7-1.3,3.1-2.8,4.2-4.7c27.2,10.6,56.8,14.7,71.3,45c3.1,6.6,5.8,14.4,5.1,21.8 c-0.8,9.5-11.2,10.7-19.3,12.8c-20.1,5.4-37.4,9.4-60.6,14.3c-26.5,5.5-50.4,8.8-77.2,7.7c-20-0.8-37-1.9-54.5-12.7 c-7-4.3-14.2-8.7-20.3-14.4c-13.6-12.7-22.3-25.9-39.9-33.6c-12.7-5.6-25.8-10.2-39.3-13.6c-19.1-4.8-39.7-8.1-49.7-27.1 c-7.7-14.5-6.8-27.9-4.7-41.9L880.6,2390.9"/><path d="M399.2,2390.9c-0.4,2.1-7.7,36.3-45.3,45.8c-12.5,3.2-34-3.5-47.5-10.4c-18.5-9.4-37.9-16.8-57.6-22.6 l-0.6,0.8c-0.3,0.4-0.6,0.9-0.9,1.3c-6.2,8.6-12.9,16.7-20,24.1l-0.6,0.6l-0.4,0.3c-0.7,0.7-1.5,1.5-2.2,2.2 c-4.2,4.1-8.6,7.9-13.1,11.4l-1.3,1l-1,0.8c-0.3,0.2-0.6,0.5-0.9,0.7c-0.7,0.5-1.4,1-2.1,1.5c-9.4,6.6-21.8,16.6-34.3,14.8 c-11.7-1.7-24.9-6.4-34.7-11.1c-8.2-3.9-16.8-9.3-22.6-14.9c-1.7-1.3-3.1-2.8-4.2-4.7c-27.2,10.6-56.8,14.7-71.3,45 c-3.1,6.6-5.8,14.4-5.1,21.8c0.8,9.5,11.2,10.7,19.3,12.8c20.1,5.4,37.4,9.4,60.6,14.3c26.5,5.5,50.4,8.8,77.2,7.7 c20-0.8,37-1.9,54.5-12.7c7-4.3,14.3-8.7,20.3-14.4c13.6-12.7,22.3-25.9,39.9-33.6c12.7-5.6,25.8-10.2,39.3-13.6 c19.1-4.8,39.7-8.1,49.7-27.1c7.7-14.5,6.8-27.9,4.7-41.9L399.2,2390.9"/></g><g id="Bottom_Gunslinger-Boot_M" style="fill: rgb(0, 0, 0);"><path d="M880,2416.8c0.9,5.2,2.5,10.5,5.4,15.9c10,19,30.6,22.3,49.7,27.1c13.5,3.4,26.6,8,39.3,13.6 c17.6,7.7,26.3,20.9,39.9,33.6c6.1,5.7,13.3,10.1,20.3,14.4c17.5,10.8,34.5,11.8,54.5,12.7c26.8,1.1,50.7-2.2,77.2-7.7 c23.2-4.8,40.5-8.9,60.6-14.3c6.5-1.7,14.4-2.8,17.7-8.1l0,0l3.8,8.5l2.2,17.5c0,0-21.5,11.6-44.5,16.7 c-22.9,5.1-69.2,12.3-69.2,12.3l-3.2-7.6l-10.4,2.2l0.5,7.5l-25.2,1.4l-5.4-7.3l-8.4,0.2l1.3,6.5c0,0-15.6-0.3-24.3-5.4 c-1.7-2.5-4.8-6.5-4.8-6.5l-6-3.2l0.8,6.1l-21.7-7.8l-1.1-8.4l-6.2-3.7l-0.3,6.1l-15.5-12l-1.7-7.4l-38.6-27.1l-6,14.2l-27-5.9 l-0.9-5.8l-6.9-2.8l-4.8,4.5l-18.1-7.5l-0.4-5.4l-5.9-2.1l-0.7,3.9l-17.2-11.9l-3.3-23.8l-0.7-25.8L880,2416.8L880,2416.8"/><path d="M399.9,2416.8c-0.9,5.2-2.5,10.5-5.4,15.9c-10,19-30.6,22.3-49.7,27.1c-13.5,3.4-26.6,8-39.3,13.6 c-17.6,7.7-26.3,20.9-39.9,33.6c-6.1,5.7-13.3,10.1-20.3,14.4c-17.5,10.8-34.5,11.8-54.5,12.7c-26.8,1.1-50.7-2.2-77.2-7.7 c-23.2-4.8-40.5-8.9-60.6-14.3c-6.5-1.7-14.4-2.8-17.7-8.1l0,0l-3.8,8.5l-2.2,17.5c0,0,21.5,11.6,44.5,16.7 c22.9,5.1,69.2,12.3,69.2,12.3l3.2-7.6l10.4,2.2l-0.5,7.5l25.2,1.4l5.4-7.3l8.4,0.2l-1.3,6.5c0,0,15.6-0.3,24.3-5.4 c1.6-2.5,4.8-6.5,4.8-6.5l6-3.2l-0.8,6.1l21.7-7.8l1.1-8.4l6.2-3.7l0.3,6.1l15.4-12l1.7-7.4l38.6-27.1l6,14.2l27-5.9l0.9-5.8 l6.9-2.8l4.8,4.5l18.1-7.5l0.4-5.4l5.9-2.1l0.7,3.9l17.2-11.9l3.3-23.8l0.7-25.8L399.9,2416.8L399.9,2416.8"/></g><g id="Top_Gunslinger-Boot_M" style="fill: rgb(118, 14, 14);"><path d="M1030.8,2403.2c-23-33.1-38.6-73.8-44.1-109.7l0,0l6.4-0.6l0.2,0l0.8-0.1l2.1-0.3l3.3-0.4l1.3-0.2 c3.8-0.4,7.4-1,11-1.5l5.7-1.1l1.2-0.3l0.4-0.1l0.9-0.2l4-0.9l3.5-0.9l0.6-0.2c12.2-3.1,24.5-6.9,24.5-6.9 c3.4,15.8,5,33.8,11.6,48.6c10.4,23.2,29.5,41,47.3,58.7c12.2,12.2,24.2,26,38.8,35.3c6.2,3.9,12.8,7,19.6,9.6 c-5.2,7.2-16.3,14.6-26.8,19.6c-9.8,4.7-23,9.4-34.7,11.1c-12.4,1.8-24.9-8.2-34.3-14.8c-16.2-11.5-30.7-27-43-44.6 L1030.8,2403.2"/><path d="M249.1,2403.2c23-33.1,38.6-73.8,44.1-109.7l0,0l-6.4-0.6l-0.2,0l-0.8-0.1l-2.1-0.3l-3.3-0.4l-1.3-0.2 c-3.7-0.4-7.4-1-11-1.5l-5.7-1.1l-1.2-0.3l-0.4-0.1l-0.9-0.2l-4-0.9l-3.5-0.9l-0.6-0.2c-12.2-3.1-24.5-6.9-24.5-6.9 c-3.3,15.8-4.9,33.8-11.6,48.6c-10.4,23.2-29.5,41-47.3,58.7c-12.2,12.2-24.2,26-38.8,35.3c-6.2,3.9-12.8,7-19.5,9.6 c5.2,7.2,16.3,14.6,26.8,19.6c9.8,4.7,23,9.4,34.7,11.1c12.4,1.8,24.9-8.2,34.3-14.8c16.2-11.5,30.7-27,43-44.6L249.1,2403.2"/></g><g id="Side_Gunslinger-Boot_M" style="fill: rgb(118, 14, 14);"><path d="M1031,2403.6c-19.8,5.8-39.2,13.2-57.6,22.6c-13.5,6.9-34.9,13.6-47.5,10.4c-38.8-9.8-45.3-45.9-45.3-45.9 c1.2-7.9,2.7-16,3.2-24.6c1-16.4-1.1-87.6,0.3-86.8c31.1,16.6,86.7,15.5,102.5,14.2l0,0C992.2,2329.6,1007.8,2370.4,1031,2403.6"/><path d="M248.8,2403.6c19.8,5.8,39.2,13.2,57.6,22.6c13.5,6.9,34.9,13.6,47.5,10.4c38.8-9.8,45.3-45.9,45.3-45.9 c-1.1-7.9-2.7-16-3.2-24.6c-1-16.4,1.1-87.6-0.3-86.8c-31.1,16.6-86.7,15.5-102.5,14.2l0,0C287.7,2329.6,272,2370.4,248.8,2403.6 "/></g></g></g><g id="Sleeves_M" class="toggle" style="fill: rgb(96, 61, 32);"><g><path d="M928.3,573.2l28.4,62.9c0,0,44.9-34.2,74.8-51.1c29.9-17,46.4-28,73.3-38.4c26.9-10.4,53.9-15.7,53.9-15.7 l-64.3-130.6l-61.4-103.1l-122.7,54.8L928.3,573.2z"/><path d="M943.2,606.4c-2.1-2.6,53.8-48,91.2-67.6c37.4-19.6,108.6-39.4,108.6-39.4"/></g><g><path d="M351.7,573.2l-28.4,62.9c0,0-44.9-34.2-74.8-51.1c-29.9-17-46.4-28-73.3-38.4c-26.9-10.4-53.9-15.7-53.9-15.7 l64.3-130.6l61.4-103.1l122.7,54.8L351.7,573.2z"/><path d="M336.8,606.4c2.1-2.6-53.8-48-91.2-67.6c-37.4-19.6-108.6-39.4-108.6-39.4"/></g></g><g id="Gloves_M"><g id="Left-Glove_M"><g id="Fingerless_Left_Glove_M" class="option" style="display: inherit;"><g id="Fingers_Fingerless_Left_Glove_M" style="fill: rgb(118, 14, 14);"><path d="M1208.1,1298.1c-5.7-0.3-11.1-0.2-16.8,1c-3.9,0.8-7.6,1.7-11.1,3.7c-10.5,6.1-7.6,19.3,1.7,24.3 c10.9,5.9,28.2,0.1,33.2-11.2C1217.3,1311.3,1210.9,1302.6,1208.1,1298.1"/><path d="M1188.9,1309.6c-5.7-0.3-11.1-0.2-16.8,1c-3.9,0.8-7.6,1.7-11.1,3.7c-10.5,6.1-7.6,19.3,1.7,24.3 c10.9,5.9,28.2,0.1,33.2-11.2C1198,1322.8,1191.7,1314.1,1188.9,1309.6"/><path d="M1175.3,1324.8c-5.7,0.5-12.8,1.8-18.3,3.7c-3.7,1.3-7.3,2.7-10.5,5.2c-9.6,7.4-5,20.1,5,23.8 c11.6,4.3,28-3.7,31.4-15.6C1184.4,1337.1,1175.3,1324.8,1175.3,1324.8z"/><path d="M1116.4,1252.3c-3.2,14.3-5.8,22-5.8,22s-14.6,29.8-12,36.6c2.5,6.8,15.4,12.9,22.8,9.3 c9.1-4.5,20.5-25.5,27.6-40.2c2.6-5.4,5.1-11.7,7.2-17.5C1126.9,1266.9,1116.4,1252.3,1116.4,1252.3L1116.4,1252.3z"/><path d="M1176.7,1322.6c-2.2,3.6-4.6,7.5-7.3,11.5c-14.5,21.8-36.6,40.6-22,57.2c13.7,15.6,44.8-25.3,44.8-25.3 l14.4-18.8C1182.7,1341.6,1176.7,1322.7,1176.7,1322.6z"/></g><path id="Glove_Fingerless_Left_Glove_M" d="M1206.7,1347.2l16-20.9c0,0,35-57.7,36.8-68.9 c1.4-8.5,0.2-37.1,0.2-37.1l-10.9-110.6l-55.5,4.6l-45.7,14.9l-3.4,18.9c0,0-16.5,22.9-20.8,39.4c-3,11.6-1.4,39.3-5.3,57.9 c-0.5,2.4-1,4.7-1.5,6.9h0c0,0,10.4,14.6,39.7,10.2c3.7-10.2,6.1-18.9,6.1-18.9s10,3.5,15.2,7.4c17.1,13.2,9.7,52.9,9.7,52.9 s-4,7.9-10.4,18.7C1176.7,1322.7,1182.7,1341.6,1206.7,1347.2z" style="fill: rgb(0, 0, 0);"/></g></g><g id="Right-Glove_M"><g id="Fingerless_Right_Glove_M" class="option" style="display: inherit;"><g id="Fingers_Fingerless_Right_Glove_M" style="fill: rgb(118, 14, 14);"><path d="M71.9,1298.1c5.7-0.3,11.1-0.2,16.8,1c3.9,0.8,7.6,1.7,11.1,3.7c10.5,6.1,7.6,19.3-1.7,24.3 c-10.9,5.9-28.2,0.1-33.2-11.2C62.7,1311.3,69.1,1302.6,71.9,1298.1"/><path d="M91.1,1309.6c5.7-0.3,11.1-0.2,16.8,1c3.9,0.8,7.6,1.7,11.1,3.7c10.5,6.1,7.6,19.3-1.7,24.3 c-10.9,5.9-28.2,0.1-33.2-11.2C82,1322.8,88.4,1314.1,91.1,1309.6"/><path d="M104.7,1324.8c5.7,0.5,12.8,1.8,18.3,3.7c3.7,1.3,7.3,2.7,10.5,5.2c9.6,7.4,5,20.1-5,23.8 c-11.6,4.3-28-3.7-31.4-15.6C95.6,1337.1,104.7,1324.8,104.7,1324.8z"/><path d="M163.6,1252.3c3.2,14.3,5.8,22,5.8,22s14.6,29.8,12,36.6c-2.5,6.8-15.4,12.9-22.7,9.3 c-9.2-4.5-20.5-25.5-27.7-40.2c-2.6-5.4-5.1-11.7-7.2-17.5C153.1,1266.9,163.6,1252.3,163.6,1252.3L163.6,1252.3z"/><path d="M103.3,1322.6c2.2,3.6,4.6,7.5,7.3,11.5c14.4,21.8,36.6,40.6,22,57.2c-13.7,15.6-44.8-25.3-44.8-25.3 l-14.4-18.8C97.3,1341.6,103.3,1322.7,103.3,1322.6z"/></g><path id="Glove_Fingerless_Right_Glove_M" d="M73.4,1347.2l-16-20.9c0,0-35-57.7-36.8-68.9 c-1.4-8.5-0.2-37.1-0.2-37.1l10.9-110.6l55.5,4.6l45.7,14.9l3.4,18.9c0,0,16.5,22.9,20.9,39.4c3,11.6,1.4,39.3,5.3,57.9 c0.5,2.4,1,4.7,1.5,6.9h0c0,0-10.4,14.6-39.7,10.2c-3.7-10.2-6.1-18.9-6.1-18.9s-10,3.5-15.2,7.4c-17.1,13.2-9.7,52.9-9.7,52.9 s3.9,7.9,10.4,18.7C103.3,1322.7,97.3,1341.6,73.4,1347.2z" style="fill: rgb(0, 0, 0);"/></g></g></g></g></g><g id="Biceps_Current" transform="translate(199,588)"><g id="LeftBiceps_Current"><g id="Left-Biceps_M"><g id="None_Biceps_Left_M" class="option" style="display: inherit;"></g></g></g><g id="RightBiceps_Current"><g id="Right-Biceps_M"><g id="None_Biceps_Right_M" class="option" style="display: inherit;"></g></g></g></g><g id="Vest_Current" transform="translate(260,575)"><path id="Vest_M" d="M640,197.9c90.1-0.1,163.5-45.9,165.6-85.4l1.6,0.2l194.8,57.8l141.1,255.2l-30.3,12.4l-142.3-91.7 L946,386.1l-16.3,505.4c0,0-92.4,50.2-143.4,57c-36.5,4.8-91.5,7.2-146.2,7.1c-54.7,0.1-109.7-2.3-146.2-7.1 c-51-6.8-143.4-57-143.4-57L334,386.1l-24.5-39.6l-142.3,91.7l-30.3-12.4L278,170.5l194.8-57.8l1.6-0.2 C476.5,152.1,549.9,197.9,640,197.9" style="fill: rgb(96, 61, 32);"/></g><g id="Upper-Body_M_Wrapper" transform="translate(199,588)"><g id="Chest_Current" class="Heavy_M"><g id="Abdomen_Heavy_M"><g id="Under-Plates_Abdomen_Heavy_M" style="fill: rgb(96, 61, 32);"><rect x="582.9" y="714.9" width="236.2" height="30.2"/><rect x="582.9" y="745.1" width="236.2" height="30.2"/><rect x="582.9" y="775.3" width="236.2" height="30.2"/><rect x="582.9" y="805.5" width="236.2" height="30.2"/><rect x="582.9" y="835.6" width="236.2" height="30.2"/></g><g id="Abdomen-Plate_Heavy_M" style="fill: rgb(85, 82, 77);"><path d="M628.5,617.6l-117.7,50l-11.1-26.8l128.8-54.7V617.6z"/><path d="M552,767.8l-41.3-100.2l117.7-50L665.3,723L552,767.8z"/><path d="M499.7,640.8l-49.5,8.6l73,173.6l49.8-9.9L499.7,640.8z"/><path d="M773.5,617.6l117.7,50l11.1-26.8l-128.8-54.7V617.6z"/><path d="M850,767.8l41.3-100.2l-117.7-50L736.7,723L850,767.8z"/><path d="M902.3,640.8l49.5,8.6l-73,173.6l-49.8-9.9L902.3,640.8z"/><rect x="628.9" y="586.1" width="144.3" height="31.5"/><path d="M665.3,723l-36.9-105.4h145.1L736.7,723H665.3z"/></g></g><g id="Neck-Armor_Heavy_M"><g id="Neck-Plate_Heavy_M" style="fill: rgb(85, 82, 77);"><path d="M538.8,92.7l-102,22.4c0,0,11.8,46.3,18.4,72.1c2.4,9.4,11.8,15.2,21.3,13.1c18.5-4.1,47.9-10.5,66.8-14.7 c4.8-1,8.9-4,11.5-8.1c2.6-4.2,3.3-9.2,2.1-13.9C550.2,137.6,538.8,92.7,538.8,92.7z"/><path d="M863.2,92.7l102,22.4c0,0-11.8,46.3-18.4,72.1c-2.4,9.4-11.8,15.2-21.3,13.1c-18.5-4.1-47.9-10.5-66.8-14.7 c-4.8-1-8.9-4-11.5-8.1c-2.6-4.2-3.3-9.2-2.1-13.9C851.8,137.6,863.2,92.7,863.2,92.7z"/></g><g id="Secondary_Neck-Plate_Heavy_M" style="fill: rgb(118, 114, 107);"><path d="M513.4,94.6L462,105.8c0,0,7.8,30.5,11.7,45.7c1.2,4.7,5.9,7.5,10.6,6.5c9.3-2,24.3-5.3,33.9-7.4 c2.4-0.5,4.4-2,5.7-4c1.3-2.1,1.6-4.5,1-6.9C521,124.3,513.4,94.6,513.4,94.6z"/><path d="M888.6,94.6l51.3,11.3c0,0-7.8,30.5-11.7,45.7c-1.2,4.7-5.9,7.5-10.6,6.5c-9.3-2-24.3-5.3-33.9-7.4 c-2.4-0.5-4.4-2-5.7-4c-1.3-2.1-1.6-4.5-1-6.9C881,124.3,888.6,94.6,888.6,94.6z"/></g></g><g id="Full-Chest_Heavy_M"><path id="Under-Plate_Chest_Heavy_M" d="M759.2,550.4H642.8l-29.3,25.1v16.8l15.4-6.4h144.3l15.4,6.5v-17 L759.2,550.4z" style="fill: rgb(118, 114, 107);"/><g id="Chest-Plate_Heavy_M" style="fill: rgb(85, 82, 77);"><path d="M497.3,626.1l103.3-60l14-28.4l27.5,3.7h117.7l27.5-3.7l14,28.4l103.3,60l48,10.5l-1.2,17.6l-51.3-8.9 l-111.7-46.6v-23.1l-29.3-25.1H642.8l-29.3,25.1v23.1l-111.7,46.6l-51.3,8.9l-1.2-17.6L497.3,626.1z"/><path d="M952.7,636.6l59.8-153.6l8.8,31.5l-19,114.2L952.7,636.6z"/><path d="M380.7,514.5l8.8-31.5l59.8,153.6l-49.6-7.9L380.7,514.5z"/><path d="M447.6,423.2V359L442.7,244l29.8-33l90.2-18.8l23.3,27.4h229.9l23.3-27.4l90.2,18.8l29.8,33l-4.8,112.2 l-0.1-0.3v67.3l-167,114.5l-27.5,3.7H642.1l-27.5-3.7L447.6,423.2z"/><path d="M954.4,359v64.2l58.2,59.8L954.4,359z"/><path d="M614.6,537.7l-167-114.5L389.4,483l59.8,153.6l48-10.5l103.3-60L614.6,537.7z"/><path d="M1012.6,483l-59.8,153.6l-48-10.5l-103.3-60l-14-28.4l167-114.5L1012.6,483z"/><path d="M1002.4,628.7l-2,12.2l-48.8,13.3l1.2-17.6L1002.4,628.7z"/><path d="M447.6,359v64.2L389.4,483L447.6,359z"/><path d="M442.7,244c-0.6,59-7.6,118-24.2,177l29.1-62L442.7,244z"/><path d="M959.4,244c0.6,59,7.6,118,24.2,177l-29.1-62L959.4,244z"/><path d="M449.3,636.6l1.2,17.6L401.6,641l-2-12.2L449.3,636.6z"/></g></g><g id="Iron-Heart_Heavy_M"><path id="Heart_Heavy_M" d="M701,304.1l34.3,31.8v62.4L701,430.2l-34.3-31.8V336L701,304.1z" style="fill: rgb(118, 14, 14);"/><g id="Center_Heart_Heavy_M" class="option" style="display: inherit; fill: rgb(85, 82, 77);"><rect x="688.5" y="336.9" width="25" height="30.3"/><rect x="688.5" y="367.2" width="4.2" height="30.3"/><rect x="705.1" y="367.2" width="4.2" height="30.3"/><rect x="709.3" y="367.2" width="4.2" height="30.3"/><rect x="696.8" y="367.2" width="4.2" height="30.3"/><rect x="701" y="367.2" width="4.2" height="30.3"/><rect x="692.6" y="367.2" width="4.2" height="30.3"/></g></g></g><g id="Collar_Current"/><g id="ChestAttachments_Current"><g id="Chest-Attachments_M"><g id="No-Device_Accessories_Chest_M" class="option" style="display: inherit;"></g></g></g><g id="Gauntlets_Current"><g id="LeftGauntlets_Current"><g id="Left-Gauntlets_M"><g id="Heavy_Gauntlet_Left_M" class="option" style="display: inherit;"><g id="Top-2_Heavy_Gauntlet_Left_M" style="fill: rgb(118, 14, 14);"><path d="M1291.2,814.3l18.4,1.4l15.1,86.4l-15.6,13.1L1291.2,814.3z"/><path d="M1307.8,907.7l19.3,112.7l-10.1,13.7l11.8,66.3l-4.7,3.5l-32.6-181.5L1307.8,907.7z"/><circle cx="1307.9" cy="879.6" r="4"/></g><g id="Top-1_Heavy_Gauntlet_Left_M" style="fill: rgb(118, 114, 107);"><path d="M1277.8,1116.3l46.2-12.5l-32.6-181.5l16.3-14.7l-17.6-98.9l-69.9-7.2L1277.8,1116.3z"/><path d="M1272.2,806.9l19.3,115.4"/></g><g id="Accent-Top_Heavy_Gauntlet_Left_M" style="fill: rgb(118, 14, 14);"><path d="M1310.7,1075.9l-29.4,6l4.5,22.9l29.4-7L1310.7,1075.9z"/><path d="M1292.2,979.8l-29.4,6l17.2,89.6l29.4-6L1292.2,979.8z"/><path d="M1265.8,813.5l-33.2-2.5l17.4,98.2l30.8-6.3L1265.8,813.5z"/></g><path id="Bottom_Heavy_Gauntlet_Left_M" d="M1221.2,806.3c-35.7,1.4-72.9,16.8-96.1,46.9c-7.5,9.8-9.8,22.6-6.2,34.4 c17.4,57,74.3,243.5,74.3,243.5l84.6-14.8L1221.2,806.3z" style="fill: rgb(118, 14, 14);"/><g id="Accent-Bottom_Heavy_Gauntlet_Left_M" style="fill: rgb(85, 82, 77);"><path d="M1277.8,1116.3l-84.6,14.8l-4.6-15l86.2-16.2L1277.8,1116.3z"/><path d="M1225,827.3c-46.1,4.6-84.6,21.4-102.7,71.4l-3.4-11.1c-2.8-9.3-2-19.2,2.2-27.8l4.3-6.9 c23.2-29.9,60.2-45.2,95.8-46.6L1225,827.3z"/><path d="M1213,813.2l-37.3,7.4l29.4,148.1l37.3-7.4L1213,813.2z"/><path d="M1208.7,816.9l-27.5,5.4l27.2,137l27.5-5.4L1208.7,816.9z"/><path d="M1181.2,822.4l-5.4-1.8"/><path d="M1213,813.2l-4.4,3.7"/><path d="M1242.4,961.3l-6.6-7.4"/><path d="M1205.1,968.7l3.9-9.5"/></g><g id="No-Device_Attachment_Heavy_Gauntlet_Left_M" class="option" style="display: inherit;"></g></g></g></g><g id="RightGauntlets_Current"><g id="Right-Gauntlets_M"><g id="Heavy_Gauntlet_Right_M" class="option" style="display: inherit;"><g id="Top-2_Heavy_Gauntlet_Right_M" style="fill: rgb(118, 14, 14);"><path d="M112.8,814.3l-18.4,1.4l-15.1,86.4l15.6,13.1L112.8,814.3z"/><path d="M96.2,907.7l-19.3,112.7L87,1034l-11.8,66.3l4.7,3.5l32.6-181.5L96.2,907.7z"/><circle cx="96" cy="879.6" r="4"/></g><g id="Top-1_Heavy_Gauntlet_Right_M" style="fill: rgb(118, 114, 107);"><path d="M126.1,1116.3l-46.2-12.5l32.6-181.5l-16.3-14.7l17.6-98.9l69.9-7.2L126.1,1116.3z"/><path d="M131.8,806.9l-19.3,115.4"/></g><g id="Accent-Top_Heavy_Gauntlet_Right_M" style="fill: rgb(118, 14, 14);"><path d="M93.2,1075.9l29.4,6l-4.5,22.9l-29.4-7L93.2,1075.9z"/><path d="M111.7,979.8l29.4,6l-17.2,89.6l-29.4-6L111.7,979.8z"/><path d="M138.1,813.5l33.2-2.5l-17.4,98.2l-30.8-6.3L138.1,813.5z"/></g><path id="Bottom_Heavy_Gauntlet_Right_M" d="M182.8,806.3c35.7,1.4,72.9,16.8,96.1,46.9c7.5,9.8,9.8,22.6,6.2,34.4 c-17.4,57-74.3,243.5-74.3,243.5l-84.6-14.8L182.8,806.3z" style="fill: rgb(118, 14, 14);"/><g id="Accent-Bottom_Heavy_Gauntlet_Right_M" style="fill: rgb(85, 82, 77);"><path d="M126.1,1116.3l84.6,14.8l4.6-15l-86.1-16.2L126.1,1116.3z"/><path d="M178.9,827.3c46.1,4.6,84.6,21.4,102.7,71.4l3.4-11.1c2.8-9.3,2-19.2-2.2-27.8l-4.3-6.9 c-23.2-29.9-60.2-45.2-95.7-46.6L178.9,827.3z"/><path d="M190.9,813.2l37.3,7.4l-29.4,148.1l-37.3-7.4L190.9,813.2z"/><path d="M195.3,816.9l27.5,5.4l-27.2,137l-27.5-5.4L195.3,816.9z"/><path d="M222.8,822.4l5.4-1.8"/><path d="M190.9,813.2l4.4,3.7"/><path d="M161.5,961.3l6.6-7.4"/><path d="M198.8,968.7l-3.9-9.5"/></g><g id="No-Device_Attachment_Heavy_Gauntlet_Right_M" class="option" style="display: inherit;"></g></g></g></g></g></g><g id="Helmet_M_Wrapper" transform="translate(550,35)"><g id="Helmet_Current" class="Heavy"><g id="Left-Earcap_Heavy" class="toggle"><g id="Ear-Cap_Left_Heavy" style="fill: rgb(85, 82, 77);"><path d="M510.8,239.2c17.9,24,30.2,52.1,35.3,82.6l0,0h38.5l-5.5-82.6H510.8z"/><path d="M579.2,239.2l19.8,11l3.7,59.2l-17.9,12.3L579.2,239.2z"/><path d="M565.5,321.8l3.6,98.5l7,11.6l-2.7-110H565.5z"/><path d="M575.9,422.7l5.4-8l-2.1-92.9h-5.8L575.9,422.7z"/><path d="M579.9,356l4.7-4v-26.4l-5.5-3.9L579.9,356z"/><path d="M553.7,498.1l17-0.2v-66.2h5.3l-7-11.6l-3.6-98.5h-19.4c1.7,10.2,2.6,20.6,2.6,31.2L553.7,498.1z"/><rect x="550.1" y="390.1" width="15.4" height="2.3"/><rect x="550.1" y="371.2" width="15.4" height="2.3"/><rect x="549.2" y="364.8" width="15.4" height="2.3"/><rect x="549.2" y="358.3" width="15.4" height="2.3"/><rect x="548.7" y="351.9" width="15.4" height="2.3"/><rect x="548.7" y="345.5" width="15.4" height="2.3"/></g></g><g id="Right-Earcap_Heavy" class="toggle"><g id="Ear-Cap_Right_Heavy" style="fill: rgb(85, 82, 77);"><path d="M189.7,239.2c-17.8,24-30.2,52.1-35.3,82.6h0h-38.5l5.5-82.6H189.7z"/><path d="M121.3,239.2l-19.8,11l-3.7,59.2l17.9,12.3L121.3,239.2z"/><path d="M135,321.8l-3.7,98.5l-7,11.6l2.7-110H135z"/><path d="M124.6,422.7l-5.4-8l2.1-92.9h5.8L124.6,422.7z"/><path d="M120.5,356l-4.7-4v-26.4l5.5-3.9L120.5,356z"/><path d="M146.7,498.1l-17-0.2v-66.2h-5.3l7-11.6l3.7-98.5h19.4c-1.7,10.2-2.6,20.6-2.6,31.2L146.7,498.1z"/><rect x="135" y="390.1" width="15.4" height="2.3"/><rect x="135" y="371.2" width="15.4" height="2.3"/><rect x="135.9" y="364.8" width="15.4" height="2.3"/><rect x="135.9" y="358.3" width="15.4" height="2.3"/><rect x="136.4" y="351.9" width="15.4" height="2.3"/><rect x="136.4" y="345.5" width="15.4" height="2.3"/></g></g><g id="Helmet_Pieces_Heavy"><g id="Face_Heavy" style="fill: rgb(118, 114, 107);"><path d="M196.7,453.7c25.4,16.7,56.1,37.8,66.2,48c12.4,12.5,30.5,94,40.8,144.7l-21.9-5.8L177.3,505L196.7,453.7z"/><path d="M503.8,453.7c-25.4,16.7-56.1,37.8-66.2,48c-12.4,12.5-30.5,94-40.8,144.7l21.9-5.8L523.2,505L503.8,453.7z"/></g><g id="Cheeks_Heavy" style="fill: rgb(85, 82, 77);"><path d="M196.7,453.7L177.3,505l-31.6,24.6l13.8-99.9L196.7,453.7z"/><g><path d="M503.8,453.7l19.4,51.3l31.6,24.6l-13.8-99.9L503.8,453.7z"/><path d="M554.9,529.6L448.4,683.5l-29.6-43L523.2,505L554.9,529.6z"/><path d="M418.8,640.5l-22,5.8l-7.9,40.5l59.5-3.3L418.8,640.5z"/></g><path d="M145.6,529.6l106.4,153.9l29.6-43L177.3,505L145.6,529.6z"/><path d="M281.7,640.5l22,5.8l7.9,40.5l-59.5-3.3L281.7,640.5z"/></g><path id="Visor_Heavy" d="M374.4,650.8l14.6,36h-77.4l14.6-36l-13.8-179.7l2.8-37.8c0,0-51.5-9.2-71-14.7 c-19.3-5.5-66.2-21-66.9-21.2l0.2-15.1l172.8,7.6l173-7.6v15.1c0,0-47.5,15.7-66.9,21.2c-19.5,5.5-71,14.7-71,14.7l2.8,37.8 L374.4,650.8z" style="fill: rgb(118, 14, 14);"/><g id="Eyes_Heavy" style="fill: rgb(85, 82, 77);"><path d="M548.7,352.9l6.2,176.7l-13.8-99.9c0,0-85.2,53.6-103.4,72C419.4,520,389,686.9,389,686.9l-14.6-36 l13.8-179.7c0,0,65.3-27.6,79.9-35.6c14.6-8.1,66.1-37.5,66.1-37.5l-0.8-16.2L350.2,390l-183.1-8.1l-0.8,16.2 c0,0,51.5,29.4,66.1,37.5c14.6,8.1,79.9,35.6,79.9,35.6l13.8,179.7l-14.6,36c0,0-30.4-166.8-48.7-185.2 c-18.3-18.4-103.4-72-103.4-72l-13.8,99.9l6.2-176.7H548.7z"/><path d="M166.3,398.1l11-0.6c0,0,47.5,15.7,66.9,21.2c19.5,5.5,71,14.7,71,14.7l-2.8,37.8c0,0-65.3-27.6-79.9-35.6 C217.8,427.5,166.3,398.1,166.3,398.1z"/><path d="M534.2,398.1l-11-0.6c0,0-47.5,15.7-66.9,21.2c-19.5,5.5-71,14.7-71,14.7l2.8,37.8c0,0,65.3-27.6,79.9-35.6 C482.7,427.5,534.2,398.1,534.2,398.1z"/><path d="M177.3,397.5v-15.1l-10.1-0.4l-0.8,16.2L177.3,397.5z"/><path d="M523.2,397.5v-15.1l10.1-0.4l0.8,16.2L523.2,397.5z"/></g><path id="Dome_Heavy" d="M548.7,352.9H151.8c0-106.9,88.9-193.7,198.4-193.7C459.8,159.2,548.7,246,548.7,352.9z" style="fill: rgb(118, 114, 107);"/><rect id="Ridge_Heavy" x="343.5" y="152.8" width="13.6" height="200.1" class="toggle" style="fill: rgb(85, 82, 77);"/><g id="Accents_Heavy" class="toggle" style="fill: rgb(118, 114, 107);"><path d="M266.4,337.2l-10.7-19.3h21.4L266.4,337.2z"/><path d="M303.1,337.2l-10.7-19.3h21.4L303.1,337.2z"/></g></g></g></g><g transform="translate(199, 588)" id="Shoulders_Current"><g id="LeftShoulder_Current"><g id="Left-Shoulder_M"><g id="Heavy-Bell_Shoulder_Left_M" class="option" style="display: inherit;"><path id="Bottom_Heavy-Bell_Shoulder_Left_M" d="M1226.8,358l14.9,51.8c-29.3,19.5-53.2,30.4-72,36.4 c-12.7,4.1-26.4,2.8-38.2-3.5c-11.7-6.3-20.4-17.1-24-29.9c-1.5-5.5-2.6-9.3-2.6-9.3L1226.8,358z" style="fill: rgb(118, 114, 107);"/><path id="Main_Heavy-Bell_Shoulder_Left_M" d="M960.1,118.3C960.1,118.3,960.1,118.3,960.1,118.3 c116.2-26.4,226.5,23.2,246.4,110.8c14.9,65.7,27.8,122.2,27.8,122.2c-50.4,48.2-135.8,62.9-215.6,62.3 C976.5,316.6,964.6,220.6,960.1,118.3" style="fill: rgb(174, 70, 6);"/><g id="Trim_Heavy-Bell_Shoulder_Left_M" class="toggle" style="fill: rgb(85, 82, 77);"><path d="M1119.1,398.1c3.9,12,9.3,23.2,20.5,29.2c11.7,6.3,25.3,5,38,0.9c16.5-5.3,38.2-17.8,62.7-33.1l3.8,13.3 c-28.4,20.9-54,33-72.8,39c-12.7,4.1-28.1,1.6-39.8-4.7c-11.7-6.3-20.4-17.1-24-29.9c-1.5-5.5-2.6-9.3-2.6-9.3L1119.1,398.1z"/><path d="M979.9,112.2c5.3,93.7,16.3,185.2,55.4,274.9c70.4,0.6,145.5-23,196.7-58.9l4.7,20.7 c-53.6,51.7-138.2,65.3-217.9,64.6c-42.3-97-54.1-195.3-58.6-297.6C960.1,115.9,974,113.1,979.9,112.2z"/></g></g></g></g><g id="RightShoulder_Current"><g id="Right-Shoulder_M"><g id="Heavy-Bell_Shoulder_Right_M" class="option" style="display: inherit;"><path id="Bottom_Heavy-Bell_Shoulder_Right_M" d="M175.2,358l-14.9,51.8c29.3,19.5,53.2,30.4,72,36.4 c12.7,4.1,26.5,2.8,38.2-3.5c11.7-6.3,20.4-17.1,24-29.9c1.6-5.5,2.6-9.3,2.6-9.3L175.2,358z" style="fill: rgb(118, 114, 107);"/><path id="Main_Heavy-Bell_Shoulder_Right_M" d="M441.9,118.3C441.9,118.3,441.9,118.3,441.9,118.3 C325.7,91.9,215.4,141.5,195.5,229c-14.9,65.7-27.8,122.2-27.8,122.2c50.4,48.2,135.8,62.9,215.6,62.3 C425.5,316.6,437.4,220.6,441.9,118.3" style="fill: rgb(174, 70, 6);"/><g id="Trim_Heavy-Bell_Shoulder_Right_M" class="toggle" style="fill: rgb(85, 82, 77);"><path d="M282.9,398.1c-3.9,12-9.3,23.2-20.4,29.2c-11.7,6.3-25.3,5-38,0.9c-16.5-5.3-38.2-17.8-62.7-33.1l-3.8,13.3 c28.5,20.9,54,33,72.8,39c12.7,4.1,28.1,1.6,39.8-4.7c11.7-6.3,20.4-17.1,24-29.9c1.6-5.5,2.6-9.3,2.6-9.3L282.9,398.1z"/><path d="M422.1,112.2c-5.3,93.7-16.3,185.2-55.4,274.9c-70.4,0.6-145.5-23-196.7-58.9l-4.7,20.7 c53.6,51.7,138.2,65.3,217.9,64.6c42.3-97,54.1-195.3,58.6-297.6C441.9,115.9,428,113.1,422.1,112.2z"/></g></g></g></g></g><g id="Lower-Body_M_Wrapper" transform="translate(268,1340)"><g id="Knees_Current"><g id="LeftKnee_Current"><g id="Left-Knee_M"><g id="Heavy_Knee_Left_M" class="option" style="display: inherit;"><g id="Missiles_Heavy-Knee_Left_M" class="toggle" style=""><path id="Base_Missiles_Heavy-Knee_Left_M" d="M989.9,917.2l18.8,102l22.1-18c3.6-2.9,5.3-7.5,4.6-12.1 c-2.3-13.9-7.2-44-9.8-59.9c-1-6-6-10.5-12.1-10.8L989.9,917.2z" style="fill: rgb(118, 114, 107);"/><g id="Missile-2_Missiles_Heavy-Knee_Left_M" style="fill: rgb(235, 137, 4);"><path d="M1015.1,973.4c-5.9,1.6-9.3,7.6-7.7,13.4c1.6,5.9,7.7,9.4,13.5,7.8c5.9-1.6,9.3-7.6,7.7-13.4 C1027.1,975.3,1021,971.8,1015.1,973.4z"/><path d="M1016.2,976.9c-3.9,1-6.3,5.1-5.2,9c1.1,3.9,5.2,6.3,9.1,5.2c4-1,6.3-5.1,5.2-9 C1024.2,978.2,1020.1,975.8,1016.2,976.9z"/></g><g id="Missile-1_Missiles_Heavy-Knee_Left_M" style="fill: rgb(118, 14, 14);"><path d="M1007.1,926.2c-5.9,1.6-9.4,7.6-7.7,13.5c1.6,5.9,7.7,9.4,13.6,7.8c5.9-1.6,9.3-7.6,7.7-13.5 C1019,928.2,1013,924.7,1007.1,926.2z"/><path d="M1008.1,929.7c-4,1-6.3,5.1-5.2,9.1c1.1,3.9,5.2,6.3,9.1,5.3c4-1,6.3-5.1,5.2-9.1 C1016.2,931,1012.1,928.7,1008.1,929.7z"/></g></g><path id="Plate-2_Heavy-Knee_Left_M" d="M970.3,870.9l-30.3-18.3l-151.1,26L767,905.9l29.6,151.5l59.5,1.4l84.9-14.6 l59-21.4L970.3,870.9z" style="fill: rgb(118, 114, 107);"/><g id="Plate-1_Heavy-Knee_Left_M" style="fill: rgb(235, 137, 4);"><path d="M963,879.3l-27.9-17.7l-138.3,23.8l-19.9,26l28.6,146.2l50.6,1.3l84.9-14.6l50.6-18.7L963,879.3z"/><path d="M914.5,899.8l-84.9,14.6l26.4,144.4l44-1.7l40.9-12.9L914.5,899.8z"/><path d="M829.7,914.4l-32.9-29l-19.9,26L829.7,914.4z"/><path d="M914.5,899.8l20.6-38.2l27.9,17.7L914.5,899.8z"/></g><g id="Trim_Heavy-Knee_Left_M" style="fill: rgb(118, 14, 14);"><path d="M767.4,957.9l-4.7,11.5l16.7,91.5l6.6-1.1L767.4,957.9z"/><path d="M923.6,1001l-66.6,11.5l6.5,35.7l66.6-11.5L923.6,1001z"/><path d="M773.9,941.4l-9.3,1.6l21.4,116.7l10.9-1.9l-0.1-0.5h-0.2L773.9,941.4z"/><path d="M979.4,917.2l20.6,105.6l-1.9,0.7l10.9-1.9l-19.4-106.2L979.4,917.2z"/></g></g></g></g><g id="RightKnee_Current"><g id="Right-Knee_M"><g id="Heavy_Knee_Right_M" class="option" style="display: inherit;"><g id="Missiles_Heavy-Knee_Right_M" class="toggle" style=""><path id="Base_Missiles_Heavy-Knee_Right_M" d="M275.4,917.2l-18.8,102l-22.1-18c-3.6-2.9-5.4-7.5-4.6-12.1 c2.3-13.9,7.2-44,9.8-59.9c1-6,6-10.5,12.1-10.8L275.4,917.2z" style="fill: rgb(118, 114, 107);"/><g id="Missile-2_Missiles_Heavy-Knee_Right_M" style="fill: rgb(235, 137, 4);"><path d="M250.1,973.4c5.9,1.6,9.3,7.6,7.7,13.4c-1.6,5.9-7.7,9.4-13.6,7.8c-5.9-1.6-9.3-7.6-7.7-13.4 C238.1,975.3,244.2,971.8,250.1,973.4z"/><path d="M249,976.9c4,1,6.3,5.1,5.2,9c-1.1,3.9-5.2,6.3-9.1,5.2c-4-1-6.3-5.1-5.2-9 C241,978.2,245.1,975.8,249,976.9z"/></g><g id="Missile-1_Missiles_Heavy-Knee_Right_M" style="fill: rgb(118, 14, 14);"><path d="M258.1,926.2c5.9,1.6,9.3,7.6,7.7,13.5c-1.6,5.9-7.7,9.4-13.6,7.8c-5.9-1.6-9.3-7.6-7.7-13.5 C246.2,928.2,252.3,924.7,258.1,926.2z"/><path d="M257.1,929.7c4,1,6.3,5.1,5.2,9.1c-1.1,3.9-5.2,6.3-9.1,5.3c-4-1-6.3-5.1-5.2-9.1 C249,931,253.1,928.7,257.1,929.7z"/></g></g><path id="Plate-2_Heavy-Knee_Right_M" d="M294.9,870.9l30.3-18.3l151.1,26l21.9,27.3l-29.6,151.5l-59.5,1.4 l-84.9-14.6l-59-21.4L294.9,870.9z" style="fill: rgb(118, 114, 107);"/><g id="Plate-1_Heavy-Knee_Right_M" style="fill: rgb(235, 137, 4);"><path d="M302.2,879.3l27.9-17.7l138.4,23.8l19.9,26l-28.6,146.2l-50.6,1.3l-84.9-14.6l-50.6-18.7L302.2,879.3z"/><path d="M350.7,899.8l84.9,14.6l-26.4,144.4l-44-1.7l-40.9-12.9L350.7,899.8z"/><path d="M435.5,914.4l32.9-29l19.9,26L435.5,914.4z"/><path d="M350.7,899.8l-20.6-38.2l-27.9,17.7L350.7,899.8z"/></g><g id="Trim_Heavy-Knee_Right_M" style="fill: rgb(118, 14, 14);"><path d="M497.8,957.9l4.7,11.5l-16.7,91.5l-6.6-1.1L497.8,957.9z"/><path d="M341.6,1001l66.6,11.5l-6.5,35.7l-66.6-11.5L341.6,1001z"/><path d="M491.3,941.4l9.3,1.6l-21.4,116.7l-10.9-1.9l0.1-0.5h0.2L491.3,941.4z"/><path d="M285.8,917.2l-20.6,105.6l1.9,0.7l-10.9-1.9l19.4-106.2L285.8,917.2z"/></g></g></g></g></g><g id="Shins_Current"><g id="LeftShin_Current"><g id="Left-Shin_M"><g id="Heavy-Shnees_Shin_Left_M" class="option" style="display: inherit;"><g id="Shin_Heavy-Shnees-Shin_Left_M" style="fill: rgb(118, 114, 107);"><path d="M920.1,1601.8l49.6-65l90.3-10.8l-64.6-592.6l-257.5,32.2l130.7,548.9l1,60.1L920.1,1601.8"/><path d="M778.1,952.5l-27.8-22.8h-18.4c0,0-8.5,52.7-6.7,79c3,42.5,46,96.6,46,96.6l28.5,13.5l31.9-73.9 L778.1,952.5"/><path d="M970.5,1011.8l17.4-88.9c0,0,25.6,50.2,28,76.4c4.3,46.4-4.9,77.1-4.9,77.1L970.5,1011.8"/><path d="M969.7,1536.7l90.3-10.8l-22.3-45.5L976,1486L969.7,1536.7"/><path d="M1005.7,1483.3l-72.4-389.4"/></g><g id="Knee_Heavy-Shnees-Shin_Left_M" style="fill: rgb(174, 70, 6);"><path d="M940.4,843.7l-144.9,24.4l-21.6,105.4l106.6,129.2l95.9-13.7l30.7-159.4L940.4,843.7"/><path d="M795.5,868.1l31.1,37.9l112.2-17.7l1.7-44.6L795.5,868.1"/><path d="M826.5,905.9l-52.6,67.2l21.6-105.1L826.5,905.9"/><path d="M938.7,888.3l68.3,41.4l-66.6-86L938.7,888.3"/><path d="M938.7,888.3l37.6,200.7l30.7-159.4L938.7,888.3"/><path d="M826.5,905.9l-52.7,67.2l106.6,129.5L826.5,905.9"/></g><g id="Straps_Heavy-Shnees-Shin_Left_M" class="toggle" style="fill: rgb(139, 87, 42);"><path d="M789.2,1197.1l55.4-9.2l5.8,25l-55.4,9.2L789.2,1197.1"/><path d="M792.9,1194.5l11.7-1.9l6.8,29.6l-11.7,1.9L792.9,1194.5"/><path d="M846.2,1439.1l55.4-9.2l5.8,25l-55.4,9.2L846.2,1439.1"/><path d="M849.8,1436.5l11.7-1.9l6.8,29.6l-11.7,1.9L849.8,1436.5"/></g></g></g></g><g id="RightShin_Current"><g id="Right-Shin_M"><g id="Heavy-Shnees_Shin_Right_M" class="option" style="display: inherit;"><g id="Shin_Heavy-Shnees-Shin_Right_M" style="fill: rgb(118, 114, 107);"><path d="M345.1,1601.8l-49.6-65l-90.3-10.8l64.6-592.6l257.5,32.2l-130.7,548.9l-1,60.1L345.1,1601.8"/><path d="M487.1,952.5l27.8-22.8h18.4c0,0,8.5,52.7,6.7,79c-3,42.5-46,96.6-46,96.6l-28.5,13.5l-31.9-73.9 L487.1,952.5"/><path d="M294.7,1011.8l-17.4-88.9c0,0-25.6,50.2-28,76.4c-4.3,46.4,4.9,77.1,4.9,77.1L294.7,1011.8"/><path d="M295.5,1536.7l-90.3-10.8l22.3-45.5l61.7,5.6L295.5,1536.7"/><path d="M259.5,1483.3l72.4-389.4"/></g><g id="Knee_Heavy-Shnees-Shin_Right_M" style="fill: rgb(174, 70, 6);"><path d="M324.8,843.7l144.9,24.4l21.6,105.4l-106.6,129.2l-95.9-13.7l-30.7-159.4L324.8,843.7"/><path d="M469.7,868.1l-31.1,37.9l-112.2-17.7l-1.7-44.6L469.7,868.1"/><path d="M438.7,905.9l52.6,67.2l-21.6-105.1L438.7,905.9"/><path d="M326.5,888.3l-68.3,41.4l66.6-86L326.5,888.3"/><path d="M326.5,888.3L288.9,1089l-30.7-159.4L326.5,888.3"/><path d="M438.7,905.9l52.7,67.2l-106.6,129.5L438.7,905.9"/></g><g id="Straps_Heavy-Shnees-Shin_Right_M" class="toggle" style="fill: rgb(139, 87, 42);"><path d="M476,1197.1l-55.4-9.2l-5.8,25l55.4,9.2L476,1197.1"/><path d="M472.3,1194.5l-11.7-1.9l-6.8,29.6l11.7,1.9L472.3,1194.5"/><path d="M419,1439.1l-55.4-9.2l-5.8,25l55.4,9.2L419,1439.1"/><path d="M415.4,1436.5l-11.7-1.9l-6.8,29.6l11.7,1.9L415.4,1436.5"/></g></g></g></g></g><g id="Ankles_Current"><g id="LeftAnkle_Current"><g id="Left-Ankle_M"><g id="Heavy_Ankle_Left_M" class="option" style="display: inherit;"><path id="Plate_Heavy-Ankle_Left_M" d="M868.4,1545l3.8,38.4l78.7,98.7l76.7-34.6l83.6-21.6l-63.1-112.2 c-31.8-4.4-69-0.6-111.8,12.3l-23.8,21L868.4,1545" style="fill: rgb(118, 14, 14);"/><path id="Trim_Heavy-Ankle_Left_M" d="M936.3,1526l9,10.9l-28.1,23.9l-31.8-1.4l1.1,15.6l68.2,84.4l68.5-32.1 l82.4-19.6l8.5,17.3l-86.5,22.4l-76.7,34.6l-78.7-98.7l-3.8-38.4l44.1,2L936.3,1526" style="fill: rgb(85, 82, 77);"/></g></g></g><g id="RightAnkle_Current"><g id="Right-Ankle_M"><g id="Heavy_Ankle_Right_M" class="option" style="display: inherit;"><path id="Plate_Heavy-Ankle_Right_M" d="M396.6,1545l-3.8,38.4l-78.7,98.7l-76.7-34.6l-83.6-21.6l63.1-112.2 c31.8-4.4,69-0.6,111.8,12.3l23.8,21L396.6,1545" style="fill: rgb(118, 14, 14);"/><path id="Trim_Heavy-Ankle_Right_M" d="M328.7,1526l-9,10.9l28.1,23.9l31.9-1.4l-1.1,15.6l-68.2,84.4l-68.5-32.1 l-82.4-19.6l-8.5,17.3l86.5,22.4l76.7,34.6l78.7-98.7l3.8-38.4l-44.1,2L328.7,1526" style="fill: rgb(85, 82, 77);"/></g></g></g></g><g id="Toes_Current"><g id="LeftToe_Current"><g id="Left-Toe_M"><g id="Armored_Toe_Left_M" class="option" style="display: inherit;"><g id="Plate_Armored_Toe_Left_M" style="fill: rgb(118, 14, 14);"><path d="M994.2,1696l102.1,56.7l77.1,5.3l61.8-15.7c12.9-10.8,18.1-35,7-59.2l-87-41.4l-68.3,17.1L994.2,1696"/><path d="M1079.7,1661.9c0,0,79.6,23.3,89.6,37.1c11,15.3,4.1,58.9,4.1,58.9"/></g><g id="Trim_Armored_Toe_Left_M" style="fill: rgb(85, 82, 77);"><path d="M1143.3,1635l-81.9,19.8l-69.1,42l14.3,7.9l73.3-42.9l81.6-19.2L1143.3,1635"/><path d="M1061.3,1654.9l18.4,7.1"/></g></g></g></g><g id="RightToe_Current"><g id="Right-Toe_M"><g id="Armored_Toe_Right_M" class="option" style="display: inherit;"><g id="Plate_Armored_Toe_Right_M" style="fill: rgb(118, 14, 14);"><path d="M270.8,1696l-102.1,56.7l-77.1,5.3l-61.8-15.7c-12.9-10.8-18.1-35-7-59.2l87-41.4l68.3,17.1L270.8,1696"/><path d="M185.3,1661.9c0,0-79.6,23.3-89.5,37.1c-11,15.3-4.1,58.9-4.1,58.9"/></g><g id="Trim_Armored_Toe_Right_M" style="fill: rgb(85, 82, 77);"><path d="M121.7,1635l81.9,19.8l69.1,42l-14.3,7.9l-73.3-42.9l-81.6-19.2L121.7,1635"/><path d="M203.7,1654.9l-18.4,7.1"/></g></g></g></g></g><g id="Thighs_Current"><g id="LeftThigh_Current"><g id="Left-Thigh_M"><g id="Heavy_Thigh_Left_M" class="option" style="display: inherit;"><g id="Thigh_Heavy-Thigh_Left_M" style="fill: rgb(85, 82, 77);"><path d="M766.9,469.6l-61.2,78.1l70,279.8l47.6,16.9l-33.1-318.9L766.9,469.6"/><path d="M923.3,453.4l76,63.8l-11,288.2l-43.1,26.4l-33.1-318.9L923.3,453.4"/><path d="M923.3,453.4l-156.4,16.3l23.2,55.8l122-12.7L923.3,453.4"/><path d="M912.1,512.8l-122,12.7l33.1,318.9l122-12.7L912.1,512.8"/></g><g id="Trim_Heavy-Thigh_Left_M" style="fill: rgb(118, 14, 14);"><path d="M929.5,428.9l-173.6,18l11,22.7l156.4-16.3L929.5,428.9"/><path d="M996.3,489.8l-66.8-61l-6.1,24.5l76,63.8L996.3,489.8"/><path d="M703,520.3l52.9-73.4l11,22.7l-61.2,78.1L703,520.3"/></g></g></g></g><g id="RightThigh_Current"><g id="Right-Thigh_M"><g id="Heavy_Thigh_Right_M" class="option" style="display: inherit;"><g id="Thigh_Heavy-Thigh_Right_M" style="fill: rgb(85, 82, 77);"><path d="M498.3,469.6l61.2,78.1l-70,279.8L442,844.4l33.1-318.9L498.3,469.6"/><path d="M341.9,453.4l-76,63.8l11,288.2l43.1,26.4l33.1-318.9L341.9,453.4"/><path d="M341.9,453.4l156.4,16.3l-23.2,55.8l-122-12.7L341.9,453.4"/><path d="M353.1,512.8l122,12.7L442,844.4l-122-12.7L353.1,512.8"/></g><g id="Trim_Heavy-Thigh_Right_M" style="fill: rgb(118, 14, 14);"><path d="M335.8,428.9l173.6,18l-11,22.7l-156.4-16.3L335.8,428.9"/><path d="M268.9,489.8l66.8-61l6.1,24.5l-76,63.8L268.9,489.8"/><path d="M562.2,520.3l-52.9-73.4l-11,22.7l61.2,78.1L562.2,520.3"/></g></g></g></g></g><g id="Groin_Current"><g id="Groin_M"><g id="Basic_Groin_M" class="option" style="display: inherit;"><path id="Groin-Plate_Basic_M" d="M566.1,514.1L455.3,270.1h354.3L698.8,514.1l-66.4,58.2L566.1,514.1z" style="fill: rgb(96, 61, 32);"/><path id="Trauma-Plating_Groin_M" d="M577.8,493.8l-91.3-201.1h291.9l-91.3,201.1l-54.7,47.9L577.8,493.8z" class="toggle" style="fill: rgb(118, 114, 107);"/></g></g></g><g id="Waist_Current" class="M"><g id="Accessories_Waist_M"><g id="Left-Holster_M" class="toggle" style=""><g id="Belt-Holster_Left_M" class="option" style="display: inherit;"><g id="Weapon_Belt-Holster-Left_M"><g id="Main_Weapon_Belt-Holster-Left_M" style="fill: rgb(85, 82, 77);"><path d="M970.1,266.9l-2.6-38.3l6.6-0.4l-1.6-24.1l-6.6,0.4l-0.8-12.5c-0.3-4.1,4.9-7.7,11.6-8.2 c15.3-1,41.6-2.8,56.9-3.8c6.7-0.4,12.3,2.5,12.6,6.6l0.8,12.5l-6.6,0.4l1.6,24.1l6.6-0.4l2.6,38.3l-15.5,1l7.1,106.1 l-50.2,3.3l-7.1-106.1L970.1,266.9z"/><path d="M1044.3,256.3l-8.9,0.6l8.5,127.5l-50.2,3.3l-8.5-127.5l-8.9,0.6l-1.9-29.1l68-4.5L1044.3,256.3z"/><path d="M1025.9,188.8l-40.3,2.7l2.6,39.4l40.3-2.7L1025.9,188.8z"/><path d="M997.6,271l-6.6,0.4l6.7,100.3l6.6-0.4L997.6,271z"/><path d="M1012.9,247l-6.6,0.4l6.7,100.3l6.6-0.4L1012.9,247z"/><path d="M1031.2,268.7l-6.6,0.4l6.7,100.3l6.6-0.4L1031.2,268.7z"/></g><g id="Accent_Weapon_Belt-Holster-Left_M" style="fill: rgb(118, 114, 107);"><path d="M994.5,234.5l0.3,4l28.4-1.9l-0.3-4L994.5,234.5z"/><path d="M994.7,238.5l0.3,4l28.4-1.9l-0.3-4L994.7,238.5z"/><path d="M994.2,230.5l0.3,4l28.4-1.9l-0.3-4L994.2,230.5z"/><path d="M990.9,181.1l0.3,4l28.4-1.9l-0.3-4L990.9,181.1z"/><path d="M992.2,191.1l-6.6,0.4l2.6,39.4l6.6-0.4L992.2,191.1z"/><path d="M1025.9,188.8l-6.6,0.4l2.6,39.4l6.6-0.4L1025.9,188.8z"/><path d="M1024.6,269.2l-10,0.7l6.7,100.3l10-0.7L1024.6,269.2z"/><path d="M1007.7,270.3l-10,0.7l6.7,100.3l10-0.7L1007.7,270.3z"/></g></g><path id="Holster_Belt-Holster-Left_M" d="M987.2,413.9l-26.2-159.8l87.9,112.6l8.3,220.5 c-15.3,20.1-32.3,22.2-51.3,3.8L987.2,413.9z" style="fill: rgb(139, 87, 42);"/></g></g><g id="Right-Holster_M" class="toggle" style=""><g id="Belt-Holster_Right_M" class="option" style="display: inherit;"><g id="Weapon_Belt-Holster-Right_M"><g id="Main_Weapon_Belt-Holster-Right_M" style="fill: rgb(85, 82, 77);"><path d="M295.1,266.9l2.6-38.3l-6.6-0.4l1.6-24.1l6.6,0.4l0.8-12.5c0.3-4.1-4.9-7.7-11.6-8.2 c-15.3-1-41.6-2.8-56.9-3.8c-6.7-0.4-12.3,2.5-12.6,6.6l-0.8,12.5l6.6,0.4l-1.6,24.1l-6.6-0.4l-2.6,38.3l15.5,1l-7.1,106.1 l50.2,3.3l7.1-106.1L295.1,266.9z"/><path d="M220.9,256.3l8.9,0.6l-8.5,127.5l50.2,3.3l8.5-127.5l8.9,0.6l1.9-29.1l-68-4.5L220.9,256.3z"/><path d="M239.3,188.8l40.3,2.7l-2.6,39.4l-40.3-2.7L239.3,188.8z"/><path d="M267.6,271l6.6,0.4l-6.7,100.3l-6.6-0.4L267.6,271z"/><path d="M252.3,247l6.6,0.4l-6.7,100.3l-6.6-0.4L252.3,247z"/><path d="M234,268.7l6.6,0.4l-6.7,100.3l-6.6-0.4L234,268.7z"/></g><g id="Accent_Weapon_Belt-Holster-Right_M" style="fill: rgb(118, 114, 107);"><path d="M270.7,234.5l-0.3,4l-28.4-1.9l0.3-4L270.7,234.5z"/><path d="M270.5,238.5l-0.3,4l-28.4-1.9l0.3-4L270.5,238.5z"/><path d="M271,230.5l-0.3,4l-28.4-1.9l0.3-4L271,230.5z"/><path d="M274.3,181.1l-0.3,4l-28.4-1.9l0.3-4L274.3,181.1z"/><path d="M273,191.1l6.6,0.4l-2.6,39.4l-6.6-0.4L273,191.1z"/><path d="M239.3,188.8l6.6,0.4l-2.6,39.4l-6.6-0.4L239.3,188.8z"/><path d="M240.6,269.2l10,0.7l-6.7,100.3l-10-0.7L240.6,269.2z"/><path d="M257.6,270.3l10,0.7l-6.7,100.3l-10-0.7L257.6,270.3z"/></g></g><path id="Holster_Belt-Holster-Right_M" d="M278,413.9l26.2-159.8l-87.9,112.6L208,587.2 c15.2,20.1,32.3,22.2,51.3,3.8L278,413.9z" style="fill: rgb(139, 87, 42);"/></g></g></g><g id="Under-Belt_M"><g id="Girth-Belt_M" class="option" style="display: inherit; fill: rgb(139, 87, 42);"><path d="M632.4,115.8c-98.8,0-296.5-24-296.5-24l6.4-20.3c0,0,192.8,16,290.1,24c96.8-8,290.1-24,290.1-24l6.4,20.3 C929,91.8,731.3,115.8,632.4,115.8z"/><path d="M632.4,136.1c-100.9,0-302.7-24-302.7-24l6.2-20.3c0,0,247.1,20,296.5,24c49.4-4,296.5-24,296.5-24l6.2,20.3 C935.1,112.1,733.3,136.1,632.4,136.1z"/><path d="M632.4,156.5c-102.4,0-307.3-24-307.3-24l4.6-20.3c0,0,252.3,20,302.7,24c50.5-4,302.7-24,302.7-24l4.6,20.3 C939.7,132.5,734.9,156.5,632.4,156.5z"/><path d="M632.4,176.8c-103.7,0-311.2-24-311.2-24l3.9-20.3c0,0,256.1,20,307.3,24c51.2-4,307.3-24,307.3-24l3.9,20.3 C943.6,152.8,736.2,176.8,632.4,176.8z"/><path d="M632.4,197.1c-104.9,0-314.7-24-314.7-24l3.5-20.3c0,0,259.3,20,311.2,24c51.9-4,311.2-24,311.2-24l3.5,20.3 C947.1,173.1,737.3,197.1,632.4,197.1z"/><path d="M632.4,217.5c-106,0-318-24-318-24l3.3-20.3c0,0,262.2,20,314.7,24c52.4-4,314.7-24,314.7-24l3.3,20.3 C950.4,193.5,738.4,217.5,632.4,217.5z"/><path d="M632.4,237.8c-107.1,0-321.2-24-321.2-24l3.3-20.3c0,0,265,20,318,24c53-4,318-24,318-24l3.3,20.3 C953.7,213.8,739.5,237.8,632.4,237.8z"/><path d="M632.4,258.1c-108.2,0-324.6-24-324.6-24l3.4-20.3c0,0,267.7,20,321.2,24c53.5-4,321.2-24,321.2-24l3.3,20.3 C957,234.1,740.6,258.1,632.4,258.1z"/><path d="M632.4,278.5c-109.4,0-328.2-24-328.2-24l3.7-20.3c0,0,270.5,20,324.6,24c54.1-4,324.6-24,324.6-24l3.7,20.3 C960.7,254.5,741.8,278.5,632.4,278.5z"/><path d="M632.4,298.8c-110.8,0-332.4-24-332.4-24l4.2-20.3c0,0,273.5,20,328.2,24c54.7-4,328.2-24,328.2-24l4.2,20.3 C964.8,274.8,743.2,298.8,632.4,298.8z"/></g></g><g id="Belt_M"><g id="Pouch-Belt-2_M" class="option" style="display: inherit;"><path id="Main_Pouch-Belt-2_M" d="M953.4,201.3c-72.3,6.5-237.4,30.1-320.8,30.1c-84.2,0-249.3-23.8-320.7-30.1 l10.7-84.6C381.2,122,551.1,146,632.6,146c79.1,0,245.5-23.8,308.1-29.5L953.4,201.3z" style="fill: rgb(210, 164, 125);"/><rect id="Buckle_Pouch-Belt-2_M" x="573.5" y="137.9" width="119.5" height="98.1" style="fill: rgb(0, 0, 0);"/><g id="Pouches_Pouch-Belt-2_M" style="fill: rgb(139, 87, 42);"><g><path d="M285.7,109l5.8-9.1l30,1l3.7,11.3L285.7,109z"/><path d="M325.1,113.3c0.1-0.7-0.1-1.4-0.6-2c-0.5-0.5-1.1-0.9-1.9-0.9c-9-0.3-36.9-1.4-36.9-1.4L280.4,228 c1.2,3,16.3,4.9,28.4,5.2c5.3,0.1,9.7-4.1,9.8-9.3C319.5,187,320.8,150,325.1,113.3z"/></g><g><path d="M979.5,109l-5.8-9.1l-30,1l-3.7,11.3L979.5,109z"/><path d="M940.1,113.3c-0.1-0.7,0.1-1.4,0.6-2c0.5-0.5,1.1-0.9,1.9-0.9c9-0.3,36.9-1.4,36.9-1.4l5.3,119.1 c-1.2,3-16.3,4.9-28.4,5.2c-5.3,0.1-9.7-4.1-9.8-9.3C945.7,187,944.4,150,940.1,113.3z"/></g></g></g></g></g></g><g id="Helmet_M_Wrapper" transform="translate(550,35)"><g id="Helmet_Current"/></g><g id="Shoulders_Current" transform="translate(199,588)"><g id="LeftShoulder_Current"/><g id="RightShoulder_Current"/></g><g id="Front_M" transform="translate(0,550)"><g id="Cape_M"></g></g></svg>
