<svg id="Male-Body" viewBox="0 0 1800 3300" version="1.1" xmlns="http://www.w3.org/2000/svg" style="stroke:black;stroke-width:2px;fill-rule:evenodd;height:100%;"><g id="Back_M" transform="translate(0,560)"><g id="Cape_M"><path id="Torn-Short-Cape-Left_Back_M" d="M1098.1,599.3c-12.1-59.7-18.2-267.9-96.2-294.1 c-68.8-23.1,86.7-150.1,86.7-150.1c3.7-11.1,42.1-10.9,51.4-10.7c21.7,0.4,85.7,19.5,103,33c47.8,37.3,65.5,117.4,82.3,145.6 c46.5,78.2,89.7,171.5,103.8,250c13.6,76.1,48.8,144.2,75.4,213.3c30.1,78.1,45.4,133.2,72.2,213.1c27.5,82.4,60,155.5,106.1,214.5 c18.1,23.2,46.9,42,59.7,73.1c1.3,3.2,14.5,70.5,14.3,70.6c-7.8,4.6-36.9-38.6-45.5-37.9c-15.2,1.1-117.3-27.7-123,24.7 c-2.1,19-11,62.3-11,62.3s-66.7,1.2-84.7-13.7l6.6,83.6c0,0-28.9-35.6-61.6-50.3c-12.3-5.6-36.6,7.7-36.6,7.7l-40.6-42 c0,0,12.6,97.6,19,128c0,0-97.5-50-104.5-34.7c-6.7,14.6,10,48.9-7,62.6c-10.8,8.7-43.2,38.2-42.9,35.8 c3.4-26.2,7.4-93.3-4.8-166.4c-15.4-92-20.9-154.7-35.3-247c-9.7-61.7-6.5-93.8-21-153.9c-16.2-66.7-14.7-144.6-34.1-209.8 C1110.5,742.1,1111.7,666.6,1098.1,599.3z M1318.1,1275.4c4,15.4,13.6,30.1,21,44.2c4.4,8.5,50.4,59.3,59.1,63.7 c14.2,7.1-45.9-70.6-49.6-82c-11.4-35.8,2.8-47.7-32.1-61.3L1318.1,1275.4z M1534.7,1311.4c-0.6,3.1-1.2,6.3-1.6,9.5 c-2.9,24.7,17.5-1.3,10.2-7.6L1534.7,1311.4z M1598.1,1227.8c3.2,2.8,62.5,51.8,65.5,50.9c2.9-0.9-8.7-22-10-23.8 c-7.2-10.5-17.8-18.3-28.1-25.5L1598.1,1227.8z" class="option" style="display: inherit; fill: rgb(163, 163, 163);"/></g></g><g id="Flight-Suit" transform="translate(260,575)"><g id="Soft-Parts_M"><g id="Suit_M"><g id="Neck-Seal_M"><g id="Standard-Neck-Seal_M" class="option" style="display: inherit; fill: rgb(0, 0, 0);"><path d="M785.8,54.9c0-9.6-9.8-17.3-21.9-17.3c0,0-82.7,9.1-124,9.1s-124-9.1-124-9.1c-12.1,0-21.9,7.8-21.9,17.3 c0,9.6,9.8,17.3,21.9,17.3c0,0,82.7,9.1,124,9.1s124-9.1,124-9.1C775.9,72.2,785.8,64.4,785.8,54.9z"/><path d="M793.2,75.1c0-10-10.3-18.2-23-18.2c0,0-86.9,9.6-130.3,9.6c-43.4,0-130.3-9.6-130.3-9.6 c-12.7,0-23,8.1-23,18.2s10.3,18.2,23,18.2c0,0,86.9,9.6,130.3,9.6c43.4,0,130.3-9.6,130.3-9.6C782.8,93.3,793.2,85.1,793.2,75.1 z"/><path d="M801.5,100.2c0-10.6-10.9-19.2-24.3-19.2c0,0-91.6,10.1-137.4,10.1S502.4,81.1,502.4,81.1 c-13.4,0-24.3,8.6-24.3,19.2s10.9,19.2,24.3,19.2c0,0,91.6,10.1,137.4,10.1s137.4-10.1,137.4-10.1 C790.7,119.4,801.5,110.8,801.5,100.2z"/><path d="M809.6,123.3c0-11.1-11.4-20.1-25.5-20.1c0,0-96.2,10.6-144.3,10.6c-48.1,0-144.3-10.6-144.3-10.6 c-14.1,0-25.5,9-25.5,20.1s11.4,20.1,25.5,20.1c0,0,96.2,10.6,144.3,10.6c48.1,0,144.3-10.6,144.3-10.6 C798.2,143.4,809.6,134.4,809.6,123.3z"/><path d="M817.7,145.9c0-8.4-12-15.2-26.7-15.2c0,0-100.8,8-151.1,8s-151.1-8-151.1-8c-14.7,0-26.7,6.8-26.7,15.2 c0,8.4,12,15.2,26.7,15.2c0,0,100.7,8,151.1,8s151.1-8,151.1-8C805.7,161.1,817.7,154.3,817.7,145.9z"/><path d="M817.7,171.2c0-8.4-12-15.2-26.7-15.2c0,0-100.8,8-151.1,8s-151.1-8-151.1-8c-14.7,0-26.7,6.8-26.7,15.2 c0,8.4,12,15.2,26.7,15.2c0,0,100.7,15.4,151.1,15.4S791,186.4,791,186.4C805.7,186.4,817.7,179.6,817.7,171.2z"/></g></g><g id="Flight-Suit_M" style="fill: rgb(102, 102, 102);"><path d="M516.6,1664.2l-15.7,92.9L384,2323.3c0,0-52.3,31.5-79.1,36.9c-26.8,5.4-81.9-4.7-81.9-4.7l40.8-458.5 l30.8-195.8l7-83.3c0,0-26.8-242.9-18.1-364c8.7-121.1,70.6-362.6,70.6-362.6l285.9,6.2l285.9-6.2c0,0,61.8,241.5,70.6,362.6 c8.7,121.1-18.1,364-18.1,364l7,83.3l30.8,195.8l40.8,458.5c0,0-56.4,12.7-83.2,7.3c-26.8-5.4-77.8-39.6-77.8-39.6l-116.9-566.3 l-15.7-92.9l-123.2-323.4L516.6,1664.2z"/><g><path d="M1110.7,436.8l127,444l11,228.9l-101.2,19.5l-64.2-215.5L938.7,551.9l7.3-165.8l24.5-39.6L1110.7,436.8z"/><path d="M169.3,436.6l139.9-90.1l24.5,39.6l5.5,171L196.7,913.8l-64.2,215.5l-101.2-19.5l11-228.9L169.3,436.6z"/></g></g></g><g id="Boots_M"><g id="Tall_Boots_M" class="option" style="display: inherit;"><g id="Bottom_Tall-Boot_M" style="fill: rgb(0, 0, 0);"><path d="M879.8,2430.7c0.3,1.4,0.6,2.8,1,4.3c10.2,18.8,38,25.2,57.1,29.7c13.5,3.2,26.5,7.6,39.2,13.1 c17.6,7.5,26.4,20.6,40.1,33.1c6.1,5.6,13.4,9.9,20.4,14.1c17.5,10.6,34.4,11.4,54.3,11.9c26.7,0.8,50.4-2.9,76.7-8.8 c23-5.2,40.2-9.5,60.1-15.1c6-1.7,13.2-2.9,16.8-7.3l3,6.7l2.2,17.5c0,0-21.5,11.6-44.5,16.7c-22.9,5.1-69.2,12.3-69.2,12.3 l-3.2-7.6l-10.4,2.2l0.5,7.5l-25.2,1.4l-5.4-7.3l-8.4,0.2l1.3,6.5c0,0-15.6-0.3-24.3-5.4c-1.7-2.5-4.8-6.5-4.8-6.5l-6-3.2 l0.8,6.1l-21.7-7.8l-1.1-8.4l-6.2-3.7l-0.3,6.1l-15.5-12l-1.7-7.4l-33.2-17.5l-11.3,4.6l-27-5.9l-0.9-5.8l-6.9-2.8l-4.8,4.5 l-18.1-7.5l-0.4-5.4l-5.9-2.1l-0.7,3.9l-17.2-11.9L879.8,2430.7z M879.1,2423.8L879.1,2423.8L879.1,2423.8L879.1,2423.8z"/><path d="M400.1,2430.7c-0.3,1.4-0.6,2.8-1,4.3c-10.2,18.8-38,25.2-57.1,29.7c-13.5,3.2-26.5,7.6-39.2,13.1 c-17.6,7.5-26.4,20.6-40.1,33.1c-6.1,5.6-13.3,9.9-20.4,14.1c-17.5,10.6-34.4,11.4-54.3,11.9c-26.7,0.8-50.4-2.9-76.7-8.8 c-23-5.2-40.2-9.5-60.1-15.1c-6-1.7-13.2-2.9-16.8-7.3l-3,6.7l-2.2,17.5c0,0,21.5,11.6,44.5,16.7c22.9,5.1,69.2,12.3,69.2,12.3 l3.2-7.6l10.4,2.2l-0.5,7.5l25.2,1.4l5.4-7.3l8.4,0.2l-1.3,6.5c0,0,15.6-0.3,24.3-5.4c1.6-2.5,4.8-6.5,4.8-6.5l6-3.2l-0.8,6.1 l21.7-7.8l1.1-8.4l6.2-3.7l0.3,6.1l15.4-12l1.7-7.4l33.2-17.5l11.3,4.6l27-5.9l0.9-5.8l6.9-2.8l4.8,4.5l18.1-7.5l0.4-5.4l5.9-2.1 l0.7,3.9l17.2-11.9L400.1,2430.7z M400.8,2423.8L400.8,2423.8L400.8,2423.8L400.8,2423.8z"/></g><g id="Main_Tall-Boot_M" style="fill: rgb(78, 39, 5);"><path d="M879.9,2288.3c-15.4-45.1-26.9-117.1-36.1-150c-6.9-24.6-38.5-158.6-33.3-175.4 c5.3-17,208.5-51.8,215.1-36.4c10,23.5,21.6,255.8,23.3,290c1.3,25,5,49.7,5,74.8l-0.1,0.1c2.6,13.7,4.9,28.3,10.5,40.6 c10.7,23.1,10.2,33.2,28.1,50.6c12.3,12,44.1,33.2,58.7,42.3c6.2,3.9,12.8,6.8,19.6,9.3l0.6,0.2c27,10.1,56.1,13.9,70.8,43.8 c3.2,6.5,5.9,14.3,5.4,21.7c-0.7,9.5-11,10.8-19,13.1c-19.9,5.7-37.1,10-60.1,15.1c-26.3,5.9-50,9.5-76.7,8.8 c-19.9-0.6-36.8-1.4-54.3-11.9c-7-4.3-14.3-8.6-20.4-14.1c-13.7-12.5-22.5-25.6-40.1-33.1c-12.7-5.4-25.8-9.9-39.2-13.1 c-19-4.5-46.8-10.9-57.1-29.7c-4-14.1,0.1-21.1,1.4-33.3l0.6-5.2c1-7.9,2.4-16,2.9-24.6c0.8-16.4-3.3-32.6-4.3-49 c-0.6-9.3-1-18.5-1.2-27.8C880.1,2294,879.7,2290.5,879.9,2288.3z"/><path d="M399.9,2288.3c15.4-45.1,26.9-117.1,36.1-150c6.9-24.6,38.5-158.6,33.3-175.4c-5.3-17-208.5-51.8-215-36.4 c-10,23.5-21.6,255.8-23.3,290c-1.3,25-5,49.7-5,74.8l0.1,0.1c-2.6,13.7-4.9,28.3-10.5,40.6c-10.7,23.1-10.2,33.2-28.1,50.6 c-12.3,12-44.1,33.2-58.7,42.3c-6.2,3.9-12.8,6.8-19.6,9.3l-0.6,0.2c-27,10.1-56.1,13.9-70.8,43.8c-3.2,6.5-5.9,14.3-5.4,21.7 c0.7,9.5,11,10.8,19,13.1c19.9,5.7,37.1,10,60.1,15.1c26.3,5.9,50,9.5,76.7,8.8c19.9-0.6,36.8-1.4,54.3-11.9 c7.1-4.3,14.3-8.6,20.4-14.1c13.7-12.5,22.5-25.6,40.1-33.1c12.7-5.4,25.8-9.9,39.2-13.1c19-4.5,46.8-10.9,57.1-29.7 c4-14.1-0.1-21.1-1.4-33.3l-0.6-5.2c-1-7.9-2.4-16-2.9-24.6c-0.8-16.4,3.3-32.6,4.3-49c0.6-9.3,1-18.5,1.2-27.8 C399.8,2294,400.2,2290.5,399.9,2288.3z"/></g></g></g><g id="Sleeves_M" class="toggle" style="fill: rgb(102, 102, 102);"><g><path d="M928.3,573.2l28.4,62.9c0,0,44.9-34.2,74.8-51.1c29.9-17,46.4-28,73.3-38.4c26.9-10.4,53.9-15.7,53.9-15.7 l-64.3-130.6l-61.4-103.1l-122.7,54.8L928.3,573.2z"/><path d="M943.2,606.4c-2.1-2.6,53.8-48,91.2-67.6c37.4-19.6,108.6-39.4,108.6-39.4"/></g><g><path d="M351.7,573.2l-28.4,62.9c0,0-44.9-34.2-74.8-51.1c-29.9-17-46.4-28-73.3-38.4c-26.9-10.4-53.9-15.7-53.9-15.7 l64.3-130.6l61.4-103.1l122.7,54.8L351.7,573.2z"/><path d="M336.8,606.4c2.1-2.6-53.8-48-91.2-67.6c-37.4-19.6-108.6-39.4-108.6-39.4"/></g></g><g id="Gloves_M"><g id="Left-Glove_M"><g id="Basic_Left_Glove_M" class="option" style="display: inherit; fill: rgb(0, 0, 0);"><path d="M1208.1,1298.1c-5.7-0.3-11.1-0.2-16.8,1c-3.9,0.8-7.6,1.7-11.1,3.7c-10.5,6.1-7.6,19.3,1.7,24.3 c10.9,5.9,28.2,0.1,33.2-11.2C1217.3,1311.3,1210.9,1302.6,1208.1,1298.1"/><path d="M1188.9,1309.6c-5.7-0.3-11.1-0.2-16.8,1c-3.9,0.8-7.6,1.7-11.1,3.7c-10.5,6.1-7.6,19.3,1.7,24.3 c10.9,5.9,28.2,0.1,33.2-11.2C1198,1322.8,1191.7,1314.1,1188.9,1309.6"/><path d="M1175.1,1325.2c-5.7,0.5-12.6,1.3-18,3.3c-3.7,1.3-7.3,2.7-10.5,5.2c-9.6,7.4-5,20.1,5,23.8 c11.6,4.3,28-3.7,31.4-15.6C1184.4,1337.1,1175.1,1325.2,1175.1,1325.2z"/><path d="M1144,1148.2c0,0-16.5,22.9-20.8,39.4c-3,11.6-1.4,39.3-5.3,57.9c-3.8,18.6-7.3,28.9-7.3,28.9 s-14.6,29.8-12,36.6c2.5,6.8,15.4,12.9,22.8,9.3c9.1-4.5,20.5-25.5,27.6-40.2c7.3-15,13.3-36.4,13.3-36.4s10,3.5,15.2,7.4 c17.1,13.2,9.7,52.9,9.7,52.9s-7,14.2-17.6,30.2c-14.5,21.8-36.6,40.6-22,57.2c13.7,15.6,44.8-25.3,44.8-25.3l30.5-39.8 c0,0,35-57.7,36.8-68.9c1.4-8.5,0.2-37.1,0.2-37.1l-10.9-110.6l-55.5,4.6l-45.7,14.9L1144,1148.2"/></g></g><g id="Right-Glove_M"><g id="Basic_Right_Glove_M" class="option" style="display: inherit; fill: rgb(0, 0, 0);"><path d="M71.9,1298.1c5.7-0.3,11.1-0.2,16.8,1c3.9,0.8,7.6,1.7,11.1,3.7c10.5,6.1,7.6,19.3-1.7,24.3 c-10.9,5.9-28.2,0.1-33.2-11.2C62.7,1311.3,69.1,1302.6,71.9,1298.1"/><path d="M91.1,1309.6c5.7-0.3,11.1-0.2,16.8,1c3.9,0.8,7.6,1.7,11.1,3.7c10.5,6.1,7.6,19.3-1.7,24.3 c-10.9,5.9-28.2,0.1-33.2-11.2C82,1322.8,88.4,1314.1,91.1,1309.6"/><path d="M104.9,1325.2c5.7,0.5,12.6,1.3,18,3.3c3.7,1.3,7.3,2.7,10.5,5.2c9.6,7.4,5,20.1-5,23.8 c-11.6,4.3-28-3.7-31.4-15.6C95.6,1337.1,104.9,1325.2,104.9,1325.2z"/><path d="M136,1148.2c0,0,16.5,22.9,20.9,39.4c3,11.6,1.4,39.3,5.3,57.9c3.8,18.6,7.3,28.9,7.3,28.9 s14.6,29.8,12,36.6c-2.5,6.8-15.4,12.9-22.7,9.3c-9.2-4.5-20.5-25.5-27.7-40.2c-7.3-15-13.3-36.4-13.3-36.4s-10,3.5-15.2,7.4 c-17.1,13.2-9.7,52.9-9.7,52.9s7,14.2,17.6,30.2c14.4,21.8,36.6,40.6,22,57.2c-13.7,15.6-44.8-25.3-44.8-25.3l-30.5-39.8 c0,0-35-57.7-36.8-68.9c-1.4-8.5-0.2-37.1-0.2-37.1l10.9-110.6l55.5,4.6l45.7,14.9L136,1148.2"/></g></g></g></g></g><g id="Biceps_Current" transform="translate(199,588)"><g id="LeftBiceps_Current"><g id="Left-Biceps_M"><g id="Basic_Biceps_Left_M" class="option" style="display: inherit;"><path id="Main_Basic_Biceps_Left_M" d="M1224.3,527.2c-12.1-29.3-65.9-157.6-65.9-157.6s-88.4,36.5-110.4,45.6 c-6.2,2.6-9.2,9.7-6.6,16c10.4,25.2,35.8,86.8,51.7,125.1c3.6,8.7,10.5,15.6,19.1,19.2c8.7,3.6,18.4,3.6,27.1,0 c26-10.7,60.8-25.1,78.4-32.4C1223.9,540.6,1226.8,533.4,1224.3,527.2z" style="fill: rgb(22, 0, 69);"/><path id="Strap_Basic_Biceps_Left_M" d="M1065,488l-62,25.6l-1.5,45.7l79.4-32.8L1065,488" style="fill: rgb(78, 39, 5);"/></g></g></g><g id="RightBiceps_Current"><g id="Right-Biceps_M"><g id="None_Biceps_Right_M" class="option" style="display: inherit;"></g></g></g></g><g id="Vest_Current" transform="translate(260,575)"><path id="Vest_M" d="M640,197.9c90.1-0.1,163.5-45.9,165.6-85.4l1.6,0.2l194.8,57.8l141.1,255.2l-30.3,12.4l-142.3-91.7 L946,386.1l-16.3,505.4c0,0-92.4,50.2-143.4,57c-36.5,4.8-91.5,7.2-146.2,7.1c-54.7,0.1-109.7-2.3-146.2-7.1 c-51-6.8-143.4-57-143.4-57L334,386.1l-24.5-39.6l-142.3,91.7l-30.3-12.4L278,170.5l194.8-57.8l1.6-0.2 C476.5,152.1,549.9,197.9,640,197.9" style="fill: rgb(0, 0, 0);"/></g><g id="Upper-Body_M_Wrapper" transform="translate(199,588)"><g id="Chest_Current" class="Galaxy_M"><g id="Abdomen_Galaxy_M"><path id="Abdomen-Plate_Galaxy_M" d="M627.2,751.4l-22,16l-111.9-16l-8.2-61.8l53-1.1l32.1-52.5l14.6-48.3l116-106.2 l0.2,0.2l0.2-0.2l116,106.2l14.6,48.3l32.1,52.5l53,1.1l-8.2,61.8l-111.9,16l-22-16H627.2z" style="fill: rgb(116, 99, 7);"/></g><g id="Full-Chest_Galaxy_M"><path id="Chest-Plate_Galaxy_M" d="M654.4,327.4l-0.2,108.2l34,34.4L569,582.9L553.5,635l-25.3,41.5h-43.7l-21.2-31 l-27-151.5l-39.6-61.9l50.1-162.1l57.8-7.3l8.1-35.8l61.9-7.6l19.6,32h213l19.6-32l61.9,7.6l8.1,35.8l57.8,7.3l50.1,162.1 l-39.6,61.9l-27,151.5l-21.2,31h-43.7L848.5,635L833,582.9l-119.2-113l34-34.4l-0.2-108.2L701,291.1L654.4,327.4z" style="fill: rgb(22, 0, 69);"/><g id="Accents_Chest-Plate_Galaxy_M" class="toggle" style="fill: rgb(116, 99, 7);"><rect x="818.8" y="303.9" width="98" height="13"/><rect x="818.8" y="326.9" width="98" height="13"/></g></g><g id="Iron-Heart_Galaxy_M"><path id="Heart_Galaxy_M" d="M672.4,432.5v-97.4l28.6-22.4l28.6,22.4v97.4L701,461.3L672.4,432.5z" style="fill: rgb(116, 99, 7);"/><rect id="Center_Heart_Galaxy_M" x="691.1" y="350" width="19.8" height="66.7" class="option" style="display: inherit; fill: rgb(54, 46, 4);"/></g><g id="Neck-Armor_Galaxy_M"><g id="Neck-Plate_Galaxy_M" style="fill: rgb(22, 0, 69);"><path d="M677.2,240.8l-78.3,1.3l-19.3-31.6l-74.7,8.9l-7.4,32.8l-47.9,5.9l-35.3-121.8l122.5-36.7 c0,0,16.2,27.5,28,37.2c12.1,9.9,28.2,21.6,43.3,28.2c16.5,7.2,36.7,12.1,55.9,15.2c2,0.3,4.1,0.6,6.2,0.9L677.2,240.8z"/><path d="M724.8,240.8l78.3,1.3l19.3-31.6l74.7,8.9l7.4,32.8l47.9,5.9l35.3-121.8L865.4,99.5c0,0-16.2,27.5-28,37.2 c-12.1,9.9-28.2,21.6-43.3,28.2c-16.5,7.2-36.7,12.1-55.9,15.2c-2,0.3-4.1,0.6-6.2,0.9L724.8,240.8z"/></g></g></g><g id="Collar_Current"><g id="Collar_M" class="toggle" style=""><g id="Cloth-Wrap-Right_Collar_M" class="option" style="display: inherit;"><g id="Main_Cloth-Wrap-Right_Collar_M" style="fill: rgb(163, 163, 163);"><path d="M805.7,206c53-16.6,62.6-43.3,65.8-70.2c1.3-11-14.4-39.6,1.8-47c18.3-8.3,61.6,4.8,79.4,8.6 c13.2,2.8,25,6.1,38.5,6.3c31.2,0.4,56,21.2,58.7,36.8c3.9,21.8-34.6,29.7-52.7,46.2C952.2,228,936.5,284,841.6,299.3 c-43.5,7-86.7-2.9-127.1-11.9C610,264.1,553,244.1,485.9,192.2c-29.4-22.7-73.7-41.1-72.6-71.5c0-1.3,21.4-14,23.5-14.5 c18.8-4.7,34.9-12.5,55.6-12.9c12.4-0.2,10.3,10.5,11.2,15.3c3.5,18.5,20.4,32.5,41.7,46.5C601.3,191.8,729,203.2,805.7,206z"/><path d="M805.7,206c14,0.5,26.3,2.7,37,3.4c48.5,3,65.8-8.9,75.2-30.5"/><path d="M956.4,97.9c14,22.9,12.2,49.8,1,67.5"/><path d="M549.6,163.1c36.3,49.7,90.2,65.4,149.2,71.4"/><path d="M451.2,102c2.1,12.6,9.6,17.2,18.9,25.7c5.3,4.9,11.8,8.4,16.1,14.3c1.5,2.2,2.4,4.7,3.3,7.2"/></g><path id="Buckle_Cloth-Wrap-Right_Collar_M" d="M562,153.8l-30.9-22.1l-53.6,74.8l30.9,22.1L562,153.8z" style="fill: rgb(116, 99, 7);"/></g></g></g><g id="ChestAttachments_Current"><g id="Chest-Attachments_M"><g id="No-Device_Accessories_Chest_M" class="option" style="display: inherit;"></g></g></g><g id="Gauntlets_Current"><g id="LeftGauntlets_Current"><g id="Left-Gauntlets_M"><g id="Basic_Gauntlet_Left_M" class="option" style="display: inherit;"><path id="Top-2_Basic_Gauntlet_Left_M" d="M1339.1,1120l14.4-23.2l-41.3-195.3l-6.9,23.6l19.6,89l-7.7,22.1 L1339.1,1120z" style="fill: rgb(116, 99, 7);"/><path id="Top-1_Basic_Gauntlet_Left_M" d="M1312.3,901.5l-6.9,23.6l19.6,89l-7.7,22.1l21.7,83.8l-9.5,15.3l5,54.3 l-16.7,4.3l-22.5-81.7l-15.5-5.7l-71.4-239.3l94.5-9.9L1312.3,901.5z" style="fill: rgb(22, 0, 69);"/><g id="Accent-Bottom_Basic_Gauntlet_Left_M" style="fill: rgb(22, 0, 69);"><path d="M1172.5,939.1l-20.9,6.9l10.3,31.1l20.9-6.9L1172.5,939.1z"/><path d="M1190.3,993.6l-20.9,6.9l10.3,31.1l20.9-6.9L1190.3,993.6z"/><path d="M1208.8,1049.3l-20.9,6.9l10.3,31.1l20.9-6.9L1208.8,1049.3z"/></g><path id="Bottom_Basic_Gauntlet_Left_M" d="M1151.8,945.9l-7.7-23.7l65.6-51.1l70.3,235.4l-71.4,13.1l-28.7-88 l20.8-6.9l-10.3-31.1l-20.7,6.8l-7.6-23.3l20.9-6.9l-10.3-31.1L1151.8,945.9z M1208.8,1049.3l-21,6.9l10.2,31.1l21.1-7 L1208.8,1049.3z" style="fill: rgb(116, 99, 7);"/><g id="No-Device_Attachment_Basic_Gauntlet_Left_M" class="option" style="display: inherit;"></g></g></g></g><g id="RightGauntlets_Current"><g id="Right-Gauntlets_M"><g id="Basic_Gauntlet_Right_M" class="option" style="display: inherit;"><path id="Top-2_Basic_Gauntlet_Right_M" d="M62.4,1120L48,1096.8l41.3-195.3l6.9,23.6l-19.6,89l7.7,22.1L62.4,1120z" style="fill: rgb(116, 99, 7);"/><path id="Top-1_Basic_Gauntlet_Right_M" d="M89.2,901.5l6.9,23.6l-19.6,89l7.7,22.1L62.4,1120l9.5,15.3l-5,54.3 l16.7,4.3l22.5-81.7l15.5-5.7l71.4-239.3l-94.5-9.9L89.2,901.5z" style="fill: rgb(22, 0, 69);"/><g id="Accent-Bottom_Basic_Gauntlet_Right_M" style="fill: rgb(22, 0, 69);"><path d="M229,939.1l20.9,6.9l-10.3,31.1l-20.9-6.9L229,939.1z"/><path d="M211.3,993.6l20.9,6.9l-10.3,31.1l-20.9-6.9L211.3,993.6z"/><path d="M192.8,1049.3l20.9,6.9l-10.3,31.1l-20.9-6.9L192.8,1049.3z"/></g><path id="Bottom_Basic_Gauntlet_Right_M" d="M249.8,945.9l7.7-23.7l-65.6-51.1l-70.3,235.4l71.4,13.1l28.7-88 l-20.8-6.9l10.3-31.1l20.7,6.8l7.6-23.3l-20.8-6.9l10.3-31.1L249.8,945.9z M192.8,1049.3l21,6.9l-10.2,31.1l-21.1-7L192.8,1049.3 z" style="fill: rgb(116, 99, 7);"/><g id="No-Device_Attachment_Basic_Gauntlet_Right_M" class="option" style="display: inherit;"></g></g></g></g></g></g><g id="Helmet_M_Wrapper" transform="translate(550,35)"><g id="Helmet_Current" class="Nite"><g id="Left-Earcap_Nite" class="toggle"><g id="Ear-Cap_Left_Nite" style="fill: rgb(116, 99, 7);"><path d="M563.4,582.8l18.7-27.6l-18.7-190.9l-26.1-16.4L563.4,582.8z"/><path d="M544.3,415l21.6-22.4"/></g></g><g id="Right-Earcap_Nite" class="toggle"><g id="Ear-Cap_Right_Nite" style="fill: rgb(116, 99, 7);"><path d="M137.3,582.8l-18.7-27.6l18.7-190.9l26.1-16.4L137.3,582.8z"/><path d="M156.3,415l-21.6-22.4"/></g></g><g id="Helmet_Pieces_Nite"><g id="Face_Nite" style="fill: rgb(22, 0, 69);"><path d="M149.4,453.3c2.1,1,54,27.7,82.3,65.4c50.7,67.4,81.7,146.5,85,155.3c-17.5-1-32.1-2.7-38.8-5.4 c-31.4-12.3-119.9-68.2-119.9-68.2l-22.6-17.7L149.4,453.3"/><path d="M551.2,453.3c-2.1,1-54,27.7-82.3,65.4c-50.7,67.4-81.7,146.5-85,155.3c17.5-1,32.1-2.7,38.8-5.4 c31.4-12.3,119.9-68.2,119.9-68.2l22.6-17.7L551.2,453.3"/></g><g id="Cheeks_Nite" style="fill: rgb(116, 99, 7);"><path d="M149.4,453.3l5-46.3c0,0,57.6,34.6,77.1,52.8s46.8,46.2,53,72.6c8.4,35.8,33.5,142,33.5,142h-1.2l-0.2-0.3 l0.2,0c-3.4-8.8-34.3-88-85-155.3C204.2,482.2,154.4,455.8,149.4,453.3"/><path d="M551.2,453.3l-5-46.3c0,0-57.6,34.6-77.1,52.8s-46.8,46.2-53,72.6c-8.4,35.8-33.5,142-33.5,142h1.2l0.2-0.3 l-0.2,0c3.4-8.8,34.3-88,85-155.3C496.4,482.2,546.2,455.8,551.2,453.3"/></g><path id="Visor_Nite" d="M337.6,674.3l-24.2-236.2c0,0-43.8-3.9-63.9-7.7c-49.2-9.3-80.8-49.3-80.8-49.3 s55.7-5,83.8-2c75.8,8.1,84.8,42.9,97.7,55.8c12.9-12.9,21.9-47.8,97.7-55.8c28.1-3,83.8,2,83.8,2s-31.6,40-80.8,49.3 c-20.1,3.8-63.9,7.7-63.9,7.7L363,674.3H337.6" style="fill: rgb(0, 255, 242);"/><path id="Eyes_Nite" d="M350.3,363.6c0,0,69.8-0.5,98.7-2.3c30.7-2,91.7-5.1,91.7-5.1l5.5,50.8 c0,0-57.6,34.6-77.1,52.8s-46.8,46.2-53,72.6c-8.4,35.8-33.5,142-33.5,142H363l24.2-236.2c0,0,43.8-3.9,63.9-7.7 c49.2-9.3,80.8-49.3,80.8-49.3s-55.7-5-83.8-2c-75.8,8.1-84.8,42.9-97.7,55.8c-12.9-12.9-21.9-47.8-97.7-55.8 c-28.1-3-83.8,2-83.8,2s31.6,40,80.8,49.3c20.1,3.8,63.9,7.7,63.9,7.7l24.2,236.2H318c0,0-25.1-106.3-33.5-142 c-6.2-26.4-33.5-54.4-53-72.6S154.4,407,154.4,407l5.5-50.8c0,0,61,3.1,91.7,5.1C280.5,363.1,338.9,363.6,350.3,363.6" style="fill: rgb(22, 0, 69);"/><path id="Dome_Nite" d="M160.2,356.2h-0.3l0-1.2c0.7-99.4,84.5-180.1,188.4-182.1v0l1.2,0l0.7,0l0.7,0l1.2,0v0 c104,2,187.8,82.7,188.4,182.1l0,1.2l0,0c-4.3,0.2-61.9,3.2-91.5,5c-28.8,1.8-87.2,2.3-98.7,2.3c-11.5-0.1-69.8-0.5-98.7-2.3 C221.2,359.3,160.2,356.2,160.2,356.2z" style="fill: rgb(22, 0, 69);"/></g></g></g><g transform="translate(199, 588)" id="Shoulders_Current"><g id="LeftShoulder_Current"><g id="Left-Shoulder_M"><g id="Classic_Shoulder_Left_M" class="option" style="display: inherit;"><path id="Main_Shoulder_Classic_Left_M" d="M1042.4,116.3l-26.7,120.8l21.4,69.6l143,72.4l24-36.9L1042.4,116.3z" style="fill: rgb(116, 99, 7);"/><path id="Trauma-Plates_Shoulder_Classic_Left_M" d="M1034.3,236.4l17.7,57.7l121.7,61.6l20.6-31.6 l-137-191.8L1034.3,236.4z" class="toggle" style="fill: rgb(22, 0, 69);"/></g></g></g><g id="RightShoulder_Current"><g id="Right-Shoulder_M"><g id="Legacy-x3_Shoulder_Right_M" class="option" style="display: inherit;"><path id="Plate-3_Shoulder_Right_Legacy-x3_M" d="M330.5,180.8l77.7,79.6l-45.5,98.6l-102.4-5.4l-54.2,49.7 l-48.2-3.4L330.5,180.8z" style="fill: rgb(116, 99, 7);"/><path id="Plate-2_Shoulder_Right_Legacy-x3_M" d="M372.5,131.5l61.5,92.7l-63.1,88.4l-99.6-24.4L208.9,327 l-46.8-12.3L372.5,131.5z" style="fill: rgb(22, 0, 69);"/><path id="Plate-1_Shoulder_Right_Legacy-x3_M" d="M448.2,84.1l27.7,107.7l-88.6,62.8l-86-55.7l-71.7,16.1l-40.1-27 L448.2,84.1z" style="fill: rgb(116, 99, 7);"/></g></g></g></g><g id="Lower-Body_M_Wrapper" transform="translate(268,1340)"><g id="Knees_Current"><g id="LeftKnee_Current"><g id="Left-Knee_M"><g id="Basic_Knee_Left_M" class="option" style="display: inherit;"><g id="Knee_Basic-Knee_Left_M" style="fill: rgb(116, 99, 7);"><path d="M754.2,903.7l15.2-2.5c0,0,11.5,73.9,16.6,106.6c1.3,8.4-4.4,16.3-12.8,17.7l0,0L754.2,903.7z"/><path d="M768.9,898.2l8.7,54.8c11.1-6.3,39.2,5.3,48.4,38.2c16.8,60.4,31.5,74.3,84.2,68.8 c41-4.2,70.3-23.5,73.7-51.9c4.9-41.1,0-100.6-2.5-125.7c-0.3-3.1-1.9-6-4.4-7.9c-2.5-1.9-5.6-2.8-8.7-2.4 C923.9,877.9,768.9,898.2,768.9,898.2z"/><path d="M763.7,899l5.2-0.8l9.7,59.3l-5.2,0.8L763.7,899z"/></g></g></g></g><g id="RightKnee_Current"><g id="Right-Knee_M"><g id="Basic_Knee_Right_M" class="option" style="display: inherit;"><g id="Knee_Basic-Knee_Right_M" style="fill: rgb(116, 99, 7);"><path d="M511,903.7l-15.2-2.5c0,0-11.5,73.9-16.6,106.6c-1.3,8.4,4.4,16.3,12.8,17.7l0,0L511,903.7z"/><path d="M496.3,898.2l-8.7,54.8c-11.1-6.3-39.2,5.3-48.4,38.2c-16.8,60.4-31.5,74.3-84.2,68.8 c-41-4.2-70.3-23.5-73.7-51.9c-4.9-41.1,0-100.6,2.5-125.7c0.3-3.1,1.9-6,4.4-7.9c2.5-1.9,5.6-2.8,8.7-2.4 C341.3,877.9,496.3,898.2,496.3,898.2z"/><path d="M501.5,899l-5.2-0.8l-9.7,59.3l5.2,0.8L501.5,899z"/></g></g></g></g></g><g id="Shins_Current"><g id="LeftShin_Current"><g id="Left-Shin_M"><g id="Legacy_Shin_Left_M" class="option" style="display: inherit;"><path id="Plate-3_Legacy-Shin_Left_M" d="M858.7,1317.1l43.6,164c0,0,52.2,10.3,80.3,7c28.1-3.3,65.7-18.4,65.7-18.4 l-16.4-176.4l-75.2,46.7L858.7,1317.1" style="fill: rgb(22, 0, 69);"/><path id="Plate-2_Legacy-Shin_Left_M" d="M826.2,1215.9l25.4,99.5l105.2,24.5l81.7-50.7l-8.1-100.4l-91.7,47.2 L826.2,1215.9" style="fill: rgb(116, 99, 7);"/><path id="Plate-1_Legacy-Shin_Left_M" d="M864.4,1075.9l-63.4,69.6l18,69.1l119.7,21.3l98.1-50.5l-6.5-85l-77.2-37.3 L864.4,1075.9" style="fill: rgb(22, 0, 69);"/></g></g></g><g id="RightShin_Current"><g id="Right-Shin_M"><g id="Pockets_Shin_Right_M" class="option" style="display: inherit;"><g id="Accent-2_Pockets-Shin_Right_M" style="fill: rgb(0, 0, 0);"><path d="M300.9,1164.6c-3.4-6.2-7.5-6.1-12-1.1l-10.3,115.5l12,1.1L300.9,1164.6"/><path d="M370.8,1183.6c-4.6-5.8-9.5-6.2-14.7-1.3l-11.9,133.8l14.7,1.3L370.8,1183.6"/></g><g id="Accent-1_Pockets-Shin_Right_M" style="fill: rgb(255, 0, 0);"><path d="M322.3,1144.6c-4.1-6.8-9-6.8-14.7-1.3l-11.9,133.8l14.7,1.3L322.3,1144.6"/><path d="M388.8,1192.6c-4.4-7.3-9.2-7.9-14.7-1.3l-11.9,133.8l14.7,1.3L388.8,1192.6"/></g><g id="Shin_Pockets-Shin_Right_M" style="fill: rgb(78, 39, 5);"><path d="M341.4,1199c-24.9,3.5-48.9,1.5-72-5.8l-19.1,238c24,8.9,38,11.1,62,5.8L341.4,1199"/><path d="M406.7,1204.2c-22.7,4.6-44.4,2.6-65.4-5.2l-29.1,238c20.9,9.1,39.7,10.4,62.4,5.2L406.7,1204.2"/></g></g></g></g></g><g id="Ankles_Current"><g id="LeftAnkle_Current"><g id="Left-Ankle_M"><g id="Basic_Ankle_Left_M" class="option" style="display: inherit;"><path id="Main_Basic-Ankle_Left_M" d="M1136.9,1658.4l-83.1-146.4c-49.1-2.6-95.2,5.6-137.9,25.6 c-4.1,1.9-7.1,5.5-8.5,9.8c-0.9,2.8-1.9,6.2-3.1,9.8c-5,15.8-0.4,33.1,11.6,44.4c25.5,24,69.9,63.2,97,72.5 C1074.7,1695.3,1136.9,1658.4,1136.9,1658.4" style="fill: rgb(116, 99, 7);"/><path id="Trauma-Plate_Basic-Ankle_Left_M" d="M1064,1530c-40.9-0.7-101.8,7.2-137.7,23.8l-3.6,11.5 c-2.4,7.6-0.2,15.8,5.8,21.5c23.4,22.1,65.6,60.8,91.5,69.8c34.8,12,87.3-7,107.3-15.2L1064,1530" class="toggle" style="fill: rgb(22, 0, 69);"/></g></g></g><g id="RightAnkle_Current"><g id="Right-Ankle_M"><g id="Basic_Ankle_Right_M" class="option" style="display: inherit;"><path id="Main_Basic-Ankle_Right_M" d="M128.1,1658.4l83.1-146.4c49.1-2.6,95.2,5.6,137.9,25.6 c4.1,1.9,7.1,5.5,8.5,9.8c0.9,2.8,1.9,6.2,3.1,9.8c5,15.8,0.4,33.1-11.6,44.4c-25.5,24-69.9,63.2-97,72.5 C190.3,1695.3,128.1,1658.4,128.1,1658.4" style="fill: rgb(116, 99, 7);"/><path id="Trauma-Plate_Basic-Ankle_Right_M" d="M201,1530c40.9-0.7,101.8,7.2,137.7,23.8l3.6,11.5 c2.4,7.6,0.2,15.8-5.8,21.5c-23.4,22.1-65.6,60.8-91.5,69.8c-34.8,12-87.3-7-107.3-15.2L201,1530" class="toggle" style="fill: rgb(22, 0, 69);"/></g></g></g></g><g id="Toes_Current"><g id="LeftToe_Current"><g id="Left-Toe_M"><g id="Spikes_Toe_Left_M" class="option" style="display: inherit; fill: rgb(163, 163, 163);"><path d="M1133.5,1767.1c31.4-5.5,63.1-13.1,95.1-22.7c1.5-0.5,3.1-0.2,4.4,0.7c1.3,0.9,2,2.4,2.1,4 c0.1,3.6,0.2,7.9,0.3,10.8c0.1,2-1.1,3.9-3,4.8c-24.8,10.7-56.3,17.9-92.8,22.4c-1.4,0.2-2.8-0.3-3.9-1.2 c-1.1-0.9-1.7-2.3-1.8-3.7C1133.7,1776.2,1133.5,1767.1,1133.5,1767.1"/><path d="M1184.7,1787.9c0,0-27.2-3.1-39.4-4.4c-2-0.2-3.8-1.2-5-2.8c-1.2-1.6-1.8-3.6-1.5-5.5 c0.7-5.3,4.5-7.9,11.5-7.7c2.2,0,4.4,0.7,6.3,1.9C1163.8,1774.2,1184.7,1787.9,1184.7,1787.9"/><path d="M1259.2,1766.1c0,0-24.4-2.1-35.4-3.1c-1.9-0.2-3.6-1.2-4.6-2.7c-1.1-1.6-1.4-3.5-0.9-5.3 c1-3.7,4.1-5.5,9.5-5.4c1.8,0,3.5,0.5,5.1,1.4C1239.3,1754.7,1259.2,1766.1,1259.2,1766.1"/></g></g></g><g id="RightToe_Current"><g id="Right-Toe_M"><g id="Spikes_Toe_Right_M" class="option" style="display: inherit; fill: rgb(163, 163, 163);"><path d="M131.5,1767.1c-31.4-5.5-63.1-13.1-95.1-22.7c-1.5-0.5-3.1-0.2-4.4,0.7c-1.3,0.9-2,2.4-2.1,4 c-0.1,3.6-0.2,7.9-0.3,10.8c-0.1,2,1.1,3.9,3,4.8c24.8,10.7,56.3,17.9,92.8,22.4c1.4,0.2,2.8-0.3,3.9-1.2 c1.1-0.9,1.7-2.3,1.8-3.7C131.3,1776.2,131.5,1767.1,131.5,1767.1"/><path d="M80.3,1787.9c0,0,27.2-3.1,39.4-4.4c2-0.2,3.8-1.2,5-2.8c1.2-1.6,1.8-3.6,1.5-5.5c-0.7-5.3-4.5-7.9-11.5-7.7 c-2.2,0-4.4,0.7-6.3,1.9C101.2,1774.2,80.3,1787.9,80.3,1787.9"/><path d="M5.8,1766.1c0,0,24.5-2.1,35.4-3.1c1.9-0.2,3.6-1.2,4.6-2.7c1.1-1.6,1.4-3.5,0.9-5.3c-1-3.7-4.1-5.5-9.5-5.4 c-1.8,0-3.5,0.5-5.1,1.4C25.7,1754.7,5.8,1766.1,5.8,1766.1"/></g></g></g></g><g id="Thighs_Current"><g id="LeftThigh_Current"><g id="Left-Thigh_M"><g id="Basic_Thigh_Left_M" class="option" style="display: inherit;"><path id="Thigh_Basic-Thigh_Left_M" d="M1006.3,442.8c0,0-53.3-68.5-80.5-79.9c-25.8-10.8-60.3-6.1-82.5,11.6 c-33.8,27.1-111.4,85.7-120.2,151c-9.8,72.9,43.2,234.1,61.3,286.1c6.1,17.7,29.3,25.7,47,26.4c32.8,1.2,122.6-1.6,144.1-50 C1004.6,722.2,1006.3,442.8,1006.3,442.8" style="fill: rgb(116, 99, 7);"/><path id="Trauma-Plate_Basic-Thigh_Left_M" d="M988.3,449c-8-9.9-27.1-33.1-45.5-50.9 c-8.8-8.5-17.2-15.8-23.8-18.6c-20.1-8.4-47-4.8-64.3,9.1c-19.6,15.7-54.6,42.3-81.2,74.8c-16.1,19.7-29.4,41.6-32.5,64.5 c-9.5,70.8,42.9,227.2,60.4,277.8c1.5,4.4,5.7,7.2,10.1,9.3c6.5,3.2,14.1,4.7,20.6,5c18.4,0.7,55.9,0.2,87.2-10.2 c17.3-5.7,33.1-14.1,39.7-29.1c8.3-18.7,13.8-55.7,18.1-98.1C986.2,592,988,477,988.3,449" class="toggle" style="fill: rgb(22, 0, 69);"/><g id="Ridge_Basic-Thigh_Left_M" class="toggle" style="fill: rgb(116, 99, 7);"><path d="M916.4,357.2l-36.8-9.5L841,369l12.5,469.2c25.4,4.9,25.8,5.9,48.1-0.8L916.4,357.2"/><path d="M879.9,347.8l-1,494.3"/></g></g></g></g><g id="RightThigh_Current"><g id="Right-Thigh_M"><g id="Heavy_Thigh_Right_M" class="option" style="display: inherit;"><g id="Thigh_Heavy-Thigh_Right_M" style="fill: rgb(22, 0, 69);"><path d="M498.3,469.6l61.2,78.1l-70,279.8L442,844.4l33.1-318.9L498.3,469.6"/><path d="M341.9,453.4l-76,63.8l11,288.2l43.1,26.4l33.1-318.9L341.9,453.4"/><path d="M341.9,453.4l156.4,16.3l-23.2,55.8l-122-12.7L341.9,453.4"/><path d="M353.1,512.8l122,12.7L442,844.4l-122-12.7L353.1,512.8"/></g><g id="Trim_Heavy-Thigh_Right_M" style="fill: rgb(116, 99, 7);"><path d="M335.8,428.9l173.6,18l-11,22.7l-156.4-16.3L335.8,428.9"/><path d="M268.9,489.8l66.8-61l6.1,24.5l-76,63.8L268.9,489.8"/><path d="M562.2,520.3l-52.9-73.4l-11,22.7l61.2,78.1L562.2,520.3"/></g></g></g></g></g><g id="Groin_Current"><g id="Groin_M"><g id="Basic_Groin_M" class="option" style="display: inherit;"><path id="Groin-Plate_Basic_M" d="M566.1,514.1L455.3,270.1h354.3L698.8,514.1l-66.4,58.2L566.1,514.1z" style="fill: rgb(116, 99, 7);"/></g></g></g><g id="Waist_Current" class="M"><g id="Accessories_Waist_M"><g id="Loin-Cloth_M" class="toggle" style=""><g id="Clean_Loin-Cloth_M" class="option" style="display: inherit;"><path id="Trim_Loin-Cloth-Clean" d="M766.8,140.8h-268v477.1l134,134l134-134V140.8z" style="fill: rgb(116, 99, 7);"/><path id="Main_Loin-Cloth-Clean" d="M749.6,191H515.9v415.9l116.8,116.8l116.8-116.8V191z" style="fill: rgb(0, 0, 0);"/></g></g><g id="Right-Holster_M" class="toggle" style=""><g id="Hanging-Holster_Right_M" class="option" style="display: inherit;"><g id="Weapon_Hanging-Holster-Right_M"><g id="Main_Weapon_Hanging-Holster-Right_M" style="fill: rgb(0, 0, 0);"><path d="M291.6,518l-1.8-38.4l-6.6,0.3l-1.1-24.1l6.6-0.3l-0.6-12.6c-0.2-4.1-5.8-7.1-12.5-6.8 c-15.4,0.7-41.6,1.9-57,2.6c-6.7,0.3-12,3.9-11.8,7.9l0.6,12.6l6.6-0.3l1.1,24.1l-6.6,0.3l1.8,38.4l15.5-0.7l4.9,106.2 l50.2-2.3l-4.9-106.2L291.6,518z"/><path d="M216.7,515.8l8.9-0.4l5.9,127.7l50.2-2.3l-5.9-127.7l8.9-0.4l-1.3-29.1l-68.1,3.1L216.7,515.8z"/><path d="M227.4,446.7l40.3-1.9l1.8,39.4l-40.3,1.9L227.4,446.7z"/><path d="M264.8,525.1l6.6-0.3l4.6,100.4l-6.6,0.3L264.8,525.1z"/><path d="M246.9,503l6.6-0.3l4.6,100.4l-6.6,0.3L246.9,503z"/><path d="M231.1,526.7l6.6-0.3l4.6,100.4l-6.6,0.3L231.1,526.7z"/></g><g id="Accent_Weapon_Hanging-Holster-Right_M" style="fill: rgb(163, 163, 163);"><path d="M263.8,488.5l0.2,4l-28.4,1.3l-0.2-4L263.8,488.5z"/><path d="M263.9,492.5l0.2,4l-28.4,1.3l-0.2-4L263.9,492.5z"/><path d="M263.6,484.5l0.2,4l-28.4,1.3l-0.2-4L263.6,484.5z"/><path d="M261.3,435l0.2,4l-28.4,1.3l-0.2-4L261.3,435z"/><path d="M261.1,445.1l6.6-0.3l1.8,39.4l-6.6,0.3L261.1,445.1z"/><path d="M227.4,446.7l6.6-0.3l1.8,39.4l-6.6,0.3L227.4,446.7z"/><path d="M237.7,526.4l10-0.5l4.6,100.4l-10,0.5L237.7,526.4z"/><path d="M254.7,525.6l10-0.5l4.6,100.4l-10,0.5L254.7,525.6z"/></g></g><path id="Holster_Hanging-Holster-Right_M" d="M291.2,666l8.1-161.7L224.6,626l16.5,220c17.4,18.3,34.6,18.4,51.4-2 L291.2,666z" style="fill: rgb(78, 39, 5);"/><g id="Straps_Hanging-Holster-Right_M" style="fill: rgb(0, 0, 0);"><path d="M577,243.4c-81.7,117.2-164,216.5-277.7,260.9l-1.4,27.7c141.4-59.6,217.2-160.6,300.8-288.6H577z"/><path d="M291.6,698.9c76.4,58.5,159,90.4,258,95.7l-7,21.9c-85.6-7.8-165.5-39.5-251-94.5V698.9z"/><path d="M291.6,722l-0.2-23.1c-19.9,8.8-43,9.5-61.2,3l1.8,23.6C251.6,730.5,273.9,730.8,291.6,722z"/></g><g id="Buckle_Hanging-Holster-Right_M" style="fill: rgb(116, 99, 7);"><path d="M470.3,793.4L481,795l-0.5,3.5l-10.7-1.6L470.3,793.4"/><path d="M499.5,361.8l7.4-9.8l2.8,2.1l-7.4,9.8L499.5,361.8"/><path d="M502.4,364l12.1,9.8l28.6-35.3l-27.6-22.3L487,351.5l12.6,10.2l6.1-8.1l-6.2-5l15.8-19.5l15.2,12.3 l-15.8,19.5l-6.2-5.1L502.4,364"/><path d="M470.7,793.5l8.5,1.3l1.2-8.3l20.6,4.4l-2.9,19.3l-20.6-4.4l1.1-7.5l-8.5-1.3l-2.2,14.8l37.3,8l5.2-35 l-37.3-8L470.7,793.5"/></g></g></g></g><g id="Under-Belt_M"><g id="Girth-Belt_M" class="option" style="display: inherit; fill: rgb(78, 39, 5);"><path d="M632.4,115.8c-98.8,0-296.5-24-296.5-24l6.4-20.3c0,0,192.8,16,290.1,24c96.8-8,290.1-24,290.1-24l6.4,20.3 C929,91.8,731.3,115.8,632.4,115.8z"/><path d="M632.4,136.1c-100.9,0-302.7-24-302.7-24l6.2-20.3c0,0,247.1,20,296.5,24c49.4-4,296.5-24,296.5-24l6.2,20.3 C935.1,112.1,733.3,136.1,632.4,136.1z"/><path d="M632.4,156.5c-102.4,0-307.3-24-307.3-24l4.6-20.3c0,0,252.3,20,302.7,24c50.5-4,302.7-24,302.7-24l4.6,20.3 C939.7,132.5,734.9,156.5,632.4,156.5z"/><path d="M632.4,176.8c-103.7,0-311.2-24-311.2-24l3.9-20.3c0,0,256.1,20,307.3,24c51.2-4,307.3-24,307.3-24l3.9,20.3 C943.6,152.8,736.2,176.8,632.4,176.8z"/><path d="M632.4,197.1c-104.9,0-314.7-24-314.7-24l3.5-20.3c0,0,259.3,20,311.2,24c51.9-4,311.2-24,311.2-24l3.5,20.3 C947.1,173.1,737.3,197.1,632.4,197.1z"/><path d="M632.4,217.5c-106,0-318-24-318-24l3.3-20.3c0,0,262.2,20,314.7,24c52.4-4,314.7-24,314.7-24l3.3,20.3 C950.4,193.5,738.4,217.5,632.4,217.5z"/><path d="M632.4,237.8c-107.1,0-321.2-24-321.2-24l3.3-20.3c0,0,265,20,318,24c53-4,318-24,318-24l3.3,20.3 C953.7,213.8,739.5,237.8,632.4,237.8z"/><path d="M632.4,258.1c-108.2,0-324.6-24-324.6-24l3.4-20.3c0,0,267.7,20,321.2,24c53.5-4,321.2-24,321.2-24l3.3,20.3 C957,234.1,740.6,258.1,632.4,258.1z"/><path d="M632.4,278.5c-109.4,0-328.2-24-328.2-24l3.7-20.3c0,0,270.5,20,324.6,24c54.1-4,324.6-24,324.6-24l3.7,20.3 C960.7,254.5,741.8,278.5,632.4,278.5z"/><path d="M632.4,298.8c-110.8,0-332.4-24-332.4-24l4.2-20.3c0,0,273.5,20,328.2,24c54.7-4,328.2-24,328.2-24l4.2,20.3 C964.8,274.8,743.2,298.8,632.4,298.8z"/></g></g><g id="Belt_M"><g id="Pouch-Belt-4_M" class="option" style="display: inherit;"><path id="Main_Pouch-Belt-4_M" d="M953.4,201.3c-72.3,6.5-237.4,30.1-320.8,30.1c-84.2,0-249.3-23.8-320.7-30.1 l10.7-84.6C381.2,122,551.1,146,632.6,146c79.1,0,245.5-23.8,308.1-29.5L953.4,201.3z" style="fill: rgb(0, 0, 0);"/><rect id="Buckle_Pouch-Belt-4_M" x="573.5" y="137.9" width="119.5" height="98.1" style="fill: rgb(116, 99, 7);"/><g id="Pouches_Pouch-Belt-4_M" style="fill: rgb(78, 39, 5);"><g><g><path d="M364.6,100.2c-3.3-0.2-6.6,0.4-9.7,1.7c-7.1,3.1-19.7,8.6-19.7,8.6l78.2,4.5l21.2-10.1 C434.6,104.9,381.4,101.3,364.6,100.2z"/><path d="M437.3,107.9c0.1-0.9-0.3-1.8-1.1-2.4c-0.8-0.5-1.7-0.6-2.6-0.2c-7,3.3-20.3,9.6-20.3,9.6l-10.8,132.4 c6.9-4.4,13.7-7.3,20.5-9c4.2-1,7.2-4.7,7.3-8.9C431.7,188.8,433.4,148.3,437.3,107.9z"/><path d="M413.4,115l-78.2-4.5c-0.6,20.1-2.4,40.2-3.5,60.3c-1.1,22.2-1.7,44.5-3.6,66.9c-0.1,1.6,0.4,3.2,1.5,4.4 c1.1,1.2,2.7,1.9,4.3,1.8c22.1-0.2,44,1.1,65.9,3.8c1.5,0.2,3.1-0.3,4.3-1.2c1.2-1,1.9-2.4,2-3.9c1.1-15.7,3.9-56.9,3.9-56.9 L413.4,115z"/><path d="M413.4,115l-78.2-4.5c0,0-2,17.1-3.8,33.6c-0.9,8,1.5,16,6.7,22.2c5.2,6.2,12.7,9.9,20.7,10.4 c7.7,0.4,15.9,0.9,23.6,1.4c8.1,0.5,16-2.4,21.8-8c5.9-5.5,9.2-13.3,9.2-21.3C413.4,132.1,413.4,115,413.4,115z"/><path d="M371.5,161.7c2.8,0.2,4.9,2.8,4.7,5.8c-0.2,3-2.6,5.4-5.3,5.2c-2.8-0.2-4.9-2.8-4.7-5.8 C366.4,163.8,368.8,161.5,371.5,161.7z"/></g></g><g><path d="M285.7,109l5.8-9.1l30,1l3.7,11.3L285.7,109z"/><path d="M325.1,113.3c0.1-0.7-0.1-1.4-0.6-2c-0.5-0.5-1.1-0.9-1.9-0.9c-9-0.3-36.9-1.4-36.9-1.4L280.4,228 c1.2,3,16.3,4.9,28.4,5.2c5.3,0.1,9.7-4.1,9.8-9.3C319.5,187,320.8,150,325.1,113.3z"/></g><g><g><path d="M900.7,100.2c3.3-0.2,6.6,0.4,9.7,1.7c7.1,3.1,19.7,8.6,19.7,8.6l-78.2,4.5l-21.2-10.1 C830.6,104.9,883.8,101.3,900.7,100.2z"/><path d="M827.9,107.9c-0.1-0.9,0.3-1.8,1.1-2.4c0.8-0.5,1.7-0.6,2.6-0.2c7,3.3,20.3,9.6,20.3,9.6l10.8,132.4 c-6.9-4.4-13.7-7.3-20.5-9c-4.2-1-7.2-4.7-7.3-8.9C833.5,188.8,831.8,148.3,827.9,107.9z"/><path d="M851.9,115l78.2-4.5c0.6,20.1,2.4,40.2,3.5,60.3c1.1,22.2,1.7,44.5,3.6,66.9c0.1,1.6-0.4,3.2-1.5,4.4 c-1.1,1.2-2.7,1.9-4.3,1.8c-22.1-0.2-44,1.1-65.9,3.8c-1.5,0.2-3.1-0.3-4.3-1.2c-1.2-1-1.9-2.4-2-3.9 c-1.1-15.7-3.9-56.9-3.9-56.9L851.9,115z"/><path d="M851.9,115l78.2-4.5c0,0,2,17.1,3.8,33.6c0.9,8-1.5,16-6.7,22.2c-5.2,6.2-12.7,9.9-20.7,10.4 c-7.7,0.4-15.9,0.9-23.6,1.4c-8.1,0.5-16-2.4-21.8-8c-5.9-5.5-9.2-13.3-9.2-21.3C851.8,132.1,851.9,115,851.9,115z"/><path d="M893.7,161.7c-2.8,0.2-4.9,2.8-4.7,5.8c0.2,3,2.6,5.4,5.3,5.2c2.8-0.2,4.9-2.8,4.7-5.8 C898.8,163.8,896.4,161.5,893.7,161.7z"/></g></g><g><path d="M979.5,109l-5.8-9.1l-30,1l-3.7,11.3L979.5,109z"/><path d="M940.1,113.3c-0.1-0.7,0.1-1.4,0.6-2c0.5-0.5,1.1-0.9,1.9-0.9c9-0.3,36.9-1.4,36.9-1.4l5.3,119.1 c-1.2,3-16.3,4.9-28.4,5.2c-5.3,0.1-9.7-4.1-9.8-9.3C945.7,187,944.4,150,940.1,113.3z"/></g></g></g></g></g></g><g id="Helmet_M_Wrapper" transform="translate(550,35)"><g id="Helmet_Current"/></g><g id="Shoulders_Current" transform="translate(199,588)"><g id="LeftShoulder_Current"/><g id="RightShoulder_Current"/></g><g id="Front_M" transform="translate(0,550)"><g id="Cape_M"></g></g></svg>
