<svg id="Male-Body" viewBox="0 0 1800 3300" version="1.1" xmlns="http://www.w3.org/2000/svg" style="stroke:black;stroke-width:2px;fill-rule:evenodd;height:100%;"><g id="Back_M" transform="translate(0,560)"><g id="Cape_M"><path id="Torn-Full-Cape_Back_M" d="M724.6,148.9c-124.5,47-263.2,273.6-280.3,445.9c-10.8,108.7-63.8,219.2-58.9,327.4 c5,109.8-50.3,223.6-54.4,333.3c-3.7,98.8-32.8,144-49.7,241.7c-25.3,146.2-53.3,242.6-76,388.9c-18.1,116.3-72.6,212.5-98.3,248.8 c-1,1.3,26.1-12.5,59.6-13.1c9.8-0.2,58.5-71.8,58.5-71.8s60.7,50.6,73.2,79.1c16.4-10.4,28.9-161.8,47.6-167.7 c9.8-3.1,27.8,190.1,27.8,190.1s29.2-57.2,40.4-57.4c24-0.5,67.9,21.5,92.5,24.1c26.1,2.8,53-40.5,81.6-33.4 c44,10.8,87.6,9.9,131.4,15.6c30.9,4,61.9,64.3,93,64.2c38.3-0.1,32.9-89.9,72.1-98.6c33.6-7.4,79.3,72.7,79.3,72.7 s10.6-265.9,43.7-276.8c43.4-14.2,206.6,200.1,252,195.9c13.4-1.2,30.7-135.6,43.9-135.4c28.8,0.6,53.3,138.4,81.7,143.8 c35.6,6.8,52.8-59.9,87.9-51.2c9.9,2.5,37.8,80.9,47.7,83.2c21.7,5.1,51.7,17.9,74.2,16.5c0.6,0-7.2-52.1-8.3-57.7 c-5-24.9-13-49.3-23-73c-11.9-28.2-26.7-55.2-42.8-80.7c-75.2-119-49.3-249.6-63-390.3c-13.3-136.4,0.6-273.1-22.3-409.2 c-20.3-120.4-91.5-232.5-109.4-354c-20.9-142.6-69.6-295.3-112.6-433.8C1160.7,145.9,849.2,101.9,724.6,148.9z M759.9,1958.3 c-10,25.8-13.9,52.8-11.1,80.4c1.3,12.5,4.9,25.4,11.1,36.5c0.6,1.1,0.9,4.1,1.9,3.2C808.6,2036.7,759.9,1958.3,759.9,1958.3z M393.9,1700.3c-4.3,82.5-12,165.4-12,248c0,15.5,0.2,30.9,1.6,46.3c0.2,2.4,2.6,25.1,3.8,24.8c28-5.6,14.4-82.1,21-105.9 C431.3,1831.2,393.9,1700.3,393.9,1700.3z M1371.9,1986.3c-2.5,29.9,6.5,26.6,14.2,11.6c7.7-15,13.9-41.6,5.9-58.4L1371.9,1986.3z M1249.9,1726.3c-6.9,49.5,3.8,91.6,7.4,140.3c1.2,15.9,1.2,31.8,1.5,47.7c0.1,5.3,0.3,10.7,0.2,16c-0.1,2.7-2,10.1-0.1,8.2 c37.3-38.9,33.1-114,21.5-162.1L1249.9,1726.3z M803.9,1872.3c-0.4,12.7-0.2,25.9,1.5,38.5c3.4,25.5,17.7-14.6,17.9-24.7 c0.3-14-9.1-30.4-12.5-43.9L803.9,1872.3z" class="option" style="display: inherit; fill: rgb(14, 17, 14);"/></g></g><g id="Flight-Suit" transform="translate(260,575)"><g id="Soft-Parts_M"><g id="Suit_M"><g id="Neck-Seal_M"><g id="Standard-Neck-Seal_M" class="option" style="display: inherit; fill: rgb(15, 19, 14);"><path d="M785.8,54.9c0-9.6-9.8-17.3-21.9-17.3c0,0-82.7,9.1-124,9.1s-124-9.1-124-9.1c-12.1,0-21.9,7.8-21.9,17.3 c0,9.6,9.8,17.3,21.9,17.3c0,0,82.7,9.1,124,9.1s124-9.1,124-9.1C775.9,72.2,785.8,64.4,785.8,54.9z"/><path d="M793.2,75.1c0-10-10.3-18.2-23-18.2c0,0-86.9,9.6-130.3,9.6c-43.4,0-130.3-9.6-130.3-9.6 c-12.7,0-23,8.1-23,18.2s10.3,18.2,23,18.2c0,0,86.9,9.6,130.3,9.6c43.4,0,130.3-9.6,130.3-9.6C782.8,93.3,793.2,85.1,793.2,75.1 z"/><path d="M801.5,100.2c0-10.6-10.9-19.2-24.3-19.2c0,0-91.6,10.1-137.4,10.1S502.4,81.1,502.4,81.1 c-13.4,0-24.3,8.6-24.3,19.2s10.9,19.2,24.3,19.2c0,0,91.6,10.1,137.4,10.1s137.4-10.1,137.4-10.1 C790.7,119.4,801.5,110.8,801.5,100.2z"/><path d="M809.6,123.3c0-11.1-11.4-20.1-25.5-20.1c0,0-96.2,10.6-144.3,10.6c-48.1,0-144.3-10.6-144.3-10.6 c-14.1,0-25.5,9-25.5,20.1s11.4,20.1,25.5,20.1c0,0,96.2,10.6,144.3,10.6c48.1,0,144.3-10.6,144.3-10.6 C798.2,143.4,809.6,134.4,809.6,123.3z"/><path d="M817.7,145.9c0-8.4-12-15.2-26.7-15.2c0,0-100.8,8-151.1,8s-151.1-8-151.1-8c-14.7,0-26.7,6.8-26.7,15.2 c0,8.4,12,15.2,26.7,15.2c0,0,100.7,8,151.1,8s151.1-8,151.1-8C805.7,161.1,817.7,154.3,817.7,145.9z"/><path d="M817.7,171.2c0-8.4-12-15.2-26.7-15.2c0,0-100.8,8-151.1,8s-151.1-8-151.1-8c-14.7,0-26.7,6.8-26.7,15.2 c0,8.4,12,15.2,26.7,15.2c0,0,100.7,15.4,151.1,15.4S791,186.4,791,186.4C805.7,186.4,817.7,179.6,817.7,171.2z"/></g></g><g id="Flight-Suit_M" style="fill: rgb(11, 16, 11);"><path d="M516.6,1664.2l-15.7,92.9L384,2323.3c0,0-52.3,31.5-79.1,36.9c-26.8,5.4-81.9-4.7-81.9-4.7l40.8-458.5 l30.8-195.8l7-83.3c0,0-26.8-242.9-18.1-364c8.7-121.1,70.6-362.6,70.6-362.6l285.9,6.2l285.9-6.2c0,0,61.8,241.5,70.6,362.6 c8.7,121.1-18.1,364-18.1,364l7,83.3l30.8,195.8l40.8,458.5c0,0-56.4,12.7-83.2,7.3c-26.8-5.4-77.8-39.6-77.8-39.6l-116.9-566.3 l-15.7-92.9l-123.2-323.4L516.6,1664.2z"/><g><path d="M1110.7,436.8l127,444l11,228.9l-101.2,19.5l-64.2-215.5L938.7,551.9l7.3-165.8l24.5-39.6L1110.7,436.8z"/><path d="M169.3,436.6l139.9-90.1l24.5,39.6l5.5,171L196.7,913.8l-64.2,215.5l-101.2-19.5l11-228.9L169.3,436.6z"/></g></g></g><g id="Boots_M"><g id="Basic_Boots_M" class="option" style="display: inherit;"><g id="Main_Basic-Boot_M" style="fill: rgb(20, 25, 19);"><path d="M895.4,2286.4c15.5,0.2,34.4,9.9,48,12.2c14.6,2.5,30.5,2.2,46,0.7l6.3-0.7l0.2,0l0.8-0.1l2.1-0.3l3.2-0.4 l1.3-0.2c3.6-0.5,7.2-1.1,10.8-1.7l5.6-1.1l1.2-0.3l0.4-0.1l0.9-0.2l3.9-0.9l3.4-0.9l0.6-0.2c11.9-3.2,23.8-7.1,23.8-7.1 c3.5,15.5,5.3,33.2,11.9,47.6c10.5,22.7,10.1,32.5,27.6,49.7c12.1,11.8,43.2,32.5,57.6,41.5c6.1,3.8,12.6,6.7,19.2,9.2l0.6,0.2 c26.5,9.9,55.1,13.6,69.5,43c3.1,6.4,5.8,14.1,5.3,21.3c-0.7,9.3-10.8,10.6-18.6,12.8c-19.5,5.6-36.4,9.8-58.9,14.9 c-25.8,5.8-49,9.3-75.2,8.6c-19.5-0.6-36.1-1.3-53.3-11.7c-6.9-4.2-14-8.4-20-13.9c-13.4-12.3-22.1-25.1-39.4-32.5 c-12.5-5.3-25.3-9.7-38.5-12.8c-18.7-4.5-46-10.7-56-29.2c-3.9-13.9,0.1-20.7,1.4-32.6l0.6-5.1c1-7.8,2.4-15.7,2.8-24.1 c0.8-16.1-3.2-32-4.2-48.1c-0.6-9.1-1-18.2-1.2-27.3c0-1.5-0.8-8,0.6-8.6c2.1-0.8,4.3-1.3,6.5-1.5L895.4,2286.4z"/><path d="M384.9,2286.4c-15.5,0.2-34.4,9.9-48,12.2c-14.6,2.5-30.5,2.2-46,0.7l-6.3-0.7l-0.2,0l-0.8-0.1l-2.1-0.3 l-3.2-0.4l-1.3-0.2c-3.6-0.5-7.2-1.1-10.8-1.7l-5.6-1.1l-1.2-0.3l-0.4-0.1l-0.9-0.2l-3.9-0.9l-3.4-0.9l-0.6-0.2 c-11.9-3.2-23.8-7.1-23.8-7.1c-3.5,15.5-5.3,33.2-11.9,47.6c-10.5,22.7-10.1,32.5-27.6,49.7c-12.1,11.8-43.2,32.5-57.6,41.5 c-6.1,3.8-12.6,6.7-19.2,9.2l-0.6,0.2c-26.5,9.9-55.1,13.6-69.5,43c-3.1,6.4-5.8,14.1-5.3,21.3c0.7,9.3,10.8,10.6,18.6,12.8 c19.5,5.6,36.4,9.8,58.9,14.9c25.8,5.8,49,9.3,75.2,8.6c19.6-0.6,36.1-1.3,53.3-11.7c6.9-4.2,14-8.4,20-13.9 c13.4-12.3,22.1-25.1,39.4-32.5c12.5-5.3,25.3-9.7,38.5-12.8c18.7-4.5,46-10.7,56-29.2c3.9-13.9-0.1-20.7-1.4-32.6l-0.6-5.1 c-1-7.8-2.4-15.7-2.8-24.1c-0.8-16.1,3.2-32,4.2-48.1c0.6-9.1,1-18.2,1.2-27.3c0-1.5,0.8-8-0.6-8.6c-2.1-0.8-4.3-1.3-6.5-1.5 L384.9,2286.4z"/></g><g id="Bottom_Basic-Boot_M" style="fill: rgb(25, 30, 23);"><path d="M885.4,2433.9c5,9.2,14.3,15.4,24.7,19.8c9.5,4.8,20.6,6.8,31.3,9.4c1.4,0.3,2.9,0.7,4.3,1.1 c2.1,0.6,4.3,1.1,6.4,1.8c0.6,0.2,1.3,0.4,1.9,0.6l1.1,0.3c0.7,0.2,1.4,0.4,2,0.6c0.3,0.1,0.6,0.2,0.9,0.3 c1.2,0.4,2.3,0.7,3.4,1.1c0.4,0.1,0.8,0.3,1.2,0.4l0.6,0.2c1.8,0.6,3.5,1.3,5.3,1.9c0.4,0.1,0.8,0.3,1.1,0.4 c1.6,0.6,3.2,1.2,4.8,1.8l1.2,0.5c1,0.4,1.9,0.8,2.9,1.2c0.4,0.2,0.8,0.3,1.2,0.5c2.8,1.2,5.4,2.6,7.9,4l0.3,0.2 c0.2,0.1,0.4,0.2,0.6,0.3c0.8,0.5,1.5,1,2.2,1.5l0.5,0.3c0.2,0.1,0.3,0.2,0.5,0.3c0.7,0.5,1.5,1.1,2.2,1.6l0.6,0.5l0.9,0.8 c3,2.4,5.7,5,8.5,7.7l0.8,0.8c1.5,1.5,3,3,4.5,4.6c1.5,1.6,3.1,3.2,4.7,4.8c1.6,1.6,3.3,3.3,5.1,4.9l0.6,0.5 c0.5,0.5,1.1,0.9,1.6,1.4c0.1,0.1,0.2,0.2,0.3,0.2c0.9,0.7,1.8,1.4,2.7,2.1c0.6,0.5,1.2,0.9,1.8,1.4l0.3,0.2 c0.8,0.5,1.6,1.1,2.3,1.6c0.3,0.2,0.7,0.5,1,0.7c1.2,0.8,2.3,1.5,3.5,2.2c0.8,0.5,1.6,1,2.4,1.5l1,0.6l2.6,1.6l1.2,0.7l0.8,0.5 l0.8,0.5c1.2,0.6,2.4,1.3,3.6,1.8c0.6,0.3,1.1,0.5,1.7,0.8l0.6,0.3c3.6,1.6,7.2,2.8,10.8,3.7l0.7,0.2l0.8,0.2 c0.3,0.1,0.5,0.1,0.8,0.2c0.7,0.2,1.5,0.3,2.2,0.5c0.6,0.1,1.2,0.2,1.7,0.3l1.4,0.2l0.4,0.1c0.4,0.1,0.8,0.1,1.2,0.2 c0.6,0.1,1.3,0.2,1.9,0.3c0.9,0.1,1.8,0.2,2.7,0.3c0.2,0,0.5,0.1,0.7,0.1c2.3,0.2,4.6,0.4,6.9,0.5c1.3,0.1,2.6,0.1,3.9,0.2l1.1,0 c2.4,0.1,4.9,0.2,7.5,0.3c1.6,0,3.2,0.1,4.8,0.1c0.6,0,1.2,0,1.8,0c0.8,0,1.7,0,2.5,0c0.6,0,1.2,0,1.8,0l0.6,0 c3-0.1,5.9-0.2,8.8-0.3c0.4,0,0.8,0,1.2-0.1l1.2-0.1c0.4,0,0.8,0,1.1-0.1c4.3-0.3,8.6-0.7,12.8-1.2l1.2-0.1 c1.1-0.1,2.1-0.3,3.2-0.4c0.5-0.1,0.9-0.1,1.4-0.2l1.2-0.2c0.9-0.1,1.8-0.3,2.6-0.4c3.7-0.6,7.4-1.2,11.2-1.9 c0.8-0.2,1.7-0.3,2.5-0.5l1.1-0.2c0.4-0.1,0.8-0.2,1.2-0.2l1.2-0.2c0.4-0.1,0.8-0.2,1.2-0.2l0.8-0.2c0.9-0.2,1.8-0.4,2.7-0.6 l1.2-0.3c1.1-0.2,2.1-0.5,3.2-0.7c0.9-0.2,1.8-0.4,2.8-0.6l0.3-0.1c5.9-1.3,11.4-2.6,16.7-3.9l2-0.5c1.5-0.4,3-0.7,4.4-1.1 l1.8-0.5l0.8-0.2c2.1-0.5,4.1-1,6.2-1.5c1.2-0.3,2.5-0.6,3.7-0.9c3.6-0.9,7.1-1.8,10.6-2.8l1.6-0.4c0.6-0.2,1.2-0.3,1.8-0.5 l0.7-0.2c2.7-0.8,5.5-1.5,8.3-2.3l0.7-0.2l1-0.3l2.9-0.8l1-0.3l1.5-0.4l0.6-0.2l1.2-0.4l1-0.4l0.5-0.2l0.6-0.2l0.3-0.1l0.6-0.3 l0.5-0.3l0.3-0.1l0.5-0.3l0.6-0.4l0.6-0.4l0.6-0.4c0.9-0.7,1.7-1.6,2.3-2.6l0,0c0,0,5.2,7.7,5.6,21.2 c-11.7,17-48.8,22.6-100,29.4c-50.9,6.8-82.2,5.5-103.5-3.7c-21.3-9.1-58.6-52.6-85.3-54.9c-26.7-2.3-58.2-16.5-71.2-24.1 c-6.7-3.9-4.7-32-4.7-32L885.4,2433.9z"/><path d="M394.9,2433.9c-5,9.2-14.3,15.4-24.7,19.8c-9.5,4.8-20.6,6.8-31.3,9.4c-1.4,0.3-2.9,0.7-4.3,1.1 c-2.1,0.6-4.3,1.1-6.4,1.8c-0.6,0.2-1.3,0.4-1.9,0.6l-1.1,0.3c-0.7,0.2-1.4,0.4-2,0.6c-0.3,0.1-0.6,0.2-0.9,0.3 c-1.2,0.4-2.3,0.7-3.4,1.1c-0.4,0.1-0.8,0.3-1.2,0.4l-0.6,0.2c-1.8,0.6-3.5,1.3-5.3,1.9c-0.4,0.1-0.8,0.3-1.1,0.4 c-1.6,0.6-3.2,1.2-4.8,1.8l-1.2,0.5c-1,0.4-1.9,0.8-2.9,1.2c-0.4,0.2-0.8,0.3-1.2,0.5c-2.8,1.2-5.4,2.6-7.9,4l-0.3,0.2 c-0.2,0.1-0.4,0.2-0.6,0.3c-0.8,0.5-1.5,1-2.2,1.5l-0.5,0.3c-0.2,0.1-0.3,0.2-0.5,0.3c-0.7,0.5-1.5,1.1-2.2,1.6l-0.6,0.5l-1,0.8 c-3,2.4-5.8,5-8.5,7.7l-0.8,0.8c-1.5,1.5-3,3-4.5,4.6c-1.5,1.6-3.1,3.2-4.7,4.8c-1.6,1.6-3.3,3.3-5.1,4.9l-0.6,0.5 c-0.5,0.5-1.1,0.9-1.6,1.4c-0.1,0.1-0.2,0.2-0.3,0.2c-0.9,0.7-1.8,1.4-2.7,2.1c-0.6,0.5-1.2,0.9-1.8,1.4l-0.3,0.2 c-0.8,0.5-1.5,1.1-2.3,1.6c-0.3,0.2-0.7,0.5-1,0.7c-1.2,0.8-2.3,1.5-3.5,2.2c-0.8,0.5-1.6,1-2.4,1.5l-1,0.6l-2.6,1.6l-1.2,0.7 l-0.8,0.5l-0.8,0.5c-1.2,0.6-2.4,1.3-3.6,1.8c-0.6,0.3-1.1,0.5-1.7,0.8l-0.6,0.3c-3.6,1.6-7.2,2.8-10.8,3.7l-0.7,0.2l-0.8,0.2 c-0.3,0.1-0.5,0.1-0.8,0.2c-0.7,0.2-1.5,0.3-2.2,0.5c-0.6,0.1-1.2,0.2-1.7,0.3l-1.4,0.2l-0.4,0.1c-0.4,0.1-0.8,0.1-1.1,0.2 c-0.6,0.1-1.3,0.2-1.9,0.3c-0.9,0.1-1.8,0.2-2.7,0.3c-0.2,0-0.5,0.1-0.7,0.1c-2.3,0.2-4.6,0.4-6.9,0.5c-1.3,0.1-2.6,0.1-3.9,0.2 l-1.1,0c-2.4,0.1-4.9,0.2-7.5,0.3c-1.6,0-3.2,0.1-4.8,0.1c-0.6,0-1.2,0-1.8,0c-0.8,0-1.7,0-2.5,0c-0.6,0-1.2,0-1.8,0l-0.6,0 c-3-0.1-5.9-0.2-8.8-0.3c-0.4,0-0.8,0-1.2-0.1l-1.2-0.1c-0.4,0-0.7,0-1.1-0.1c-4.3-0.3-8.6-0.7-12.8-1.2l-1.2-0.1 c-1.1-0.1-2.1-0.3-3.2-0.4c-0.5-0.1-0.9-0.1-1.4-0.2l-1.2-0.2c-0.9-0.1-1.8-0.3-2.6-0.4c-3.7-0.6-7.4-1.2-11.2-1.9 c-0.8-0.2-1.7-0.3-2.5-0.5l-1.1-0.2c-0.4-0.1-0.8-0.2-1.2-0.2l-1.2-0.2c-0.4-0.1-0.8-0.2-1.2-0.2l-0.8-0.2 c-0.9-0.2-1.8-0.4-2.7-0.6l-1.2-0.3c-1.1-0.2-2.1-0.5-3.2-0.7c-0.9-0.2-1.9-0.4-2.8-0.6l-0.3-0.1c-5.9-1.3-11.4-2.6-16.7-3.9 l-2-0.5c-1.5-0.4-3-0.7-4.5-1.1l-1.8-0.5l-0.8-0.2c-2.1-0.5-4.1-1-6.2-1.5c-1.2-0.3-2.5-0.6-3.7-0.9c-3.6-0.9-7.1-1.8-10.6-2.8 l-1.6-0.4c-0.6-0.2-1.2-0.3-1.8-0.5l-0.7-0.2c-2.7-0.8-5.5-1.5-8.3-2.3l-0.6-0.2l-1-0.3l-2.9-0.8l-1-0.3l-1.5-0.4l-0.6-0.2 l-1.2-0.4l-1-0.4l-0.5-0.2l-0.6-0.2l-0.3-0.1l-0.6-0.3l-0.5-0.3l-0.3-0.1l-0.5-0.3l-0.6-0.4l-0.6-0.4l-0.6-0.4 c-0.9-0.7-1.7-1.6-2.3-2.6l0,0c0,0-5.2,7.7-5.6,21.2c11.7,17,48.8,22.6,100,29.4c50.9,6.8,82.2,5.5,103.5-3.7 c21.3-9.1,58.6-52.6,85.3-54.9c26.7-2.3,58.2-16.5,71.2-24.1c6.7-3.9,4.7-32,4.7-32L394.9,2433.9z"/></g><g id="Top_Basic-Boot_M" style="fill: rgb(25, 30, 23);"><path d="M1032.2,2291.6c7.1,34.7,18.1,65,41.2,94.2c36,45.6,97.5,49.3,140,86.3c10.9,9.5,10.4,24.8,12.2,38.8 c-17.6,5-33.1,8.9-52.9,13.4c-1.4-14,1.1-29.6-10.5-39.7c-42.5-37-109.4-35.6-145.4-81.1c-23.5-29.8-23.6-68.1-30.5-103.8 c1.1-0.1,2.1-0.2,3.2-0.3l6.3-0.7l0.2,0l0.8-0.1l2.1-0.3l3.2-0.4l1.3-0.2c3.6-0.5,7.2-1.1,10.8-1.7l5.6-1.1l1.2-0.3l0.4-0.1 l0.9-0.2l3.9-0.9l3.4-0.9l0.6-0.2C1030.6,2292,1031.4,2291.8,1032.2,2291.6z"/><path d="M248,2291.6c-7.1,34.7-18.1,65-41.2,94.2c-36,45.6-97.5,49.3-140,86.3c-10.9,9.5-10.4,24.8-12.1,38.8 c17.6,5,33.1,8.9,52.9,13.4c1.4-14-1.1-29.6,10.5-39.7c42.5-37,109.4-35.6,145.4-81.1c23.5-29.8,23.6-68.1,30.4-103.8 c-1.1-0.1-2.1-0.2-3.2-0.3l-6.3-0.7l-0.2,0l-0.8-0.1l-2.1-0.3l-3.2-0.4l-1.3-0.2c-3.6-0.5-7.2-1.1-10.8-1.7l-5.6-1.1l-1.2-0.3 l-0.4-0.1l-0.9-0.2l-3.9-0.9l-3.4-0.9l-0.6-0.2C249.7,2292,248.9,2291.8,248,2291.6z"/></g><g id="Side_Basic-Boot_M" style="fill: rgb(25, 30, 23);"><path d="M899.6,2286.6c14.6,1.6,31.4,9.9,43.8,11.9c0.7,0.1,1.4,0.2,2,0.3c0.2,4.4,0.1,8.7,0.2,12.6 c0.5,21.8-2.2,114.8-6.5,114.6c-4.3-0.2-16.7-2.4-19.9-5.8c-2.1-2.2-2.5-7.6-3.2-10.5c-2.2-9.2-4.2-18.5-5.6-27.9 c-1.9-12.6-3.3-25.1-4.3-37.8C904.7,2324.9,901.8,2305.7,899.6,2286.6z"/><path d="M380.7,2286.6c-14.6,1.6-31.4,9.9-43.8,11.9c-0.7,0.1-1.4,0.2-2,0.3c-0.2,4.4-0.1,8.7-0.2,12.6 c-0.5,21.8,2.2,114.8,6.5,114.6c4.3-0.2,16.7-2.4,19.9-5.8c2.1-2.2,2.5-7.6,3.2-10.5c2.2-9.2,4.2-18.5,5.6-27.9 c1.9-12.6,3.4-25.1,4.3-37.8C375.5,2324.9,378.4,2305.7,380.7,2286.6z"/></g></g></g><g id="Sleeves_M" class="toggle" style="fill: rgb(17, 23, 17);"><g><path d="M928.3,573.2l28.4,62.9c0,0,44.9-34.2,74.8-51.1c29.9-17,46.4-28,73.3-38.4c26.9-10.4,53.9-15.7,53.9-15.7 l-64.3-130.6l-61.4-103.1l-122.7,54.8L928.3,573.2z"/><path d="M943.2,606.4c-2.1-2.6,53.8-48,91.2-67.6c37.4-19.6,108.6-39.4,108.6-39.4"/></g><g><path d="M351.7,573.2l-28.4,62.9c0,0-44.9-34.2-74.8-51.1c-29.9-17-46.4-28-73.3-38.4c-26.9-10.4-53.9-15.7-53.9-15.7 l64.3-130.6l61.4-103.1l122.7,54.8L351.7,573.2z"/><path d="M336.8,606.4c2.1-2.6-53.8-48-91.2-67.6c-37.4-19.6-108.6-39.4-108.6-39.4"/></g></g><g id="Gloves_M"><g id="Left-Glove_M"><g id="Fingerless_Left_Glove_M" class="option" style="display: inherit;"><g id="Fingers_Fingerless_Left_Glove_M" style="fill: rgb(154, 107, 65);"><path d="M1208.1,1298.1c-5.7-0.3-11.1-0.2-16.8,1c-3.9,0.8-7.6,1.7-11.1,3.7c-10.5,6.1-7.6,19.3,1.7,24.3 c10.9,5.9,28.2,0.1,33.2-11.2C1217.3,1311.3,1210.9,1302.6,1208.1,1298.1"/><path d="M1188.9,1309.6c-5.7-0.3-11.1-0.2-16.8,1c-3.9,0.8-7.6,1.7-11.1,3.7c-10.5,6.1-7.6,19.3,1.7,24.3 c10.9,5.9,28.2,0.1,33.2-11.2C1198,1322.8,1191.7,1314.1,1188.9,1309.6"/><path d="M1175.3,1324.8c-5.7,0.5-12.8,1.8-18.3,3.7c-3.7,1.3-7.3,2.7-10.5,5.2c-9.6,7.4-5,20.1,5,23.8 c11.6,4.3,28-3.7,31.4-15.6C1184.4,1337.1,1175.3,1324.8,1175.3,1324.8z"/><path d="M1116.4,1252.3c-3.2,14.3-5.8,22-5.8,22s-14.6,29.8-12,36.6c2.5,6.8,15.4,12.9,22.8,9.3 c9.1-4.5,20.5-25.5,27.6-40.2c2.6-5.4,5.1-11.7,7.2-17.5C1126.9,1266.9,1116.4,1252.3,1116.4,1252.3L1116.4,1252.3z"/><path d="M1176.7,1322.6c-2.2,3.6-4.6,7.5-7.3,11.5c-14.5,21.8-36.6,40.6-22,57.2c13.7,15.6,44.8-25.3,44.8-25.3 l14.4-18.8C1182.7,1341.6,1176.7,1322.7,1176.7,1322.6z"/></g><path id="Glove_Fingerless_Left_Glove_M" d="M1206.7,1347.2l16-20.9c0,0,35-57.7,36.8-68.9 c1.4-8.5,0.2-37.1,0.2-37.1l-10.9-110.6l-55.5,4.6l-45.7,14.9l-3.4,18.9c0,0-16.5,22.9-20.8,39.4c-3,11.6-1.4,39.3-5.3,57.9 c-0.5,2.4-1,4.7-1.5,6.9h0c0,0,10.4,14.6,39.7,10.2c3.7-10.2,6.1-18.9,6.1-18.9s10,3.5,15.2,7.4c17.1,13.2,9.7,52.9,9.7,52.9 s-4,7.9-10.4,18.7C1176.7,1322.7,1182.7,1341.6,1206.7,1347.2z" style="fill: rgb(22, 22, 22);"/></g></g><g id="Right-Glove_M"><g id="Basic_Right_Glove_M" class="option" style="display: inherit; fill: rgb(53, 60, 68);"><path d="M71.9,1298.1c5.7-0.3,11.1-0.2,16.8,1c3.9,0.8,7.6,1.7,11.1,3.7c10.5,6.1,7.6,19.3-1.7,24.3 c-10.9,5.9-28.2,0.1-33.2-11.2C62.7,1311.3,69.1,1302.6,71.9,1298.1"/><path d="M91.1,1309.6c5.7-0.3,11.1-0.2,16.8,1c3.9,0.8,7.6,1.7,11.1,3.7c10.5,6.1,7.6,19.3-1.7,24.3 c-10.9,5.9-28.2,0.1-33.2-11.2C82,1322.8,88.4,1314.1,91.1,1309.6"/><path d="M104.9,1325.2c5.7,0.5,12.6,1.3,18,3.3c3.7,1.3,7.3,2.7,10.5,5.2c9.6,7.4,5,20.1-5,23.8 c-11.6,4.3-28-3.7-31.4-15.6C95.6,1337.1,104.9,1325.2,104.9,1325.2z"/><path d="M136,1148.2c0,0,16.5,22.9,20.9,39.4c3,11.6,1.4,39.3,5.3,57.9c3.8,18.6,7.3,28.9,7.3,28.9 s14.6,29.8,12,36.6c-2.5,6.8-15.4,12.9-22.7,9.3c-9.2-4.5-20.5-25.5-27.7-40.2c-7.3-15-13.3-36.4-13.3-36.4s-10,3.5-15.2,7.4 c-17.1,13.2-9.7,52.9-9.7,52.9s7,14.2,17.6,30.2c14.4,21.8,36.6,40.6,22,57.2c-13.7,15.6-44.8-25.3-44.8-25.3l-30.5-39.8 c0,0-35-57.7-36.8-68.9c-1.4-8.5-0.2-37.1-0.2-37.1l10.9-110.6l55.5,4.6l45.7,14.9L136,1148.2"/></g></g></g></g></g><g id="Biceps_Current" transform="translate(199,588)"><g id="LeftBiceps_Current"><g id="Left-Biceps_M"><g id="Basic_Biceps_Left_M" class="option" style="display: inherit;"><path id="Main_Basic_Biceps_Left_M" d="M1224.3,527.2c-12.1-29.3-65.9-157.6-65.9-157.6s-88.4,36.5-110.4,45.6 c-6.2,2.6-9.2,9.7-6.6,16c10.4,25.2,35.8,86.8,51.7,125.1c3.6,8.7,10.5,15.6,19.1,19.2c8.7,3.6,18.4,3.6,27.1,0 c26-10.7,60.8-25.1,78.4-32.4C1223.9,540.6,1226.8,533.4,1224.3,527.2z" style="fill: rgb(15, 20, 12);"/><path id="Strap_Basic_Biceps_Left_M" d="M1065,488l-62,25.6l-1.5,45.7l79.4-32.8L1065,488" style="fill: rgb(25, 30, 25);"/><path id="Trauma-Plate_Basic_Biceps_Left_M" d="M1223.9,521.1l-56.1-135.9l-107.6,44.4l49.4,119.8 c1.8,4.3,5.1,7.7,9.4,9.4c4.3,1.8,9.1,1.8,13.3,0L1223.9,521.1" class="toggle" style="fill: rgb(26, 36, 22);"/></g></g></g><g id="RightBiceps_Current"><g id="Right-Biceps_M"><g id="Full-Band_Biceps_Right_M" class="option" style="display: inherit;"><path id="Main_Full-Band_Biceps_Right_M" d="M392.7,613.3l9-24.8l-4.7-146.7c0,0-112.3-38.2-150.9-51.3 c-7.2-2.4-15,1.2-17.7,8.3c-14,36.8-53.5,140.6-53.5,140.6L392.7,613.3" style="fill: rgb(71, 80, 89);"/><g id="Trim_Full-Band_Biceps_Right_M" style="fill: rgb(57, 64, 71);"><path d="M221,492.8c-11.8,0-21.4,9.2-21.4,20.6c0,11.4,9.6,20.6,21.4,20.6s21.4-9.2,21.4-20.6 C242.4,502.1,232.8,492.8,221,492.8"/><path d="M174.8,539.5l-5,13.8c-1.4,3.8-1.2,8.1,0.6,11.8c1.8,3.7,5,6.5,8.8,7.8c40,13.5,150,50.6,189.2,63.8 c7.8,2.6,16.3-1.4,19.1-9.2l5.1-14.1L174.8,539.5"/></g></g></g></g></g><g id="Vest_Current" transform="translate(260,575)"><path id="Vest_M" d="M640,197.9c90.1-0.1,163.5-45.9,165.6-85.4l1.6,0.2l194.8,57.8l141.1,255.2l-30.3,12.4l-142.3-91.7 L946,386.1l-16.3,505.4c0,0-92.4,50.2-143.4,57c-36.5,4.8-91.5,7.2-146.2,7.1c-54.7,0.1-109.7-2.3-146.2-7.1 c-51-6.8-143.4-57-143.4-57L334,386.1l-24.5-39.6l-142.3,91.7l-30.3-12.4L278,170.5l194.8-57.8l1.6-0.2 C476.5,152.1,549.9,197.9,640,197.9" style="fill: rgb(11, 15, 11);"/></g><g id="Upper-Body_M_Wrapper" transform="translate(199,588)"><g id="Chest_Current" class="Heavy_M"><g id="Abdomen_Heavy_M"><g id="Under-Plates_Abdomen_Heavy_M" style="fill: rgb(9, 13, 10);"><rect x="582.9" y="714.9" width="236.2" height="30.2"/><rect x="582.9" y="745.1" width="236.2" height="30.2"/><rect x="582.9" y="775.3" width="236.2" height="30.2"/><rect x="582.9" y="805.5" width="236.2" height="30.2"/><rect x="582.9" y="835.6" width="236.2" height="30.2"/></g><g id="Abdomen-Plate_Heavy_M" style="fill: rgb(10, 17, 7);"><path d="M628.5,617.6l-117.7,50l-11.1-26.8l128.8-54.7V617.6z"/><path d="M552,767.8l-41.3-100.2l117.7-50L665.3,723L552,767.8z"/><path d="M499.7,640.8l-49.5,8.6l73,173.6l49.8-9.9L499.7,640.8z"/><path d="M773.5,617.6l117.7,50l11.1-26.8l-128.8-54.7V617.6z"/><path d="M850,767.8l41.3-100.2l-117.7-50L736.7,723L850,767.8z"/><path d="M902.3,640.8l49.5,8.6l-73,173.6l-49.8-9.9L902.3,640.8z"/><rect x="628.9" y="586.1" width="144.3" height="31.5"/><path d="M665.3,723l-36.9-105.4h145.1L736.7,723H665.3z"/></g></g><g id="Neck-Armor_Heavy_M"><g id="Neck-Plate_Heavy_M" style="fill: rgb(15, 25, 15);"><path d="M538.8,92.7l-102,22.4c0,0,11.8,46.3,18.4,72.1c2.4,9.4,11.8,15.2,21.3,13.1c18.5-4.1,47.9-10.5,66.8-14.7 c4.8-1,8.9-4,11.5-8.1c2.6-4.2,3.3-9.2,2.1-13.9C550.2,137.6,538.8,92.7,538.8,92.7z"/><path d="M863.2,92.7l102,22.4c0,0-11.8,46.3-18.4,72.1c-2.4,9.4-11.8,15.2-21.3,13.1c-18.5-4.1-47.9-10.5-66.8-14.7 c-4.8-1-8.9-4-11.5-8.1c-2.6-4.2-3.3-9.2-2.1-13.9C851.8,137.6,863.2,92.7,863.2,92.7z"/></g><g id="Secondary_Neck-Plate_Heavy_M" style="fill: rgb(27, 11, 11);"><path d="M513.4,94.6L462,105.8c0,0,7.8,30.5,11.7,45.7c1.2,4.7,5.9,7.5,10.6,6.5c9.3-2,24.3-5.3,33.9-7.4 c2.4-0.5,4.4-2,5.7-4c1.3-2.1,1.6-4.5,1-6.9C521,124.3,513.4,94.6,513.4,94.6z"/><path d="M888.6,94.6l51.3,11.3c0,0-7.8,30.5-11.7,45.7c-1.2,4.7-5.9,7.5-10.6,6.5c-9.3-2-24.3-5.3-33.9-7.4 c-2.4-0.5-4.4-2-5.7-4c-1.3-2.1-1.6-4.5-1-6.9C881,124.3,888.6,94.6,888.6,94.6z"/></g></g><g id="Full-Chest_Heavy_M"><path id="Under-Plate_Chest_Heavy_M" d="M759.2,550.4H642.8l-29.3,25.1v16.8l15.4-6.4h144.3l15.4,6.5v-17 L759.2,550.4z" style="fill: rgb(9, 13, 10);"/><g id="Chest-Plate_Heavy_M" style="fill: rgb(11, 20, 11);"><path d="M497.3,626.1l103.3-60l14-28.4l27.5,3.7h117.7l27.5-3.7l14,28.4l103.3,60l48,10.5l-1.2,17.6l-51.3-8.9 l-111.7-46.6v-23.1l-29.3-25.1H642.8l-29.3,25.1v23.1l-111.7,46.6l-51.3,8.9l-1.2-17.6L497.3,626.1z"/><path d="M952.7,636.6l59.8-153.6l8.8,31.5l-19,114.2L952.7,636.6z"/><path d="M380.7,514.5l8.8-31.5l59.8,153.6l-49.6-7.9L380.7,514.5z"/><path d="M447.6,423.2V359L442.7,244l29.8-33l90.2-18.8l23.3,27.4h229.9l23.3-27.4l90.2,18.8l29.8,33l-4.8,112.2 l-0.1-0.3v67.3l-167,114.5l-27.5,3.7H642.1l-27.5-3.7L447.6,423.2z"/><path d="M954.4,359v64.2l58.2,59.8L954.4,359z"/><path d="M614.6,537.7l-167-114.5L389.4,483l59.8,153.6l48-10.5l103.3-60L614.6,537.7z"/><path d="M1012.6,483l-59.8,153.6l-48-10.5l-103.3-60l-14-28.4l167-114.5L1012.6,483z"/><path d="M1002.4,628.7l-2,12.2l-48.8,13.3l1.2-17.6L1002.4,628.7z"/><path d="M447.6,359v64.2L389.4,483L447.6,359z"/><path d="M442.7,244c-0.6,59-7.6,118-24.2,177l29.1-62L442.7,244z"/><path d="M959.4,244c0.6,59,7.6,118,24.2,177l-29.1-62L959.4,244z"/><path d="M449.3,636.6l1.2,17.6L401.6,641l-2-12.2L449.3,636.6z"/></g><g id="Accents_Chest-Plate_Heavy_M" class="toggle"><g id="Accent-3_Accents_Chest-Plate_Heavy_M" style="fill: rgb(85, 0, 0);"><path d="M837.5,357.4l-6.1-19.1h27.9l-6.1,19.1H837.5z"/><path d="M837.5,394.4l-6.1-19.1h27.9l-6.1,19.1H837.5z"/><rect x="819.6" y="243.9" width="52.3" height="5.7"/><rect x="819.6" y="262.2" width="52.3" height="5.7"/></g><path id="Accent-2_Accents_Chest-Plate_Heavy_M" d="M545.2,190.2c-0.3-3.5-3.3-6.2-6.8-5.9 c-11.4,0.7-35.2,2.3-46.7,3c-1.7,0.1-3.3,0.9-4.4,2.2c-1.1,1.3-1.7,3-1.6,4.7c1.2,16.4,4.4,59.2,5.6,75.4 c0.3,3.5,3.3,6.2,6.8,5.9c11.4-0.7,35.2-2.3,46.7-3c1.7-0.1,3.3-0.9,4.4-2.2c1.1-1.3,1.7-3,1.6-4.7 C549.6,249.3,546.4,206.4,545.2,190.2z" style="fill: rgb(8, 14, 9);"/><g id="Accent-1_Accents_Chest-Plate_Heavy_M" style="fill: rgb(18, 27, 19);"><path d="M538.3,190.3l-45.9,3l5.7,76.1l45.9-3L538.3,190.3z"/><path d="M533.3,196.3l-35,2.3l0.8,10.9l35-2.3L533.3,196.3z"/><path d="M503.9,209.1l-4.8,0.3l4.5,59.7l4.8-0.3L503.9,209.1z"/><path d="M508.9,208.8l-4.8,0.3l4.5,59.7l4.8-0.3L508.9,208.8z"/><path d="M534.1,207.2l-4.8,0.3l4.5,59.7l4.8-0.3L534.1,207.2z"/><path d="M529.1,207.5l-4.8,0.3l4.5,59.7l4.8-0.3L529.1,207.5z"/><path d="M519,208.2l-4.8,0.3l4.5,59.7l4.8-0.3L519,208.2z"/><path d="M524,207.8l-4.8,0.3l4.5,59.7l4.8-0.3L524,207.8z"/><path d="M514,208.5l-4.8,0.3l4.5,59.7l4.8-0.3L514,208.5z"/></g></g></g><g id="Iron-Heart_Heavy_M"><path id="Heart_Heavy_M" d="M701,304.1l34.3,31.8v62.4L701,430.2l-34.3-31.8V336L701,304.1z" style="fill: rgb(9, 16, 8);"/><g id="Center_Heart_Heavy_M" class="option" style="display: inherit; fill: rgb(57, 1, 1);"><rect x="688.5" y="336.9" width="25" height="30.3"/><rect x="688.5" y="367.2" width="4.2" height="30.3"/><rect x="705.1" y="367.2" width="4.2" height="30.3"/><rect x="709.3" y="367.2" width="4.2" height="30.3"/><rect x="696.8" y="367.2" width="4.2" height="30.3"/><rect x="701" y="367.2" width="4.2" height="30.3"/><rect x="692.6" y="367.2" width="4.2" height="30.3"/></g></g></g><g id="Collar_Current"><g id="Collar_M" class="toggle" style=""><g id="Cloth-Wrap-Right_Collar_M" class="option" style="display: inherit;"><g id="Main_Cloth-Wrap-Right_Collar_M" style="fill: rgb(13, 16, 13);"><path d="M805.7,206c53-16.6,62.6-43.3,65.8-70.2c1.3-11-14.4-39.6,1.8-47c18.3-8.3,61.6,4.8,79.4,8.6 c13.2,2.8,25,6.1,38.5,6.3c31.2,0.4,56,21.2,58.7,36.8c3.9,21.8-34.6,29.7-52.7,46.2C952.2,228,936.5,284,841.6,299.3 c-43.5,7-86.7-2.9-127.1-11.9C610,264.1,553,244.1,485.9,192.2c-29.4-22.7-73.7-41.1-72.6-71.5c0-1.3,21.4-14,23.5-14.5 c18.8-4.7,34.9-12.5,55.6-12.9c12.4-0.2,10.3,10.5,11.2,15.3c3.5,18.5,20.4,32.5,41.7,46.5C601.3,191.8,729,203.2,805.7,206z"/><path d="M805.7,206c14,0.5,26.3,2.7,37,3.4c48.5,3,65.8-8.9,75.2-30.5"/><path d="M956.4,97.9c14,22.9,12.2,49.8,1,67.5"/><path d="M549.6,163.1c36.3,49.7,90.2,65.4,149.2,71.4"/><path d="M451.2,102c2.1,12.6,9.6,17.2,18.9,25.7c5.3,4.9,11.8,8.4,16.1,14.3c1.5,2.2,2.4,4.7,3.3,7.2"/></g><path id="Buckle_Cloth-Wrap-Right_Collar_M" d="M562,153.8l-30.9-22.1l-53.6,74.8l30.9,22.1L562,153.8z" style="fill: rgb(86, 86, 86);"/></g></g></g><g id="ChestAttachments_Current"><g id="Chest-Attachments_M"><g id="Bandoleer_Accessories_Chest_M" class="option" style="display: inherit;"><g id="Strap_Bandoleer_Accessories_Chest_M" style="fill: rgb(20, 15, 14);"><path d="M998.3,132.6l-70-33.6L485.5,901.7l70.1,38.6L998.3,132.6"/><path d="M979.3,119.7l-26.6-12.4l-88.4,160.2l25.6,14.1L979.3,119.7"/><path d="M854,351l-29.3-16.1L688.9,581.2l29.2,16.1L854,351"/><path d="M856.9,360.3l-41.5-22.9l-13.6,24.7l41.5,22.9L856.9,360.3"/><path d="M840.4,390.2l-41.5-22.9L785.3,392l41.5,22.9L840.4,390.2"/><path d="M823.9,420.1l-41.5-22.9l-13.6,24.7l41.5,22.9L823.9,420.1"/><path d="M807.4,450l-41.5-22.9l-13.6,24.7l41.5,22.9L807.4,450"/><path d="M790.9,479.9L749.4,457l-13.6,24.7l41.5,22.9L790.9,479.9"/><path d="M757.9,539.7l-41.5-22.9l-13.6,24.7l41.5,22.9L757.9,539.7"/><path d="M774.4,509.8l-41.5-22.9l-13.6,24.7l41.5,22.9L774.4,509.8"/><path d="M741.4,569.6l-41.5-22.9l-13.6,24.7l41.5,22.9L741.4,569.6"/></g><g id="Ammo_Bandoleer_Accessories_Chest_M" style="fill: rgb(117, 117, 117);"><g><g><path d="M855.4,362.9l17,9.4c1.8,1,2.5,3.3,1.5,5.1c-1.9,3.5-5,9.1-7,12.6c-1,1.8-3.3,2.5-5.1,1.5l-17-9.4 L855.4,362.9z"/><path d="M868,369.8l-1.4-0.8l-10.6,19.2l1.4,0.8L868,369.8z"/><path d="M865,368.1l-1.4-0.8L853,386.6l1.4,0.8L865,368.1z"/></g><g><path d="M813.9,340l-10.6,19.2l-17-9.4c-1.8-1-2.5-3.3-1.5-5.1c1.9-3.5,5-9.1,7-12.6c1-1.8,3.3-2.5,5.1-1.5 L813.9,340z"/><path d="M801.1,332.9l-1.4-0.8L789,351.3l1.4,0.8L801.1,332.9z"/></g></g><g><g><path d="M822.4,422.9l17,9.4c1.8,1,2.5,3.3,1.5,5.1c-1.9,3.5-5,9.1-7,12.6c-1,1.8-3.3,2.5-5.1,1.5l-17-9.4 L822.4,422.9z"/><path d="M834.9,429.8l-1.4-0.8l-10.6,19.2l1.4,0.8L834.9,429.8z"/><path d="M831.9,428.2l-1.4-0.8l-10.6,19.2l1.4,0.8L831.9,428.2z"/></g><g><path d="M780.8,400l-10.6,19.2l-17-9.4c-1.8-1-2.5-3.3-1.5-5.1c1.9-3.5,5-9.1,7-12.6c1-1.8,3.3-2.5,5.1-1.5 L780.8,400z"/><path d="M768,392.9l-1.4-0.8L756,411.3l1.4,0.8L768,392.9z"/></g></g><g><g><path d="M805.9,452.6l17,9.4c1.8,1,2.5,3.3,1.5,5.1c-1.9,3.5-5,9.1-7,12.6c-1,1.8-3.3,2.5-5.1,1.5l-17-9.4 L805.9,452.6z"/><path d="M818.5,459.5l-1.4-0.8L806.5,478l1.4,0.8L818.5,459.5z"/><path d="M815.5,457.9l-1.4-0.8l-10.6,19.2l1.4,0.8L815.5,457.9z"/></g><g><path d="M764.4,429.7l-10.6,19.2l-17-9.4c-1.8-1-2.5-3.3-1.5-5.1c1.9-3.5,5-9.1,7-12.6c1-1.8,3.3-2.5,5.1-1.5 L764.4,429.7z"/><path d="M751.6,422.6l-1.4-0.8l-10.6,19.2l1.4,0.8L751.6,422.6z"/></g></g><g><g><path d="M789.4,482.7l17,9.4c1.8,1,2.5,3.3,1.5,5.1c-1.9,3.5-5,9.1-7,12.6c-1,1.8-3.3,2.5-5.1,1.5l-17-9.4 L789.4,482.7z"/><path d="M801.9,489.6l-1.4-0.8L789.9,508l1.4,0.8L801.9,489.6z"/><path d="M798.9,488l-1.4-0.8l-10.6,19.2l1.4,0.8L798.9,488z"/></g><g><path d="M747.9,459.8L737.3,479l-17-9.4c-1.8-1-2.5-3.3-1.5-5.1c1.9-3.5,5-9.1,7-12.6c1-1.8,3.3-2.5,5.1-1.5 L747.9,459.8z"/><path d="M735,452.7l-1.4-0.8L723,471.1l1.4,0.8L735,452.7z"/></g></g></g><g id="Buckles_Bandoleer_Accessories_Chest_M" style="fill: rgb(117, 117, 117);"><g><path d="M902.4,264.8L871.9,248l-17.2,31.3l30.5,16.8L902.4,264.8z"/><path d="M894.6,270.1l-23-12.7l-17.2,31.3l23,12.7L894.6,270.1z"/></g><path d="M902.4,228.2l-19.7-10.8l17.1-31.1l39.8,21.9l-17.1,31.1L902.4,228.2l3.9-7l11.2,6.2l9.4-17.1l-22-12.1 l-9.4,17.1l10.8,5.9"/></g></g></g></g><g id="Gauntlets_Current"><g id="LeftGauntlets_Current"><g id="Left-Gauntlets_M"><g id="Gunslinger_Gauntlet_Left_M" class="option" style="display: inherit;"><g id="Accent-Top_Gunslinger_Gauntlet_Left_M" style="fill: rgb(57, 64, 71);"><path d="M1282.9,824.1l6.6,59.9l-30.2,8.4l-7-56.8L1282.9,824.1z"/><path d="M1268.6,1046.2l6,30.6l-26.6,5.7l-6.3-30.5L1268.6,1046.2z"/></g><path id="Top_Gunslinger_Gauntlet_Left_M" d="M1282.9,824.1l13.7-5.2l24.3,280.7l-66.5,14.1l-9-43.6l2.6,12.3 l26.6-5.7l-6-30.6l-26.9,5.8l-40.8-196.9L1282.9,824.1l-30.7,11.6l7,56.8l30.2-8.4L1282.9,824.1z" style="fill: rgb(71, 80, 89);"/><g id="Accent-Bottom_Gunslinger_Gauntlet_Left_M" style="fill: rgb(48, 54, 59);"><path d="M1162.6,945.9l-7.9-24.5l-17.2,5.5l7.8,24.5L1162.6,945.9z"/><path d="M1171.6,973.8l-7.9-24.5l-17.2,5.5l7.8,24.5L1171.6,973.8z"/><path d="M1241.7,1052l-59.4,12.8l9.6,29.8l56.2-12.1L1241.7,1052z"/></g><path id="Bottom_Gunslinger_Gauntlet_Left_M" d="M1247.1,1078.1l-5.4-26.1l-59.4,12.8l9.6,29.8l56.2-12.1l6.5,31.2 c0,0-20.9,3.7-36.5,6.4c-9.8,1.7-19.3-4-22.4-13.5c-16.7-51.6-66.8-206.8-66.8-206.8l73-40.7L1247.1,1078.1z M1171.6,973.8 l-7.9-24.5l-17.2,5.5l7.8,24.5L1171.6,973.8z M1162.6,945.9l-7.9-24.5l-17.2,5.5l7.8,24.5L1162.6,945.9z" style="fill: rgb(57, 64, 71);"/><g id="Flamethrower_Attachment_Gunslinger_Gauntlet_Left_M" class="option" style="display: inherit;"><g id="Tubes_Flamethrower_Attachment_Gunslinger_Gauntlet_Left_M" style="fill: rgb(103, 103, 103);"><path d="M1313.2,835.3l-8.8,0.7l22.3,268.4l8.8-0.7L1313.2,835.3z"/><path d="M1333.4,833.7l-8.8,0.7l16,192.4l8.8-0.7L1333.4,833.7z"/><path d="M1316.3,852l-12.1,1l5.3,63.9l12.1-1L1316.3,852z"/><path d="M1336.5,850.4l-12.1,1l5.3,63.9l12.1-1L1336.5,850.4z"/></g><g id="Main_Flamethrower_Attachment_Gunslinger_Gauntlet_Left_M" style="fill: rgb(81, 81, 81);"><path d="M1337.2,833.4l-36.2,3l1.4,16.8l36.2-3L1337.2,833.4z"/><path d="M1344.7,914l-37.9,3.1l0.9,10.2l37.9-3.1L1344.7,914z"/><path d="M1344,924.4l-34.7,2.9l0.4,5.2l34.7-2.9L1344,924.4z"/><path d="M1310.2,910.5l-5.8,0.7l2.7,31.2l5.8-0.7L1310.2,910.5z"/></g><g id="Accent_Flamethrower_Attachment_Gunslinger_Gauntlet_Left_M" style="fill: rgb(88, 88, 88);"><path d="M1349.7,1026.1l-9.4,0.8l-0.4,13.3l12.4-1L1349.7,1026.1z"/><path d="M1347.7,957.4l-16.7,1.4l1.7,20.3l16.7-1.4L1347.7,957.4z"/><path d="M1347.1,977.9l-12.1,1l1.7,20.3l12.1-1L1347.1,977.9z"/><path d="M1334.3,1069.7l-12.1,1l2.3,27.9l12.1-1L1334.3,1069.7z"/><path d="M1326.9,979.6l-12.1,1l3.2,38l12.1-1L1326.9,979.6z"/><path d="M1337.8,1083.4l-16.7,1.4l0.4,5.4l16.7-1.4L1337.8,1083.4z"/></g><path id="Base_Flamethrower_Attachment_Gunslinger_Gauntlet_Left_M" d="M1304.3,911.2l-7.2-84.7l10.4,3.1 l12.2,143.2l-9.7,5.4l-3.1-35.8l5.8-0.7l-2.7-31.2L1304.3,911.2z" style="fill: rgb(80, 80, 80);"/></g></g></g></g><g id="RightGauntlets_Current"><g id="Right-Gauntlets_M"><g id="Gunslinger_Gauntlet_Right_M" class="option" style="display: inherit;"><g id="Accent-Top_Gunslinger_Gauntlet_Right_M" style="fill: rgb(57, 64, 71);"><path d="M120.3,824.1l-6.6,59.9l30.2,8.4l7-56.8L120.3,824.1z"/><path d="M134.6,1046.2l-6,30.6l26.6,5.7l6.3-30.5L134.6,1046.2z"/></g><path id="Top_Gunslinger_Gauntlet_Right_M" d="M120.3,824.1l-13.7-5.2l-24.3,280.7l66.5,14.1l9-43.6l-2.6,12.3 l-26.6-5.7l6-30.6l26.9,5.8l40.8-196.9L120.3,824.1l30.6,11.6l-7,56.8l-30.2-8.4L120.3,824.1z" style="fill: rgb(71, 80, 89);"/><g id="Accent-Bottom_Gunslinger_Gauntlet_Right_M" style="fill: rgb(48, 54, 59);"><path d="M240.6,945.9l7.9-24.5l17.2,5.5l-7.9,24.5L240.6,945.9z"/><path d="M231.6,973.8l7.9-24.5l17.2,5.5l-7.9,24.5L231.6,973.8z"/><path d="M161.5,1052l59.4,12.8l-9.6,29.8l-56.2-12.1L161.5,1052z"/></g><path id="Bottom_Gunslinger_Gauntlet_Right_M" d="M156.1,1078.1l5.4-26.1l59.4,12.8l-9.6,29.8l-56.2-12.1l-6.5,31.2 c0,0,20.9,3.7,36.5,6.4c9.8,1.7,19.3-4,22.4-13.5c16.7-51.6,66.8-206.8,66.8-206.8l-73-40.7L156.1,1078.1z M231.6,973.8l7.9-24.5 l17.2,5.5l-7.9,24.5L231.6,973.8z M240.6,945.9l7.9-24.5l17.2,5.5l-7.9,24.5L240.6,945.9z" style="fill: rgb(57, 64, 71);"/><g id="Missle_Attachment_Gunslinger_Gauntlet_Right_M" class="option" style="display: inherit;"><g id="Head_Missle_Attachment_Gunslinger_Gauntlet_Right_M" style="fill: rgb(81, 81, 81);"><path d="M66.2,1027.6l24-45.6l-39.9-4.5L66.2,1027.6z"/><path d="M76.4,984.7c-0.9-0.1-1.7,1.7-1.9,4c-0.2,2.3,0.3,4.3,1.2,4.4c0.9,0.1,1.7-1.7,1.9-4 C77.8,986.7,77.3,984.8,76.4,984.7z"/><path d="M74,997c-0.7-0.1-1.4,1.4-1.6,3.2c-0.2,1.9,0.3,3.4,1,3.5c0.7,0.1,1.4-1.4,1.6-3.2 C75.2,998.7,74.7,997.1,74,997z"/><path d="M72.7,1008.3c-0.6-0.1-1.3,1.3-1.4,3c-0.1,1.7,0.3,3.2,0.9,3.2c0.6,0.1,1.3-1.3,1.4-3 C73.7,1009.9,73.3,1008.4,72.7,1008.3z"/><path d="M82.9,985.4c-0.9-0.1-1.7,1.7-1.9,4c-0.2,2.3,0.3,4.3,1.2,4.4c0.9,0.1,1.7-1.7,1.9-4 C84.3,987.5,83.7,985.5,82.9,985.4z"/><path d="M57,982.5c-0.9-0.1-1.7,1.7-1.9,4c-0.2,2.3,0.3,4.3,1.2,4.4c0.9,0.1,1.7-1.7,1.9-4 C58.4,984.5,57.9,982.6,57,982.5z"/><path d="M63.5,983.2c-0.9-0.1-1.7,1.7-1.9,4c-0.2,2.3,0.3,4.3,1.2,4.4c0.9,0.1,1.7-1.7,1.9-4 C64.9,985.3,64.4,983.3,63.5,983.2z"/><path d="M63.7,995.8c-0.7-0.1-1.4,1.4-1.6,3.2c-0.2,1.9,0.3,3.4,1,3.5c0.7,0.1,1.4-1.4,1.6-3.2 C64.8,997.5,64.4,995.9,63.7,995.8z"/><path d="M63.2,1007.3c-0.6-0.1-1.3,1.3-1.4,3c-0.1,1.7,0.3,3.2,0.9,3.2c0.6,0.1,1.3-1.3,1.4-3 C64.2,1008.8,63.8,1007.3,63.2,1007.3z"/><path d="M69.9,983.9c-0.9-0.1-1.7,1.7-1.9,4c-0.2,2.3,0.3,4.3,1.2,4.4c0.9,0.1,1.7-1.7,1.9-4 C71.4,986,70.8,984,69.9,983.9z"/><path d="M68.9,996.4c-0.7-0.1-1.4,1.4-1.6,3.2c-0.2,1.9,0.3,3.4,1,3.5c0.7,0.1,1.4-1.4,1.6-3.2 C70,998.1,69.6,996.5,68.9,996.4z"/><path d="M67.9,1007.8c-0.6-0.1-1.3,1.3-1.4,3c-0.1,1.7,0.3,3.2,0.9,3.2c0.6,0.1,1.3-1.3,1.4-3 C68.9,1009.3,68.5,1007.9,67.9,1007.8z"/><path d="M58.1,1002c0.6-0.1,1.2-1.5,1.4-3.2c0.2-1.9-0.3-3.4-1-3.5c-0.7-0.1-1.4,1.3-1.5,3.1L58.1,1002z M80.2,1001c0.1-1.8-0.3-3.4-1-3.4c-0.7-0.1-1.4,1.4-1.6,3.2c-0.1,1.7,0.2,3.2,0.8,3.5L80.2,1001z"/></g><g id="Main_Missle_Attachment_Gunslinger_Gauntlet_Right_M" style="fill: rgb(63, 63, 63);"><path d="M55.8,971.3l30.2,3.4l-0.6,6.6L55.2,978L55.8,971.3z"/><path d="M67.7,831.5l30.2,3.4l-0.6,6.6l-30.2-3.4L67.7,831.5z"/><path d="M76,807.8l17.8,2l-0.6,6.6l-17.8-2L76,807.8z"/><path d="M67.8,813.6l33.1,3.7l-1.5,17.7l-33.1-3.7L67.8,813.6z"/><path d="M64.4,837.8l35.6,4L88.7,975.1l-35.6-4L64.4,837.8z"/><path d="M92.8,912.2l5.8,0.7l-2.7,31.2l-5.8-0.7L92.8,912.2z"/></g><g id="Accent_Missle_Attachment_Gunslinger_Gauntlet_Right_M" style="fill: rgb(71, 70, 70);"><path d="M65.5,1036.1l4.7-11.6l-7.4-0.8L65.5,1036.1z"/><path d="M63.8,1020.8l6,0.7l0.5,3.1l-7.4-0.8L63.8,1020.8z"/><path d="M74.8,798.3l21.8,2.5l-0.8,9.2L74,807.6L74.8,798.3z"/><path d="M78.9,793.9l14.5,1.6l3.2,5.3l-21.8-2.5L78.9,793.9z"/><path d="M75.1,839l6.1,0.7L69.8,972.9l-6.1-0.7L75.1,839z"/><path d="M83.3,839.9l6.1,0.7L78,973.9l-6.1-0.7L83.3,839.9z"/><path d="M61.7,840.9l2.7-3.1L53,971l-2.1-3.7L61.7,840.9z"/><path d="M66.9,838.1l6.1,0.7L61.6,972l-6.1-0.7L66.9,838.1z"/><path d="M91.5,840.9l3.7,0.4L83.9,974.5l-3.7-0.4L91.5,840.9z"/></g><path id="Base_Missle_Attachment_Gunslinger_Gauntlet_Right_M" d="M95.4,831.3l10.4-3.1l-13,151.7l-9.7-5.4 L95.4,831.3z M92.8,912.2l5.8,0.7l-2.7,31.2l-5.8-0.7L92.8,912.2z" style="fill: rgb(76, 76, 76);"/></g></g></g></g></g></g><g id="Helmet_M_Wrapper" transform="translate(550,35)"><g id="Helmet_Current" class="Recon"><g id="Left-Earcap_Recon"><g id="Module_Left_Recon" class="option" style="display: inherit;"><g id="Main_Module_Left_Recon" style="fill: rgb(24, 42, 24);"><rect x="570.7" y="390.8" width="21.5" height="28.5"/><rect x="598.8" y="375.6" width="7.8" height="5"/><rect x="610.3" y="375.6" width="7.8" height="5"/><path d="M637.8,403.1v-7.8h-5v7.8H637.8z"/><path d="M637.8,414.6v-7.8h-5v7.8H637.8z"/><rect x="598.8" y="429.3" width="7.8" height="5"/><rect x="610.3" y="429.3" width="7.8" height="5"/><circle cx="608.4" cy="405" r="26.4"/></g><g id="Inside_Module_Left_Recon" style="fill: rgb(92, 16, 16);"><ellipse cx="608.4" cy="405" rx="20.9" ry="20.6"/><ellipse cx="608.4" cy="405" rx="12.3" ry="12.2"/><ellipse cx="608.4" cy="405" rx="7.8" ry="7.7"/><ellipse cx="608.4" cy="405" rx="4" ry="4"/></g></g><g id="Ear-Cap_Left_Recon" style="fill: rgb(18, 30, 18);"><path d="M554.9,340.2l16.1,8.3l-7.2,13.4h-8.7L554.9,340.2z"/><path d="M571.1,348.5L582,491.2l-15.2-1.7l-3-127.6L571.1,348.5z"/><path d="M566.8,489.5h-11.9L552,361.9h11.8L566.8,489.5z"/><path d="M576.5,491.2v15h-21l-0.4-16.5l11.8-0.2L576.5,491.2z"/><path d="M563,489.5v16.7h-7.5l-0.4-16.7H563z"/><path d="M576.5,510.6V525l-20.6,2.1v-16.2h7.1L576.5,510.6z"/><path d="M563,510.9v15.4l-7.1,0.8v-16.2H563z"/><path d="M574,506.2v4.3l-11,0.3h-7.5l-0.1-4.6H574z"/><rect x="555.5" y="506.2" width="6.3" height="4.7"/><path d="M576.5,525h6l1,49.6l-13.1,14.1v-63.1L576.5,525z"/><path d="M570.4,588.8l-12.9,9.6l-1.6-71.4l14.5-1.5V588.8z"/><path d="M553.1,409.8h6.3v25h-5.8L553.1,409.8z"/></g></g><g id="Right-Earcap_Recon"><g id="Range-Finder_Right_Recon" class="option" style="display: inherit;"><g id="Finder_Range-Finder_Right_Recon" style="fill: rgb(18, 30, 18);"><path d="M147.7,94.9h-21.8l-6-19.6l9.3-22.3h152.6v11.4C233.9,65,185.1,63.1,147.7,94.9z"/><path d="M137.6,53l-10.1,23.4l6.5,18.5h-8.2l-6-19.6l9.3-22.3H137.6z"/><path d="M276.8,64.5L276.8,64.5l0,6.5h-81C221.4,64.6,249.2,64.8,276.8,64.5z"/><path d="M195.8,70.9h74.7l-9.5,7.6h-69.5l-4.9-4.9l0-0.1C189.7,72.6,192.7,71.7,195.8,70.9z"/></g><path id="Shaft_Range-Finder_Right_Recon" d="M137.6,94.9h-6.1l-8.9,285.1h6.1L137.6,94.9z" style="fill: rgb(43, 61, 43);"/><g id="Base_Range-Finder_Right_Recon" style="fill: rgb(18, 30, 18);"><path d="M124.4,322.5l-19.2,11.5l-1.4,35.4l19.1,0.8L124.4,322.5z"/><path d="M107.5,369.5l-1.8,54.6h6.1l2.3-54.3L107.5,369.5z"/><path d="M107.3,376.3l-11.2,8.6l-0.6,29.2l10.2,10L107.3,376.3z"/><path d="M104.6,350.1l-3.2,1.8v28.8l5.9-4.5v-6.8l-3.4-0.1L104.6,350.1z"/><path d="M111.8,424.1l2.3-54.3l8.8,0.4l-0.3,9.9h6.1v44H111.8z"/><path d="M113.7,380.8h9l0.3-10.7h-8.8L113.7,380.8z"/><path d="M113.1,394.5h15.7v5.9h-15.9L113.1,394.5z"/><path d="M112.6,406.3l0.3-5.9h15.9v5.7L112.6,406.3z"/><path d="M120.3,380.8v13.7h-7.2l0.6-13.7H120.3z"/></g></g><g id="Ear-Cap_Right_Recon" style="fill: rgb(18, 30, 18);"><path d="M145.1,340.2l-16.1,8.3l7.2,13.4h8.7L145.1,340.2z"/><path d="M128.9,348.5L118,491.2l15.2-1.7l3-127.6L128.9,348.5z"/><path d="M133.2,489.5h11.9l2.9-127.6h-11.8L133.2,489.5z"/><path d="M123.5,491.2v15h21l0.4-16.5l-11.8-0.2L123.5,491.2z"/><path d="M137,489.5v16.7h7.5l0.4-16.7H137z"/><path d="M123.5,510.6V525l20.6,2.1v-16.2H137L123.5,510.6z"/><path d="M137,510.9v15.4l7.1,0.8v-16.2H137z"/><path d="M126,506.2v4.3l11,0.3h7.5l0.1-4.6H126z"/><rect x="138.3" y="506.2" width="6.3" height="4.7"/><path d="M123.5,525h-6l-1,49.6l13.1,14.1v-63.1L123.5,525z"/><path d="M129.6,588.8l12.9,9.6l1.6-71.4l-14.5-1.5V588.8z"/><path d="M146.9,409.8h-6.3v25h5.7L146.9,409.8z"/></g></g><g id="Helmet_Pieces_Recon"><g id="Face_Recon" style="fill: rgb(14, 23, 14);"><path d="M167.2,600.2l8.4-74.3l8.6-3.4L192,467c0,0,48,33.1,67.2,55.3c21.8,25.2,43.7,161.1,43.7,161.1L167.2,600.2z "/><path d="M532.8,600.2l-8.4-74.3l-8.6-3.4L508,467c0,0-48,33.1-67.2,55.3C418.9,547.5,397,683.4,397,683.4 L532.8,600.2z"/></g><g id="Vents_Recon" style="fill: rgb(12, 20, 12);"><g><path d="M199.9,542.9l-13.2-9.7l-4.8,1.7l-0.3,5.6l11.9,11.5v-6.4L199.9,542.9z"/><path d="M175.7,525.9l6.2,9l4.8-1.7l13.2,9.7l-6.4,2.7l18.8,12.6l18-9.1c-17.1-7.6-32.7-16.3-45.9-26.6L175.7,525.9 z"/><path d="M212.3,558.2c-8.6,17.9-11.7,39.3-9.3,63.8l16.2,9.9l11.1-82.9L212.3,558.2z"/><path d="M216.9,560.3l8.5-4.3l-9.3,69.5l-9.4-5.8l-0.1-1.8h8.1v-4.3h-8.4l-0.1-2.2l0-2.4h10v-4.3h-10l0-1.3l0.2-3.3 h11.1v-4.3h-10.9l0-0.1l0.5-4.4h11.6v-4.3h-11l0.8-4.6h10.7V578h-9.7l1-3.9l0.2-0.7h9.7v-4.3H212l0.6-1.7l1.2-2.9h8.2v-4.3 H216.9z"/><path d="M202.9,622l-35.7-21.9l8.4-74.3l6.2,9l-0.4,5.5l12,11.6v-6.4l18.8,12.6c-8.6,17.9-11.7,39.1-9.3,63.5 L202.9,622z"/><path d="M184.9,537.2l8.5,8.4l6.4-2.7l-10.1-7.4L184.9,537.2z"/><path d="M184.9,540.5v-3.4l8.5,8.4v3L184.9,540.5z"/><path d="M181.5,540.3l3.4,0.2"/><path d="M189.7,602.1l-12.3-6.9v3.4l12.3,6.9V602.1z"/><path d="M216.9,560.3h5v4.3h-8.2l1.4-3.5v0L216.9,560.3z"/><path d="M212,569.1l-1.4,4.3h9.7v-4.3H212z"/><path d="M209.4,578l-0.8,3l-0.2,1.3h10.7V578H209.4z"/><path d="M207.6,586.9l-0.2,1.3l-0.3,3h11.6v-4.3H207.6z"/><path d="M206.5,595.8l-0.2,4.3h11.1v-4.3H206.5z"/><path d="M206.1,604.7l0,4.3h10v-4.3H206.1z"/><path d="M206.3,613.6l0.3,4.3h8.1v-4.3H206.3z"/></g><g><path d="M500.1,542.9l13.2-9.7l4.8,1.7l0.3,5.6L506.6,552v-6.4L500.1,542.9z"/><path d="M524.3,525.9l-6.2,9l-4.8-1.7l-13.2,9.7l6.4,2.7l-18.8,12.6l-18-9.1c17.1-7.6,32.7-16.3,45.9-26.6 L524.3,525.9z"/><path d="M487.7,558.2c8.6,17.9,11.7,39.3,9.3,63.8l-16.2,9.9l-11.1-82.9L487.7,558.2z"/><path d="M483.1,560.3l-8.5-4.3l9.3,69.5l9.4-5.8l0.1-1.8h-8.1v-4.3h8.4l0.1-2.2l0-2.4h-10v-4.3h10l0-1.3l-0.2-3.3 h-11.1v-4.3h10.9l0-0.1l-0.5-4.4h-11.6v-4.3h11l-0.8-4.6h-10.7V578h9.7l-1-3.9l-0.2-0.7h-9.7v-4.3h8.2l-0.6-1.7l-1.2-2.9h-8.1 v-4.3H483.1z"/><path d="M497,622l35.7-21.9l-8.4-74.3l-6.2,9l0.4,5.5l-12,11.6v-6.4l-18.8,12.6c8.6,17.9,11.7,39.1,9.3,63.5 L497,622z"/><path d="M515.1,537.2l-8.5,8.4l-6.4-2.7l10.1-7.4L515.1,537.2z"/><path d="M515.1,540.5v-3.4l-8.5,8.4v3L515.1,540.5z"/><path d="M518.5,540.3l-3.4,0.2"/><path d="M510.3,602.1l12.3-6.9v3.4l-12.3,6.9V602.1z"/><path d="M483.1,560.3h-5v4.3h8.1l-1.5-3.5v0L483.1,560.3z"/><path d="M488,569.1l1.4,4.3h-9.7v-4.3H488z"/><path d="M490.6,578l0.8,3l0.2,1.3h-10.7V578H490.6z"/><path d="M492.4,586.9l0.2,1.3l0.3,3h-11.6v-4.3H492.4z"/><path d="M493.5,595.8l0.2,4.3h-11.1v-4.3H493.5z"/><path d="M493.9,604.7l0,4.3h-10v-4.3H493.9z"/><path d="M493.7,613.6l-0.3,4.3h-8.1v-4.3H493.7z"/></g></g><g id="Cheeks_Recon" style="fill: rgb(12, 23, 12);"><path d="M186.7,429l5.4,38l-7.8,55.6l-8.6,3.4L186.7,429z"/><path d="M186.7,429c0,0,57.6,41.4,76.6,72.2c23.5,38.2,45.8,173.4,47.1,181.8l0.1,0.4H303c0,0-21.9-135.9-43.7-161.1 C240,500.1,192,467,192,467L186.7,429z"/><path d="M202.6,452l1.4,6.7l12.6,9.6l-0.9-7.1L202.6,452z"/><path d="M513.3,429l-5.4,38l7.8,55.6l8.6,3.4L513.3,429z"/><path d="M513.3,429c0,0-57.6,41.4-76.6,72.2C413.3,539.4,391,674.6,389.6,683l-0.1,0.4h7.5 c0,0,21.9-135.9,43.7-161.1C460,500.1,508,467,508,467L513.3,429z"/></g><path id="Visor_Recon" d="M338.9,683.4l-14.7-236.6l-7.6-1.8L221,415.2l-9.7-24.4l3.1,0.1c23.2,4.2,48,7.7,74.8,10.1 h0l22,14.5c12.5,2.2,25.3,3.2,38.5,3.4l0.3,0l0.3,0c13.1-0.2,26-1.1,38.5-3.4l22-14.5h0c26.8-2.4,51.6-5.9,74.8-10.1l3.1-0.1 l-9.6,24.4L383.4,445l-7.6,1.8l-14.7,236.6H338.9z" style="fill: rgb(0, 0, 0);"/><g id="Eyes-2_Recon" style="fill: rgb(17, 29, 16);"><path d="M201.7,388.5l8.5,23.3L316.6,445l15.2,238.4h-21.4c0,0-23-142.8-47.2-182.2c-18.9-30.8-76.6-72.2-76.6-72.2 l10.7-41.3L201.7,388.5z"/><path d="M211.2,390.3l9.8,24.8l-10.8-3.4l-8.5-23.3L211.2,390.3z"/><path d="M316.6,445l7.6,1.8l14.7,236.6h-7.1L316.6,445z"/><path d="M498.3,388.5l-8.5,23.3L383.4,445l-15.2,238.4h21.4c0,0,23-142.8,47.2-182.2c18.9-30.8,76.6-72.2,76.6-72.2 l-10.7-41.3L498.3,388.5z"/><path d="M488.8,390.3l-9.8,24.8l10.8-3.4l8.5-23.3L488.8,390.3z"/><path d="M383.4,445l-7.6,1.8l-14.7,236.6h7.1L383.4,445z"/><path d="M349.3,404.5c-58.6-1.6-107.9-7.9-151.9-16.9h305.2c-44.2,9-93.7,15.3-152.6,16.9L349.3,404.5z"/><path d="M349.7,418.8c-13.1-0.2-26-1.1-38.5-3.4l-22-14.5h0c19.1,1.7,39.3,2.9,60.8,3.5l1,0 c21.1-0.6,40.9-1.8,59.8-3.5h0l-22,14.5c-12.6,2.2-25.5,3.2-38.8,3.4L349.7,418.8z"/></g><g id="Eyes-1_Recon" style="fill: rgb(14, 21, 14);"><path d="M184.5,387.7h7.4L180.6,429l-18.9,171.2h-19.1c5.9-75,19.4-145.9,41.8-211.8L184.5,387.7z"/><path d="M197.4,387.7L186.7,429l-19.4,171.2h-5.6L180.6,429l11.4-41.3H197.4z"/><path d="M515.5,387.7h-7.4l11.4,41.3l18.9,171.2h19.1c-5.9-75-19.4-145.9-41.8-211.8L515.5,387.7z"/><path d="M502.6,387.7l10.7,41.3l19.4,171.2h5.6L519.4,429l-11.4-41.3H502.6z"/><rect x="139.1" y="345.7" width="421.9" height="33.5"/><path d="M322.9,362.4l22-6.5v12.9L322.9,362.4z"/><path d="M377.1,362.4l-22-6.5v12.9L377.1,362.4z"/><path d="M184.5,387.7c-22.5,66.1-36.1,137.2-42,212.6l4.8-221h405.3l4.8,221c-6-75.3-19.5-146.4-42-212.6H184.5z"/><path d="M170,435.5l10.6-6.5"/><path d="M186.7,429h-6.1"/><path d="M530,435.5l-10.6-6.5"/><path d="M513.3,429h6.1"/></g><g id="Dome-2_Recon" style="fill: rgb(17, 23, 17);"><path d="M350,177.3v168.5H144.9C144.9,282.5,226.4,177.3,350,177.3z"/><path d="M350,177.3v168.5h205.1C555.1,282.5,473.6,177.3,350,177.3z"/><path d="M329.4,345.7V171.1l20.6-1l20.6,1v174.6H329.4z"/></g><g id="Dome-1_Recon" style="fill: rgb(13, 18, 13);"><path d="M329.4,345.7V165.9c-31.8,4.2-61.7,13.9-89.4,30.5v149.3H329.4z"/><path d="M370.6,345.7V165.9c31.8,4.2,61.7,13.9,89.4,30.5v149.3H370.6z"/></g></g><g id="Macrobinoculars_Brow_Recon" class="toggle" style=""><g id="Arms_Macrobinoculars_Brow_Recon" style="fill: rgb(33, 42, 33);"><path d="M160.1,269l-6.5-1.9l-42.4,101.6l0,4.1l5.5,0.1L160.1,269z"/><rect x="124.4" y="382.5" width="11.2" height="10.1"/><rect x="116.5" y="382.5" width="5.4" height="10.1"/><rect x="116.5" y="392.6" width="5.4" height="17.3"/><rect x="111.2" y="373" width="5.3" height="37"/><path d="M111.2,351.1l-5.7,3.3v23l5.7-4.4V351.1z"/><path d="M111.2,373l-8.4,1.2l-0.1,27.1l8.5,8.7V373z"/><rect x="121.8" y="382.5" width="2.6" height="10.1"/><path d="M111.2,351.1l2.6-4.6l7.8-2.6l-10.4,24.9L111.2,351.1z"/><path d="M113.8,346.5v-4.3l-8.4,5.1v7l5.7-3.3L113.8,346.5z"/><path d="M113.8,346.5v-9.8l7.8-7.5v14.6L113.8,346.5z"/><path d="M116.4,373h12l-0.5,9.5h-11.4L116.4,373z"/><path d="M128.4,373h-11.9l11.4,9.5L128.4,373z"/><path d="M120,365.1l8.3,2.9v4.9h-11.6L120,365.1z"/><path d="M121.8,409.9v-17.3h5.2l-1.3,17.3H121.8z"/><path d="M121.8,329.3l30-72.6l0.5,10l1.3,0.5l-31.8,76.2V329.3z"/><path d="M135.1,301.5l-9.5,22.4v5.9l9.6-22.8L135.1,301.5z"/><path d="M148.9,268.7l-9.5,22.4v5.9l9.6-22.8L148.9,268.7z"/><path d="M539.9,269l6.5-1.9l42.4,101.6l0,4.1l-5.5,0.1L539.9,269z"/><rect x="564.4" y="382.5" width="11.2" height="10.1"/><rect x="578.2" y="382.5" width="5.4" height="10.1"/><rect x="578.2" y="392.6" width="5.4" height="17.3"/><rect x="583.5" y="373" width="5.3" height="37"/><path d="M588.8,351.1l5.7,3.3v23l-5.7-4.4V351.1z"/><path d="M588.8,373l8.4,1.2l0.1,27.1l-8.5,8.7V373z"/><rect x="575.6" y="382.5" width="2.6" height="10.1"/><path d="M588.8,351.1l-2.6-4.6l-7.8-2.6l10.4,24.9L588.8,351.1z"/><path d="M586.2,346.5v-4.3l8.4,5.1v7l-5.7-3.3L586.2,346.5z"/><path d="M586.2,346.5v-9.8l-7.8-7.5v14.6L586.2,346.5z"/><path d="M583.6,373h-12l0.5,9.5h11.4L583.6,373z"/><path d="M571.6,373h11.9l-11.4,9.5L571.6,373z"/><path d="M580,365.1l-8.3,2.9v4.9h11.6L580,365.1z"/><path d="M578.2,409.9v-17.3H573l1.3,17.3H578.2z"/><path d="M578.2,329.3l-30-72.6l-0.5,10l-1.3,0.5l31.8,76.2V329.3z"/><path d="M564.9,301.5l9.5,22.4v5.9l-9.6-22.8L564.9,301.5z"/><path d="M551.1,268.7l9.5,22.4v5.9l-9.6-22.8L551.1,268.7z"/></g><g id="Main_Macrobinoculars_Brow_Recon" style="fill: rgb(15, 24, 15);"><rect x="195.5" y="154.8" width="308.9" height="12.6"/><path d="M243.8,231.7l-0.1-19.6l13.7-14.7l-0.1,19.3L243.8,231.7z"/><path d="M243.6,212l0.1,19.6h-69.2l8.5-19.6H243.6z"/><g><rect x="186.7" y="215.4" width="8.5" height="6.5"/><rect x="186.7" y="221.9" width="8.5" height="7.9"/></g><g><rect x="200.7" y="215.4" width="8.5" height="6.5"/><rect x="200.7" y="221.9" width="8.5" height="7.9"/></g><g><rect x="214.7" y="215.4" width="8.5" height="6.5"/><rect x="214.7" y="221.9" width="8.5" height="7.9"/></g><g><rect x="228.7" y="215.4" width="8.5" height="6.5"/><rect x="228.7" y="221.9" width="8.5" height="7.9"/></g><path d="M233,231.7l-37.7,32.8h-20.7v-32.8H233z"/><path d="M186.7,264.4l-10.4,9.4l-24-7.2l16.2-35h6.1v32.8H186.7z"/><path d="M152.3,266.7l-0.5-10v-15.5l43.8-86.4v12.6L183.1,212l-8.5,19.6h-6.1L152.3,266.7z"/><path d="M154.4,236v20.7l38.2-87.1v-8.1L154.4,236z"/><path d="M162.5,220.2l13.9-49.9l11.9,3.5c0,0,0.4,14.3-3.2,27c-2.1,7.4-9.6,22.2-9.6,22.2L162.5,220.2z"/><path d="M176.6,170.3c2.2,0.6,0.9,12.3-2.9,26c-3.8,13.8-8.7,24.4-10.9,23.8c-2.2-0.6-0.9-12.3,2.9-26 C169.5,180.3,174.4,169.7,176.6,170.3z"/><path d="M173.7,179.4c1.3,0.4,0.4,7.7-2,16.4c-2.4,8.7-5.4,15.5-6.7,15.1c-1.3-0.4-0.4-7.7,2-16.4 C169.4,185.8,172.5,179,173.7,179.4z"/><path d="M177.7,174.2l10.6,2.9"/><path d="M177.4,178.1l10.7,2.9"/><path d="M177,181l10.9,2.8"/><path d="M176.4,184.6l11.2,2.8"/><path d="M175.9,187.4l11.4,2.6"/><path d="M174.8,192.1l11.6,3.5"/><path d="M174.2,194.5l11.7,3.3"/><path d="M172.9,199.1l11.7,3.3"/><path d="M172.2,201.3l11.5,3.4"/><path d="M170.5,206.4l11.2,3.3"/><path d="M169.7,208.6l11.1,3.1"/><path d="M168.2,212.2l10.9,3.2"/><path d="M167.5,213.8l10.8,3.2"/><path d="M166.1,216.6l10.9,3.4"/><path d="M165,218.4l11.2,3.2"/><path d="M456.2,231.7l0.1-19.6l-13.7-14.7l0.1,19.3L456.2,231.7z"/><path d="M456.4,212l-0.1,19.6h69.2l-8.5-19.6H456.4z"/><path d="M467,231.7l37.7,32.8h20.7v-32.8H467z"/><path d="M513.3,264.4l10.4,9.4l24-7.2l-16.2-35h-6.1v32.8H513.3z"/><path d="M547.7,266.7l0.5-10v-15.5l-43.8-86.4v12.6l12.5,44.6l8.5,19.6h6.1L547.7,266.7z"/><path d="M545.6,236v20.7l-13.7-31.4h-6.4l-6.3-14.6l-11.8-41.2v-8.1L545.6,236z"/><path d="M195.5,167.5h308.9l12.5,44.6h-60.6l-13.7-14.7H257.3L243.6,212h-60.6L195.5,167.5z"/><path d="M257.3,197.3h185.3l0.1,19.3l-4.8-4.6H262.1l-4.8,4.6L257.3,197.3z"/><path d="M511.5,218.4h-47.1v6.9h50.7L511.5,218.4z"/><path d="M514.3,180l2.4,5.6v5.8l-2.5-6L514.3,180z"/><path d="M518.3,188.1l2.4,5.6v5.9l-2.5-6L518.3,188.1z"/><path d="M522.3,196.2l2.4,5.6v5.8l-2.5-6L522.3,196.2z"/><path d="M526.3,204.3l2.4,5.6v5.9l-2.5-6L526.3,204.3z"/><rect x="473.4" y="148.4" width="27.4" height="6.5"/><path d="M473.4,149.7l-3.7,2.1v3.1h3.7V149.7z"/><path d="M500.7,149.7l3.7,2.1v3.1h-3.7V149.7z"/></g><path id="Visor_Macrobinoculars_Brow_Recon" d="M496.2,157.9c0.8,0,1.5,0.3,2.1,0.9c0.5,0.5,0.9,1.3,0.9,2.1 c0,0.2,0,0.5,0,0.7c0,0.8-0.3,1.5-0.9,2.1c-0.5,0.5-1.3,0.9-2.1,0.9H203.8c-0.8,0-1.5-0.3-2.1-0.9c-0.5-0.5-0.9-1.3-0.9-2.1 c0-0.2,0-0.5,0-0.7c0-0.8,0.3-1.5,0.9-2.1c0.5-0.5,1.3-0.9,2.1-0.9H496.2z" style="fill: rgb(35, 51, 82);"/></g></g></g><g transform="translate(199, 588)" id="Shoulders_Current"><g id="LeftShoulder_Current"><g id="Left-Shoulder_M"><g id="Legacy-x2_Shoulder_Left_M" class="option" style="display: inherit;"><path id="Plate-2_Shoulder_Left_Legacy-x2_M" d="M1029.5,131.5L968,224.2l63.1,88.4l99.6-24.4l62.5,38.7l46.8-12.3 L1029.5,131.5z" style="fill: rgb(15, 20, 12);"/><path id="Trauma-Plate-2_Shoulder_Legacy-x2_Left_M" d="M1195.9,307.6l30.2-7.9l-181.3-158.9l-55,82.6 l48.7,68.5l91.6-23.2L1195.9,307.6z" class="toggle" style="fill: rgb(23, 31, 20);"/><path id="Plate-1_Shoulder_Left_Legacy-x2_M" d="M953.8,84.1l-27.7,107.7l88.6,62.8l86-55.7l71.7,16.1l40.1-27 L953.8,84.1z" style="fill: rgb(17, 22, 17);"/><path id="Trauma-Plate-1_Shoulder_Legacy-x2_Left_M" d="M1168.9,195.8l25.9-17.4L971.3,88.1l-24.7,96.2 l68.6,48.6l78.8-52.1L1168.9,195.8z" class="toggle" style="fill: rgb(20, 27, 18);"/></g></g></g><g id="RightShoulder_Current"><g id="Right-Shoulder_M"><g id="Gunslinger-Bell_Shoulder_Right_M" class="option" style="display: inherit;"><path id="Main_Gunslinger-Bell_Shoulder_Right_M" d="M395,143.7c-65.3-1.6-211.1,50.8-205.3,237.3l0.8,36.8 l126.9,52.1l111.3-148.8l0-177.4L395,143.7z" style="fill: rgb(71, 80, 89);"/><path id="Ridge_Gunslinger-Bell_Shoulder_Right_M" d="M428.8,143.7L428.8,143.7l0-21.5 c-138.9-0.7-270.4,59.1-260.3,289.4l21.3,5c0.2-2.7,0.4-5.4,0.6-8l-0.6-27.6C183.9,194.5,329.7,142.1,395,143.7l7.2,0 C416.7,141.7,426.5,142.2,428.8,143.7L428.8,143.7L428.8,143.7z" class="toggle" style="fill: rgb(22, 37, 21);"/><g id="Trim_Gunslinger-Bell_Shoulder_Right_M" class="toggle" style="fill: rgb(57, 64, 71);"><rect x="395" y="135.4" width="33.8" height="186"/><path d="M395,309.9l33.8,11.2l-111.5,149l-27-20.2L395,309.9z"/><path d="M306.1,428.7l11.8,41.4l-133.3-54.7v-36.5L306.1,428.7z"/></g></g></g></g></g><g id="Lower-Body_M_Wrapper" transform="translate(268,1340)"><g id="Knees_Current"><g id="LeftKnee_Current"><g id="Left-Knee_M"><g id="None-(Nih-Plates)_Knee_Left_M" class="option" style="display: inherit;"></g></g></g><g id="RightKnee_Current"><g id="Right-Knee_M"><g id="None-(Nih-Plates)_Knee_Right_M" class="option" style="display: inherit;"></g></g></g></g><g id="Shins_Current"><g id="LeftShin_Current"><g id="Left-Shin_M"><g id="Heavy-Shnees_Shin_Left_M" class="option" style="display: inherit;"><g id="Shin_Heavy-Shnees-Shin_Left_M" style="fill: rgb(19, 25, 17);"><path d="M920.1,1601.8l49.6-65l90.3-10.8l-64.6-592.6l-257.5,32.2l130.7,548.9l1,60.1L920.1,1601.8"/><path d="M778.1,952.5l-27.8-22.8h-18.4c0,0-8.5,52.7-6.7,79c3,42.5,46,96.6,46,96.6l28.5,13.5l31.9-73.9 L778.1,952.5"/><path d="M970.5,1011.8l17.4-88.9c0,0,25.6,50.2,28,76.4c4.3,46.4-4.9,77.1-4.9,77.1L970.5,1011.8"/><path d="M969.7,1536.7l90.3-10.8l-22.3-45.5L976,1486L969.7,1536.7"/><path d="M1005.7,1483.3l-72.4-389.4"/></g><g id="Knee_Heavy-Shnees-Shin_Left_M" style="fill: rgb(15, 20, 12);"><path d="M940.4,843.7l-144.9,24.4l-21.6,105.4l106.6,129.2l95.9-13.7l30.7-159.4L940.4,843.7"/><path d="M795.5,868.1l31.1,37.9l112.2-17.7l1.7-44.6L795.5,868.1"/><path d="M826.5,905.9l-52.6,67.2l21.6-105.1L826.5,905.9"/><path d="M938.7,888.3l68.3,41.4l-66.6-86L938.7,888.3"/><path d="M938.7,888.3l37.6,200.7l30.7-159.4L938.7,888.3"/><path d="M826.5,905.9l-52.7,67.2l106.6,129.5L826.5,905.9"/></g><g id="Straps_Heavy-Shnees-Shin_Left_M" class="toggle" style="fill: rgb(20, 18, 17);"><path d="M789.2,1197.1l55.4-9.2l5.8,25l-55.4,9.2L789.2,1197.1"/><path d="M792.9,1194.5l11.7-1.9l6.8,29.6l-11.7,1.9L792.9,1194.5"/><path d="M846.2,1439.1l55.4-9.2l5.8,25l-55.4,9.2L846.2,1439.1"/><path d="M849.8,1436.5l11.7-1.9l6.8,29.6l-11.7,1.9L849.8,1436.5"/></g></g></g></g><g id="RightShin_Current"><g id="Right-Shin_M"><g id="Heavy-Shnees_Shin_Right_M" class="option" style="display: inherit;"><g id="Shin_Heavy-Shnees-Shin_Right_M" style="fill: rgb(19, 25, 17);"><path d="M345.1,1601.8l-49.6-65l-90.3-10.8l64.6-592.6l257.5,32.2l-130.7,548.9l-1,60.1L345.1,1601.8"/><path d="M487.1,952.5l27.8-22.8h18.4c0,0,8.5,52.7,6.7,79c-3,42.5-46,96.6-46,96.6l-28.5,13.5l-31.9-73.9 L487.1,952.5"/><path d="M294.7,1011.8l-17.4-88.9c0,0-25.6,50.2-28,76.4c-4.3,46.4,4.9,77.1,4.9,77.1L294.7,1011.8"/><path d="M295.5,1536.7l-90.3-10.8l22.3-45.5l61.7,5.6L295.5,1536.7"/><path d="M259.5,1483.3l72.4-389.4"/></g><g id="Knee_Heavy-Shnees-Shin_Right_M" style="fill: rgb(15, 20, 12);"><path d="M324.8,843.7l144.9,24.4l21.6,105.4l-106.6,129.2l-95.9-13.7l-30.7-159.4L324.8,843.7"/><path d="M469.7,868.1l-31.1,37.9l-112.2-17.7l-1.7-44.6L469.7,868.1"/><path d="M438.7,905.9l52.6,67.2l-21.6-105.1L438.7,905.9"/><path d="M326.5,888.3l-68.3,41.4l66.6-86L326.5,888.3"/><path d="M326.5,888.3L288.9,1089l-30.7-159.4L326.5,888.3"/><path d="M438.7,905.9l52.7,67.2l-106.6,129.5L438.7,905.9"/></g><g id="Straps_Heavy-Shnees-Shin_Right_M" class="toggle" style="fill: rgb(20, 18, 17);"><path d="M476,1197.1l-55.4-9.2l-5.8,25l55.4,9.2L476,1197.1"/><path d="M472.3,1194.5l-11.7-1.9l-6.8,29.6l11.7,1.9L472.3,1194.5"/><path d="M419,1439.1l-55.4-9.2l-5.8,25l55.4,9.2L419,1439.1"/><path d="M415.4,1436.5l-11.7-1.9l-6.8,29.6l11.7,1.9L415.4,1436.5"/></g></g></g></g></g><g id="Ankles_Current"><g id="LeftAnkle_Current"><g id="Left-Ankle_M"><g id="Legacy_Ankle_Left_M" class="option" style="display: inherit;"><path id="Plate-2_Legacy-Ankle_Left_M" d="M1075.2,1585.1l46,41.5l31.7,39.8l-50.7,16.5l-116.1-24.1l-42.4-56.2 L1075.2,1585.1" style="fill: rgb(14, 20, 12);"/><path id="Plate-1_Legacy-Ankle_Left_M" d="M866.4,1506.9c0,0,46.4,20.7,114.9,18.2c47.1-1.7,66.2-13.5,66.2-13.5 l39.8,73.8l-10.3,40.8L909.1,1613l-41.3-35L866.4,1506.9" style="fill: rgb(14, 20, 12);"/><path id="Trauma-Plate-2_Legacy-Ankle_Left_M" d="M1085.1,1594l35.9,32.4l18.6,23.2l-38.6,12.5 l-102.2-21.3l-16.8-22.2l95,7.5L1085.1,1594" class="toggle" style="fill: rgb(25, 30, 23);"/><path id="Trauma-Plate-1_Legacy-Ankle_Left_M" d="M883.9,1532.7l0.7,33.8l33.4,27.1l147.5,11.6l10.4-40.7 l-18.8-34.8c-12.4,3.6-50.3,14.5-75.1,15.4C942.8,1546.5,905.9,1538.4,883.9,1532.7" class="toggle" style="fill: rgb(25, 30, 23);"/></g></g></g><g id="RightAnkle_Current"><g id="Right-Ankle_M"><g id="Legacy_Ankle_Right_M" class="option" style="display: inherit;"><path id="Plate-2_Legacy-Ankle_Right_M" d="M189.8,1585.1l-46,41.5l-31.7,39.8l50.7,16.5l116.1-24.1l42.4-56.2 L189.8,1585.1" style="fill: rgb(14, 20, 12);"/><path id="Plate-1_Legacy-Ankle_Right_M" d="M398.6,1506.9c0,0-46.4,20.7-114.9,18.2c-47.1-1.7-66.2-13.5-66.2-13.5 l-39.8,73.8l10.3,40.8l167.8-13.2l41.3-35L398.6,1506.9" style="fill: rgb(14, 20, 12);"/><path id="Trauma-Plate-2_Legacy-Ankle_Right_M" d="M179.9,1594l-35.9,32.4l-18.6,23.2l38.6,12.5 l102.2-21.3l16.8-22.2l-95,7.5L179.9,1594" class="toggle" style="fill: rgb(25, 30, 23);"/><path id="Trauma-Plate-1_Legacy-Ankle_Right_M" d="M381.1,1532.7l-0.7,33.8l-33.4,27.1l-147.5,11.6 l-10.4-40.7l18.8-34.8c12.4,3.6,50.3,14.5,75.1,15.4C322.2,1546.5,359.1,1538.4,381.1,1532.7" class="toggle" style="fill: rgb(25, 30, 23);"/></g></g></g></g><g id="Toes_Current"><g id="LeftToe_Current"><g id="Left-Toe_M"><g id="Armored_Toe_Left_M" class="option" style="display: inherit;"><g id="Plate_Armored_Toe_Left_M" style="fill: rgb(25, 30, 23);"><path d="M994.2,1696l102.1,56.7l77.1,5.3l61.8-15.7c12.9-10.8,18.1-35,7-59.2l-87-41.4l-68.3,17.1L994.2,1696"/><path d="M1079.7,1661.9c0,0,79.6,23.3,89.6,37.1c11,15.3,4.1,58.9,4.1,58.9"/></g><g id="Trim_Armored_Toe_Left_M" style="fill: rgb(14, 20, 12);"><path d="M1143.3,1635l-81.9,19.8l-69.1,42l14.3,7.9l73.3-42.9l81.6-19.2L1143.3,1635"/><path d="M1061.3,1654.9l18.4,7.1"/></g></g></g></g><g id="RightToe_Current"><g id="Right-Toe_M"><g id="Armored_Toe_Right_M" class="option" style="display: inherit;"><g id="Plate_Armored_Toe_Right_M" style="fill: rgb(25, 30, 23);"><path d="M270.8,1696l-102.1,56.7l-77.1,5.3l-61.8-15.7c-12.9-10.8-18.1-35-7-59.2l87-41.4l68.3,17.1L270.8,1696"/><path d="M185.3,1661.9c0,0-79.6,23.3-89.5,37.1c-11,15.3-4.1,58.9-4.1,58.9"/></g><g id="Trim_Armored_Toe_Right_M" style="fill: rgb(14, 20, 12);"><path d="M121.7,1635l81.9,19.8l69.1,42l-14.3,7.9l-73.3-42.9l-81.6-19.2L121.7,1635"/><path d="M203.7,1654.9l-18.4,7.1"/></g></g></g></g></g><g id="Thighs_Current"><g id="LeftThigh_Current"><g id="Left-Thigh_M"><g id="Basic_Thigh_Left_M" class="option" style="display: inherit;"><path id="Thigh_Basic-Thigh_Left_M" d="M1006.3,442.8c0,0-53.3-68.5-80.5-79.9c-25.8-10.8-60.3-6.1-82.5,11.6 c-33.8,27.1-111.4,85.7-120.2,151c-9.8,72.9,43.2,234.1,61.3,286.1c6.1,17.7,29.3,25.7,47,26.4c32.8,1.2,122.6-1.6,144.1-50 C1004.6,722.2,1006.3,442.8,1006.3,442.8" style="fill: rgb(15, 20, 12);"/><path id="Trauma-Plate_Basic-Thigh_Left_M" d="M988.3,449c-8-9.9-27.1-33.1-45.5-50.9 c-8.8-8.5-17.2-15.8-23.8-18.6c-20.1-8.4-47-4.8-64.3,9.1c-19.6,15.7-54.6,42.3-81.2,74.8c-16.1,19.7-29.4,41.6-32.5,64.5 c-9.5,70.8,42.9,227.2,60.4,277.8c1.5,4.4,5.7,7.2,10.1,9.3c6.5,3.2,14.1,4.7,20.6,5c18.4,0.7,55.9,0.2,87.2-10.2 c17.3-5.7,33.1-14.1,39.7-29.1c8.3-18.7,13.8-55.7,18.1-98.1C986.2,592,988,477,988.3,449" class="toggle" style="fill: rgb(19, 25, 17);"/><g id="Ridge_Basic-Thigh_Left_M" class="toggle" style="fill: rgb(15, 20, 12);"><path d="M916.4,357.2l-36.8-9.5L841,369l12.5,469.2c25.4,4.9,25.8,5.9,48.1-0.8L916.4,357.2"/><path d="M879.9,347.8l-1,494.3"/></g></g></g></g><g id="RightThigh_Current"><g id="Right-Thigh_M"><g id="Basic_Thigh_Right_M" class="option" style="display: inherit;"><path id="Thigh_Basic-Thigh_Right_M" d="M258.9,442.8c0,0,53.3-68.5,80.5-79.9c25.8-10.8,60.3-6.1,82.5,11.6 c33.8,27.1,111.4,85.7,120.2,151c9.8,72.9-43.2,234.1-61.3,286.1c-6.1,17.7-29.3,25.7-47,26.4c-32.8,1.2-122.6-1.6-144.1-50 C260.6,722.2,258.9,442.8,258.9,442.8" style="fill: rgb(15, 20, 12);"/><path id="Trauma-Plate_Basic-Thigh_Right_M" d="M276.9,449c8-9.9,27.1-33.1,45.5-50.9 c8.8-8.5,17.2-15.8,23.8-18.6c20.1-8.4,47-4.8,64.3,9.1c19.6,15.7,54.6,42.3,81.2,74.8c16.1,19.7,29.4,41.6,32.5,64.5 c9.5,70.8-42.9,227.2-60.4,277.8c-1.5,4.4-5.7,7.2-10.1,9.3c-6.5,3.2-14.1,4.7-20.6,5c-18.4,0.7-55.9,0.2-87.2-10.2 c-17.3-5.7-33.1-14.1-39.7-29.1c-8.3-18.7-13.8-55.7-18.1-98.1C279,592,277.2,477,276.9,449" class="toggle" style="fill: rgb(19, 25, 17);"/><g id="Ridge_Basic-Thigh_Right_M" class="toggle" style="fill: rgb(15, 20, 12);"><path d="M348.8,357.2l36.8-9.5l38.6,21.3l-12.5,469.2c-25.4,4.9-25.8,5.9-48.1-0.8L348.8,357.2"/><path d="M385.3,347.8l1,494.3"/></g></g></g></g></g><g id="Groin_Current"><g id="Groin_M"><g id="Basic_Groin_M" class="option" style="display: inherit;"><path id="Groin-Plate_Basic_M" d="M566.1,514.1L455.3,270.1h354.3L698.8,514.1l-66.4,58.2L566.1,514.1z" style="fill: rgb(15, 20, 12);"/><path id="Trauma-Plating_Groin_M" d="M577.8,493.8l-91.3-201.1h291.9l-91.3,201.1l-54.7,47.9L577.8,493.8z" class="toggle" style="fill: rgb(19, 25, 17);"/></g></g></g><g id="Waist_Current" class="M"><g id="Accessories_Waist_M"><g id="Kama_M" class="toggle" style=""><g id="Tattered_Kama_M" class="option" style="display: inherit;"><g id="Main_Kama-Tattered" style="fill: rgb(12, 17, 12);"><path d="M913.8,74.3c24.1-5.3,35.6,128.5,49.8,193.1c6.4,29.3,7.4,58.9,15,88.2c13.2,50.9,36.7,101.7,47.7,151.7 c8.8,40,3.2,81.3,12.9,121.4c7.4,30.4,22.7,56.7,32.9,85.7c11.4,32.5,18.5,65,26.7,98.4c5,20.3,10.9,39.9,17.5,59.8 c2.2,6.7,4.1,13.5,5.8,20.4c0.5,2.1,1,4.2,1.5,6.3c0.3,1.3,1.8,4.7,0.8,3.8c-6.9-6.1-10.6-17.6-17-24.7 c-12.5-13.9-28.2-24.3-40-38.9c-4.6-5.6-8.1-11.9-11.3-18.4c-0.3-0.6-2.4-5.5-2.6-5.5c-24.2,5.1-48.3,14.3-68.9-6.3 c-16.4-16.3-30.5-51.5-38.8-73.3c-3.5-9.1,1.2-63-5-68.1c-4.6-3.7-8.8,44.8-14.3,41.5c-34.8-20.5-84.2-32.8-84.2-32.8 s-3.9-68.7-1-108c2.5-35.3-2.4-66-7.6-100.5c-6.7-44.7-5.9-90.6-2.9-135.5C835.4,260,779.6,103.9,913.8,74.3z M993.5,735 c-4.3,18.1-4.7,38.9,5.6,55.2c3.4,5.5,12.1,14.2,19.6,11.8c31.7-9.8-7.2-58.6-17.3-69.5L993.5,735z M900.5,602.3 c-5.7,3.5-10.7,7.6-14.8,12.9c-15,19.1,26.2,9.6,19.1-13.6L900.5,602.3z"/><path d="M351.7,74.3c-24.1-5.3-35.6,128.5-49.8,193.1c-6.4,29.3-7.4,58.9-15,88.2 c-13.2,50.9-36.7,101.7-47.7,151.7c-8.8,40-3.2,81.3-12.9,121.4c-7.4,30.4-22.7,56.7-32.9,85.7c-11.4,32.5-18.5,65-26.7,98.4 c-5,20.3-10.9,39.9-17.5,59.8c-2.2,6.7-4.1,13.5-5.9,20.4c-0.5,2.1-1,4.2-1.5,6.3c-0.3,1.3-1.8,4.7-0.8,3.8 c6.9-6.1,10.6-17.6,17-24.7c12.5-13.9,31.9-2.5,43.8-17.1c4.6-5.6,10.6-18.9,13.8-25.4c0.3-0.6,8.6-16.5,8.9-16.5 c24.2,5.1,9.1,23.3,29.7,2.7c16.4-16.3,57.2-64.3,65.6-86.1c3.5-9.1-3.2-28.2,3-33.3c4.6-3.7,10.8,10,16.3,6.7 c34.8-20.5,78-59.1,78-59.1s10.1-42.4,7.3-81.7c-2.5-35.3,2.4-66,7.6-100.5c6.7-44.7,5.9-90.6,2.9-135.5 C430.1,260,485.9,103.9,351.7,74.3z M263.3,747.2c4.3,18.1,3.7,14.9-6.6,31.2c-3.4,5.5-2.3,25.9-9.9,23.6 c-31.7-9.8,7.1-58.6,17.3-69.5L263.3,747.2z M338.4,663c5.7,3.5,24-1,28.2,4.2c15,19.1-41.5,35.6-34.4,12.4L338.4,663z"/></g></g></g><g id="Right-Holster_M" class="toggle" style=""><g id="Thigh-Plate-Holster_Right_M" class="option" style="display: inherit;"><g id="Weapon_Thigh-Plate-Holster-Right_M"><g id="Main_Weapon_Thigh-Plate-Holster-Right_M" style="fill: rgb(73, 73, 73);"><path d="M293.2,424.5l-2.5-38.3l-6.6,0.4l-1.6-24.1l6.6-0.4l-0.8-12.5c-0.3-4.1-5.9-7-12.6-6.6 c-15.3,1-41.6,2.7-56.9,3.7c-6.7,0.4-11.9,4.1-11.6,8.2l0.8,12.5l6.6-0.4l1.6,24.1l-6.6,0.4l2.5,38.3l15.5-1l6.9,106.1 l50.2-3.3l-6.9-106.1L293.2,424.5z"/><path d="M218.3,423.7l8.9-0.6l8.3,127.5l50.2-3.3l-8.3-127.5l8.9-0.6l-1.9-29.1l-68,4.4L218.3,423.7z"/><path d="M227.7,354.4l40.3-2.6l2.6,39.4l-40.3,2.6L227.7,354.4z"/><path d="M266.6,432.1l6.6-0.4l6.6,100.3l-6.6,0.4L266.6,432.1z"/><path d="M248.2,410.3l6.6-0.4l9.2,140.8l-6.6,0.4L248.2,410.3z"/><path d="M232.9,434.3l6.6-0.4l7.3,111.3l-6.6,0.4L232.9,434.3z"/></g><g id="Accent_Weapon_Thigh-Plate-Holster-Right_M" style="fill: rgb(41, 40, 40);"><path d="M256.3,432.8l10.2-0.7l6.6,100.3l-10.2,0.7L256.3,432.8z"/><path d="M239.5,433.9l10.3-0.7l7.3,111.3l-10.3,0.7L239.5,433.9z"/><path d="M261.3,352.2l6.6-0.4l2.6,39.4l-6.6,0.4L261.3,352.2z"/><path d="M227.7,354.4l6.6-0.4l2.6,39.4l-6.6,0.4L227.7,354.4z"/><path d="M264.8,395.5l0.3,4l-28.4,1.9l-0.3-4L264.8,395.5z"/><path d="M265.1,399.5l0.3,4l-28.4,1.9l-0.3-4L265.1,399.5z"/><path d="M264.6,391.5l0.3,4l-28.4,1.9l-0.3-4L264.6,391.5z"/><path d="M261.3,342.1l0.3,4l-28.4,1.9l-0.3-4L261.3,342.1z"/></g></g><path id="Holster_Thigh-Plate-Holster-Right_M" d="M224.9,543.8l35.6-2.4l19.9-72.4l10.9-0.7L313,790 c0,0-30.1,2-51.1,3.5c-5.3,0.4-10.6-1.4-14.6-4.9c-4-3.5-6.5-8.5-6.8-13.8C236.5,715.3,224.9,543.8,224.9,543.8z" style="fill: rgb(14, 17, 12);"/></g></g></g><g id="Under-Belt_M"><g id="Girth-Belt_M" class="option" style="display: inherit; fill: rgb(9, 15, 8);"><path d="M632.4,115.8c-98.8,0-296.5-24-296.5-24l6.4-20.3c0,0,192.8,16,290.1,24c96.8-8,290.1-24,290.1-24l6.4,20.3 C929,91.8,731.3,115.8,632.4,115.8z"/><path d="M632.4,136.1c-100.9,0-302.7-24-302.7-24l6.2-20.3c0,0,247.1,20,296.5,24c49.4-4,296.5-24,296.5-24l6.2,20.3 C935.1,112.1,733.3,136.1,632.4,136.1z"/><path d="M632.4,156.5c-102.4,0-307.3-24-307.3-24l4.6-20.3c0,0,252.3,20,302.7,24c50.5-4,302.7-24,302.7-24l4.6,20.3 C939.7,132.5,734.9,156.5,632.4,156.5z"/><path d="M632.4,176.8c-103.7,0-311.2-24-311.2-24l3.9-20.3c0,0,256.1,20,307.3,24c51.2-4,307.3-24,307.3-24l3.9,20.3 C943.6,152.8,736.2,176.8,632.4,176.8z"/><path d="M632.4,197.1c-104.9,0-314.7-24-314.7-24l3.5-20.3c0,0,259.3,20,311.2,24c51.9-4,311.2-24,311.2-24l3.5,20.3 C947.1,173.1,737.3,197.1,632.4,197.1z"/><path d="M632.4,217.5c-106,0-318-24-318-24l3.3-20.3c0,0,262.2,20,314.7,24c52.4-4,314.7-24,314.7-24l3.3,20.3 C950.4,193.5,738.4,217.5,632.4,217.5z"/><path d="M632.4,237.8c-107.1,0-321.2-24-321.2-24l3.3-20.3c0,0,265,20,318,24c53-4,318-24,318-24l3.3,20.3 C953.7,213.8,739.5,237.8,632.4,237.8z"/><path d="M632.4,258.1c-108.2,0-324.6-24-324.6-24l3.4-20.3c0,0,267.7,20,321.2,24c53.5-4,321.2-24,321.2-24l3.3,20.3 C957,234.1,740.6,258.1,632.4,258.1z"/><path d="M632.4,278.5c-109.4,0-328.2-24-328.2-24l3.7-20.3c0,0,270.5,20,324.6,24c54.1-4,324.6-24,324.6-24l3.7,20.3 C960.7,254.5,741.8,278.5,632.4,278.5z"/><path d="M632.4,298.8c-110.8,0-332.4-24-332.4-24l4.2-20.3c0,0,273.5,20,328.2,24c54.7-4,328.2-24,328.2-24l4.2,20.3 C964.8,274.8,743.2,298.8,632.4,298.8z"/></g></g><g id="Belt_M"><g id="Pouch-Belt-4_M" class="option" style="display: inherit;"><path id="Main_Pouch-Belt-4_M" d="M953.4,201.3c-72.3,6.5-237.4,30.1-320.8,30.1c-84.2,0-249.3-23.8-320.7-30.1 l10.7-84.6C381.2,122,551.1,146,632.6,146c79.1,0,245.5-23.8,308.1-29.5L953.4,201.3z" style="fill: rgb(10, 10, 9);"/><rect id="Buckle_Pouch-Belt-4_M" x="573.5" y="137.9" width="119.5" height="98.1" style="fill: rgb(71, 80, 89);"/><g id="Pouches_Pouch-Belt-4_M" style="fill: rgb(25, 19, 17);"><g><g><path d="M364.6,100.2c-3.3-0.2-6.6,0.4-9.7,1.7c-7.1,3.1-19.7,8.6-19.7,8.6l78.2,4.5l21.2-10.1 C434.6,104.9,381.4,101.3,364.6,100.2z"/><path d="M437.3,107.9c0.1-0.9-0.3-1.8-1.1-2.4c-0.8-0.5-1.7-0.6-2.6-0.2c-7,3.3-20.3,9.6-20.3,9.6l-10.8,132.4 c6.9-4.4,13.7-7.3,20.5-9c4.2-1,7.2-4.7,7.3-8.9C431.7,188.8,433.4,148.3,437.3,107.9z"/><path d="M413.4,115l-78.2-4.5c-0.6,20.1-2.4,40.2-3.5,60.3c-1.1,22.2-1.7,44.5-3.6,66.9c-0.1,1.6,0.4,3.2,1.5,4.4 c1.1,1.2,2.7,1.9,4.3,1.8c22.1-0.2,44,1.1,65.9,3.8c1.5,0.2,3.1-0.3,4.3-1.2c1.2-1,1.9-2.4,2-3.9c1.1-15.7,3.9-56.9,3.9-56.9 L413.4,115z"/><path d="M413.4,115l-78.2-4.5c0,0-2,17.1-3.8,33.6c-0.9,8,1.5,16,6.7,22.2c5.2,6.2,12.7,9.9,20.7,10.4 c7.7,0.4,15.9,0.9,23.6,1.4c8.1,0.5,16-2.4,21.8-8c5.9-5.5,9.2-13.3,9.2-21.3C413.4,132.1,413.4,115,413.4,115z"/><path d="M371.5,161.7c2.8,0.2,4.9,2.8,4.7,5.8c-0.2,3-2.6,5.4-5.3,5.2c-2.8-0.2-4.9-2.8-4.7-5.8 C366.4,163.8,368.8,161.5,371.5,161.7z"/></g></g><g><path d="M285.7,109l5.8-9.1l30,1l3.7,11.3L285.7,109z"/><path d="M325.1,113.3c0.1-0.7-0.1-1.4-0.6-2c-0.5-0.5-1.1-0.9-1.9-0.9c-9-0.3-36.9-1.4-36.9-1.4L280.4,228 c1.2,3,16.3,4.9,28.4,5.2c5.3,0.1,9.7-4.1,9.8-9.3C319.5,187,320.8,150,325.1,113.3z"/></g><g><g><path d="M900.7,100.2c3.3-0.2,6.6,0.4,9.7,1.7c7.1,3.1,19.7,8.6,19.7,8.6l-78.2,4.5l-21.2-10.1 C830.6,104.9,883.8,101.3,900.7,100.2z"/><path d="M827.9,107.9c-0.1-0.9,0.3-1.8,1.1-2.4c0.8-0.5,1.7-0.6,2.6-0.2c7,3.3,20.3,9.6,20.3,9.6l10.8,132.4 c-6.9-4.4-13.7-7.3-20.5-9c-4.2-1-7.2-4.7-7.3-8.9C833.5,188.8,831.8,148.3,827.9,107.9z"/><path d="M851.9,115l78.2-4.5c0.6,20.1,2.4,40.2,3.5,60.3c1.1,22.2,1.7,44.5,3.6,66.9c0.1,1.6-0.4,3.2-1.5,4.4 c-1.1,1.2-2.7,1.9-4.3,1.8c-22.1-0.2-44,1.1-65.9,3.8c-1.5,0.2-3.1-0.3-4.3-1.2c-1.2-1-1.9-2.4-2-3.9 c-1.1-15.7-3.9-56.9-3.9-56.9L851.9,115z"/><path d="M851.9,115l78.2-4.5c0,0,2,17.1,3.8,33.6c0.9,8-1.5,16-6.7,22.2c-5.2,6.2-12.7,9.9-20.7,10.4 c-7.7,0.4-15.9,0.9-23.6,1.4c-8.1,0.5-16-2.4-21.8-8c-5.9-5.5-9.2-13.3-9.2-21.3C851.8,132.1,851.9,115,851.9,115z"/><path d="M893.7,161.7c-2.8,0.2-4.9,2.8-4.7,5.8c0.2,3,2.6,5.4,5.3,5.2c2.8-0.2,4.9-2.8,4.7-5.8 C898.8,163.8,896.4,161.5,893.7,161.7z"/></g></g><g><path d="M979.5,109l-5.8-9.1l-30,1l-3.7,11.3L979.5,109z"/><path d="M940.1,113.3c-0.1-0.7,0.1-1.4,0.6-2c0.5-0.5,1.1-0.9,1.9-0.9c9-0.3,36.9-1.4,36.9-1.4l5.3,119.1 c-1.2,3-16.3,4.9-28.4,5.2c-5.3,0.1-9.7-4.1-9.8-9.3C945.7,187,944.4,150,940.1,113.3z"/></g></g></g></g></g></g><g id="Helmet_M_Wrapper" transform="translate(550,35)"><g id="Helmet_Current"/></g><g id="Shoulders_Current" transform="translate(199,588)"><g id="LeftShoulder_Current"/><g id="RightShoulder_Current"/></g><g id="Front_M" transform="translate(0,550)"><g id="Cape_M"></g></g></svg>
