<svg id="Male-Body" viewBox="0 0 1800 3300" version="1.1" xmlns="http://www.w3.org/2000/svg" style="stroke:black;stroke-width:2px;fill-rule:evenodd;height:100%;"><g id="Back_M" transform="translate(0,560)"><g id="Cape_M"><g id="None_Back_M" class="option" style="display: inherit;"></g></g></g><g id="Flight-Suit" transform="translate(260,575)"><g id="Soft-Parts_M"><g id="Suit_M"><g id="Neck-Seal_M"><path id="Plain-Neck-Seal_M" d="M774.5,39.6l31.2,72.9l-2.2,72.3l-163.5,17v0.1l-0.3,0l-0.3,0v-0.1l-162.5-17 l-2.2-72.3l31.2-72.9L640,46.7L774.5,39.6" class="option" style="display: inherit; fill: rgb(13, 12, 12);"/></g><g id="Flight-Suit_M" style="fill: rgb(19, 19, 19);"><path d="M516.6,1664.2l-15.7,92.9L384,2323.3c0,0-52.3,31.5-79.1,36.9c-26.8,5.4-81.9-4.7-81.9-4.7l40.8-458.5 l30.8-195.8l7-83.3c0,0-26.8-242.9-18.1-364c8.7-121.1,70.6-362.6,70.6-362.6l285.9,6.2l285.9-6.2c0,0,61.8,241.5,70.6,362.6 c8.7,121.1-18.1,364-18.1,364l7,83.3l30.8,195.8l40.8,458.5c0,0-56.4,12.7-83.2,7.3c-26.8-5.4-77.8-39.6-77.8-39.6l-116.9-566.3 l-15.7-92.9l-123.2-323.4L516.6,1664.2z"/><g><path d="M1110.7,436.8l127,444l11,228.9l-101.2,19.5l-64.2-215.5L938.7,551.9l7.3-165.8l24.5-39.6L1110.7,436.8z"/><path d="M169.3,436.6l139.9-90.1l24.5,39.6l5.5,171L196.7,913.8l-64.2,215.5l-101.2-19.5l11-228.9L169.3,436.6z"/></g></g></g><g id="Boots_M"><g id="Tall_Boots_M" class="option" style="display: inherit;"><g id="Bottom_Tall-Boot_M" style="fill: rgb(0, 0, 0);"><path d="M879.8,2430.7c0.3,1.4,0.6,2.8,1,4.3c10.2,18.8,38,25.2,57.1,29.7c13.5,3.2,26.5,7.6,39.2,13.1 c17.6,7.5,26.4,20.6,40.1,33.1c6.1,5.6,13.4,9.9,20.4,14.1c17.5,10.6,34.4,11.4,54.3,11.9c26.7,0.8,50.4-2.9,76.7-8.8 c23-5.2,40.2-9.5,60.1-15.1c6-1.7,13.2-2.9,16.8-7.3l3,6.7l2.2,17.5c0,0-21.5,11.6-44.5,16.7c-22.9,5.1-69.2,12.3-69.2,12.3 l-3.2-7.6l-10.4,2.2l0.5,7.5l-25.2,1.4l-5.4-7.3l-8.4,0.2l1.3,6.5c0,0-15.6-0.3-24.3-5.4c-1.7-2.5-4.8-6.5-4.8-6.5l-6-3.2 l0.8,6.1l-21.7-7.8l-1.1-8.4l-6.2-3.7l-0.3,6.1l-15.5-12l-1.7-7.4l-33.2-17.5l-11.3,4.6l-27-5.9l-0.9-5.8l-6.9-2.8l-4.8,4.5 l-18.1-7.5l-0.4-5.4l-5.9-2.1l-0.7,3.9l-17.2-11.9L879.8,2430.7z M879.1,2423.8L879.1,2423.8L879.1,2423.8L879.1,2423.8z"/><path d="M400.1,2430.7c-0.3,1.4-0.6,2.8-1,4.3c-10.2,18.8-38,25.2-57.1,29.7c-13.5,3.2-26.5,7.6-39.2,13.1 c-17.6,7.5-26.4,20.6-40.1,33.1c-6.1,5.6-13.3,9.9-20.4,14.1c-17.5,10.6-34.4,11.4-54.3,11.9c-26.7,0.8-50.4-2.9-76.7-8.8 c-23-5.2-40.2-9.5-60.1-15.1c-6-1.7-13.2-2.9-16.8-7.3l-3,6.7l-2.2,17.5c0,0,21.5,11.6,44.5,16.7c22.9,5.1,69.2,12.3,69.2,12.3 l3.2-7.6l10.4,2.2l-0.5,7.5l25.2,1.4l5.4-7.3l8.4,0.2l-1.3,6.5c0,0,15.6-0.3,24.3-5.4c1.6-2.5,4.8-6.5,4.8-6.5l6-3.2l-0.8,6.1 l21.7-7.8l1.1-8.4l6.2-3.7l0.3,6.1l15.4-12l1.7-7.4l33.2-17.5l11.3,4.6l27-5.9l0.9-5.8l6.9-2.8l4.8,4.5l18.1-7.5l0.4-5.4l5.9-2.1 l0.7,3.9l17.2-11.9L400.1,2430.7z M400.8,2423.8L400.8,2423.8L400.8,2423.8L400.8,2423.8z"/></g><g id="Main_Tall-Boot_M" style="fill: rgb(63, 35, 10);"><path d="M879.9,2288.3c-15.4-45.1-26.9-117.1-36.1-150c-6.9-24.6-38.5-158.6-33.3-175.4 c5.3-17,208.5-51.8,215.1-36.4c10,23.5,21.6,255.8,23.3,290c1.3,25,5,49.7,5,74.8l-0.1,0.1c2.6,13.7,4.9,28.3,10.5,40.6 c10.7,23.1,10.2,33.2,28.1,50.6c12.3,12,44.1,33.2,58.7,42.3c6.2,3.9,12.8,6.8,19.6,9.3l0.6,0.2c27,10.1,56.1,13.9,70.8,43.8 c3.2,6.5,5.9,14.3,5.4,21.7c-0.7,9.5-11,10.8-19,13.1c-19.9,5.7-37.1,10-60.1,15.1c-26.3,5.9-50,9.5-76.7,8.8 c-19.9-0.6-36.8-1.4-54.3-11.9c-7-4.3-14.3-8.6-20.4-14.1c-13.7-12.5-22.5-25.6-40.1-33.1c-12.7-5.4-25.8-9.9-39.2-13.1 c-19-4.5-46.8-10.9-57.1-29.7c-4-14.1,0.1-21.1,1.4-33.3l0.6-5.2c1-7.9,2.4-16,2.9-24.6c0.8-16.4-3.3-32.6-4.3-49 c-0.6-9.3-1-18.5-1.2-27.8C880.1,2294,879.7,2290.5,879.9,2288.3z"/><path d="M399.9,2288.3c15.4-45.1,26.9-117.1,36.1-150c6.9-24.6,38.5-158.6,33.3-175.4c-5.3-17-208.5-51.8-215-36.4 c-10,23.5-21.6,255.8-23.3,290c-1.3,25-5,49.7-5,74.8l0.1,0.1c-2.6,13.7-4.9,28.3-10.5,40.6c-10.7,23.1-10.2,33.2-28.1,50.6 c-12.3,12-44.1,33.2-58.7,42.3c-6.2,3.9-12.8,6.8-19.6,9.3l-0.6,0.2c-27,10.1-56.1,13.9-70.8,43.8c-3.2,6.5-5.9,14.3-5.4,21.7 c0.7,9.5,11,10.8,19,13.1c19.9,5.7,37.1,10,60.1,15.1c26.3,5.9,50,9.5,76.7,8.8c19.9-0.6,36.8-1.4,54.3-11.9 c7.1-4.3,14.3-8.6,20.4-14.1c13.7-12.5,22.5-25.6,40.1-33.1c12.7-5.4,25.8-9.9,39.2-13.1c19-4.5,46.8-10.9,57.1-29.7 c4-14.1-0.1-21.1-1.4-33.3l-0.6-5.2c-1-7.9-2.4-16-2.9-24.6c-0.8-16.4,3.3-32.6,4.3-49c0.6-9.3,1-18.5,1.2-27.8 C399.8,2294,400.2,2290.5,399.9,2288.3z"/></g></g></g><g id="Gloves_M"><g id="Left-Glove_M"><g id="Basic_Left_Glove_M" class="option" style="display: inherit; fill: rgb(19, 19, 19);"><path d="M1208.1,1298.1c-5.7-0.3-11.1-0.2-16.8,1c-3.9,0.8-7.6,1.7-11.1,3.7c-10.5,6.1-7.6,19.3,1.7,24.3 c10.9,5.9,28.2,0.1,33.2-11.2C1217.3,1311.3,1210.9,1302.6,1208.1,1298.1"/><path d="M1188.9,1309.6c-5.7-0.3-11.1-0.2-16.8,1c-3.9,0.8-7.6,1.7-11.1,3.7c-10.5,6.1-7.6,19.3,1.7,24.3 c10.9,5.9,28.2,0.1,33.2-11.2C1198,1322.8,1191.7,1314.1,1188.9,1309.6"/><path d="M1175.1,1325.2c-5.7,0.5-12.6,1.3-18,3.3c-3.7,1.3-7.3,2.7-10.5,5.2c-9.6,7.4-5,20.1,5,23.8 c11.6,4.3,28-3.7,31.4-15.6C1184.4,1337.1,1175.1,1325.2,1175.1,1325.2z"/><path d="M1144,1148.2c0,0-16.5,22.9-20.8,39.4c-3,11.6-1.4,39.3-5.3,57.9c-3.8,18.6-7.3,28.9-7.3,28.9 s-14.6,29.8-12,36.6c2.5,6.8,15.4,12.9,22.8,9.3c9.1-4.5,20.5-25.5,27.6-40.2c7.3-15,13.3-36.4,13.3-36.4s10,3.5,15.2,7.4 c17.1,13.2,9.7,52.9,9.7,52.9s-7,14.2-17.6,30.2c-14.5,21.8-36.6,40.6-22,57.2c13.7,15.6,44.8-25.3,44.8-25.3l30.5-39.8 c0,0,35-57.7,36.8-68.9c1.4-8.5,0.2-37.1,0.2-37.1l-10.9-110.6l-55.5,4.6l-45.7,14.9L1144,1148.2"/></g></g><g id="Right-Glove_M"><g id="Basic_Right_Glove_M" class="option" style="display: inherit; fill: rgb(19, 19, 19);"><path d="M71.9,1298.1c5.7-0.3,11.1-0.2,16.8,1c3.9,0.8,7.6,1.7,11.1,3.7c10.5,6.1,7.6,19.3-1.7,24.3 c-10.9,5.9-28.2,0.1-33.2-11.2C62.7,1311.3,69.1,1302.6,71.9,1298.1"/><path d="M91.1,1309.6c5.7-0.3,11.1-0.2,16.8,1c3.9,0.8,7.6,1.7,11.1,3.7c10.5,6.1,7.6,19.3-1.7,24.3 c-10.9,5.9-28.2,0.1-33.2-11.2C82,1322.8,88.4,1314.1,91.1,1309.6"/><path d="M104.9,1325.2c5.7,0.5,12.6,1.3,18,3.3c3.7,1.3,7.3,2.7,10.5,5.2c9.6,7.4,5,20.1-5,23.8 c-11.6,4.3-28-3.7-31.4-15.6C95.6,1337.1,104.9,1325.2,104.9,1325.2z"/><path d="M136,1148.2c0,0,16.5,22.9,20.9,39.4c3,11.6,1.4,39.3,5.3,57.9c3.8,18.6,7.3,28.9,7.3,28.9 s14.6,29.8,12,36.6c-2.5,6.8-15.4,12.9-22.7,9.3c-9.2-4.5-20.5-25.5-27.7-40.2c-7.3-15-13.3-36.4-13.3-36.4s-10,3.5-15.2,7.4 c-17.1,13.2-9.7,52.9-9.7,52.9s7,14.2,17.6,30.2c14.4,21.8,36.6,40.6,22,57.2c-13.7,15.6-44.8-25.3-44.8-25.3l-30.5-39.8 c0,0-35-57.7-36.8-68.9c-1.4-8.5-0.2-37.1-0.2-37.1l10.9-110.6l55.5,4.6l45.7,14.9L136,1148.2"/></g></g></g></g></g><g id="Biceps_Current" transform="translate(199,588)"><g id="LeftBiceps_Current"><g id="Left-Biceps_M"><g id="None_Biceps_Left_M" class="option" style="display: inherit;"></g></g></g><g id="RightBiceps_Current"><g id="Right-Biceps_M"><g id="None_Biceps_Right_M" class="option" style="display: inherit;"></g></g></g></g><g id="Vest_Current" transform="translate(260,575)"><path id="Vest_M" d="M640,197.9c90.1-0.1,163.5-45.9,165.6-85.4l1.6,0.2l194.8,57.8l141.1,255.2l-30.3,12.4l-142.3-91.7 L946,386.1l-16.3,505.4c0,0-92.4,50.2-143.4,57c-36.5,4.8-91.5,7.2-146.2,7.1c-54.7,0.1-109.7-2.3-146.2-7.1 c-51-6.8-143.4-57-143.4-57L334,386.1l-24.5-39.6l-142.3,91.7l-30.3-12.4L278,170.5l194.8-57.8l1.6-0.2 C476.5,152.1,549.9,197.9,640,197.9" style="fill: rgb(26, 26, 26);"/></g><g id="Upper-Body_M_Wrapper" transform="translate(199,588)"><g id="Chest_Current" class="Galaxy_M"><g id="Abdomen_Galaxy_M"><path id="Abdomen-Plate_Galaxy_M" d="M627.2,751.4l-22,16l-111.9-16l-8.2-61.8l53-1.1l32.1-52.5l14.6-48.3l116-106.2 l0.2,0.2l0.2-0.2l116,106.2l14.6,48.3l32.1,52.5l53,1.1l-8.2,61.8l-111.9,16l-22-16H627.2z" style="fill: rgb(80, 36, 53);"/></g><g id="Full-Chest_Galaxy_M"><path id="Chest-Plate_Galaxy_M" d="M654.4,327.4l-0.2,108.2l34,34.4L569,582.9L553.5,635l-25.3,41.5h-43.7l-21.2-31 l-27-151.5l-39.6-61.9l50.1-162.1l57.8-7.3l8.1-35.8l61.9-7.6l19.6,32h213l19.6-32l61.9,7.6l8.1,35.8l57.8,7.3l50.1,162.1 l-39.6,61.9l-27,151.5l-21.2,31h-43.7L848.5,635L833,582.9l-119.2-113l34-34.4l-0.2-108.2L701,291.1L654.4,327.4z" style="fill: rgb(80, 36, 53);"/><path id="Trauma-Plating_Left-Chest_Galaxy_M" d="M817.6,269.3H702.3l63.3,49.2l0.2,124.4l-26.3,26.6 l109.3,103.6l16.2,54.5l18.8,30.9h24l13.6-19.9l26.9-151.2l37-57.9l-44.3-143.1l-58.8-7.5l-8.1-35.8l-37.8-4.6L817.6,269.3z" class="toggle" style="fill: rgb(80, 36, 53);"/><path id="Trauma-Plating_Right-Chest_Galaxy_M" d="M565.6,238.6l-37.8,4.6l-8.1,35.8l-58.8,7.5 l-44.3,143.1l37,57.9l26.9,151.2l13.6,19.9h24l18.8-30.9l16.2-54.5l109.3-103.6L636.2,443l0.2-124.4l63.3-49.2H584.4L565.6,238.6 z" class="toggle" style="fill: rgb(80, 36, 53);"/></g><g id="Iron-Heart_Galaxy_M"><path id="Heart_Galaxy_M" d="M672.4,432.5v-97.4l28.6-22.4l28.6,22.4v97.4L701,461.3L672.4,432.5z" style="fill: rgb(142, 142, 142);"/><rect id="Center_Heart_Galaxy_M" x="691.1" y="350" width="19.8" height="66.7" class="option" style="display: inherit; fill: rgb(44, 14, 26);"/></g><g id="Neck-Armor_Galaxy_M"><g id="Neck-Plate_Galaxy_M" style="fill: rgb(80, 36, 53);"><path d="M677.2,240.8l-78.3,1.3l-19.3-31.6l-74.7,8.9l-7.4,32.8l-47.9,5.9l-35.3-121.8l122.5-36.7 c0,0,16.2,27.5,28,37.2c12.1,9.9,28.2,21.6,43.3,28.2c16.5,7.2,36.7,12.1,55.9,15.2c2,0.3,4.1,0.6,6.2,0.9L677.2,240.8z"/><path d="M724.8,240.8l78.3,1.3l19.3-31.6l74.7,8.9l7.4,32.8l47.9,5.9l35.3-121.8L865.4,99.5c0,0-16.2,27.5-28,37.2 c-12.1,9.9-28.2,21.6-43.3,28.2c-16.5,7.2-36.7,12.1-55.9,15.2c-2,0.3-4.1,0.6-6.2,0.9L724.8,240.8z"/></g></g></g><g id="Collar_Current"/><g id="ChestAttachments_Current"><g id="Chest-Attachments_M"><g id="No-Device_Accessories_Chest_M" class="option" style="display: inherit;"></g></g></g><g id="Gauntlets_Current"><g id="LeftGauntlets_Current"><g id="Left-Gauntlets_M"><g id="Gunslinger_Gauntlet_Left_M" class="option" style="display: inherit;"><g id="Accent-Top_Gunslinger_Gauntlet_Left_M" style="fill: rgb(121, 121, 121);"><path d="M1282.9,824.1l6.6,59.9l-30.2,8.4l-7-56.8L1282.9,824.1z"/><path d="M1268.6,1046.2l6,30.6l-26.6,5.7l-6.3-30.5L1268.6,1046.2z"/></g><path id="Top_Gunslinger_Gauntlet_Left_M" d="M1282.9,824.1l13.7-5.2l24.3,280.7l-66.5,14.1l-9-43.6l2.6,12.3 l26.6-5.7l-6-30.6l-26.9,5.8l-40.8-196.9L1282.9,824.1l-30.7,11.6l7,56.8l30.2-8.4L1282.9,824.1z" style="fill: rgb(142, 142, 142);"/><g id="Accent-Bottom_Gunslinger_Gauntlet_Left_M" style="fill: rgb(121, 121, 121);"><path d="M1162.6,945.9l-7.9-24.5l-17.2,5.5l7.8,24.5L1162.6,945.9z"/><path d="M1171.6,973.8l-7.9-24.5l-17.2,5.5l7.8,24.5L1171.6,973.8z"/><path d="M1241.7,1052l-59.4,12.8l9.6,29.8l56.2-12.1L1241.7,1052z"/></g><path id="Bottom_Gunslinger_Gauntlet_Left_M" d="M1247.1,1078.1l-5.4-26.1l-59.4,12.8l9.6,29.8l56.2-12.1l6.5,31.2 c0,0-20.9,3.7-36.5,6.4c-9.8,1.7-19.3-4-22.4-13.5c-16.7-51.6-66.8-206.8-66.8-206.8l73-40.7L1247.1,1078.1z M1171.6,973.8 l-7.9-24.5l-17.2,5.5l7.8,24.5L1171.6,973.8z M1162.6,945.9l-7.9-24.5l-17.2,5.5l7.8,24.5L1162.6,945.9z" style="fill: rgb(142, 142, 142);"/><g id="No-Device_Attachment_Gunslinger_Gauntlet_Left_M" class="option" style="display: inherit;"></g></g></g></g><g id="RightGauntlets_Current"><g id="Right-Gauntlets_M"><g id="Gunslinger_Gauntlet_Right_M" class="option" style="display: inherit;"><g id="Accent-Top_Gunslinger_Gauntlet_Right_M" style="fill: rgb(121, 121, 121);"><path d="M120.3,824.1l-6.6,59.9l30.2,8.4l7-56.8L120.3,824.1z"/><path d="M134.6,1046.2l-6,30.6l26.6,5.7l6.3-30.5L134.6,1046.2z"/></g><path id="Top_Gunslinger_Gauntlet_Right_M" d="M120.3,824.1l-13.7-5.2l-24.3,280.7l66.5,14.1l9-43.6l-2.6,12.3 l-26.6-5.7l6-30.6l26.9,5.8l40.8-196.9L120.3,824.1l30.6,11.6l-7,56.8l-30.2-8.4L120.3,824.1z" style="fill: rgb(142, 142, 142);"/><g id="Accent-Bottom_Gunslinger_Gauntlet_Right_M" style="fill: rgb(121, 121, 121);"><path d="M240.6,945.9l7.9-24.5l17.2,5.5l-7.9,24.5L240.6,945.9z"/><path d="M231.6,973.8l7.9-24.5l17.2,5.5l-7.9,24.5L231.6,973.8z"/><path d="M161.5,1052l59.4,12.8l-9.6,29.8l-56.2-12.1L161.5,1052z"/></g><path id="Bottom_Gunslinger_Gauntlet_Right_M" d="M156.1,1078.1l5.4-26.1l59.4,12.8l-9.6,29.8l-56.2-12.1l-6.5,31.2 c0,0,20.9,3.7,36.5,6.4c9.8,1.7,19.3-4,22.4-13.5c16.7-51.6,66.8-206.8,66.8-206.8l-73-40.7L156.1,1078.1z M231.6,973.8l7.9-24.5 l17.2,5.5l-7.9,24.5L231.6,973.8z M240.6,945.9l7.9-24.5l17.2,5.5l-7.9,24.5L240.6,945.9z" style="fill: rgb(142, 142, 142);"/><g id="Whistling-Birds_Attachment_Gunslinger_Gauntlet_Right_M" class="option" style="display: inherit;"><path id="Head_Whistling-Birds_Attachment_Gunslinger_Gauntlet_Right_M" d="M59.3,988.3l27.7,56.8l4.7-54 L59.3,988.3z" style="fill: rgb(121, 121, 121);"/><g id="Birds_Whistling-Birds_Attachment_Gunslinger_Gauntlet_Right_M" style="fill: rgb(85, 85, 85);"><g><path d="M86,994.5c-1.3-0.1-2.5,2.6-2.8,5.9c-0.3,3.4,0.5,6.2,1.8,6.4c1.3,0.1,2.5-2.6,2.8-6 C88.1,997.5,87.3,994.6,86,994.5z"/><path d="M84.5,1011.8c-1.3-0.1-2.5,2.5-2.8,6c-0.3,3.4,0.5,6.2,1.8,6.3c1.3,0.1,2.5-2.6,2.8-6 C86.6,1014.7,85.8,1011.9,84.5,1011.8z"/><path d="M77.3,993.8c-1.3-0.1-2.5,2.6-2.8,5.9c-0.3,3.4,0.5,6.2,1.8,6.3s2.5-2.6,2.8-6 C79.3,996.7,78.5,993.9,77.3,993.8z"/><path d="M84,1039c0.4-1,0.7-2.3,0.8-3.7c0.3-3.4-0.5-6.2-1.8-6.3c-0.9-0.1-1.8,1.2-2.3,3.2L84,1039z M76,1022.5 c0.7-1,1.4-2.9,1.5-5.1c0.3-3.4-0.5-6.2-1.8-6.4c-1.2-0.1-2.4,2.3-2.8,5.4L76,1022.5z M67.6,1005.3c1.2-0.2,2.4-2.7,2.6-5.9 c0.3-3.4-0.5-6.2-1.8-6.3c-1.3-0.1-2.5,2.6-2.8,5.9c-0.1,0.8-0.1,1.5,0,2.2L67.6,1005.3z"/></g></g><g id="Base_Whistling-Birds_Attachment_Gunslinger_Gauntlet_Right_M" style="fill: rgb(121, 121, 121);"><path d="M75.4,825.3l21.7,1.9l-0.8,9.6l-21.7-1.9L75.4,825.3z"/><path d="M72.6,834.7l23.7,2L83,990.3l-23.7-2L72.6,834.7z"/><path d="M69.3,836.1l3.1,0.3L61,969l-3.1-0.3L69.3,836.1z"/><path d="M76.5,835l3.1,0.3l-12.4,144L64,979L76.5,835z"/></g><g id="Accent_Whistling-Birds_Attachment_Gunslinger_Gauntlet_Right_M" style="fill: rgb(70, 69, 69);"><path d="M97.3,824.8l8.6,0.7L92.5,981.5l-8.6-0.7L97.3,824.8z"/><path d="M58.4,978.5l34.1,2.9l-0.8,9.6l-34.1-2.9L58.4,978.5z"/><path d="M82.9,826l14.2,1.2l-1.9,22.4l-14.2-1.2L82.9,826z"/><path d="M84.3,848.6l10.9,0.9l-4.6,53.2l-9.1-20.9L84.3,848.6z"/></g></g></g></g></g></g></g><g id="Helmet_M_Wrapper" transform="translate(550,35)"><g id="Helmet_Current" class="Nite"><g id="Left-Earcap_Nite" class="toggle"><g id="Ear-Cap_Left_Nite" style="fill: rgb(121, 121, 121);"><path d="M563.4,582.8l18.7-27.6l-18.7-190.9l-26.1-16.4L563.4,582.8z"/><path d="M544.3,415l21.6-22.4"/></g></g><g id="Right-Earcap_Nite" class="toggle"><g id="Range-Finder_Right_Nite" class="option" style="display: inherit;"><path id="Shaft_Right_Range-Finder_Nite" d="M162.1,75.1l11.5,0.7L156.3,364h-11.8L162.1,75.1z" style="fill: rgb(121, 121, 121);"/><path id="Finder_Right_Range-Finder_Nite" d="M251.6,51.9h-64l2.5-7.9l74.8-7L251.6,51.9" style="fill: rgb(0, 0, 0);"/><g id="Cover_Right_Range-Finder_Nite" style="fill: rgb(44, 14, 26);"><path d="M152.9,63l30.4,2l6.8-21l80.4-7.5l1.6-8.2L157.4,24l-11.2,14.1L152.9,63"/><path d="M161.1,63.5l15.1,1L175.5,76l-15.1-1L161.1,63.5"/></g></g><g id="Ear-Cap_Right_Nite" style="fill: rgb(121, 121, 121);"><path d="M137.3,582.8l-18.7-27.6l18.7-190.9l26.1-16.4L137.3,582.8z"/><path d="M156.3,415l-21.6-22.4"/></g></g><g id="Helmet_Pieces_Nite"><g id="Face_Nite" style="fill: rgb(80, 36, 53);"><path d="M149.4,453.3c2.1,1,54,27.7,82.3,65.4c50.7,67.4,81.7,146.5,85,155.3c-17.5-1-32.1-2.7-38.8-5.4 c-31.4-12.3-119.9-68.2-119.9-68.2l-22.6-17.7L149.4,453.3"/><path d="M551.2,453.3c-2.1,1-54,27.7-82.3,65.4c-50.7,67.4-81.7,146.5-85,155.3c17.5-1,32.1-2.7,38.8-5.4 c31.4-12.3,119.9-68.2,119.9-68.2l22.6-17.7L551.2,453.3"/></g><g id="Cheeks_Nite" style="fill: rgb(44, 14, 26);"><path d="M149.4,453.3l5-46.3c0,0,57.6,34.6,77.1,52.8s46.8,46.2,53,72.6c8.4,35.8,33.5,142,33.5,142h-1.2l-0.2-0.3 l0.2,0c-3.4-8.8-34.3-88-85-155.3C204.2,482.2,154.4,455.8,149.4,453.3"/><path d="M551.2,453.3l-5-46.3c0,0-57.6,34.6-77.1,52.8s-46.8,46.2-53,72.6c-8.4,35.8-33.5,142-33.5,142h1.2l0.2-0.3 l-0.2,0c3.4-8.8,34.3-88,85-155.3C496.4,482.2,546.2,455.8,551.2,453.3"/></g><path id="Visor_Nite" d="M337.6,674.3l-24.2-236.2c0,0-43.8-3.9-63.9-7.7c-49.2-9.3-80.8-49.3-80.8-49.3 s55.7-5,83.8-2c75.8,8.1,84.8,42.9,97.7,55.8c12.9-12.9,21.9-47.8,97.7-55.8c28.1-3,83.8,2,83.8,2s-31.6,40-80.8,49.3 c-20.1,3.8-63.9,7.7-63.9,7.7L363,674.3H337.6" style="fill: rgb(6, 6, 6);"/><path id="Eyes_Nite" d="M350.3,363.6c0,0,69.8-0.5,98.7-2.3c30.7-2,91.7-5.1,91.7-5.1l5.5,50.8 c0,0-57.6,34.6-77.1,52.8s-46.8,46.2-53,72.6c-8.4,35.8-33.5,142-33.5,142H363l24.2-236.2c0,0,43.8-3.9,63.9-7.7 c49.2-9.3,80.8-49.3,80.8-49.3s-55.7-5-83.8-2c-75.8,8.1-84.8,42.9-97.7,55.8c-12.9-12.9-21.9-47.8-97.7-55.8 c-28.1-3-83.8,2-83.8,2s31.6,40,80.8,49.3c20.1,3.8,63.9,7.7,63.9,7.7l24.2,236.2H318c0,0-25.1-106.3-33.5-142 c-6.2-26.4-33.5-54.4-53-72.6S154.4,407,154.4,407l5.5-50.8c0,0,61,3.1,91.7,5.1C280.5,363.1,338.9,363.6,350.3,363.6" style="fill: rgb(142, 142, 142);"/><path id="Dome_Nite" d="M160.2,356.2h-0.3l0-1.2c0.7-99.4,84.5-180.1,188.4-182.1v0l1.2,0l0.7,0l0.7,0l1.2,0v0 c104,2,187.8,82.7,188.4,182.1l0,1.2l0,0c-4.3,0.2-61.9,3.2-91.5,5c-28.8,1.8-87.2,2.3-98.7,2.3c-11.5-0.1-69.8-0.5-98.7-2.3 C221.2,359.3,160.2,356.2,160.2,356.2z" style="fill: rgb(80, 36, 53);"/></g></g></g><g transform="translate(199, 588)" id="Shoulders_Current"><g id="LeftShoulder_Current"><g id="Left-Shoulder_M"><g id="Classic_Shoulder_Left_M" class="option" style="display: inherit;"><path id="Main_Shoulder_Classic_Left_M" d="M1042.4,116.3l-26.7,120.8l21.4,69.6l143,72.4l24-36.9L1042.4,116.3z" style="fill: rgb(44, 14, 26);"/><path id="Trauma-Plates_Shoulder_Classic_Left_M" d="M1034.3,236.4l17.7,57.7l121.7,61.6l20.6-31.6 l-137-191.8L1034.3,236.4z" class="toggle" style="fill: rgb(142, 142, 142);"/></g></g></g><g id="RightShoulder_Current"><g id="Right-Shoulder_M"><g id="Classic_Shoulder_Right_M" class="option" style="display: inherit;"><path id="Main_Shoulder_Classic_Right_M" d="M359.6,116.3l26.7,120.8l-21.4,69.6l-143,72.4l-24-36.9L359.6,116.3z" style="fill: rgb(44, 14, 26);"/><path id="Trauma-Plates_Shoulder_Classic_Right_M" d="M367.7,236.4L350,294.1l-121.7,61.6l-20.6-31.6 l137-191.8L367.7,236.4z" class="toggle" style="fill: rgb(142, 142, 142);"/></g></g></g></g><g id="Lower-Body_M_Wrapper" transform="translate(268,1340)"><g id="Knees_Current"><g id="LeftKnee_Current"><g id="Left-Knee_M"><g id="Basic_Knee_Left_M" class="option" style="display: inherit;"><g id="Knee_Basic-Knee_Left_M" style="fill: rgb(44, 14, 26);"><path d="M754.2,903.7l15.2-2.5c0,0,11.5,73.9,16.6,106.6c1.3,8.4-4.4,16.3-12.8,17.7l0,0L754.2,903.7z"/><path d="M768.9,898.2l8.7,54.8c11.1-6.3,39.2,5.3,48.4,38.2c16.8,60.4,31.5,74.3,84.2,68.8 c41-4.2,70.3-23.5,73.7-51.9c4.9-41.1,0-100.6-2.5-125.7c-0.3-3.1-1.9-6-4.4-7.9c-2.5-1.9-5.6-2.8-8.7-2.4 C923.9,877.9,768.9,898.2,768.9,898.2z"/><path d="M763.7,899l5.2-0.8l9.7,59.3l-5.2,0.8L763.7,899z"/></g></g></g></g><g id="RightKnee_Current"><g id="Right-Knee_M"><g id="Basic_Knee_Right_M" class="option" style="display: inherit;"><g id="Knee_Basic-Knee_Right_M" style="fill: rgb(44, 14, 26);"><path d="M511,903.7l-15.2-2.5c0,0-11.5,73.9-16.6,106.6c-1.3,8.4,4.4,16.3,12.8,17.7l0,0L511,903.7z"/><path d="M496.3,898.2l-8.7,54.8c-11.1-6.3-39.2,5.3-48.4,38.2c-16.8,60.4-31.5,74.3-84.2,68.8 c-41-4.2-70.3-23.5-73.7-51.9c-4.9-41.1,0-100.6,2.5-125.7c0.3-3.1,1.9-6,4.4-7.9c2.5-1.9,5.6-2.8,8.7-2.4 C341.3,877.9,496.3,898.2,496.3,898.2z"/><path d="M501.5,899l-5.2-0.8l-9.7,59.3l5.2,0.8L501.5,899z"/></g></g></g></g></g><g id="Shins_Current"><g id="LeftShin_Current"><g id="Left-Shin_M"><g id="Basic_Shin_Left_M" class="option" style="display: inherit;"><path id="Shin_Basic-Shin_Left_M" d="M1021.3,1126.1l-53.7-58.4L861,1082.2l-38.9,92.9l72.9,309.8 c47.4,19.4,115.6,9.3,152.3-24.5L1021.3,1126.1" style="fill: rgb(80, 36, 53);"/></g></g></g><g id="RightShin_Current"><g id="Right-Shin_M"><g id="Basic_Shin_Right_M" class="option" style="display: inherit;"><path id="Shin_Basic-Shin_Right_M" d="M244.2,1126.1l53.7-58.4l106.6,14.5l38.9,92.9l-72.9,309.8 c-47.4,19.4-115.5,9.3-152.3-24.5L244.2,1126.1" style="fill: rgb(80, 36, 53);"/></g></g></g></g><g id="Ankles_Current"><g id="LeftAnkle_Current"><g id="Left-Ankle_M"><g id="Basic_Ankle_Left_M" class="option" style="display: inherit;"><path id="Main_Basic-Ankle_Left_M" d="M1136.9,1658.4l-83.1-146.4c-49.1-2.6-95.2,5.6-137.9,25.6 c-4.1,1.9-7.1,5.5-8.5,9.8c-0.9,2.8-1.9,6.2-3.1,9.8c-5,15.8-0.4,33.1,11.6,44.4c25.5,24,69.9,63.2,97,72.5 C1074.7,1695.3,1136.9,1658.4,1136.9,1658.4" style="fill: rgb(80, 36, 53);"/></g></g></g><g id="RightAnkle_Current"><g id="Right-Ankle_M"><g id="Basic_Ankle_Right_M" class="option" style="display: inherit;"><path id="Main_Basic-Ankle_Right_M" d="M128.1,1658.4l83.1-146.4c49.1-2.6,95.2,5.6,137.9,25.6 c4.1,1.9,7.1,5.5,8.5,9.8c0.9,2.8,1.9,6.2,3.1,9.8c5,15.8,0.4,33.1-11.6,44.4c-25.5,24-69.9,63.2-97,72.5 C190.3,1695.3,128.1,1658.4,128.1,1658.4" style="fill: rgb(80, 36, 53);"/></g></g></g></g><g id="Toes_Current"><g id="LeftToe_Current"><g id="Left-Toe_M"><g id="None_Toe_Left_M" class="option" style="display: inherit;"></g></g></g><g id="RightToe_Current"><g id="Right-Toe_M"><g id="None_Toe_Right_M" class="option" style="display: inherit;"></g></g></g></g><g id="Thighs_Current"><g id="LeftThigh_Current"><g id="Left-Thigh_M"><g id="Basic_Thigh_Left_M" class="option" style="display: inherit;"><path id="Thigh_Basic-Thigh_Left_M" d="M1006.3,442.8c0,0-53.3-68.5-80.5-79.9c-25.8-10.8-60.3-6.1-82.5,11.6 c-33.8,27.1-111.4,85.7-120.2,151c-9.8,72.9,43.2,234.1,61.3,286.1c6.1,17.7,29.3,25.7,47,26.4c32.8,1.2,122.6-1.6,144.1-50 C1004.6,722.2,1006.3,442.8,1006.3,442.8" style="fill: rgb(80, 36, 53);"/><path id="Trauma-Plate_Basic-Thigh_Left_M" d="M988.3,449c-8-9.9-27.1-33.1-45.5-50.9 c-8.8-8.5-17.2-15.8-23.8-18.6c-20.1-8.4-47-4.8-64.3,9.1c-19.6,15.7-54.6,42.3-81.2,74.8c-16.1,19.7-29.4,41.6-32.5,64.5 c-9.5,70.8,42.9,227.2,60.4,277.8c1.5,4.4,5.7,7.2,10.1,9.3c6.5,3.2,14.1,4.7,20.6,5c18.4,0.7,55.9,0.2,87.2-10.2 c17.3-5.7,33.1-14.1,39.7-29.1c8.3-18.7,13.8-55.7,18.1-98.1C986.2,592,988,477,988.3,449" class="toggle" style="fill: rgb(80, 36, 53);"/><g id="Ridge_Basic-Thigh_Left_M" class="toggle" style="fill: rgb(142, 142, 142);"><path d="M916.4,357.2l-36.8-9.5L841,369l12.5,469.2c25.4,4.9,25.8,5.9,48.1-0.8L916.4,357.2"/><path d="M879.9,347.8l-1,494.3"/></g></g></g></g><g id="RightThigh_Current"><g id="Right-Thigh_M"><g id="Basic_Thigh_Right_M" class="option" style="display: inherit;"><path id="Thigh_Basic-Thigh_Right_M" d="M258.9,442.8c0,0,53.3-68.5,80.5-79.9c25.8-10.8,60.3-6.1,82.5,11.6 c33.8,27.1,111.4,85.7,120.2,151c9.8,72.9-43.2,234.1-61.3,286.1c-6.1,17.7-29.3,25.7-47,26.4c-32.8,1.2-122.6-1.6-144.1-50 C260.6,722.2,258.9,442.8,258.9,442.8" style="fill: rgb(80, 36, 53);"/><path id="Trauma-Plate_Basic-Thigh_Right_M" d="M276.9,449c8-9.9,27.1-33.1,45.5-50.9 c8.8-8.5,17.2-15.8,23.8-18.6c20.1-8.4,47-4.8,64.3,9.1c19.6,15.7,54.6,42.3,81.2,74.8c16.1,19.7,29.4,41.6,32.5,64.5 c9.5,70.8-42.9,227.2-60.4,277.8c-1.5,4.4-5.7,7.2-10.1,9.3c-6.5,3.2-14.1,4.7-20.6,5c-18.4,0.7-55.9,0.2-87.2-10.2 c-17.3-5.7-33.1-14.1-39.7-29.1c-8.3-18.7-13.8-55.7-18.1-98.1C279,592,277.2,477,276.9,449" class="toggle" style="fill: rgb(80, 36, 53);"/><g id="Ridge_Basic-Thigh_Right_M" class="toggle" style="fill: rgb(142, 142, 142);"><path d="M348.8,357.2l36.8-9.5l38.6,21.3l-12.5,469.2c-25.4,4.9-25.8,5.9-48.1-0.8L348.8,357.2"/><path d="M385.3,347.8l1,494.3"/></g></g></g></g></g><g id="Groin_Current"><g id="Groin_M"><g id="Basic_Groin_M" class="option" style="display: inherit;"><path id="Groin-Plate_Basic_M" d="M566.1,514.1L455.3,270.1h354.3L698.8,514.1l-66.4,58.2L566.1,514.1z" style="fill: rgb(80, 36, 53);"/></g></g></g><g id="Waist_Current" class="M"><g id="Accessories_Waist_M"><g id="Left-Holster_M" class="toggle" style=""><g id="Belt-Holster_Left_M" class="option" style="display: inherit;"><g id="Weapon_Belt-Holster-Left_M"><g id="Main_Weapon_Belt-Holster-Left_M" style="fill: rgb(102, 101, 101);"><path d="M970.1,266.9l-2.6-38.3l6.6-0.4l-1.6-24.1l-6.6,0.4l-0.8-12.5c-0.3-4.1,4.9-7.7,11.6-8.2 c15.3-1,41.6-2.8,56.9-3.8c6.7-0.4,12.3,2.5,12.6,6.6l0.8,12.5l-6.6,0.4l1.6,24.1l6.6-0.4l2.6,38.3l-15.5,1l7.1,106.1 l-50.2,3.3l-7.1-106.1L970.1,266.9z"/><path d="M1044.3,256.3l-8.9,0.6l8.5,127.5l-50.2,3.3l-8.5-127.5l-8.9,0.6l-1.9-29.1l68-4.5L1044.3,256.3z"/><path d="M1025.9,188.8l-40.3,2.7l2.6,39.4l40.3-2.7L1025.9,188.8z"/><path d="M997.6,271l-6.6,0.4l6.7,100.3l6.6-0.4L997.6,271z"/><path d="M1012.9,247l-6.6,0.4l6.7,100.3l6.6-0.4L1012.9,247z"/><path d="M1031.2,268.7l-6.6,0.4l6.7,100.3l6.6-0.4L1031.2,268.7z"/></g><g id="Accent_Weapon_Belt-Holster-Left_M" style="fill: rgb(18, 18, 18);"><path d="M994.5,234.5l0.3,4l28.4-1.9l-0.3-4L994.5,234.5z"/><path d="M994.7,238.5l0.3,4l28.4-1.9l-0.3-4L994.7,238.5z"/><path d="M994.2,230.5l0.3,4l28.4-1.9l-0.3-4L994.2,230.5z"/><path d="M990.9,181.1l0.3,4l28.4-1.9l-0.3-4L990.9,181.1z"/><path d="M992.2,191.1l-6.6,0.4l2.6,39.4l6.6-0.4L992.2,191.1z"/><path d="M1025.9,188.8l-6.6,0.4l2.6,39.4l6.6-0.4L1025.9,188.8z"/><path d="M1024.6,269.2l-10,0.7l6.7,100.3l10-0.7L1024.6,269.2z"/><path d="M1007.7,270.3l-10,0.7l6.7,100.3l10-0.7L1007.7,270.3z"/></g></g><path id="Holster_Belt-Holster-Left_M" d="M987.2,413.9l-26.2-159.8l87.9,112.6l8.3,220.5 c-15.3,20.1-32.3,22.2-51.3,3.8L987.2,413.9z" style="fill: rgb(63, 35, 10);"/></g></g><g id="Right-Holster_M" class="toggle" style=""><g id="Belt-Holster_Right_M" class="option" style="display: inherit;"><g id="Weapon_Belt-Holster-Right_M"><g id="Main_Weapon_Belt-Holster-Right_M" style="fill: rgb(102, 101, 101);"><path d="M295.1,266.9l2.6-38.3l-6.6-0.4l1.6-24.1l6.6,0.4l0.8-12.5c0.3-4.1-4.9-7.7-11.6-8.2 c-15.3-1-41.6-2.8-56.9-3.8c-6.7-0.4-12.3,2.5-12.6,6.6l-0.8,12.5l6.6,0.4l-1.6,24.1l-6.6-0.4l-2.6,38.3l15.5,1l-7.1,106.1 l50.2,3.3l7.1-106.1L295.1,266.9z"/><path d="M220.9,256.3l8.9,0.6l-8.5,127.5l50.2,3.3l8.5-127.5l8.9,0.6l1.9-29.1l-68-4.5L220.9,256.3z"/><path d="M239.3,188.8l40.3,2.7l-2.6,39.4l-40.3-2.7L239.3,188.8z"/><path d="M267.6,271l6.6,0.4l-6.7,100.3l-6.6-0.4L267.6,271z"/><path d="M252.3,247l6.6,0.4l-6.7,100.3l-6.6-0.4L252.3,247z"/><path d="M234,268.7l6.6,0.4l-6.7,100.3l-6.6-0.4L234,268.7z"/></g><g id="Accent_Weapon_Belt-Holster-Right_M" style="fill: rgb(18, 18, 18);"><path d="M270.7,234.5l-0.3,4l-28.4-1.9l0.3-4L270.7,234.5z"/><path d="M270.5,238.5l-0.3,4l-28.4-1.9l0.3-4L270.5,238.5z"/><path d="M271,230.5l-0.3,4l-28.4-1.9l0.3-4L271,230.5z"/><path d="M274.3,181.1l-0.3,4l-28.4-1.9l0.3-4L274.3,181.1z"/><path d="M273,191.1l6.6,0.4l-2.6,39.4l-6.6-0.4L273,191.1z"/><path d="M239.3,188.8l6.6,0.4l-2.6,39.4l-6.6-0.4L239.3,188.8z"/><path d="M240.6,269.2l10,0.7l-6.7,100.3l-10-0.7L240.6,269.2z"/><path d="M257.6,270.3l10,0.7l-6.7,100.3l-10-0.7L257.6,270.3z"/></g></g><path id="Holster_Belt-Holster-Right_M" d="M278,413.9l26.2-159.8l-87.9,112.6L208,587.2 c15.2,20.1,32.3,22.2,51.3,3.8L278,413.9z" style="fill: rgb(63, 35, 10);"/></g></g></g><g id="Under-Belt_M"><g id="Girth-Belt_M" class="option" style="display: inherit; fill: rgb(44, 14, 26);"><path d="M632.4,115.8c-98.8,0-296.5-24-296.5-24l6.4-20.3c0,0,192.8,16,290.1,24c96.8-8,290.1-24,290.1-24l6.4,20.3 C929,91.8,731.3,115.8,632.4,115.8z"/><path d="M632.4,136.1c-100.9,0-302.7-24-302.7-24l6.2-20.3c0,0,247.1,20,296.5,24c49.4-4,296.5-24,296.5-24l6.2,20.3 C935.1,112.1,733.3,136.1,632.4,136.1z"/><path d="M632.4,156.5c-102.4,0-307.3-24-307.3-24l4.6-20.3c0,0,252.3,20,302.7,24c50.5-4,302.7-24,302.7-24l4.6,20.3 C939.7,132.5,734.9,156.5,632.4,156.5z"/><path d="M632.4,176.8c-103.7,0-311.2-24-311.2-24l3.9-20.3c0,0,256.1,20,307.3,24c51.2-4,307.3-24,307.3-24l3.9,20.3 C943.6,152.8,736.2,176.8,632.4,176.8z"/><path d="M632.4,197.1c-104.9,0-314.7-24-314.7-24l3.5-20.3c0,0,259.3,20,311.2,24c51.9-4,311.2-24,311.2-24l3.5,20.3 C947.1,173.1,737.3,197.1,632.4,197.1z"/><path d="M632.4,217.5c-106,0-318-24-318-24l3.3-20.3c0,0,262.2,20,314.7,24c52.4-4,314.7-24,314.7-24l3.3,20.3 C950.4,193.5,738.4,217.5,632.4,217.5z"/><path d="M632.4,237.8c-107.1,0-321.2-24-321.2-24l3.3-20.3c0,0,265,20,318,24c53-4,318-24,318-24l3.3,20.3 C953.7,213.8,739.5,237.8,632.4,237.8z"/><path d="M632.4,258.1c-108.2,0-324.6-24-324.6-24l3.4-20.3c0,0,267.7,20,321.2,24c53.5-4,321.2-24,321.2-24l3.3,20.3 C957,234.1,740.6,258.1,632.4,258.1z"/><path d="M632.4,278.5c-109.4,0-328.2-24-328.2-24l3.7-20.3c0,0,270.5,20,324.6,24c54.1-4,324.6-24,324.6-24l3.7,20.3 C960.7,254.5,741.8,278.5,632.4,278.5z"/><path d="M632.4,298.8c-110.8,0-332.4-24-332.4-24l4.2-20.3c0,0,273.5,20,328.2,24c54.7-4,328.2-24,328.2-24l4.2,20.3 C964.8,274.8,743.2,298.8,632.4,298.8z"/></g></g><g id="Belt_M"><g id="Pouch-Belt-4_M" class="option" style="display: inherit;"><path id="Main_Pouch-Belt-4_M" d="M953.4,201.3c-72.3,6.5-237.4,30.1-320.8,30.1c-84.2,0-249.3-23.8-320.7-30.1 l10.7-84.6C381.2,122,551.1,146,632.6,146c79.1,0,245.5-23.8,308.1-29.5L953.4,201.3z" style="fill: rgb(63, 35, 10);"/><rect id="Buckle_Pouch-Belt-4_M" x="573.5" y="137.9" width="119.5" height="98.1" style="fill: rgb(142, 142, 142);"/><g id="Pouches_Pouch-Belt-4_M" style="fill: rgb(81, 46, 13);"><g><g><path d="M364.6,100.2c-3.3-0.2-6.6,0.4-9.7,1.7c-7.1,3.1-19.7,8.6-19.7,8.6l78.2,4.5l21.2-10.1 C434.6,104.9,381.4,101.3,364.6,100.2z"/><path d="M437.3,107.9c0.1-0.9-0.3-1.8-1.1-2.4c-0.8-0.5-1.7-0.6-2.6-0.2c-7,3.3-20.3,9.6-20.3,9.6l-10.8,132.4 c6.9-4.4,13.7-7.3,20.5-9c4.2-1,7.2-4.7,7.3-8.9C431.7,188.8,433.4,148.3,437.3,107.9z"/><path d="M413.4,115l-78.2-4.5c-0.6,20.1-2.4,40.2-3.5,60.3c-1.1,22.2-1.7,44.5-3.6,66.9c-0.1,1.6,0.4,3.2,1.5,4.4 c1.1,1.2,2.7,1.9,4.3,1.8c22.1-0.2,44,1.1,65.9,3.8c1.5,0.2,3.1-0.3,4.3-1.2c1.2-1,1.9-2.4,2-3.9c1.1-15.7,3.9-56.9,3.9-56.9 L413.4,115z"/><path d="M413.4,115l-78.2-4.5c0,0-2,17.1-3.8,33.6c-0.9,8,1.5,16,6.7,22.2c5.2,6.2,12.7,9.9,20.7,10.4 c7.7,0.4,15.9,0.9,23.6,1.4c8.1,0.5,16-2.4,21.8-8c5.9-5.5,9.2-13.3,9.2-21.3C413.4,132.1,413.4,115,413.4,115z"/><path d="M371.5,161.7c2.8,0.2,4.9,2.8,4.7,5.8c-0.2,3-2.6,5.4-5.3,5.2c-2.8-0.2-4.9-2.8-4.7-5.8 C366.4,163.8,368.8,161.5,371.5,161.7z"/></g></g><g><path d="M285.7,109l5.8-9.1l30,1l3.7,11.3L285.7,109z"/><path d="M325.1,113.3c0.1-0.7-0.1-1.4-0.6-2c-0.5-0.5-1.1-0.9-1.9-0.9c-9-0.3-36.9-1.4-36.9-1.4L280.4,228 c1.2,3,16.3,4.9,28.4,5.2c5.3,0.1,9.7-4.1,9.8-9.3C319.5,187,320.8,150,325.1,113.3z"/></g><g><g><path d="M900.7,100.2c3.3-0.2,6.6,0.4,9.7,1.7c7.1,3.1,19.7,8.6,19.7,8.6l-78.2,4.5l-21.2-10.1 C830.6,104.9,883.8,101.3,900.7,100.2z"/><path d="M827.9,107.9c-0.1-0.9,0.3-1.8,1.1-2.4c0.8-0.5,1.7-0.6,2.6-0.2c7,3.3,20.3,9.6,20.3,9.6l10.8,132.4 c-6.9-4.4-13.7-7.3-20.5-9c-4.2-1-7.2-4.7-7.3-8.9C833.5,188.8,831.8,148.3,827.9,107.9z"/><path d="M851.9,115l78.2-4.5c0.6,20.1,2.4,40.2,3.5,60.3c1.1,22.2,1.7,44.5,3.6,66.9c0.1,1.6-0.4,3.2-1.5,4.4 c-1.1,1.2-2.7,1.9-4.3,1.8c-22.1-0.2-44,1.1-65.9,3.8c-1.5,0.2-3.1-0.3-4.3-1.2c-1.2-1-1.9-2.4-2-3.9 c-1.1-15.7-3.9-56.9-3.9-56.9L851.9,115z"/><path d="M851.9,115l78.2-4.5c0,0,2,17.1,3.8,33.6c0.9,8-1.5,16-6.7,22.2c-5.2,6.2-12.7,9.9-20.7,10.4 c-7.7,0.4-15.9,0.9-23.6,1.4c-8.1,0.5-16-2.4-21.8-8c-5.9-5.5-9.2-13.3-9.2-21.3C851.8,132.1,851.9,115,851.9,115z"/><path d="M893.7,161.7c-2.8,0.2-4.9,2.8-4.7,5.8c0.2,3,2.6,5.4,5.3,5.2c2.8-0.2,4.9-2.8,4.7-5.8 C898.8,163.8,896.4,161.5,893.7,161.7z"/></g></g><g><path d="M979.5,109l-5.8-9.1l-30,1l-3.7,11.3L979.5,109z"/><path d="M940.1,113.3c-0.1-0.7,0.1-1.4,0.6-2c0.5-0.5,1.1-0.9,1.9-0.9c9-0.3,36.9-1.4,36.9-1.4l5.3,119.1 c-1.2,3-16.3,4.9-28.4,5.2c-5.3,0.1-9.7-4.1-9.8-9.3C945.7,187,944.4,150,940.1,113.3z"/></g></g></g></g></g></g><g id="Helmet_M_Wrapper" transform="translate(550,35)"><g id="Helmet_Current"/></g><g id="Shoulders_Current" transform="translate(199,588)"><g id="LeftShoulder_Current"/><g id="RightShoulder_Current"/></g><g id="Front_M" transform="translate(0,550)"><g id="Cape_M"></g></g></svg>
