<svg id="Male-Body" viewBox="0 0 1800 3300" version="1.1" xmlns="http://www.w3.org/2000/svg" style="stroke:black;stroke-width:2px;fill-rule:evenodd;height:100%;"><g id="Back_M" transform="translate(0,560)"><g id="Cape_M"><g id="None_Back_M_Option" class="option" style="display: inherit;"></g></g></g><g id="Flight-Suit" transform="translate(260,575)"><g id="Soft-Parts_M"><g id="Suit_M"><g id="Neck-Seal_M"><g id="Standard-Neck-Seal_M_Option" class="option" style="display: inherit; fill: rgb(174, 217, 9);"><path d="M785.8,54.9c0-9.6-9.8-17.3-21.9-17.3c0,0-82.7,9.1-124,9.1s-124-9.1-124-9.1c-12.1,0-21.9,7.8-21.9,17.3 c0,9.6,9.8,17.3,21.9,17.3c0,0,82.7,9.1,124,9.1s124-9.1,124-9.1C775.9,72.2,785.8,64.4,785.8,54.9z"/><path d="M793.2,75.1c0-10-10.3-18.2-23-18.2c0,0-86.9,9.6-130.3,9.6c-43.4,0-130.3-9.6-130.3-9.6 c-12.7,0-23,8.1-23,18.2s10.3,18.2,23,18.2c0,0,86.9,9.6,130.3,9.6c43.4,0,130.3-9.6,130.3-9.6C782.8,93.3,793.2,85.1,793.2,75.1 z"/><path d="M801.5,100.2c0-10.6-10.9-19.2-24.3-19.2c0,0-91.6,10.1-137.4,10.1S502.4,81.1,502.4,81.1 c-13.4,0-24.3,8.6-24.3,19.2s10.9,19.2,24.3,19.2c0,0,91.6,10.1,137.4,10.1s137.4-10.1,137.4-10.1 C790.7,119.4,801.5,110.8,801.5,100.2z"/><path d="M809.6,123.3c0-11.1-11.4-20.1-25.5-20.1c0,0-96.2,10.6-144.3,10.6c-48.1,0-144.3-10.6-144.3-10.6 c-14.1,0-25.5,9-25.5,20.1s11.4,20.1,25.5,20.1c0,0,96.2,10.6,144.3,10.6c48.1,0,144.3-10.6,144.3-10.6 C798.2,143.4,809.6,134.4,809.6,123.3z"/><path d="M817.7,145.9c0-8.4-12-15.2-26.7-15.2c0,0-100.8,8-151.1,8s-151.1-8-151.1-8c-14.7,0-26.7,6.8-26.7,15.2 c0,8.4,12,15.2,26.7,15.2c0,0,100.7,8,151.1,8s151.1-8,151.1-8C805.7,161.1,817.7,154.3,817.7,145.9z"/><path d="M817.7,171.2c0-8.4-12-15.2-26.7-15.2c0,0-100.8,8-151.1,8s-151.1-8-151.1-8c-14.7,0-26.7,6.8-26.7,15.2 c0,8.4,12,15.2,26.7,15.2c0,0,100.7,15.4,151.1,15.4S791,186.4,791,186.4C805.7,186.4,817.7,179.6,817.7,171.2z"/></g></g><g id="Flight-Suit_M" style="fill: rgb(212, 212, 212);"><path d="M516.6,1664.2l-15.7,92.9L384,2323.3c0,0-52.3,31.5-79.1,36.9c-26.8,5.4-81.9-4.7-81.9-4.7l40.8-458.5 l30.8-195.8l7-83.3c0,0-26.8-242.9-18.1-364c8.7-121.1,70.6-362.6,70.6-362.6l285.9,6.2l285.9-6.2c0,0,61.8,241.5,70.6,362.6 c8.7,121.1-18.1,364-18.1,364l7,83.3l30.8,195.8l40.8,458.5c0,0-56.4,12.7-83.2,7.3c-26.8-5.4-77.8-39.6-77.8-39.6l-116.9-566.3 l-15.7-92.9l-123.2-323.4L516.6,1664.2z"/><g><path d="M1110.7,436.8l127,444l11,228.9l-101.2,19.5l-64.2-215.5L938.7,551.9l7.3-165.8l24.5-39.6L1110.7,436.8z"/><path d="M169.3,436.6l139.9-90.1l24.5,39.6l5.5,171L196.7,913.8l-64.2,215.5l-101.2-19.5l11-228.9L169.3,436.6z"/></g></g></g><g id="Boots_M"><g id="Basic_Boots_M_Option" class="option" style="display: inherit;"><g id="Main_Basic-Boot_M" style="fill: rgb(72, 40, 11);"><path d="M895.4,2286.4c15.5,0.2,34.4,9.9,48,12.2c14.6,2.5,30.5,2.2,46,0.7l6.3-0.7l0.2,0l0.8-0.1l2.1-0.3l3.2-0.4 l1.3-0.2c3.6-0.5,7.2-1.1,10.8-1.7l5.6-1.1l1.2-0.3l0.4-0.1l0.9-0.2l3.9-0.9l3.4-0.9l0.6-0.2c11.9-3.2,23.8-7.1,23.8-7.1 c3.5,15.5,5.3,33.2,11.9,47.6c10.5,22.7,10.1,32.5,27.6,49.7c12.1,11.8,43.2,32.5,57.6,41.5c6.1,3.8,12.6,6.7,19.2,9.2l0.6,0.2 c26.5,9.9,55.1,13.6,69.5,43c3.1,6.4,5.8,14.1,5.3,21.3c-0.7,9.3-10.8,10.6-18.6,12.8c-19.5,5.6-36.4,9.8-58.9,14.9 c-25.8,5.8-49,9.3-75.2,8.6c-19.5-0.6-36.1-1.3-53.3-11.7c-6.9-4.2-14-8.4-20-13.9c-13.4-12.3-22.1-25.1-39.4-32.5 c-12.5-5.3-25.3-9.7-38.5-12.8c-18.7-4.5-46-10.7-56-29.2c-3.9-13.9,0.1-20.7,1.4-32.6l0.6-5.1c1-7.8,2.4-15.7,2.8-24.1 c0.8-16.1-3.2-32-4.2-48.1c-0.6-9.1-1-18.2-1.2-27.3c0-1.5-0.8-8,0.6-8.6c2.1-0.8,4.3-1.3,6.5-1.5L895.4,2286.4z"/><path d="M384.9,2286.4c-15.5,0.2-34.4,9.9-48,12.2c-14.6,2.5-30.5,2.2-46,0.7l-6.3-0.7l-0.2,0l-0.8-0.1l-2.1-0.3 l-3.2-0.4l-1.3-0.2c-3.6-0.5-7.2-1.1-10.8-1.7l-5.6-1.1l-1.2-0.3l-0.4-0.1l-0.9-0.2l-3.9-0.9l-3.4-0.9l-0.6-0.2 c-11.9-3.2-23.8-7.1-23.8-7.1c-3.5,15.5-5.3,33.2-11.9,47.6c-10.5,22.7-10.1,32.5-27.6,49.7c-12.1,11.8-43.2,32.5-57.6,41.5 c-6.1,3.8-12.6,6.7-19.2,9.2l-0.6,0.2c-26.5,9.9-55.1,13.6-69.5,43c-3.1,6.4-5.8,14.1-5.3,21.3c0.7,9.3,10.8,10.6,18.6,12.8 c19.5,5.6,36.4,9.8,58.9,14.9c25.8,5.8,49,9.3,75.2,8.6c19.6-0.6,36.1-1.3,53.3-11.7c6.9-4.2,14-8.4,20-13.9 c13.4-12.3,22.1-25.1,39.4-32.5c12.5-5.3,25.3-9.7,38.5-12.8c18.7-4.5,46-10.7,56-29.2c3.9-13.9-0.1-20.7-1.4-32.6l-0.6-5.1 c-1-7.8-2.4-15.7-2.8-24.1c-0.8-16.1,3.2-32,4.2-48.1c0.6-9.1,1-18.2,1.2-27.3c0-1.5,0.8-8-0.6-8.6c-2.1-0.8-4.3-1.3-6.5-1.5 L384.9,2286.4z"/></g><g id="Bottom_Basic-Boot_M" style="fill: rgb(72, 40, 11);"><path d="M885.4,2433.9c5,9.2,14.3,15.4,24.7,19.8c9.5,4.8,20.6,6.8,31.3,9.4c1.4,0.3,2.9,0.7,4.3,1.1 c2.1,0.6,4.3,1.1,6.4,1.8c0.6,0.2,1.3,0.4,1.9,0.6l1.1,0.3c0.7,0.2,1.4,0.4,2,0.6c0.3,0.1,0.6,0.2,0.9,0.3 c1.2,0.4,2.3,0.7,3.4,1.1c0.4,0.1,0.8,0.3,1.2,0.4l0.6,0.2c1.8,0.6,3.5,1.3,5.3,1.9c0.4,0.1,0.8,0.3,1.1,0.4 c1.6,0.6,3.2,1.2,4.8,1.8l1.2,0.5c1,0.4,1.9,0.8,2.9,1.2c0.4,0.2,0.8,0.3,1.2,0.5c2.8,1.2,5.4,2.6,7.9,4l0.3,0.2 c0.2,0.1,0.4,0.2,0.6,0.3c0.8,0.5,1.5,1,2.2,1.5l0.5,0.3c0.2,0.1,0.3,0.2,0.5,0.3c0.7,0.5,1.5,1.1,2.2,1.6l0.6,0.5l0.9,0.8 c3,2.4,5.7,5,8.5,7.7l0.8,0.8c1.5,1.5,3,3,4.5,4.6c1.5,1.6,3.1,3.2,4.7,4.8c1.6,1.6,3.3,3.3,5.1,4.9l0.6,0.5 c0.5,0.5,1.1,0.9,1.6,1.4c0.1,0.1,0.2,0.2,0.3,0.2c0.9,0.7,1.8,1.4,2.7,2.1c0.6,0.5,1.2,0.9,1.8,1.4l0.3,0.2 c0.8,0.5,1.6,1.1,2.3,1.6c0.3,0.2,0.7,0.5,1,0.7c1.2,0.8,2.3,1.5,3.5,2.2c0.8,0.5,1.6,1,2.4,1.5l1,0.6l2.6,1.6l1.2,0.7l0.8,0.5 l0.8,0.5c1.2,0.6,2.4,1.3,3.6,1.8c0.6,0.3,1.1,0.5,1.7,0.8l0.6,0.3c3.6,1.6,7.2,2.8,10.8,3.7l0.7,0.2l0.8,0.2 c0.3,0.1,0.5,0.1,0.8,0.2c0.7,0.2,1.5,0.3,2.2,0.5c0.6,0.1,1.2,0.2,1.7,0.3l1.4,0.2l0.4,0.1c0.4,0.1,0.8,0.1,1.2,0.2 c0.6,0.1,1.3,0.2,1.9,0.3c0.9,0.1,1.8,0.2,2.7,0.3c0.2,0,0.5,0.1,0.7,0.1c2.3,0.2,4.6,0.4,6.9,0.5c1.3,0.1,2.6,0.1,3.9,0.2l1.1,0 c2.4,0.1,4.9,0.2,7.5,0.3c1.6,0,3.2,0.1,4.8,0.1c0.6,0,1.2,0,1.8,0c0.8,0,1.7,0,2.5,0c0.6,0,1.2,0,1.8,0l0.6,0 c3-0.1,5.9-0.2,8.8-0.3c0.4,0,0.8,0,1.2-0.1l1.2-0.1c0.4,0,0.8,0,1.1-0.1c4.3-0.3,8.6-0.7,12.8-1.2l1.2-0.1 c1.1-0.1,2.1-0.3,3.2-0.4c0.5-0.1,0.9-0.1,1.4-0.2l1.2-0.2c0.9-0.1,1.8-0.3,2.6-0.4c3.7-0.6,7.4-1.2,11.2-1.9 c0.8-0.2,1.7-0.3,2.5-0.5l1.1-0.2c0.4-0.1,0.8-0.2,1.2-0.2l1.2-0.2c0.4-0.1,0.8-0.2,1.2-0.2l0.8-0.2c0.9-0.2,1.8-0.4,2.7-0.6 l1.2-0.3c1.1-0.2,2.1-0.5,3.2-0.7c0.9-0.2,1.8-0.4,2.8-0.6l0.3-0.1c5.9-1.3,11.4-2.6,16.7-3.9l2-0.5c1.5-0.4,3-0.7,4.4-1.1 l1.8-0.5l0.8-0.2c2.1-0.5,4.1-1,6.2-1.5c1.2-0.3,2.5-0.6,3.7-0.9c3.6-0.9,7.1-1.8,10.6-2.8l1.6-0.4c0.6-0.2,1.2-0.3,1.8-0.5 l0.7-0.2c2.7-0.8,5.5-1.5,8.3-2.3l0.7-0.2l1-0.3l2.9-0.8l1-0.3l1.5-0.4l0.6-0.2l1.2-0.4l1-0.4l0.5-0.2l0.6-0.2l0.3-0.1l0.6-0.3 l0.5-0.3l0.3-0.1l0.5-0.3l0.6-0.4l0.6-0.4l0.6-0.4c0.9-0.7,1.7-1.6,2.3-2.6l0,0c0,0,5.2,7.7,5.6,21.2 c-11.7,17-48.8,22.6-100,29.4c-50.9,6.8-82.2,5.5-103.5-3.7c-21.3-9.1-58.6-52.6-85.3-54.9c-26.7-2.3-58.2-16.5-71.2-24.1 c-6.7-3.9-4.7-32-4.7-32L885.4,2433.9z"/><path d="M394.9,2433.9c-5,9.2-14.3,15.4-24.7,19.8c-9.5,4.8-20.6,6.8-31.3,9.4c-1.4,0.3-2.9,0.7-4.3,1.1 c-2.1,0.6-4.3,1.1-6.4,1.8c-0.6,0.2-1.3,0.4-1.9,0.6l-1.1,0.3c-0.7,0.2-1.4,0.4-2,0.6c-0.3,0.1-0.6,0.2-0.9,0.3 c-1.2,0.4-2.3,0.7-3.4,1.1c-0.4,0.1-0.8,0.3-1.2,0.4l-0.6,0.2c-1.8,0.6-3.5,1.3-5.3,1.9c-0.4,0.1-0.8,0.3-1.1,0.4 c-1.6,0.6-3.2,1.2-4.8,1.8l-1.2,0.5c-1,0.4-1.9,0.8-2.9,1.2c-0.4,0.2-0.8,0.3-1.2,0.5c-2.8,1.2-5.4,2.6-7.9,4l-0.3,0.2 c-0.2,0.1-0.4,0.2-0.6,0.3c-0.8,0.5-1.5,1-2.2,1.5l-0.5,0.3c-0.2,0.1-0.3,0.2-0.5,0.3c-0.7,0.5-1.5,1.1-2.2,1.6l-0.6,0.5l-1,0.8 c-3,2.4-5.8,5-8.5,7.7l-0.8,0.8c-1.5,1.5-3,3-4.5,4.6c-1.5,1.6-3.1,3.2-4.7,4.8c-1.6,1.6-3.3,3.3-5.1,4.9l-0.6,0.5 c-0.5,0.5-1.1,0.9-1.6,1.4c-0.1,0.1-0.2,0.2-0.3,0.2c-0.9,0.7-1.8,1.4-2.7,2.1c-0.6,0.5-1.2,0.9-1.8,1.4l-0.3,0.2 c-0.8,0.5-1.5,1.1-2.3,1.6c-0.3,0.2-0.7,0.5-1,0.7c-1.2,0.8-2.3,1.5-3.5,2.2c-0.8,0.5-1.6,1-2.4,1.5l-1,0.6l-2.6,1.6l-1.2,0.7 l-0.8,0.5l-0.8,0.5c-1.2,0.6-2.4,1.3-3.6,1.8c-0.6,0.3-1.1,0.5-1.7,0.8l-0.6,0.3c-3.6,1.6-7.2,2.8-10.8,3.7l-0.7,0.2l-0.8,0.2 c-0.3,0.1-0.5,0.1-0.8,0.2c-0.7,0.2-1.5,0.3-2.2,0.5c-0.6,0.1-1.2,0.2-1.7,0.3l-1.4,0.2l-0.4,0.1c-0.4,0.1-0.8,0.1-1.1,0.2 c-0.6,0.1-1.3,0.2-1.9,0.3c-0.9,0.1-1.8,0.2-2.7,0.3c-0.2,0-0.5,0.1-0.7,0.1c-2.3,0.2-4.6,0.4-6.9,0.5c-1.3,0.1-2.6,0.1-3.9,0.2 l-1.1,0c-2.4,0.1-4.9,0.2-7.5,0.3c-1.6,0-3.2,0.1-4.8,0.1c-0.6,0-1.2,0-1.8,0c-0.8,0-1.7,0-2.5,0c-0.6,0-1.2,0-1.8,0l-0.6,0 c-3-0.1-5.9-0.2-8.8-0.3c-0.4,0-0.8,0-1.2-0.1l-1.2-0.1c-0.4,0-0.7,0-1.1-0.1c-4.3-0.3-8.6-0.7-12.8-1.2l-1.2-0.1 c-1.1-0.1-2.1-0.3-3.2-0.4c-0.5-0.1-0.9-0.1-1.4-0.2l-1.2-0.2c-0.9-0.1-1.8-0.3-2.6-0.4c-3.7-0.6-7.4-1.2-11.2-1.9 c-0.8-0.2-1.7-0.3-2.5-0.5l-1.1-0.2c-0.4-0.1-0.8-0.2-1.2-0.2l-1.2-0.2c-0.4-0.1-0.8-0.2-1.2-0.2l-0.8-0.2 c-0.9-0.2-1.8-0.4-2.7-0.6l-1.2-0.3c-1.1-0.2-2.1-0.5-3.2-0.7c-0.9-0.2-1.9-0.4-2.8-0.6l-0.3-0.1c-5.9-1.3-11.4-2.6-16.7-3.9 l-2-0.5c-1.5-0.4-3-0.7-4.5-1.1l-1.8-0.5l-0.8-0.2c-2.1-0.5-4.1-1-6.2-1.5c-1.2-0.3-2.5-0.6-3.7-0.9c-3.6-0.9-7.1-1.8-10.6-2.8 l-1.6-0.4c-0.6-0.2-1.2-0.3-1.8-0.5l-0.7-0.2c-2.7-0.8-5.5-1.5-8.3-2.3l-0.6-0.2l-1-0.3l-2.9-0.8l-1-0.3l-1.5-0.4l-0.6-0.2 l-1.2-0.4l-1-0.4l-0.5-0.2l-0.6-0.2l-0.3-0.1l-0.6-0.3l-0.5-0.3l-0.3-0.1l-0.5-0.3l-0.6-0.4l-0.6-0.4l-0.6-0.4 c-0.9-0.7-1.7-1.6-2.3-2.6l0,0c0,0-5.2,7.7-5.6,21.2c11.7,17,48.8,22.6,100,29.4c50.9,6.8,82.2,5.5,103.5-3.7 c21.3-9.1,58.6-52.6,85.3-54.9c26.7-2.3,58.2-16.5,71.2-24.1c6.7-3.9,4.7-32,4.7-32L394.9,2433.9z"/></g><g id="Top_Basic-Boot_M" style="fill: rgb(72, 40, 11);"><path d="M1032.2,2291.6c7.1,34.7,18.1,65,41.2,94.2c36,45.6,97.5,49.3,140,86.3c10.9,9.5,10.4,24.8,12.2,38.8 c-17.6,5-33.1,8.9-52.9,13.4c-1.4-14,1.1-29.6-10.5-39.7c-42.5-37-109.4-35.6-145.4-81.1c-23.5-29.8-23.6-68.1-30.5-103.8 c1.1-0.1,2.1-0.2,3.2-0.3l6.3-0.7l0.2,0l0.8-0.1l2.1-0.3l3.2-0.4l1.3-0.2c3.6-0.5,7.2-1.1,10.8-1.7l5.6-1.1l1.2-0.3l0.4-0.1 l0.9-0.2l3.9-0.9l3.4-0.9l0.6-0.2C1030.6,2292,1031.4,2291.8,1032.2,2291.6z"/><path d="M248,2291.6c-7.1,34.7-18.1,65-41.2,94.2c-36,45.6-97.5,49.3-140,86.3c-10.9,9.5-10.4,24.8-12.1,38.8 c17.6,5,33.1,8.9,52.9,13.4c1.4-14-1.1-29.6,10.5-39.7c42.5-37,109.4-35.6,145.4-81.1c23.5-29.8,23.6-68.1,30.4-103.8 c-1.1-0.1-2.1-0.2-3.2-0.3l-6.3-0.7l-0.2,0l-0.8-0.1l-2.1-0.3l-3.2-0.4l-1.3-0.2c-3.6-0.5-7.2-1.1-10.8-1.7l-5.6-1.1l-1.2-0.3 l-0.4-0.1l-0.9-0.2l-3.9-0.9l-3.4-0.9l-0.6-0.2C249.7,2292,248.9,2291.8,248,2291.6z"/></g><g id="Side_Basic-Boot_M" style="fill: rgb(72, 40, 11);"><path d="M899.6,2286.6c14.6,1.6,31.4,9.9,43.8,11.9c0.7,0.1,1.4,0.2,2,0.3c0.2,4.4,0.1,8.7,0.2,12.6 c0.5,21.8-2.2,114.8-6.5,114.6c-4.3-0.2-16.7-2.4-19.9-5.8c-2.1-2.2-2.5-7.6-3.2-10.5c-2.2-9.2-4.2-18.5-5.6-27.9 c-1.9-12.6-3.3-25.1-4.3-37.8C904.7,2324.9,901.8,2305.7,899.6,2286.6z"/><path d="M380.7,2286.6c-14.6,1.6-31.4,9.9-43.8,11.9c-0.7,0.1-1.4,0.2-2,0.3c-0.2,4.4-0.1,8.7-0.2,12.6 c-0.5,21.8,2.2,114.8,6.5,114.6c4.3-0.2,16.7-2.4,19.9-5.8c2.1-2.2,2.5-7.6,3.2-10.5c2.2-9.2,4.2-18.5,5.6-27.9 c1.9-12.6,3.4-25.1,4.3-37.8C375.5,2324.9,378.4,2305.7,380.7,2286.6z"/></g></g></g><g id="Sleeves_M_Toggle" class="toggle" style="fill: rgb(212, 212, 212);"><g><path d="M928.3,573.2l28.4,62.9c0,0,44.9-34.2,74.8-51.1c29.9-17,46.4-28,73.3-38.4c26.9-10.4,53.9-15.7,53.9-15.7 l-64.3-130.6l-61.4-103.1l-122.7,54.8L928.3,573.2z"/><path d="M943.2,606.4c-2.1-2.6,53.8-48,91.2-67.6c37.4-19.6,108.6-39.4,108.6-39.4"/></g><g><path d="M351.7,573.2l-28.4,62.9c0,0-44.9-34.2-74.8-51.1c-29.9-17-46.4-28-73.3-38.4c-26.9-10.4-53.9-15.7-53.9-15.7 l64.3-130.6l61.4-103.1l122.7,54.8L351.7,573.2z"/><path d="M336.8,606.4c2.1-2.6-53.8-48-91.2-67.6c-37.4-19.6-108.6-39.4-108.6-39.4"/></g></g><g id="Gloves_M"><g id="Left-Glove_M"><g id="Basic_Left_Glove_M_Option" class="option" style="display: inherit; fill: rgb(174, 217, 9);"><path d="M1208.1,1298.1c-5.7-0.3-11.1-0.2-16.8,1c-3.9,0.8-7.6,1.7-11.1,3.7c-10.5,6.1-7.6,19.3,1.7,24.3 c10.9,5.9,28.2,0.1,33.2-11.2C1217.3,1311.3,1210.9,1302.6,1208.1,1298.1"/><path d="M1188.9,1309.6c-5.7-0.3-11.1-0.2-16.8,1c-3.9,0.8-7.6,1.7-11.1,3.7c-10.5,6.1-7.6,19.3,1.7,24.3 c10.9,5.9,28.2,0.1,33.2-11.2C1198,1322.8,1191.7,1314.1,1188.9,1309.6"/><path d="M1175.1,1325.2c-5.7,0.5-12.6,1.3-18,3.3c-3.7,1.3-7.3,2.7-10.5,5.2c-9.6,7.4-5,20.1,5,23.8 c11.6,4.3,28-3.7,31.4-15.6C1184.4,1337.1,1175.1,1325.2,1175.1,1325.2z"/><path d="M1144,1148.2c0,0-16.5,22.9-20.8,39.4c-3,11.6-1.4,39.3-5.3,57.9c-3.8,18.6-7.3,28.9-7.3,28.9 s-14.6,29.8-12,36.6c2.5,6.8,15.4,12.9,22.8,9.3c9.1-4.5,20.5-25.5,27.6-40.2c7.3-15,13.3-36.4,13.3-36.4s10,3.5,15.2,7.4 c17.1,13.2,9.7,52.9,9.7,52.9s-7,14.2-17.6,30.2c-14.5,21.8-36.6,40.6-22,57.2c13.7,15.6,44.8-25.3,44.8-25.3l30.5-39.8 c0,0,35-57.7,36.8-68.9c1.4-8.5,0.2-37.1,0.2-37.1l-10.9-110.6l-55.5,4.6l-45.7,14.9L1144,1148.2"/></g></g><g id="Right-Glove_M"><g id="Basic_Right_Glove_M_Option" class="option" style="display: inherit; fill: rgb(174, 217, 9);"><path d="M71.9,1298.1c5.7-0.3,11.1-0.2,16.8,1c3.9,0.8,7.6,1.7,11.1,3.7c10.5,6.1,7.6,19.3-1.7,24.3 c-10.9,5.9-28.2,0.1-33.2-11.2C62.7,1311.3,69.1,1302.6,71.9,1298.1"/><path d="M91.1,1309.6c5.7-0.3,11.1-0.2,16.8,1c3.9,0.8,7.6,1.7,11.1,3.7c10.5,6.1,7.6,19.3-1.7,24.3 c-10.9,5.9-28.2,0.1-33.2-11.2C82,1322.8,88.4,1314.1,91.1,1309.6"/><path d="M104.9,1325.2c5.7,0.5,12.6,1.3,18,3.3c3.7,1.3,7.3,2.7,10.5,5.2c9.6,7.4,5,20.1-5,23.8 c-11.6,4.3-28-3.7-31.4-15.6C95.6,1337.1,104.9,1325.2,104.9,1325.2z"/><path d="M136,1148.2c0,0,16.5,22.9,20.9,39.4c3,11.6,1.4,39.3,5.3,57.9c3.8,18.6,7.3,28.9,7.3,28.9 s14.6,29.8,12,36.6c-2.5,6.8-15.4,12.9-22.7,9.3c-9.2-4.5-20.5-25.5-27.7-40.2c-7.3-15-13.3-36.4-13.3-36.4s-10,3.5-15.2,7.4 c-17.1,13.2-9.7,52.9-9.7,52.9s7,14.2,17.6,30.2c14.4,21.8,36.6,40.6,22,57.2c-13.7,15.6-44.8-25.3-44.8-25.3l-30.5-39.8 c0,0-35-57.7-36.8-68.9c-1.4-8.5-0.2-37.1-0.2-37.1l10.9-110.6l55.5,4.6l45.7,14.9L136,1148.2"/></g></g></g></g></g><g id="Biceps_Current" transform="translate(199,588)"><g id="LeftBiceps_Current"><g id="Left-Biceps_M"><g id="Basic_Biceps_Left_M_Option" class="option" style="display: inherit;"><path id="Main_Basic_Biceps_Left_M" d="M1224.3,527.2c-12.1-29.3-65.9-157.6-65.9-157.6s-88.4,36.5-110.4,45.6 c-6.2,2.6-9.2,9.7-6.6,16c10.4,25.2,35.8,86.8,51.7,125.1c3.6,8.7,10.5,15.6,19.1,19.2c8.7,3.6,18.4,3.6,27.1,0 c26-10.7,60.8-25.1,78.4-32.4C1223.9,540.6,1226.8,533.4,1224.3,527.2z" style="fill: rgb(212, 212, 212);"/><path id="Strap_Basic_Biceps_Left_M" d="M1065,488l-62,25.6l-1.5,45.7l79.4-32.8L1065,488" style="fill: rgb(212, 212, 212);"/></g></g></g><g id="RightBiceps_Current"><g id="Right-Biceps_M"><g id="Basic_Biceps_Right_M_Option" class="option" style="display: inherit;"><path id="Main_Basic_Biceps_Right_M" d="M178,527.2c12.1-29.3,65.9-157.6,65.9-157.6s88.4,36.5,110.4,45.6 c6.2,2.6,9.2,9.7,6.6,16c-10.4,25.2-35.8,86.8-51.7,125.1c-3.6,8.7-10.5,15.6-19.1,19.2c-8.7,3.6-18.4,3.6-27.1,0 c-26-10.7-60.8-25.1-78.4-32.4C178.4,540.6,175.4,533.4,178,527.2z" style="fill: rgb(212, 212, 212);"/><path id="Strap_Basic_Biceps_Right_M" d="M337.2,488l62,25.6l1.5,45.7l-79.4-32.8L337.2,488" style="fill: rgb(212, 212, 212);"/></g></g></g></g><g id="Vest_Current" transform="translate(260,575)"><path id="Vest_M" d="M640,197.9c90.1-0.1,163.5-45.9,165.6-85.4l1.6,0.2l194.8,57.8l141.1,255.2l-30.3,12.4l-142.3-91.7 L946,386.1l-16.3,505.4c0,0-92.4,50.2-143.4,57c-36.5,4.8-91.5,7.2-146.2,7.1c-54.7,0.1-109.7-2.3-146.2-7.1 c-51-6.8-143.4-57-143.4-57L334,386.1l-24.5-39.6l-142.3,91.7l-30.3-12.4L278,170.5l194.8-57.8l1.6-0.2 C476.5,152.1,549.9,197.9,640,197.9" style="fill: rgb(212, 212, 212);"/></g><g id="Upper-Body_M_Wrapper" transform="translate(199,588)"><g id="Chest_Current" class="Classic_M"><g id="Abdomen_Classic_M"><path id="Abdomen-Plate_Classic_M" d="M557.3,820.3l-77.6-32.2l-7-71.9l60.6-19.8l51.3-102.8l116-37.2l116,37.2 l51.3,102.8l60.6,19.8l-7,71.9l-77.6,32.2l-143.4-3.7L557.3,820.3z" style="fill: rgb(212, 212, 212);"/></g><g id="Iron-Heart_Classic_M"><path id="Heart_Classic_M" d="M672.4,427.6v-97.4l28.6-22.4l28.6,22.4v97.4L701,456.5L672.4,427.6z" style="fill: rgb(139, 87, 42);"/><rect id="Center_Heart_Classic_M_Option" x="691.1" y="345.2" width="19.8" height="66.7" class="option" style="display: inherit; fill: rgb(139, 87, 42);"/></g><g id="Chest-Plates_Classic_M"><g id="Left-Chest_Classic_M"><path id="Chest_Left_Classic_M" d="M961.1,244.6l-237.9,28.5l-2.3,22.3l30.3,28.5l-2.3,120.2l-26.8,26v39.7 l102.6,28.5l40.8,92.9l45.5,37.2l50.1-255.2l26.8-13.6L961.1,244.6z" style="fill: rgb(139, 87, 42);"/></g><g id="Right-Chest_Classic_M"><path id="Chest_Right_Classic_M" d="M440.9,244.6l237.9,28.5l2.3,22.3l-30.3,28.5l2.3,120.2l26.8,26v39.7 l-102.6,28.5l-40.8,92.9l-45.5,37.2l-50.1-255.2l-26.8-13.6L440.9,244.6z" style="fill: rgb(139, 87, 42);"/></g></g><g id="Neck-Armor_Classic_M"><path id="Neck-Plate_Classic_M" d="M589,229.7l-148.1-16.1l-26.8-82.2l122.5-36.7c0,0,16.2,27.5,28,37.2 c12.1,9.9,28.2,21.6,43.3,28.2c16.5,7.2,36.7,12.1,55.9,15.2c21.6,3.5,53.1,3.5,74.6,0c19.2-3.1,41.4-8,57.9-15.2 c15.1-6.6,29.1-18.3,41.2-28.2c11.8-9.7,28-37.2,28-37.2l122.5,36.7l-26.8,82.2L813,229.7l-112,14.9L589,229.7z" style="fill: rgb(212, 212, 212);"/></g></g><g id="Collar_Current"/><g id="ChestAttachments_Current"><g id="Chest-Attachments_M"><g id="No-Device_Accessories_Chest_M_Option" class="option" style="display: inherit;"></g></g></g><g id="Gauntlets_Current"><g id="LeftGauntlets_Current"><g id="Left-Gauntlets_M"><g id="Basic_Gauntlet_Left_M_Option" class="option" style="display: inherit;"><path id="Top-2_Basic_Gauntlet_Left_M" d="M1339.1,1120l14.4-23.2l-41.3-195.3l-6.9,23.6l19.6,89l-7.7,22.1 L1339.1,1120z" style="fill: rgb(212, 212, 212);"/><path id="Top-1_Basic_Gauntlet_Left_M" d="M1312.3,901.5l-6.9,23.6l19.6,89l-7.7,22.1l21.7,83.8l-9.5,15.3l5,54.3 l-16.7,4.3l-22.5-81.7l-15.5-5.7l-71.4-239.3l94.5-9.9L1312.3,901.5z" style="fill: rgb(212, 212, 212);"/><g id="Accent-Bottom_Basic_Gauntlet_Left_M" style="fill: rgb(212, 212, 212);"><path d="M1172.5,939.1l-20.9,6.9l10.3,31.1l20.9-6.9L1172.5,939.1z"/><path d="M1190.3,993.6l-20.9,6.9l10.3,31.1l20.9-6.9L1190.3,993.6z"/><path d="M1208.8,1049.3l-20.9,6.9l10.3,31.1l20.9-6.9L1208.8,1049.3z"/></g><path id="Bottom_Basic_Gauntlet_Left_M" d="M1151.8,945.9l-7.7-23.7l65.6-51.1l70.3,235.4l-71.4,13.1l-28.7-88 l20.8-6.9l-10.3-31.1l-20.7,6.8l-7.6-23.3l20.9-6.9l-10.3-31.1L1151.8,945.9z M1208.8,1049.3l-21,6.9l10.2,31.1l21.1-7 L1208.8,1049.3z" style="fill: rgb(212, 212, 212);"/><g id="No-Device_Attachment_Basic_Gauntlet_Left_M_Option" class="option" style="display: inherit;"></g></g></g></g><g id="RightGauntlets_Current"><g id="Right-Gauntlets_M"><g id="Basic_Gauntlet_Right_M_Option" class="option" style="display: inherit;"><path id="Top-2_Basic_Gauntlet_Right_M" d="M62.4,1120L48,1096.8l41.3-195.3l6.9,23.6l-19.6,89l7.7,22.1L62.4,1120z" style="fill: rgb(212, 212, 212);"/><path id="Top-1_Basic_Gauntlet_Right_M" d="M89.2,901.5l6.9,23.6l-19.6,89l7.7,22.1L62.4,1120l9.5,15.3l-5,54.3 l16.7,4.3l22.5-81.7l15.5-5.7l71.4-239.3l-94.5-9.9L89.2,901.5z" style="fill: rgb(212, 212, 212);"/><g id="Accent-Bottom_Basic_Gauntlet_Right_M" style="fill: rgb(212, 212, 212);"><path d="M229,939.1l20.9,6.9l-10.3,31.1l-20.9-6.9L229,939.1z"/><path d="M211.3,993.6l20.9,6.9l-10.3,31.1l-20.9-6.9L211.3,993.6z"/><path d="M192.8,1049.3l20.9,6.9l-10.3,31.1l-20.9-6.9L192.8,1049.3z"/></g><path id="Bottom_Basic_Gauntlet_Right_M" d="M249.8,945.9l7.7-23.7l-65.6-51.1l-70.3,235.4l71.4,13.1l28.7-88 l-20.8-6.9l10.3-31.1l20.7,6.8l7.6-23.3l-20.8-6.9l10.3-31.1L249.8,945.9z M192.8,1049.3l21,6.9l-10.2,31.1l-21.1-7L192.8,1049.3 z" style="fill: rgb(212, 212, 212);"/><g id="No-Device_Attachment_Basic_Gauntlet_Right_M_Option" class="option" style="display: inherit;"></g></g></g></g></g></g><g id="Helmet_M_Wrapper" transform="translate(550,35)"><g id="Helmet_Current" class="GI"><g id="Left-Earcap_GI"><g id="Module_Left_GI_Option" class="option" style="display: inherit;"><g id="Main_Module_Left_GI" style="fill: rgb(174, 217, 9);"><rect x="566.2" y="390.8" width="21.5" height="28.5"/><rect x="594.3" y="375.6" width="7.8" height="5"/><rect x="605.8" y="375.6" width="7.8" height="5"/><path d="M633.3,403.1v-7.8h-5v7.8H633.3z"/><path d="M633.3,414.6v-7.8h-5v7.8H633.3z"/><rect x="594.3" y="429.3" width="7.8" height="5"/><rect x="605.8" y="429.3" width="7.8" height="5"/><circle cx="603.9" cy="405" r="26.4"/></g><g id="Inside_Module_Left_GI" style="fill: rgb(174, 217, 9);"><ellipse cx="603.9" cy="405" rx="20.9" ry="20.6"/><ellipse cx="603.9" cy="405" rx="12.3" ry="12.2"/><ellipse cx="603.9" cy="405" rx="7.8" ry="7.7"/><ellipse cx="603.9" cy="405" rx="4" ry="4"/></g></g><g id="Ear-Cap_Left_GI" style="fill: rgb(174, 217, 9);"><path d="M560,577l10.8-6.7l-2.6-104.9h-12L560,577z"/><path d="M558.5,342.8h-14.2l4.5,82h7.3l5.3,14.9h10l-2.1-60.2l-3.9-10.7v34.5H563v-47.2L558.5,342.8z"/><path d="M548.4,401.5h4.3v11.1h-4L548.4,401.5z"/><path d="M548.9,422h11.3l7,17.6h-5.7l-5.3-14.9h-7.3V422z"/><path d="M565.4,371.3l-2.5-5l-0.2,37h2.7V371.3z"/><path d="M558.5,342.8l1.7,79.3"/><path d="M548.9,424.8v18.3l18.8-0.8l0.4-2.6h-6.7l-5.3-14.9H548.9z"/><path d="M555,594h5.6l13.6-17H560l-3.8-111.6h12l-0.4-23.2l-18.8,0.8L555,594z"/><path d="M560,577h14.2l-3.4-6.7L560,577z"/><path d="M556.3,469.8l13,0l0-4.4h-13.2L556.3,469.8z"/><path d="M563.5,450.4l-7.3,3v-6.1L563.5,450.4z"/><path d="M563.5,458.3l-7.3,3v-6.1L563.5,458.3z"/></g></g><g id="Right-Earcap_GI"><g id="Module_Right_GI_Option" class="option" style="display: inherit;"><g id="Main_Module_Right_GI" style="fill: rgb(174, 217, 9);"><rect x="112.3" y="390.8" width="21.5" height="28.5"/><rect x="97.9" y="375.6" width="7.8" height="5"/><rect x="86.4" y="375.6" width="7.8" height="5"/><path d="M66.7,403.1v-7.8h5v7.8H66.7z"/><path d="M66.7,414.6v-7.8h5v7.8H66.7z"/><rect x="97.9" y="429.3" width="7.8" height="5"/><rect x="86.4" y="429.3" width="7.8" height="5"/><circle cx="96.1" cy="405" r="26.4"/></g><g id="Inside_Module_Right_GI" style="fill: rgb(174, 217, 9);"><ellipse cx="96.1" cy="405" rx="20.9" ry="20.6"/><ellipse cx="96.1" cy="405" rx="12.3" ry="12.2"/><ellipse cx="96.1" cy="405" rx="7.8" ry="7.7"/><ellipse cx="96.1" cy="405" rx="4" ry="4"/></g></g><g id="Ear-Cap_Right_GI" style="fill: rgb(174, 217, 9);"><path d="M151.3,443.1L145.3,594h-5.6l4.4-128.6h-12l0.4-23.2L151.3,443.1z"/><path d="M139.7,594l-10.2-19.6l2.6-109h12L139.7,594z"/><path d="M143.9,469.8l-13,0l0-4.4h13.1L143.9,469.8z"/><circle cx="140.7" cy="449.1" r="3.4"/><circle cx="140.7" cy="458.5" r="3.4"/><path d="M141.7,342.8h14.2l-4.5,82h-7.3l-5.3,14.9h-10l2.1-60.2l3.9-10.7v34.5h2.5v-47.2L141.7,342.8z"/><path d="M151.9,401.5h-4.3v11.1h4L151.9,401.5z"/><path d="M151.3,422h-11.3l-7,17.6h5.7l5.3-14.9h7.3V422z"/><path d="M134.8,371.3l2.5-5l0.2,37h-2.7V371.3z"/><path d="M141.7,342.8l-1.7,79.3"/><path d="M151.3,424.8v18.3l-18.8-0.8l-0.4-2.6h6.7l5.3-14.9H151.3z"/></g></g><g id="Helmet_Pieces_GI"><g id="Face_GI" style="fill: rgb(174, 217, 9);"><path d="M166.2,608.3l26.5-104.6l0.1,0c2,0.2,34,3.5,65.6,50.5c22,32.7,28.1,125.4,28.1,125.4L166.2,608.3z"/><path d="M534.8,608.3l-26.5-104.6l-0.1,0c-2,0.2-34,3.5-65.6,50.5c-22,32.7-28.1,125.4-28.1,125.4L534.8,608.3z"/></g><g id="Cheeks_GI" style="fill: rgb(174, 217, 9);"><path d="M150.7,419.6l-5,174.5l20.4,14.3l26.5-104.6L150.7,419.6z"/><path d="M550.2,419.6l5,174.5l-20.4,14.3l-26.5-104.6L550.2,419.6z"/><path d="M150.9,419.6c3.5,0.8,60.5,15,94.7,70c34.2,55,49,181.7,49.8,189.6l0,0.4h-9c0,0-6.2-92.7-28.1-125.4 c-32.6-48.5-65.7-50.5-65.7-50.5l-41.9-84.1L150.9,419.6z"/><path d="M550.1,419.6c-3.5,0.8-60.5,15-94.7,70c-34.2,55-49,181.7-49.8,189.6l0,0.4h9c0,0,6.2-92.7,28.1-125.4 c32.6-48.5,65.7-50.5,65.7-50.5l41.9-84.1L550.1,419.6z"/></g><path id="Visor_GI" d="M161.1,369.5l189.4,10.2l189.4-10.2v15.7L392,419.6l-11.3,260h-60.6l-11.3-260l-147.8-34.5 V369.5z" style="fill: rgb(0, 0, 0);"/><path id="Eyes_GI" d="M161.1,369.5v15.7l147.8,34.5l11.3,260h-24.7c0,0-14.5-133.2-49.9-190 c-35.4-56.8-94.9-70-94.9-70l5.1-76.8h389.2l5.1,76.8c0,0-59.5,13.3-94.9,70c-35.4,56.8-49.9,190-49.9,190h-24.7l11.3-260 l147.8-34.5v-15.7c0,0-126.2,10.2-189.4,10.2S161.1,369.5,161.1,369.5z" style="fill: rgb(174, 217, 9);"/><path id="Dome_GI" d="M544.7,342.8H155.5c0-99.3,87.2-180,194.6-180S544.7,243.4,544.7,342.8z" style="fill: rgb(174, 217, 9);"/></g></g></g><g transform="translate(199, 588)" id="Shoulders_Current"><g id="LeftShoulder_Current"><g id="Left-Shoulder_M"><g id="Classic_Shoulder_Left_M_Option" class="option" style="display: inherit;"><path id="Main_Shoulder_Classic_Left_M" d="M1042.4,116.3l-26.7,120.8l21.4,69.6l143,72.4l24-36.9L1042.4,116.3z" style="fill: rgb(212, 212, 212);"/></g></g></g><g id="RightShoulder_Current"><g id="Right-Shoulder_M"><g id="Classic_Shoulder_Right_M_Option" class="option" style="display: inherit;"><path id="Main_Shoulder_Classic_Right_M" d="M359.6,116.3l26.7,120.8l-21.4,69.6l-143,72.4l-24-36.9L359.6,116.3z" style="fill: rgb(212, 212, 212);"/></g></g></g></g><g id="Lower-Body_M_Wrapper" transform="translate(268,1340)"><g id="Knees_Current"><g id="LeftKnee_Current"><g id="Left-Knee_M"><g id="Basic_Knee_Left_M_Option" class="option" style="display: inherit;"><g id="Knee_Basic-Knee_Left_M" style="fill: rgb(112, 64, 22);"><path d="M754.2,903.7l15.2-2.5c0,0,11.5,73.9,16.6,106.6c1.3,8.4-4.4,16.3-12.8,17.7l0,0L754.2,903.7z"/><path d="M768.9,898.2l8.7,54.8c11.1-6.3,39.2,5.3,48.4,38.2c16.8,60.4,31.5,74.3,84.2,68.8 c41-4.2,70.3-23.5,73.7-51.9c4.9-41.1,0-100.6-2.5-125.7c-0.3-3.1-1.9-6-4.4-7.9c-2.5-1.9-5.6-2.8-8.7-2.4 C923.9,877.9,768.9,898.2,768.9,898.2z"/><path d="M763.7,899l5.2-0.8l9.7,59.3l-5.2,0.8L763.7,899z"/></g></g></g></g><g id="RightKnee_Current"><g id="Right-Knee_M"><g id="Basic_Knee_Right_M_Option" class="option" style="display: inherit;"><g id="Knee_Basic-Knee_Right_M" style="fill: rgb(112, 64, 22);"><path d="M511,903.7l-15.2-2.5c0,0-11.5,73.9-16.6,106.6c-1.3,8.4,4.4,16.3,12.8,17.7l0,0L511,903.7z"/><path d="M496.3,898.2l-8.7,54.8c-11.1-6.3-39.2,5.3-48.4,38.2c-16.8,60.4-31.5,74.3-84.2,68.8 c-41-4.2-70.3-23.5-73.7-51.9c-4.9-41.1,0-100.6,2.5-125.7c0.3-3.1,1.9-6,4.4-7.9c2.5-1.9,5.6-2.8,8.7-2.4 C341.3,877.9,496.3,898.2,496.3,898.2z"/><path d="M501.5,899l-5.2-0.8l-9.7,59.3l5.2,0.8L501.5,899z"/></g></g></g></g></g><g id="Shins_Current"><g id="LeftShin_Current"><g id="Left-Shin_M"><g id="Basic_Shin_Left_M_Option" class="option" style="display: inherit;"><path id="Shin_Basic-Shin_Left_M" d="M1021.3,1126.1l-53.7-58.4L861,1082.2l-38.9,92.9l72.9,309.8 c47.4,19.4,115.6,9.3,152.3-24.5L1021.3,1126.1" style="fill: rgb(112, 64, 22);"/></g></g></g><g id="RightShin_Current"><g id="Right-Shin_M"><g id="Basic_Shin_Right_M_Option" class="option" style="display: inherit;"><path id="Shin_Basic-Shin_Right_M" d="M244.2,1126.1l53.7-58.4l106.6,14.5l38.9,92.9l-72.9,309.8 c-47.4,19.4-115.5,9.3-152.3-24.5L244.2,1126.1" style="fill: rgb(112, 64, 22);"/></g></g></g></g><g id="Ankles_Current"><g id="LeftAnkle_Current"><g id="Left-Ankle_M"><g id="Basic_Ankle_Left_M_Option" class="option" style="display: inherit;"><path id="Main_Basic-Ankle_Left_M" d="M1136.9,1658.4l-83.1-146.4c-49.1-2.6-95.2,5.6-137.9,25.6 c-4.1,1.9-7.1,5.5-8.5,9.8c-0.9,2.8-1.9,6.2-3.1,9.8c-5,15.8-0.4,33.1,11.6,44.4c25.5,24,69.9,63.2,97,72.5 C1074.7,1695.3,1136.9,1658.4,1136.9,1658.4" style="fill: rgb(72, 40, 11);"/></g></g></g><g id="RightAnkle_Current"><g id="Right-Ankle_M"><g id="Basic_Ankle_Right_M_Option" class="option" style="display: inherit;"><path id="Main_Basic-Ankle_Right_M" d="M128.1,1658.4l83.1-146.4c49.1-2.6,95.2,5.6,137.9,25.6 c4.1,1.9,7.1,5.5,8.5,9.8c0.9,2.8,1.9,6.2,3.1,9.8c5,15.8,0.4,33.1-11.6,44.4c-25.5,24-69.9,63.2-97,72.5 C190.3,1695.3,128.1,1658.4,128.1,1658.4" style="fill: rgb(72, 40, 11);"/></g></g></g></g><g id="Toes_Current"><g id="LeftToe_Current"><g id="Left-Toe_M"><g id="None_Toe_Left_M_Option" class="option" style="display: inherit;"></g></g></g><g id="RightToe_Current"><g id="Right-Toe_M"><g id="None_Toe_Right_M_Option" class="option" style="display: inherit;"></g></g></g></g><g id="Thighs_Current"><g id="LeftThigh_Current"><g id="Left-Thigh_M"><g id="Basic_Thigh_Left_M_Option" class="option" style="display: inherit;"><path id="Thigh_Basic-Thigh_Left_M" d="M1006.3,442.8c0,0-53.3-68.5-80.5-79.9c-25.8-10.8-60.3-6.1-82.5,11.6 c-33.8,27.1-111.4,85.7-120.2,151c-9.8,72.9,43.2,234.1,61.3,286.1c6.1,17.7,29.3,25.7,47,26.4c32.8,1.2,122.6-1.6,144.1-50 C1004.6,722.2,1006.3,442.8,1006.3,442.8" style="fill: rgb(112, 64, 22);"/></g></g></g><g id="RightThigh_Current"><g id="Right-Thigh_M"><g id="Basic_Thigh_Right_M_Option" class="option" style="display: inherit;"><path id="Thigh_Basic-Thigh_Right_M" d="M258.9,442.8c0,0,53.3-68.5,80.5-79.9c25.8-10.8,60.3-6.1,82.5,11.6 c33.8,27.1,111.4,85.7,120.2,151c9.8,72.9-43.2,234.1-61.3,286.1c-6.1,17.7-29.3,25.7-47,26.4c-32.8,1.2-122.6-1.6-144.1-50 C260.6,722.2,258.9,442.8,258.9,442.8" style="fill: rgb(112, 64, 22);"/></g></g></g></g><g id="Groin_Current"><g id="Groin_M"><g id="Basic_Groin_M_Option" class="option" style="display: inherit;"><path id="Groin-Plate_Basic_M" d="M566.1,514.1L455.3,270.1h354.3L698.8,514.1l-66.4,58.2L566.1,514.1z" style="fill: rgb(212, 212, 212);"/></g></g></g><g id="Waist_Current" class="M"><g id="Accessories_Waist_M"><g id="Kama_M_ToggleOff" class="toggle" style=""><g id="Clean_Kama_M_Option" class="option" style="display: inherit;"><g id="Trim_Kama-Clean" style="fill: rgb(212, 212, 212);"><path d="M806.7,101.6l38.1,609.9l280,186.2l-212.4-825L806.7,101.6z"/><path d="M458.8,101.6l-38.1,609.9l-280,186.2l212.4-825L458.8,101.6z"/></g><g id="Main_Kama-Clean" style="fill: rgb(212, 212, 212);"><path d="M826.6,100.3l36.8,589.9l252.6,173.6L912.4,72.7L826.6,100.3z"/><path d="M438.9,100.3l-36.8,589.9L149.4,863.9L353.1,72.7L438.9,100.3z"/></g></g></g><g id="Loin-Cloth_M_ToggleOff" class="toggle" style=""><g id="Clean_Loin-Cloth_M_Option" class="option" style="display: inherit;"><path id="Trim_Loin-Cloth-Clean" d="M766.8,140.8h-268v477.1l134,134l134-134V140.8z" style="fill: rgb(212, 212, 212);"/><path id="Main_Loin-Cloth-Clean" d="M749.6,191H515.9v415.9l116.8,116.8l116.8-116.8V191z" style="fill: rgb(212, 212, 212);"/></g></g></g><g id="Under-Belt_M"><g id="Girth-Belt_M_Option" class="option" style="display: inherit; fill: rgb(212, 212, 212);"><path d="M632.4,115.8c-98.8,0-296.5-24-296.5-24l6.4-20.3c0,0,192.8,16,290.1,24c96.8-8,290.1-24,290.1-24l6.4,20.3 C929,91.8,731.3,115.8,632.4,115.8z"/><path d="M632.4,136.1c-100.9,0-302.7-24-302.7-24l6.2-20.3c0,0,247.1,20,296.5,24c49.4-4,296.5-24,296.5-24l6.2,20.3 C935.1,112.1,733.3,136.1,632.4,136.1z"/><path d="M632.4,156.5c-102.4,0-307.3-24-307.3-24l4.6-20.3c0,0,252.3,20,302.7,24c50.5-4,302.7-24,302.7-24l4.6,20.3 C939.7,132.5,734.9,156.5,632.4,156.5z"/><path d="M632.4,176.8c-103.7,0-311.2-24-311.2-24l3.9-20.3c0,0,256.1,20,307.3,24c51.2-4,307.3-24,307.3-24l3.9,20.3 C943.6,152.8,736.2,176.8,632.4,176.8z"/><path d="M632.4,197.1c-104.9,0-314.7-24-314.7-24l3.5-20.3c0,0,259.3,20,311.2,24c51.9-4,311.2-24,311.2-24l3.5,20.3 C947.1,173.1,737.3,197.1,632.4,197.1z"/><path d="M632.4,217.5c-106,0-318-24-318-24l3.3-20.3c0,0,262.2,20,314.7,24c52.4-4,314.7-24,314.7-24l3.3,20.3 C950.4,193.5,738.4,217.5,632.4,217.5z"/><path d="M632.4,237.8c-107.1,0-321.2-24-321.2-24l3.3-20.3c0,0,265,20,318,24c53-4,318-24,318-24l3.3,20.3 C953.7,213.8,739.5,237.8,632.4,237.8z"/><path d="M632.4,258.1c-108.2,0-324.6-24-324.6-24l3.4-20.3c0,0,267.7,20,321.2,24c53.5-4,321.2-24,321.2-24l3.3,20.3 C957,234.1,740.6,258.1,632.4,258.1z"/><path d="M632.4,278.5c-109.4,0-328.2-24-328.2-24l3.7-20.3c0,0,270.5,20,324.6,24c54.1-4,324.6-24,324.6-24l3.7,20.3 C960.7,254.5,741.8,278.5,632.4,278.5z"/><path d="M632.4,298.8c-110.8,0-332.4-24-332.4-24l4.2-20.3c0,0,273.5,20,328.2,24c54.7-4,328.2-24,328.2-24l4.2,20.3 C964.8,274.8,743.2,298.8,632.4,298.8z"/></g></g><g id="Belt_M"><g id="Basic-Belt_M_Option" class="option" style="display: inherit;"><path id="Main_Basic-Belt_M" d="M953.4,201.3c-72.3,6.5-237.4,30.1-320.8,30.1c-84.2,0-249.3-23.8-320.7-30.1 l10.7-84.6C381.2,122,551.1,146,632.6,146c79.1,0,245.5-23.8,308.1-29.5L953.4,201.3z" style="fill: rgb(139, 87, 42);"/><rect id="Buckle_Basic-Belt_M" x="573.5" y="137.9" width="119.5" height="98.1" style="fill: rgb(139, 87, 42);"/></g></g></g></g></svg>
