<svg id="Male-Body" viewBox="0 0 1800 3300" version="1.1" xmlns="http://www.w3.org/2000/svg" style="stroke:black;stroke-width:2px;fill-rule:evenodd;height:100%;"><g id="Back_M" transform="translate(0,560)"><g id="Cape_M"><path id="Torn-Full-Cape_Back_M_Option" d="M724.6,148.9c-124.5,47-263.2,273.6-280.3,445.9c-10.8,108.7-63.8,219.2-58.9,327.4 c5,109.8-50.3,223.6-54.4,333.3c-3.7,98.8-32.8,144-49.7,241.7c-25.3,146.2-53.3,242.6-76,388.9c-18.1,116.3-72.6,212.5-98.3,248.8 c-1,1.3,26.1-12.5,59.6-13.1c9.8-0.2,58.5-71.8,58.5-71.8s60.7,50.6,73.2,79.1c16.4-10.4,28.9-161.8,47.6-167.7 c9.8-3.1,27.8,190.1,27.8,190.1s29.2-57.2,40.4-57.4c24-0.5,67.9,21.5,92.5,24.1c26.1,2.8,53-40.5,81.6-33.4 c44,10.8,87.6,9.9,131.4,15.6c30.9,4,61.9,64.3,93,64.2c38.3-0.1,32.9-89.9,72.1-98.6c33.6-7.4,79.3,72.7,79.3,72.7 s10.6-265.9,43.7-276.8c43.4-14.2,206.6,200.1,252,195.9c13.4-1.2,30.7-135.6,43.9-135.4c28.8,0.6,53.3,138.4,81.7,143.8 c35.6,6.8,52.8-59.9,87.9-51.2c9.9,2.5,37.8,80.9,47.7,83.2c21.7,5.1,51.7,17.9,74.2,16.5c0.6,0-7.2-52.1-8.3-57.7 c-5-24.9-13-49.3-23-73c-11.9-28.2-26.7-55.2-42.8-80.7c-75.2-119-49.3-249.6-63-390.3c-13.3-136.4,0.6-273.1-22.3-409.2 c-20.3-120.4-91.5-232.5-109.4-354c-20.9-142.6-69.6-295.3-112.6-433.8C1160.7,145.9,849.2,101.9,724.6,148.9z M759.9,1958.3 c-10,25.8-13.9,52.8-11.1,80.4c1.3,12.5,4.9,25.4,11.1,36.5c0.6,1.1,0.9,4.1,1.9,3.2C808.6,2036.7,759.9,1958.3,759.9,1958.3z M393.9,1700.3c-4.3,82.5-12,165.4-12,248c0,15.5,0.2,30.9,1.6,46.3c0.2,2.4,2.6,25.1,3.8,24.8c28-5.6,14.4-82.1,21-105.9 C431.3,1831.2,393.9,1700.3,393.9,1700.3z M1371.9,1986.3c-2.5,29.9,6.5,26.6,14.2,11.6c7.7-15,13.9-41.6,5.9-58.4L1371.9,1986.3z M1249.9,1726.3c-6.9,49.5,3.8,91.6,7.4,140.3c1.2,15.9,1.2,31.8,1.5,47.7c0.1,5.3,0.3,10.7,0.2,16c-0.1,2.7-2,10.1-0.1,8.2 c37.3-38.9,33.1-114,21.5-162.1L1249.9,1726.3z M803.9,1872.3c-0.4,12.7-0.2,25.9,1.5,38.5c3.4,25.5,17.7-14.6,17.9-24.7 c0.3-14-9.1-30.4-12.5-43.9L803.9,1872.3z" class="option" style="display: inherit; fill: rgb(74, 147, 169);"/></g></g><g id="Flight-Suit" transform="translate(260,575)"><g id="Soft-Parts_M"><g id="Suit_M"><g id="Neck-Seal_M"><g id="Standard-Neck-Seal_M_Option" class="option" style="display: inherit; fill: rgb(52, 68, 83);"><path d="M785.8,54.9c0-9.6-9.8-17.3-21.9-17.3c0,0-82.7,9.1-124,9.1s-124-9.1-124-9.1c-12.1,0-21.9,7.8-21.9,17.3 c0,9.6,9.8,17.3,21.9,17.3c0,0,82.7,9.1,124,9.1s124-9.1,124-9.1C775.9,72.2,785.8,64.4,785.8,54.9z"/><path d="M793.2,75.1c0-10-10.3-18.2-23-18.2c0,0-86.9,9.6-130.3,9.6c-43.4,0-130.3-9.6-130.3-9.6 c-12.7,0-23,8.1-23,18.2s10.3,18.2,23,18.2c0,0,86.9,9.6,130.3,9.6c43.4,0,130.3-9.6,130.3-9.6C782.8,93.3,793.2,85.1,793.2,75.1 z"/><path d="M801.5,100.2c0-10.6-10.9-19.2-24.3-19.2c0,0-91.6,10.1-137.4,10.1S502.4,81.1,502.4,81.1 c-13.4,0-24.3,8.6-24.3,19.2s10.9,19.2,24.3,19.2c0,0,91.6,10.1,137.4,10.1s137.4-10.1,137.4-10.1 C790.7,119.4,801.5,110.8,801.5,100.2z"/><path d="M809.6,123.3c0-11.1-11.4-20.1-25.5-20.1c0,0-96.2,10.6-144.3,10.6c-48.1,0-144.3-10.6-144.3-10.6 c-14.1,0-25.5,9-25.5,20.1s11.4,20.1,25.5,20.1c0,0,96.2,10.6,144.3,10.6c48.1,0,144.3-10.6,144.3-10.6 C798.2,143.4,809.6,134.4,809.6,123.3z"/><path d="M817.7,145.9c0-8.4-12-15.2-26.7-15.2c0,0-100.8,8-151.1,8s-151.1-8-151.1-8c-14.7,0-26.7,6.8-26.7,15.2 c0,8.4,12,15.2,26.7,15.2c0,0,100.7,8,151.1,8s151.1-8,151.1-8C805.7,161.1,817.7,154.3,817.7,145.9z"/><path d="M817.7,171.2c0-8.4-12-15.2-26.7-15.2c0,0-100.8,8-151.1,8s-151.1-8-151.1-8c-14.7,0-26.7,6.8-26.7,15.2 c0,8.4,12,15.2,26.7,15.2c0,0,100.7,15.4,151.1,15.4S791,186.4,791,186.4C805.7,186.4,817.7,179.6,817.7,171.2z"/></g></g><g id="Flight-Suit_M" style="fill: rgb(52, 68, 83);"><path d="M516.6,1664.2l-15.7,92.9L384,2323.3c0,0-52.3,31.5-79.1,36.9c-26.8,5.4-81.9-4.7-81.9-4.7l40.8-458.5 l30.8-195.8l7-83.3c0,0-26.8-242.9-18.1-364c8.7-121.1,70.6-362.6,70.6-362.6l285.9,6.2l285.9-6.2c0,0,61.8,241.5,70.6,362.6 c8.7,121.1-18.1,364-18.1,364l7,83.3l30.8,195.8l40.8,458.5c0,0-56.4,12.7-83.2,7.3c-26.8-5.4-77.8-39.6-77.8-39.6l-116.9-566.3 l-15.7-92.9l-123.2-323.4L516.6,1664.2z"/><g><path d="M1110.7,436.8l127,444l11,228.9l-101.2,19.5l-64.2-215.5L938.7,551.9l7.3-165.8l24.5-39.6L1110.7,436.8z"/><path d="M169.3,436.6l139.9-90.1l24.5,39.6l5.5,171L196.7,913.8l-64.2,215.5l-101.2-19.5l11-228.9L169.3,436.6z"/></g></g></g><g id="Boots_M"><g id="Basic_Boots_M_Option" class="option" style="display: inherit;"><g id="Main_Basic-Boot_M" style="fill: rgb(42, 41, 41);"><path d="M895.4,2286.4c15.5,0.2,34.4,9.9,48,12.2c14.6,2.5,30.5,2.2,46,0.7l6.3-0.7l0.2,0l0.8-0.1l2.1-0.3l3.2-0.4 l1.3-0.2c3.6-0.5,7.2-1.1,10.8-1.7l5.6-1.1l1.2-0.3l0.4-0.1l0.9-0.2l3.9-0.9l3.4-0.9l0.6-0.2c11.9-3.2,23.8-7.1,23.8-7.1 c3.5,15.5,5.3,33.2,11.9,47.6c10.5,22.7,10.1,32.5,27.6,49.7c12.1,11.8,43.2,32.5,57.6,41.5c6.1,3.8,12.6,6.7,19.2,9.2l0.6,0.2 c26.5,9.9,55.1,13.6,69.5,43c3.1,6.4,5.8,14.1,5.3,21.3c-0.7,9.3-10.8,10.6-18.6,12.8c-19.5,5.6-36.4,9.8-58.9,14.9 c-25.8,5.8-49,9.3-75.2,8.6c-19.5-0.6-36.1-1.3-53.3-11.7c-6.9-4.2-14-8.4-20-13.9c-13.4-12.3-22.1-25.1-39.4-32.5 c-12.5-5.3-25.3-9.7-38.5-12.8c-18.7-4.5-46-10.7-56-29.2c-3.9-13.9,0.1-20.7,1.4-32.6l0.6-5.1c1-7.8,2.4-15.7,2.8-24.1 c0.8-16.1-3.2-32-4.2-48.1c-0.6-9.1-1-18.2-1.2-27.3c0-1.5-0.8-8,0.6-8.6c2.1-0.8,4.3-1.3,6.5-1.5L895.4,2286.4z"/><path d="M384.9,2286.4c-15.5,0.2-34.4,9.9-48,12.2c-14.6,2.5-30.5,2.2-46,0.7l-6.3-0.7l-0.2,0l-0.8-0.1l-2.1-0.3 l-3.2-0.4l-1.3-0.2c-3.6-0.5-7.2-1.1-10.8-1.7l-5.6-1.1l-1.2-0.3l-0.4-0.1l-0.9-0.2l-3.9-0.9l-3.4-0.9l-0.6-0.2 c-11.9-3.2-23.8-7.1-23.8-7.1c-3.5,15.5-5.3,33.2-11.9,47.6c-10.5,22.7-10.1,32.5-27.6,49.7c-12.1,11.8-43.2,32.5-57.6,41.5 c-6.1,3.8-12.6,6.7-19.2,9.2l-0.6,0.2c-26.5,9.9-55.1,13.6-69.5,43c-3.1,6.4-5.8,14.1-5.3,21.3c0.7,9.3,10.8,10.6,18.6,12.8 c19.5,5.6,36.4,9.8,58.9,14.9c25.8,5.8,49,9.3,75.2,8.6c19.6-0.6,36.1-1.3,53.3-11.7c6.9-4.2,14-8.4,20-13.9 c13.4-12.3,22.1-25.1,39.4-32.5c12.5-5.3,25.3-9.7,38.5-12.8c18.7-4.5,46-10.7,56-29.2c3.9-13.9-0.1-20.7-1.4-32.6l-0.6-5.1 c-1-7.8-2.4-15.7-2.8-24.1c-0.8-16.1,3.2-32,4.2-48.1c0.6-9.1,1-18.2,1.2-27.3c0-1.5,0.8-8-0.6-8.6c-2.1-0.8-4.3-1.3-6.5-1.5 L384.9,2286.4z"/></g><g id="Bottom_Basic-Boot_M" style="fill: rgb(0, 0, 0);"><path d="M885.4,2433.9c5,9.2,14.3,15.4,24.7,19.8c9.5,4.8,20.6,6.8,31.3,9.4c1.4,0.3,2.9,0.7,4.3,1.1 c2.1,0.6,4.3,1.1,6.4,1.8c0.6,0.2,1.3,0.4,1.9,0.6l1.1,0.3c0.7,0.2,1.4,0.4,2,0.6c0.3,0.1,0.6,0.2,0.9,0.3 c1.2,0.4,2.3,0.7,3.4,1.1c0.4,0.1,0.8,0.3,1.2,0.4l0.6,0.2c1.8,0.6,3.5,1.3,5.3,1.9c0.4,0.1,0.8,0.3,1.1,0.4 c1.6,0.6,3.2,1.2,4.8,1.8l1.2,0.5c1,0.4,1.9,0.8,2.9,1.2c0.4,0.2,0.8,0.3,1.2,0.5c2.8,1.2,5.4,2.6,7.9,4l0.3,0.2 c0.2,0.1,0.4,0.2,0.6,0.3c0.8,0.5,1.5,1,2.2,1.5l0.5,0.3c0.2,0.1,0.3,0.2,0.5,0.3c0.7,0.5,1.5,1.1,2.2,1.6l0.6,0.5l0.9,0.8 c3,2.4,5.7,5,8.5,7.7l0.8,0.8c1.5,1.5,3,3,4.5,4.6c1.5,1.6,3.1,3.2,4.7,4.8c1.6,1.6,3.3,3.3,5.1,4.9l0.6,0.5 c0.5,0.5,1.1,0.9,1.6,1.4c0.1,0.1,0.2,0.2,0.3,0.2c0.9,0.7,1.8,1.4,2.7,2.1c0.6,0.5,1.2,0.9,1.8,1.4l0.3,0.2 c0.8,0.5,1.6,1.1,2.3,1.6c0.3,0.2,0.7,0.5,1,0.7c1.2,0.8,2.3,1.5,3.5,2.2c0.8,0.5,1.6,1,2.4,1.5l1,0.6l2.6,1.6l1.2,0.7l0.8,0.5 l0.8,0.5c1.2,0.6,2.4,1.3,3.6,1.8c0.6,0.3,1.1,0.5,1.7,0.8l0.6,0.3c3.6,1.6,7.2,2.8,10.8,3.7l0.7,0.2l0.8,0.2 c0.3,0.1,0.5,0.1,0.8,0.2c0.7,0.2,1.5,0.3,2.2,0.5c0.6,0.1,1.2,0.2,1.7,0.3l1.4,0.2l0.4,0.1c0.4,0.1,0.8,0.1,1.2,0.2 c0.6,0.1,1.3,0.2,1.9,0.3c0.9,0.1,1.8,0.2,2.7,0.3c0.2,0,0.5,0.1,0.7,0.1c2.3,0.2,4.6,0.4,6.9,0.5c1.3,0.1,2.6,0.1,3.9,0.2l1.1,0 c2.4,0.1,4.9,0.2,7.5,0.3c1.6,0,3.2,0.1,4.8,0.1c0.6,0,1.2,0,1.8,0c0.8,0,1.7,0,2.5,0c0.6,0,1.2,0,1.8,0l0.6,0 c3-0.1,5.9-0.2,8.8-0.3c0.4,0,0.8,0,1.2-0.1l1.2-0.1c0.4,0,0.8,0,1.1-0.1c4.3-0.3,8.6-0.7,12.8-1.2l1.2-0.1 c1.1-0.1,2.1-0.3,3.2-0.4c0.5-0.1,0.9-0.1,1.4-0.2l1.2-0.2c0.9-0.1,1.8-0.3,2.6-0.4c3.7-0.6,7.4-1.2,11.2-1.9 c0.8-0.2,1.7-0.3,2.5-0.5l1.1-0.2c0.4-0.1,0.8-0.2,1.2-0.2l1.2-0.2c0.4-0.1,0.8-0.2,1.2-0.2l0.8-0.2c0.9-0.2,1.8-0.4,2.7-0.6 l1.2-0.3c1.1-0.2,2.1-0.5,3.2-0.7c0.9-0.2,1.8-0.4,2.8-0.6l0.3-0.1c5.9-1.3,11.4-2.6,16.7-3.9l2-0.5c1.5-0.4,3-0.7,4.4-1.1 l1.8-0.5l0.8-0.2c2.1-0.5,4.1-1,6.2-1.5c1.2-0.3,2.5-0.6,3.7-0.9c3.6-0.9,7.1-1.8,10.6-2.8l1.6-0.4c0.6-0.2,1.2-0.3,1.8-0.5 l0.7-0.2c2.7-0.8,5.5-1.5,8.3-2.3l0.7-0.2l1-0.3l2.9-0.8l1-0.3l1.5-0.4l0.6-0.2l1.2-0.4l1-0.4l0.5-0.2l0.6-0.2l0.3-0.1l0.6-0.3 l0.5-0.3l0.3-0.1l0.5-0.3l0.6-0.4l0.6-0.4l0.6-0.4c0.9-0.7,1.7-1.6,2.3-2.6l0,0c0,0,5.2,7.7,5.6,21.2 c-11.7,17-48.8,22.6-100,29.4c-50.9,6.8-82.2,5.5-103.5-3.7c-21.3-9.1-58.6-52.6-85.3-54.9c-26.7-2.3-58.2-16.5-71.2-24.1 c-6.7-3.9-4.7-32-4.7-32L885.4,2433.9z"/><path d="M394.9,2433.9c-5,9.2-14.3,15.4-24.7,19.8c-9.5,4.8-20.6,6.8-31.3,9.4c-1.4,0.3-2.9,0.7-4.3,1.1 c-2.1,0.6-4.3,1.1-6.4,1.8c-0.6,0.2-1.3,0.4-1.9,0.6l-1.1,0.3c-0.7,0.2-1.4,0.4-2,0.6c-0.3,0.1-0.6,0.2-0.9,0.3 c-1.2,0.4-2.3,0.7-3.4,1.1c-0.4,0.1-0.8,0.3-1.2,0.4l-0.6,0.2c-1.8,0.6-3.5,1.3-5.3,1.9c-0.4,0.1-0.8,0.3-1.1,0.4 c-1.6,0.6-3.2,1.2-4.8,1.8l-1.2,0.5c-1,0.4-1.9,0.8-2.9,1.2c-0.4,0.2-0.8,0.3-1.2,0.5c-2.8,1.2-5.4,2.6-7.9,4l-0.3,0.2 c-0.2,0.1-0.4,0.2-0.6,0.3c-0.8,0.5-1.5,1-2.2,1.5l-0.5,0.3c-0.2,0.1-0.3,0.2-0.5,0.3c-0.7,0.5-1.5,1.1-2.2,1.6l-0.6,0.5l-1,0.8 c-3,2.4-5.8,5-8.5,7.7l-0.8,0.8c-1.5,1.5-3,3-4.5,4.6c-1.5,1.6-3.1,3.2-4.7,4.8c-1.6,1.6-3.3,3.3-5.1,4.9l-0.6,0.5 c-0.5,0.5-1.1,0.9-1.6,1.4c-0.1,0.1-0.2,0.2-0.3,0.2c-0.9,0.7-1.8,1.4-2.7,2.1c-0.6,0.5-1.2,0.9-1.8,1.4l-0.3,0.2 c-0.8,0.5-1.5,1.1-2.3,1.6c-0.3,0.2-0.7,0.5-1,0.7c-1.2,0.8-2.3,1.5-3.5,2.2c-0.8,0.5-1.6,1-2.4,1.5l-1,0.6l-2.6,1.6l-1.2,0.7 l-0.8,0.5l-0.8,0.5c-1.2,0.6-2.4,1.3-3.6,1.8c-0.6,0.3-1.1,0.5-1.7,0.8l-0.6,0.3c-3.6,1.6-7.2,2.8-10.8,3.7l-0.7,0.2l-0.8,0.2 c-0.3,0.1-0.5,0.1-0.8,0.2c-0.7,0.2-1.5,0.3-2.2,0.5c-0.6,0.1-1.2,0.2-1.7,0.3l-1.4,0.2l-0.4,0.1c-0.4,0.1-0.8,0.1-1.1,0.2 c-0.6,0.1-1.3,0.2-1.9,0.3c-0.9,0.1-1.8,0.2-2.7,0.3c-0.2,0-0.5,0.1-0.7,0.1c-2.3,0.2-4.6,0.4-6.9,0.5c-1.3,0.1-2.6,0.1-3.9,0.2 l-1.1,0c-2.4,0.1-4.9,0.2-7.5,0.3c-1.6,0-3.2,0.1-4.8,0.1c-0.6,0-1.2,0-1.8,0c-0.8,0-1.7,0-2.5,0c-0.6,0-1.2,0-1.8,0l-0.6,0 c-3-0.1-5.9-0.2-8.8-0.3c-0.4,0-0.8,0-1.2-0.1l-1.2-0.1c-0.4,0-0.7,0-1.1-0.1c-4.3-0.3-8.6-0.7-12.8-1.2l-1.2-0.1 c-1.1-0.1-2.1-0.3-3.2-0.4c-0.5-0.1-0.9-0.1-1.4-0.2l-1.2-0.2c-0.9-0.1-1.8-0.3-2.6-0.4c-3.7-0.6-7.4-1.2-11.2-1.9 c-0.8-0.2-1.7-0.3-2.5-0.5l-1.1-0.2c-0.4-0.1-0.8-0.2-1.2-0.2l-1.2-0.2c-0.4-0.1-0.8-0.2-1.2-0.2l-0.8-0.2 c-0.9-0.2-1.8-0.4-2.7-0.6l-1.2-0.3c-1.1-0.2-2.1-0.5-3.2-0.7c-0.9-0.2-1.9-0.4-2.8-0.6l-0.3-0.1c-5.9-1.3-11.4-2.6-16.7-3.9 l-2-0.5c-1.5-0.4-3-0.7-4.5-1.1l-1.8-0.5l-0.8-0.2c-2.1-0.5-4.1-1-6.2-1.5c-1.2-0.3-2.5-0.6-3.7-0.9c-3.6-0.9-7.1-1.8-10.6-2.8 l-1.6-0.4c-0.6-0.2-1.2-0.3-1.8-0.5l-0.7-0.2c-2.7-0.8-5.5-1.5-8.3-2.3l-0.6-0.2l-1-0.3l-2.9-0.8l-1-0.3l-1.5-0.4l-0.6-0.2 l-1.2-0.4l-1-0.4l-0.5-0.2l-0.6-0.2l-0.3-0.1l-0.6-0.3l-0.5-0.3l-0.3-0.1l-0.5-0.3l-0.6-0.4l-0.6-0.4l-0.6-0.4 c-0.9-0.7-1.7-1.6-2.3-2.6l0,0c0,0-5.2,7.7-5.6,21.2c11.7,17,48.8,22.6,100,29.4c50.9,6.8,82.2,5.5,103.5-3.7 c21.3-9.1,58.6-52.6,85.3-54.9c26.7-2.3,58.2-16.5,71.2-24.1c6.7-3.9,4.7-32,4.7-32L394.9,2433.9z"/></g><g id="Top_Basic-Boot_M" style="fill: rgb(52, 68, 83);"><path d="M1032.2,2291.6c7.1,34.7,18.1,65,41.2,94.2c36,45.6,97.5,49.3,140,86.3c10.9,9.5,10.4,24.8,12.2,38.8 c-17.6,5-33.1,8.9-52.9,13.4c-1.4-14,1.1-29.6-10.5-39.7c-42.5-37-109.4-35.6-145.4-81.1c-23.5-29.8-23.6-68.1-30.5-103.8 c1.1-0.1,2.1-0.2,3.2-0.3l6.3-0.7l0.2,0l0.8-0.1l2.1-0.3l3.2-0.4l1.3-0.2c3.6-0.5,7.2-1.1,10.8-1.7l5.6-1.1l1.2-0.3l0.4-0.1 l0.9-0.2l3.9-0.9l3.4-0.9l0.6-0.2C1030.6,2292,1031.4,2291.8,1032.2,2291.6z"/><path d="M248,2291.6c-7.1,34.7-18.1,65-41.2,94.2c-36,45.6-97.5,49.3-140,86.3c-10.9,9.5-10.4,24.8-12.1,38.8 c17.6,5,33.1,8.9,52.9,13.4c1.4-14-1.1-29.6,10.5-39.7c42.5-37,109.4-35.6,145.4-81.1c23.5-29.8,23.6-68.1,30.4-103.8 c-1.1-0.1-2.1-0.2-3.2-0.3l-6.3-0.7l-0.2,0l-0.8-0.1l-2.1-0.3l-3.2-0.4l-1.3-0.2c-3.6-0.5-7.2-1.1-10.8-1.7l-5.6-1.1l-1.2-0.3 l-0.4-0.1l-0.9-0.2l-3.9-0.9l-3.4-0.9l-0.6-0.2C249.7,2292,248.9,2291.8,248,2291.6z"/></g><g id="Side_Basic-Boot_M" style="fill: rgb(52, 68, 83);"><path d="M899.6,2286.6c14.6,1.6,31.4,9.9,43.8,11.9c0.7,0.1,1.4,0.2,2,0.3c0.2,4.4,0.1,8.7,0.2,12.6 c0.5,21.8-2.2,114.8-6.5,114.6c-4.3-0.2-16.7-2.4-19.9-5.8c-2.1-2.2-2.5-7.6-3.2-10.5c-2.2-9.2-4.2-18.5-5.6-27.9 c-1.9-12.6-3.3-25.1-4.3-37.8C904.7,2324.9,901.8,2305.7,899.6,2286.6z"/><path d="M380.7,2286.6c-14.6,1.6-31.4,9.9-43.8,11.9c-0.7,0.1-1.4,0.2-2,0.3c-0.2,4.4-0.1,8.7-0.2,12.6 c-0.5,21.8,2.2,114.8,6.5,114.6c4.3-0.2,16.7-2.4,19.9-5.8c2.1-2.2,2.5-7.6,3.2-10.5c2.2-9.2,4.2-18.5,5.6-27.9 c1.9-12.6,3.4-25.1,4.3-37.8C375.5,2324.9,378.4,2305.7,380.7,2286.6z"/></g></g></g><g id="Sleeves_M_Toggle" class="toggle" style="fill: rgb(52, 68, 83);"><g><path d="M928.3,573.2l28.4,62.9c0,0,44.9-34.2,74.8-51.1c29.9-17,46.4-28,73.3-38.4c26.9-10.4,53.9-15.7,53.9-15.7 l-64.3-130.6l-61.4-103.1l-122.7,54.8L928.3,573.2z"/><path d="M943.2,606.4c-2.1-2.6,53.8-48,91.2-67.6c37.4-19.6,108.6-39.4,108.6-39.4"/></g><g><path d="M351.7,573.2l-28.4,62.9c0,0-44.9-34.2-74.8-51.1c-29.9-17-46.4-28-73.3-38.4c-26.9-10.4-53.9-15.7-53.9-15.7 l64.3-130.6l61.4-103.1l122.7,54.8L351.7,573.2z"/><path d="M336.8,606.4c2.1-2.6-53.8-48-91.2-67.6c-37.4-19.6-108.6-39.4-108.6-39.4"/></g></g><g id="Gloves_M"><g id="Left-Glove_M"><g id="Basic_Left_Glove_M_Option" class="option" style="display: inherit; fill: rgb(52, 68, 83);"><path d="M1208.1,1298.1c-5.7-0.3-11.1-0.2-16.8,1c-3.9,0.8-7.6,1.7-11.1,3.7c-10.5,6.1-7.6,19.3,1.7,24.3 c10.9,5.9,28.2,0.1,33.2-11.2C1217.3,1311.3,1210.9,1302.6,1208.1,1298.1"/><path d="M1188.9,1309.6c-5.7-0.3-11.1-0.2-16.8,1c-3.9,0.8-7.6,1.7-11.1,3.7c-10.5,6.1-7.6,19.3,1.7,24.3 c10.9,5.9,28.2,0.1,33.2-11.2C1198,1322.8,1191.7,1314.1,1188.9,1309.6"/><path d="M1175.1,1325.2c-5.7,0.5-12.6,1.3-18,3.3c-3.7,1.3-7.3,2.7-10.5,5.2c-9.6,7.4-5,20.1,5,23.8 c11.6,4.3,28-3.7,31.4-15.6C1184.4,1337.1,1175.1,1325.2,1175.1,1325.2z"/><path d="M1144,1148.2c0,0-16.5,22.9-20.8,39.4c-3,11.6-1.4,39.3-5.3,57.9c-3.8,18.6-7.3,28.9-7.3,28.9 s-14.6,29.8-12,36.6c2.5,6.8,15.4,12.9,22.8,9.3c9.1-4.5,20.5-25.5,27.6-40.2c7.3-15,13.3-36.4,13.3-36.4s10,3.5,15.2,7.4 c17.1,13.2,9.7,52.9,9.7,52.9s-7,14.2-17.6,30.2c-14.5,21.8-36.6,40.6-22,57.2c13.7,15.6,44.8-25.3,44.8-25.3l30.5-39.8 c0,0,35-57.7,36.8-68.9c1.4-8.5,0.2-37.1,0.2-37.1l-10.9-110.6l-55.5,4.6l-45.7,14.9L1144,1148.2"/></g></g><g id="Right-Glove_M"><g id="Basic_Right_Glove_M_Option" class="option" style="display: inherit; fill: rgb(52, 68, 83);"><path d="M71.9,1298.1c5.7-0.3,11.1-0.2,16.8,1c3.9,0.8,7.6,1.7,11.1,3.7c10.5,6.1,7.6,19.3-1.7,24.3 c-10.9,5.9-28.2,0.1-33.2-11.2C62.7,1311.3,69.1,1302.6,71.9,1298.1"/><path d="M91.1,1309.6c5.7-0.3,11.1-0.2,16.8,1c3.9,0.8,7.6,1.7,11.1,3.7c10.5,6.1,7.6,19.3-1.7,24.3 c-10.9,5.9-28.2,0.1-33.2-11.2C82,1322.8,88.4,1314.1,91.1,1309.6"/><path d="M104.9,1325.2c5.7,0.5,12.6,1.3,18,3.3c3.7,1.3,7.3,2.7,10.5,5.2c9.6,7.4,5,20.1-5,23.8 c-11.6,4.3-28-3.7-31.4-15.6C95.6,1337.1,104.9,1325.2,104.9,1325.2z"/><path d="M136,1148.2c0,0,16.5,22.9,20.9,39.4c3,11.6,1.4,39.3,5.3,57.9c3.8,18.6,7.3,28.9,7.3,28.9 s14.6,29.8,12,36.6c-2.5,6.8-15.4,12.9-22.7,9.3c-9.2-4.5-20.5-25.5-27.7-40.2c-7.3-15-13.3-36.4-13.3-36.4s-10,3.5-15.2,7.4 c-17.1,13.2-9.7,52.9-9.7,52.9s7,14.2,17.6,30.2c14.4,21.8,36.6,40.6,22,57.2c-13.7,15.6-44.8-25.3-44.8-25.3l-30.5-39.8 c0,0-35-57.7-36.8-68.9c-1.4-8.5-0.2-37.1-0.2-37.1l10.9-110.6l55.5,4.6l45.7,14.9L136,1148.2"/></g></g></g></g></g><g id="Biceps_Current" transform="translate(199,588)"><g id="LeftBiceps_Current"><g id="Left-Biceps_M"><g id="Basic_Biceps_Left_M_Option" class="option" style="display: inherit;"><path id="Main_Basic_Biceps_Left_M" d="M1224.3,527.2c-12.1-29.3-65.9-157.6-65.9-157.6s-88.4,36.5-110.4,45.6 c-6.2,2.6-9.2,9.7-6.6,16c10.4,25.2,35.8,86.8,51.7,125.1c3.6,8.7,10.5,15.6,19.1,19.2c8.7,3.6,18.4,3.6,27.1,0 c26-10.7,60.8-25.1,78.4-32.4C1223.9,540.6,1226.8,533.4,1224.3,527.2z" style="fill: rgb(1, 17, 61);"/><path id="Strap_Basic_Biceps_Left_M" d="M1065,488l-62,25.6l-1.5,45.7l79.4-32.8L1065,488" style="fill: rgb(78, 47, 16);"/><path id="Trauma-Plate_Basic_Biceps_Left_M_ToggleOff" d="M1223.9,521.1l-56.1-135.9l-107.6,44.4l49.4,119.8 c1.8,4.3,5.1,7.7,9.4,9.4c4.3,1.8,9.1,1.8,13.3,0L1223.9,521.1" class="toggle" style="fill: rgb(136, 163, 236);"/></g></g></g><g id="RightBiceps_Current"><g id="Right-Biceps_M"><g id="Basic_Biceps_Right_M_Option" class="option" style="display: inherit;"><path id="Main_Basic_Biceps_Right_M" d="M178,527.2c12.1-29.3,65.9-157.6,65.9-157.6s88.4,36.5,110.4,45.6 c6.2,2.6,9.2,9.7,6.6,16c-10.4,25.2-35.8,86.8-51.7,125.1c-3.6,8.7-10.5,15.6-19.1,19.2c-8.7,3.6-18.4,3.6-27.1,0 c-26-10.7-60.8-25.1-78.4-32.4C178.4,540.6,175.4,533.4,178,527.2z" style="fill: rgb(1, 17, 61);"/><path id="Strap_Basic_Biceps_Right_M" d="M337.2,488l62,25.6l1.5,45.7l-79.4-32.8L337.2,488" style="fill: rgb(76, 44, 12);"/><path id="Trauma-Plate_Basic_Biceps_Right_M_ToggleOff" d="M178.3,521.1l56.1-135.9l107.7,44.4l-49.4,119.8 c-1.8,4.3-5.1,7.7-9.4,9.4c-4.3,1.8-9.1,1.8-13.3,0L178.3,521.1" class="toggle" style="fill: rgb(136, 163, 236);"/></g></g></g></g><g id="Vest_Current" transform="translate(260,575)"><path id="Vest_M" d="M640,197.9c90.1-0.1,163.5-45.9,165.6-85.4l1.6,0.2l194.8,57.8l141.1,255.2l-30.3,12.4l-142.3-91.7 L946,386.1l-16.3,505.4c0,0-92.4,50.2-143.4,57c-36.5,4.8-91.5,7.2-146.2,7.1c-54.7,0.1-109.7-2.3-146.2-7.1 c-51-6.8-143.4-57-143.4-57L334,386.1l-24.5-39.6l-142.3,91.7l-30.3-12.4L278,170.5l194.8-57.8l1.6-0.2 C476.5,152.1,549.9,197.9,640,197.9" style="fill: rgb(52, 68, 83);"/></g><g id="Upper-Body_M_Wrapper" transform="translate(199,588)"><g id="Chest_Current" class="Galaxy_M"><g id="Abdomen_Galaxy_M"><path id="Abdomen-Plate_Galaxy_M" d="M627.2,751.4l-22,16l-111.9-16l-8.2-61.8l53-1.1l32.1-52.5l14.6-48.3l116-106.2 l0.2,0.2l0.2-0.2l116,106.2l14.6,48.3l32.1,52.5l53,1.1l-8.2,61.8l-111.9,16l-22-16H627.2z" style="fill: rgb(4, 198, 255);"/><path id="Trauma-Plate_Abdomen_Galaxy_M_ToggleOff" d="M700.8,505.9l-100.2,91.8l-13.8,45.8l-38.4,62.8l-42.7,0.9 l3.7,28.4l91.2,13l20.8-15.1h159.4l20.8,15.1l91.2-13l3.7-28.4l-42.7-0.9l-38.4-62.8l-13.8-45.8l-100.2-91.8l-0.2,0.2 L700.8,505.9z" class="toggle" style="fill: rgb(2, 29, 105);"/></g><g id="Full-Chest_Galaxy_M"><path id="Chest-Plate_Galaxy_M" d="M654.4,327.4l-0.2,108.2l34,34.4L569,582.9L553.5,635l-25.3,41.5h-43.7l-21.2-31 l-27-151.5l-39.6-61.9l50.1-162.1l57.8-7.3l8.1-35.8l61.9-7.6l19.6,32h213l19.6-32l61.9,7.6l8.1,35.8l57.8,7.3l50.1,162.1 l-39.6,61.9l-27,151.5l-21.2,31h-43.7L848.5,635L833,582.9l-119.2-113l34-34.4l-0.2-108.2L701,291.1L654.4,327.4z" style="fill: rgb(4, 198, 255);"/><path id="Trauma-Plating_Left-Chest_Galaxy_M_ToggleOff" d="M817.6,269.3H702.3l63.3,49.2l0.2,124.4l-26.3,26.6 l109.3,103.6l16.2,54.5l18.8,30.9h24l13.6-19.9l26.9-151.2l37-57.9l-44.3-143.1l-58.8-7.5l-8.1-35.8l-37.8-4.6L817.6,269.3z" class="toggle" style="fill: rgb(1, 17, 61);"/><path id="Trauma-Plating_Right-Chest_Galaxy_M_ToggleOff" d="M565.6,238.6l-37.8,4.6l-8.1,35.8l-58.8,7.5 l-44.3,143.1l37,57.9l26.9,151.2l13.6,19.9h24l18.8-30.9l16.2-54.5l109.3-103.6L636.2,443l0.2-124.4l63.3-49.2H584.4L565.6,238.6 z" class="toggle" style="fill: rgb(1, 17, 61);"/><g id="Accents_Chest-Plate_Galaxy_M_ToggleOn" class="toggle" style="fill: rgb(255, 126, 0);"><rect x="818.8" y="303.9" width="98" height="13"/><rect x="818.8" y="326.9" width="98" height="13"/></g></g><g id="Iron-Heart_Galaxy_M"><path id="Heart_Galaxy_M" d="M672.4,432.5v-97.4l28.6-22.4l28.6,22.4v97.4L701,461.3L672.4,432.5z" style="fill: rgb(4, 198, 255);"/><rect id="Center_Heart_Galaxy_M_Option" x="691.1" y="350" width="19.8" height="66.7" class="option" style="display: inherit; fill: rgb(255, 126, 0);"/></g><g id="Neck-Armor_Galaxy_M"><g id="Neck-Plate_Galaxy_M" style="fill: rgb(4, 198, 255);"><path d="M677.2,240.8l-78.3,1.3l-19.3-31.6l-74.7,8.9l-7.4,32.8l-47.9,5.9l-35.3-121.8l122.5-36.7 c0,0,16.2,27.5,28,37.2c12.1,9.9,28.2,21.6,43.3,28.2c16.5,7.2,36.7,12.1,55.9,15.2c2,0.3,4.1,0.6,6.2,0.9L677.2,240.8z"/><path d="M724.8,240.8l78.3,1.3l19.3-31.6l74.7,8.9l7.4,32.8l47.9,5.9l35.3-121.8L865.4,99.5c0,0-16.2,27.5-28,37.2 c-12.1,9.9-28.2,21.6-43.3,28.2c-16.5,7.2-36.7,12.1-55.9,15.2c-2,0.3-4.1,0.6-6.2,0.9L724.8,240.8z"/></g></g></g><g id="Collar_Current"><g id="Collar_M_ToggleOff" class="toggle" style=""><g id="Cloth-Wrap-Right_Collar_M_Option" class="option" style="display: inherit;"><g id="Main_Cloth-Wrap-Right_Collar_M" style="fill: rgb(52, 1, 63);"><path d="M805.7,206c53-16.6,62.6-43.3,65.8-70.2c1.3-11-14.4-39.6,1.8-47c18.3-8.3,61.6,4.8,79.4,8.6 c13.2,2.8,25,6.1,38.5,6.3c31.2,0.4,56,21.2,58.7,36.8c3.9,21.8-34.6,29.7-52.7,46.2C952.2,228,936.5,284,841.6,299.3 c-43.5,7-86.7-2.9-127.1-11.9C610,264.1,553,244.1,485.9,192.2c-29.4-22.7-73.7-41.1-72.6-71.5c0-1.3,21.4-14,23.5-14.5 c18.8-4.7,34.9-12.5,55.6-12.9c12.4-0.2,10.3,10.5,11.2,15.3c3.5,18.5,20.4,32.5,41.7,46.5C601.3,191.8,729,203.2,805.7,206z"/><path d="M805.7,206c14,0.5,26.3,2.7,37,3.4c48.5,3,65.8-8.9,75.2-30.5"/><path d="M956.4,97.9c14,22.9,12.2,49.8,1,67.5"/><path d="M549.6,163.1c36.3,49.7,90.2,65.4,149.2,71.4"/><path d="M451.2,102c2.1,12.6,9.6,17.2,18.9,25.7c5.3,4.9,11.8,8.4,16.1,14.3c1.5,2.2,2.4,4.7,3.3,7.2"/></g><path id="Buckle_Cloth-Wrap-Right_Collar_M" d="M562,153.8l-30.9-22.1l-53.6,74.8l30.9,22.1L562,153.8z" style="fill: rgb(48, 49, 49);"/></g></g></g><g id="ChestAttachments_Current"><g id="Chest-Attachments_M"><g id="No-Device_Accessories_Chest_M_Option" class="option" style="display: inherit;"></g></g></g><g id="Gauntlets_Current"><g id="LeftGauntlets_Current"><g id="Left-Gauntlets_M"><g id="Basic_Gauntlet_Left_M_Option" class="option" style="display: inherit;"><path id="Top-2_Basic_Gauntlet_Left_M" d="M1339.1,1120l14.4-23.2l-41.3-195.3l-6.9,23.6l19.6,89l-7.7,22.1 L1339.1,1120z" style="fill: rgb(255, 126, 0);"/><path id="Top-1_Basic_Gauntlet_Left_M" d="M1312.3,901.5l-6.9,23.6l19.6,89l-7.7,22.1l21.7,83.8l-9.5,15.3l5,54.3 l-16.7,4.3l-22.5-81.7l-15.5-5.7l-71.4-239.3l94.5-9.9L1312.3,901.5z" style="fill: rgb(163, 213, 228);"/><g id="Accent-Bottom_Basic_Gauntlet_Left_M" style="fill: rgb(255, 126, 0);"><path d="M1172.5,939.1l-20.9,6.9l10.3,31.1l20.9-6.9L1172.5,939.1z"/><path d="M1190.3,993.6l-20.9,6.9l10.3,31.1l20.9-6.9L1190.3,993.6z"/><path d="M1208.8,1049.3l-20.9,6.9l10.3,31.1l20.9-6.9L1208.8,1049.3z"/></g><path id="Bottom_Basic_Gauntlet_Left_M" d="M1151.8,945.9l-7.7-23.7l65.6-51.1l70.3,235.4l-71.4,13.1l-28.7-88 l20.8-6.9l-10.3-31.1l-20.7,6.8l-7.6-23.3l20.9-6.9l-10.3-31.1L1151.8,945.9z M1208.8,1049.3l-21,6.9l10.2,31.1l21.1-7 L1208.8,1049.3z" style="fill: rgb(1, 17, 61);"/><g id="Whistling-Birds_Attachment_Basic_Gauntlet_Left_M_Option" class="option" style="display: inherit;"><path id="Head_Whistling-Birds_Attachment_Basic_Gauntlet_Left_M" d="M1369.6,1014.3l-20.5,59.8l-11.2-53 L1369.6,1014.3z" style="fill: rgb(1, 17, 61);"/><g id="Birds_Whistling-Birds_Attachment_Basic_Gauntlet_Left_M" style="fill: rgb(201, 3, 251);"><g><path d="M1343.9,1023.8c1.3-0.3,2.8,2.2,3.5,5.5c0.7,3.3,0.3,6.3-1,6.5c-1.3,0.3-2.8-2.2-3.5-5.6 C1342.3,1027,1342.7,1024.1,1343.9,1023.8z"/><path d="M1347.5,1040.7c1.3-0.3,2.8,2.2,3.5,5.6c0.7,3.3,0.3,6.3-1,6.5c-1.3,0.3-2.8-2.2-3.5-5.6 C1345.8,1043.9,1346.3,1041,1347.5,1040.7z"/><path d="M1352.5,1022c1.2-0.3,2.8,2.2,3.5,5.6c0.7,3.3,0.3,6.3-1,6.5c-1.2,0.3-2.8-2.2-3.5-5.5 C1350.8,1025.2,1351.3,1022.3,1352.5,1022z"/><path d="M1351.3,1067.7c-0.5-1-0.9-2.2-1.2-3.5c-0.7-3.3-0.3-6.3,1-6.5c0.9-0.2,1.9,1,2.7,2.9L1351.3,1067.7z M1357.3,1050.3c-0.9-0.9-1.7-2.7-2.2-4.9c-0.7-3.3-0.3-6.3,1-6.5c1.2-0.3,2.6,1.9,3.4,5L1357.3,1050.3z M1363.5,1032.3 c-1.2,0-2.7-2.4-3.3-5.6c-0.7-3.3-0.3-6.2,1-6.5c1.2-0.3,2.8,2.2,3.5,5.5c0.2,0.8,0.3,1.5,0.3,2.2L1363.5,1032.3z"/></g></g><g id="Base_Whistling-Birds_Attachment_Basic_Gauntlet_Left_M" style="fill: rgb(4, 198, 255);"><path d="M1333.8,854.6l-21.3,4.5l2,9.4l21.3-4.5L1333.8,854.6z"/><path d="M1337.7,863.6l-23.3,4.9l31.9,150.8l23.3-4.9L1337.7,863.6z"/><path d="M1341.1,864.5l-3.1,0.6l27.6,130.2l3.1-0.6L1341.1,864.5z"/><path d="M1333.9,864.4l-3.1,0.6l29.9,141.4l3-0.6L1333.9,864.4z"/></g><g id="Accent_Whistling-Birds_Attachment_Basic_Gauntlet_Left_M" style="fill: rgb(2, 29, 105);"><path d="M1312,856.8l-8.5,1.8l32.4,153.1l8.5-1.8L1312,856.8z"/><path d="M1369.4,1004.6l-33.5,7.1l2,9.4l33.5-7.1L1369.4,1004.6z"/><path d="M1326.4,856.1l-14,3l4.7,22l14-3L1326.4,856.1z"/><path d="M1327.8,878.8l-10.7,2.3l11.1,52.2l6.5-21.8L1327.8,878.8z"/></g></g></g></g></g><g id="RightGauntlets_Current"><g id="Right-Gauntlets_M"><g id="Basic_Gauntlet_Right_M_Option" class="option" style="display: inherit;"><path id="Top-2_Basic_Gauntlet_Right_M" d="M62.4,1120L48,1096.8l41.3-195.3l6.9,23.6l-19.6,89l7.7,22.1L62.4,1120z" style="fill: rgb(255, 126, 0);"/><path id="Top-1_Basic_Gauntlet_Right_M" d="M89.2,901.5l6.9,23.6l-19.6,89l7.7,22.1L62.4,1120l9.5,15.3l-5,54.3 l16.7,4.3l22.5-81.7l15.5-5.7l71.4-239.3l-94.5-9.9L89.2,901.5z" style="fill: rgb(163, 213, 228);"/><g id="Accent-Bottom_Basic_Gauntlet_Right_M" style="fill: rgb(255, 126, 0);"><path d="M229,939.1l20.9,6.9l-10.3,31.1l-20.9-6.9L229,939.1z"/><path d="M211.3,993.6l20.9,6.9l-10.3,31.1l-20.9-6.9L211.3,993.6z"/><path d="M192.8,1049.3l20.9,6.9l-10.3,31.1l-20.9-6.9L192.8,1049.3z"/></g><path id="Bottom_Basic_Gauntlet_Right_M" d="M249.8,945.9l7.7-23.7l-65.6-51.1l-70.3,235.4l71.4,13.1l28.7-88 l-20.8-6.9l10.3-31.1l20.7,6.8l7.6-23.3l-20.8-6.9l10.3-31.1L249.8,945.9z M192.8,1049.3l21,6.9l-10.2,31.1l-21.1-7L192.8,1049.3 z" style="fill: rgb(1, 17, 61);"/><g id="Flamethrower_Attachment_Basic_Gauntlet_Right_M_Option" class="option" style="display: inherit;"><g id="Tubes_Flamethrower_Attachment_Basic_Gauntlet_Right_M" style="fill: rgb(101, 6, 109);"><path d="M81,866.3l8.7,1.8l-54.9,263.7l-8.7-1.8L81,866.3z"/><path d="M61.2,862.2l8.7,1.8l-39.4,189l-8.7-1.8L61.2,862.2z"/><path d="M75.9,882.5l11.9,2.5l-13.1,62.8l-11.9-2.5L75.9,882.5z"/><path d="M56.1,878.4l11.9,2.5l-13.1,62.8L43,941.2L56.1,878.4z"/></g><g id="Main_Flamethrower_Attachment_Basic_Gauntlet_Right_M" style="fill: rgb(1, 17, 61);"><path d="M57.5,861.4l35.6,7.4l-3.4,16.5L54,877.9L57.5,861.4z"/><path d="M40.1,940.6l37.2,7.7l-2.1,10L38,950.6L40.1,940.6z"/><path d="M39.6,950.9l34.1,7.1l-1.1,5.1L38.5,956L39.6,950.9z"/><path d="M74.8,941.3l5.7,1.4l-6.5,30.7l-5.7-1.4L74.8,941.3z"/></g><g id="Accent_Flamethrower_Attachment_Basic_Gauntlet_Right_M" style="fill: rgb(4, 198, 255);"><path d="M21.5,1051.1l9.3,1.9l-1.2,13.2l-12.1-2.5L21.5,1051.1z"/><path d="M31.9,983.2l16.4,3.4l-4.2,20l-16.4-3.4L31.9,983.2z"/><path d="M30,1003.7l11.9,2.5l-4.2,20l-11.9-2.5L30,1003.7z"/><path d="M31.4,1096.3l11.9,2.5l-5.7,27.4l-11.9-2.5L31.4,1096.3z"/><path d="M49.8,1007.8l11.9,2.5l-7.8,37.3l-11.9-2.5L49.8,1007.8z"/><path d="M26.3,1109.6l16.4,3.4l-1.1,5.3l-16.4-3.4L26.3,1109.6z"/></g><path id="Base_Flamethrower_Attachment_Basic_Gauntlet_Right_M" d="M80.6,942.7l17.5-83.2l-10.7,1.8l-29.6,140.6 l9,6.5l7.4-35.2l-5.7-1.4l6.5-30.7L80.6,942.7z" style="fill: rgb(2, 29, 105);"/></g></g></g></g></g></g><g id="Helmet_M_Wrapper" transform="translate(550,35)"><g id="Helmet_Current" class="Ramikadyc"><g id="Left-Earcap_Ramikadyc_Toggle" class="toggle"><g id="Sensor-Stalk_Left_Ramikadyc_Option" class="option" style="display: inherit;"><g id="Sensor_Left_Sensor-Stalk_Ramikadyc" style="fill: rgb(255, 126, 0);"><path d="M587.5,486.7l50.1-85.7l-61.6,0.5v85.2H587.5z"/><path d="M574.3,150.4l63.3,195.9H576L574.3,150.4z"/></g><g id="Shaft_Left_Sensor-Stalk_Ramikadyc" style="fill: rgb(1, 17, 61);"><path d="M648.7,346.4l-74.5-229.8l0.1,33.9l63.3,195.9H585v12.3h63.7V346.4z"/><path d="M648.7,400.9v-12.3H585v12.3h52.7l-50.2,85.8h11L648.7,400.9z"/><path d="M566.9,319.3l18-12.7v112.1h-18V319.3z"/><rect x="561.3" y="418.8" width="26.2" height="24.5"/><rect x="557.1" y="414.6" width="4.2" height="35.5"/></g></g><path id="Ear-Cap_Left_Ramikadyc" d="M522,353.5l29.2,10.8c0,0,8,36.8,8.7,67.5c0.7,30.7-8.3,66.4-8.3,66.4l-18.3,8.5 l-0.6-128.6L522,353.5z" style="fill: rgb(42, 41, 41);"/></g><g id="Right-Earcap_Ramikadyc_Toggle" class="toggle"><g id="Sensor-Stalk_Right_Ramikadyc_Option" class="option" style="display: inherit;"><g id="Sensor_Right_Sensor-Stalk_Ramikadyc" style="fill: rgb(255, 126, 0);"><path d="M113.1,486.7L63.1,401l61.6,0.5v85.2H113.1z"/><path d="M126.4,150.4L63.1,346.4h61.6L126.4,150.4z"/></g><g id="Shaft_Right_Sensor-Stalk_Ramikadyc" style="fill: rgb(1, 17, 61);"><path d="M52,346.4l74.5-229.8l-0.1,33.9L63.1,346.4h52.6v12.3H52V346.4z"/><path d="M52,400.9v-12.3h63.7v12.3H63l50.2,85.8h-11L52,400.9z"/><path d="M133.7,319.3l-18-12.7v112.1h18V319.3z"/><rect x="113.1" y="418.8" width="26.2" height="24.5"/><rect x="139.4" y="414.6" width="4.2" height="35.5"/></g></g><path id="Ear-Cap_Right_Ramikadyc" d="M178.7,353.5l-29.2,10.8c0,0-8,36.8-8.7,67.5c-0.7,30.7,8.3,66.4,8.3,66.4 l18.3,8.5l0.6-128.6L178.7,353.5z" style="fill: rgb(42, 41, 41);"/></g><g id="Helmet_Pieces_Ramikadyc"><g id="Mouth_Ramikadyc" style="fill: rgb(2, 29, 105);"><path d="M316.2,693.2c0,0,1-29.5-2-43.9c-3-14.4-7-30.8-7-30.8l41.7-17.3h0.6l41.7,17.3c0,0-4,16.4-7,30.8 c-3,14.4-2,43.9-2,43.9H316.2z"/><path d="M349.2,601.2V670"/><path d="M316.2,693.2l0.2-10l32.6-12.9V670l0.3,0.1l0.3-0.1v0.2l32.6,12.9l0.2,10H316.2z"/></g><g id="Face_Ramikadyc" style="fill: rgb(2, 29, 105);"><path d="M391.2,618.5l2.1,0.3c45.8-50.3,76.5-99.4,88.3-146.9l45.5-39.7l6.1-14l0-0.3l0,0v112.5 c0,0-33.5,70.4-69.4,104.7c-23.9,22.8-80.9,58.3-80.9,58.3h-0.8c0,0-1-29.5,2-43.9C387.2,634.9,391.2,618.5,391.2,618.5z"/><path d="M307.2,618.5l-2.1,0.3c-45.8-50.3-76.5-99.4-88.3-146.9l-45.5-39.7l-6.1-14l0-0.3l0,0v112.5 c0,0,33.5,70.4,69.4,104.7c23.9,22.8,80.9,58.3,80.9,58.3h0.8c0,0,1-29.5-2-43.9C311.2,634.9,307.2,618.5,307.2,618.5z"/></g><g id="Cheeks-2_Ramikadyc" style="fill: rgb(52, 68, 83);"><path d="M194,496.9l84.5,102.3c0,0,15,20,11.2,42.7c-3.7,22.7-14.6,24.3-14.6,24.3l-22.7-7.8l-84.3-95.7 c0,0-12.3-12-10.4-36.6c0.9-12.2,22.9-32,22.9-32S187.4,489.9,194,496.9z"/><path d="M158.6,522.3c0,0,3.8-9.8,9.4-9.2c5.7,0.6,43.6,44.8,43.6,44.8s45.9,49.5,48.3,53.6 c7.3,12.5,6.8,26.7,5.3,32.6c-3,11.9-12.9,14.2-12.9,14.2l-84.3-95.7C168.2,562.8,152.9,545.3,158.6,522.3z"/><path d="M160.8,526.1c1-3.8,2.9-8.6,6.7-9.2c4.7-0.7,37.5,38.3,37.5,38.3s37.2,40.4,39.2,43.9 c6.1,10.5,5.7,22.3,4.4,27.2c-2.5,9.9-10.7,11.9-10.7,11.9l-69.6-80.3C168.3,557.7,157.3,540.1,160.8,526.1z"/><path d="M506.7,496.9l-84.5,102.3c0,0-15,20-11.2,42.7c3.7,22.7,14.6,24.3,14.6,24.3l22.7-7.8l84.3-95.7 c0,0,12.3-12,10.4-36.6c-0.9-12.2-22.9-32-22.9-32S513.4,489.9,506.7,496.9z"/><path d="M542.1,522.3c0,0-3.8-9.8-9.5-9.2C527,513.8,489,558,489,558s-45.9,49.5-48.3,53.6 c-7.3,12.5-6.8,26.7-5.3,32.6c3,11.9,12.9,14.2,12.9,14.2l84.3-95.7C532.5,562.8,547.9,545.3,542.1,522.3z"/><path d="M539.9,526.1c-1-3.8-2.9-8.6-6.7-9.2c-4.7-0.7-37.5,38.3-37.5,38.3s-37.2,40.4-39.2,43.9 c-6.1,10.5-5.7,22.3-4.4,27.2c2.5,9.9,10.7,11.9,10.7,11.9l69.6-80.3C532.4,557.7,543.5,540.1,539.9,526.1z"/></g><g id="Cheeks-1_Ramikadyc" style="fill: rgb(255, 126, 0);"><path d="M222.8,599.2c8.5-3,20.5,7.5,26.7,23.3c6.2,15.8,4.3,31-4.2,34c-8.5,3-20.5-7.5-26.7-23.3 C212.3,617.3,214.2,602.1,222.8,599.2z"/><path d="M223.5,603.5c6.9-2.4,16.8,6.7,22.1,20.3c5.3,13.6,4.1,26.5-2.8,28.9c-6.9,2.4-16.8-6.7-22.1-20.3 C215.4,618.8,216.6,605.9,223.5,603.5z"/><path d="M226.9,614.4c3.8-1.3,9.3,3.7,12.3,11.3c3,7.6,2.3,14.8-1.6,16.1c-3.8,1.3-9.3-3.7-12.3-11.3 C222.4,622.9,223.1,615.7,226.9,614.4z"/><path d="M228.2,619.4c2.6-0.9,6.2,2.5,8.2,7.5c2,5.1,1.5,9.9-1,10.8c-2.6,0.9-6.2-2.5-8.2-7.5 S225.7,620.3,228.2,619.4z"/><path d="M243.9,593.1c9.6,10.6,15.2,16.8,16.2,18.5c7.3,12.5,6.8,26.7,5.3,32.6c-1.6,6.5-6.1,12.6-12.9,14.2 l-9.7-1.6c2.2-0.4,4.2-1.3,5.9-2.7c5.4-5.5,5.9-18.4,0.7-31.7c-6.2-15.8-18.1-26.2-26.7-23.3L243.9,593.1z"/><path d="M478,599.2c-8.5-3-20.5,7.5-26.7,23.3c-6.2,15.8-4.3,31,4.2,34c8.5,3,20.5-7.5,26.7-23.3 C488.4,617.3,486.5,602.1,478,599.2z"/><path d="M477.2,603.5c-6.9-2.4-16.8,6.7-22.1,20.3c-5.3,13.6-4.1,26.5,2.8,28.9c6.9,2.4,16.8-6.7,22.1-20.3 C485.3,618.8,484.1,605.9,477.2,603.5z"/><path d="M473.8,614.4c-3.8-1.3-9.3,3.7-12.3,11.3c-3,7.6-2.3,14.8,1.6,16.1c3.8,1.3,9.3-3.7,12.3-11.3 C478.3,622.9,477.6,615.7,473.8,614.4z"/><path d="M472.5,619.4c-2.6-0.9-6.2,2.5-8.2,7.5c-2,5.1-1.5,9.9,1,10.8c2.6,0.9,6.2-2.5,8.2-7.5 S475.1,620.3,472.5,619.4z"/><path d="M456.9,593.1c-9.6,10.6-15.2,16.8-16.2,18.5c-7.3,12.5-6.8,26.7-5.3,32.6c1.6,6.5,6.1,12.6,12.9,14.2 l9.7-1.6c-2.2-0.4-4.2-1.3-5.9-2.7c-5.4-5.5-5.9-18.4-0.7-31.7c6.2-15.8,18.1-26.2,26.7-23.3L456.9,593.1z"/></g><path id="Visor_Ramikadyc" d="M346.7,594v-9.5l-16.4-31.8l-2.6-93.8l-33.6-14.3l-13.3,5.6l-89.3-49.1l-12.9-51.3 c53.5,31,170.6,72.9,170.6,72.9s117.5-42.2,170.6-72.9l-12.9,51.3l-89.3,49.1l-13.3-5.6l-33.6,14.3l-2.6,93.8l-16.4,31.8v9.5 l41.6,24.7l-2.1-0.3l-42-17.3l-42,17.3h-2.1L346.7,594z M349.2,592.6L349.2,592.6z" style="fill: rgb(255, 126, 0);"/><g id="Eyes_Ramikadyc" style="fill: rgb(1, 17, 61);"><path d="M520.5,350l12.3,28.1l0.6,39.7l-6.1,14l-45.5,39.7c-11.8,47.5-42.5,96.6-88.3,146.9l-41.2-25.2l0-0.1 l0.3,0.1v-8.7l16.4-31.8l2.6-93.8l33.6-14.3l13.3,5.6l89.3-49.1L520.5,350z M520.5,349.8l-0.4,0.2L520.5,349.8L520.5,349.8z"/><path d="M177.9,350l-12.3,28.1l-0.6,39.7l6.1,14l45.5,39.7c11.8,47.5,42.5,96.6,88.3,146.9l41.2-25.2l0-0.1l-0.3,0.1 v-8.7l-16.4-31.8l-2.6-93.8l-33.6-14.3l-13.3,5.6l-89.3-49.1L177.9,350z M178,349.8l0.4,0.2L178,349.8L178,349.8z"/></g><g id="Dome-2_Ramikadyc" style="fill: rgb(1, 17, 61);"><path d="M394.9,405.5l-23.1-20.2l-2.8-29.8l31.1-28.2l30-101.9L449,226l5-29.8l-15-11l5.6-13.1 c0,0,59.4,44.9,65,55.4c5.6,10.5,9.4,117.1,8.3,122.3c-0.1,0.4-0.4,0.9-0.9,1.6C485,369.4,432.7,390.9,394.9,405.5z"/><path d="M181.5,351.4c-0.5-0.7-0.8-1.2-0.9-1.6c-1.2-5.2,2.7-111.8,8.3-122.3c5.6-10.5,65-55.4,65-55.4l5.6,13.1 l-15,11l5,29.8l18.9-0.5l30,101.9l31.1,28.2l-2.8,29.8l-23.1,20.2C265.9,390.9,213.6,369.5,181.5,351.4z"/></g><g id="Dome-1_Ramikadyc" style="fill: rgb(52, 68, 83);"><path d="M188.5,228.6c-5.3,15-9,116.2-7.9,121.2c0.1,0.4,0.4,0.9,0.9,1.6c0.6,0.3-14.7,6.5-14.7,6.5 C169.9,302.3,174,249.7,188.5,228.6L188.5,228.6z"/><path d="M510.1,228.6c5.3,15,9,116.2,7.9,121.2c-0.1,0.4-0.4,0.9-0.9,1.6c-0.6,0.3,14.7,6.5,14.7,6.5 C528.7,302.3,524.6,249.7,510.1,228.6L510.1,228.6z"/><path d="M303.5,405.5l23.1-20.2l2.8-29.8l-31.1-28.2l-30-101.9l-18.9,0.5l-5-29.8l15-11l-5.6-13.1 c40.1-19.1,87-22.1,94.8-22.4v0l1,0c0,0,0.1,0,0.1,0v0c7.8,0.4,54.7,3.3,94.8,22.4l-5.6,13.1l15,11l-5,29.8l-18.9-0.5l-30,101.9 L369,355.6l2.8,29.8l23.1,20.2c-12.6,4.9-23.5,9-31.5,12l-13.6,4.4v0.4l-0.6-0.2l-0.6,0.2v-0.4l-13.8-4.5 C326.8,414.5,316,410.4,303.5,405.5z"/></g></g></g></g><g transform="translate(199, 588)" id="Shoulders_Current"><g id="LeftShoulder_Current"><g id="Left-Shoulder_M"><g id="Legacy-x3_Shoulder_Left_M_Option" class="option" style="display: inherit;"><path id="Plate-3_Shoulder_Left_Legacy-x3_M" d="M1071.5,180.8l-77.7,79.6l45.5,98.6l102.3-5.4l54.2,49.7l48.2-3.4 L1071.5,180.8z" style="fill: rgb(1, 17, 61);"/><path id="Trauma-Plate-3_Shoulder_Legacy-x3_Left_M_ToggleOff" d="M1202.3,384.8l31.2-2.2l-148.8-189.6l-69.4,71.1 l35.2,76.3l94.3-5.9L1202.3,384.8z" class="toggle" style="fill: rgb(136, 163, 236);"/><path id="Plate-2_Shoulder_Left_Legacy-x3_M" d="M1029.5,131.5L968,224.2l63.1,88.4l99.6-24.4l62.5,38.7l46.8-12.3 L1029.5,131.5z" style="fill: rgb(1, 17, 61);"/><path id="Trauma-Plate-2_Shoulder_Legacy-x3_Left_M_ToggleOff" d="M1195.9,307.6l30.2-7.9l-181.3-158.9l-55,82.6 l48.7,68.5l91.6-23.2L1195.9,307.6z" class="toggle" style="fill: rgb(78, 97, 150);"/><path id="Plate-1_Shoulder_Left_Legacy-x3_M" d="M953.8,84.1l-27.7,107.7l88.6,62.8l86-55.7l71.7,16.1l40.1-27 L953.8,84.1z" style="fill: rgb(1, 17, 61);"/><path id="Trauma-Plate-1_Shoulder_Legacy-x3_Left_M_ToggleOff" d="M1168.9,195.8l25.9-17.4L971.3,88.1l-24.7,96.2 l68.6,48.6l78.8-52.1L1168.9,195.8z" class="toggle" style="fill: rgb(45, 59, 97);"/></g></g></g><g id="RightShoulder_Current"><g id="Right-Shoulder_M"><g id="Pauldron_Shoulder_Right_M_Option" class="option" style="display: inherit;"><path id="Main_Pauldron_Shoulder_Right_M" d="M526.1,138.9L230.4,278.9L87.9,130.4l382.7-46.3L526.1,138.9z" style="fill: rgb(1, 17, 61);"/><g id="Plate_Pauldron_Shoulder_Right_M" style="fill: rgb(45, 59, 97);"><path d="M115.1,133.2l119.3,123.9l260.7-123.5l-42.3-41.8L115.1,133.2z"/><path d="M110,127.7L446.6,87l-3.8-4.4l-334.9,39.3L110,127.7z"/></g></g></g></g></g><g id="Lower-Body_M_Wrapper" transform="translate(268,1340)"><g id="Knees_Current"><g id="LeftKnee_Current"><g id="Left-Knee_M"><g id="Legacy_Knee_Left_M_Option" class="option" style="display: inherit;"><path id="Plate-2_Legacy-Knee_Left_M" d="M975.4,946.6l-42.5-29.7l-95,14.8l-37,42.1l30.5,102.7h75.2l71-22.7 L975.4,946.6z" style="fill: rgb(4, 198, 255);"/><path id="Plate-1_Legacy-Knee_Left_M" d="M989.8,877.2l-54.5-38.1L813.5,858L766,911.9l39.1,131.7l99.3-0.9 l88.2-28.2L989.8,877.2z" style="fill: rgb(109, 141, 231);"/></g></g></g><g id="RightKnee_Current"><g id="Right-Knee_M"><g id="Legacy_Knee_Right_M_Option" class="option" style="display: inherit;"><path id="Plate-2_Legacy-Knee_Right_M" d="M289.8,946.6l42.5-29.7l95,14.8l37,42.1l-30.5,102.7h-75.2l-71-22.7 L289.8,946.6z" style="fill: rgb(4, 198, 255);"/><path id="Plate-1_Legacy-Knee_Right_M" d="M275.4,877.2l54.5-38.1L451.7,858l47.5,53.9l-39.1,131.7l-99.3-0.9 l-88.2-28.2L275.4,877.2z" style="fill: rgb(109, 141, 231);"/></g></g></g></g><g id="Shins_Current"><g id="LeftShin_Current"><g id="Left-Shin_M"><g id="Basic_Shin_Left_M_Option" class="option" style="display: inherit;"><path id="Shin_Basic-Shin_Left_M" d="M1021.3,1126.1l-53.7-58.4L861,1082.2l-38.9,92.9l72.9,309.8 c47.4,19.4,115.6,9.3,152.3-24.5L1021.3,1126.1" style="fill: rgb(1, 17, 61);"/><path id="Trauma-Plating_Basic-Shin_Left_M_ToggleOff" d="M1028.6,1452.5l-24.7-318.8l-43.1-46.9l-87.1,11.8 l-32.7,78l69.3,294.6C948.2,1483.1,997.7,1475.9,1028.6,1452.5" class="toggle" style="fill: rgb(143, 230, 255);"/><g id="Ridge_Basic-Shin_Left_M_ToggleOff" class="toggle" style="fill: rgb(4, 198, 255);"><path d="M952.8,1067.7l-37.9-3.6l-36.9,15.8l75.6,414.8c25.9,0.9,26.4,1.8,47.4-8.3L952.8,1067.7"/><path d="M914.9,1064.1l64.1,430.6"/></g></g></g></g><g id="RightShin_Current"><g id="Right-Shin_M"><g id="Basic_Shin_Right_M_Option" class="option" style="display: inherit;"><path id="Shin_Basic-Shin_Right_M" d="M244.2,1126.1l53.7-58.4l106.6,14.5l38.9,92.9l-72.9,309.8 c-47.4,19.4-115.5,9.3-152.3-24.5L244.2,1126.1" style="fill: rgb(1, 17, 61);"/><path id="Trauma-Plating_Basic-Shin_Right_M_ToggleOff" d="M237,1452.5l24.7-318.8l43.1-46.9l87.1,11.8l32.7,78 l-69.3,294.6C317.3,1483.1,267.8,1475.9,237,1452.5" class="toggle" style="fill: rgb(143, 230, 255);"/><g id="Ridge_Basic-Shin_Right_M_ToggleOff" class="toggle" style="fill: rgb(4, 198, 255);"><path d="M312.7,1067.7l37.9-3.6l36.9,15.8l-75.6,414.8c-25.9,0.9-26.4,1.8-47.4-8.3L312.7,1067.7"/><path d="M350.6,1064.1l-64.1,430.6"/></g></g></g></g></g><g id="Ankles_Current"><g id="LeftAnkle_Current"><g id="Left-Ankle_M"><g id="Legacy_Ankle_Left_M_Option" class="option" style="display: inherit;"><path id="Plate-2_Legacy-Ankle_Left_M" d="M1075.2,1585.1l46,41.5l31.7,39.8l-50.7,16.5l-116.1-24.1l-42.4-56.2 L1075.2,1585.1" style="fill: rgb(1, 17, 61);"/><path id="Plate-1_Legacy-Ankle_Left_M" d="M866.4,1506.9c0,0,46.4,20.7,114.9,18.2c47.1-1.7,66.2-13.5,66.2-13.5 l39.8,73.8l-10.3,40.8L909.1,1613l-41.3-35L866.4,1506.9" style="fill: rgb(1, 17, 61);"/><path id="Trauma-Plate-2_Legacy-Ankle_Left_M_ToggleOff" d="M1085.1,1594l35.9,32.4l18.6,23.2l-38.6,12.5 l-102.2-21.3l-16.8-22.2l95,7.5L1085.1,1594" class="toggle" style="fill: rgb(142, 246, 255);"/><path id="Trauma-Plate-1_Legacy-Ankle_Left_M_ToggleOff" d="M883.9,1532.7l0.7,33.8l33.4,27.1l147.5,11.6l10.4-40.7 l-18.8-34.8c-12.4,3.6-50.3,14.5-75.1,15.4C942.8,1546.5,905.9,1538.4,883.9,1532.7" class="toggle" style="fill: rgb(142, 246, 255);"/></g></g></g><g id="RightAnkle_Current"><g id="Right-Ankle_M"><g id="Legacy_Ankle_Right_M_Option" class="option" style="display: inherit;"><path id="Plate-2_Legacy-Ankle_Right_M" d="M189.8,1585.1l-46,41.5l-31.7,39.8l50.7,16.5l116.1-24.1l42.4-56.2 L189.8,1585.1" style="fill: rgb(1, 17, 61);"/><path id="Plate-1_Legacy-Ankle_Right_M" d="M398.6,1506.9c0,0-46.4,20.7-114.9,18.2c-47.1-1.7-66.2-13.5-66.2-13.5 l-39.8,73.8l10.3,40.8l167.8-13.2l41.3-35L398.6,1506.9" style="fill: rgb(1, 17, 61);"/><path id="Trauma-Plate-2_Legacy-Ankle_Right_M_ToggleOff" d="M179.9,1594l-35.9,32.4l-18.6,23.2l38.6,12.5 l102.2-21.3l16.8-22.2l-95,7.5L179.9,1594" class="toggle" style="fill: rgb(143, 230, 255);"/><path id="Trauma-Plate-1_Legacy-Ankle_Right_M_ToggleOff" d="M381.1,1532.7l-0.7,33.8l-33.4,27.1l-147.5,11.6 l-10.4-40.7l18.8-34.8c12.4,3.6,50.3,14.5,75.1,15.4C322.2,1546.5,359.1,1538.4,381.1,1532.7" class="toggle" style="fill: rgb(143, 230, 255);"/></g></g></g></g><g id="Toes_Current"><g id="LeftToe_Current"><g id="Left-Toe_M"><g id="None_Toe_Left_M_Option" class="option" style="display: inherit;"></g></g></g><g id="RightToe_Current"><g id="Right-Toe_M"><g id="None_Toe_Right_M_Option" class="option" style="display: inherit;"></g></g></g></g><g id="Thighs_Current"><g id="LeftThigh_Current"><g id="Left-Thigh_M"><g id="Basic_Thigh_Left_M_Option" class="option" style="display: inherit;"><path id="Thigh_Basic-Thigh_Left_M" d="M1006.3,442.8c0,0-53.3-68.5-80.5-79.9c-25.8-10.8-60.3-6.1-82.5,11.6 c-33.8,27.1-111.4,85.7-120.2,151c-9.8,72.9,43.2,234.1,61.3,286.1c6.1,17.7,29.3,25.7,47,26.4c32.8,1.2,122.6-1.6,144.1-50 C1004.6,722.2,1006.3,442.8,1006.3,442.8" style="fill: rgb(1, 17, 61);"/><path id="Trauma-Plate_Basic-Thigh_Left_M_ToggleOff" d="M988.3,449c-8-9.9-27.1-33.1-45.5-50.9 c-8.8-8.5-17.2-15.8-23.8-18.6c-20.1-8.4-47-4.8-64.3,9.1c-19.6,15.7-54.6,42.3-81.2,74.8c-16.1,19.7-29.4,41.6-32.5,64.5 c-9.5,70.8,42.9,227.2,60.4,277.8c1.5,4.4,5.7,7.2,10.1,9.3c6.5,3.2,14.1,4.7,20.6,5c18.4,0.7,55.9,0.2,87.2-10.2 c17.3-5.7,33.1-14.1,39.7-29.1c8.3-18.7,13.8-55.7,18.1-98.1C986.2,592,988,477,988.3,449" class="toggle" style="fill: rgb(7, 50, 170);"/><g id="Ridge_Basic-Thigh_Left_M_ToggleOff" class="toggle" style="fill: rgb(4, 198, 255);"><path d="M916.4,357.2l-36.8-9.5L841,369l12.5,469.2c25.4,4.9,25.8,5.9,48.1-0.8L916.4,357.2"/><path d="M879.9,347.8l-1,494.3"/></g></g></g></g><g id="RightThigh_Current"><g id="Right-Thigh_M"><g id="Basic_Thigh_Right_M_Option" class="option" style="display: inherit;"><path id="Thigh_Basic-Thigh_Right_M" d="M258.9,442.8c0,0,53.3-68.5,80.5-79.9c25.8-10.8,60.3-6.1,82.5,11.6 c33.8,27.1,111.4,85.7,120.2,151c9.8,72.9-43.2,234.1-61.3,286.1c-6.1,17.7-29.3,25.7-47,26.4c-32.8,1.2-122.6-1.6-144.1-50 C260.6,722.2,258.9,442.8,258.9,442.8" style="fill: rgb(1, 17, 61);"/><path id="Trauma-Plate_Basic-Thigh_Right_M_ToggleOff" d="M276.9,449c8-9.9,27.1-33.1,45.5-50.9 c8.8-8.5,17.2-15.8,23.8-18.6c20.1-8.4,47-4.8,64.3,9.1c19.6,15.7,54.6,42.3,81.2,74.8c16.1,19.7,29.4,41.6,32.5,64.5 c9.5,70.8-42.9,227.2-60.4,277.8c-1.5,4.4-5.7,7.2-10.1,9.3c-6.5,3.2-14.1,4.7-20.6,5c-18.4,0.7-55.9,0.2-87.2-10.2 c-17.3-5.7-33.1-14.1-39.7-29.1c-8.3-18.7-13.8-55.7-18.1-98.1C279,592,277.2,477,276.9,449" class="toggle" style="fill: rgb(7, 50, 170);"/><g id="Ridge_Basic-Thigh_Right_M_ToggleOff" class="toggle" style="fill: rgb(4, 198, 255);"><path d="M348.8,357.2l36.8-9.5l38.6,21.3l-12.5,469.2c-25.4,4.9-25.8,5.9-48.1-0.8L348.8,357.2"/><path d="M385.3,347.8l1,494.3"/></g></g></g></g></g><g id="Groin_Current"><g id="Groin_M"><g id="Basic_Groin_M_Option" class="option" style="display: inherit;"><path id="Groin-Plate_Basic_M" d="M566.1,514.1L455.3,270.1h354.3L698.8,514.1l-66.4,58.2L566.1,514.1z" style="fill: rgb(1, 17, 61);"/></g></g></g><g id="Waist_Current" class="M"><g id="Accessories_Waist_M"><g id="Kama_M_ToggleOff" class="toggle" style=""><g id="Clean_Kama_M_Option" class="option" style="display: inherit;"><g id="Trim_Kama-Clean" style="fill: rgb(209, 70, 217);"><path d="M806.7,101.6l38.1,609.9l280,186.2l-212.4-825L806.7,101.6z"/><path d="M458.8,101.6l-38.1,609.9l-280,186.2l212.4-825L458.8,101.6z"/></g><g id="Main_Kama-Clean" style="fill: rgb(45, 59, 97);"><path d="M826.6,100.3l36.8,589.9l252.6,173.6L912.4,72.7L826.6,100.3z"/><path d="M438.9,100.3l-36.8,589.9L149.4,863.9L353.1,72.7L438.9,100.3z"/></g></g></g><g id="Loin-Cloth_M_ToggleOff" class="toggle" style=""><g id="Clean_Loin-Cloth_M_Option" class="option" style="display: inherit;"><path id="Trim_Loin-Cloth-Clean" d="M766.8,140.8h-268v477.1l134,134l134-134V140.8z" style="fill: rgb(232, 81, 227);"/><path id="Main_Loin-Cloth-Clean" d="M749.6,191H515.9v415.9l116.8,116.8l116.8-116.8V191z" style="fill: rgb(52, 68, 83);"/></g></g></g><g id="Under-Belt_M"><g id="Sash_M_Option" class="option" style="display: inherit; fill: rgb(249, 136, 198);"><path d="M333.1,60c27.2-5.8,69.4,11,105,13.9c38.1,3.1,76.3,0.4,114.4,2.9c22.3,1.5,44.2,7,66.3,10 c42.5,5.7,85,2.7,127.4-2.8c11.2-1.4,22.6-1.7,33.6-4c27.8-5.8,63.9-12.2,87.8-23.4c21.1-5.3,42.5-6.2,62.4-1.3 c20.2,5,6.1,45.4,7,61.9c1,17.4,13.5,85.9,21,101.9c8.3,17.7,14.8,37-9.4,48.7c-20.3,9.7-41.9,0.9-62.5-1.8 c-24.3-3.2-48.4-1.6-72.4,3.1c-29.4,5.7-58.4,16.3-88.3,19.1c-40,3.7-80.4-3.7-120.4-3.1c-23,0.3-45.1,7.8-68.2,5.9 c-38.6-3.1-73.7-18.8-111.1-22.5c-18.8-1.9-37.6,2.5-56.4,2.5c-13,0-25-3.5-37.5-6.6c-12.4-3-24-1.8-30.9-13.5 c-5.1-8.8,5.7-32.8,10.9-40.3c13.3-19.3,16.9-87.5,12.1-109.4C319.7,82.8,314.2,64,333.1,60z"/><path d="M305.5,222.2c42.6-0.1,79.9-0.9,118.3,13.8c130,50.1,127.1,43.3,182.4,49c81.4,8.4,113.8,5.3,147.5-2.4 c13.6-3.1,27.2-7.4,39.4-13.6c21.7-11,42.7-22.3,62-37.6c23.4-18.6,64.3-31.2,97.2-29.7c0,0-6.4-21.5-15.4-85.2 c-2.3-16.5,8.1-34.5-0.1-56.9c-3.5-9.6-35.8-7-57.8-5.2c-43.3,3.5-62.5,34.9-96,59.9c-19.5,14.6-42.6,31.9-71.4,41.2 c-45.4,14.7-116,21.4-249.9-23.2C418,117.8,381,90.3,323.4,99.2c0,0,2.1,29.6,2.1,44.5C325.6,191.1,305.5,222.2,305.5,222.2z"/></g></g><g id="Belt_M"><g id="Pouch-Belt-4_M_Option" class="option" style="display: inherit;"><path id="Main_Pouch-Belt-4_M" d="M953.4,201.3c-72.3,6.5-237.4,30.1-320.8,30.1c-84.2,0-249.3-23.8-320.7-30.1 l10.7-84.6C381.2,122,551.1,146,632.6,146c79.1,0,245.5-23.8,308.1-29.5L953.4,201.3z" style="fill: rgb(46, 24, 3);"/><rect id="Buckle_Pouch-Belt-4_M" x="573.5" y="137.9" width="119.5" height="98.1" style="fill: rgb(37, 37, 37);"/><g id="Pouches_Pouch-Belt-4_M" style="fill: rgb(80, 41, 4);"><g><g><path d="M364.6,100.2c-3.3-0.2-6.6,0.4-9.7,1.7c-7.1,3.1-19.7,8.6-19.7,8.6l78.2,4.5l21.2-10.1 C434.6,104.9,381.4,101.3,364.6,100.2z"/><path d="M437.3,107.9c0.1-0.9-0.3-1.8-1.1-2.4c-0.8-0.5-1.7-0.6-2.6-0.2c-7,3.3-20.3,9.6-20.3,9.6l-10.8,132.4 c6.9-4.4,13.7-7.3,20.5-9c4.2-1,7.2-4.7,7.3-8.9C431.7,188.8,433.4,148.3,437.3,107.9z"/><path d="M413.4,115l-78.2-4.5c-0.6,20.1-2.4,40.2-3.5,60.3c-1.1,22.2-1.7,44.5-3.6,66.9c-0.1,1.6,0.4,3.2,1.5,4.4 c1.1,1.2,2.7,1.9,4.3,1.8c22.1-0.2,44,1.1,65.9,3.8c1.5,0.2,3.1-0.3,4.3-1.2c1.2-1,1.9-2.4,2-3.9c1.1-15.7,3.9-56.9,3.9-56.9 L413.4,115z"/><path d="M413.4,115l-78.2-4.5c0,0-2,17.1-3.8,33.6c-0.9,8,1.5,16,6.7,22.2c5.2,6.2,12.7,9.9,20.7,10.4 c7.7,0.4,15.9,0.9,23.6,1.4c8.1,0.5,16-2.4,21.8-8c5.9-5.5,9.2-13.3,9.2-21.3C413.4,132.1,413.4,115,413.4,115z"/><path d="M371.5,161.7c2.8,0.2,4.9,2.8,4.7,5.8c-0.2,3-2.6,5.4-5.3,5.2c-2.8-0.2-4.9-2.8-4.7-5.8 C366.4,163.8,368.8,161.5,371.5,161.7z"/></g></g><g><path d="M285.7,109l5.8-9.1l30,1l3.7,11.3L285.7,109z"/><path d="M325.1,113.3c0.1-0.7-0.1-1.4-0.6-2c-0.5-0.5-1.1-0.9-1.9-0.9c-9-0.3-36.9-1.4-36.9-1.4L280.4,228 c1.2,3,16.3,4.9,28.4,5.2c5.3,0.1,9.7-4.1,9.8-9.3C319.5,187,320.8,150,325.1,113.3z"/></g><g><g><path d="M900.7,100.2c3.3-0.2,6.6,0.4,9.7,1.7c7.1,3.1,19.7,8.6,19.7,8.6l-78.2,4.5l-21.2-10.1 C830.6,104.9,883.8,101.3,900.7,100.2z"/><path d="M827.9,107.9c-0.1-0.9,0.3-1.8,1.1-2.4c0.8-0.5,1.7-0.6,2.6-0.2c7,3.3,20.3,9.6,20.3,9.6l10.8,132.4 c-6.9-4.4-13.7-7.3-20.5-9c-4.2-1-7.2-4.7-7.3-8.9C833.5,188.8,831.8,148.3,827.9,107.9z"/><path d="M851.9,115l78.2-4.5c0.6,20.1,2.4,40.2,3.5,60.3c1.1,22.2,1.7,44.5,3.6,66.9c0.1,1.6-0.4,3.2-1.5,4.4 c-1.1,1.2-2.7,1.9-4.3,1.8c-22.1-0.2-44,1.1-65.9,3.8c-1.5,0.2-3.1-0.3-4.3-1.2c-1.2-1-1.9-2.4-2-3.9 c-1.1-15.7-3.9-56.9-3.9-56.9L851.9,115z"/><path d="M851.9,115l78.2-4.5c0,0,2,17.1,3.8,33.6c0.9,8-1.5,16-6.7,22.2c-5.2,6.2-12.7,9.9-20.7,10.4 c-7.7,0.4-15.9,0.9-23.6,1.4c-8.1,0.5-16-2.4-21.8-8c-5.9-5.5-9.2-13.3-9.2-21.3C851.8,132.1,851.9,115,851.9,115z"/><path d="M893.7,161.7c-2.8,0.2-4.9,2.8-4.7,5.8c0.2,3,2.6,5.4,5.3,5.2c2.8-0.2,4.9-2.8,4.7-5.8 C898.8,163.8,896.4,161.5,893.7,161.7z"/></g></g><g><path d="M979.5,109l-5.8-9.1l-30,1l-3.7,11.3L979.5,109z"/><path d="M940.1,113.3c-0.1-0.7,0.1-1.4,0.6-2c0.5-0.5,1.1-0.9,1.9-0.9c9-0.3,36.9-1.4,36.9-1.4l5.3,119.1 c-1.2,3-16.3,4.9-28.4,5.2c-5.3,0.1-9.7-4.1-9.8-9.3C945.7,187,944.4,150,940.1,113.3z"/></g></g></g></g></g></g></svg>
