<svg id="Female-Body" viewBox="0 0 1800 3300" version="1.1" xmlns="http://www.w3.org/2000/svg" style="stroke:black;stroke-width:2px;fill-rule:evenodd;height:100%;"><g id="Back_F" transform="translate(0,601)"><g id="Cape_F"><g id="None_Back_F_Option" class="option" style="display: inherit;"></g></g></g><g id="Flight-Suit" transform="translate(0,528)"><g id="Soft-Parts_F"><g id="Suit_F"><g id="Neck-Seal_F"><path id="Plain-Neck-Seal_F_Option" d="M1003.2,68.3l50,98.1l-27.8,47.1l-125,29l-125.8-29l-27-47.1l49.2-98.1 L900,75.4L1003.2,68.3" class="option" style="display: inherit; fill: rgb(56, 58, 66);"/></g><g id="Flight-Suit_F" style="fill: rgb(56, 58, 66);"><path d="M421.3,665.8l53.1-193l124-83.5l19.4,169.3c0,0-53.6,102.2-72.1,149c-19,48.2-52,158.4-56.2,172.5 l-29.4,255.8l-85.3-27.3c0,0-3.1-177.5,4.7-251.3C386.4,791.5,421.3,665.8,421.3,665.8z"/><path d="M1378.7,665.8l-53.3-193.6l-123.1-82.9l-19.6,170.4c0,0,53.1,101.1,71.6,147.9c19,48.2,52,158.4,56.2,172.5 l29.4,255.8l85.3-27.3c0,0,3.1-177.5-4.7-251.3C1413.6,791.5,1378.7,665.8,1378.7,665.8z"/><path d="M899.8,1212.7c-10.5,1-19.9,5.2-23.4,12.5c-30.6,64.7-93.6,360.6-111.8,415.2c-9.9,29.7-17.7,192-34.5,286.7 c-20,113-85.7,391.3-85.7,391.3l-113.8-11.8c0,0-14.7-279.4-10.6-381.2c3.1-77.3,34.9-229.1,34.9-229.1s6.8-55.4,7-83.3 c0.6-100.8,9.5-325,29.4-453.8C607,1057.4,703,843.7,703,843.7s124.3,48.9,197.4,48.9s198.4-49.9,198.4-49.9 s90.6,214.8,106.3,316.6c19.9,128.7,33.1,353,33.7,453.8c0.2,27.9,7,83.3,7,83.3s31.8,151.8,34.9,229.1 c4,101.7-10.6,381.2-10.6,381.2l-113.8,11.8c0,0-65.6-278.3-85.7-391.3c-16.8-94.7-24.6-257-34.5-286.7 c-18.2-54.5-81.2-350.5-111.8-415.2c-3.5-7.5-13.2-11.7-23.9-12.6L899.8,1212.7z"/></g></g><g id="Boots_F"><g id="Basic_Boots_F_Option" class="option" style="display: inherit;"><g id="Main_Basic-Boot_F" style="fill: rgb(45, 28, 20);"><path d="M652.3,2285.1c-1.9-0.7-23.6,13.1-36,15.2c-13.2,2.2-27.6,2-41.6,0.6l-5.7-0.6l-0.2,0l-0.7-0.1l-1.9-0.3 l-2.9-0.4l-1.2-0.2c-3.3-0.4-6.5-1-9.7-1.5l-5-1l-1.1-0.3l-0.4-0.1l-0.8-0.2l-3.5-0.9l-3.1-0.9l-0.5-0.1c-10.7-2.9-8.7-8-8.7-8 c0,14.9-15.5,61.4-53.8,99.4c-11.7,11.6-40,25.2-64.6,36c-22.5,9.9-49.7,12.3-62.8,38.8c-2.8,5.8-5.3,12.7-4.8,19.3 c0.6,8.4,9.7,9.6,16.8,11.6c17.6,5,32.8,8.8,53.2,13.4c23.3,5.2,44.3,8.4,67.9,7.8c17.7-0.5,32.6-1.2,48.1-10.6 c6.2-3.8,12.7-7.6,18.1-12.5c12.1-11.1,20-22.7,35.6-29.3c11.3-4.8,22.9-8.7,34.8-11.6c16.9-4,41.5-9.7,50.5-26.4 c3.5-12.5-11.7-39.3-12.8-57.4C655,2350.5,653.6,2285.6,652.3,2285.1z"/><path d="M1148.4,2285.1c1.9-0.7,23.6,13.1,36,15.2c13.2,2.2,27.6,2,41.6,0.6l5.7-0.6l0.2,0l0.7-0.1l1.9-0.3l2.9-0.4 l1.2-0.2c3.3-0.4,6.5-1,9.7-1.5l5-1l1.1-0.3l0.4-0.1l0.8-0.2l3.5-0.9l3.1-0.9l0.5-0.1c10.7-2.9,8.7-8,8.7-8 c0,14.9,15.5,61.4,53.8,99.4c11.7,11.6,40,25.2,64.6,36c22.5,9.9,49.7,12.3,62.8,38.8c2.8,5.8,5.3,12.7,4.8,19.3 c-0.6,8.4-9.7,9.6-16.8,11.6c-17.6,5-32.8,8.8-53.2,13.4c-23.3,5.2-44.3,8.4-67.9,7.8c-17.7-0.5-32.6-1.2-48.2-10.6 c-6.2-3.8-12.7-7.6-18.1-12.5c-12.1-11.1-20-22.7-35.6-29.3c-11.3-4.8-22.8-8.7-34.8-11.6c-16.9-4-41.5-9.7-50.6-26.4 c-3.5-12.5,11.7-39.3,12.8-57.4C1145.7,2350.5,1147.1,2285.6,1148.4,2285.1z"/></g><g id="Bottom_Basic-Boot_F" style="fill: rgb(47, 38, 28);"><path d="M668.7,2422.4c-4.5,8.3-12.9,13.9-22.3,17.9c-8.5,4.3-18.6,6.1-28.3,8.4c-1.3,0.3-2.6,0.6-3.9,1 c-1.9,0.5-3.8,1-5.7,1.6c-0.6,0.2-1.2,0.3-1.7,0.5l-1,0.3c-0.6,0.2-1.2,0.4-1.9,0.6c-0.3,0.1-0.5,0.2-0.8,0.3 c-1,0.3-2.1,0.7-3.1,1c-0.4,0.1-0.7,0.3-1.1,0.4l-0.5,0.2c-1.6,0.5-3.2,1.1-4.8,1.7c-0.3,0.1-0.7,0.3-1,0.4 c-1.4,0.6-2.9,1.1-4.3,1.7l-1.1,0.4c-0.9,0.3-1.7,0.7-2.6,1.1c-0.4,0.2-0.7,0.3-1.1,0.5c-2.6,1.1-4.9,2.3-7.1,3.6l-0.3,0.2 c-0.2,0.1-0.3,0.2-0.5,0.3c-0.7,0.4-1.3,0.9-2,1.3l-0.4,0.3c-0.1,0.1-0.3,0.2-0.4,0.3c-0.7,0.5-1.3,1-1.9,1.4l-0.5,0.4l-0.9,0.7 c-2.7,2.2-5.2,4.5-7.7,7l-0.7,0.7c-1.3,1.4-2.7,2.7-4,4.1c-1.4,1.4-2.8,2.9-4.3,4.4c-1.5,1.5-3,2.9-4.6,4.4l-0.5,0.5 c-0.5,0.4-1,0.9-1.5,1.3c-0.1,0.1-0.2,0.1-0.3,0.2c-0.8,0.7-1.6,1.3-2.4,1.9c-0.5,0.4-1.1,0.8-1.7,1.2l-0.3,0.2 c-0.7,0.5-1.4,1-2.1,1.4c-0.3,0.2-0.6,0.4-0.9,0.6c-1,0.7-2.1,1.3-3.2,2c-0.7,0.4-1.5,0.9-2.2,1.3l-0.9,0.6l-2.3,1.4l-1.1,0.7 l-0.7,0.4l-0.7,0.4c-1.1,0.6-2.1,1.1-3.2,1.7c-0.5,0.2-1,0.5-1.5,0.7l-0.5,0.2c-3.2,1.4-6.5,2.5-9.7,3.3l-0.6,0.1l-0.7,0.2 c-0.2,0-0.5,0.1-0.7,0.2c-0.7,0.2-1.3,0.3-2,0.4c-0.5,0.1-1,0.2-1.6,0.3l-1.2,0.2l-0.4,0.1c-0.3,0.1-0.7,0.1-1,0.2 c-0.6,0.1-1.2,0.2-1.7,0.2c-0.8,0.1-1.6,0.2-2.5,0.3c-0.2,0-0.4,0-0.7,0.1c-2.1,0.2-4.1,0.4-6.3,0.5c-1.2,0.1-2.3,0.1-3.5,0.2 l-1,0c-2.2,0.1-4.5,0.2-6.7,0.2c-1.5,0.1-2.9,0.1-4.4,0.1c-0.5,0-1.1,0-1.6,0c-0.8,0-1.5,0-2.2,0c-0.5,0-1.1,0-1.6,0l-0.5,0 c-2.7-0.1-5.3-0.2-8-0.3c-0.4,0-0.7,0-1.1-0.1l-1.1-0.1c-0.3,0-0.7,0-1-0.1c-3.9-0.3-7.7-0.6-11.6-1.1l-1-0.1 c-1-0.1-1.9-0.2-2.9-0.4c-0.4-0.1-0.8-0.1-1.3-0.2l-1-0.1c-0.8-0.1-1.6-0.2-2.4-0.4c-3.4-0.5-6.7-1.1-10.1-1.7 c-0.8-0.1-1.5-0.3-2.3-0.4l-1-0.2c-0.4-0.1-0.7-0.1-1.1-0.2l-1.1-0.2c-0.4-0.1-0.7-0.1-1.1-0.2l-0.7-0.2 c-0.8-0.2-1.6-0.3-2.5-0.5l-1.1-0.2c-1-0.2-1.9-0.4-2.9-0.6c-0.8-0.2-1.7-0.4-2.5-0.6l-0.2-0.1c-5.3-1.2-10.3-2.3-15.1-3.5 l-1.8-0.4c-1.4-0.3-2.7-0.6-4-1l-1.6-0.4l-0.7-0.2c-1.9-0.5-3.7-0.9-5.6-1.4c-1.1-0.3-2.2-0.6-3.3-0.9c-3.2-0.8-6.4-1.7-9.6-2.5 l-1.5-0.4c-0.5-0.1-1.1-0.3-1.6-0.4l-0.6-0.2c-2.5-0.7-5-1.4-7.5-2.1l-0.6-0.2l-0.9-0.2l-2.6-0.7l-0.9-0.2l-1.3-0.4l-0.6-0.2 l-1.1-0.3l-0.9-0.3l-0.4-0.2l-0.5-0.2l-0.3-0.1l-0.5-0.2l-0.5-0.2l-0.2-0.1l-0.5-0.3l-0.6-0.3l-0.5-0.4l-0.5-0.4 c-0.8-0.7-1.6-1.4-2.1-2.4h0c0,0-4.7,7-5.1,19.1c10.6,15.3,44,20.4,90.2,26.6c45.9,6.1,74.3,4.9,93.5-3.3s52.9-47.5,77-49.6 c24.1-2.1,52.6-14.9,64.3-21.7c6.1-3.6,4.3-28.9,4.3-28.9L668.7,2422.4z"/><path d="M1131.9,2422.4c4.5,8.3,12.9,13.9,22.3,17.9c8.6,4.3,18.6,6.1,28.3,8.4c1.3,0.3,2.6,0.6,3.9,1 c1.9,0.5,3.8,1,5.8,1.6c0.6,0.2,1.2,0.3,1.7,0.5l1,0.3c0.6,0.2,1.2,0.4,1.8,0.6c0.3,0.1,0.5,0.2,0.8,0.3c1,0.3,2.1,0.7,3.1,1 c0.4,0.1,0.7,0.3,1.1,0.4l0.5,0.2c1.6,0.5,3.2,1.1,4.8,1.7c0.4,0.1,0.7,0.3,1,0.4c1.4,0.6,2.9,1.1,4.3,1.7l1.1,0.4 c0.9,0.3,1.7,0.7,2.6,1.1c0.4,0.2,0.8,0.3,1.1,0.5c2.6,1.1,4.9,2.3,7.1,3.6l0.3,0.2c0.2,0.1,0.3,0.2,0.5,0.3 c0.7,0.4,1.3,0.9,2,1.3l0.4,0.3c0.1,0.1,0.3,0.2,0.4,0.3c0.7,0.5,1.3,1,1.9,1.4l0.6,0.4l0.8,0.7c2.7,2.2,5.2,4.5,7.7,7l0.7,0.7 c1.3,1.4,2.7,2.7,4,4.1c1.4,1.4,2.8,2.9,4.3,4.4c1.5,1.5,3,2.9,4.6,4.4l0.5,0.5c0.5,0.4,1,0.9,1.5,1.3c0.1,0.1,0.2,0.1,0.3,0.2 c0.8,0.7,1.6,1.3,2.4,1.9c0.5,0.4,1.1,0.8,1.7,1.2l0.3,0.2c0.7,0.5,1.4,1,2.1,1.4c0.3,0.2,0.6,0.4,0.9,0.6c1,0.7,2.1,1.3,3.2,2 c0.7,0.4,1.5,0.9,2.2,1.3l0.9,0.6l2.3,1.4l1.1,0.7l0.7,0.4l0.7,0.4c1.1,0.6,2.1,1.1,3.2,1.7c0.5,0.2,1,0.5,1.5,0.7l0.5,0.2 c3.2,1.4,6.5,2.5,9.7,3.3l0.6,0.1l0.7,0.2c0.2,0,0.5,0.1,0.7,0.2c0.7,0.2,1.4,0.3,2,0.4c0.5,0.1,1.1,0.2,1.6,0.3l1.2,0.2l0.4,0.1 c0.3,0.1,0.7,0.1,1,0.2c0.6,0.1,1.2,0.2,1.7,0.2c0.8,0.1,1.7,0.2,2.5,0.3c0.2,0,0.4,0,0.7,0.1c2.1,0.2,4.1,0.4,6.3,0.5 c1.1,0.1,2.3,0.1,3.5,0.2l1,0c2.2,0.1,4.5,0.2,6.8,0.2c1.5,0.1,2.9,0.1,4.4,0.1c0.5,0,1.1,0,1.6,0c0.8,0,1.5,0,2.2,0 c0.5,0,1.1,0,1.6,0l0.5,0c2.7-0.1,5.3-0.2,8-0.3c0.4,0,0.7,0,1.1-0.1l1.1-0.1c0.3,0,0.7,0,1-0.1c3.9-0.3,7.7-0.6,11.6-1.1l1-0.1 c1-0.1,1.9-0.2,2.9-0.4c0.4-0.1,0.8-0.1,1.3-0.2l1-0.1c0.8-0.1,1.6-0.2,2.4-0.4c3.4-0.5,6.7-1.1,10.1-1.7 c0.8-0.1,1.5-0.3,2.3-0.4l1-0.2c0.3-0.1,0.7-0.1,1.1-0.2l1.1-0.2c0.4-0.1,0.7-0.1,1.1-0.2l0.7-0.2c0.8-0.2,1.7-0.3,2.5-0.5 l1.1-0.2c1-0.2,1.9-0.4,2.9-0.6c0.8-0.2,1.7-0.4,2.5-0.6l0.2-0.1c5.3-1.2,10.3-2.3,15.1-3.5l1.8-0.4c1.4-0.3,2.7-0.6,4-1l1.6-0.4 l0.7-0.2c1.9-0.5,3.8-0.9,5.6-1.4c1.1-0.3,2.2-0.6,3.3-0.9c3.2-0.8,6.4-1.7,9.6-2.5l1.5-0.4c0.5-0.1,1.1-0.3,1.6-0.4l0.6-0.2 c2.5-0.7,5-1.4,7.5-2.1l0.6-0.2l0.9-0.2l2.7-0.7l0.9-0.2l1.3-0.4l0.5-0.2l1.1-0.3l0.9-0.3l0.4-0.2l0.5-0.2l0.3-0.1l0.5-0.2 l0.5-0.2l0.2-0.1l0.5-0.3l0.6-0.3l0.5-0.4l0.5-0.4c0.8-0.7,1.5-1.4,2.1-2.4l0,0c0,0,4.7,7,5.1,19.1c-10.6,15.3-44,20.4-90.2,26.6 c-46,6.1-74.3,4.9-93.5-3.3s-52.9-47.5-77-49.6c-24.1-2.1-52.6-14.9-64.3-21.7c-6.1-3.6-4.3-28.9-4.3-28.9L1131.9,2422.4z"/></g><g id="Top_Basic-Boot_F" style="fill: rgb(45, 28, 20);"><path d="M536.1,2293.9c-6.4,31.4-16.3,58.7-37.2,85.1c-32.5,41.1-88,44.5-126.4,77.9c-9.8,8.6-9.4,22.3-11,35 c15.9,4.5,29.9,8,47.7,12.1c1.2-12.6-1-26.7,9.5-35.9c38.4-33.4,98.8-32.1,131.3-73.2c21.2-26.9,21.3-61.5,27.5-93.7 c-1-0.1-1.9-0.2-2.9-0.3l-5.7-0.6l-0.2,0l-0.7-0.1l-1.9-0.3l-2.9-0.4l-1.2-0.2c-3.3-0.4-6.5-1-9.7-1.5l-5-1l-1.1-0.3l-0.4-0.1 l-0.8-0.2l-3.5-0.9l-3.1-0.9l-0.5-0.1C537.6,2294.3,536.8,2294.1,536.1,2293.9z"/><path d="M1264.5,2293.9c6.4,31.4,16.3,58.7,37.2,85.1c32.5,41.1,88,44.5,126.4,77.9c9.8,8.6,9.4,22.3,11,35 c-15.9,4.5-29.9,8-47.7,12.1c-1.3-12.6,1-26.7-9.5-35.9c-38.4-33.4-98.8-32.1-131.3-73.2c-21.2-26.9-21.3-61.5-27.5-93.7 c1-0.1,1.9-0.2,2.8-0.3l5.7-0.6l0.2,0l0.7-0.1l1.9-0.3l2.9-0.4l1.2-0.2c3.3-0.4,6.5-1,9.7-1.5l5-1l1.1-0.3l0.4-0.1l0.8-0.2 l3.5-0.9l3.1-0.9l0.5-0.1C1263.1,2294.3,1263.8,2294.1,1264.5,2293.9z"/></g><g id="Side_Basic-Boot_F" style="fill: rgb(50, 41, 32);"><path d="M646.4,2287.4c-12.3,5.4-18.8,10.9-30.1,12.8c-0.6,0.1-1.2,0.2-1.8,0.3c-0.2,3.9-0.1,7.9-0.2,11.3 c-0.4,19.7,2,103.6,5.9,103.5c3.9-0.2,15.1-2.2,18-5.3c1.9-2,2.3-6.8,2.9-9.5c2-8.3,3.8-16.7,5.1-25.2 C647.8,2364.1,646,2304.5,646.4,2287.4z"/><path d="M1154.3,2287.4c12.3,5.4,18.8,10.9,30.1,12.8c0.6,0.1,1.2,0.2,1.8,0.3c0.2,3.9,0.1,7.9,0.2,11.3 c0.4,19.7-2,103.6-5.9,103.5c-3.9-0.2-15.1-2.2-18-5.3c-1.9-2-2.3-6.8-2.9-9.5c-2-8.3-3.8-16.7-5.1-25.2 C1152.8,2364.1,1154.6,2304.5,1154.3,2287.4z"/></g></g></g><g id="Gloves_F"><g id="Left-Glove_F"><g id="Basic_Left_Glove_F_Option" class="option" style="display: inherit; fill: rgb(45, 28, 20);"><path d="M1391.6,1284.8c-4.7-0.3-9.2-0.2-13.9,1c-3.2,0.8-6.3,1.6-9.2,3.5c-8.7,5.7-6.3,18,1.4,22.7 c9,5.5,23.3,0.1,27.5-10.5C1399.1,1297.1,1393.9,1288.9,1391.6,1284.8"/><path d="M1375.7,1295.5c-4.7-0.3-9.2-0.2-13.9,1c-3.2,0.8-6.3,1.6-9.2,3.5c-8.7,5.7-6.3,18,1.4,22.7 c9,5.5,23.4,0.1,27.5-10.5C1383.2,1307.8,1377.9,1299.7,1375.7,1295.5"/><path d="M1364.3,1310.1c-4.7,0.5-10.4,1.3-14.9,3.1c-3.1,1.2-6.1,2.6-8.7,4.8c-7.9,6.9-4.1,18.8,4.1,22.3 c9.6,4.1,23.1-3.5,26-14.6C1371.9,1321.2,1364.3,1310.1,1364.3,1310.1z"/><path d="M1338.5,1144.4c0,0-13.7,21.4-17.3,36.8c-2.5,10.8-1.2,36.8-4.3,54.2c-3.2,17.4-6.1,27.1-6.1,27.1 s-12.1,27.9-10,34.3c2.1,6.4,12.7,12.1,18.8,8.7c7.6-4.2,16.9-23.8,22.9-37.7c6-14.1,11-34.1,11-34.1s8.3,3.2,12.5,7 c14.1,12.3,8,49.5,8,49.5s-5.8,13.3-14.6,28.2c-11.9,20.4-30.3,38-18.2,53.6c11.3,14.6,37-23.7,37-23.7l25.2-37.2 c0,0,29-54,30.4-64.5c1.1-8,0.1-34.7,0.1-34.7l-9.1-103.5l-45.9,4.3l-37.8,13.9L1338.5,1144.4"/></g></g><g id="Right-Glove_F"><g id="Basic_Right_Glove_F_Option" class="option" style="display: inherit; fill: rgb(45, 28, 20);"><path d="M408.7,1284.8c4.7-0.3,9.2-0.2,13.9,1c3.2,0.8,6.3,1.6,9.2,3.5c8.7,5.7,6.3,18-1.4,22.7 c-9,5.5-23.4,0.1-27.5-10.5C401.1,1297.1,406.4,1288.9,408.7,1284.8"/><path d="M424.6,1295.5c4.7-0.3,9.2-0.2,13.9,1c3.2,0.8,6.3,1.6,9.2,3.5c8.7,5.7,6.3,18-1.4,22.7 c-9,5.5-23.4,0.1-27.5-10.5C417,1307.8,422.3,1299.7,424.6,1295.5"/><path d="M436,1310.1c4.7,0.5,10.4,1.3,14.9,3.1c3.1,1.2,6.1,2.6,8.7,4.8c7.9,6.9,4.1,18.8-4.1,22.3 c-9.6,4.1-23.2-3.5-26-14.6C428.3,1321.2,436,1310.1,436,1310.1z"/><path d="M461.7,1144.4c0,0,13.7,21.4,17.2,36.8c2.5,10.8,1.2,36.8,4.3,54.2c3.2,17.4,6.1,27.1,6.1,27.1 s12.1,27.9,10,34.3c-2.1,6.4-12.7,12.1-18.8,8.7c-7.6-4.2-17-23.8-22.9-37.7c-6-14.1-11-34.1-11-34.1s-8.3,3.2-12.5,7 c-14.1,12.3-8,49.5-8,49.5s5.8,13.3,14.6,28.2c12,20.4,30.3,38,18.2,53.6c-11.3,14.6-37-23.7-37-23.7l-25.2-37.2 c0,0-28.9-54-30.4-64.5c-1.1-8-0.1-34.7-0.1-34.7l9-103.5l45.9,4.3l37.8,13.9L461.7,1144.4"/></g></g></g></g></g><g id="Biceps_Current" transform="translate(193,579)"><g id="LeftBiceps_Current"><g id="Left-Biceps_F"><g id="None_Biceps_Left_F_Option" class="option" style="display: inherit;"></g></g></g><g id="RightBiceps_Current"><g id="Right-Biceps_F"><g id="None_Biceps_Right_F_Option" class="option" style="display: inherit;"></g></g></g></g><g id="Vest_Current" transform="translate(0,528)"><path id="Vest_F" d="M967.4,899.8c-43.9,9-90.3,9-134.1,0c-44.2-9.1-131-54.4-131-54.4S626.5,606.6,613,536.9 c-10.8-55.4-14.5-147.6-14.5-147.6l-129.9,87.4l-27.7-11.8c0,0,77.7-171.7,128.8-221.5c46.3-45,177.8-77,177.8-77 s58,63.7,152.8,64.2c90.2,0.4,152.8-64.2,152.8-64.2s131.6,32,177.8,77c51.1,49.8,128.8,221.5,128.8,221.5l-27.7,11.8l-129.9-87.4 c0,0-3.7,92.2-14.5,147.6c-13.6,69.7-89.3,308.6-89.3,308.6S1011.6,890.7,967.4,899.8z" style="fill: rgb(0, 0, 0);"/></g><g id="Upper-Body_F_Wrapper" transform="translate(193,565)"><g id="Chest_Current" class="Classic_F"><g id="Abdomen_Classic_F"><path id="Abdomen-Plate_Classic_F" d="M563.1,741.2c33.5,7,95.6,10.9,143.4,10.9c47.8,0,109.9-3.9,143.4-10.9 c21.2-4.4,59.6-100.1,59.6-100.1l-55.6-38.3l-41.3-89.3l-106-26.1l-106,26.1l-41.3,89.3l-55.6,38.3 C503.5,641.1,541.8,736.8,563.1,741.2" style="fill: rgb(163, 163, 163);"/></g><g id="Iron-Heart_Classic_F"><path id="Heart_Classic_F" d="M678.2,382.7V289l28.6-21.6l28.6,21.6v93.7l-28.6,27.8L678.2,382.7z" style="fill: rgb(163, 163, 163);"/><rect id="Center_Heart_Classic_F_Option" x="696.4" y="297.6" width="20.8" height="82.7" class="option" style="display: inherit; fill: rgb(163, 163, 163);"/></g><g id="Left-Chest_Classic_F"><path id="Chest_Left_Classic_F" d="M953.3,273.6c-39.4-38.3-223.9-39.5-223.9-39.5l-2.3,21.5l30.3,27.4l-2.3,115.6 l-26.8,25v38.1l102.6,27.4l40.8,89.4l45.5,35.8c0,0,47.5-109.3,53.3-170.4C974.3,403.5,987.7,307,953.3,273.6" style="fill: rgb(163, 163, 163);"/></g><g id="Right-Chest_Classic_F"><path id="Chest_Right_Classic_F" d="M460.2,273.6c39.4-38.3,223.9-39.5,223.9-39.5l2.3,21.5L656.1,283l2.3,115.6 l26.8,25v38.1l-102.6,27.4l-40.8,89.4l-45.5,35.8c0,0-47.5-109.3-53.3-170.4C439.2,403.5,425.8,307,460.2,273.6" style="fill: rgb(163, 163, 163);"/></g><g id="Neck-Armor_Classic_F"><path id="Neck-Plate_Classic_F" d="M706.8,217.1c-72.8,0-218.5-15.6-218.5-15.6l-22.5-59.3l102.9-26.5 c0,0,13.6,19.8,23.5,26.8c10.1,7.1,23.7,15.6,36.4,20.3c13.9,5.2,30.8,8.7,46.9,10.9c18.1,2.5,44.6,2.5,62.7,0 c16.1-2.3,34.8-5.7,48.7-10.9c12.7-4.8,24.5-13.2,34.6-20.3c9.9-7,23.5-26.8,23.5-26.8l102.9,26.5l-22.5,59.3 C925.3,201.5,779.6,217.1,706.8,217.1z" style="fill: rgb(163, 163, 163);"/></g></g><g id="Collar_Current"/><g id="ChestAttachments_Current"><g id="Chest-Attachments_F"><g id="No-Device_Accessories_Chest_F_Option" class="option" style="display: inherit;"></g></g></g><g id="Gauntlets_Current"><g id="LeftGauntlets_Current"><g id="Left-Gauntlets_F"><g id="Basic_Gauntlet_Left_F_Option" class="option" style="display: inherit;"><path id="Top-2_Basic_Gauntlet_Left_F" d="M1270.3,1106.4l16.3-21.9l-25.1-198l-8.8,23l12.3,90.3l-9.5,21.4 L1270.3,1106.4z" style="fill: rgb(163, 163, 163);"/><path id="Top-1_Basic_Gauntlet_Left_F" d="M1261.4,886.5l-8.8,23l12.3,90.3l-9.5,21.4l14.8,85.3l-10.7,14.4l0.5,54.5 l-17,3l-15.8-83.3l-15-7l-51.6-244.4l95-2.1L1261.4,886.5z" style="fill: rgb(163, 163, 163);"/><g id="Accent-Bottom_Basic_Gauntlet_Left_F" style="fill: rgb(163, 163, 163);"><path d="M1119,912.4l-21.4,5.2l7.7,31.8l21.4-5.2L1119,912.4z"/><path d="M1132.3,968.2l-21.4,5.2l7.7,31.8l21.4-5.2L1132.3,968.2z"/><path d="M1146.1,1025.3l-21.4,5.2l7.7,31.8l21.4-5.2L1146.1,1025.3z"/></g><path id="Bottom_Basic_Gauntlet_Left_F" d="M1097.8,917.5l-5.8-24.3l69.6-45.6l50.7,240.3l-72.3,7.2l-21.4-90 l21.3-5.1l-7.7-31.8l-21.2,5.1l-5.7-23.9l21.3-5.2l-7.7-31.8L1097.8,917.5z M1146.1,1025.3l-21.5,5.2l7.6,31.9l21.6-5.2 L1146.1,1025.3z" style="fill: rgb(163, 163, 163);"/><g id="Missle_Attachment_Basic_Gauntlet_Left_F_Option" class="option" style="display: inherit;"><g id="Head_Missle_Attachment_Basic_Gauntlet_Left_F" style="fill: rgb(163, 163, 163);"><path d="M1304,1043.2l-25.9-44.6l39.7-6.1L1304,1043.2z"/><path d="M1292.1,1000.7c0.9-0.1,1.8,1.6,2.1,4c0.3,2.3-0.2,4.3-1,4.4c-0.9,0.1-1.8-1.6-2.1-4 C1290.8,1002.8,1291.3,1000.8,1292.1,1000.7z"/><path d="M1295,1012.9c0.7-0.1,1.5,1.3,1.7,3.2c0.2,1.8-0.1,3.4-0.8,3.5c-0.7,0.1-1.4-1.3-1.7-3.2 C1293.9,1014.6,1294.3,1013,1295,1012.9z"/><path d="M1296.8,1024.2c0.6-0.1,1.3,1.2,1.6,2.9c0.2,1.7-0.1,3.2-0.8,3.3c-0.6,0.1-1.3-1.2-1.5-2.9 C1295.8,1025.8,1296.2,1024.3,1296.8,1024.2z"/><path d="M1285.7,1001.7c0.9-0.1,1.8,1.6,2.1,4c0.3,2.3-0.2,4.3-1,4.4c-0.9,0.1-1.8-1.6-2.1-4 C1284.4,1003.8,1284.8,1001.8,1285.7,1001.7z"/><path d="M1311.4,997.7c0.9-0.1,1.8,1.6,2.1,3.9c0.3,2.3-0.2,4.3-1.1,4.4c-0.9,0.1-1.8-1.6-2.1-4 C1310.1,999.8,1310.5,997.9,1311.4,997.7z"/><path d="M1305,998.7c0.9-0.1,1.8,1.6,2.1,4c0.3,2.3-0.2,4.3-1,4.4c-0.9,0.1-1.8-1.6-2.1-4 C1303.6,1000.8,1304.1,998.8,1305,998.7z"/><path d="M1305.3,1011.3c0.7-0.1,1.4,1.3,1.7,3.2c0.2,1.8-0.1,3.5-0.8,3.5c-0.7,0.1-1.4-1.3-1.7-3.2 C1304.2,1013,1304.6,1011.4,1305.3,1011.3z"/><path d="M1306.3,1022.8c0.6-0.1,1.3,1.2,1.5,2.9c0.2,1.7-0.1,3.2-0.8,3.3c-0.6,0.1-1.3-1.2-1.6-2.9 C1305.3,1024.3,1305.6,1022.8,1306.3,1022.8z"/><path d="M1298.6,999.7c0.9-0.1,1.8,1.6,2.1,4c0.3,2.3-0.2,4.3-1,4.4c-0.9,0.1-1.8-1.6-2.1-4 C1297.2,1001.8,1297.7,999.8,1298.6,999.7z"/><path d="M1300.1,1012.1c0.7-0.1,1.4,1.3,1.7,3.2c0.2,1.9-0.2,3.5-0.8,3.6c-0.7,0.1-1.4-1.3-1.7-3.2 C1299.1,1013.8,1299.4,1012.2,1300.1,1012.1z"/><path d="M1301.6,1023.5c0.6-0.1,1.3,1.2,1.5,2.9c0.2,1.7-0.1,3.2-0.8,3.3c-0.6,0.1-1.3-1.2-1.5-2.9 C1300.6,1025,1300.9,1023.6,1301.6,1023.5z"/><path d="M1311.1,1017.3c-0.7-0.1-1.3-1.5-1.5-3.2c-0.2-1.9,0.1-3.5,0.8-3.6c0.7-0.1,1.4,1.3,1.7,3.1L1311.1,1017.3 z M1289,1017.2c-0.2-1.8,0.2-3.4,0.8-3.5c0.7-0.1,1.5,1.3,1.7,3.2c0.2,1.7-0.1,3.2-0.7,3.5L1289,1017.2z"/></g><g id="Main_Missle_Attachment_Basic_Gauntlet_Left_F" style="fill: rgb(163, 163, 163);"><path d="M1312.2,986.6l-30,4.6l0.8,6.6l30-4.6L1312.2,986.6z"/><path d="M1294.6,847.3l-30,4.6l0.8,6.6l30-4.6L1294.6,847.3z"/><path d="M1285.3,824l-17.7,2.7l0.8,6.6l17.7-2.7L1285.3,824z"/><path d="M1293.8,829.4l-32.9,5.1l2.2,17.7l32.9-5.1L1293.8,829.4z"/><path d="M1298.1,853.5l-35.4,5.5l16.8,132.7l35.4-5.5L1298.1,853.5z"/><path d="M1272.8,928.9l-5.8,0.9l3.9,31.1l5.8-0.9L1272.8,928.9z"/></g><g id="Accent_Missle_Attachment_Basic_Gauntlet_Left_F" style="fill: rgb(0, 0, 0);"><path d="M1305.1,1051.6l-5.2-11.3l7.4-1.1L1305.1,1051.6z"/><path d="M1306.2,1036.3l-5.9,0.9l-0.4,3.1l7.4-1.1L1306.2,1036.3z"/><path d="M1286.2,814.5l-21.6,3.3l1.2,9.2l21.7-3.3L1286.2,814.5z"/><path d="M1281.9,810.2l-14.4,2.2l-3,5.4l21.6-3.3L1281.9,810.2z"/><path d="M1287.5,855.1l-6,0.9l16.8,132.7l6-0.9L1287.5,855.1z"/><path d="M1279.3,856.4l-6,0.9l16.8,132.7l6-0.9L1279.3,856.4z"/><path d="M1301,856.5l-2.8-3l16.8,132.7l2-3.8L1301,856.5z"/><path d="M1295.7,853.8l-6,0.9l16.8,132.7l6-0.9L1295.7,853.8z"/><path d="M1271.2,857.6l-3.7,0.6l16.8,132.7l3.7-0.6L1271.2,857.6z"/></g><path id="Base_Missle_Attachment_Basic_Gauntlet_Left_F" d="M1266.9,848.2l-10.6-2.7l19.1,151.1l9.5-5.8 L1266.9,848.2z M1272.8,928.9l-5.8,0.9l3.9,31.1l5.8-0.9L1272.8,928.9z" style="fill: rgb(163, 163, 163);"/></g></g></g></g><g id="RightGauntlets_Current"><g id="Right-Gauntlets_F"><g id="Gunslinger_Gauntlet_Right_F_Option" class="option" style="display: inherit;"><g id="Accent-Top_Gunslinger_Gauntlet_Right_F" style="fill: rgb(163, 163, 163);"><path d="M177.3,805.2l-1.6,60.3l30.8,5.9l2.3-57.2L177.3,805.2z"/><path d="M209.8,1025.3l-3.5,31l27,3.5l3.8-30.9L209.8,1025.3z"/></g><path id="Top_Gunslinger_Gauntlet_Right_F" d="M177.3,805.2l-14.1-4l-1.2,281.8l67.4,8.6l5.4-44.1l-1.5,12.5l-27-3.5 l3.5-31l27.3,3.6l24.5-199.6L177.3,805.2l31.5,9l-2.3,57.2l-30.8-5.9L177.3,805.2z" style="fill: rgb(163, 163, 163);"/><g id="Accent-Bottom_Gunslinger_Gauntlet_Right_F" style="fill: rgb(163, 163, 163);"><path d="M307.2,916.7l5.8-25.1l17.6,4.1l-5.8,25.1L307.2,916.7z"/><path d="M300.5,945.2l5.8-25.1l17.6,4.1l-5.8,25.1L300.5,945.2z"/><path d="M237.1,1028.9l60.3,7.9l-7.1,30.5l-57-7.4L237.1,1028.9z"/></g><path id="Bottom_Gunslinger_Gauntlet_Right_F" d="M233.9,1055.4l3.3-26.4l60.3,7.9l-7.1,30.5l-57-7.4l-3.9,31.7 c0,0,21.1,1.9,36.9,3.4c9.9,0.9,18.9-5.6,21.2-15.3C300,1026.8,337.2,868,337.2,868l-76.1-34.6L233.9,1055.4z M300.5,945.2 l5.8-25.1l17.6,4.1l-5.8,25.1L300.5,945.2z M307.2,916.7l5.8-25.1l17.6,4.1l-5.8,25.1L307.2,916.7z" style="fill: rgb(163, 163, 163);"/><g id="Flamethrower_Attachment_Gunslinger_Gauntlet_Right_F_Option" class="option" style="display: inherit;"><g id="Tubes_Flamethrower_Attachment_Gunslinger_Gauntlet_Right_F" style="fill: rgb(163, 163, 163);"><path d="M148,818.8l8.8,0l-0.2,269.3l-8.8,0L148,818.8z"/><path d="M127.8,818.8l8.8,0l-0.2,193.1l-8.8,0L127.8,818.8z"/><path d="M146.4,835.7l12.2,0l-0.1,64.1l-12.2,0L146.4,835.7z"/><path d="M126.1,835.7l12.2,0l0,64.1l-12.2,0L126.1,835.7z"/></g><g id="Main_Flamethrower_Attachment_Gunslinger_Gauntlet_Right_F" style="fill: rgb(163, 163, 163);"><path d="M124,818.8l36.3,0l0,16.9l-36.3,0L124,818.8z"/><path d="M123.1,899.9l38,0l0,10.3l-38,0L123.1,899.9z"/><path d="M124.7,910.1l34.8,0l0,5.2l-34.8,0L124.7,910.1z"/><path d="M157.3,893.5l5.9,0.2L163,925l-5.9-0.2L157.3,893.5z"/></g><g id="Accent_Flamethrower_Attachment_Gunslinger_Gauntlet_Right_F" style="fill: rgb(163, 163, 163);"><path d="M127.3,1011.9l9.5,0l1.5,13.2l-12.4,0L127.3,1011.9z"/><path d="M123.7,943.3l16.8,0l0,20.4l-16.8,0L123.7,943.3z"/><path d="M126,963.7l12.2,0l0,20.4l-12.2,0L126,963.7z"/><path d="M146.2,1054.1l12.2,0l0,28l-12.2,0L146.2,1054.1z"/><path d="M146.3,963.8l12.2,0l0,38.1l-12.2,0L146.3,963.8z"/><path d="M143.9,1068.1l16.8,0l0,5.4l-16.8,0L143.9,1068.1z"/></g><path id="Base_Flamethrower_Attachment_Gunslinger_Gauntlet_Right_F" d="M163.1,893.7l0.2-85l-10.1,4l-0.4,143.7 l10.1,4.6L163,925l-5.9-0.2l0.1-31.3L163.1,893.7z" style="fill: rgb(163, 163, 163);"/></g></g></g></g></g></g><g id="Lower-Body_F_Wrapper" transform="translate(268,1285)"><g id="Knees_Current"><g id="LeftKnee_Current"><g id="Left-Knee_F"><g id="Basic_Knee_Left_F_Option" class="option" style="display: inherit;"><g id="Missiles_Basic-Knee_Left_F_ToggleOff" class="toggle" style=""><path id="Base_Missiles_Basic-Knee_Left_F" d="M986.1,893.2c0.1,0.4,0.2,0.9,0.2,1.3c2.1,20.6,5.7,64.5,4.2,102.3 l24.4-14.7c4-2.4,6.3-6.7,6.2-11.3c-0.3-14.1-1-44.6-1.3-60.7c-0.1-6.1-4.5-11.2-10.4-12.4L986.1,893.2z" style="fill: rgb(163, 163, 163);"/><g id="Missile-2_Missiles_Basic-Knee_Left_F" style="fill: rgb(163, 163, 163);"><path d="M1003.3,952.4c-6,0.7-10.3,6.2-9.5,12.2c0.8,6,6.3,10.3,12.3,9.6c6-0.7,10.3-6.2,9.5-12.2 C1014.9,956,1009.4,951.7,1003.3,952.4z"/><path d="M1003.9,956c-4.1,0.5-6.9,4.2-6.4,8.2c0.5,4.1,4.2,7,8.3,6.5s6.9-4.2,6.4-8.2 C1011.7,958.4,1007.9,955.5,1003.9,956z"/></g><g id="Missile-1_Missiles_Basic-Knee_Left_F" style="fill: rgb(163, 163, 163);"><path d="M1001.9,904.6c-6,0.7-10.3,6.2-9.5,12.2c0.8,6,6.3,10.3,12.3,9.6c6-0.7,10.3-6.2,9.5-12.2 C1013.5,908.2,1008,903.9,1001.9,904.6z"/><path d="M1002.5,908.2c-4.1,0.5-6.9,4.2-6.4,8.2c0.5,4.1,4.2,7,8.3,6.5c4.1-0.5,6.9-4.2,6.4-8.2 C1010.3,910.6,1006.5,907.7,1002.5,908.2z"/></g></g><g id="Knee_Basic-Knee_Left_F" style="fill: rgb(163, 163, 163);"><path d="M759.1,915.8l15.2-2.5c0,0,11.5,73.9,16.6,106.6c1.3,8.4-4.4,16.3-12.8,17.7c0,0,0,0,0,0L759.1,915.8z"/><path d="M773.8,910.3l8.7,54.8c11.1-6.3,39.2,5.3,48.4,38.2c16.8,60.4,31.5,74.3,84.2,68.8 c41-4.2,70.3-23.5,73.7-51.9c4.9-41.1,0-100.6-2.5-125.7c-0.3-3.1-1.9-6-4.4-7.9c-2.5-1.9-5.6-2.8-8.7-2.4 C928.8,890,773.8,910.3,773.8,910.3z"/><path d="M768.6,911.1l5.2-0.8l9.7,59.3l-5.2,0.8L768.6,911.1z"/></g></g></g></g><g id="RightKnee_Current"><g id="Right-Knee_F"><g id="Basic_Knee_Right_F_Option" class="option" style="display: inherit;"><g id="Missiles_Basic-Knee_Right_F_ToggleOff" class="toggle" style=""><path id="Base_Missiles_Basic-Knee_Right_F" d="M278.9,893.2c-0.1,0.4-0.2,0.9-0.2,1.3 c-2.1,20.6-5.7,64.5-4.2,102.3L250,982.2c-4-2.4-6.3-6.7-6.2-11.3c0.3-14.1,1-44.6,1.3-60.7c0.1-6.1,4.5-11.2,10.4-12.4 L278.9,893.2z" style="fill: rgb(163, 163, 163);"/><g id="Missile-2_Missiles_Basic-Knee_Right_F" style="fill: rgb(163, 163, 163);"><path d="M261.7,952.4c6,0.7,10.3,6.2,9.5,12.2c-0.8,6-6.3,10.3-12.3,9.6c-6-0.7-10.3-6.2-9.5-12.2 C250.1,956,255.6,951.7,261.7,952.4z"/><path d="M261.1,956c4.1,0.5,6.9,4.2,6.4,8.2c-0.5,4.1-4.2,7-8.3,6.5c-4.1-0.5-6.9-4.2-6.4-8.2 C253.4,958.4,257.1,955.5,261.1,956z"/></g><g id="Missile-1_Missiles_Basic-Knee_Right_F" style="fill: rgb(163, 163, 163);"><path d="M263.1,904.6c6,0.7,10.3,6.2,9.5,12.2c-0.8,6-6.3,10.3-12.3,9.6c-6-0.7-10.3-6.2-9.5-12.2 C251.5,908.2,257,903.9,263.1,904.6z"/><path d="M262.5,908.2c4.1,0.5,6.9,4.2,6.4,8.2c-0.5,4.1-4.2,7-8.3,6.5c-4.1-0.5-6.9-4.2-6.4-8.2 C254.7,910.6,258.5,907.7,262.5,908.2z"/></g></g><g id="Knee_Basic-Knee_Right_F" style="fill: rgb(163, 163, 163);"><path d="M505.9,915.8l-15.2-2.5c0,0-11.5,73.9-16.6,106.6c-1.3,8.4,4.4,16.3,12.8,17.7c0,0,0,0,0,0L505.9,915.8z"/><path d="M491.2,910.3l-8.7,54.8c-11.1-6.3-39.2,5.3-48.4,38.2c-16.8,60.4-31.5,74.3-84.2,68.8 c-41-4.2-70.3-23.5-73.7-51.9c-4.9-41.1,0-100.6,2.5-125.7c0.3-3.1,1.9-6,4.4-7.9c2.5-1.9,5.6-2.8,8.7-2.4 C336.2,890,491.2,910.3,491.2,910.3z"/><path d="M496.4,911.1l-5.2-0.8l-9.7,59.3l5.2,0.8L496.4,911.1z"/></g></g></g></g></g><g id="Shins_Current"><g id="LeftShin_Current"><g id="Left-Shin_F"><g id="Basic_Shin_Left_F_Option" class="option" style="display: inherit;"><path id="Shin_Basic-Shin_Left_F" d="M1024.2,1149.2l-48.3-63l-107.5,4.8l-47.1,89.1l44.8,315.1 c45.4,23.6,114.2,19.6,153.9-10.7L1024.2,1149.2" style="fill: rgb(163, 163, 163);"/></g></g></g><g id="RightShin_Current"><g id="Right-Shin_F"><g id="Basic_Shin_Right_F_Option" class="option" style="display: inherit;"><path id="Shin_Basic-Shin_Right_F" d="M241.3,1149.2l48.3-63l107.5,4.8l47.1,89.1l-44.8,315.1 c-45.4,23.6-114.2,19.6-153.8-10.7L241.3,1149.2" style="fill: rgb(163, 163, 163);"/></g></g></g></g><g id="Ankles_Current"><g id="LeftAnkle_Current"><g id="Left-Ankle_F"><g id="Basic_Ankle_Left_F_Option" class="option" style="display: inherit;"><path id="Main_Basic-Ankle_Left_F" d="M1097.1,1637.4l-69.5-122.5c-40.7-2.1-78.9,4.5-114.3,20.9 c-4.1,1.9-7.2,5.5-8.6,9.8c-0.3,0.9-0.6,1.8-0.9,2.8c-5,15.9-0.4,33.2,11.8,44.6c21.7,20.2,56.3,50.1,77.8,57.5 C1045,1668.3,1097.1,1637.4,1097.1,1637.4" style="fill: rgb(163, 163, 163);"/></g></g></g><g id="RightAnkle_Current"><g id="Right-Ankle_F"><g id="Basic_Ankle_Right_F_Option" class="option" style="display: inherit;"><path id="Main_Basic-Ankle_Right_F" d="M168.5,1637.4l69.5-122.5c40.7-2.1,78.9,4.5,114.3,20.9 c4.1,1.9,7.2,5.5,8.6,9.8c0.3,0.9,0.6,1.8,0.9,2.8c5,15.9,0.4,33.2-11.8,44.6c-21.7,20.2-56.3,50.1-77.8,57.5 C220.6,1668.3,168.5,1637.4,168.5,1637.4" style="fill: rgb(163, 163, 163);"/></g></g></g></g><g id="Toes_Current"><g id="LeftToe_Current"><g id="Left-Toe_F"><g id="None_Toe_Left_F_Option" class="option" style="display: inherit;"></g></g></g><g id="RightToe_Current"><g id="Right-Toe_F"><g id="None_Toe_Right_F_Option" class="option" style="display: inherit;"></g></g></g></g><g id="Thighs_Current"><g id="LeftThigh_Current"><g id="Left-Thigh_F"><g id="Basic_Thigh_Left_F_Option" class="option" style="display: inherit;"><path id="Thigh_Basic-Thigh_Left_F" d="M986.2,457.9c0,0-53.3-68.5-80.5-79.9c-25.8-10.8-60.3-6.1-82.5,11.6 c-33.8,27.1-111.4,85.7-120.2,151c-9.8,72.9,43.2,234.1,61.3,286.1c6.1,17.7,29.3,25.7,47,26.4c32.8,1.2,122.6-1.6,144.1-50 C984.5,737.3,986.2,457.9,986.2,457.9" style="fill: rgb(163, 163, 163);"/></g></g></g><g id="RightThigh_Current"><g id="Right-Thigh_F"><g id="Basic_Thigh_Right_F_Option" class="option" style="display: inherit;"><path id="Thigh_Basic-Thigh_Right_F" d="M278.8,457.9c0,0,53.3-68.5,80.5-79.9c25.8-10.8,60.3-6.1,82.5,11.6 c33.8,27.1,111.4,85.7,120.2,151c9.8,72.9-43.2,234.1-61.3,286.1c-6.1,17.7-29.3,25.7-47,26.4c-32.8,1.2-122.6-1.6-144.1-50 C280.5,737.3,278.8,457.9,278.8,457.9" style="fill: rgb(163, 163, 163);"/></g></g></g></g><g id="Groin_Current"><g id="Groin_F"><g id="Basic_Groin_F_Option" class="option" style="display: inherit;"><path id="Groin-Plate_Basic_F" d="M566.9,360L456.1,137.4h354.3L699.6,360c0,0-44.2,53-66.4,53 C611.1,413.1,566.9,360,566.9,360z" style="fill: rgb(163, 163, 163);"/></g></g></g><g id="Waist_Current" class="F"><g id="Accessories_Waist_F"><g id="Left-Holster_F_ToggleOff" class="toggle" style=""><g id="Hanging-Holster_Left_F_Option" class="option" style="display: inherit;"><g id="Weapon_Hanging-Holster-Left_F"><g id="Main_Weapon_Hanging-Holster-Left_F" style="fill: rgb(182, 182, 182);"><path d="M973.4,472.1l1.8-38.4l6.6,0.3l1.1-24.1l-6.6-0.3l0.6-12.6c0.2-4.1,5.8-7.1,12.5-6.8 c15.4,0.7,41.7,1.9,57,2.6c6.7,0.3,12,3.9,11.8,7.9l-0.6,12.6l-6.6-0.3l-1.1,24.1l6.6,0.3l-1.8,38.4l-15.5-0.7l-4.9,106.2 L984,579l4.9-106.2L973.4,472.1z"/><path d="M1048.3,469.9l-8.9-0.4l-5.9,127.7l-50.2-2.3l5.9-127.7l-8.9-0.4l1.3-29.1l68.1,3.1L1048.3,469.9z"/><path d="M1037.6,400.8l-40.3-1.9l-1.8,39.4l40.3,1.9L1037.6,400.8z"/><path d="M1000.2,479.2l-6.6-0.3L989,579.3l6.6,0.3L1000.2,479.2z"/><path d="M1018.2,457.1l-6.6-0.3l-4.6,100.4l6.6,0.3L1018.2,457.1z"/><path d="M1033.9,480.8l-6.6-0.3l-4.6,100.4l6.6,0.3L1033.9,480.8z"/></g><g id="Accent_Weapon_Hanging-Holster-Left_F" style="fill: rgb(182, 182, 182);"><path d="M1001.3,442.6l-0.2,4l28.4,1.3l0.2-4L1001.3,442.6z"/><path d="M1001.1,446.6l-0.2,4l28.4,1.3l0.2-4L1001.1,446.6z"/><path d="M1001.5,438.6l-0.2,4l28.4,1.3l0.2-4L1001.5,438.6z"/><path d="M1003.7,389.1l-0.2,4l28.4,1.3l0.2-4L1003.7,389.1z"/><path d="M1003.9,399.2l-6.6-0.3l-1.8,39.4l6.6,0.3L1003.9,399.2z"/><path d="M1037.6,400.8l-6.6-0.3l-1.8,39.4l6.6,0.3L1037.6,400.8z"/><path d="M1027.3,480.5l-10-0.5l-4.6,100.4l10,0.5L1027.3,480.5z"/><path d="M1010.3,479.7l-10-0.5l-4.6,100.4l10,0.5L1010.3,479.7z"/></g></g><path id="Holster_Hanging-Holster-Left_F" d="M973.8,620.1l-8.1-161.7l74.7,121.7l-16.5,220 c-17.4,18.3-34.6,18.4-51.4-2L973.8,620.1z" style="fill: rgb(81, 50, 35);"/><g id="Straps_Hanging-Holster-Left_F" style="fill: rgb(81, 50, 35);"><path d="M688,197.5C769.8,314.7,852,414,965.7,458.4l1.4,27.7c-141.4-59.6-217.2-160.6-300.8-288.6H688z"/><path d="M973.4,652.9c-76.4,58.5-159,90.4-258,95.7l7,21.9c85.6-7.8,165.5-39.5,251-94.5V652.9z"/><path d="M973.4,676.1l0.2-23.1c19.9,8.8,43,9.5,61.2,3l-1.8,23.6C1013.4,684.6,991.1,684.9,973.4,676.1z"/></g><g id="Buckle_Hanging-Holster-Left_F" style="fill: rgb(182, 182, 182);"><path d="M794.7,747.5l-10.7,1.6l0.5,3.5l10.7-1.6L794.7,747.5"/><path d="M765.5,315.9l-7.4-9.8l-2.8,2.1l7.4,9.8L765.5,315.9"/><path d="M762.6,318.1l-12.1,9.8l-28.6-35.3l27.6-22.3l28.6,35.3l-12.6,10.2l-6.1-8.1l6.2-5l-15.8-19.5l-15.2,12.3 l15.8,19.5l6.2-5.1L762.6,318.1"/><path d="M794.3,747.6l-8.5,1.3l-1.2-8.3l-20.6,4.4l2.9,19.3l20.6-4.4l-1.1-7.5l8.5-1.3l2.2,14.8l-37.3,8l-5.2-35 l37.3-8L794.3,747.6"/></g></g></g><g id="Right-Holster_F_ToggleOff" class="toggle" style=""><g id="Hanging-Holster_Right_F_Option" class="option" style="display: inherit;"><g id="Weapon_Hanging-Holster-Right_F"><g id="Main_Weapon_Hanging-Holster-Right_F" style="fill: rgb(182, 182, 182);"><path d="M291.4,472.1l-1.8-38.4l-6.6,0.3l-1.1-24.1l6.6-0.3L288,397c-0.2-4.1-5.8-7.1-12.5-6.8 c-15.4,0.7-41.6,1.9-57,2.6c-6.7,0.3-12,3.9-11.8,7.9l0.6,12.6l6.6-0.3l1.1,24.1l-6.6,0.3l1.8,38.4l15.5-0.7l4.9,106.2 l50.2-2.3l-4.9-106.2L291.4,472.1z"/><path d="M216.5,469.9l8.9-0.4l5.9,127.7l50.2-2.3l-5.9-127.7l8.9-0.4l-1.3-29.1l-68.1,3.1L216.5,469.9z"/><path d="M227.2,400.8l40.3-1.9l1.8,39.4l-40.3,1.9L227.2,400.8z"/><path d="M264.6,479.2l6.6-0.3l4.6,100.4l-6.6,0.3L264.6,479.2z"/><path d="M246.7,457.1l6.6-0.3l4.6,100.4l-6.6,0.3L246.7,457.1z"/><path d="M230.9,480.8l6.6-0.3l4.6,100.4l-6.6,0.3L230.9,480.8z"/></g><g id="Accent_Weapon_Hanging-Holster-Right_F" style="fill: rgb(182, 182, 182);"><path d="M263.6,442.6l0.2,4l-28.4,1.3l-0.2-4L263.6,442.6z"/><path d="M263.8,446.6l0.2,4l-28.4,1.3l-0.2-4L263.8,446.6z"/><path d="M263.4,438.6l0.2,4l-28.4,1.3l-0.2-4L263.4,438.6z"/><path d="M261.1,389.1l0.2,4l-28.4,1.3l-0.2-4L261.1,389.1z"/><path d="M260.9,399.2l6.6-0.3l1.8,39.4l-6.6,0.3L260.9,399.2z"/><path d="M227.2,400.8l6.6-0.3l1.8,39.4l-6.6,0.3L227.2,400.8z"/><path d="M237.5,480.5l10-0.5l4.6,100.4l-10,0.5L237.5,480.5z"/><path d="M254.5,479.7l10-0.5l4.6,100.4l-10,0.5L254.5,479.7z"/></g></g><path id="Holster_Hanging-Holster-Right_F" d="M291,620.1l8.1-161.7l-74.7,121.7l16.5,220 c17.4,18.3,34.6,18.4,51.4-2L291,620.1z" style="fill: rgb(81, 50, 35);"/><g id="Straps_Hanging-Holster-Right_F" style="fill: rgb(81, 50, 35);"><path d="M576.8,197.5c-81.7,117.2-164,216.5-277.7,260.9l-1.4,27.7c141.4-59.6,217.2-160.6,300.8-288.6H576.8z"/><path d="M291.5,652.9c76.4,58.5,159,90.4,258,95.7l-7,21.9c-85.6-7.8-165.5-39.5-251-94.5V652.9z"/><path d="M291.5,676.1l-0.2-23.1c-19.9,8.8-43,9.5-61.2,3l1.8,23.6C251.5,684.6,273.7,684.9,291.5,676.1z"/></g><g id="Buckle_Hanging-Holster-Right_F" style="fill: rgb(182, 182, 182);"><path d="M470.2,747.5l10.7,1.6l-0.5,3.5l-10.7-1.6L470.2,747.5"/><path d="M499.4,315.9l7.4-9.8l2.8,2.1l-7.4,9.8L499.4,315.9"/><path d="M502.2,318.1l12.1,9.8l28.6-35.3l-27.6-22.3l-28.6,35.3l12.6,10.2l6.1-8.1l-6.2-5l15.8-19.5l15.2,12.3 L514.6,315l-6.2-5.1L502.2,318.1"/><path d="M470.5,747.6l8.5,1.3l1.2-8.3l20.6,4.4l-2.9,19.3l-20.6-4.4l1.1-7.5l-8.5-1.3l-2.2,14.8l37.3,8l5.2-35 l-37.3-8L470.5,747.6"/></g></g></g></g><g id="Under-Belt_F"><g id="Girth-Belt_F_Option" class="option" style="display: inherit; fill: rgb(45, 28, 20);"><path d="M632.9,72.8c-75.2,0-225.5-19.1-225.5-19.1l4.9-16.2c0,0,146.6,12.7,220.6,19.1 c73.6-6.4,220.6-19.1,220.6-19.1l4.9,16.2C858.4,53.7,708.1,72.8,632.9,72.8z"/><path d="M632.9,89c-76.7,0-230.2-19.1-230.2-19.1l4.7-16.2c0,0,187.9,16,225.5,19.1c37.6-3.2,225.5-19.1,225.5-19.1 l4.7,16.2C863.1,69.9,709.6,89,632.9,89z"/><path d="M632.9,105.2c-77.9,0-233.7-19.1-233.7-19.1l3.5-16.2c0,0,191.8,15.9,230.2,19.1 c38.4-3.2,230.2-19.1,230.2-19.1l3.5,16.2C866.6,86.1,710.8,105.2,632.9,105.2z"/><path d="M632.9,121.4c-78.9,0-236.6-19.1-236.6-19.1l2.9-16.2c0,0,194.7,16,233.7,19.1 c38.9-3.2,233.7-19.1,233.7-19.1l2.9,16.2C869.5,102.3,711.8,121.4,632.9,121.4z"/><path d="M632.9,137.7c-79.8,0-239.3-19.1-239.3-19.1l2.7-16.2c0,0,197.2,15.9,236.6,19.1 c39.4-3.2,236.6-19.1,236.6-19.1l2.7,16.2C872.2,118.5,712.7,137.7,632.9,137.7z"/><path d="M632.9,153.9c-80.6,0-241.8-19.1-241.8-19.1l2.5-16.2c0,0,199.4,15.9,239.3,19.1 c39.9-3.2,239.3-19.1,239.3-19.1l2.5,16.2C874.7,134.7,713.5,153.9,632.9,153.9z"/><path d="M632.9,170.1c-81.4,0-244.3-19.1-244.3-19.1l2.5-16.2c0,0,201.5,15.9,241.8,19.1 c40.3-3.2,241.8-19.1,241.8-19.1l2.5,16.2C877.2,150.9,714.3,170.1,632.9,170.1z"/><path d="M632.9,186.3c-82.3,0-246.8-19.1-246.8-19.1l2.5-16.2c0,0,203.6,15.9,244.3,19.1 c40.7-3.2,244.3-19.1,244.3-19.1l2.5,16.2C879.7,167.2,715.2,186.3,632.9,186.3z"/><path d="M632.9,202.5c-83.2,0-249.6-19.1-249.6-19.1l2.8-16.2c0,0,205.7,15.9,246.8,19.1 c41.1-3.2,246.8-19.1,246.8-19.1l2.8,16.2C882.5,183.4,716.1,202.5,632.9,202.5z"/><path d="M632.9,218.7c-84.3,0-252.8-19.1-252.8-19.1l3.2-16.2c0,0,208,16,249.6,19.1c41.6-3.2,249.6-19.1,249.6-19.1 l3.2,16.2C885.7,199.6,717.2,218.7,632.9,218.7z"/></g></g><g id="Belt_F"><g id="Pouch-Belt-Full_F_Option" class="option" style="display: inherit;"><path id="Main_Pouch-Belt-Full_F" d="M881.3,151.2c-55.9,5-183.5,23.3-247.9,23.3c-65.1,0-192.7-18.4-247.8-23.2 l8.2-65.4c45.3,4,176.6,22.6,239.6,22.6c61.2,0,189.7-18.4,238.1-22.8L881.3,151.2z" style="fill: rgb(81, 50, 35);"/><g id="Pouches_Pouch-Belt-Full_F" style="fill: rgb(81, 50, 35);"><g><g><g><path d="M518.7,85.7c-3-0.2-6.1,0.3-8.9,1.4c-6,2.4-16.2,6.4-16.2,6.4l66.2,3.8l17.9-7.7 C577.6,89.5,533.3,86.6,518.7,85.7z"/><path d="M579.8,92.7c0.1-0.9-0.3-1.8-1-2.3c-0.7-0.5-1.7-0.6-2.5-0.3c-6,2.6-16.6,7.1-16.6,7.1l-8.6,102.3 c5.4-3.1,10.8-5.3,16.2-6.6c4.2-1,7.2-4.7,7.3-9C575.6,153.5,576.8,123.1,579.8,92.7z"/><path d="M559.7,97.3l-66.2-3.8c-0.4,15.6-1.9,31-2.7,46.6c-0.8,16.7-1.2,33.5-2.7,50.3c-0.1,1.6,0.4,3.2,1.5,4.4 c1.1,1.2,2.6,1.9,4.3,1.9c18.1,0,36.1,1.1,54,3.1c1.5,0.2,3.1-0.3,4.2-1.3c1.2-1,1.9-2.4,2-3.9c0.9-12.9,3-42.6,3-42.6 L559.7,97.3z"/><path d="M559.7,97.3l-66.2-3.8c0,0-1,8.7-2.3,18.8c-1,8,1.4,16.1,6.6,22.3c5.2,6.2,12.7,10,20.8,10.4 c3.4,0.2,6.8,0.4,10.2,0.6c8.1,0.5,16-2.4,21.9-8c5.9-5.6,9.2-13.4,9.1-21.5C559.7,106,559.7,97.3,559.7,97.3z"/><path d="M524.5,133.2c2.3,0.1,4.1,2.2,4,4.5c-0.1,2.4-2.2,4.1-4.5,4c-2.3-0.1-4.1-2.2-4-4.5 C520.1,134.8,522.1,133,524.5,133.2z"/></g></g><g><g><path d="M427.4,73.2c-3.3-0.2-6.6,0.4-9.6,1.7c-5.6,2.4-14.2,6.2-14.2,6.2l60.4,3.5l16.4-7.8 C480.4,76.7,441.5,74.2,427.4,73.2z"/><path d="M482.4,80.1c0.1-0.9-0.3-1.8-1.1-2.4c-0.8-0.5-1.7-0.6-2.6-0.2c-5.5,2.6-14.7,7-14.7,7l-8.4,102.3 c4.9-3.1,9.7-5.2,14.5-6.6c4-1.1,6.9-4.7,7-8.9C478.2,140.9,479.5,110.4,482.4,80.1z"/><path d="M464,84.5l-60.4-3.5c-0.5,15.6-1.9,31-2.7,46.6c-0.9,16.7-1.3,33.4-2.7,50.3c-0.1,1.6,0.4,3.2,1.5,4.4 c1.1,1.2,2.6,1.9,4.3,1.8c16.1-0.1,32.2,0.9,48.2,2.8c1.5,0.2,3.1-0.3,4.3-1.2c1.2-1,1.9-2.4,2-3.9c0.9-13,2.9-42.6,2.9-42.6 L464,84.5z"/><path d="M464,84.5l-60.4-3.5c0,0-1,8.8-2.2,19c-0.9,8,1.5,16,6.7,22.2c5.2,6.2,12.7,9.9,20.7,10.4 c1.4,0.1,2.8,0.2,4.2,0.2c8.1,0.5,16-2.4,21.8-8c5.9-5.5,9.2-13.3,9.2-21.3C464,93.3,464,84.5,464,84.5z"/><path d="M431.7,120.6c2.1,0.1,3.8,2.1,3.6,4.5c-0.1,2.3-2,4.2-4.1,4c-2.1-0.1-3.8-2.1-3.6-4.5 C427.7,122.3,429.5,120.5,431.7,120.6z"/></g></g><g><path d="M365.4,79.9l4.5-7l23.2,0.8l2.9,8.7L365.4,79.9z"/><path d="M395.7,83.8c0.1-0.7-0.1-1.4-0.6-2c-0.5-0.5-1.1-0.9-1.9-0.9c-7.5-0.3-27.9-1.1-27.9-1.1l-4.1,92 c0.8,2.1,10.7,3.5,19.5,3.9c2.6,0.1,5.1-0.8,7-2.6c1.9-1.8,3-4.2,3.1-6.8C391.5,138.9,392.6,111.3,395.7,83.8z"/></g></g><g><g><g><path d="M748.2,85.7c3-0.2,6.1,0.3,8.9,1.4c6,2.4,16.2,6.4,16.2,6.4l-66.2,3.8l-17.9-7.7 C689.3,89.5,733.5,86.6,748.2,85.7z"/><path d="M687,92.7c-0.1-0.9,0.3-1.8,1-2.3s1.7-0.6,2.5-0.3c6,2.6,16.6,7.1,16.6,7.1l8.6,102.3 c-5.4-3.1-10.8-5.3-16.2-6.6c-4.2-1-7.2-4.7-7.3-9C691.3,153.5,690.1,123.1,687,92.7z"/><path d="M707.2,97.3l66.2-3.8c0.4,15.6,1.9,31,2.7,46.6c0.8,16.7,1.2,33.5,2.7,50.3c0.1,1.6-0.4,3.2-1.5,4.4 c-1.1,1.2-2.6,1.9-4.3,1.9c-18.1,0-36.1,1.1-54,3.1c-1.5,0.2-3.1-0.3-4.2-1.3c-1.2-1-1.9-2.4-2-3.9c-0.9-12.9-3-42.6-3-42.6 L707.2,97.3z"/><path d="M707.2,97.3l66.2-3.8c0,0,1,8.7,2.3,18.8c1,8-1.4,16.1-6.6,22.3c-5.2,6.2-12.7,10-20.8,10.4 c-3.4,0.2-6.8,0.4-10.2,0.6c-8.1,0.5-16-2.4-21.9-8c-5.9-5.6-9.2-13.4-9.1-21.5C707.1,106,707.2,97.3,707.2,97.3z"/><path d="M742.4,133.2c-2.3,0.1-4.1,2.2-4,4.5c0.1,2.4,2.2,4.1,4.5,4c2.3-0.1,4.1-2.2,4-4.5 C746.7,134.8,744.7,133,742.4,133.2z"/></g></g><g><g><path d="M839.4,73.2c3.3-0.2,6.6,0.4,9.7,1.7c5.6,2.4,14.2,6.2,14.2,6.2l-60.4,3.5l-16.4-7.8 C786.5,76.7,825.3,74.2,839.4,73.2z"/><path d="M784.4,80.1c-0.1-0.9,0.3-1.8,1.1-2.4c0.8-0.5,1.7-0.6,2.6-0.2c5.5,2.6,14.7,7,14.7,7l8.4,102.3 c-4.9-3.1-9.7-5.2-14.5-6.6c-4-1.1-6.9-4.7-7-8.9C788.6,140.9,787.4,110.4,784.4,80.1z"/><path d="M802.9,84.5l60.4-3.5c0.5,15.6,1.9,31,2.7,46.6c0.9,16.7,1.3,33.4,2.7,50.3c0.1,1.6-0.4,3.2-1.5,4.4 c-1.1,1.2-2.6,1.9-4.3,1.8c-16.1-0.1-32.2,0.9-48.2,2.8c-1.5,0.2-3.1-0.3-4.3-1.2c-1.2-1-1.9-2.4-2-3.9 c-0.9-13-2.9-42.6-2.9-42.6L802.9,84.5z"/><path d="M802.9,84.5l60.4-3.5c0,0,1,8.8,2.2,19c0.9,8-1.5,16-6.7,22.2c-5.2,6.2-12.7,9.9-20.7,10.4 c-1.4,0.1-2.8,0.2-4.2,0.2c-8.1,0.5-16-2.4-21.8-8c-5.9-5.5-9.2-13.3-9.2-21.3C802.8,93.3,802.9,84.5,802.9,84.5z"/><path d="M835.2,120.6c-2.1,0.1-3.8,2.1-3.6,4.5c0.1,2.3,2,4.2,4.1,4c2.1-0.1,3.8-2.1,3.6-4.5 C839.2,122.3,837.3,120.5,835.2,120.6z"/></g></g><g><path d="M901.5,79.9l-4.5-7l-23.2,0.8l-2.9,8.7L901.5,79.9z"/><path d="M871.1,83.8c-0.1-0.7,0.1-1.4,0.6-2c0.5-0.5,1.1-0.9,1.9-0.9c7.5-0.3,27.9-1.1,27.9-1.1l4.1,92 c-0.8,2.1-10.7,3.5-19.5,3.9c-2.6,0.1-5.1-0.8-7-2.6c-1.9-1.8-3-4.2-3.1-6.8C875.3,138.9,874.3,111.3,871.1,83.8z"/></g></g><path d="M663,91.2l9.1,8.9l-74.9-1.4l5.8-8.2L663,91.2z"/><path d="M597.1,98.7l74.7,1.4c-0.8,16.2-0.5,32.4-0.9,48.6c-0.5,17.5-1.4,35-1.2,52.7c0,1.6-0.6,3.2-1.8,4.3 c-1.2,1.1-2.8,1.7-4.4,1.5c-20.8-1.5-41.7-1.9-62.5-1.2c-1.5,0.1-3-0.5-4.1-1.6c-1.1-1.1-1.7-2.5-1.7-4.1 c0.1-13.4,0.3-44.8,0.3-44.8L597.1,98.7z"/><path d="M597.1,98.7l74.7,1.4c0,0,0.5,9.8,1,20.9c0.4,8.1-2.6,16-8.3,21.8c-5.7,5.8-13.5,9-21.6,8.9 c-6.3-0.1-12.8-0.2-19.1-0.4c-8.1-0.2-15.8-3.7-21.3-9.7c-5.4-6.1-8.1-14.1-7.4-22.2C596.3,108.4,597.1,98.7,597.1,98.7z"/><path d="M633.7,138.8c-2.7-0.1-4.8,1.9-4.9,4.4c0,2.5,2.1,4.5,4.7,4.5c2.7,0.1,4.8-1.9,4.9-4.4 C638.4,140.9,636.3,138.9,633.7,138.8z"/></g></g></g></g></g><g id="Helmet_F_Wrapper" transform="translate(550,35)"><g id="Helmet_Current" class="Classic"><g id="Left-Earcap_Classic_Toggle" class="toggle"><path id="Ear-Cap_Left_Classic" d="M565.5,584.4l18.7-27.6l-18.7-191.1l-26.1-16.4L565.5,584.4z" style="fill: rgb(0, 133, 255);"/></g><g id="Right-Earcap_Classic_Toggle" class="toggle"><g id="Range-Finder_Right_Classic_Option" class="option" style="display: inherit;"><path id="Shaft_Right_Range-Finder_Classic" d="M162.1,75.1l11.5,0.7L156.3,364h-11.8L162.1,75.1z" style="fill: rgb(182, 182, 182);"/><path id="Finder_Right_Range-Finder_Classic" d="M251.6,51.9h-64l2.5-7.9l74.8-7L251.6,51.9" style="fill: rgb(24, 27, 28);"/><g id="Cover_Right_Range-Finder_Classic" style="fill: rgb(42, 48, 51);"><path d="M152.9,63l30.4,2l6.8-21l80.4-7.5l1.6-8.2L157.4,24l-11.2,14.1L152.9,63"/><path d="M161.1,63.5l15.1,1L175.5,76l-15.1-1L161.1,63.5"/></g></g><path id="Ear-Cap_Right_Classic" d="M135.1,584.4l-18.7-27.6l18.7-191.1l26.1-16.4L135.1,584.4z" style="fill: rgb(0, 133, 255);"/></g><g id="Helmet_Pieces_Classic"><g id="Face_Classic" style="fill: rgb(182, 182, 182);"><path d="M159.5,601c0,0,6.6-44.9,16.5-67.2c10.1-22.7,29.3-47.7,51.1-43.8c17.4,3.1,51.9,85.2,54.4,185.9 C279.9,674.5,159.5,601,159.5,601z"/><path d="M540.8,601c0,0-6.6-44.9-16.5-67.2c-10.1-22.7-29.3-47.7-51.1-43.8c-17.4,3.1-51.9,85.2-54.4,185.9 C420.5,674.5,540.8,601,540.8,601z"/></g><g id="Cheeks_Classic" style="fill: rgb(0, 133, 255);"><path d="M159.5,601v1l-26.2-2.1l18.9-174.8c6.6,2,60.7,19,79.1,36c19.5,18.1,32.4,46.3,38.5,72.7 c6.7,28.8,10.2,103.2,11.3,131.3c-4.6-95.7-37.2-172-54-175c-21.8-3.9-41,21.1-51.1,43.8C166.1,556.1,159.5,601,159.5,601z"/><path d="M419.2,665.1c1.1-28.1,4.6-102.5,11.3-131.3c6.2-26.4,19-54.5,38.5-72.7c18.1-16.8,71.3-33.5,79.1-35.9 L567.1,600l-26.2,2.1v-1c0,0-6.6-44.9-16.5-67.2c-10.1-22.7-29.3-47.7-51.1-43.8C456.5,493.1,423.8,569.4,419.2,665.1z"/></g><path id="Eyes_Classic" d="M418.8,676H281.5c0,0-3.4-106.4-11.7-142.2c-6.2-26.4-19-54.5-38.5-72.7 C211.7,443,152.6,425,152.6,425l7-67.4c0,0,61.1,7.9,91.9,9.9c28.9,1.8,87.3,2.3,98.8,2.3c11.5-0.1,69.9-0.5,98.8-2.3 c30.8-2,91.9-9.9,91.9-9.9l7,67.4c0,0-59.2,18.1-78.7,36.2c-19.5,18.1-32.4,46.3-38.5,72.7C422.2,569.6,418.9,675.8,418.8,676z" style="fill: rgb(0, 133, 255);"/><g id="Visors_Classic"><path id="Basic_Visor_Classic_Option" style="display: inherit; fill: rgb(0, 0, 0);" d="M387.1,676h-73.8V425c0,0-41-3.8-60.9-8.3c-24.3-5.6-84.7-25-84.7-25 l0.8-14.1c0,0,55.8,9.5,83.9,12.5c27.5,2.9,65.2,6.9,97.8,6.9c32.6,0,70.3-4,97.8-6.9c28.1-3,83.9-12.5,83.9-12.5l0.8,14.1 c0,0-60.5,19.4-84.7,25c-19.9,4.6-60.9,8.3-60.9,8.3V676z" class="option"/></g><path id="Dome_Classic" d="M159.5,357.7l0-0.1l0-1.2c0.7-99.5,84.6-180.4,188.7-182.4v0l1.2,0l0.7,0l0.7,0l1.2,0v0 c104.1,2,188,82.8,188.7,182.4l0,1.2l0,0.1c-8.1,1-63.4,8-91.9,9.8c-28.9,1.8-87.3,2.3-98.8,2.3c-11.5-0.1-69.9-0.5-98.8-2.3 C222.9,365.6,167.6,358.7,159.5,357.7z" style="fill: rgb(163, 163, 163);"/></g></g></g><g id="Shoulders_Current" transform="translate(193,565)"><g id="LeftShoulder_Current"><g id="Left-Shoulder_F"><g id="Classic_Shoulder_Left_F_Option" class="option" style="display: inherit;"><path id="Main_Shoulder_Classic_Left_F" d="M1014.9,138.6l-26.7,120.8l21.4,69.6l143,72.4l24-36.9L1014.9,138.6z" style="fill: rgb(163, 163, 163);"/></g></g></g><g id="RightShoulder_Current"><g id="Right-Shoulder_F"><g id="Classic_Shoulder_Right_F_Option" class="option" style="display: inherit;"><path id="Main_Shoulder_Classic_Right_F" d="M399.3,138.6L426,259.4L404.6,329l-143,72.4l-24-36.9L399.3,138.6z" style="fill: rgb(163, 163, 163);"/></g></g></g></g></svg>
