<svg id="Female-Body" viewBox="0 0 1800 3300" version="1.1" xmlns="http://www.w3.org/2000/svg" style="stroke:black;stroke-width:2px;fill-rule:evenodd;height:100%;"><g id="Back_F" transform="translate(0,601)"><g id="Cape_F"><g id="None_Back_F" class="option" style="display: inherit;"></g></g></g><g id="Flight-Suit" transform="translate(0,528)"><g id="Soft-Parts_F"><g id="Suit_F"><g id="Neck-Seal_F"><path id="Plain-Neck-Seal_F" d="M1003.2,68.3l50,98.1l-27.8,47.1l-125,29l-125.8-29l-27-47.1l49.2-98.1 L900,75.4L1003.2,68.3" class="option" style="display: inherit; fill: rgb(96, 61, 32);"/></g><g id="Flight-Suit_F" style="fill: rgb(210, 164, 125);"><path d="M421.3,665.8l53.1-193l124-83.5l19.4,169.3c0,0-53.6,102.2-72.1,149c-19,48.2-52,158.4-56.2,172.5 l-29.4,255.8l-85.3-27.3c0,0-3.1-177.5,4.7-251.3C386.4,791.5,421.3,665.8,421.3,665.8z"/><path d="M1378.7,665.8l-53.3-193.6l-123.1-82.9l-19.6,170.4c0,0,53.1,101.1,71.6,147.9c19,48.2,52,158.4,56.2,172.5 l29.4,255.8l85.3-27.3c0,0,3.1-177.5-4.7-251.3C1413.6,791.5,1378.7,665.8,1378.7,665.8z"/><path d="M899.8,1212.7c-10.5,1-19.9,5.2-23.4,12.5c-30.6,64.7-93.6,360.6-111.8,415.2c-9.9,29.7-17.7,192-34.5,286.7 c-20,113-85.7,391.3-85.7,391.3l-113.8-11.8c0,0-14.7-279.4-10.6-381.2c3.1-77.3,34.9-229.1,34.9-229.1s6.8-55.4,7-83.3 c0.6-100.8,9.5-325,29.4-453.8C607,1057.4,703,843.7,703,843.7s124.3,48.9,197.4,48.9s198.4-49.9,198.4-49.9 s90.6,214.8,106.3,316.6c19.9,128.7,33.1,353,33.7,453.8c0.2,27.9,7,83.3,7,83.3s31.8,151.8,34.9,229.1 c4,101.7-10.6,381.2-10.6,381.2l-113.8,11.8c0,0-65.6-278.3-85.7-391.3c-16.8-94.7-24.6-257-34.5-286.7 c-18.2-54.5-81.2-350.5-111.8-415.2c-3.5-7.5-13.2-11.7-23.9-12.6L899.8,1212.7z"/></g></g><g id="Boots_F"><g id="Gunslinger_Boots_F" class="option" style="display: inherit;"><g id="Main_Gunslinger-Boot_F" style="fill: rgb(0, 0, 0);"><path d="M668,2383.6c-0.4,1.9-6.7,31.8-39.6,40.1c-11,2.8-29.7-3.1-41.5-9.1c-16.2-8.3-33.1-14.7-50.4-19.8l-0.5,0.7 c-0.3,0.4-0.5,0.8-0.8,1.1c-5.4,7.6-11.3,14.7-17.5,21.1l-0.5,0.5l-0.3,0.3c-0.6,0.6-1.3,1.3-1.9,1.9c-3.7,3.6-7.5,6.9-11.4,10 l-1.1,0.9l-0.9,0.7c-0.3,0.2-0.5,0.4-0.8,0.6c-0.6,0.4-1.2,0.9-1.8,1.3c-8.2,5.8-19.1,14.5-30,13c-10.3-1.5-21.8-5.6-30.4-9.7 c-7.2-3.4-14.7-8.2-19.8-13c-1.5-1.1-2.7-2.5-3.6-4.1c-23.8,9.3-49.7,12.8-62.4,39.4c-2.7,5.7-5.1,12.6-4.5,19.1 c0.7,8.3,9.8,9.3,16.9,11.2c17.6,4.7,32.7,8.3,53.1,12.5c23.2,4.8,44.1,7.7,67.6,6.8c17.5-0.7,32.4-1.7,47.7-11.1 c6.2-3.8,12.5-7.6,17.8-12.6c11.9-11.1,19.5-22.7,34.9-29.4c11.1-4.9,22.6-8.9,34.4-11.9c16.7-4.2,34.7-7.1,43.5-23.7 C670.6,2407.5,669.8,2395.7,668,2383.6L668,2383.6"/><path d="M1132.7,2383.6c0.4,1.9,6.7,31.8,39.6,40.1c11,2.8,29.7-3.1,41.5-9.1c16.2-8.3,33.1-14.7,50.4-19.8l0.5,0.7 c0.3,0.4,0.5,0.8,0.8,1.1c5.4,7.6,11.3,14.7,17.5,21.1l0.5,0.5l0.3,0.3c0.6,0.6,1.3,1.3,1.9,1.9c3.7,3.6,7.5,6.9,11.4,10l1.1,0.9 l0.9,0.7c0.3,0.2,0.5,0.4,0.8,0.6c0.6,0.4,1.2,0.9,1.8,1.3c8.2,5.8,19.1,14.5,30,13c10.3-1.5,21.8-5.6,30.4-9.7 c7.2-3.4,14.7-8.2,19.8-13c1.5-1.1,2.7-2.5,3.6-4.1c23.8,9.3,49.7,12.8,62.4,39.4c2.7,5.7,5.1,12.6,4.5,19.1 c-0.7,8.3-9.8,9.3-16.9,11.2c-17.6,4.7-32.7,8.3-53.1,12.5c-23.2,4.8-44.1,7.7-67.6,6.8c-17.5-0.7-32.4-1.7-47.7-11.1 c-6.2-3.8-12.5-7.6-17.8-12.6c-11.9-11.1-19.5-22.7-34.9-29.4c-11.1-4.9-22.6-8.9-34.4-11.9c-16.7-4.2-34.7-7.1-43.5-23.7 C1130.1,2407.5,1130.9,2395.7,1132.7,2383.6L1132.7,2383.6"/></g><g id="Bottom_Gunslinger-Boot_F" style="fill: rgb(0, 0, 0);"><path d="M668.6,2406.3c-0.8,4.6-2.2,9.1-4.7,13.9c-8.8,16.6-26.8,19.5-43.5,23.7c-11.8,3-23.2,7-34.4,11.9 c-15.4,6.7-23,18.3-34.9,29.4c-5.3,5-11.6,8.8-17.8,12.6c-15.3,9.4-30.2,10.4-47.7,11.1c-23.5,1-44.4-1.9-67.6-6.8 c-20.3-4.2-35.5-7.8-53.1-12.5c-5.6-1.5-12.6-2.5-15.5-7.1h0l-3.3,7.4l-1.9,15.3c0,0,18.8,10.2,38.9,14.6 c20.1,4.5,60.5,10.8,60.5,10.8l2.8-6.7l9.1,1.9l-0.4,6.6l22,1.2l4.7-6.4l7.4,0.1l-1.1,5.7c0,0,13.6-0.2,21.2-4.7 c1.4-2.1,4.2-5.7,4.2-5.7l5.2-2.9l-0.7,5.4l18.9-6.8l0.9-7.4l5.5-3.2l0.2,5.3l13.5-10.5l1.5-6.4l33.7-23.8l5.3,12.4l23.7-5.2 l0.8-5.1l6-2.5l4.2,3.9l15.9-6.6l0.3-4.8l5.2-1.8l0.6,3.4l15.1-10.4l2.9-20.8l0.7-22.6L668.6,2406.3L668.6,2406.3"/><path d="M1132.1,2406.3c0.8,4.6,2.2,9.1,4.7,13.9c8.8,16.6,26.8,19.5,43.5,23.7c11.8,3,23.2,7,34.4,11.9 c15.4,6.7,23,18.3,34.9,29.4c5.3,5,11.6,8.8,17.8,12.6c15.3,9.4,30.2,10.4,47.7,11.1c23.5,1,44.3-1.9,67.6-6.8 c20.3-4.2,35.5-7.8,53.1-12.5c5.7-1.5,12.6-2.5,15.5-7.1l0,0l3.3,7.4l1.9,15.3c0,0-18.8,10.2-38.9,14.6 c-20.1,4.5-60.5,10.8-60.5,10.8l-2.8-6.7l-9.1,1.9l0.4,6.6l-22,1.2l-4.7-6.4l-7.4,0.1l1.1,5.7c0,0-13.7-0.2-21.2-4.7 c-1.4-2.1-4.2-5.7-4.2-5.7l-5.2-2.9l0.7,5.4l-19-6.8l-0.9-7.4l-5.5-3.2l-0.2,5.3l-13.5-10.5l-1.5-6.4l-33.8-23.8l-5.3,12.4 l-23.7-5.2l-0.8-5.1l-6-2.5l-4.2,3.9l-15.9-6.6l-0.3-4.8l-5.2-1.8l-0.6,3.4l-15.1-10.4l-2.9-20.8l-0.7-22.6L1132.1,2406.3 L1132.1,2406.3"/></g><g id="Top_Gunslinger-Boot_F" style="fill: rgb(118, 14, 14);"><path d="M536.7,2394.4c20.2-29,33.8-64.6,38.6-95.9l0,0l-5.6-0.5l-0.2,0l-0.7-0.1l-1.9-0.2l-2.8-0.3l-1.2-0.2 c-3.3-0.4-6.5-0.9-9.7-1.3l-5-0.9l-1.1-0.2l-0.4-0.1l-0.8-0.2l-3.5-0.8l-3.1-0.8l-0.5-0.1c-10.7-2.7-9.3-5-9.3-5 c-2.9,13.8-9.4,28.6-15.2,41.5c-9.1,20.3-27.8,37.9-43.4,53.4c-10.7,10.6-26.2,20.8-39,28.9c-5.4,3.5-11.2,6.1-17.1,8.4 c4.5,6.3,14.2,12.8,23.4,17.2c8.6,4.1,20.1,8.2,30.4,9.7c10.9,1.6,21.8-7.2,30-13c14.2-10,26.8-23.6,37.6-39.1L536.7,2394.4"/><path d="M1264.1,2394.4c-20.2-29-33.8-64.6-38.6-95.9l0,0l5.6-0.5l0.2,0l0.7-0.1l1.9-0.2l2.8-0.3l1.2-0.2 c3.3-0.4,6.5-0.9,9.7-1.3l5-0.9l1.1-0.2l0.4-0.1l0.8-0.2l3.5-0.8l3-0.8l0.5-0.1c10.7-2.7,9.3-5,9.3-5 c2.9,13.8,9.4,28.6,15.2,41.5c9.1,20.3,27.8,37.9,43.4,53.4c10.7,10.6,26.2,20.8,39,28.9c5.4,3.5,11.2,6.1,17.1,8.4 c-4.5,6.3-14.2,12.8-23.4,17.2c-8.6,4.1-20.1,8.2-30.4,9.7c-10.9,1.6-21.8-7.2-30-13c-14.2-10-26.8-23.6-37.6-39.1L1264.1,2394.4 "/></g><g id="Side_Gunslinger-Boot_F" style="fill: rgb(118, 14, 14);"><path d="M536.4,2394.8c17.3,5.1,34.3,11.5,50.4,19.8c11.8,6,30.6,11.8,41.5,9.1c33.9-8.5,39.6-40.1,39.6-40.1 c-1-6.9-8.6-33.3-10.8-40.5c-4.9-15.8-4.4-56-5.6-55.3c-27.2,14.5-62.4,11.9-76.3,10.8l0,0C570.4,2330,556.7,2365.7,536.4,2394.8 "/><path d="M1264.3,2394.8c-17.3,5.1-34.3,11.5-50.4,19.8c-11.8,6-30.6,11.8-41.5,9.1c-33.9-8.5-39.6-40.1-39.6-40.1 c1-6.9,8.6-33.3,10.8-40.5c4.9-15.8,4.4-56,5.6-55.3c27.2,14.5,62.4,11.9,76.3,10.8l0,0C1230.3,2330,1244,2365.7,1264.3,2394.8"/></g></g></g><g id="Sleeves_F" class="toggle" style="fill: rgb(96, 61, 32);"><path d="M460.3,473.2l8.2,3.5l129.9-87.4c0,0,3.7,92.2,14.5,147.6c1.5,7.7,3.7,17.4,6.6,28.6l-17.3,56 c0,0-58.7-23.1-84.5-38.2c-25-14.7-69.9-52.7-69.9-52.7L460.3,473.2z"/><path d="M1181.2,565.5c2.8-11.2,5.1-21,6.6-28.6c10.8-55.4,14.5-147.6,14.5-147.6l129.9,87.4l8.2-3.5l12.4,57.3 c0,0-44.9,38-69.9,52.7c-25.7,15.2-84.4,38.2-84.4,38.2L1181.2,565.5z"/></g><g id="Gloves_F"><g id="Left-Glove_F"><g id="Fingerless_Left_Glove_F" class="option" style="display: inherit;"><g id="Fingers_Fingerless_Left_Glove_F" style="fill: rgb(118, 14, 14);"><path d="M1391.6,1284.8c-4.7-0.3-9.2-0.2-13.9,1c-3.2,0.8-6.3,1.6-9.2,3.5c-8.7,5.7-6.3,18,1.4,22.7 c9,5.5,23.3,0.1,27.5-10.5C1399.1,1297.1,1393.9,1288.9,1391.6,1284.8"/><path d="M1375.7,1295.5c-4.7-0.3-9.2-0.2-13.9,1c-3.2,0.8-6.3,1.6-9.2,3.5c-8.7,5.7-6.3,18,1.4,22.7 c9,5.5,23.4,0.1,27.5-10.5C1383.2,1307.8,1377.9,1299.7,1375.7,1295.5"/><path d="M1364.5,1309.7c-4.7,0.5-10.6,1.6-15.1,3.4c-3.1,1.2-6.1,2.6-8.7,4.8c-7.9,6.9-4.1,18.8,4.1,22.3 c9.6,4.1,23.1-3.5,26-14.6C1371.9,1321.2,1364.5,1309.7,1364.5,1309.7z"/><path d="M1315.7,1241.9c-2.7,13.3-4.8,20.6-4.8,20.6s-12.1,27.9-10,34.3c2.1,6.4,12.7,12.1,18.8,8.7 c7.6-4.2,16.9-23.8,22.9-37.7c2.2-5.1,4.2-10.9,5.9-16.3C1324.4,1255.5,1315.7,1241.9,1315.7,1241.9L1315.7,1241.9z"/><path d="M1365.6,1307.7c-1.8,3.4-3.8,7-6,10.8c-11.9,20.4-30.3,38-18.2,53.6c11.3,14.6,37-23.7,37-23.7l11.9-17.6 C1370.5,1325.4,1365.6,1307.8,1365.6,1307.7z"/></g><path id="Glove_Fingerless_Left_Glove_F" d="M1390.3,1330.7l13.3-19.6c0,0,29-54,30.4-64.5c1.1-8,0.1-34.7,0.1-34.7 l-9.1-103.5l-45.9,4.3l-37.8,13.9l-2.8,17.7c0,0-13.7,21.4-17.3,36.8c-2.5,10.8-1.2,36.8-4.3,54.2c-0.4,2.3-0.8,4.4-1.2,6.4l0,0 c0,0,8.6,13.6,32.8,9.5c3-9.6,5.1-17.7,5.1-17.7s8.3,3.2,12.5,7c14.1,12.3,8,49.5,8,49.5s-3.3,7.4-8.6,17.5 C1365.6,1307.8,1370.5,1325.4,1390.3,1330.7z" style="fill: rgb(0, 0, 0);"/></g></g><g id="Right-Glove_F"><g id="Fingerless_Right_Glove_F" class="option" style="display: inherit;"><g id="Fingers_Fingerless_Right_Glove_F" style="fill: rgb(118, 14, 14);"><path d="M408.7,1284.8c4.7-0.3,9.2-0.2,13.9,1c3.2,0.8,6.3,1.6,9.2,3.5c8.7,5.7,6.3,18-1.4,22.7 c-9,5.5-23.4,0.1-27.5-10.5C401.1,1297.1,406.4,1288.9,408.7,1284.8"/><path d="M424.6,1295.5c4.7-0.3,9.2-0.2,13.9,1c3.2,0.8,6.3,1.6,9.2,3.5c8.7,5.7,6.3,18-1.4,22.7 c-9,5.5-23.4,0.1-27.5-10.5C417,1307.8,422.3,1299.7,424.6,1295.5"/><path d="M435.8,1309.7c4.7,0.5,10.6,1.6,15.1,3.4c3.1,1.2,6.1,2.6,8.7,4.8c7.9,6.9,4.1,18.8-4.1,22.3 c-9.6,4.1-23.2-3.5-26-14.6C428.3,1321.2,435.8,1309.7,435.8,1309.7z"/><path d="M484.5,1241.9c2.7,13.3,4.8,20.6,4.8,20.6s12.1,27.9,10,34.3c-2.1,6.4-12.7,12.1-18.8,8.7 c-7.6-4.2-17-23.8-22.9-37.7c-2.2-5.1-4.2-10.9-5.9-16.3C475.9,1255.5,484.5,1241.9,484.5,1241.9L484.5,1241.9z"/><path d="M434.7,1307.7c1.8,3.4,3.8,7,6,10.8c12,20.4,30.3,38,18.2,53.6c-11.3,14.6-37-23.7-37-23.7l-11.9-17.6 C429.7,1325.4,434.6,1307.8,434.7,1307.7z"/></g><path id="Glove_Fingerless_Right_Glove_F" d="M409.9,1330.7l-13.3-19.6c0,0-28.9-54-30.4-64.5 c-1.1-8-0.1-34.7-0.1-34.7l9-103.5l45.9,4.3l37.8,13.9l2.8,17.7c0,0,13.7,21.4,17.2,36.8c2.5,10.8,1.2,36.8,4.3,54.2 c0.4,2.3,0.8,4.4,1.2,6.4l0,0c0,0-8.6,13.6-32.8,9.5c-3-9.6-5.1-17.7-5.1-17.7s-8.3,3.2-12.5,7c-14.1,12.3-8,49.5-8,49.5 s3.3,7.4,8.6,17.5C434.6,1307.8,429.7,1325.4,409.9,1330.7z" style="fill: rgb(0, 0, 0);"/></g></g></g></g></g><g id="Biceps_Current" transform="translate(193,579)"><g id="LeftBiceps_Current"><g id="Left-Biceps_F"><g id="None_Biceps_Left_F" class="option" style="display: inherit;"></g></g></g><g id="RightBiceps_Current"><g id="Right-Biceps_F"><g id="None_Biceps_Right_F" class="option" style="display: inherit;"></g></g></g></g><g id="Vest_Current" transform="translate(0,528)"><path id="Vest_F" d="M967.4,899.8c-43.9,9-90.3,9-134.1,0c-44.2-9.1-131-54.4-131-54.4S626.5,606.6,613,536.9 c-10.8-55.4-14.5-147.6-14.5-147.6l-129.9,87.4l-27.7-11.8c0,0,77.7-171.7,128.8-221.5c46.3-45,177.8-77,177.8-77 s58,63.7,152.8,64.2c90.2,0.4,152.8-64.2,152.8-64.2s131.6,32,177.8,77c51.1,49.8,128.8,221.5,128.8,221.5l-27.7,11.8l-129.9-87.4 c0,0-3.7,92.2-14.5,147.6c-13.6,69.7-89.3,308.6-89.3,308.6S1011.6,890.7,967.4,899.8z" style="fill: rgb(96, 61, 32);"/></g><g id="Upper-Body_F_Wrapper" transform="translate(193,565)"><g id="Chest_Current" class="Heavy_F"><g id="Abdomen_Heavy_F"><g id="Under-Plates_Abdomen_Heavy_F" style="fill: rgb(96, 61, 32);"><rect x="604.3" y="664.3" width="205.2" height="26.2"/><rect x="604.3" y="690.5" width="205.2" height="26.2"/><rect x="604.3" y="716.7" width="205.2" height="26.2"/><rect x="604.3" y="742.9" width="205.2" height="26.2"/><rect x="604.3" y="769.1" width="205.2" height="26.2"/></g><g id="Abdomen-Plate_Heavy_F" style="fill: rgb(85, 82, 77);"><path d="M643.9,579.7l-102.3,43.4l-9.6-23.3l111.9-47.5V579.7z"/><path d="M577.5,710.2l-35.9-87.1l102.3-43.4l32,91.6L577.5,710.2z"/><path d="M532,599.8l-43,7.5l63.4,150.8l43.3-8.6L532,599.8z"/><path d="M770,579.7l102.3,43.4l9.6-23.3L770,552.3V579.7z"/><path d="M836.4,710.2l35.9-87.1L770,579.7l-32,91.6L836.4,710.2z"/><path d="M881.9,599.8l43,7.5l-63.4,150.8l-43.3-8.6L881.9,599.8z"/><rect x="644.3" y="552.3" width="125.4" height="27.4"/><path d="M675.9,671.3l-32-91.6h126l-32,91.6H675.9z"/></g></g><g id="Neck-Armor_Heavy_F"><g id="Neck-Plate_Heavy_F" style="fill: rgb(85, 82, 77);"><path d="M566,123.7l-88.6,19.5c0,0,9.6,37.7,15.5,60.4c2.4,9.4,11.8,15.2,21.3,13.1c15.3-3.4,37.8-8.3,53.4-11.7 c4.8-1,8.9-4,11.5-8.1c2.6-4.2,3.3-9.2,2.1-13.9C575.3,160,566,123.7,566,123.7z"/><path d="M847.9,123.7l88.6,19.5c0,0-9.6,37.7-15.5,60.4c-2.4,9.4-11.8,15.2-21.3,13.1c-15.3-3.4-37.8-8.3-53.4-11.7 c-4.8-1-8.9-4-11.5-8.1c-2.6-4.2-3.3-9.2-2.1-13.9C838.6,160,847.9,123.7,847.9,123.7z"/></g><g id="Secondary_Neck-Plate_Heavy_F" style="fill: rgb(118, 114, 107);"><path d="M543.9,125.3l-44.6,9.8c0,0,6.4,25.1,9.9,38.6c1.2,4.7,5.9,7.5,10.6,6.5c7.8-1.7,19.2-4.2,27.2-6 c2.4-0.5,4.4-2,5.7-4c1.3-2.1,1.6-4.5,1-6.9C550.2,149.7,543.9,125.3,543.9,125.3z"/><path d="M870,125.3l44.6,9.8c0,0-6.4,25.1-9.9,38.6c-1.2,4.7-5.9,7.5-10.6,6.5c-7.8-1.7-19.2-4.2-27.2-6 c-2.4-0.5-4.4-2-5.7-4c-1.3-2.1-1.6-4.5-1-6.9C863.7,149.7,870,125.3,870,125.3z"/></g></g><g id="Full-Chest_Heavy_F"><path id="Under-Plate_Chest_Heavy_F" d="M757.5,521.4H656.3l-25.4,21.8v14.6l13.3-5.5h125.4l13.3,5.6v-14.7 L757.5,521.4z" style="fill: rgb(118, 114, 107);"/><g id="Chest-Plate_Heavy_F" style="fill: rgb(85, 82, 77);"><path d="M529.9,587.1l89.8-52.1l12.2-24.7l23.9,3.2h102.3l23.9-3.2l12.2,24.7l89.8,52.1l41.7,9.1l-1.1,15.3 l-44.6-7.8l-97-40.5v-20.1l-25.4-21.8H656.3l-25.4,21.8v20.1l-97,40.5l-44.6,7.8l-1.1-15.3L529.9,587.1z"/><path d="M925.7,596.2l52-133.4l7.6,27.3l-16.5,99.2L925.7,596.2z"/><path d="M428.6,490.1l7.6-27.3l52,133.4l-43.1-6.9L428.6,490.1z"/><path d="M486.8,410.8v-55.7l-4.3-100l25.9-28.7l78.4-16.3l20.3,23.8h199.7l20.3-23.8l78.4,16.3l25.9,28.7l-4.2,97.5 l-0.1-0.2v58.4L782,510.3l-23.9,3.2H655.8l-23.9-3.2L486.8,410.8z"/><path d="M927.1,355.1v55.7l50.5,52L927.1,355.1z"/><path d="M631.9,510.3l-145.1-99.5l-50.5,52l52,133.4l41.7-9.1l89.8-52.1L631.9,510.3z"/><path d="M977.6,462.8l-52,133.4l-41.7-9.1L794.2,535L782,510.3l145.1-99.5L977.6,462.8z"/><path d="M968.8,589.4L967,600l-42.4,11.5l1.1-15.3L968.8,589.4z"/><path d="M486.8,355.1v55.7l-50.5,52L486.8,355.1z"/><path d="M482.5,255.1c-0.5,51.3-6.6,102.5-21,153.8l25.3-53.9L482.5,255.1z"/><path d="M931.4,255.1c0.5,51.3,6.6,102.5,21,153.8l-25.3-53.9L931.4,255.1z"/><path d="M488.2,596.2l1.1,15.3L446.9,600l-1.8-10.6L488.2,596.2z"/></g></g><g id="Iron-Heart_Heavy_F"><path id="Heart_Heavy_F" d="M706.9,307.4l29.8,27.6v54.2l-29.8,27.6l-29.8-27.6V335L706.9,307.4z" style="fill: rgb(118, 14, 14);"/><g id="Center_Heart_Heavy_F" class="option" style="display: inherit; fill: rgb(85, 82, 77);"><rect x="696.1" y="335.9" width="21.7" height="26.3"/><rect x="696.1" y="362.1" width="3.6" height="26.3"/><rect x="710.5" y="362.1" width="3.6" height="26.3"/><rect x="714.2" y="362.1" width="3.6" height="26.3"/><rect x="703.3" y="362.1" width="3.6" height="26.3"/><rect x="706.9" y="362.1" width="3.6" height="26.3"/><rect x="699.6" y="362.1" width="3.6" height="26.3"/></g></g></g><g id="Collar_Current"/><g id="ChestAttachments_Current"><g id="Chest-Attachments_F"><g id="No-Device_Accessories_Chest_F" class="option" style="display: inherit;"></g></g></g><g id="Gauntlets_Current"><g id="LeftGauntlets_Current"><g id="Left-Gauntlets_F"><g id="Heavy_Gauntlet_Left_F" class="option" style="display: inherit;"><g id="Top-2_Heavy_Gauntlet_Left_F" style="fill: rgb(118, 14, 14);"><path d="M1253.7,783.8l18.3,2.9l8,87.4l-16.7,11.8L1253.7,783.8z"/><path d="M1262.6,878.2l10,113.9l-11.2,12.8l6.3,67.1l-5,3.1l-17.6-183.5L1262.6,878.2z"/><path d="M1265.4,846.2c2.2,0.2,3.8,2.1,3.7,4.3c-0.2,2.2-2.1,3.8-4.3,3.7c-2.2-0.2-3.8-2.1-3.7-4.3 C1261.3,847.7,1263.2,846.1,1265.4,846.2z"/></g><g id="Top-1_Heavy_Gauntlet_Left_F" style="fill: rgb(118, 114, 107);"><path d="M1215.6,1083.7l47.1-8.7l-17.6-183.5l17.5-13.3l-9.4-100l-69.1-12.9L1215.6,1083.7z"/><path d="M1235.4,774.9l9.8,116.6"/></g><g id="Accent-Top_Heavy_Gauntlet_Left_F" style="fill: rgb(118, 14, 14);"><path d="M1251.8,1046.1l-29.8,3.5l2.6,23.2l29.9-4.5L1251.8,1046.1z"/><path d="M1241.2,948.8l-29.8,3.5l9.8,90.7l29.8-3.6L1241.2,948.8z"/><path d="M1228.6,780.9l-32.8-5.2l9.3,99.3l31.2-3.7L1228.6,780.9z"/></g><path id="Bottom_Heavy_Gauntlet_Left_F" d="M1184.6,770.1c-35.7-1.6-74,10.7-99.6,38.9c-8.3,9.1-11.6,21.7-9,33.7 c12.6,58.2,54.1,248.8,54.1,248.8l85.5-7.8L1184.6,770.1z" style="fill: rgb(118, 14, 14);"/><g id="Accent-Bottom_Heavy_Gauntlet_Left_F" style="fill: rgb(85, 82, 77);"><path d="M1215.6,1083.7l-85.5,7.8l-3.3-15.4l87.2-9.1L1215.6,1083.7z"/><path d="M1186.7,791.4c-46.3,0.9-86.1,14.4-108.2,62.8l-2.5-11.4c-2.1-9.5-0.4-19.3,4.4-27.5l4.9-6.6 c25.6-27.9,63.7-40.1,99.2-38.6L1186.7,791.4z"/><path d="M1175.9,776.3l-37.8,4.3l17.2,150l37.8-4.3L1175.9,776.3z"/><path d="M1171.3,779.6l-27.8,3.2l15.9,138.8l27.8-3.2L1171.3,779.6z"/><path d="M1143.4,782.8l-5.3-2.2"/><path d="M1175.9,776.3l-4.7,3.3"/><path d="M1193.1,926.3l-5.9-7.9"/><path d="M1155.3,930.6l4.7-9.1"/></g><g id="No-Device_Attachment_Heavy_Gauntlet_Left_F" class="option" style="display: inherit;"></g></g></g></g><g id="RightGauntlets_Current"><g id="Right-Gauntlets_F"><g id="Heavy_Gauntlet_Right_F" class="option" style="display: inherit;"><g id="Top-2_Heavy_Gauntlet_Right_F" style="fill: rgb(118, 14, 14);"><path d="M160.5,783.8l-18.3,2.9l-8,87.4l16.7,11.8L160.5,783.8z"/><path d="M151.6,878.2l-10,113.9l11.2,12.8l-6.3,67.1l5,3.1l17.6-183.5L151.6,878.2z"/><path d="M148.8,846.2c-2.2,0.2-3.8,2.1-3.7,4.3c0.2,2.2,2.1,3.8,4.3,3.7c2.2-0.2,3.8-2.1,3.7-4.3 S151,846.1,148.8,846.2z"/></g><g id="Top-1_Heavy_Gauntlet_Right_F" style="fill: rgb(118, 114, 107);"><path d="M198.6,1083.7l-47.1-8.7l17.6-183.5l-17.5-13.3l9.4-100l69.1-12.9L198.6,1083.7z"/><path d="M178.8,774.9l-9.8,116.6"/></g><g id="Accent-Top_Heavy_Gauntlet_Right_F" style="fill: rgb(118, 14, 14);"><path d="M162.4,1046.1l29.8,3.5l-2.6,23.2l-29.9-4.5L162.4,1046.1z"/><path d="M173,948.8l29.8,3.5l-9.8,90.7l-29.8-3.6L173,948.8z"/><path d="M185.7,780.9l32.8-5.2l-9.3,99.3l-31.2-3.7L185.7,780.9z"/></g><path id="Bottom_Heavy_Gauntlet_Right_F" d="M229.6,770.1c35.7-1.6,74,10.7,99.6,38.9c8.3,9.1,11.6,21.7,9,33.7 c-12.6,58.2-54.1,248.8-54.1,248.8l-85.5-7.8L229.6,770.1z" style="fill: rgb(118, 14, 14);"/><g id="Accent-Bottom_Heavy_Gauntlet_Right_F" style="fill: rgb(85, 82, 77);"><path d="M198.6,1083.7l85.5,7.8l3.3-15.4l-87.2-9.1L198.6,1083.7z"/><path d="M227.5,791.4c46.3,0.9,86.1,14.4,108.2,62.8l2.5-11.4c2.1-9.5,0.4-19.3-4.4-27.5l-4.9-6.6 c-25.6-27.9-63.7-40.1-99.2-38.6L227.5,791.4z"/><path d="M238.3,776.3l37.8,4.3l-17.2,150l-37.8-4.3L238.3,776.3z"/><path d="M243,779.6l27.8,3.2l-15.9,138.8l-27.8-3.2L243,779.6z"/><path d="M270.8,782.8l5.3-2.2"/><path d="M238.3,776.3l4.6,3.3"/><path d="M221.2,926.3l5.9-7.9"/><path d="M258.9,930.6l-4.7-9.1"/></g><g id="No-Device_Attachment_Heavy_Gauntlet_Right_F" class="option" style="display: inherit;"></g></g></g></g></g></g><g id="Lower-Body_F_Wrapper" transform="translate(268,1285)"><g id="Knees_Current"><g id="LeftKnee_Current"><g id="Left-Knee_F"><g id="Heavy_Knee_Left_F" class="option" style="display: inherit;"><g id="Missiles_Heavy-Knee_Left_F" class="toggle" style=""><path id="Base_Missiles_Heavy-Knee_Left_F" d="M989.7,929.3l18.9,102l22.1-18c3.6-2.9,5.3-7.5,4.6-12.1 c-2.3-13.9-7.2-44-9.8-59.9c-1-6-6-10.5-12.1-10.8L989.7,929.3z" style="fill: rgb(118, 114, 107);"/><g id="Missile-2_Missiles_Heavy-Knee_Left_F" style="fill: rgb(235, 137, 4);"><path d="M1015,985.5c-5.9,1.6-9.3,7.6-7.7,13.4c1.6,5.9,7.7,9.4,13.6,7.8c5.9-1.5,9.3-7.6,7.7-13.4 C1027,987.4,1020.9,983.9,1015,985.5z"/><path d="M1016.1,989c-4,1-6.3,5.1-5.2,9c1.1,3.9,5.2,6.3,9.1,5.3c4-1,6.3-5.1,5.2-9 C1024.1,990.3,1020,987.9,1016.1,989z"/></g><g id="Missile-1_Missiles_Heavy-Knee_Left_F" style="fill: rgb(118, 14, 14);"><path d="M1007,938.3c-5.9,1.6-9.3,7.6-7.7,13.5c1.6,5.9,7.7,9.4,13.6,7.8s9.4-7.6,7.8-13.5 C1018.9,940.3,1012.8,936.8,1007,938.3z"/><path d="M1008,941.8c-4,1-6.3,5.1-5.2,9.1c1.1,3.9,5.2,6.3,9.1,5.3c4-1,6.3-5.1,5.2-9.1 C1016.1,943.1,1012,940.8,1008,941.8z"/></g></g><path id="Plate-2_Heavy-Knee_Left_F" d="M970.2,883L940,864.7l-151.1,26L766.9,918l29.6,151.5l59.5,1.4l84.9-14.6 l59-21.4L970.2,883z" style="fill: rgb(118, 114, 107);"/><g id="Plate-1_Heavy-Knee_Left_F" style="fill: rgb(235, 137, 4);"><path d="M962.9,891.4L935,873.7l-138.4,23.8l-19.9,26l28.6,146.2l50.6,1.3l84.9-14.6l50.6-18.7L962.9,891.4z"/><path d="M914.4,911.9l-84.9,14.6l26.4,144.4l44-1.7l40.9-12.9L914.4,911.9z"/><path d="M829.6,926.5l-32.9-29l-19.9,26L829.6,926.5z"/><path d="M914.4,911.9l20.6-38.2l27.9,17.7L914.4,911.9z"/></g><g id="Trim_Heavy-Knee_Left_F" style="fill: rgb(118, 14, 14);"><path d="M767.3,970l-4.7,11.5l16.7,91.5l6.6-1.1L767.3,970z"/><path d="M923.5,1013.1l-66.6,11.5l6.5,35.7l66.6-11.5L923.5,1013.1z"/><path d="M773.8,953.5l-9.3,1.6l21.4,116.7l10.9-1.9l-0.1-0.5l-0.2,0L773.8,953.5z"/><path d="M979.3,929.3l20.6,105.6l-1.9,0.7l10.9-1.9l-19.4-106.2L979.3,929.3z"/></g></g></g></g><g id="RightKnee_Current"><g id="Right-Knee_F"><g id="Heavy_Knee_Right_F" class="option" style="display: inherit;"><g id="Missiles_Heavy-Knee_Right_F" class="toggle" style=""><path id="Base_Missiles_Heavy-Knee_Right_F" d="M275.3,929.3l-18.8,102l-22.1-18c-3.6-2.9-5.3-7.5-4.6-12.1 c2.3-13.9,7.2-44,9.8-59.9c1-6,6-10.5,12.1-10.8L275.3,929.3z" style="fill: rgb(118, 114, 107);"/><g id="Missile-2_Missiles_Heavy-Knee_Right_F" style="fill: rgb(235, 137, 4);"><path d="M250,985.5c5.9,1.6,9.3,7.6,7.7,13.4c-1.6,5.9-7.7,9.4-13.6,7.8c-5.9-1.5-9.3-7.6-7.7-13.4 C238,987.4,244.1,983.9,250,985.5z"/><path d="M248.9,989c4,1,6.3,5.1,5.2,9c-1.1,3.9-5.2,6.3-9.1,5.3c-4-1-6.3-5.1-5.2-9S245,987.9,248.9,989z"/></g><g id="Missile-1_Missiles_Heavy-Knee_Right_F" style="fill: rgb(118, 14, 14);"><path d="M258,938.3c5.9,1.6,9.3,7.6,7.7,13.5c-1.6,5.9-7.7,9.4-13.6,7.8s-9.3-7.6-7.7-13.5S252.1,936.8,258,938.3z "/><path d="M257,941.8c4,1,6.3,5.1,5.2,9.1c-1.1,3.9-5.2,6.3-9.1,5.3c-4-1-6.3-5.1-5.2-9.1 C248.9,943.1,253,940.8,257,941.8z"/></g></g><path id="Plate-2_Heavy-Knee_Right_F" d="M294.8,883l30.3-18.3l151.1,26l21.9,27.3l-29.6,151.5l-59.5,1.4l-84.9-14.6 l-59-21.4L294.8,883z" style="fill: rgb(118, 114, 107);"/><g id="Plate-1_Heavy-Knee_Right_F" style="fill: rgb(235, 137, 4);"><path d="M302.1,891.4l27.9-17.7l138.4,23.8l19.9,26l-28.6,146.2l-50.6,1.3l-84.9-14.6l-50.6-18.7L302.1,891.4z"/><path d="M350.6,911.9l84.9,14.6L409,1070.9l-44-1.7l-40.9-12.9L350.6,911.9z"/><path d="M435.4,926.5l32.9-29l19.9,26L435.4,926.5z"/><path d="M350.6,911.9L330,873.7l-27.9,17.7L350.6,911.9z"/></g><g id="Trim_Heavy-Knee_Right_F" style="fill: rgb(118, 14, 14);"><path d="M497.7,970l4.7,11.5l-16.7,91.5l-6.6-1.1L497.7,970z"/><path d="M341.5,1013.1l66.6,11.5l-6.5,35.7l-66.6-11.5L341.5,1013.1z"/><path d="M491.2,953.5l9.3,1.6l-21.4,116.7l-10.9-1.9l0.1-0.5l0.2,0L491.2,953.5z"/><path d="M285.7,929.3l-20.6,105.6l1.9,0.7l-10.9-1.9l19.4-106.2L285.7,929.3z"/></g></g></g></g></g><g id="Shins_Current"><g id="LeftShin_Current"><g id="Left-Shin_F"><g id="Heavy-Shnees_Shin_Left_F" class="option" style="display: inherit;"><g id="Shin_Heavy-Shnees-Shin_Left_F" style="fill: rgb(118, 114, 107);"><path d="M903.4,1623.8l52.7-62.5l90.7-6.4l-35.5-595l-258.8,19.6L856.3,1534l-1.9,60.1L903.4,1623.8"/><path d="M793.4,968.3l-26.7-24.2l-18.4-0.9c0,0-11.1,52.3-10.5,78.5c0.9,42.5,41.2,98.8,41.2,98.8l27.8,14.9 l35.5-72.3L793.4,968.3"/><path d="M982.7,1036.9l21.7-87.9c0,0,23.1,51.4,24.2,77.7c2.1,46.6-8.7,76.8-8.7,76.8L982.7,1036.9"/><path d="M956.1,1561.2l90.7-6.4l-20.1-46.5l-61.9,2.5L956.1,1561.2"/><path d="M994.8,1509.6l-53.3-392.5"/></g><g id="Knee_Heavy-Shnees-Shin_Left_F" style="fill: rgb(174, 70, 6);"><path d="M960.8,867.6l-146,17.3L788,989.1l100.2,134.2l96.4-9l38.5-157.7L960.8,867.6"/><path d="M814.8,884.9l29.2,39.3L956.9,912l3.9-44.5L814.8,884.9"/><path d="M844,924.2l-55.9,64.6l26.7-103.9L844,924.2"/><path d="M956.9,912l66.2,44.7l-62.3-89.1L956.9,912"/><path d="M956.9,912l27.7,202.3l38.5-157.7L956.9,912"/><path d="M844,924.2l-55.9,64.6l100.2,134.6L844,924.2"/></g><g id="Straps_Heavy-Shnees-Shin_Left_F" class="toggle" style="fill: rgb(139, 87, 42);"><path d="M792.5,1213.2l55.7-6.5l4.5,25.3l-55.7,6.5L792.5,1213.2"/><path d="M796.3,1210.7l11.8-1.4l5.4,29.9l-11.8,1.4L796.3,1210.7"/><path d="M837.5,1457.7l55.7-6.5l4.5,25.3l-55.7,6.5L837.5,1457.7"/><path d="M841.3,1455.2l11.8-1.4l5.4,29.9l-11.8,1.4L841.3,1455.2"/></g></g></g></g><g id="RightShin_Current"><g id="Right-Shin_F"><g id="Heavy-Shnees_Shin_Right_F" class="option" style="display: inherit;"><g id="Shin_Heavy-Shnees-Shin_Right_F" style="fill: rgb(118, 114, 107);"><path d="M363.7,1623.8l-52.8-62.5l-90.7-6.4l35.3-595l258.8,19.5L410.9,1534l2,60.1L363.7,1623.8"/><path d="M473.5,968.3l26.7-24.2l18.4-0.9c0,0,11.1,52.3,10.6,78.5c-0.9,42.6-41.1,98.8-41.1,98.8l-27.8,14.9 l-35.5-72.3L473.5,968.3"/><path d="M284.3,1037L262.5,949c0,0-23.1,51.4-24.2,77.7c-2,46.6,8.7,76.7,8.7,76.7L284.3,1037"/><path d="M311,1561.2l-90.7-6.4l20.1-46.5l61.9,2.5L311,1561.2"/><path d="M272.4,1509.6l53.2-392.5"/></g><g id="Knee_Heavy-Shnees-Shin_Right_F" style="fill: rgb(174, 70, 6);"><path d="M306.1,867.6l146,17.2l26.8,104.2l-100.1,134.3l-96.4-8.9l-38.5-157.6L306.1,867.6"/><path d="M452,884.8l-29.2,39.3l-112.9-12.1l-3.9-44.5L452,884.8"/><path d="M422.9,924.2l55.9,64.6L452,884.8L422.9,924.2"/><path d="M309.9,912.1l-66.1,44.7l62.3-89.2L309.9,912.1"/><path d="M309.9,912.1l-27.6,202.3l-38.5-157.6L309.9,912.1"/><path d="M422.9,924.2l56,64.6l-100.1,134.6L422.9,924.2"/></g><g id="Straps_Heavy-Shnees-Shin_Right_F" class="toggle" style="fill: rgb(139, 87, 42);"><path d="M474.5,1213.2l-55.7-6.5l-4.5,25.3l55.7,6.4L474.5,1213.2"/><path d="M470.7,1210.7l-11.8-1.4l-5.4,29.9l11.8,1.4L470.7,1210.7"/><path d="M429.6,1457.7l-55.7-6.5l-4.5,25.3l55.7,6.4L429.6,1457.7"/><path d="M425.8,1455.2l-11.8-1.4l-5.4,29.9l11.8,1.4L425.8,1455.2"/></g></g></g></g></g><g id="Ankles_Current"><g id="LeftAnkle_Current"><g id="Left-Ankle_F"><g id="Heavy_Ankle_Left_F" class="option" style="display: inherit;"><path id="Plate_Heavy-Ankle_Left_F" d="M864.3,1542.4l3.2,32.2l65.9,82.6l64.2-29l69.9-18.1l-52.8-93.9 c-26.7-3.7-57.7-0.5-93.6,10.3l-19.9,17.5L864.3,1542.4" style="fill: rgb(118, 14, 14);"/><path id="Trim_Heavy-Ankle_Left_F" d="M921.2,1526.6l7.5,9.1l-23.5,20l-26.7-1.1l1,13l57.1,70.7l57.3-26.8l69-16.4 l7.1,14.5l-72.4,18.7l-64.2,29l-65.9-82.6l-3.2-32.2l36.9,1.7L921.2,1526.6" style="fill: rgb(85, 82, 77);"/></g></g></g><g id="RightAnkle_Current"><g id="Right-Ankle_F"><g id="Heavy_Ankle_Right_F" class="option" style="display: inherit;"><path id="Plate_Heavy-Ankle_Right_F" d="M401.3,1542.4l-3.2,32.2l-65.9,82.6l-64.2-29l-69.9-18.1l52.8-93.9 c26.7-3.7,57.7-0.5,93.6,10.3l19.9,17.5L401.3,1542.4" style="fill: rgb(118, 14, 14);"/><path id="Trim_Heavy-Ankle_Right_F" d="M344.5,1526.6l-7.5,9.1l23.5,20l26.7-1.1l-1,13l-57.1,70.7l-57.3-26.8 l-69-16.4l-7.1,14.5l72.4,18.7l64.2,29l65.9-82.6l3.2-32.2l-36.9,1.7L344.5,1526.6" style="fill: rgb(85, 82, 77);"/></g></g></g></g><g id="Toes_Current"><g id="LeftToe_Current"><g id="Left-Toe_F"><g id="Armored_Toe_Left_F" class="option" style="display: inherit;"><g id="Plate_Armored_Toe_Left_F" style="fill: rgb(118, 14, 14);"><path d="M947,1678.1l102.1,56.7l77.1,5.3l61.8-15.7c12.9-10.8,18.1-35,7-59.2l-87-41.4l-68.3,17.1L947,1678.1"/><path d="M1032.5,1644c0,0,79.6,23.3,89.6,37.1c11,15.3,4.1,58.9,4.1,58.9"/></g><g id="Trim_Armored_Toe_Left_F" style="fill: rgb(85, 82, 77);"><path d="M1096,1617.1l-82,19.8l-69.1,42l14.3,7.9l73.3-42.9l81.6-19.2L1096,1617.1"/><path d="M1014.1,1637l18.4,7"/></g></g></g></g><g id="RightToe_Current"><g id="Right-Toe_F"><g id="Armored_Toe_Right_F" class="option" style="display: inherit;"><g id="Plate_Armored_Toe_Right_F" style="fill: rgb(118, 14, 14);"><path d="M318,1678.1l-102.1,56.7l-77.1,5.3l-61.8-15.7c-12.9-10.8-18.1-35-7-59.2l87-41.4l68.3,17.1L318,1678.1"/><path d="M232.5,1644c0,0-79.6,23.3-89.5,37.1c-11,15.3-4.1,58.9-4.1,58.9"/></g><g id="Trim_Armored_Toe_Right_F" style="fill: rgb(85, 82, 77);"><path d="M169,1617.1l81.9,19.8l69.1,42l-14.3,7.9l-73.3-42.9l-81.6-19.2L169,1617.1"/><path d="M250.9,1637l-18.4,7"/></g></g></g></g></g><g id="Thighs_Current"><g id="LeftThigh_Current"><g id="Left-Thigh_F"><g id="Heavy_Thigh_Left_F" class="option" style="display: inherit;"><g id="Thigh_Heavy-Thigh_Left_F" style="fill: rgb(85, 82, 77);"><path d="M746.8,484.7l-61.2,78.1l70,279.8l47.6,16.9L770,540.6L746.8,484.7"/><path d="M903.2,468.5l76,63.8l-11,288.2l-43.1,26.4L892,527.9L903.2,468.5"/><path d="M903.2,468.5l-156.4,16.3l23.2,55.8l122-12.7L903.2,468.5"/><path d="M892,527.9l-122,12.7l33.1,318.9l122-12.7L892,527.9"/></g><g id="Trim_Heavy-Thigh_Left_F" style="fill: rgb(118, 14, 14);"><path d="M909.3,444l-173.6,18l11,22.7l156.4-16.3L909.3,444"/><path d="M976.2,504.9l-66.8-61l-6.1,24.5l76,63.8L976.2,504.9"/><path d="M682.9,535.4l52.9-73.4l11,22.7l-61.2,78.1L682.9,535.4"/></g></g></g></g><g id="RightThigh_Current"><g id="Right-Thigh_F"><g id="Heavy_Thigh_Right_F" class="option" style="display: inherit;"><g id="Thigh_Heavy-Thigh_Right_F" style="fill: rgb(85, 82, 77);"><path d="M518.2,484.7l61.2,78.1l-70,279.8l-47.6,16.9L495,540.6L518.2,484.7"/><path d="M361.8,468.5l-76,63.8l11,288.2l43.1,26.4L373,527.9L361.8,468.5"/><path d="M361.8,468.5l156.4,16.3L495,540.6l-122-12.7L361.8,468.5"/><path d="M373,527.9l122,12.7l-33.1,318.9l-122-12.7L373,527.9"/></g><g id="Trim_Heavy-Thigh_Right_F" style="fill: rgb(118, 14, 14);"><path d="M355.6,444l173.6,18l-11,22.7l-156.4-16.3L355.6,444"/><path d="M288.8,504.9l66.8-61l6.1,24.5l-76,63.8L288.8,504.9"/><path d="M582.1,535.4L529.3,462l-11,22.7l61.2,78.1L582.1,535.4"/></g></g></g></g></g><g id="Groin_Current"><g id="Groin_F"><g id="Basic_Groin_F" class="option" style="display: inherit;"><path id="Groin-Plate_Basic_F" d="M566.9,360L456.1,137.4h354.3L699.6,360c0,0-44.2,53-66.4,53 C611.1,413.1,566.9,360,566.9,360z" style="fill: rgb(96, 61, 32);"/><path id="Trauma-Plating_Groin_F" d="M687.8,352.3l100-200.9H478.7l100,200.9c4.4,5.1,22,25.4,38.9,38.2 c5.9,4.5,11.2,8.6,15.6,8.6c4.4,0,9.7-4.1,15.6-8.6C665.8,377.7,683.5,357.4,687.8,352.3" class="toggle" style="fill: rgb(118, 114, 107);"/></g></g></g><g id="Waist_Current" class="F"><g id="Accessories_Waist_F"><g id="Left-Holster_F" class="toggle" style=""><g id="Belt-Holster_Left_F" class="option" style="display: inherit;"><g id="Weapon_Belt-Holster-Left_F"><g id="Main_Weapon_Belt-Holster-Left_F" style="fill: rgb(85, 82, 77);"><path d="M886.9,208l-2.6-38.3l6.6-0.4l-1.6-24.1l-6.6,0.4l-0.8-12.5c-0.3-4.1,4.9-7.7,11.6-8.2 c15.3-1,41.6-2.8,56.9-3.8c6.7-0.4,12.3,2.5,12.6,6.6l0.8,12.5l-6.6,0.4l1.6,24.1l6.6-0.4l2.6,38.3l-15.5,1l7.1,106.1 l-50.2,3.3L902.5,207L886.9,208z"/><path d="M961.2,197.4l-8.9,0.6l8.5,127.5l-50.2,3.3l-8.5-127.5l-8.9,0.6l-1.9-29.1l68-4.5L961.2,197.4z"/><path d="M942.7,129.9l-40.3,2.7l2.6,39.4l40.3-2.7L942.7,129.9z"/><path d="M914.4,212.1l-6.6,0.4l6.7,100.3l6.6-0.4L914.4,212.1z"/><path d="M929.7,188.1l-6.6,0.4l6.7,100.3l6.6-0.4L929.7,188.1z"/><path d="M948.1,209.8l-6.6,0.4l6.7,100.3l6.6-0.4L948.1,209.8z"/></g><g id="Accent_Weapon_Belt-Holster-Left_F" style="fill: rgb(118, 114, 107);"><path d="M911.3,175.6l0.3,4l28.4-1.9l-0.3-4L911.3,175.6z"/><path d="M911.6,179.6l0.3,4l28.4-1.9l-0.3-4L911.6,179.6z"/><path d="M911,171.6l0.3,4l28.4-1.9l-0.3-4L911,171.6z"/><path d="M907.7,122.2l0.3,4l28.4-1.9l-0.3-4L907.7,122.2z"/><path d="M909.1,132.2l-6.6,0.4l2.6,39.4l6.6-0.4L909.1,132.2z"/><path d="M942.7,129.9l-6.6,0.4l2.6,39.4l6.6-0.4L942.7,129.9z"/><path d="M941.5,210.3l-10,0.7l6.7,100.3l10-0.7L941.5,210.3z"/><path d="M924.5,211.4l-10,0.7l6.7,100.3l10-0.7L924.5,211.4z"/></g></g><path id="Holster_Belt-Holster-Left_F" d="M904,355l-26.2-159.8l87.9,112.6l8.3,220.5 c-15.2,20.1-32.3,22.2-51.3,3.8L904,355z" style="fill: rgb(139, 87, 42);"/></g></g><g id="Right-Holster_F" class="toggle" style=""><g id="Belt-Holster_Right_F" class="option" style="display: inherit;"><g id="Weapon_Belt-Holster-Right_F"><g id="Main_Weapon_Belt-Holster-Right_F" style="fill: rgb(85, 82, 77);"><path d="M377.9,208l2.6-38.3l-6.6-0.4l1.6-24.1l6.6,0.4l0.8-12.5c0.3-4.1-4.9-7.7-11.6-8.2 c-15.3-1-41.6-2.8-56.9-3.8c-6.7-0.4-12.3,2.5-12.6,6.6l-0.8,12.5l6.6,0.4l-1.6,24.1l-6.6-0.4l-2.6,38.3l15.5,1l-7.1,106.1 l50.2,3.3l7.1-106.1L377.9,208z"/><path d="M303.7,197.4l8.9,0.6l-8.5,127.5l50.2,3.3l8.5-127.5l8.9,0.6l1.9-29.1l-68-4.5L303.7,197.4z"/><path d="M322.1,129.9l40.3,2.7l-2.6,39.4l-40.3-2.7L322.1,129.9z"/><path d="M350.5,212.1l6.6,0.4l-6.7,100.3l-6.6-0.4L350.5,212.1z"/><path d="M335.2,188.1l6.6,0.4l-6.7,100.3l-6.6-0.4L335.2,188.1z"/><path d="M316.8,209.8l6.6,0.4l-6.7,100.3l-6.6-0.4L316.8,209.8z"/></g><g id="Accent_Weapon_Belt-Holster-Right_F" style="fill: rgb(118, 114, 107);"><path d="M353.6,175.6l-0.3,4l-28.4-1.9l0.3-4L353.6,175.6z"/><path d="M353.3,179.6l-0.3,4l-28.4-1.9l0.3-4L353.3,179.6z"/><path d="M353.8,171.6l-0.3,4l-28.4-1.9l0.3-4L353.8,171.6z"/><path d="M357.1,122.2l-0.3,4l-28.4-1.9l0.3-4L357.1,122.2z"/><path d="M355.8,132.2l6.6,0.4l-2.6,39.4l-6.6-0.4L355.8,132.2z"/><path d="M322.1,129.9l6.6,0.4l-2.6,39.4l-6.6-0.4L322.1,129.9z"/><path d="M323.4,210.3l10,0.7l-6.7,100.3l-10-0.7L323.4,210.3z"/><path d="M340.4,211.4l10,0.7l-6.7,100.3l-10-0.7L340.4,211.4z"/></g></g><path id="Holster_Belt-Holster-Right_F" d="M360.9,355l26.2-159.8l-87.9,112.6l-8.3,220.5 c15.2,20.1,32.3,22.2,51.3,3.8L360.9,355z" style="fill: rgb(139, 87, 42);"/></g></g></g><g id="Under-Belt_F"><g id="Girth-Belt_F" class="option" style="display: inherit; fill: rgb(139, 87, 42);"><path d="M632.9,72.8c-75.2,0-225.5-19.1-225.5-19.1l4.9-16.2c0,0,146.6,12.7,220.6,19.1 c73.6-6.4,220.6-19.1,220.6-19.1l4.9,16.2C858.4,53.7,708.1,72.8,632.9,72.8z"/><path d="M632.9,89c-76.7,0-230.2-19.1-230.2-19.1l4.7-16.2c0,0,187.9,16,225.5,19.1c37.6-3.2,225.5-19.1,225.5-19.1 l4.7,16.2C863.1,69.9,709.6,89,632.9,89z"/><path d="M632.9,105.2c-77.9,0-233.7-19.1-233.7-19.1l3.5-16.2c0,0,191.8,15.9,230.2,19.1 c38.4-3.2,230.2-19.1,230.2-19.1l3.5,16.2C866.6,86.1,710.8,105.2,632.9,105.2z"/><path d="M632.9,121.4c-78.9,0-236.6-19.1-236.6-19.1l2.9-16.2c0,0,194.7,16,233.7,19.1 c38.9-3.2,233.7-19.1,233.7-19.1l2.9,16.2C869.5,102.3,711.8,121.4,632.9,121.4z"/><path d="M632.9,137.7c-79.8,0-239.3-19.1-239.3-19.1l2.7-16.2c0,0,197.2,15.9,236.6,19.1 c39.4-3.2,236.6-19.1,236.6-19.1l2.7,16.2C872.2,118.5,712.7,137.7,632.9,137.7z"/><path d="M632.9,153.9c-80.6,0-241.8-19.1-241.8-19.1l2.5-16.2c0,0,199.4,15.9,239.3,19.1 c39.9-3.2,239.3-19.1,239.3-19.1l2.5,16.2C874.7,134.7,713.5,153.9,632.9,153.9z"/><path d="M632.9,170.1c-81.4,0-244.3-19.1-244.3-19.1l2.5-16.2c0,0,201.5,15.9,241.8,19.1 c40.3-3.2,241.8-19.1,241.8-19.1l2.5,16.2C877.2,150.9,714.3,170.1,632.9,170.1z"/><path d="M632.9,186.3c-82.3,0-246.8-19.1-246.8-19.1l2.5-16.2c0,0,203.6,15.9,244.3,19.1 c40.7-3.2,244.3-19.1,244.3-19.1l2.5,16.2C879.7,167.2,715.2,186.3,632.9,186.3z"/><path d="M632.9,202.5c-83.2,0-249.6-19.1-249.6-19.1l2.8-16.2c0,0,205.7,15.9,246.8,19.1 c41.1-3.2,246.8-19.1,246.8-19.1l2.8,16.2C882.5,183.4,716.1,202.5,632.9,202.5z"/><path d="M632.9,218.7c-84.3,0-252.8-19.1-252.8-19.1l3.2-16.2c0,0,208,16,249.6,19.1c41.6-3.2,249.6-19.1,249.6-19.1 l3.2,16.2C885.7,199.6,717.2,218.7,632.9,218.7z"/></g></g><g id="Belt_F"><g id="Pouch-Belt-2_F" class="option" style="display: inherit;"><path id="Main_Pouch-Belt-2_F" d="M881.3,151.2c-55.9,5-183.5,23.3-247.9,23.3c-65.1,0-192.7-18.4-247.8-23.2 l8.2-65.4c45.3,4,176.6,22.6,239.6,22.6c61.2,0,189.7-18.4,238.1-22.8L881.3,151.2z" style="fill: rgb(210, 164, 125);"/><rect id="Buckle_Pouch-Belt-2_F" x="587.7" y="102.2" width="92.4" height="75.8" style="fill: rgb(0, 0, 0);"/><g id="Pouches_Pouch-Belt-2_F" style="fill: rgb(139, 87, 42);"><g><path d="M365.4,79.8l4.5-7l23.2,0.8l2.9,8.7L365.4,79.8z"/><path d="M395.7,83.8c0.1-0.7-0.1-1.4-0.6-2c-0.5-0.5-1.1-0.9-1.9-0.9c-7.5-0.3-27.9-1.1-27.9-1.1l-4.1,92 c0.8,2.1,10.7,3.5,19.5,3.9c2.6,0.1,5.1-0.8,7-2.6c1.9-1.8,3-4.2,3.1-6.8C391.5,138.8,392.6,111.2,395.7,83.8z"/></g><g><path d="M901.5,79.8l-4.5-7l-23.2,0.8l-2.9,8.7L901.5,79.8z"/><path d="M871.1,83.8c-0.1-0.7,0.1-1.4,0.6-2c0.5-0.5,1.1-0.9,1.9-0.9c7.5-0.3,27.9-1.1,27.9-1.1l4.1,92 c-0.8,2.1-10.7,3.5-19.5,3.9c-2.6,0.1-5.1-0.8-7-2.6c-1.9-1.8-3-4.2-3.1-6.8C875.3,138.8,874.3,111.2,871.1,83.8z"/></g></g></g></g></g></g><g id="Helmet_F_Wrapper" transform="translate(550,35)"><g id="Helmet_Current" class="Heavy"><g id="Left-Earcap_Heavy" class="toggle"><g id="Ear-Cap_Left_Heavy" style="fill: rgb(85, 82, 77);"><path d="M510.8,239.2c17.9,24,30.2,52.1,35.3,82.6l0,0h38.5l-5.5-82.6H510.8z"/><path d="M579.2,239.2l19.8,11l3.7,59.2l-17.9,12.3L579.2,239.2z"/><path d="M565.5,321.8l3.6,98.5l7,11.6l-2.7-110H565.5z"/><path d="M575.9,422.7l5.4-8l-2.1-92.9h-5.8L575.9,422.7z"/><path d="M579.9,356l4.7-4v-26.4l-5.5-3.9L579.9,356z"/><path d="M553.7,498.1l17-0.2v-66.2h5.3l-7-11.6l-3.6-98.5h-19.4c1.7,10.2,2.6,20.6,2.6,31.2L553.7,498.1z"/><rect x="550.1" y="390.1" width="15.4" height="2.3"/><rect x="550.1" y="371.2" width="15.4" height="2.3"/><rect x="549.2" y="364.8" width="15.4" height="2.3"/><rect x="549.2" y="358.3" width="15.4" height="2.3"/><rect x="548.7" y="351.9" width="15.4" height="2.3"/><rect x="548.7" y="345.5" width="15.4" height="2.3"/></g></g><g id="Right-Earcap_Heavy" class="toggle"><g id="Ear-Cap_Right_Heavy" style="fill: rgb(85, 82, 77);"><path d="M189.7,239.2c-17.8,24-30.2,52.1-35.3,82.6h0h-38.5l5.5-82.6H189.7z"/><path d="M121.3,239.2l-19.8,11l-3.7,59.2l17.9,12.3L121.3,239.2z"/><path d="M135,321.8l-3.7,98.5l-7,11.6l2.7-110H135z"/><path d="M124.6,422.7l-5.4-8l2.1-92.9h5.8L124.6,422.7z"/><path d="M120.5,356l-4.7-4v-26.4l5.5-3.9L120.5,356z"/><path d="M146.7,498.1l-17-0.2v-66.2h-5.3l7-11.6l3.7-98.5h19.4c-1.7,10.2-2.6,20.6-2.6,31.2L146.7,498.1z"/><rect x="135" y="390.1" width="15.4" height="2.3"/><rect x="135" y="371.2" width="15.4" height="2.3"/><rect x="135.9" y="364.8" width="15.4" height="2.3"/><rect x="135.9" y="358.3" width="15.4" height="2.3"/><rect x="136.4" y="351.9" width="15.4" height="2.3"/><rect x="136.4" y="345.5" width="15.4" height="2.3"/></g></g><g id="Helmet_Pieces_Heavy"><g id="Face_Heavy" style="fill: rgb(118, 114, 107);"><path d="M196.7,453.7c25.4,16.7,56.1,37.8,66.2,48c12.4,12.5,30.5,94,40.8,144.7l-21.9-5.8L177.3,505L196.7,453.7z"/><path d="M503.8,453.7c-25.4,16.7-56.1,37.8-66.2,48c-12.4,12.5-30.5,94-40.8,144.7l21.9-5.8L523.2,505L503.8,453.7z"/></g><g id="Cheeks_Heavy" style="fill: rgb(85, 82, 77);"><path d="M196.7,453.7L177.3,505l-31.6,24.6l13.8-99.9L196.7,453.7z"/><g><path d="M503.8,453.7l19.4,51.3l31.6,24.6l-13.8-99.9L503.8,453.7z"/><path d="M554.9,529.6L448.4,683.5l-29.6-43L523.2,505L554.9,529.6z"/><path d="M418.8,640.5l-22,5.8l-7.9,40.5l59.5-3.3L418.8,640.5z"/></g><path d="M145.6,529.6l106.4,153.9l29.6-43L177.3,505L145.6,529.6z"/><path d="M281.7,640.5l22,5.8l7.9,40.5l-59.5-3.3L281.7,640.5z"/></g><path id="Visor_Heavy" d="M374.4,650.8l14.6,36h-77.4l14.6-36l-13.8-179.7l2.8-37.8c0,0-51.5-9.2-71-14.7 c-19.3-5.5-66.2-21-66.9-21.2l0.2-15.1l172.8,7.6l173-7.6v15.1c0,0-47.5,15.7-66.9,21.2c-19.5,5.5-71,14.7-71,14.7l2.8,37.8 L374.4,650.8z" style="fill: rgb(118, 14, 14);"/><g id="Eyes_Heavy" style="fill: rgb(85, 82, 77);"><path d="M548.7,352.9l6.2,176.7l-13.8-99.9c0,0-85.2,53.6-103.4,72C419.4,520,389,686.9,389,686.9l-14.6-36 l13.8-179.7c0,0,65.3-27.6,79.9-35.6c14.6-8.1,66.1-37.5,66.1-37.5l-0.8-16.2L350.2,390l-183.1-8.1l-0.8,16.2 c0,0,51.5,29.4,66.1,37.5c14.6,8.1,79.9,35.6,79.9,35.6l13.8,179.7l-14.6,36c0,0-30.4-166.8-48.7-185.2 c-18.3-18.4-103.4-72-103.4-72l-13.8,99.9l6.2-176.7H548.7z"/><path d="M166.3,398.1l11-0.6c0,0,47.5,15.7,66.9,21.2c19.5,5.5,71,14.7,71,14.7l-2.8,37.8c0,0-65.3-27.6-79.9-35.6 C217.8,427.5,166.3,398.1,166.3,398.1z"/><path d="M534.2,398.1l-11-0.6c0,0-47.5,15.7-66.9,21.2c-19.5,5.5-71,14.7-71,14.7l2.8,37.8c0,0,65.3-27.6,79.9-35.6 C482.7,427.5,534.2,398.1,534.2,398.1z"/><path d="M177.3,397.5v-15.1l-10.1-0.4l-0.8,16.2L177.3,397.5z"/><path d="M523.2,397.5v-15.1l10.1-0.4l0.8,16.2L523.2,397.5z"/></g><path id="Dome_Heavy" d="M548.7,352.9H151.8c0-106.9,88.9-193.7,198.4-193.7C459.8,159.2,548.7,246,548.7,352.9z" style="fill: rgb(118, 114, 107);"/><rect id="Ridge_Heavy" x="343.5" y="152.8" width="13.6" height="200.1" class="toggle" style="fill: rgb(85, 82, 77);"/><g id="Accents_Heavy" class="toggle" style="fill: rgb(118, 114, 107);"><path d="M266.4,337.2l-10.7-19.3h21.4L266.4,337.2z"/><path d="M303.1,337.2l-10.7-19.3h21.4L303.1,337.2z"/></g></g></g></g><g id="Shoulders_Current" transform="translate(193,565)"><g id="LeftShoulder_Current"><g id="Left-Shoulder_F"><g id="Heavy-Bell_Shoulder_Left_F" class="option" style="display: inherit;"><path id="Bottom_Heavy-Bell_Shoulder_Left_F" d="M1179.3,360.3l14.9,51.8c-29.3,19.5-53.2,30.4-72,36.4 c-12.7,4.1-26.4,2.8-38.2-3.5c-11.7-6.3-20.4-17.1-24-29.9c-1.6-5.5-2.6-9.3-2.6-9.3L1179.3,360.3z" style="fill: rgb(118, 114, 107);"/><path id="Main_Heavy-Bell_Shoulder_Left_F" d="M912.7,120.6C912.7,120.6,912.7,120.6,912.7,120.6 c116.2-26.4,226.5,23.2,246.4,110.8c14.9,65.7,27.8,122.2,27.8,122.2c-50.3,48.2-135.8,62.9-215.6,62.3 C929,318.9,917.2,222.9,912.7,120.6" style="fill: rgb(174, 70, 6);"/><g id="Trim_Heavy-Bell_Shoulder_Left_F" class="toggle" style="fill: rgb(85, 82, 77);"><path d="M1071.6,400.4c3.9,12,9.3,23.2,20.4,29.2c11.7,6.3,25.3,5,38,0.9c16.5-5.3,38.2-17.8,62.7-33.1l3.8,13.3 c-28.4,20.9-54,33-72.8,39c-12.7,4.1-28,1.6-39.8-4.7c-11.7-6.3-20.4-17.1-24-29.9c-1.6-5.5-2.6-9.3-2.6-9.3L1071.6,400.4z"/><path d="M932.4,114.5c5.3,93.7,16.3,185.2,55.4,274.9c70.4,0.6,145.5-23,196.7-58.9l4.7,20.7 c-53.6,51.7-138.2,65.3-217.9,64.6c-42.3-97-54.1-195.3-58.6-297.6C912.7,118.2,926.5,115.4,932.4,114.5z"/></g></g></g></g><g id="RightShoulder_Current"><g id="Right-Shoulder_F"><g id="Heavy-Bell_Shoulder_Right_F" class="option" style="display: inherit;"><path id="Bottom_Heavy-Bell_Shoulder_Right_F" d="M234.9,360.3L220,412.1c29.3,19.5,53.2,30.4,72,36.4 c12.7,4.1,26.5,2.8,38.2-3.5c11.7-6.3,20.4-17.1,24-29.9c1.6-5.5,2.6-9.3,2.6-9.3L234.9,360.3z" style="fill: rgb(118, 114, 107);"/><path id="Main_Heavy-Bell_Shoulder_Right_F" d="M501.6,120.6C501.6,120.6,501.6,120.6,501.6,120.6 c-116.2-26.4-226.5,23.2-246.4,110.8c-14.9,65.7-27.8,122.2-27.8,122.2c50.4,48.2,135.8,62.9,215.6,62.3 C485.2,318.9,497.1,222.9,501.6,120.6" style="fill: rgb(174, 70, 6);"/><g id="Trim_Heavy-Bell_Shoulder_Right_F" class="toggle" style="fill: rgb(85, 82, 77);"><path d="M342.6,400.4c-3.9,12-9.3,23.2-20.4,29.2c-11.7,6.3-25.3,5-38,0.9c-16.5-5.3-38.2-17.8-62.7-33.1l-3.8,13.3 c28.5,20.9,54,33,72.8,39c12.7,4.1,28.1,1.6,39.8-4.7c11.7-6.3,20.4-17.1,24-29.9c1.6-5.5,2.6-9.3,2.6-9.3L342.6,400.4z"/><path d="M481.8,114.5c-5.3,93.7-16.3,185.2-55.4,274.9c-70.4,0.6-145.5-23-196.7-58.9l-4.7,20.7 c53.6,51.7,138.2,65.3,217.9,64.6c42.3-97,54.1-195.3,58.6-297.6C501.6,118.2,487.7,115.4,481.8,114.5z"/></g></g></g></g></g><g id="Front_F" transform="translate(0,530)"><g id="Cape_F"></g></g></svg>
