<svg id="Female-Body" viewBox="0 0 1800 3300" version="1.1" xmlns="http://www.w3.org/2000/svg" style="stroke:black;stroke-width:2px;fill-rule:evenodd;height:100%;"><g id="Back_F" transform="translate(0,601)"><g id="Cape_F"><g id="None_Back_F_Option" class="option" style="display: inherit;"></g></g></g><g id="Flight-Suit" transform="translate(0,528)"><g id="Soft-Parts_F"><g id="Suit_F"><g id="Neck-Seal_F"><g id="Standard-Neck-Seal_F_Option" class="option" style="display: inherit; fill: rgb(84, 84, 84);"><path d="M1011.8,83.6c0-9.6-7.5-17.3-16.8-17.3c0,0-63.5,9.1-95.2,9.1c-31.7,0-95.2-9.1-95.2-9.1 c-9.3,0-16.8,7.8-16.8,17.3s7.5,17.3,16.8,17.3c0,0,63.5,9.1,95.2,9.1c31.7,0,95.2-9.1,95.2-9.1 C1004.3,100.9,1011.8,93.1,1011.8,83.6z"/><path d="M1017.5,103.8c0-10-7.9-18.2-17.7-18.2c0,0-66.7,9.6-100,9.6c-33.3,0-100-9.6-100-9.6 c-9.8,0-17.7,8.1-17.7,18.2s7.9,18.2,17.7,18.2c0,0,66.7,9.6,100,9.6c33.3,0,100-9.6,100-9.6 C1009.6,122,1017.5,113.8,1017.5,103.8z"/><path d="M1023.9,128.9c0-10.6-8.4-19.2-18.6-19.2c0,0-70.3,10.1-105.5,10.1c-35.2,0-105.5-10.1-105.5-10.1 c-10.3,0-18.6,8.6-18.6,19.2c0,10.6,8.4,19.2,18.6,19.2c0,0,70.3,10.1,105.5,10.1c35.2,0,105.5-10.1,105.5-10.1 C1015.6,148.1,1023.9,139.5,1023.9,128.9z"/><path d="M1030.2,152c0-11.1-8.8-20.1-19.6-20.1c0,0-73.8,10.6-110.7,10.6s-110.7-10.6-110.7-10.6 c-10.8,0-19.6,9-19.6,20.1s8.8,20.1,19.6,20.1c0,0,73.8,10.6,110.7,10.6s110.7-10.6,110.7-10.6 C1021.4,172.1,1030.2,163.1,1030.2,152z"/><path d="M1036.3,174.6c0-8.4-9.2-15.2-20.5-15.2c0,0-77.3,8-116,8c-38.7,0-116-8-116-8c-11.3,0-20.5,6.8-20.5,15.2 c0,8.4,9.2,15.2,20.5,15.2c0,0,77.3,8,116,8c38.7,0,116-8,116-8C1027.1,189.8,1036.3,183,1036.3,174.6z"/><path d="M1036.3,199.9c0-8.4-9.2-15.2-20.5-15.2c0,0-77.3,8-116,8c-38.7,0-116-8-116-8c-11.3,0-20.5,6.8-20.5,15.2 c0,8.4,9.2,15.2,20.5,15.2c0,0,77.3,15.4,116,15.4c38.7,0,116-15.4,116-15.4C1027.1,215.1,1036.3,208.3,1036.3,199.9z"/></g></g><g id="Flight-Suit_F" style="fill: rgb(110, 110, 110);"><path d="M421.3,665.8l53.1-193l124-83.5l19.4,169.3c0,0-53.6,102.2-72.1,149c-19,48.2-52,158.4-56.2,172.5 l-29.4,255.8l-85.3-27.3c0,0-3.1-177.5,4.7-251.3C386.4,791.5,421.3,665.8,421.3,665.8z"/><path d="M1378.7,665.8l-53.3-193.6l-123.1-82.9l-19.6,170.4c0,0,53.1,101.1,71.6,147.9c19,48.2,52,158.4,56.2,172.5 l29.4,255.8l85.3-27.3c0,0,3.1-177.5-4.7-251.3C1413.6,791.5,1378.7,665.8,1378.7,665.8z"/><path d="M899.8,1212.7c-10.5,1-19.9,5.2-23.4,12.5c-30.6,64.7-93.6,360.6-111.8,415.2c-9.9,29.7-17.7,192-34.5,286.7 c-20,113-85.7,391.3-85.7,391.3l-113.8-11.8c0,0-14.7-279.4-10.6-381.2c3.1-77.3,34.9-229.1,34.9-229.1s6.8-55.4,7-83.3 c0.6-100.8,9.5-325,29.4-453.8C607,1057.4,703,843.7,703,843.7s124.3,48.9,197.4,48.9s198.4-49.9,198.4-49.9 s90.6,214.8,106.3,316.6c19.9,128.7,33.1,353,33.7,453.8c0.2,27.9,7,83.3,7,83.3s31.8,151.8,34.9,229.1 c4,101.7-10.6,381.2-10.6,381.2l-113.8,11.8c0,0-65.6-278.3-85.7-391.3c-16.8-94.7-24.6-257-34.5-286.7 c-18.2-54.5-81.2-350.5-111.8-415.2c-3.5-7.5-13.2-11.7-23.9-12.6L899.8,1212.7z"/></g></g><g id="Boots_F"><g id="Gunslinger_Boots_F_Option" class="option" style="display: inherit;"><g id="Main_Gunslinger-Boot_F" style="fill: rgb(62, 62, 62);"><path d="M668,2383.6c-0.4,1.9-6.7,31.8-39.6,40.1c-11,2.8-29.7-3.1-41.5-9.1c-16.2-8.3-33.1-14.7-50.4-19.8l-0.5,0.7 c-0.3,0.4-0.5,0.8-0.8,1.1c-5.4,7.6-11.3,14.7-17.5,21.1l-0.5,0.5l-0.3,0.3c-0.6,0.6-1.3,1.3-1.9,1.9c-3.7,3.6-7.5,6.9-11.4,10 l-1.1,0.9l-0.9,0.7c-0.3,0.2-0.5,0.4-0.8,0.6c-0.6,0.4-1.2,0.9-1.8,1.3c-8.2,5.8-19.1,14.5-30,13c-10.3-1.5-21.8-5.6-30.4-9.7 c-7.2-3.4-14.7-8.2-19.8-13c-1.5-1.1-2.7-2.5-3.6-4.1c-23.8,9.3-49.7,12.8-62.4,39.4c-2.7,5.7-5.1,12.6-4.5,19.1 c0.7,8.3,9.8,9.3,16.9,11.2c17.6,4.7,32.7,8.3,53.1,12.5c23.2,4.8,44.1,7.7,67.6,6.8c17.5-0.7,32.4-1.7,47.7-11.1 c6.2-3.8,12.5-7.6,17.8-12.6c11.9-11.1,19.5-22.7,34.9-29.4c11.1-4.9,22.6-8.9,34.4-11.9c16.7-4.2,34.7-7.1,43.5-23.7 C670.6,2407.5,669.8,2395.7,668,2383.6L668,2383.6"/><path d="M1132.7,2383.6c0.4,1.9,6.7,31.8,39.6,40.1c11,2.8,29.7-3.1,41.5-9.1c16.2-8.3,33.1-14.7,50.4-19.8l0.5,0.7 c0.3,0.4,0.5,0.8,0.8,1.1c5.4,7.6,11.3,14.7,17.5,21.1l0.5,0.5l0.3,0.3c0.6,0.6,1.3,1.3,1.9,1.9c3.7,3.6,7.5,6.9,11.4,10l1.1,0.9 l0.9,0.7c0.3,0.2,0.5,0.4,0.8,0.6c0.6,0.4,1.2,0.9,1.8,1.3c8.2,5.8,19.1,14.5,30,13c10.3-1.5,21.8-5.6,30.4-9.7 c7.2-3.4,14.7-8.2,19.8-13c1.5-1.1,2.7-2.5,3.6-4.1c23.8,9.3,49.7,12.8,62.4,39.4c2.7,5.7,5.1,12.6,4.5,19.1 c-0.7,8.3-9.8,9.3-16.9,11.2c-17.6,4.7-32.7,8.3-53.1,12.5c-23.2,4.8-44.1,7.7-67.6,6.8c-17.5-0.7-32.4-1.7-47.7-11.1 c-6.2-3.8-12.5-7.6-17.8-12.6c-11.9-11.1-19.5-22.7-34.9-29.4c-11.1-4.9-22.6-8.9-34.4-11.9c-16.7-4.2-34.7-7.1-43.5-23.7 C1130.1,2407.5,1130.9,2395.7,1132.7,2383.6L1132.7,2383.6"/></g><g id="Bottom_Gunslinger-Boot_F" style="fill: rgb(0, 0, 0);"><path d="M668.6,2406.3c-0.8,4.6-2.2,9.1-4.7,13.9c-8.8,16.6-26.8,19.5-43.5,23.7c-11.8,3-23.2,7-34.4,11.9 c-15.4,6.7-23,18.3-34.9,29.4c-5.3,5-11.6,8.8-17.8,12.6c-15.3,9.4-30.2,10.4-47.7,11.1c-23.5,1-44.4-1.9-67.6-6.8 c-20.3-4.2-35.5-7.8-53.1-12.5c-5.6-1.5-12.6-2.5-15.5-7.1h0l-3.3,7.4l-1.9,15.3c0,0,18.8,10.2,38.9,14.6 c20.1,4.5,60.5,10.8,60.5,10.8l2.8-6.7l9.1,1.9l-0.4,6.6l22,1.2l4.7-6.4l7.4,0.1l-1.1,5.7c0,0,13.6-0.2,21.2-4.7 c1.4-2.1,4.2-5.7,4.2-5.7l5.2-2.9l-0.7,5.4l18.9-6.8l0.9-7.4l5.5-3.2l0.2,5.3l13.5-10.5l1.5-6.4l33.7-23.8l5.3,12.4l23.7-5.2 l0.8-5.1l6-2.5l4.2,3.9l15.9-6.6l0.3-4.8l5.2-1.8l0.6,3.4l15.1-10.4l2.9-20.8l0.7-22.6L668.6,2406.3L668.6,2406.3"/><path d="M1132.1,2406.3c0.8,4.6,2.2,9.1,4.7,13.9c8.8,16.6,26.8,19.5,43.5,23.7c11.8,3,23.2,7,34.4,11.9 c15.4,6.7,23,18.3,34.9,29.4c5.3,5,11.6,8.8,17.8,12.6c15.3,9.4,30.2,10.4,47.7,11.1c23.5,1,44.3-1.9,67.6-6.8 c20.3-4.2,35.5-7.8,53.1-12.5c5.7-1.5,12.6-2.5,15.5-7.1l0,0l3.3,7.4l1.9,15.3c0,0-18.8,10.2-38.9,14.6 c-20.1,4.5-60.5,10.8-60.5,10.8l-2.8-6.7l-9.1,1.9l0.4,6.6l-22,1.2l-4.7-6.4l-7.4,0.1l1.1,5.7c0,0-13.7-0.2-21.2-4.7 c-1.4-2.1-4.2-5.7-4.2-5.7l-5.2-2.9l0.7,5.4l-19-6.8l-0.9-7.4l-5.5-3.2l-0.2,5.3l-13.5-10.5l-1.5-6.4l-33.8-23.8l-5.3,12.4 l-23.7-5.2l-0.8-5.1l-6-2.5l-4.2,3.9l-15.9-6.6l-0.3-4.8l-5.2-1.8l-0.6,3.4l-15.1-10.4l-2.9-20.8l-0.7-22.6L1132.1,2406.3 L1132.1,2406.3"/></g><g id="Top_Gunslinger-Boot_F" style="fill: rgb(0, 0, 0);"><path d="M536.7,2394.4c20.2-29,33.8-64.6,38.6-95.9l0,0l-5.6-0.5l-0.2,0l-0.7-0.1l-1.9-0.2l-2.8-0.3l-1.2-0.2 c-3.3-0.4-6.5-0.9-9.7-1.3l-5-0.9l-1.1-0.2l-0.4-0.1l-0.8-0.2l-3.5-0.8l-3.1-0.8l-0.5-0.1c-10.7-2.7-9.3-5-9.3-5 c-2.9,13.8-9.4,28.6-15.2,41.5c-9.1,20.3-27.8,37.9-43.4,53.4c-10.7,10.6-26.2,20.8-39,28.9c-5.4,3.5-11.2,6.1-17.1,8.4 c4.5,6.3,14.2,12.8,23.4,17.2c8.6,4.1,20.1,8.2,30.4,9.7c10.9,1.6,21.8-7.2,30-13c14.2-10,26.8-23.6,37.6-39.1L536.7,2394.4"/><path d="M1264.1,2394.4c-20.2-29-33.8-64.6-38.6-95.9l0,0l5.6-0.5l0.2,0l0.7-0.1l1.9-0.2l2.8-0.3l1.2-0.2 c3.3-0.4,6.5-0.9,9.7-1.3l5-0.9l1.1-0.2l0.4-0.1l0.8-0.2l3.5-0.8l3-0.8l0.5-0.1c10.7-2.7,9.3-5,9.3-5 c2.9,13.8,9.4,28.6,15.2,41.5c9.1,20.3,27.8,37.9,43.4,53.4c10.7,10.6,26.2,20.8,39,28.9c5.4,3.5,11.2,6.1,17.1,8.4 c-4.5,6.3-14.2,12.8-23.4,17.2c-8.6,4.1-20.1,8.2-30.4,9.7c-10.9,1.6-21.8-7.2-30-13c-14.2-10-26.8-23.6-37.6-39.1L1264.1,2394.4 "/></g><g id="Side_Gunslinger-Boot_F" style="fill: rgb(0, 0, 0);"><path d="M536.4,2394.8c17.3,5.1,34.3,11.5,50.4,19.8c11.8,6,30.6,11.8,41.5,9.1c33.9-8.5,39.6-40.1,39.6-40.1 c-1-6.9-8.6-33.3-10.8-40.5c-4.9-15.8-4.4-56-5.6-55.3c-27.2,14.5-62.4,11.9-76.3,10.8l0,0C570.4,2330,556.7,2365.7,536.4,2394.8 "/><path d="M1264.3,2394.8c-17.3,5.1-34.3,11.5-50.4,19.8c-11.8,6-30.6,11.8-41.5,9.1c-33.9-8.5-39.6-40.1-39.6-40.1 c1-6.9,8.6-33.3,10.8-40.5c4.9-15.8,4.4-56,5.6-55.3c27.2,14.5,62.4,11.9,76.3,10.8l0,0C1230.3,2330,1244,2365.7,1264.3,2394.8"/></g></g></g><g id="Sleeves_F_Toggle" class="toggle" style="fill: rgb(63, 63, 63);"><path d="M460.3,473.2l8.2,3.5l129.9-87.4c0,0,3.7,92.2,14.5,147.6c1.5,7.7,3.7,17.4,6.6,28.6l-17.3,56 c0,0-58.7-23.1-84.5-38.2c-25-14.7-69.9-52.7-69.9-52.7L460.3,473.2z"/><path d="M1181.2,565.5c2.8-11.2,5.1-21,6.6-28.6c10.8-55.4,14.5-147.6,14.5-147.6l129.9,87.4l8.2-3.5l12.4,57.3 c0,0-44.9,38-69.9,52.7c-25.7,15.2-84.4,38.2-84.4,38.2L1181.2,565.5z"/></g><g id="Gloves_F"><g id="Left-Glove_F"><g id="Basic_Left_Glove_F_Option" class="option" style="display: inherit; fill: rgb(63, 63, 63);"><path d="M1391.6,1284.8c-4.7-0.3-9.2-0.2-13.9,1c-3.2,0.8-6.3,1.6-9.2,3.5c-8.7,5.7-6.3,18,1.4,22.7 c9,5.5,23.3,0.1,27.5-10.5C1399.1,1297.1,1393.9,1288.9,1391.6,1284.8"/><path d="M1375.7,1295.5c-4.7-0.3-9.2-0.2-13.9,1c-3.2,0.8-6.3,1.6-9.2,3.5c-8.7,5.7-6.3,18,1.4,22.7 c9,5.5,23.4,0.1,27.5-10.5C1383.2,1307.8,1377.9,1299.7,1375.7,1295.5"/><path d="M1364.3,1310.1c-4.7,0.5-10.4,1.3-14.9,3.1c-3.1,1.2-6.1,2.6-8.7,4.8c-7.9,6.9-4.1,18.8,4.1,22.3 c9.6,4.1,23.1-3.5,26-14.6C1371.9,1321.2,1364.3,1310.1,1364.3,1310.1z"/><path d="M1338.5,1144.4c0,0-13.7,21.4-17.3,36.8c-2.5,10.8-1.2,36.8-4.3,54.2c-3.2,17.4-6.1,27.1-6.1,27.1 s-12.1,27.9-10,34.3c2.1,6.4,12.7,12.1,18.8,8.7c7.6-4.2,16.9-23.8,22.9-37.7c6-14.1,11-34.1,11-34.1s8.3,3.2,12.5,7 c14.1,12.3,8,49.5,8,49.5s-5.8,13.3-14.6,28.2c-11.9,20.4-30.3,38-18.2,53.6c11.3,14.6,37-23.7,37-23.7l25.2-37.2 c0,0,29-54,30.4-64.5c1.1-8,0.1-34.7,0.1-34.7l-9.1-103.5l-45.9,4.3l-37.8,13.9L1338.5,1144.4"/></g></g><g id="Right-Glove_F"><g id="Basic_Right_Glove_F_Option" class="option" style="display: inherit; fill: rgb(63, 63, 63);"><path d="M408.7,1284.8c4.7-0.3,9.2-0.2,13.9,1c3.2,0.8,6.3,1.6,9.2,3.5c8.7,5.7,6.3,18-1.4,22.7 c-9,5.5-23.4,0.1-27.5-10.5C401.1,1297.1,406.4,1288.9,408.7,1284.8"/><path d="M424.6,1295.5c4.7-0.3,9.2-0.2,13.9,1c3.2,0.8,6.3,1.6,9.2,3.5c8.7,5.7,6.3,18-1.4,22.7 c-9,5.5-23.4,0.1-27.5-10.5C417,1307.8,422.3,1299.7,424.6,1295.5"/><path d="M436,1310.1c4.7,0.5,10.4,1.3,14.9,3.1c3.1,1.2,6.1,2.6,8.7,4.8c7.9,6.9,4.1,18.8-4.1,22.3 c-9.6,4.1-23.2-3.5-26-14.6C428.3,1321.2,436,1310.1,436,1310.1z"/><path d="M461.7,1144.4c0,0,13.7,21.4,17.2,36.8c2.5,10.8,1.2,36.8,4.3,54.2c3.2,17.4,6.1,27.1,6.1,27.1 s12.1,27.9,10,34.3c-2.1,6.4-12.7,12.1-18.8,8.7c-7.6-4.2-17-23.8-22.9-37.7c-6-14.1-11-34.1-11-34.1s-8.3,3.2-12.5,7 c-14.1,12.3-8,49.5-8,49.5s5.8,13.3,14.6,28.2c12,20.4,30.3,38,18.2,53.6c-11.3,14.6-37-23.7-37-23.7l-25.2-37.2 c0,0-28.9-54-30.4-64.5c-1.1-8-0.1-34.7-0.1-34.7l9-103.5l45.9,4.3l37.8,13.9L461.7,1144.4"/></g></g></g></g></g><g id="Biceps_Current" transform="translate(193,579)"><g id="LeftBiceps_Current"><g id="Left-Biceps_F"><g id="Basic_Biceps_Left_F_Option" class="option" style="display: inherit;"><path id="Main_Basic_Biceps_Left_F" d="M1200.1,549.5c-12.1-29.3-65.9-157.6-65.9-157.6s-88.4,36.5-110.4,45.6 c-6.2,2.6-9.2,9.7-6.6,16c10.4,25.2,35.8,86.8,51.7,125.1c3.6,8.7,10.5,15.6,19.1,19.2c8.7,3.6,18.4,3.6,27.1,0 c26-10.7,60.8-25.1,78.4-32.4C1199.7,562.9,1202.6,555.7,1200.1,549.5z" style="fill: rgb(208, 43, 43);"/><path id="Strap_Basic_Biceps_Left_F" d="M1040.8,510.3l-48.1,19.8l11.3,40.5l52.7-21.7L1040.8,510.3" style="fill: rgb(33, 33, 33);"/><path id="Trauma-Plate_Basic_Biceps_Left_F_ToggleOff" d="M1199.7,543.4l-56.1-135.9l-107.7,44.4l49.5,119.8 c1.8,4.3,5.2,7.7,9.4,9.4c4.3,1.8,9,1.8,13.3,0L1199.7,543.4" class="toggle" style="fill: rgb(53, 53, 53);"/></g></g></g><g id="RightBiceps_Current"><g id="Right-Biceps_F"><g id="Basic_Biceps_Right_F_Option" class="option" style="display: inherit;"><path id="Main_Basic_Biceps_Right_F" d="M214.2,549.5c12.1-29.3,65.9-157.6,65.9-157.6s88.4,36.5,110.4,45.6 c6.2,2.6,9.2,9.7,6.6,16c-10.4,25.2-35.8,86.8-51.7,125.1c-3.6,8.7-10.5,15.6-19.1,19.2c-8.7,3.6-18.4,3.6-27.1,0 c-26-10.7-60.8-25.1-78.4-32.4C214.6,562.9,211.7,555.7,214.2,549.5z" style="fill: rgb(208, 43, 43);"/><path id="Strap_Basic_Biceps_Right_F" d="M373.5,510.3l48.1,19.8l-11.3,40.5l-52.7-21.7L373.5,510.3" style="fill: rgb(33, 33, 33);"/><path id="Trauma-Plate_Basic_Biceps_Right_F_ToggleOff" d="M214.6,543.4l56.1-135.9l107.7,44.4l-49.4,119.8 c-1.8,4.3-5.1,7.7-9.4,9.4s-9.1,1.8-13.3,0L214.6,543.4" class="toggle" style="fill: rgb(53, 53, 53);"/></g></g></g></g><g id="Vest_Current" transform="translate(0,528)"><path id="Vest_F" d="M967.4,899.8c-43.9,9-90.3,9-134.1,0c-44.2-9.1-131-54.4-131-54.4S626.5,606.6,613,536.9 c-10.8-55.4-14.5-147.6-14.5-147.6l-129.9,87.4l-27.7-11.8c0,0,77.7-171.7,128.8-221.5c46.3-45,177.8-77,177.8-77 s58,63.7,152.8,64.2c90.2,0.4,152.8-64.2,152.8-64.2s131.6,32,177.8,77c51.1,49.8,128.8,221.5,128.8,221.5l-27.7,11.8l-129.9-87.4 c0,0-3.7,92.2-14.5,147.6c-13.6,69.7-89.3,308.6-89.3,308.6S1011.6,890.7,967.4,899.8z" style="fill: rgb(60, 60, 60);"/></g><g id="Upper-Body_F_Wrapper" transform="translate(193,565)"><g id="Chest_Current" class="Galaxy_F"><g id="Abdomen_Galaxy_F"><path id="Abdomen-Plate_Galaxy_F" d="M637.5,724.7l-20.6,15l-104.9-15l-7.6-58l49.7-1l30.1-49.2l13.7-45.3 l108.8-99.6l0.2,0.2l0.2-0.2l108.8,99.6l13.7,45.3l30.1,49.2l49.7,1l-7.6,58l-104.9,15l-20.6-15H637.5z" style="fill: rgb(67, 70, 157);"/><path id="Trauma-Plate_Abdomen_Galaxy_F_ToggleOff" d="M706.6,494.5l-94,86l-12.9,42.9l-36,58.9l-40,0.8l3.5,26.6 l85.5,12.2l19.5-14.2h149.4L801,722l85.5-12.2l3.5-26.6l-40-0.8l-36-58.9L801,580.6l-94-86l-0.2,0.2L706.6,494.5z" class="toggle" style="fill: rgb(53, 53, 53);"/></g><g id="Full-Chest_Galaxy_F"><path id="Chest-Plate_Galaxy_F" d="M663.1,327.1l-0.2,101.4l31.9,32.2L583,566.7l-14.5,48.9l-23.7,39h-40.9l-19.9-29 l-25.3-142.1l-37.1-58.1l47-152l54.2-6.9l7.6-33.6l58.1-7.1l18.3,30h199.7l18.3-30l58.1,7.1l7.6,33.6l54.2,6.9l47,152l-37.1,58.1 l-25.3,142.1l-19.9,29h-40.9l-23.7-39l-14.5-48.9L718.8,460.8l31.9-32.2l-0.2-101.4l-43.7-34L663.1,327.1z" style="fill: rgb(208, 43, 43);"/><path id="Trauma-Plating_Left-Chest_Galaxy_F_ToggleOff" d="M816.1,272.7H708l59.3,46.2l0.2,116.6l-24.6,24.9 l102.5,97.2l15.2,51.1l17.6,29h22.5l12.8-18.7l25.3-141.8l34.7-54.3L932,288.8l-55.2-7l-7.6-33.6l-35.5-4.3L816.1,272.7z" class="toggle" style="fill: rgb(53, 53, 53);"/><path id="Trauma-Plating_Right-Chest_Galaxy_F_ToggleOff" d="M579.8,243.9l-35.5,4.3l-7.6,33.6l-55.2,7l-41.5,134.1 l34.7,54.3L500,619l12.8,18.7h22.5l17.6-29l15.2-51.1l102.5-97.2L646,435.5l0.2-116.6l59.3-46.2H597.4L579.8,243.9z" class="toggle" style="fill: rgb(53, 53, 53);"/><g id="Accents_Chest-Plate_Galaxy_F_ToggleOn" class="toggle" style="fill: rgb(240, 40, 40);"><rect x="817.3" y="305.2" width="91.9" height="12.2"/><rect x="817.3" y="326.7" width="91.9" height="12.2"/></g></g><g id="Iron-Heart_Galaxy_F"><path id="Heart_Galaxy_F" d="M680,425.7v-91.3l26.8-21l26.8,21v91.3l-26.8,27.1L680,425.7z" style="fill: rgb(185, 125, 74);"/><rect id="Center_Heart_Galaxy_F_Option" x="697.5" y="348.4" width="18.6" height="62.5" class="option" style="display: inherit; fill: rgb(162, 139, 139);"/></g><g id="Neck-Armor_Galaxy_F"><g id="Neck-Plate_Galaxy_F" style="fill: rgb(208, 43, 43);"><path d="M684.4,245.9l-73.5,1.2l-18.1-29.7l-70.1,8.4l-7,30.7l-44.9,5.6l-33.1-114.2l114.8-34.4 c0,0,15.2,25.7,26.2,34.9c11.3,9.3,26.4,20.2,40.6,26.4c15.5,6.8,34.4,11.3,52.4,14.2c1.9,0.3,3.8,0.6,5.8,0.8L684.4,245.9z"/><path d="M729.1,245.9l73.5,1.2l18.1-29.7l70.1,8.4l7,30.7l44.9,5.6l33.1-114.2L861,113.5c0,0-15.2,25.7-26.2,34.9 c-11.3,9.3-26.4,20.2-40.6,26.4c-15.5,6.8-34.4,11.3-52.4,14.2c-1.9,0.3-3.8,0.6-5.8,0.8L729.1,245.9z"/></g><g id="Trauma-Plates_Neck_Galaxy_F_ToggleOff" class="toggle" style="fill: rgb(54, 54, 54);"><path d="M868.3,133.3c-6.2,9.3-15.4,22-22.8,28.1c-12.4,10.2-29,22.1-44.5,28.9c-14.8,6.5-32.4,11.1-49.7,14.3 l-3,24.8l45.1,0.7l18.7-30.7l92.7,11.1l7,30.8l18.9,2.3l24.5-84.3L868.3,133.3z"/><path d="M545.3,133.3l-86.6,26l24.5,84.3l18.9-2.3l7-30.8l92.7-11.1l18.7,30.7l45.1-0.7l-3-24.8 c-17.3-3.2-35-7.8-49.7-14.3c-15.5-6.8-32.2-18.7-44.5-28.9C560.7,155.3,551.5,142.6,545.3,133.3z"/></g></g></g><g id="Collar_Current"/><g id="ChestAttachments_Current"><g id="Chest-Attachments_F"><g id="No-Device_Accessories_Chest_F_Option" class="option" style="display: inherit;"></g></g></g><g id="Gauntlets_Current"><g id="LeftGauntlets_Current"><g id="Left-Gauntlets_F"><g id="Heavy_Gauntlet_Left_F_Option" class="option" style="display: inherit;"><g id="Top-2_Heavy_Gauntlet_Left_F" style="fill: rgb(67, 70, 157);"><path d="M1253.7,783.8l18.3,2.9l8,87.4l-16.7,11.8L1253.7,783.8z"/><path d="M1262.6,878.2l10,113.9l-11.2,12.8l6.3,67.1l-5,3.1l-17.6-183.5L1262.6,878.2z"/><path d="M1265.4,846.2c2.2,0.2,3.8,2.1,3.7,4.3c-0.2,2.2-2.1,3.8-4.3,3.7c-2.2-0.2-3.8-2.1-3.7-4.3 C1261.3,847.7,1263.2,846.1,1265.4,846.2z"/></g><g id="Top-1_Heavy_Gauntlet_Left_F" style="fill: rgb(53, 53, 53);"><path d="M1215.6,1083.7l47.1-8.7l-17.6-183.5l17.5-13.3l-9.4-100l-69.1-12.9L1215.6,1083.7z"/><path d="M1235.4,774.9l9.8,116.6"/></g><g id="Accent-Top_Heavy_Gauntlet_Left_F" style="fill: rgb(67, 70, 157);"><path d="M1251.8,1046.1l-29.8,3.5l2.6,23.2l29.9-4.5L1251.8,1046.1z"/><path d="M1241.2,948.8l-29.8,3.5l9.8,90.7l29.8-3.6L1241.2,948.8z"/><path d="M1228.6,780.9l-32.8-5.2l9.3,99.3l31.2-3.7L1228.6,780.9z"/></g><path id="Bottom_Heavy_Gauntlet_Left_F" d="M1184.6,770.1c-35.7-1.6-74,10.7-99.6,38.9c-8.3,9.1-11.6,21.7-9,33.7 c12.6,58.2,54.1,248.8,54.1,248.8l85.5-7.8L1184.6,770.1z" style="fill: rgb(53, 53, 53);"/><g id="Accent-Bottom_Heavy_Gauntlet_Left_F" style="fill: rgb(208, 43, 43);"><path d="M1215.6,1083.7l-85.5,7.8l-3.3-15.4l87.2-9.1L1215.6,1083.7z"/><path d="M1186.7,791.4c-46.3,0.9-86.1,14.4-108.2,62.8l-2.5-11.4c-2.1-9.5-0.4-19.3,4.4-27.5l4.9-6.6 c25.6-27.9,63.7-40.1,99.2-38.6L1186.7,791.4z"/><path d="M1175.9,776.3l-37.8,4.3l17.2,150l37.8-4.3L1175.9,776.3z"/><path d="M1171.3,779.6l-27.8,3.2l15.9,138.8l27.8-3.2L1171.3,779.6z"/><path d="M1143.4,782.8l-5.3-2.2"/><path d="M1175.9,776.3l-4.7,3.3"/><path d="M1193.1,926.3l-5.9-7.9"/><path d="M1155.3,930.6l4.7-9.1"/></g><g id="No-Device_Attachment_Heavy_Gauntlet_Left_F_Option" class="option" style="display: inherit;"></g></g></g></g><g id="RightGauntlets_Current"><g id="Right-Gauntlets_F"><g id="Basic_Gauntlet_Right_F_Option" class="option" style="display: inherit;"><path id="Top-2_Basic_Gauntlet_Right_F" d="M143.1,1106.4l-16.3-21.9l25.1-198.1l8.8,23l-12.2,90.3l9.5,21.4 L143.1,1106.4z" style="fill: rgb(67, 70, 157);"/><path id="Top-1_Basic_Gauntlet_Right_F" d="M151.9,886.5l8.8,23l-12.2,90.3l9.5,21.4l-14.8,85.3l10.7,14.4l-0.5,54.5 l16.9,3L186,1095l15-7l51.5-244.4l-95-2.1L151.9,886.5z" style="fill: rgb(53, 53, 53);"/><g id="Accent-Bottom_Basic_Gauntlet_Right_F" style="fill: rgb(208, 43, 43);"><path d="M294.3,912.4l21.4,5.2l-7.7,31.8l-21.4-5.2L294.3,912.4z"/><path d="M281,968.1l21.4,5.2l-7.7,31.8l-21.4-5.2L281,968.1z"/><path d="M267.2,1025.2l21.4,5.2l-7.7,31.8l-21.4-5.2L267.2,1025.2z"/></g><path id="Bottom_Basic_Gauntlet_Right_F" d="M315.5,917.5l5.8-24.3l-69.6-45.6L201,1088l72.3,7.2l21.4-90l-21.3-5.1 l7.7-31.8l21.2,5.1l5.7-23.9l-21.3-5.1l7.7-31.8L315.5,917.5z M267.2,1025.2l21.5,5.2l-7.6,31.9l-21.6-5.2L267.2,1025.2z" style="fill: rgb(53, 53, 53);"/><g id="Flamethrower_Attachment_Basic_Gauntlet_Right_F_Option" class="option" style="display: inherit;"><g id="Tubes_Flamethrower_Attachment_Basic_Gauntlet_Right_F" style="fill: rgb(156, 156, 156);"><path d="M140.7,852.1l8.8,1.1l-33,267.3l-8.8-1.1L140.7,852.1z"/><path d="M120.6,849.6l8.8,1.1l-23.7,191.6l-8.8-1.1L120.6,849.6z"/><path d="M137,868.6l12.1,1.5l-7.9,63.7l-12.1-1.5L137,868.6z"/><path d="M116.9,866.1l12.1,1.5l-7.9,63.7l-12.1-1.5L116.9,866.1z"/></g><g id="Main_Flamethrower_Attachment_Basic_Gauntlet_Right_F" style="fill: rgb(158, 158, 158);"><path d="M116.9,849.1l36.1,4.5l-2.1,16.8l-36.1-4.5L116.9,849.1z"/><path d="M106.1,929.4l37.7,4.7l-1.3,10.2l-37.7-4.7L106.1,929.4z"/><path d="M106.4,939.8l34.6,4.3l-0.6,5.1l-34.6-4.3L106.4,939.8z"/><path d="M140.8,927.3l5.8,0.9l-3.9,31.1l-5.8-0.9L140.8,927.3z"/></g><g id="Accent_Flamethrower_Attachment_Basic_Gauntlet_Right_F" style="fill: rgb(156, 154, 154);"><path d="M96.6,1041.1l9.4,1.2l-0.2,13.3l-12.3-1.5L96.6,1041.1z"/><path d="M101.4,972.6l16.7,2.1l-2.5,20.3l-16.7-2.1L101.4,972.6z"/><path d="M101.2,993.2l12.1,1.5l-2.5,20.3l-12.1-1.5L101.2,993.2z"/><path d="M110.2,1085.3l12.1,1.5l-3.4,27.8l-12.1-1.5L110.2,1085.3z"/><path d="M121.3,995.7l12.1,1.5l-4.7,37.8l-12.1-1.5L121.3,995.7z"/><path d="M106.2,1099l16.7,2.1l-0.7,5.4l-16.7-2.1L106.2,1099z"/></g><path id="Base_Flamethrower_Attachment_Basic_Gauntlet_Right_F" d="M146.6,928.2l10.6-84.3l-10.5,2.7l-17.9,142.6 l9.5,5.8l4.5-35.7l-5.8-0.9l3.9-31.1L146.6,928.2z" style="fill: rgb(158, 156, 156);"/></g></g></g></g></g></g><g id="Lower-Body_F_Wrapper" transform="translate(268,1285)"><g id="Knees_Current"><g id="LeftKnee_Current"><g id="Left-Knee_F"><g id="Heavy_Knee_Left_F_Option" class="option" style="display: inherit;"><g id="Missiles_Heavy-Knee_Left_F_ToggleOff" class="toggle" style=""><path id="Base_Missiles_Heavy-Knee_Left_F" d="M989.7,929.3l18.9,102l22.1-18c3.6-2.9,5.3-7.5,4.6-12.1 c-2.3-13.9-7.2-44-9.8-59.9c-1-6-6-10.5-12.1-10.8L989.7,929.3z" style="fill: rgb(53, 53, 53);"/><g id="Missile-2_Missiles_Heavy-Knee_Left_F" style="fill: rgb(170, 170, 170);"><path d="M1015,985.5c-5.9,1.6-9.3,7.6-7.7,13.4c1.6,5.9,7.7,9.4,13.6,7.8c5.9-1.5,9.3-7.6,7.7-13.4 C1027,987.4,1020.9,983.9,1015,985.5z"/><path d="M1016.1,989c-4,1-6.3,5.1-5.2,9c1.1,3.9,5.2,6.3,9.1,5.3c4-1,6.3-5.1,5.2-9 C1024.1,990.3,1020,987.9,1016.1,989z"/></g><g id="Missile-1_Missiles_Heavy-Knee_Left_F" style="fill: rgb(170, 170, 170);"><path d="M1007,938.3c-5.9,1.6-9.3,7.6-7.7,13.5c1.6,5.9,7.7,9.4,13.6,7.8s9.4-7.6,7.8-13.5 C1018.9,940.3,1012.8,936.8,1007,938.3z"/><path d="M1008,941.8c-4,1-6.3,5.1-5.2,9.1c1.1,3.9,5.2,6.3,9.1,5.3c4-1,6.3-5.1,5.2-9.1 C1016.1,943.1,1012,940.8,1008,941.8z"/></g></g><path id="Plate-2_Heavy-Knee_Left_F" d="M970.2,883L940,864.7l-151.1,26L766.9,918l29.6,151.5l59.5,1.4l84.9-14.6 l59-21.4L970.2,883z" style="fill: rgb(67, 70, 157);"/><g id="Plate-1_Heavy-Knee_Left_F" style="fill: rgb(53, 53, 53);"><path d="M962.9,891.4L935,873.7l-138.4,23.8l-19.9,26l28.6,146.2l50.6,1.3l84.9-14.6l50.6-18.7L962.9,891.4z"/><path d="M914.4,911.9l-84.9,14.6l26.4,144.4l44-1.7l40.9-12.9L914.4,911.9z"/><path d="M829.6,926.5l-32.9-29l-19.9,26L829.6,926.5z"/><path d="M914.4,911.9l20.6-38.2l27.9,17.7L914.4,911.9z"/></g><g id="Trim_Heavy-Knee_Left_F" style="fill: rgb(208, 43, 43);"><path d="M767.3,970l-4.7,11.5l16.7,91.5l6.6-1.1L767.3,970z"/><path d="M923.5,1013.1l-66.6,11.5l6.5,35.7l66.6-11.5L923.5,1013.1z"/><path d="M773.8,953.5l-9.3,1.6l21.4,116.7l10.9-1.9l-0.1-0.5l-0.2,0L773.8,953.5z"/><path d="M979.3,929.3l20.6,105.6l-1.9,0.7l10.9-1.9l-19.4-106.2L979.3,929.3z"/></g></g></g></g><g id="RightKnee_Current"><g id="Right-Knee_F"><g id="Heavy_Knee_Right_F_Option" class="option" style="display: inherit;"><g id="Missiles_Heavy-Knee_Right_F_ToggleOff" class="toggle" style=""><path id="Base_Missiles_Heavy-Knee_Right_F" d="M275.3,929.3l-18.8,102l-22.1-18c-3.6-2.9-5.3-7.5-4.6-12.1 c2.3-13.9,7.2-44,9.8-59.9c1-6,6-10.5,12.1-10.8L275.3,929.3z" style="fill: rgb(53, 53, 53);"/><g id="Missile-2_Missiles_Heavy-Knee_Right_F" style="fill: rgb(170, 170, 170);"><path d="M250,985.5c5.9,1.6,9.3,7.6,7.7,13.4c-1.6,5.9-7.7,9.4-13.6,7.8c-5.9-1.5-9.3-7.6-7.7-13.4 C238,987.4,244.1,983.9,250,985.5z"/><path d="M248.9,989c4,1,6.3,5.1,5.2,9c-1.1,3.9-5.2,6.3-9.1,5.3c-4-1-6.3-5.1-5.2-9S245,987.9,248.9,989z"/></g><g id="Missile-1_Missiles_Heavy-Knee_Right_F" style="fill: rgb(170, 170, 170);"><path d="M258,938.3c5.9,1.6,9.3,7.6,7.7,13.5c-1.6,5.9-7.7,9.4-13.6,7.8s-9.3-7.6-7.7-13.5S252.1,936.8,258,938.3z "/><path d="M257,941.8c4,1,6.3,5.1,5.2,9.1c-1.1,3.9-5.2,6.3-9.1,5.3c-4-1-6.3-5.1-5.2-9.1 C248.9,943.1,253,940.8,257,941.8z"/></g></g><path id="Plate-2_Heavy-Knee_Right_F" d="M294.8,883l30.3-18.3l151.1,26l21.9,27.3l-29.6,151.5l-59.5,1.4l-84.9-14.6 l-59-21.4L294.8,883z" style="fill: rgb(67, 70, 157);"/><g id="Plate-1_Heavy-Knee_Right_F" style="fill: rgb(53, 53, 53);"><path d="M302.1,891.4l27.9-17.7l138.4,23.8l19.9,26l-28.6,146.2l-50.6,1.3l-84.9-14.6l-50.6-18.7L302.1,891.4z"/><path d="M350.6,911.9l84.9,14.6L409,1070.9l-44-1.7l-40.9-12.9L350.6,911.9z"/><path d="M435.4,926.5l32.9-29l19.9,26L435.4,926.5z"/><path d="M350.6,911.9L330,873.7l-27.9,17.7L350.6,911.9z"/></g><g id="Trim_Heavy-Knee_Right_F" style="fill: rgb(208, 43, 43);"><path d="M497.7,970l4.7,11.5l-16.7,91.5l-6.6-1.1L497.7,970z"/><path d="M341.5,1013.1l66.6,11.5l-6.5,35.7l-66.6-11.5L341.5,1013.1z"/><path d="M491.2,953.5l9.3,1.6l-21.4,116.7l-10.9-1.9l0.1-0.5l0.2,0L491.2,953.5z"/><path d="M285.7,929.3l-20.6,105.6l1.9,0.7l-10.9-1.9l19.4-106.2L285.7,929.3z"/></g></g></g></g></g><g id="Shins_Current"><g id="LeftShin_Current"><g id="Left-Shin_F"><g id="Legacy_Shin_Left_F_Option" class="option" style="display: inherit;"><path id="Plate-3_Legacy-Shin_Left_F" d="M839.6,1324.8l35.4,165.9c0,0,51.6,12.9,79.8,10.9 c28.2-1.9,66.6-15.1,66.6-15.1l-7.6-177l-77.4,42.9L839.6,1324.8" style="fill: rgb(67, 70, 157);"/><path id="Plate-2_Legacy-Shin_Left_F" d="M812.2,1222.2l20.4,100.6l103.8,29.7l84.1-46.6l-3.1-100.7l-94,42.6 L812.2,1222.2" style="fill: rgb(208, 43, 43);"/><path id="Plate-1_Legacy-Shin_Left_F" d="M857.3,1084.3l-66.8,66.4l14.5,69.9l118.5,27.3l100.5-45.6l-2.3-85.3 l-75.3-41L857.3,1084.3" style="fill: rgb(67, 70, 157);"/><path id="Trauma-Plate-3_Legacy-Shin_Left_F_ToggleOff" d="M997.1,1339.5l-51.9,28.8c-4.2,2.3-9.1,2.9-13.7,1.6 l-68-19.4l26.7,125.5c15.7,3.5,44.9,9.2,63.4,7.9c16.4-1.1,36.5-6.4,49.2-10.2L997.1,1339.5" class="toggle" style="fill: rgb(53, 53, 53);"/><path id="Trauma-Plate-2_Legacy-Shin_Left_F_ToggleOff" d="M1000.2,1232.7l-69.4,31.4c-3.6,1.6-7.6,2-11.5,1.2 l-84-19.3l12.7,62.5l86.1,24.6l68-37.7L1000.2,1232.7" class="toggle" style="fill: rgb(53, 53, 53);"/><path id="Trauma-Plate-1_Legacy-Shin_Left_F_ToggleOff" d="M865.4,1101.6l-55.3,55l10.2,49l101.3,23.3l84.1-38.1 l-1.7-63l-61.4-33.5L865.4,1101.6" class="toggle" style="fill: rgb(53, 53, 53);"/><g id="Ridge_Legacy-Shin_Left_F_ToggleOff" class="toggle" style="fill: rgb(208, 43, 43);"><path d="M930.4,1501.4l6.2,0.6c-3.4-0.2-6.7-0.5-9.9-1L930.4,1501.4"/><path d="M956.8,1233.3l6.9,104.7l-27.3,15.2l-37.5-10.7l-16.7-103.5l41.2,9.5L956.8,1233.3"/><path d="M963.7,1337.9l10.7,161.1c-12.1,1.9-25.3,3.5-37.8,2.9l-6.2-0.6l-3.6-0.4l-2.4-0.3l-25.5-158.3l37.5,10.7 L963.7,1337.9"/><path d="M857.4,1084.8l-0.1-0.6l43.4-15l45.7,6.6l0,0.6l-0.1-0.1l-0.2,0l0.2,0l0.1,0.1l10.4,156.7l-33.4,15.1 l-41.2-9.5L857.4,1084.8"/><path d="M900.6,1069.3l22.8,179.1"/><path d="M923.4,1248.4l13,104.7"/><path d="M936.4,1353.1l16.7,148.6"/></g></g></g></g><g id="RightShin_Current"><g id="Right-Shin_F"><g id="Legacy_Shin_Right_F_Option" class="option" style="display: inherit;"><path id="Plate-3_Legacy-Shin_Right_F" d="M425.4,1324.8l-35.4,165.9c0,0-51.6,12.9-79.8,10.9 c-28.2-1.9-66.6-15.1-66.6-15.1l7.6-177l77.4,42.9L425.4,1324.8" style="fill: rgb(67, 70, 157);"/><path id="Plate-2_Legacy-Shin_Right_F" d="M452.8,1222.2l-20.4,100.7l-103.8,29.7l-84.1-46.6l3.1-100.7l94,42.6 L452.8,1222.2" style="fill: rgb(208, 43, 43);"/><path id="Plate-1_Legacy-Shin_Right_F" d="M407.8,1084.3l66.8,66.4l-14.5,69.9l-118.5,27.3l-100.5-45.6l2.3-85.3 l75.3-41L407.8,1084.3" style="fill: rgb(67, 70, 157);"/><path id="Trauma-Plate-3_Legacy-Shin_Right_F_ToggleOff" d="M268,1339.5l51.9,28.8c4.2,2.3,9.1,2.9,13.7,1.6l68-19.4 l-26.7,125.5c-15.7,3.5-44.9,9.2-63.4,7.9c-16.4-1.1-36.5-6.4-49.2-10.2L268,1339.5" class="toggle" style="fill: rgb(53, 53, 53);"/><path id="Trauma-Plate-2_Legacy-Shin_Right_F_ToggleOff" d="M264.8,1232.7l69.4,31.5c3.6,1.6,7.6,2,11.5,1.2l84-19.3 l-12.7,62.5l-86.2,24.6l-68-37.7L264.8,1232.7" class="toggle" style="fill: rgb(53, 53, 53);"/><path id="Trauma-Plate-1_Legacy-Shin_Right_F_ToggleOff" d="M399.7,1101.6l55.3,55l-10.2,49l-101.3,23.3l-84.1-38.1 l1.7-63l61.4-33.5L399.7,1101.6" class="toggle" style="fill: rgb(53, 53, 53);"/><g id="Ridge_Legacy-Shin_Right_F_ToggleOff" class="toggle" style="fill: rgb(208, 43, 43);"><path d="M334.6,1501.4l-6.2,0.6c3.4-0.2,6.7-0.4,9.9-1L334.6,1501.4"/><path d="M308.3,1233.2l-6.9,104.7l27.3,15.2l37.5-10.7l16.7-103.5l-41.2,9.5L308.3,1233.2"/><path d="M301.3,1337.9l-10.7,161.1c12.1,1.9,25.3,3.5,37.8,2.9l6.2-0.6l3.6-0.4l2.4-0.3l25.5-158.3l-37.5,10.7 L301.3,1337.9"/><path d="M407.7,1084.8l0.1-0.6l-43.4-15l-45.7,6.6l0,0.6l0.1,0l0.2,0l-0.2,0l-0.1,0l-10.4,156.7l33.4,15.1l41.2-9.5 L407.7,1084.8"/><path d="M364.4,1069.3l-22.8,179.1"/><path d="M341.6,1248.4l-13,104.7"/><path d="M328.6,1353.1l-16.7,148.6"/></g></g></g></g></g><g id="Ankles_Current"><g id="LeftAnkle_Current"><g id="Left-Ankle_F"><g id="Legacy_Ankle_Left_F_Option" class="option" style="display: inherit;"><path id="Plate-2_Legacy-Ankle_Left_F" d="M1035.7,1580l38.5,34.8l26.6,33.3l-42.4,13.8l-97.1-20.2l-35.5-47 L1035.7,1580" style="fill: rgb(67, 70, 157);"/><path id="Plate-1_Legacy-Ankle_Left_F" d="M860.9,1514.6c0,0,38.8,17.3,96.2,15.3c39.4-1.4,55.4-11.3,55.4-11.3 l33.3,61.8l-8.6,34.1l-140.5-11l-34.6-29.3L860.9,1514.6" style="fill: rgb(208, 43, 43);"/><path id="Trauma-Plate-2_Legacy-Ankle_Left_F_ToggleOff" d="M1044,1587.5l30,27.1l15.5,19.4l-32.3,10.5l-85.6-17.8 l-14-18.6l79.5,6.2L1044,1587.5" class="toggle" style="fill: rgb(53, 53, 53);"/><path id="Trauma-Plate-1_Legacy-Ankle_Left_F_ToggleOff" d="M875.6,1536.2l0.6,28.3l28,22.7l123.5,9.7l8.7-34.1 l-15.7-29.2c-10.4,3-42.1,12.1-62.8,12.9C924.8,1547.7,894,1541,875.6,1536.2" class="toggle" style="fill: rgb(53, 53, 53);"/></g></g></g><g id="RightAnkle_Current"><g id="Right-Ankle_F"><g id="Legacy_Ankle_Right_F_Option" class="option" style="display: inherit;"><path id="Plate-2_Legacy-Ankle_Right_F" d="M230,1580l-38.5,34.8l-26.6,33.3l42.4,13.8l97.1-20.2l35.5-47L230,1580" style="fill: rgb(67, 70, 157);"/><path id="Plate-1_Legacy-Ankle_Right_F" d="M404.7,1514.6c0,0-38.8,17.3-96.2,15.3c-39.4-1.4-55.4-11.3-55.4-11.3 l-33.3,61.8l8.6,34.1l140.5-11l34.6-29.3L404.7,1514.6" style="fill: rgb(208, 43, 43);"/><path id="Trauma-Plate-2_Legacy-Ankle_Right_F_ToggleOff" d="M221.7,1587.5l-30,27.1l-15.5,19.4l32.3,10.5l85.6-17.8 l14-18.6l-79.5,6.2L221.7,1587.5" class="toggle" style="fill: rgb(53, 53, 53);"/><path id="Trauma-Plate-1_Legacy-Ankle_Right_F_ToggleOff" d="M390,1536.2l-0.6,28.3l-28,22.7l-123.5,9.7l-8.7-34.1 l15.7-29.2c10.4,3,42.1,12.1,62.8,12.9C340.8,1547.7,371.6,1541,390,1536.2" class="toggle" style="fill: rgb(53, 53, 53);"/></g></g></g></g><g id="Toes_Current"><g id="LeftToe_Current"><g id="Left-Toe_F"><g id="None_Toe_Left_F_Option" class="option" style="display: inherit;"></g></g></g><g id="RightToe_Current"><g id="Right-Toe_F"><g id="None_Toe_Right_F_Option" class="option" style="display: inherit;"></g></g></g></g><g id="Thighs_Current"><g id="LeftThigh_Current"><g id="Left-Thigh_F"><g id="Basic_Thigh_Left_F_Option" class="option" style="display: inherit;"><path id="Thigh_Basic-Thigh_Left_F" d="M986.2,457.9c0,0-53.3-68.5-80.5-79.9c-25.8-10.8-60.3-6.1-82.5,11.6 c-33.8,27.1-111.4,85.7-120.2,151c-9.8,72.9,43.2,234.1,61.3,286.1c6.1,17.7,29.3,25.7,47,26.4c32.8,1.2,122.6-1.6,144.1-50 C984.5,737.3,986.2,457.9,986.2,457.9" style="fill: rgb(208, 43, 43);"/><path id="Trauma-Plate_Basic-Thigh_Left_F_ToggleOff" d="M968.2,464.1c-8-9.9-27.1-33.1-45.5-50.9 c-8.8-8.5-17.2-15.8-23.8-18.6c-20.1-8.4-47-4.8-64.3,9.1c-19.6,15.7-54.6,42.3-81.2,74.8c-16.1,19.7-29.4,41.6-32.5,64.5 c-9.5,70.8,42.9,227.2,60.4,277.8c1.5,4.4,5.7,7.2,10.1,9.3c6.5,3.2,14.1,4.7,20.6,5c18.4,0.7,55.9,0.2,87.2-10.2 c17.3-5.7,33.1-14.1,39.7-29.1c8.3-18.7,13.8-55.7,18.1-98.1C966.1,607.1,967.9,492.1,968.2,464.1" class="toggle" style="fill: rgb(53, 53, 53);"/><g id="Ridge_Basic-Thigh_Left_F_ToggleOff" class="toggle" style="fill: rgb(67, 70, 157);"><path d="M896.3,372.3l-36.8-9.5l-38.6,21.3l12.5,469.2c25.4,4.9,25.8,5.9,48.1-0.9L896.3,372.3"/><path d="M859.8,362.9l-1,494.3"/></g></g></g></g><g id="RightThigh_Current"><g id="Right-Thigh_F"><g id="Basic_Thigh_Right_F_Option" class="option" style="display: inherit;"><path id="Thigh_Basic-Thigh_Right_F" d="M278.8,457.9c0,0,53.3-68.5,80.5-79.9c25.8-10.8,60.3-6.1,82.5,11.6 c33.8,27.1,111.4,85.7,120.2,151c9.8,72.9-43.2,234.1-61.3,286.1c-6.1,17.7-29.3,25.7-47,26.4c-32.8,1.2-122.6-1.6-144.1-50 C280.5,737.3,278.8,457.9,278.8,457.9" style="fill: rgb(208, 43, 43);"/><path id="Trauma-Plate_Basic-Thigh_Right_F_ToggleOff" d="M296.8,464.1c8-9.9,27.1-33.1,45.5-50.9 c8.8-8.5,17.1-15.8,23.8-18.6c20.1-8.4,47-4.8,64.3,9.1c19.6,15.7,54.6,42.3,81.2,74.8c16.1,19.7,29.4,41.6,32.5,64.5 c9.5,70.8-42.9,227.2-60.4,277.8c-1.5,4.4-5.7,7.2-10.1,9.3c-6.5,3.2-14.1,4.7-20.6,5c-18.4,0.7-55.9,0.2-87.2-10.2 c-17.3-5.7-33.1-14.1-39.7-29.1c-8.3-18.7-13.8-55.7-18.1-98.1C298.9,607.1,297.1,492.1,296.8,464.1" class="toggle" style="fill: rgb(53, 53, 53);"/><g id="Ridge_Basic-Thigh_Right_F_ToggleOff" class="toggle" style="fill: rgb(67, 70, 157);"><path d="M368.7,372.3l36.8-9.5l38.6,21.3l-12.5,469.2c-25.4,4.9-25.8,5.9-48.1-0.9L368.7,372.3"/><path d="M405.2,362.9l1,494.3"/></g></g></g></g></g><g id="Groin_Current"><g id="Groin_F"><g id="Basic_Groin_F_Option" class="option" style="display: inherit;"><path id="Groin-Plate_Basic_F" d="M566.9,360L456.1,137.4h354.3L699.6,360c0,0-44.2,53-66.4,53 C611.1,413.1,566.9,360,566.9,360z" style="fill: rgb(67, 70, 157);"/><path id="Trauma-Plating_Groin_F_ToggleOff" d="M687.8,352.3l100-200.9H478.7l100,200.9c4.4,5.1,22,25.4,38.9,38.2 c5.9,4.5,11.2,8.6,15.6,8.6c4.4,0,9.7-4.1,15.6-8.6C665.8,377.7,683.5,357.4,687.8,352.3" class="toggle" style="fill: rgb(53, 53, 53);"/></g></g></g><g id="Waist_Current" class="F"><g id="Accessories_Waist_F"><g id="Right-Holster_F_ToggleOff" class="toggle" style=""><g id="Hanging-Holster_Right_F_Option" class="option" style="display: inherit;"><g id="Weapon_Hanging-Holster-Right_F"><g id="Main_Weapon_Hanging-Holster-Right_F" style="fill: rgb(73, 73, 73);"><path d="M291.4,472.1l-1.8-38.4l-6.6,0.3l-1.1-24.1l6.6-0.3L288,397c-0.2-4.1-5.8-7.1-12.5-6.8 c-15.4,0.7-41.6,1.9-57,2.6c-6.7,0.3-12,3.9-11.8,7.9l0.6,12.6l6.6-0.3l1.1,24.1l-6.6,0.3l1.8,38.4l15.5-0.7l4.9,106.2 l50.2-2.3l-4.9-106.2L291.4,472.1z"/><path d="M216.5,469.9l8.9-0.4l5.9,127.7l50.2-2.3l-5.9-127.7l8.9-0.4l-1.3-29.1l-68.1,3.1L216.5,469.9z"/><path d="M227.2,400.8l40.3-1.9l1.8,39.4l-40.3,1.9L227.2,400.8z"/><path d="M264.6,479.2l6.6-0.3l4.6,100.4l-6.6,0.3L264.6,479.2z"/><path d="M246.7,457.1l6.6-0.3l4.6,100.4l-6.6,0.3L246.7,457.1z"/><path d="M230.9,480.8l6.6-0.3l4.6,100.4l-6.6,0.3L230.9,480.8z"/></g><g id="Accent_Weapon_Hanging-Holster-Right_F" style="fill: rgb(67, 70, 157);"><path d="M263.6,442.6l0.2,4l-28.4,1.3l-0.2-4L263.6,442.6z"/><path d="M263.8,446.6l0.2,4l-28.4,1.3l-0.2-4L263.8,446.6z"/><path d="M263.4,438.6l0.2,4l-28.4,1.3l-0.2-4L263.4,438.6z"/><path d="M261.1,389.1l0.2,4l-28.4,1.3l-0.2-4L261.1,389.1z"/><path d="M260.9,399.2l6.6-0.3l1.8,39.4l-6.6,0.3L260.9,399.2z"/><path d="M227.2,400.8l6.6-0.3l1.8,39.4l-6.6,0.3L227.2,400.8z"/><path d="M237.5,480.5l10-0.5l4.6,100.4l-10,0.5L237.5,480.5z"/><path d="M254.5,479.7l10-0.5l4.6,100.4l-10,0.5L254.5,479.7z"/></g></g><path id="Holster_Hanging-Holster-Right_F" d="M291,620.1l8.1-161.7l-74.7,121.7l16.5,220 c17.4,18.3,34.6,18.4,51.4-2L291,620.1z" style="fill: rgb(92, 91, 91);"/><g id="Straps_Hanging-Holster-Right_F" style="fill: rgb(67, 66, 66);"><path d="M576.8,197.5c-81.7,117.2-164,216.5-277.7,260.9l-1.4,27.7c141.4-59.6,217.2-160.6,300.8-288.6H576.8z"/><path d="M291.5,652.9c76.4,58.5,159,90.4,258,95.7l-7,21.9c-85.6-7.8-165.5-39.5-251-94.5V652.9z"/><path d="M291.5,676.1l-0.2-23.1c-19.9,8.8-43,9.5-61.2,3l1.8,23.6C251.5,684.6,273.7,684.9,291.5,676.1z"/></g><g id="Buckle_Hanging-Holster-Right_F" style="fill: rgb(116, 116, 116);"><path d="M470.2,747.5l10.7,1.6l-0.5,3.5l-10.7-1.6L470.2,747.5"/><path d="M499.4,315.9l7.4-9.8l2.8,2.1l-7.4,9.8L499.4,315.9"/><path d="M502.2,318.1l12.1,9.8l28.6-35.3l-27.6-22.3l-28.6,35.3l12.6,10.2l6.1-8.1l-6.2-5l15.8-19.5l15.2,12.3 L514.6,315l-6.2-5.1L502.2,318.1"/><path d="M470.5,747.6l8.5,1.3l1.2-8.3l20.6,4.4l-2.9,19.3l-20.6-4.4l1.1-7.5l-8.5-1.3l-2.2,14.8l37.3,8l5.2-35 l-37.3-8L470.5,747.6"/></g></g></g></g><g id="Under-Belt_F"><g id="Girth-Belt_F_Option" class="option" style="display: inherit; fill: rgb(99, 99, 99);"><path d="M632.9,72.8c-75.2,0-225.5-19.1-225.5-19.1l4.9-16.2c0,0,146.6,12.7,220.6,19.1 c73.6-6.4,220.6-19.1,220.6-19.1l4.9,16.2C858.4,53.7,708.1,72.8,632.9,72.8z"/><path d="M632.9,89c-76.7,0-230.2-19.1-230.2-19.1l4.7-16.2c0,0,187.9,16,225.5,19.1c37.6-3.2,225.5-19.1,225.5-19.1 l4.7,16.2C863.1,69.9,709.6,89,632.9,89z"/><path d="M632.9,105.2c-77.9,0-233.7-19.1-233.7-19.1l3.5-16.2c0,0,191.8,15.9,230.2,19.1 c38.4-3.2,230.2-19.1,230.2-19.1l3.5,16.2C866.6,86.1,710.8,105.2,632.9,105.2z"/><path d="M632.9,121.4c-78.9,0-236.6-19.1-236.6-19.1l2.9-16.2c0,0,194.7,16,233.7,19.1 c38.9-3.2,233.7-19.1,233.7-19.1l2.9,16.2C869.5,102.3,711.8,121.4,632.9,121.4z"/><path d="M632.9,137.7c-79.8,0-239.3-19.1-239.3-19.1l2.7-16.2c0,0,197.2,15.9,236.6,19.1 c39.4-3.2,236.6-19.1,236.6-19.1l2.7,16.2C872.2,118.5,712.7,137.7,632.9,137.7z"/><path d="M632.9,153.9c-80.6,0-241.8-19.1-241.8-19.1l2.5-16.2c0,0,199.4,15.9,239.3,19.1 c39.9-3.2,239.3-19.1,239.3-19.1l2.5,16.2C874.7,134.7,713.5,153.9,632.9,153.9z"/><path d="M632.9,170.1c-81.4,0-244.3-19.1-244.3-19.1l2.5-16.2c0,0,201.5,15.9,241.8,19.1 c40.3-3.2,241.8-19.1,241.8-19.1l2.5,16.2C877.2,150.9,714.3,170.1,632.9,170.1z"/><path d="M632.9,186.3c-82.3,0-246.8-19.1-246.8-19.1l2.5-16.2c0,0,203.6,15.9,244.3,19.1 c40.7-3.2,244.3-19.1,244.3-19.1l2.5,16.2C879.7,167.2,715.2,186.3,632.9,186.3z"/><path d="M632.9,202.5c-83.2,0-249.6-19.1-249.6-19.1l2.8-16.2c0,0,205.7,15.9,246.8,19.1 c41.1-3.2,246.8-19.1,246.8-19.1l2.8,16.2C882.5,183.4,716.1,202.5,632.9,202.5z"/><path d="M632.9,218.7c-84.3,0-252.8-19.1-252.8-19.1l3.2-16.2c0,0,208,16,249.6,19.1c41.6-3.2,249.6-19.1,249.6-19.1 l3.2,16.2C885.7,199.6,717.2,218.7,632.9,218.7z"/></g></g><g id="Belt_F"><g id="Pouch-Belt-4_F_Option" class="option" style="display: inherit;"><path id="Main_Pouch-Belt-4_F" d="M881.3,151.2c-55.9,5-183.5,23.3-247.9,23.3c-65.1,0-192.7-18.4-247.8-23.2 l8.2-65.4c45.3,4,176.6,22.6,239.6,22.6c61.2,0,189.7-18.4,238.1-22.8L881.3,151.2z" style="fill: rgb(62, 62, 62);"/><rect id="Buckle_Pouch-Belt-4_F" x="587.7" y="102.2" width="92.4" height="75.8" style="fill: rgb(165, 165, 165);"/><g id="Pouches_Pouch-Belt-4_F" style="fill: rgb(110, 107, 107);"><g><g><path d="M427.4,73.1c-3.3-0.2-6.6,0.4-9.6,1.7c-5.6,2.4-14.2,6.2-14.2,6.2l60.4,3.5l16.4-7.8 C480.4,76.7,441.5,74.1,427.4,73.1z"/><path d="M482.4,80c0.1-0.9-0.3-1.8-1.1-2.4c-0.8-0.5-1.7-0.6-2.6-0.2c-5.5,2.6-14.7,7-14.7,7l-8.4,102.3 c4.9-3.1,9.7-5.2,14.5-6.6c4-1.1,6.9-4.7,7-8.9C478.2,140.8,479.5,110.4,482.4,80z"/><path d="M464,84.5L403.6,81c-0.5,15.5-1.9,31-2.7,46.6c-0.9,16.7-1.3,33.4-2.7,50.3c-0.1,1.6,0.4,3.2,1.5,4.4 c1.1,1.2,2.6,1.9,4.3,1.8c16.1-0.1,32.2,0.9,48.2,2.8c1.5,0.2,3.1-0.3,4.3-1.2c1.2-1,1.9-2.4,2-3.9c0.9-13,2.9-42.6,2.9-42.6 L464,84.5z"/><path d="M464,84.5L403.6,81c0,0-1,8.8-2.2,19c-0.9,8,1.5,16,6.7,22.2c5.2,6.2,12.7,9.9,20.7,10.4 c1.4,0.1,2.8,0.2,4.2,0.2c8.1,0.5,16-2.4,21.8-8c5.9-5.5,9.2-13.3,9.2-21.3C464,93.3,464,84.5,464,84.5z"/><path d="M431.7,120.5c2.1,0.1,3.8,2.1,3.6,4.5c-0.1,2.3-2,4.2-4.1,4c-2.1-0.1-3.8-2.1-3.6-4.5 C427.7,122.2,429.5,120.4,431.7,120.5z"/></g></g><g><path d="M365.4,79.8l4.5-7l23.2,0.8l2.9,8.7L365.4,79.8z"/><path d="M395.7,83.8c0.1-0.7-0.1-1.4-0.6-2c-0.5-0.5-1.1-0.9-1.9-0.9c-7.5-0.3-27.9-1.1-27.9-1.1l-4.1,92 c0.8,2.1,10.7,3.5,19.5,3.9c2.6,0.1,5.1-0.8,7-2.6c1.9-1.8,3-4.2,3.1-6.8C391.5,138.8,392.6,111.2,395.7,83.8z"/></g><g><g><path d="M839.4,73.1c3.3-0.2,6.6,0.4,9.7,1.7c5.6,2.4,14.2,6.2,14.2,6.2l-60.4,3.5l-16.4-7.8 C786.5,76.7,825.3,74.1,839.4,73.1z"/><path d="M784.4,80c-0.1-0.9,0.3-1.8,1.1-2.4c0.8-0.5,1.7-0.6,2.6-0.2c5.5,2.6,14.7,7,14.7,7l8.4,102.3 c-4.9-3.1-9.7-5.2-14.5-6.6c-4-1.1-6.9-4.7-7-8.9C788.6,140.8,787.4,110.4,784.4,80z"/><path d="M802.9,84.5l60.4-3.5c0.5,15.5,1.9,31,2.7,46.6c0.9,16.7,1.3,33.4,2.7,50.3c0.1,1.6-0.4,3.2-1.5,4.4 s-2.6,1.9-4.3,1.8c-16.1-0.1-32.2,0.9-48.2,2.8c-1.5,0.2-3.1-0.3-4.3-1.2c-1.2-1-1.9-2.4-2-3.9c-0.9-13-2.9-42.6-2.9-42.6 L802.9,84.5z"/><path d="M802.9,84.5l60.4-3.5c0,0,1,8.8,2.2,19c0.9,8-1.5,16-6.7,22.2c-5.2,6.2-12.7,9.9-20.7,10.4 c-1.4,0.1-2.8,0.2-4.2,0.2c-8.1,0.5-16-2.4-21.8-8c-5.9-5.5-9.2-13.3-9.2-21.3C802.8,93.3,802.9,84.5,802.9,84.5z"/><path d="M835.2,120.5c-2.1,0.1-3.8,2.1-3.6,4.5c0.1,2.3,2,4.2,4.1,4c2.1-0.1,3.8-2.1,3.6-4.5 C839.2,122.2,837.3,120.4,835.2,120.5z"/></g></g><g><path d="M901.5,79.8l-4.5-7l-23.2,0.8l-2.9,8.7L901.5,79.8z"/><path d="M871.1,83.8c-0.1-0.7,0.1-1.4,0.6-2c0.5-0.5,1.1-0.9,1.9-0.9c7.5-0.3,27.9-1.1,27.9-1.1l4.1,92 c-0.8,2.1-10.7,3.5-19.5,3.9c-2.6,0.1-5.1-0.8-7-2.6c-1.9-1.8-3-4.2-3.1-6.8C875.3,138.8,874.3,111.2,871.1,83.8z"/></g></g></g></g></g></g><g id="Helmet_F_Wrapper" transform="translate(550,35)"><g id="Helmet_Current" class="Ramikadyc"><g id="Left-Earcap_Ramikadyc_Toggle" class="toggle"><path id="Ear-Cap_Left_Ramikadyc" d="M522,353.5l29.2,10.8c0,0,8,36.8,8.7,67.5c0.7,30.7-8.3,66.4-8.3,66.4l-18.3,8.5 l-0.6-128.6L522,353.5z" style="fill: rgb(220, 59, 59);"/></g><g id="Right-Earcap_Ramikadyc_Toggle" class="toggle"><path id="Ear-Cap_Right_Ramikadyc" d="M178.7,353.5l-29.2,10.8c0,0-8,36.8-8.7,67.5c-0.7,30.7,8.3,66.4,8.3,66.4 l18.3,8.5l0.6-128.6L178.7,353.5z" style="fill: rgb(220, 59, 59);"/></g><g id="Helmet_Pieces_Ramikadyc"><g id="Mouth_Ramikadyc" style="fill: rgb(53, 53, 53);"><path d="M316.2,693.2c0,0,1-29.5-2-43.9c-3-14.4-7-30.8-7-30.8l41.7-17.3h0.6l41.7,17.3c0,0-4,16.4-7,30.8 c-3,14.4-2,43.9-2,43.9H316.2z"/><path d="M349.2,601.2V670"/><path d="M316.2,693.2l0.2-10l32.6-12.9V670l0.3,0.1l0.3-0.1v0.2l32.6,12.9l0.2,10H316.2z"/></g><g id="Face_Ramikadyc" style="fill: rgb(53, 53, 53);"><path d="M391.2,618.5l2.1,0.3c45.8-50.3,76.5-99.4,88.3-146.9l45.5-39.7l6.1-14l0-0.3l0,0v112.5 c0,0-33.5,70.4-69.4,104.7c-23.9,22.8-80.9,58.3-80.9,58.3h-0.8c0,0-1-29.5,2-43.9C387.2,634.9,391.2,618.5,391.2,618.5z"/><path d="M307.2,618.5l-2.1,0.3c-45.8-50.3-76.5-99.4-88.3-146.9l-45.5-39.7l-6.1-14l0-0.3l0,0v112.5 c0,0,33.5,70.4,69.4,104.7c23.9,22.8,80.9,58.3,80.9,58.3h0.8c0,0,1-29.5-2-43.9C311.2,634.9,307.2,618.5,307.2,618.5z"/></g><g id="Cheeks-2_Ramikadyc" style="fill: rgb(163, 163, 163);"><path d="M194,496.9l84.5,102.3c0,0,15,20,11.2,42.7c-3.7,22.7-14.6,24.3-14.6,24.3l-22.7-7.8l-84.3-95.7 c0,0-12.3-12-10.4-36.6c0.9-12.2,22.9-32,22.9-32S187.4,489.9,194,496.9z"/><path d="M158.6,522.3c0,0,3.8-9.8,9.4-9.2c5.7,0.6,43.6,44.8,43.6,44.8s45.9,49.5,48.3,53.6 c7.3,12.5,6.8,26.7,5.3,32.6c-3,11.9-12.9,14.2-12.9,14.2l-84.3-95.7C168.2,562.8,152.9,545.3,158.6,522.3z"/><path d="M160.8,526.1c1-3.8,2.9-8.6,6.7-9.2c4.7-0.7,37.5,38.3,37.5,38.3s37.2,40.4,39.2,43.9 c6.1,10.5,5.7,22.3,4.4,27.2c-2.5,9.9-10.7,11.9-10.7,11.9l-69.6-80.3C168.3,557.7,157.3,540.1,160.8,526.1z"/><path d="M506.7,496.9l-84.5,102.3c0,0-15,20-11.2,42.7c3.7,22.7,14.6,24.3,14.6,24.3l22.7-7.8l84.3-95.7 c0,0,12.3-12,10.4-36.6c-0.9-12.2-22.9-32-22.9-32S513.4,489.9,506.7,496.9z"/><path d="M542.1,522.3c0,0-3.8-9.8-9.5-9.2C527,513.8,489,558,489,558s-45.9,49.5-48.3,53.6 c-7.3,12.5-6.8,26.7-5.3,32.6c3,11.9,12.9,14.2,12.9,14.2l84.3-95.7C532.5,562.8,547.9,545.3,542.1,522.3z"/><path d="M539.9,526.1c-1-3.8-2.9-8.6-6.7-9.2c-4.7-0.7-37.5,38.3-37.5,38.3s-37.2,40.4-39.2,43.9 c-6.1,10.5-5.7,22.3-4.4,27.2c2.5,9.9,10.7,11.9,10.7,11.9l69.6-80.3C532.4,557.7,543.5,540.1,539.9,526.1z"/></g><g id="Cheeks-1_Ramikadyc" style="fill: rgb(163, 163, 163);"><path d="M222.8,599.2c8.5-3,20.5,7.5,26.7,23.3c6.2,15.8,4.3,31-4.2,34c-8.5,3-20.5-7.5-26.7-23.3 C212.3,617.3,214.2,602.1,222.8,599.2z"/><path d="M223.5,603.5c6.9-2.4,16.8,6.7,22.1,20.3c5.3,13.6,4.1,26.5-2.8,28.9c-6.9,2.4-16.8-6.7-22.1-20.3 C215.4,618.8,216.6,605.9,223.5,603.5z"/><path d="M226.9,614.4c3.8-1.3,9.3,3.7,12.3,11.3c3,7.6,2.3,14.8-1.6,16.1c-3.8,1.3-9.3-3.7-12.3-11.3 C222.4,622.9,223.1,615.7,226.9,614.4z"/><path d="M228.2,619.4c2.6-0.9,6.2,2.5,8.2,7.5c2,5.1,1.5,9.9-1,10.8c-2.6,0.9-6.2-2.5-8.2-7.5 S225.7,620.3,228.2,619.4z"/><path d="M243.9,593.1c9.6,10.6,15.2,16.8,16.2,18.5c7.3,12.5,6.8,26.7,5.3,32.6c-1.6,6.5-6.1,12.6-12.9,14.2 l-9.7-1.6c2.2-0.4,4.2-1.3,5.9-2.7c5.4-5.5,5.9-18.4,0.7-31.7c-6.2-15.8-18.1-26.2-26.7-23.3L243.9,593.1z"/><path d="M478,599.2c-8.5-3-20.5,7.5-26.7,23.3c-6.2,15.8-4.3,31,4.2,34c8.5,3,20.5-7.5,26.7-23.3 C488.4,617.3,486.5,602.1,478,599.2z"/><path d="M477.2,603.5c-6.9-2.4-16.8,6.7-22.1,20.3c-5.3,13.6-4.1,26.5,2.8,28.9c6.9,2.4,16.8-6.7,22.1-20.3 C485.3,618.8,484.1,605.9,477.2,603.5z"/><path d="M473.8,614.4c-3.8-1.3-9.3,3.7-12.3,11.3c-3,7.6-2.3,14.8,1.6,16.1c3.8,1.3,9.3-3.7,12.3-11.3 C478.3,622.9,477.6,615.7,473.8,614.4z"/><path d="M472.5,619.4c-2.6-0.9-6.2,2.5-8.2,7.5c-2,5.1-1.5,9.9,1,10.8c2.6,0.9,6.2-2.5,8.2-7.5 S475.1,620.3,472.5,619.4z"/><path d="M456.9,593.1c-9.6,10.6-15.2,16.8-16.2,18.5c-7.3,12.5-6.8,26.7-5.3,32.6c1.6,6.5,6.1,12.6,12.9,14.2 l9.7-1.6c-2.2-0.4-4.2-1.3-5.9-2.7c-5.4-5.5-5.9-18.4-0.7-31.7c6.2-15.8,18.1-26.2,26.7-23.3L456.9,593.1z"/></g><path id="Visor_Ramikadyc" d="M346.7,594v-9.5l-16.4-31.8l-2.6-93.8l-33.6-14.3l-13.3,5.6l-89.3-49.1l-12.9-51.3 c53.5,31,170.6,72.9,170.6,72.9s117.5-42.2,170.6-72.9l-12.9,51.3l-89.3,49.1l-13.3-5.6l-33.6,14.3l-2.6,93.8l-16.4,31.8v9.5 l41.6,24.7l-2.1-0.3l-42-17.3l-42,17.3h-2.1L346.7,594z M349.2,592.6L349.2,592.6z" style="fill: rgb(0, 0, 0);"/><g id="Eyes_Ramikadyc" style="fill: rgb(67, 70, 157);"><path d="M520.5,350l12.3,28.1l0.6,39.7l-6.1,14l-45.5,39.7c-11.8,47.5-42.5,96.6-88.3,146.9l-41.2-25.2l0-0.1 l0.3,0.1v-8.7l16.4-31.8l2.6-93.8l33.6-14.3l13.3,5.6l89.3-49.1L520.5,350z M520.5,349.8l-0.4,0.2L520.5,349.8L520.5,349.8z"/><path d="M177.9,350l-12.3,28.1l-0.6,39.7l6.1,14l45.5,39.7c11.8,47.5,42.5,96.6,88.3,146.9l41.2-25.2l0-0.1l-0.3,0.1 v-8.7l-16.4-31.8l-2.6-93.8l-33.6-14.3l-13.3,5.6l-89.3-49.1L177.9,350z M178,349.8l0.4,0.2L178,349.8L178,349.8z"/></g><g id="Dome-2_Ramikadyc" style="fill: rgb(67, 70, 157);"><path d="M394.9,405.5l-23.1-20.2l-2.8-29.8l31.1-28.2l30-101.9L449,226l5-29.8l-15-11l5.6-13.1 c0,0,59.4,44.9,65,55.4c5.6,10.5,9.4,117.1,8.3,122.3c-0.1,0.4-0.4,0.9-0.9,1.6C485,369.4,432.7,390.9,394.9,405.5z"/><path d="M181.5,351.4c-0.5-0.7-0.8-1.2-0.9-1.6c-1.2-5.2,2.7-111.8,8.3-122.3c5.6-10.5,65-55.4,65-55.4l5.6,13.1 l-15,11l5,29.8l18.9-0.5l30,101.9l31.1,28.2l-2.8,29.8l-23.1,20.2C265.9,390.9,213.6,369.5,181.5,351.4z"/></g><g id="Dome-1_Ramikadyc" style="fill: rgb(53, 53, 53);"><path d="M188.5,228.6c-5.3,15-9,116.2-7.9,121.2c0.1,0.4,0.4,0.9,0.9,1.6c0.6,0.3-14.7,6.5-14.7,6.5 C169.9,302.3,174,249.7,188.5,228.6L188.5,228.6z"/><path d="M510.1,228.6c5.3,15,9,116.2,7.9,121.2c-0.1,0.4-0.4,0.9-0.9,1.6c-0.6,0.3,14.7,6.5,14.7,6.5 C528.7,302.3,524.6,249.7,510.1,228.6L510.1,228.6z"/><path d="M303.5,405.5l23.1-20.2l2.8-29.8l-31.1-28.2l-30-101.9l-18.9,0.5l-5-29.8l15-11l-5.6-13.1 c40.1-19.1,87-22.1,94.8-22.4v0l1,0c0,0,0.1,0,0.1,0v0c7.8,0.4,54.7,3.3,94.8,22.4l-5.6,13.1l15,11l-5,29.8l-18.9-0.5l-30,101.9 L369,355.6l2.8,29.8l23.1,20.2c-12.6,4.9-23.5,9-31.5,12l-13.6,4.4v0.4l-0.6-0.2l-0.6,0.2v-0.4l-13.8-4.5 C326.8,414.5,316,410.4,303.5,405.5z"/></g></g></g></g><g id="Shoulders_Current" transform="translate(193,565)"><g id="LeftShoulder_Current"><g id="Left-Shoulder_F"><g id="Legacy-x3_Shoulder_Left_F_Option" class="option" style="display: inherit;"><path id="Plate-3_Shoulder_Left_Legacy-x3_F" d="M1034,203.1l-77.7,79.6l45.5,98.6l102.3-5.4l54.2,49.7l48.2-3.4 L1034,203.1z" style="fill: rgb(208, 43, 43);"/><path id="Trauma-Plate-3_Shoulder_Legacy-x3_Left_F_ToggleOff" d="M1164.8,407.1l31.2-2.2l-148.8-189.6l-69.4,71.1 l35.2,76.3l94.3-5.9L1164.8,407.1z" class="toggle" style="fill: rgb(53, 53, 53);"/><path id="Plate-2_Shoulder_Left_Legacy-x3_F" d="M992,153.8l-61.5,92.7l63.1,88.4l99.6-24.4l62.5,38.7l46.8-12.3 L992,153.8z" style="fill: rgb(67, 70, 157);"/><path id="Trauma-Plate-2_Shoulder_Legacy-x3_Left_F_ToggleOff" d="M1158.4,329.9l30.2-7.9l-181.3-158.9l-55,82.6 l48.7,68.5l91.6-23.2L1158.4,329.9z" class="toggle" style="fill: rgb(53, 53, 53);"/><path id="Plate-1_Shoulder_Left_Legacy-x3_F" d="M916.3,106.4l-27.7,107.7l88.6,62.8l86-55.7l71.7,16.1l40.1-27 L916.3,106.4z" style="fill: rgb(208, 43, 43);"/><path id="Trauma-Plate-1_Shoulder_Legacy-x3_Left_F_ToggleOff" d="M1131.4,218.1l25.9-17.4l-223.5-90.2l-24.7,96.2 l68.6,48.6l78.8-52.1L1131.4,218.1z" class="toggle" style="fill: rgb(53, 53, 53);"/></g></g></g><g id="RightShoulder_Current"><g id="Right-Shoulder_F"><g id="Legacy-x3_Shoulder_Right_F_Option" class="option" style="display: inherit;"><path id="Plate-3_Shoulder_Right_Legacy-x3_F" d="M380.2,203.1l77.7,79.6l-45.5,98.6L310,375.9l-54.2,49.7l-48.2-3.4 L380.2,203.1z" style="fill: rgb(208, 43, 43);"/><path id="Trauma-Plate-3_Shoulder_Legacy-x3_Right_F_ToggleOff" d="M249.4,407.1l-31.2-2.2L367,215.4l69.4,71.1 l-35.2,76.3l-94.3-5.9L249.4,407.1z" class="toggle" style="fill: rgb(53, 53, 53);"/><path id="Plate-2_Shoulder_Right_Legacy-x3_F" d="M422.2,153.8l61.5,92.7l-63.1,88.4l-99.6-24.4l-62.5,38.7 L211.8,337L422.2,153.8z" style="fill: rgb(67, 70, 157);"/><path id="Trauma-Plate-2_Shoulder_Legacy-x3_Right_F_ToggleOff" d="M255.8,329.9l-30.2-7.9l181.2-158.9l55,82.6 l-48.7,68.5l-91.6-23.2L255.8,329.9z" class="toggle" style="fill: rgb(53, 53, 53);"/><path id="Plate-1_Shoulder_Right_Legacy-x3_F" d="M497.9,106.4l27.7,107.7L437,277l-86-55.7l-71.7,16.1l-40.1-27 L497.9,106.4z" style="fill: rgb(208, 43, 43);"/><path id="Trauma-Plate-1_Shoulder_Legacy-x3_Right_F_ToggleOff" d="M282.8,218.1l-25.9-17.4l223.5-90.2l24.7,96.2 l-68.6,48.6l-78.8-52.1L282.8,218.1z" class="toggle" style="fill: rgb(53, 53, 53);"/></g></g></g></g></svg>
