<svg id="Female-Body" viewBox="0 0 1800 3300" version="1.1" xmlns="http://www.w3.org/2000/svg" style="stroke:black;stroke-width:2px;fill-rule:evenodd;height:100%;"><g id="Back_F" transform="translate(0,601)"><g id="Cape_F"><path id="Torn-Full-Cape_Back_F" d="M724.6,181.1c-124.5,47-263.2,273.6-280.3,445.9 c-10.8,108.7-63.8,219.2-58.9,327.4c5,109.8-50.3,223.6-54.4,333.3c-3.7,98.8-32.8,144-49.7,241.7c-25.3,146.2-53.3,242.6-76,388.9 c-18.1,116.3-72.6,212.5-98.3,248.8c-1,1.3,26.1-12.5,59.6-13.1c9.8-0.2,58.5-71.8,58.5-71.8s60.7,50.6,73.2,79.1 c16.4-10.4,28.9-161.8,47.6-167.7c9.8-3.1,27.8,190.1,27.8,190.1s29.2-57.2,40.4-57.4c24-0.4,67.9,21.5,92.5,24.1 c26.1,2.8,53-40.5,81.6-33.4c44,10.8,87.6,9.9,131.4,15.6c30.9,4,61.9,64.3,93,64.2c38.3-0.1,32.9-89.9,72.1-98.6 c33.6-7.4,79.3,72.7,79.3,72.7s10.6-265.9,43.7-276.8c43.4-14.2,206.6,200.1,252,195.9c13.4-1.2,30.7-135.6,43.9-135.4 c28.8,0.6,53.3,138.4,81.7,143.8c35.6,6.8,52.8-59.9,87.9-51.2c9.9,2.5,37.8,80.9,47.7,83.2c21.7,5,51.7,17.9,74.2,16.5 c0.6,0-7.2-52.1-8.3-57.7c-5-24.9-13-49.3-23-73c-11.9-28.2-26.7-55.2-42.8-80.7c-75.2-119-49.3-249.6-63-390.3 c-13.3-136.4,0.6-273.1-22.3-409.2c-20.3-120.4-91.5-232.5-109.4-354c-20.9-142.6-69.6-295.3-112.6-433.8 C1160.7,178.2,849.2,134.1,724.6,181.1z M759.9,1990.6c-10,25.8-13.9,52.8-11.1,80.4c1.3,12.5,4.9,25.4,11.1,36.4 c0.6,1.1,0.9,4.1,1.9,3.2C808.6,2068.9,759.9,1990.6,759.9,1990.6z M393.9,1732.6c-4.3,82.5-12,165.4-12,248 c0,15.5,0.2,30.9,1.6,46.3c0.2,2.4,2.6,25,3.8,24.8c28-5.6,14.4-82.1,21-105.9C431.3,1863.5,393.9,1732.6,393.9,1732.6z M1371.9,2018.6c-2.5,29.9,6.5,26.6,14.2,11.6c7.7-15,13.9-41.6,5.9-58.4L1371.9,2018.6z M1249.9,1758.6 c-6.9,49.5,3.8,91.6,7.4,140.3c1.2,15.9,1.2,31.8,1.5,47.7c0.1,5.3,0.3,10.7,0.2,16c-0.1,2.7-2,10.1-0.1,8.2 c37.3-38.9,33.1-114,21.5-162.1L1249.9,1758.6z M803.9,1904.6c-0.4,12.7-0.2,25.9,1.5,38.5c3.4,25.5,17.7-14.6,17.9-24.7 c0.3-14-9.1-30.4-12.5-43.9L803.9,1904.6z" class="option" style="display: inherit; fill: rgb(14, 17, 14);"/></g></g><g id="Flight-Suit" transform="translate(0,528)"><g id="Soft-Parts_F"><g id="Suit_F"><g id="Neck-Seal_F"><g id="Standard-Neck-Seal_F" class="option" style="display: inherit; fill: rgb(15, 19, 14);"><path d="M1011.8,83.6c0-9.6-7.5-17.3-16.8-17.3c0,0-63.5,9.1-95.2,9.1c-31.7,0-95.2-9.1-95.2-9.1 c-9.3,0-16.8,7.8-16.8,17.3s7.5,17.3,16.8,17.3c0,0,63.5,9.1,95.2,9.1c31.7,0,95.2-9.1,95.2-9.1 C1004.3,100.9,1011.8,93.1,1011.8,83.6z"/><path d="M1017.5,103.8c0-10-7.9-18.2-17.7-18.2c0,0-66.7,9.6-100,9.6c-33.3,0-100-9.6-100-9.6 c-9.8,0-17.7,8.1-17.7,18.2s7.9,18.2,17.7,18.2c0,0,66.7,9.6,100,9.6c33.3,0,100-9.6,100-9.6 C1009.6,122,1017.5,113.8,1017.5,103.8z"/><path d="M1023.9,128.9c0-10.6-8.4-19.2-18.6-19.2c0,0-70.3,10.1-105.5,10.1c-35.2,0-105.5-10.1-105.5-10.1 c-10.3,0-18.6,8.6-18.6,19.2c0,10.6,8.4,19.2,18.6,19.2c0,0,70.3,10.1,105.5,10.1c35.2,0,105.5-10.1,105.5-10.1 C1015.6,148.1,1023.9,139.5,1023.9,128.9z"/><path d="M1030.2,152c0-11.1-8.8-20.1-19.6-20.1c0,0-73.8,10.6-110.7,10.6s-110.7-10.6-110.7-10.6 c-10.8,0-19.6,9-19.6,20.1s8.8,20.1,19.6,20.1c0,0,73.8,10.6,110.7,10.6s110.7-10.6,110.7-10.6 C1021.4,172.1,1030.2,163.1,1030.2,152z"/><path d="M1036.3,174.6c0-8.4-9.2-15.2-20.5-15.2c0,0-77.3,8-116,8c-38.7,0-116-8-116-8c-11.3,0-20.5,6.8-20.5,15.2 c0,8.4,9.2,15.2,20.5,15.2c0,0,77.3,8,116,8c38.7,0,116-8,116-8C1027.1,189.8,1036.3,183,1036.3,174.6z"/><path d="M1036.3,199.9c0-8.4-9.2-15.2-20.5-15.2c0,0-77.3,8-116,8c-38.7,0-116-8-116-8c-11.3,0-20.5,6.8-20.5,15.2 c0,8.4,9.2,15.2,20.5,15.2c0,0,77.3,15.4,116,15.4c38.7,0,116-15.4,116-15.4C1027.1,215.1,1036.3,208.3,1036.3,199.9z"/></g></g><g id="Flight-Suit_F" style="fill: rgb(11, 16, 11);"><path d="M421.3,665.8l53.1-193l124-83.5l19.4,169.3c0,0-53.6,102.2-72.1,149c-19,48.2-52,158.4-56.2,172.5 l-29.4,255.8l-85.3-27.3c0,0-3.1-177.5,4.7-251.3C386.4,791.5,421.3,665.8,421.3,665.8z"/><path d="M1378.7,665.8l-53.3-193.6l-123.1-82.9l-19.6,170.4c0,0,53.1,101.1,71.6,147.9c19,48.2,52,158.4,56.2,172.5 l29.4,255.8l85.3-27.3c0,0,3.1-177.5-4.7-251.3C1413.6,791.5,1378.7,665.8,1378.7,665.8z"/><path d="M899.8,1212.7c-10.5,1-19.9,5.2-23.4,12.5c-30.6,64.7-93.6,360.6-111.8,415.2c-9.9,29.7-17.7,192-34.5,286.7 c-20,113-85.7,391.3-85.7,391.3l-113.8-11.8c0,0-14.7-279.4-10.6-381.2c3.1-77.3,34.9-229.1,34.9-229.1s6.8-55.4,7-83.3 c0.6-100.8,9.5-325,29.4-453.8C607,1057.4,703,843.7,703,843.7s124.3,48.9,197.4,48.9s198.4-49.9,198.4-49.9 s90.6,214.8,106.3,316.6c19.9,128.7,33.1,353,33.7,453.8c0.2,27.9,7,83.3,7,83.3s31.8,151.8,34.9,229.1 c4,101.7-10.6,381.2-10.6,381.2l-113.8,11.8c0,0-65.6-278.3-85.7-391.3c-16.8-94.7-24.6-257-34.5-286.7 c-18.2-54.5-81.2-350.5-111.8-415.2c-3.5-7.5-13.2-11.7-23.9-12.6L899.8,1212.7z"/></g></g><g id="Boots_F"><g id="Basic_Boots_F" class="option" style="display: inherit;"><g id="Main_Basic-Boot_F" style="fill: rgb(20, 25, 19);"><path d="M652.3,2285.1c-1.9-0.7-23.6,13.1-36,15.2c-13.2,2.2-27.6,2-41.6,0.6l-5.7-0.6l-0.2,0l-0.7-0.1l-1.9-0.3 l-2.9-0.4l-1.2-0.2c-3.3-0.4-6.5-1-9.7-1.5l-5-1l-1.1-0.3l-0.4-0.1l-0.8-0.2l-3.5-0.9l-3.1-0.9l-0.5-0.1c-10.7-2.9-8.7-8-8.7-8 c0,14.9-15.5,61.4-53.8,99.4c-11.7,11.6-40,25.2-64.6,36c-22.5,9.9-49.7,12.3-62.8,38.8c-2.8,5.8-5.3,12.7-4.8,19.3 c0.6,8.4,9.7,9.6,16.8,11.6c17.6,5,32.8,8.8,53.2,13.4c23.3,5.2,44.3,8.4,67.9,7.8c17.7-0.5,32.6-1.2,48.1-10.6 c6.2-3.8,12.7-7.6,18.1-12.5c12.1-11.1,20-22.7,35.6-29.3c11.3-4.8,22.9-8.7,34.8-11.6c16.9-4,41.5-9.7,50.5-26.4 c3.5-12.5-11.7-39.3-12.8-57.4C655,2350.5,653.6,2285.6,652.3,2285.1z"/><path d="M1148.4,2285.1c1.9-0.7,23.6,13.1,36,15.2c13.2,2.2,27.6,2,41.6,0.6l5.7-0.6l0.2,0l0.7-0.1l1.9-0.3l2.9-0.4 l1.2-0.2c3.3-0.4,6.5-1,9.7-1.5l5-1l1.1-0.3l0.4-0.1l0.8-0.2l3.5-0.9l3.1-0.9l0.5-0.1c10.7-2.9,8.7-8,8.7-8 c0,14.9,15.5,61.4,53.8,99.4c11.7,11.6,40,25.2,64.6,36c22.5,9.9,49.7,12.3,62.8,38.8c2.8,5.8,5.3,12.7,4.8,19.3 c-0.6,8.4-9.7,9.6-16.8,11.6c-17.6,5-32.8,8.8-53.2,13.4c-23.3,5.2-44.3,8.4-67.9,7.8c-17.7-0.5-32.6-1.2-48.2-10.6 c-6.2-3.8-12.7-7.6-18.1-12.5c-12.1-11.1-20-22.7-35.6-29.3c-11.3-4.8-22.8-8.7-34.8-11.6c-16.9-4-41.5-9.7-50.6-26.4 c-3.5-12.5,11.7-39.3,12.8-57.4C1145.7,2350.5,1147.1,2285.6,1148.4,2285.1z"/></g><g id="Bottom_Basic-Boot_F" style="fill: rgb(25, 30, 23);"><path d="M668.7,2422.4c-4.5,8.3-12.9,13.9-22.3,17.9c-8.5,4.3-18.6,6.1-28.3,8.4c-1.3,0.3-2.6,0.6-3.9,1 c-1.9,0.5-3.8,1-5.7,1.6c-0.6,0.2-1.2,0.3-1.7,0.5l-1,0.3c-0.6,0.2-1.2,0.4-1.9,0.6c-0.3,0.1-0.5,0.2-0.8,0.3 c-1,0.3-2.1,0.7-3.1,1c-0.4,0.1-0.7,0.3-1.1,0.4l-0.5,0.2c-1.6,0.5-3.2,1.1-4.8,1.7c-0.3,0.1-0.7,0.3-1,0.4 c-1.4,0.6-2.9,1.1-4.3,1.7l-1.1,0.4c-0.9,0.3-1.7,0.7-2.6,1.1c-0.4,0.2-0.7,0.3-1.1,0.5c-2.6,1.1-4.9,2.3-7.1,3.6l-0.3,0.2 c-0.2,0.1-0.3,0.2-0.5,0.3c-0.7,0.4-1.3,0.9-2,1.3l-0.4,0.3c-0.1,0.1-0.3,0.2-0.4,0.3c-0.7,0.5-1.3,1-1.9,1.4l-0.5,0.4l-0.9,0.7 c-2.7,2.2-5.2,4.5-7.7,7l-0.7,0.7c-1.3,1.4-2.7,2.7-4,4.1c-1.4,1.4-2.8,2.9-4.3,4.4c-1.5,1.5-3,2.9-4.6,4.4l-0.5,0.5 c-0.5,0.4-1,0.9-1.5,1.3c-0.1,0.1-0.2,0.1-0.3,0.2c-0.8,0.7-1.6,1.3-2.4,1.9c-0.5,0.4-1.1,0.8-1.7,1.2l-0.3,0.2 c-0.7,0.5-1.4,1-2.1,1.4c-0.3,0.2-0.6,0.4-0.9,0.6c-1,0.7-2.1,1.3-3.2,2c-0.7,0.4-1.5,0.9-2.2,1.3l-0.9,0.6l-2.3,1.4l-1.1,0.7 l-0.7,0.4l-0.7,0.4c-1.1,0.6-2.1,1.1-3.2,1.7c-0.5,0.2-1,0.5-1.5,0.7l-0.5,0.2c-3.2,1.4-6.5,2.5-9.7,3.3l-0.6,0.1l-0.7,0.2 c-0.2,0-0.5,0.1-0.7,0.2c-0.7,0.2-1.3,0.3-2,0.4c-0.5,0.1-1,0.2-1.6,0.3l-1.2,0.2l-0.4,0.1c-0.3,0.1-0.7,0.1-1,0.2 c-0.6,0.1-1.2,0.2-1.7,0.2c-0.8,0.1-1.6,0.2-2.5,0.3c-0.2,0-0.4,0-0.7,0.1c-2.1,0.2-4.1,0.4-6.3,0.5c-1.2,0.1-2.3,0.1-3.5,0.2 l-1,0c-2.2,0.1-4.5,0.2-6.7,0.2c-1.5,0.1-2.9,0.1-4.4,0.1c-0.5,0-1.1,0-1.6,0c-0.8,0-1.5,0-2.2,0c-0.5,0-1.1,0-1.6,0l-0.5,0 c-2.7-0.1-5.3-0.2-8-0.3c-0.4,0-0.7,0-1.1-0.1l-1.1-0.1c-0.3,0-0.7,0-1-0.1c-3.9-0.3-7.7-0.6-11.6-1.1l-1-0.1 c-1-0.1-1.9-0.2-2.9-0.4c-0.4-0.1-0.8-0.1-1.3-0.2l-1-0.1c-0.8-0.1-1.6-0.2-2.4-0.4c-3.4-0.5-6.7-1.1-10.1-1.7 c-0.8-0.1-1.5-0.3-2.3-0.4l-1-0.2c-0.4-0.1-0.7-0.1-1.1-0.2l-1.1-0.2c-0.4-0.1-0.7-0.1-1.1-0.2l-0.7-0.2 c-0.8-0.2-1.6-0.3-2.5-0.5l-1.1-0.2c-1-0.2-1.9-0.4-2.9-0.6c-0.8-0.2-1.7-0.4-2.5-0.6l-0.2-0.1c-5.3-1.2-10.3-2.3-15.1-3.5 l-1.8-0.4c-1.4-0.3-2.7-0.6-4-1l-1.6-0.4l-0.7-0.2c-1.9-0.5-3.7-0.9-5.6-1.4c-1.1-0.3-2.2-0.6-3.3-0.9c-3.2-0.8-6.4-1.7-9.6-2.5 l-1.5-0.4c-0.5-0.1-1.1-0.3-1.6-0.4l-0.6-0.2c-2.5-0.7-5-1.4-7.5-2.1l-0.6-0.2l-0.9-0.2l-2.6-0.7l-0.9-0.2l-1.3-0.4l-0.6-0.2 l-1.1-0.3l-0.9-0.3l-0.4-0.2l-0.5-0.2l-0.3-0.1l-0.5-0.2l-0.5-0.2l-0.2-0.1l-0.5-0.3l-0.6-0.3l-0.5-0.4l-0.5-0.4 c-0.8-0.7-1.6-1.4-2.1-2.4h0c0,0-4.7,7-5.1,19.1c10.6,15.3,44,20.4,90.2,26.6c45.9,6.1,74.3,4.9,93.5-3.3s52.9-47.5,77-49.6 c24.1-2.1,52.6-14.9,64.3-21.7c6.1-3.6,4.3-28.9,4.3-28.9L668.7,2422.4z"/><path d="M1131.9,2422.4c4.5,8.3,12.9,13.9,22.3,17.9c8.6,4.3,18.6,6.1,28.3,8.4c1.3,0.3,2.6,0.6,3.9,1 c1.9,0.5,3.8,1,5.8,1.6c0.6,0.2,1.2,0.3,1.7,0.5l1,0.3c0.6,0.2,1.2,0.4,1.8,0.6c0.3,0.1,0.5,0.2,0.8,0.3c1,0.3,2.1,0.7,3.1,1 c0.4,0.1,0.7,0.3,1.1,0.4l0.5,0.2c1.6,0.5,3.2,1.1,4.8,1.7c0.4,0.1,0.7,0.3,1,0.4c1.4,0.6,2.9,1.1,4.3,1.7l1.1,0.4 c0.9,0.3,1.7,0.7,2.6,1.1c0.4,0.2,0.8,0.3,1.1,0.5c2.6,1.1,4.9,2.3,7.1,3.6l0.3,0.2c0.2,0.1,0.3,0.2,0.5,0.3 c0.7,0.4,1.3,0.9,2,1.3l0.4,0.3c0.1,0.1,0.3,0.2,0.4,0.3c0.7,0.5,1.3,1,1.9,1.4l0.6,0.4l0.8,0.7c2.7,2.2,5.2,4.5,7.7,7l0.7,0.7 c1.3,1.4,2.7,2.7,4,4.1c1.4,1.4,2.8,2.9,4.3,4.4c1.5,1.5,3,2.9,4.6,4.4l0.5,0.5c0.5,0.4,1,0.9,1.5,1.3c0.1,0.1,0.2,0.1,0.3,0.2 c0.8,0.7,1.6,1.3,2.4,1.9c0.5,0.4,1.1,0.8,1.7,1.2l0.3,0.2c0.7,0.5,1.4,1,2.1,1.4c0.3,0.2,0.6,0.4,0.9,0.6c1,0.7,2.1,1.3,3.2,2 c0.7,0.4,1.5,0.9,2.2,1.3l0.9,0.6l2.3,1.4l1.1,0.7l0.7,0.4l0.7,0.4c1.1,0.6,2.1,1.1,3.2,1.7c0.5,0.2,1,0.5,1.5,0.7l0.5,0.2 c3.2,1.4,6.5,2.5,9.7,3.3l0.6,0.1l0.7,0.2c0.2,0,0.5,0.1,0.7,0.2c0.7,0.2,1.4,0.3,2,0.4c0.5,0.1,1.1,0.2,1.6,0.3l1.2,0.2l0.4,0.1 c0.3,0.1,0.7,0.1,1,0.2c0.6,0.1,1.2,0.2,1.7,0.2c0.8,0.1,1.7,0.2,2.5,0.3c0.2,0,0.4,0,0.7,0.1c2.1,0.2,4.1,0.4,6.3,0.5 c1.1,0.1,2.3,0.1,3.5,0.2l1,0c2.2,0.1,4.5,0.2,6.8,0.2c1.5,0.1,2.9,0.1,4.4,0.1c0.5,0,1.1,0,1.6,0c0.8,0,1.5,0,2.2,0 c0.5,0,1.1,0,1.6,0l0.5,0c2.7-0.1,5.3-0.2,8-0.3c0.4,0,0.7,0,1.1-0.1l1.1-0.1c0.3,0,0.7,0,1-0.1c3.9-0.3,7.7-0.6,11.6-1.1l1-0.1 c1-0.1,1.9-0.2,2.9-0.4c0.4-0.1,0.8-0.1,1.3-0.2l1-0.1c0.8-0.1,1.6-0.2,2.4-0.4c3.4-0.5,6.7-1.1,10.1-1.7 c0.8-0.1,1.5-0.3,2.3-0.4l1-0.2c0.3-0.1,0.7-0.1,1.1-0.2l1.1-0.2c0.4-0.1,0.7-0.1,1.1-0.2l0.7-0.2c0.8-0.2,1.7-0.3,2.5-0.5 l1.1-0.2c1-0.2,1.9-0.4,2.9-0.6c0.8-0.2,1.7-0.4,2.5-0.6l0.2-0.1c5.3-1.2,10.3-2.3,15.1-3.5l1.8-0.4c1.4-0.3,2.7-0.6,4-1l1.6-0.4 l0.7-0.2c1.9-0.5,3.8-0.9,5.6-1.4c1.1-0.3,2.2-0.6,3.3-0.9c3.2-0.8,6.4-1.7,9.6-2.5l1.5-0.4c0.5-0.1,1.1-0.3,1.6-0.4l0.6-0.2 c2.5-0.7,5-1.4,7.5-2.1l0.6-0.2l0.9-0.2l2.7-0.7l0.9-0.2l1.3-0.4l0.5-0.2l1.1-0.3l0.9-0.3l0.4-0.2l0.5-0.2l0.3-0.1l0.5-0.2 l0.5-0.2l0.2-0.1l0.5-0.3l0.6-0.3l0.5-0.4l0.5-0.4c0.8-0.7,1.5-1.4,2.1-2.4l0,0c0,0,4.7,7,5.1,19.1c-10.6,15.3-44,20.4-90.2,26.6 c-46,6.1-74.3,4.9-93.5-3.3s-52.9-47.5-77-49.6c-24.1-2.1-52.6-14.9-64.3-21.7c-6.1-3.6-4.3-28.9-4.3-28.9L1131.9,2422.4z"/></g><g id="Top_Basic-Boot_F" style="fill: rgb(25, 30, 23);"><path d="M536.1,2293.9c-6.4,31.4-16.3,58.7-37.2,85.1c-32.5,41.1-88,44.5-126.4,77.9c-9.8,8.6-9.4,22.3-11,35 c15.9,4.5,29.9,8,47.7,12.1c1.2-12.6-1-26.7,9.5-35.9c38.4-33.4,98.8-32.1,131.3-73.2c21.2-26.9,21.3-61.5,27.5-93.7 c-1-0.1-1.9-0.2-2.9-0.3l-5.7-0.6l-0.2,0l-0.7-0.1l-1.9-0.3l-2.9-0.4l-1.2-0.2c-3.3-0.4-6.5-1-9.7-1.5l-5-1l-1.1-0.3l-0.4-0.1 l-0.8-0.2l-3.5-0.9l-3.1-0.9l-0.5-0.1C537.6,2294.3,536.8,2294.1,536.1,2293.9z"/><path d="M1264.5,2293.9c6.4,31.4,16.3,58.7,37.2,85.1c32.5,41.1,88,44.5,126.4,77.9c9.8,8.6,9.4,22.3,11,35 c-15.9,4.5-29.9,8-47.7,12.1c-1.3-12.6,1-26.7-9.5-35.9c-38.4-33.4-98.8-32.1-131.3-73.2c-21.2-26.9-21.3-61.5-27.5-93.7 c1-0.1,1.9-0.2,2.8-0.3l5.7-0.6l0.2,0l0.7-0.1l1.9-0.3l2.9-0.4l1.2-0.2c3.3-0.4,6.5-1,9.7-1.5l5-1l1.1-0.3l0.4-0.1l0.8-0.2 l3.5-0.9l3.1-0.9l0.5-0.1C1263.1,2294.3,1263.8,2294.1,1264.5,2293.9z"/></g><g id="Side_Basic-Boot_F" style="fill: rgb(25, 30, 23);"><path d="M646.4,2287.4c-12.3,5.4-18.8,10.9-30.1,12.8c-0.6,0.1-1.2,0.2-1.8,0.3c-0.2,3.9-0.1,7.9-0.2,11.3 c-0.4,19.7,2,103.6,5.9,103.5c3.9-0.2,15.1-2.2,18-5.3c1.9-2,2.3-6.8,2.9-9.5c2-8.3,3.8-16.7,5.1-25.2 C647.8,2364.1,646,2304.5,646.4,2287.4z"/><path d="M1154.3,2287.4c12.3,5.4,18.8,10.9,30.1,12.8c0.6,0.1,1.2,0.2,1.8,0.3c0.2,3.9,0.1,7.9,0.2,11.3 c0.4,19.7-2,103.6-5.9,103.5c-3.9-0.2-15.1-2.2-18-5.3c-1.9-2-2.3-6.8-2.9-9.5c-2-8.3-3.8-16.7-5.1-25.2 C1152.8,2364.1,1154.6,2304.5,1154.3,2287.4z"/></g></g></g><g id="Sleeves_F" class="toggle" style="fill: rgb(17, 23, 17);"><path d="M460.3,473.2l8.2,3.5l129.9-87.4c0,0,3.7,92.2,14.5,147.6c1.5,7.7,3.7,17.4,6.6,28.6l-17.3,56 c0,0-58.7-23.1-84.5-38.2c-25-14.7-69.9-52.7-69.9-52.7L460.3,473.2z"/><path d="M1181.2,565.5c2.8-11.2,5.1-21,6.6-28.6c10.8-55.4,14.5-147.6,14.5-147.6l129.9,87.4l8.2-3.5l12.4,57.3 c0,0-44.9,38-69.9,52.7c-25.7,15.2-84.4,38.2-84.4,38.2L1181.2,565.5z"/></g><g id="Gloves_F"><g id="Left-Glove_F"><g id="Fingerless_Left_Glove_F" class="option" style="display: inherit;"><g id="Fingers_Fingerless_Left_Glove_F" style="fill: rgb(154, 107, 65);"><path d="M1391.6,1284.8c-4.7-0.3-9.2-0.2-13.9,1c-3.2,0.8-6.3,1.6-9.2,3.5c-8.7,5.7-6.3,18,1.4,22.7 c9,5.5,23.3,0.1,27.5-10.5C1399.1,1297.1,1393.9,1288.9,1391.6,1284.8"/><path d="M1375.7,1295.5c-4.7-0.3-9.2-0.2-13.9,1c-3.2,0.8-6.3,1.6-9.2,3.5c-8.7,5.7-6.3,18,1.4,22.7 c9,5.5,23.4,0.1,27.5-10.5C1383.2,1307.8,1377.9,1299.7,1375.7,1295.5"/><path d="M1364.5,1309.7c-4.7,0.5-10.6,1.6-15.1,3.4c-3.1,1.2-6.1,2.6-8.7,4.8c-7.9,6.9-4.1,18.8,4.1,22.3 c9.6,4.1,23.1-3.5,26-14.6C1371.9,1321.2,1364.5,1309.7,1364.5,1309.7z"/><path d="M1315.7,1241.9c-2.7,13.3-4.8,20.6-4.8,20.6s-12.1,27.9-10,34.3c2.1,6.4,12.7,12.1,18.8,8.7 c7.6-4.2,16.9-23.8,22.9-37.7c2.2-5.1,4.2-10.9,5.9-16.3C1324.4,1255.5,1315.7,1241.9,1315.7,1241.9L1315.7,1241.9z"/><path d="M1365.6,1307.7c-1.8,3.4-3.8,7-6,10.8c-11.9,20.4-30.3,38-18.2,53.6c11.3,14.6,37-23.7,37-23.7l11.9-17.6 C1370.5,1325.4,1365.6,1307.8,1365.6,1307.7z"/></g><path id="Glove_Fingerless_Left_Glove_F" d="M1390.3,1330.7l13.3-19.6c0,0,29-54,30.4-64.5c1.1-8,0.1-34.7,0.1-34.7 l-9.1-103.5l-45.9,4.3l-37.8,13.9l-2.8,17.7c0,0-13.7,21.4-17.3,36.8c-2.5,10.8-1.2,36.8-4.3,54.2c-0.4,2.3-0.8,4.4-1.2,6.4l0,0 c0,0,8.6,13.6,32.8,9.5c3-9.6,5.1-17.7,5.1-17.7s8.3,3.2,12.5,7c14.1,12.3,8,49.5,8,49.5s-3.3,7.4-8.6,17.5 C1365.6,1307.8,1370.5,1325.4,1390.3,1330.7z" style="fill: rgb(22, 22, 22);"/></g></g><g id="Right-Glove_F"><g id="Basic_Right_Glove_F" class="option" style="display: inherit; fill: rgb(53, 60, 68);"><path d="M408.7,1284.8c4.7-0.3,9.2-0.2,13.9,1c3.2,0.8,6.3,1.6,9.2,3.5c8.7,5.7,6.3,18-1.4,22.7 c-9,5.5-23.4,0.1-27.5-10.5C401.1,1297.1,406.4,1288.9,408.7,1284.8"/><path d="M424.6,1295.5c4.7-0.3,9.2-0.2,13.9,1c3.2,0.8,6.3,1.6,9.2,3.5c8.7,5.7,6.3,18-1.4,22.7 c-9,5.5-23.4,0.1-27.5-10.5C417,1307.8,422.3,1299.7,424.6,1295.5"/><path d="M436,1310.1c4.7,0.5,10.4,1.3,14.9,3.1c3.1,1.2,6.1,2.6,8.7,4.8c7.9,6.9,4.1,18.8-4.1,22.3 c-9.6,4.1-23.2-3.5-26-14.6C428.3,1321.2,436,1310.1,436,1310.1z"/><path d="M461.7,1144.4c0,0,13.7,21.4,17.2,36.8c2.5,10.8,1.2,36.8,4.3,54.2c3.2,17.4,6.1,27.1,6.1,27.1 s12.1,27.9,10,34.3c-2.1,6.4-12.7,12.1-18.8,8.7c-7.6-4.2-17-23.8-22.9-37.7c-6-14.1-11-34.1-11-34.1s-8.3,3.2-12.5,7 c-14.1,12.3-8,49.5-8,49.5s5.8,13.3,14.6,28.2c12,20.4,30.3,38,18.2,53.6c-11.3,14.6-37-23.7-37-23.7l-25.2-37.2 c0,0-28.9-54-30.4-64.5c-1.1-8-0.1-34.7-0.1-34.7l9-103.5l45.9,4.3l37.8,13.9L461.7,1144.4"/></g></g></g></g></g><g id="Biceps_Current" transform="translate(193,579)"><g id="LeftBiceps_Current"><g id="Left-Biceps_F"><g id="Basic_Biceps_Left_F" class="option" style="display: inherit;"><path id="Main_Basic_Biceps_Left_F" d="M1200.1,549.5c-12.1-29.3-65.9-157.6-65.9-157.6s-88.4,36.5-110.4,45.6 c-6.2,2.6-9.2,9.7-6.6,16c10.4,25.2,35.8,86.8,51.7,125.1c3.6,8.7,10.5,15.6,19.1,19.2c8.7,3.6,18.4,3.6,27.1,0 c26-10.7,60.8-25.1,78.4-32.4C1199.7,562.9,1202.6,555.7,1200.1,549.5z" style="fill: rgb(15, 20, 12);"/><path id="Strap_Basic_Biceps_Left_F" d="M1040.8,510.3l-48.1,19.8l11.3,40.5l52.7-21.7L1040.8,510.3" style="fill: rgb(25, 30, 25);"/><path id="Trauma-Plate_Basic_Biceps_Left_F" d="M1199.7,543.4l-56.1-135.9l-107.7,44.4l49.5,119.8 c1.8,4.3,5.2,7.7,9.4,9.4c4.3,1.8,9,1.8,13.3,0L1199.7,543.4" class="toggle" style="fill: rgb(26, 36, 22);"/></g></g></g><g id="RightBiceps_Current"><g id="Right-Biceps_F"><g id="Full-Band_Biceps_Right_F" class="option" style="display: inherit;"><path id="Main_Full-Band_Biceps_Right_F" d="M418.8,559l7.5-20.7l35-109.5c0,0-122.5-41.6-163.1-55.4 c-7.2-2.4-15,1.2-17.7,8.3c-12.3,32.4-43.9,115.6-43.9,115.6L418.8,559" style="fill: rgb(71, 80, 89);"/><g id="Trim_Full-Band_Biceps_Right_F" style="fill: rgb(57, 64, 71);"><path d="M275.2,458.2c-9.9,0-17.9,7.7-17.9,17.2s8,17.2,17.9,17.2c9.9,0,17.9-7.7,17.9-17.2 S285.1,458.2,275.2,458.2"/><path d="M236.6,497.3l-4.2,11.5c-1.2,3.2-1,6.8,0.5,9.8c1.5,3.1,4.1,5.4,7.4,6.5c33.4,11.3,125.5,42.3,158.3,53.4 c6.5,2.2,13.6-1.2,16-7.7l4.3-11.8L236.6,497.3"/></g></g></g></g></g><g id="Vest_Current" transform="translate(0,528)"><path id="Vest_F" d="M967.4,899.8c-43.9,9-90.3,9-134.1,0c-44.2-9.1-131-54.4-131-54.4S626.5,606.6,613,536.9 c-10.8-55.4-14.5-147.6-14.5-147.6l-129.9,87.4l-27.7-11.8c0,0,77.7-171.7,128.8-221.5c46.3-45,177.8-77,177.8-77 s58,63.7,152.8,64.2c90.2,0.4,152.8-64.2,152.8-64.2s131.6,32,177.8,77c51.1,49.8,128.8,221.5,128.8,221.5l-27.7,11.8l-129.9-87.4 c0,0-3.7,92.2-14.5,147.6c-13.6,69.7-89.3,308.6-89.3,308.6S1011.6,890.7,967.4,899.8z" style="fill: rgb(11, 15, 11);"/></g><g id="Upper-Body_F_Wrapper" transform="translate(193,565)"><g id="Chest_Current" class="Heavy_F"><g id="Abdomen_Heavy_F"><g id="Under-Plates_Abdomen_Heavy_F" style="fill: rgb(9, 13, 10);"><rect x="604.3" y="664.3" width="205.2" height="26.2"/><rect x="604.3" y="690.5" width="205.2" height="26.2"/><rect x="604.3" y="716.7" width="205.2" height="26.2"/><rect x="604.3" y="742.9" width="205.2" height="26.2"/><rect x="604.3" y="769.1" width="205.2" height="26.2"/></g><g id="Abdomen-Plate_Heavy_F" style="fill: rgb(10, 17, 7);"><path d="M643.9,579.7l-102.3,43.4l-9.6-23.3l111.9-47.5V579.7z"/><path d="M577.5,710.2l-35.9-87.1l102.3-43.4l32,91.6L577.5,710.2z"/><path d="M532,599.8l-43,7.5l63.4,150.8l43.3-8.6L532,599.8z"/><path d="M770,579.7l102.3,43.4l9.6-23.3L770,552.3V579.7z"/><path d="M836.4,710.2l35.9-87.1L770,579.7l-32,91.6L836.4,710.2z"/><path d="M881.9,599.8l43,7.5l-63.4,150.8l-43.3-8.6L881.9,599.8z"/><rect x="644.3" y="552.3" width="125.4" height="27.4"/><path d="M675.9,671.3l-32-91.6h126l-32,91.6H675.9z"/></g></g><g id="Neck-Armor_Heavy_F"><g id="Neck-Plate_Heavy_F" style="fill: rgb(15, 25, 15);"><path d="M566,123.7l-88.6,19.5c0,0,9.6,37.7,15.5,60.4c2.4,9.4,11.8,15.2,21.3,13.1c15.3-3.4,37.8-8.3,53.4-11.7 c4.8-1,8.9-4,11.5-8.1c2.6-4.2,3.3-9.2,2.1-13.9C575.3,160,566,123.7,566,123.7z"/><path d="M847.9,123.7l88.6,19.5c0,0-9.6,37.7-15.5,60.4c-2.4,9.4-11.8,15.2-21.3,13.1c-15.3-3.4-37.8-8.3-53.4-11.7 c-4.8-1-8.9-4-11.5-8.1c-2.6-4.2-3.3-9.2-2.1-13.9C838.6,160,847.9,123.7,847.9,123.7z"/></g><g id="Secondary_Neck-Plate_Heavy_F" style="fill: rgb(27, 11, 11);"><path d="M543.9,125.3l-44.6,9.8c0,0,6.4,25.1,9.9,38.6c1.2,4.7,5.9,7.5,10.6,6.5c7.8-1.7,19.2-4.2,27.2-6 c2.4-0.5,4.4-2,5.7-4c1.3-2.1,1.6-4.5,1-6.9C550.2,149.7,543.9,125.3,543.9,125.3z"/><path d="M870,125.3l44.6,9.8c0,0-6.4,25.1-9.9,38.6c-1.2,4.7-5.9,7.5-10.6,6.5c-7.8-1.7-19.2-4.2-27.2-6 c-2.4-0.5-4.4-2-5.7-4c-1.3-2.1-1.6-4.5-1-6.9C863.7,149.7,870,125.3,870,125.3z"/></g></g><g id="Full-Chest_Heavy_F"><path id="Under-Plate_Chest_Heavy_F" d="M757.5,521.4H656.3l-25.4,21.8v14.6l13.3-5.5h125.4l13.3,5.6v-14.7 L757.5,521.4z" style="fill: rgb(9, 13, 10);"/><g id="Chest-Plate_Heavy_F" style="fill: rgb(11, 20, 11);"><path d="M529.9,587.1l89.8-52.1l12.2-24.7l23.9,3.2h102.3l23.9-3.2l12.2,24.7l89.8,52.1l41.7,9.1l-1.1,15.3 l-44.6-7.8l-97-40.5v-20.1l-25.4-21.8H656.3l-25.4,21.8v20.1l-97,40.5l-44.6,7.8l-1.1-15.3L529.9,587.1z"/><path d="M925.7,596.2l52-133.4l7.6,27.3l-16.5,99.2L925.7,596.2z"/><path d="M428.6,490.1l7.6-27.3l52,133.4l-43.1-6.9L428.6,490.1z"/><path d="M486.8,410.8v-55.7l-4.3-100l25.9-28.7l78.4-16.3l20.3,23.8h199.7l20.3-23.8l78.4,16.3l25.9,28.7l-4.2,97.5 l-0.1-0.2v58.4L782,510.3l-23.9,3.2H655.8l-23.9-3.2L486.8,410.8z"/><path d="M927.1,355.1v55.7l50.5,52L927.1,355.1z"/><path d="M631.9,510.3l-145.1-99.5l-50.5,52l52,133.4l41.7-9.1l89.8-52.1L631.9,510.3z"/><path d="M977.6,462.8l-52,133.4l-41.7-9.1L794.2,535L782,510.3l145.1-99.5L977.6,462.8z"/><path d="M968.8,589.4L967,600l-42.4,11.5l1.1-15.3L968.8,589.4z"/><path d="M486.8,355.1v55.7l-50.5,52L486.8,355.1z"/><path d="M482.5,255.1c-0.5,51.3-6.6,102.5-21,153.8l25.3-53.9L482.5,255.1z"/><path d="M931.4,255.1c0.5,51.3,6.6,102.5,21,153.8l-25.3-53.9L931.4,255.1z"/><path d="M488.2,596.2l1.1,15.3L446.9,600l-1.8-10.6L488.2,596.2z"/></g><g id="Accents_Chest-Plate_Heavy_F" class="toggle"><g id="Accent-3_Accents_Chest-Plate_Heavy_F" style="fill: rgb(85, 0, 0);"><path d="M825.6,353.7l-5.3-16.6h24.2l-5.3,16.6H825.6z"/><path d="M825.6,385.8l-5.3-16.6h24.2l-5.3,16.6H825.6z"/><rect x="810" y="255" width="45.4" height="5"/><rect x="810" y="270.9" width="45.4" height="5"/></g><path id="Accent-2_Accents_Chest-Plate_Heavy_F" d="M571.6,209.2c-0.3-3.5-3.3-6.2-6.8-5.9 c-9.9,0.6-28.9,1.9-38.9,2.5c-1.7,0.1-3.3,0.9-4.4,2.2c-1.1,1.3-1.7,3-1.6,4.7c1.1,14.5,3.7,49.4,4.8,63.8 c0.3,3.5,3.3,6.2,6.8,5.9c9.9-0.6,28.9-1.9,38.9-2.5c1.7-0.1,3.3-0.9,4.4-2.2c1.1-1.3,1.7-3,1.6-4.7 C575.3,258.6,572.7,223.6,571.6,209.2z" style="fill: rgb(8, 14, 9);"/><g id="Accent-1_Accents_Chest-Plate_Heavy_F" style="fill: rgb(18, 27, 19);"><path d="M565.6,208.5l-39.9,2.6l5,66.2l39.9-2.6L565.6,208.5z"/><path d="M561.3,213.7l-30.4,2l0.7,9.5l30.4-2L561.3,213.7z"/><path d="M535.7,224.8l-4.2,0.3l3.9,51.8l4.2-0.3L535.7,224.8z"/><path d="M540.1,224.6l-4.2,0.3l3.9,51.8l4.2-0.3L540.1,224.6z"/><path d="M562,223.1l-4.2,0.3l3.9,51.8l4.2-0.3L562,223.1z"/><path d="M557.6,223.4l-4.2,0.3l3.9,51.8l4.2-0.3L557.6,223.4z"/><path d="M548.8,224l-4.2,0.3l3.9,51.8l4.2-0.3L548.8,224z"/><path d="M553.2,223.7l-4.2,0.3l3.9,51.8l4.2-0.3L553.2,223.7z"/><path d="M544.5,224.3l-4.2,0.3l3.9,51.8l4.2-0.3L544.5,224.3z"/></g></g></g><g id="Iron-Heart_Heavy_F"><path id="Heart_Heavy_F" d="M706.9,307.4l29.8,27.6v54.2l-29.8,27.6l-29.8-27.6V335L706.9,307.4z" style="fill: rgb(9, 16, 8);"/><g id="Center_Heart_Heavy_F" class="option" style="display: inherit; fill: rgb(57, 1, 1);"><rect x="696.1" y="335.9" width="21.7" height="26.3"/><rect x="696.1" y="362.1" width="3.6" height="26.3"/><rect x="710.5" y="362.1" width="3.6" height="26.3"/><rect x="714.2" y="362.1" width="3.6" height="26.3"/><rect x="703.3" y="362.1" width="3.6" height="26.3"/><rect x="706.9" y="362.1" width="3.6" height="26.3"/><rect x="699.6" y="362.1" width="3.6" height="26.3"/></g></g></g><g id="Collar_Current"><g id="Collar_F" class="toggle" style=""><g id="Cloth-Wrap-Right_Collar_F" class="option" style="display: inherit;"><g id="Main_Cloth-Wrap-Right_Collar_F" style="fill: rgb(13, 16, 13);"><path d="M813,217c47.5-14.9,56.1-38.8,58.9-62.9c1.2-9.8-12.9-35.5,1.6-42.1c16.4-7.5,55.1,4.3,71.1,7.7 c11.8,2.5,22.4,14.5,34.5,14.7c27.9,0.3,50.1,30.8,52.6,44.8c3.5,19.5-31,5.7-47.2,20.6c-40.4,37-54.5,87.2-139.5,101 c-39,6.3-77.7-2.6-113.9-10.7c-93.6-20.9-144.6-38.8-204.8-85.3c-26.3-20.3-66-36.9-65-64.1c0-1.2,19.2-12.6,21-13 c16.9-4.2,31.2-11.2,49.8-11.5c11.1-0.2,9.3,9.4,10.1,13.7c3.1,16.6,18.3,29.1,37.4,41.6C629.9,204.3,744.3,214.5,813,217z"/><path d="M813,217c12.6,0.5,23.6,2.4,33.2,3c43.4,2.7,58.9-7.9,67.4-27.4"/><path d="M948,120.2c12.6,20.5,11,44.6,0.9,60.4"/><path d="M583.6,178.6c32.5,44.6,80.8,58.6,133.6,64"/><path d="M495.5,123.8c1.9,11.3,8.6,15.5,16.9,23c4.8,4.4,10.6,7.5,14.4,12.8c1.4,1.9,2.1,4.2,2.9,6.4"/></g><path id="Buckle_Cloth-Wrap-Right_Collar_F" d="M594.7,170.2l-27.7-19.8l-48,67l27.7,19.8L594.7,170.2z" style="fill: rgb(86, 86, 86);"/></g></g></g><g id="ChestAttachments_Current"><g id="Chest-Attachments_F"><g id="Bandoleer_Accessories_Chest_F" class="option" style="display: inherit;"><g id="Strap_Bandoleer_Accessories_Chest_F" style="fill: rgb(20, 15, 14);"><path d="M1001.1,152.9l-69.8-34.1L543.6,821.7l70,38.6L1001.1,152.9"/><path d="M982.1,140l-26.6-12.4l-88.4,160.2l25.6,14.1L982.1,140"/><path d="M856.8,371.3l-29.3-16.1L691.7,601.5l29.2,16.1L856.8,371.3"/><path d="M859.7,380.6l-41.5-22.9l-13.6,24.7l41.5,22.9L859.7,380.6"/><path d="M843.2,410.5l-41.5-22.9l-13.6,24.7l41.5,22.9L843.2,410.5"/><path d="M826.7,440.4l-41.5-22.9l-13.6,24.7l41.5,22.9L826.7,440.4"/><path d="M810.2,470.3l-41.5-22.9l-13.6,24.7l41.5,22.9L810.2,470.3"/><path d="M793.7,500.2l-41.5-22.9L738.6,502l41.5,22.9L793.7,500.2"/><path d="M760.7,560l-41.5-22.9l-13.6,24.7l41.5,22.9L760.7,560"/><path d="M777.2,530.1l-41.5-22.9l-13.6,24.7l41.5,22.9L777.2,530.1"/><path d="M744.2,589.9L702.7,567l-13.6,24.7l41.5,22.9L744.2,589.9"/></g><g id="Ammo_Bandoleer_Accessories_Chest_F" style="fill: rgb(117, 117, 117);"><g><g><path d="M858.2,383.2l17,9.4c1.8,1,2.5,3.3,1.5,5.1c-1.9,3.5-5,9.1-7,12.6c-1,1.8-3.3,2.5-5.1,1.5l-17-9.4 L858.2,383.2z"/><path d="M870.7,390.1l-1.4-0.8l-10.6,19.2l1.4,0.8L870.7,390.1z"/><path d="M867.8,388.4l-1.4-0.8l-10.6,19.2l1.4,0.8L867.8,388.4z"/></g><g><path d="M816.7,360.3l-10.6,19.2l-17-9.4c-1.8-1-2.5-3.3-1.5-5.1c1.9-3.5,5-9.1,7-12.6c1-1.8,3.3-2.5,5.1-1.5 L816.7,360.3z"/><path d="M803.8,353.2l-1.4-0.8l-10.6,19.2l1.4,0.8L803.8,353.2z"/></g></g><g><g><path d="M825.1,443.2l17,9.4c1.8,1,2.5,3.3,1.5,5.1c-1.9,3.5-5,9.1-7,12.6c-1,1.8-3.3,2.5-5.1,1.5l-17-9.4 L825.1,443.2z"/><path d="M837.7,450.1l-1.4-0.8l-10.6,19.2l1.4,0.8L837.7,450.1z"/><path d="M834.7,448.5l-1.4-0.8l-10.6,19.2l1.4,0.8L834.7,448.5z"/></g><g><path d="M783.6,420.3L773,439.5l-17-9.4c-1.8-1-2.5-3.3-1.5-5.1c1.9-3.5,5-9.1,7-12.6c1-1.8,3.3-2.5,5.1-1.5 L783.6,420.3z"/><path d="M770.8,413.2l-1.4-0.8l-10.6,19.2l1.4,0.8L770.8,413.2z"/></g></g><g><g><path d="M808.7,472.9l17,9.4c1.8,1,2.5,3.3,1.5,5.1c-1.9,3.5-5,9.1-7,12.6c-1,1.8-3.3,2.5-5.1,1.5l-17-9.4 L808.7,472.9z"/><path d="M821.2,479.8l-1.4-0.8l-10.6,19.2l1.4,0.8L821.2,479.8z"/><path d="M818.3,478.2l-1.4-0.8l-10.6,19.2l1.4,0.8L818.3,478.2z"/></g><g><path d="M767.2,450l-10.6,19.2l-17-9.4c-1.8-1-2.5-3.3-1.5-5.1c1.9-3.5,5-9.1,7-12.6c1-1.8,3.3-2.5,5.1-1.5 L767.2,450z"/><path d="M754.3,442.9l-1.4-0.8l-10.6,19.2l1.4,0.8L754.3,442.9z"/></g></g><g><g><path d="M792.1,503l17,9.4c1.8,1,2.5,3.3,1.5,5.1c-1.9,3.5-5,9.1-7,12.6c-1,1.8-3.3,2.5-5.1,1.5l-17-9.4L792.1,503 z"/><path d="M804.7,509.9l-1.4-0.8l-10.6,19.2l1.4,0.8L804.7,509.9z"/><path d="M801.7,508.3l-1.4-0.8l-10.6,19.2l1.4,0.8L801.7,508.3z"/></g><g><path d="M750.6,480.1L740,499.3l-17-9.4c-1.8-1-2.5-3.3-1.5-5.1c1.9-3.5,5-9.1,7-12.6c1-1.8,3.3-2.5,5.1-1.5 L750.6,480.1z"/><path d="M737.8,473l-1.4-0.8l-10.6,19.2l1.4,0.8L737.8,473z"/></g></g></g><g id="Buckles_Bandoleer_Accessories_Chest_F" style="fill: rgb(117, 117, 117);"><g><path d="M905.1,285.1l-30.5-16.8l-17.2,31.3l30.5,16.8L905.1,285.1z"/><path d="M897.3,290.4l-23-12.7L857.1,309l23,12.7L897.3,290.4z"/></g><path d="M905.2,248.5l-19.7-10.8l17.1-31.1l39.8,21.9l-17.1,31.1L905.2,248.5l3.9-7l11.2,6.2l9.4-17.1l-22-12.1 l-9.4,17.1l10.8,5.9"/></g></g></g></g><g id="Gauntlets_Current"><g id="LeftGauntlets_Current"><g id="Left-Gauntlets_F"><g id="Gunslinger_Gauntlet_Left_F" class="option" style="display: inherit;"><g id="Accent-Top_Gunslinger_Gauntlet_Left_F" style="fill: rgb(57, 64, 71);"><path d="M1235.7,805.2l1.6,60.3l-30.8,5.9l-2.3-57.2L1235.7,805.2z"/><path d="M1203.1,1025.3l3.5,31l-27,3.5l-3.8-30.9L1203.1,1025.3z"/></g><path id="Top_Gunslinger_Gauntlet_Left_F" d="M1235.7,805.2l14.1-4l1.2,281.8l-67.4,8.6l-5.4-44.1l1.5,12.5l27-3.5 l-3.5-31l-27.3,3.6l-24.5-199.6L1235.7,805.2l-31.5,9l2.3,57.2l30.8-5.9L1235.7,805.2z" style="fill: rgb(71, 80, 89);"/><g id="Accent-Bottom_Gunslinger_Gauntlet_Left_F" style="fill: rgb(48, 54, 59);"><path d="M1105.7,916.7l-5.8-25.1l-17.6,4.1l5.8,25.1L1105.7,916.7z"/><path d="M1112.4,945.2l-5.8-25.1l-17.6,4.1l5.8,25.1L1112.4,945.2z"/><path d="M1175.8,1028.9l-60.3,7.9l7.1,30.5l57-7.4L1175.8,1028.9z"/></g><path id="Bottom_Gunslinger_Gauntlet_Left_F" d="M1179.1,1055.4l-3.3-26.4l-60.3,7.9l7.1,30.5l57-7.4l3.9,31.7 c0,0-21.1,1.9-36.9,3.4c-9.9,0.9-18.9-5.6-21.2-15.3c-12.4-52.8-49.6-211.6-49.6-211.6l76.1-34.6L1179.1,1055.4z M1112.4,945.2 l-5.8-25.1l-17.6,4.1l5.8,25.1L1112.4,945.2z M1105.7,916.7l-5.8-25.1l-17.6,4.1l5.8,25.1L1105.7,916.7z" style="fill: rgb(57, 64, 71);"/><g id="Flamethrower_Attachment_Gunslinger_Gauntlet_Left_F" class="option" style="display: inherit;"><g id="Tubes_Flamethrower_Attachment_Gunslinger_Gauntlet_Left_F" style="fill: rgb(103, 103, 103);"><path d="M1264.9,818.8l-8.8,0l0.2,269.3l8.8,0L1264.9,818.8z"/><path d="M1285.2,818.8l-8.8,0l0.2,193.1l8.8,0L1285.2,818.8z"/><path d="M1266.6,835.7l-12.2,0l0,64.1l12.2,0L1266.6,835.7z"/><path d="M1286.9,835.7l-12.2,0l0.1,64.1l12.2,0L1286.9,835.7z"/></g><g id="Main_Flamethrower_Attachment_Gunslinger_Gauntlet_Left_F" style="fill: rgb(81, 81, 81);"><path d="M1289,818.8l-36.3,0l0,16.9l36.3,0L1289,818.8z"/><path d="M1289.8,899.9l-38,0l0,10.3l38,0L1289.8,899.9z"/><path d="M1288.3,910.1l-34.8,0v5.2l34.8,0V910.1z"/><path d="M1255.7,893.5l-5.9,0.2l0.1,31.3l5.9-0.2L1255.7,893.5z"/></g><g id="Accent_Flamethrower_Attachment_Gunslinger_Gauntlet_Left_F" style="fill: rgb(88, 88, 88);"><path d="M1285.6,1011.9l-9.5,0l-1.5,13.2l12.4,0L1285.6,1011.9z"/><path d="M1289.3,943.3l-16.8,0l0,20.4l16.8,0L1289.3,943.3z"/><path d="M1286.9,963.7l-12.2,0l0,20.4l12.2,0L1286.9,963.7z"/><path d="M1266.8,1054.1l-12.2,0l0,28l12.2,0L1266.8,1054.1z"/><path d="M1266.7,963.8l-12.2,0l0,38.1l12.2,0L1266.7,963.8z"/><path d="M1269.1,1068.1l-16.8,0l0,5.4l16.8,0L1269.1,1068.1z"/></g><path id="Base_Flamethrower_Attachment_Gunslinger_Gauntlet_Left_F" d="M1249.8,893.7l-0.2-85l10.1,4l0.4,143.7 L1250,961l-0.1-35.9l5.9-0.2l-0.1-31.3L1249.8,893.7z" style="fill: rgb(80, 80, 80);"/></g></g></g></g><g id="RightGauntlets_Current"><g id="Right-Gauntlets_F"><g id="Gunslinger_Gauntlet_Right_F" class="option" style="display: inherit;"><g id="Accent-Top_Gunslinger_Gauntlet_Right_F" style="fill: rgb(57, 64, 71);"><path d="M177.3,805.2l-1.6,60.3l30.8,5.9l2.3-57.2L177.3,805.2z"/><path d="M209.8,1025.3l-3.5,31l27,3.5l3.8-30.9L209.8,1025.3z"/></g><path id="Top_Gunslinger_Gauntlet_Right_F" d="M177.3,805.2l-14.1-4l-1.2,281.8l67.4,8.6l5.4-44.1l-1.5,12.5l-27-3.5 l3.5-31l27.3,3.6l24.5-199.6L177.3,805.2l31.5,9l-2.3,57.2l-30.8-5.9L177.3,805.2z" style="fill: rgb(71, 80, 89);"/><g id="Accent-Bottom_Gunslinger_Gauntlet_Right_F" style="fill: rgb(48, 54, 59);"><path d="M307.2,916.7l5.8-25.1l17.6,4.1l-5.8,25.1L307.2,916.7z"/><path d="M300.5,945.2l5.8-25.1l17.6,4.1l-5.8,25.1L300.5,945.2z"/><path d="M237.1,1028.9l60.3,7.9l-7.1,30.5l-57-7.4L237.1,1028.9z"/></g><path id="Bottom_Gunslinger_Gauntlet_Right_F" d="M233.9,1055.4l3.3-26.4l60.3,7.9l-7.1,30.5l-57-7.4l-3.9,31.7 c0,0,21.1,1.9,36.9,3.4c9.9,0.9,18.9-5.6,21.2-15.3C300,1026.8,337.2,868,337.2,868l-76.1-34.6L233.9,1055.4z M300.5,945.2 l5.8-25.1l17.6,4.1l-5.8,25.1L300.5,945.2z M307.2,916.7l5.8-25.1l17.6,4.1l-5.8,25.1L307.2,916.7z" style="fill: rgb(57, 64, 71);"/><g id="Missle_Attachment_Gunslinger_Gauntlet_Right_F" class="option" style="display: inherit;"><g id="Head_Missle_Attachment_Gunslinger_Gauntlet_Right_F" style="fill: rgb(81, 81, 81);"><path d="M140.1,1012.4l20.2-47.5l-40.1-1.2L140.1,1012.4z"/><path d="M146.8,968.8c-0.9,0-1.6,1.8-1.6,4.2c0,2.3,0.7,4.3,1.6,4.3c0.9,0,1.6-1.8,1.6-4.2 C148.3,970.7,147.6,968.8,146.8,968.8z"/><path d="M145.4,981.3c-0.7,0-1.3,1.5-1.3,3.3s0.6,3.4,1.3,3.4c0.7,0,1.3-1.5,1.3-3.3 C146.7,982.8,146.1,981.3,145.4,981.3z"/><path d="M145,992.7c-0.6,0-1.2,1.4-1.2,3.1c0,1.7,0.5,3.1,1.2,3.1c0.6,0,1.2-1.4,1.2-3.1 C146.1,994.1,145.6,992.7,145,992.7z"/><path d="M153.3,969c-0.9,0-1.6,1.8-1.6,4.2c0,2.3,0.7,4.3,1.6,4.3c0.9,0,1.6-1.8,1.6-4.2 C154.8,970.9,154.1,969,153.3,969z"/><path d="M127.3,968.2c-0.9,0-1.6,1.8-1.6,4.2c0,2.3,0.7,4.3,1.6,4.3c0.9,0,1.6-1.8,1.6-4.2 C128.9,970.1,128.2,968.2,127.3,968.2z"/><path d="M133.8,968.4c-0.9,0-1.6,1.8-1.6,4.2c0,2.3,0.7,4.3,1.6,4.3c0.9,0,1.6-1.8,1.6-4.2 C135.4,970.3,134.6,968.4,133.8,968.4z"/><path d="M135,980.9c-0.7,0-1.3,1.5-1.3,3.3c0,1.9,0.6,3.4,1.3,3.4c0.7,0,1.3-1.5,1.3-3.3S135.7,981,135,980.9z"/><path d="M135.4,992.4c-0.6,0-1.2,1.4-1.2,3.1c0,1.7,0.5,3.1,1.2,3.1c0.6,0,1.2-1.4,1.2-3.1 C136.6,993.8,136.1,992.4,135.4,992.4z"/><path d="M140.3,968.6c-0.9,0-1.6,1.8-1.6,4.2c0,2.3,0.7,4.3,1.6,4.3c0.9,0,1.6-1.8,1.6-4.2 C141.9,970.5,141.1,968.6,140.3,968.6z"/><path d="M140.2,981.1c-0.7,0-1.3,1.5-1.3,3.3s0.6,3.4,1.3,3.4c0.7,0,1.3-1.5,1.3-3.3S140.9,981.1,140.2,981.1z"/><path d="M140.2,992.5c-0.6,0-1.2,1.4-1.2,3.1c0,1.7,0.5,3.1,1.2,3.1c0.6,0,1.2-1.4,1.2-3.1 C141.4,994,140.8,992.6,140.2,992.5z"/><path d="M130,987.5c0.6-0.2,1.1-1.6,1.1-3.3c0-1.9-0.6-3.4-1.3-3.4c-0.7,0-1.3,1.4-1.3,3.3L130,987.5z M151.9,984.8c0-1.8-0.6-3.3-1.3-3.3c-0.7,0-1.3,1.5-1.3,3.3c0,1.7,0.5,3.2,1.1,3.4L151.9,984.8z"/></g><g id="Main_Missle_Attachment_Gunslinger_Gauntlet_Right_F" style="fill: rgb(63, 63, 63);"><path d="M125.1,957.2l30.3,0.9l0,6.6l-30.3-0.9L125.1,957.2z"/><path d="M125.6,816.8l30.3,0.9l0,6.6l-30.3-0.9L125.6,816.8z"/><path d="M131.9,792.6l17.9,0.6l0,6.6l-17.9-0.5L131.9,792.6z"/><path d="M124.2,799l33.3,1l-0.1,17.8l-33.3-1L124.2,799z"/><path d="M122.8,823.4l35.8,1.1l-0.4,133.7l-35.8-1.1L122.8,823.4z"/><path d="M157.1,895.2l5.9,0.2l-0.1,31.3l-5.9-0.2L157.1,895.2z"/></g><g id="Accent_Missle_Attachment_Gunslinger_Gauntlet_Right_F" style="fill: rgb(71, 70, 70);"><path d="M140.1,1020.9l3.8-11.9l-7.5-0.2L140.1,1020.9z"/><path d="M137.2,1005.8l6,0.2l0.7,3l-7.5-0.2L137.2,1005.8z"/><path d="M129.9,783.2l21.9,0.7l0,9.3l-21.9-0.7L129.9,783.2z"/><path d="M133.6,778.5l14.6,0.4l3.7,5l-21.9-0.7L133.6,778.5z"/><path d="M133.6,823.7l6.1,0.2l-0.4,133.7l-6.1-0.2L133.6,823.7z"/><path d="M141.8,824l6.1,0.2l-0.4,133.7l-6.1-0.2L141.8,824z"/><path d="M120.3,826.7l2.4-3.4l-0.4,133.7l-2.4-3.5L120.3,826.7z"/><path d="M125.3,823.5l6.1,0.2L131,957.4l-6.1-0.2L125.3,823.5z"/><path d="M150.1,824.2l3.8,0.1l-0.4,133.7l-3.8-0.1L150.1,824.2z"/></g><path id="Base_Missle_Attachment_Gunslinger_Gauntlet_Right_F" d="M153.1,814.3l10.1-4l-0.5,152.3l-10.1-4.6 L153.1,814.3z M157.1,895.2l5.9,0.2l-0.1,31.3l-5.9-0.2L157.1,895.2z" style="fill: rgb(76, 76, 76);"/></g></g></g></g></g></g><g id="Lower-Body_F_Wrapper" transform="translate(268,1285)"><g id="Knees_Current"><g id="LeftKnee_Current"><g id="Left-Knee_F"><g id="None-(Nih-Plates)_Knee_Left_F" class="option" style="display: inherit;"></g></g></g><g id="RightKnee_Current"><g id="Right-Knee_F"><g id="None-(Nih-Plates)_Knee_Right_F" class="option" style="display: inherit;"></g></g></g></g><g id="Shins_Current"><g id="LeftShin_Current"><g id="Left-Shin_F"><g id="Heavy-Shnees_Shin_Left_F" class="option" style="display: inherit;"><g id="Shin_Heavy-Shnees-Shin_Left_F" style="fill: rgb(19, 25, 17);"><path d="M903.4,1623.8l52.7-62.5l90.7-6.4l-35.5-595l-258.8,19.6L856.3,1534l-1.9,60.1L903.4,1623.8"/><path d="M793.4,968.3l-26.7-24.2l-18.4-0.9c0,0-11.1,52.3-10.5,78.5c0.9,42.5,41.2,98.8,41.2,98.8l27.8,14.9 l35.5-72.3L793.4,968.3"/><path d="M982.7,1036.9l21.7-87.9c0,0,23.1,51.4,24.2,77.7c2.1,46.6-8.7,76.8-8.7,76.8L982.7,1036.9"/><path d="M956.1,1561.2l90.7-6.4l-20.1-46.5l-61.9,2.5L956.1,1561.2"/><path d="M994.8,1509.6l-53.3-392.5"/></g><g id="Knee_Heavy-Shnees-Shin_Left_F" style="fill: rgb(15, 20, 12);"><path d="M960.8,867.6l-146,17.3L788,989.1l100.2,134.2l96.4-9l38.5-157.7L960.8,867.6"/><path d="M814.8,884.9l29.2,39.3L956.9,912l3.9-44.5L814.8,884.9"/><path d="M844,924.2l-55.9,64.6l26.7-103.9L844,924.2"/><path d="M956.9,912l66.2,44.7l-62.3-89.1L956.9,912"/><path d="M956.9,912l27.7,202.3l38.5-157.7L956.9,912"/><path d="M844,924.2l-55.9,64.6l100.2,134.6L844,924.2"/></g><g id="Straps_Heavy-Shnees-Shin_Left_F" class="toggle" style="fill: rgb(20, 18, 17);"><path d="M792.5,1213.2l55.7-6.5l4.5,25.3l-55.7,6.5L792.5,1213.2"/><path d="M796.3,1210.7l11.8-1.4l5.4,29.9l-11.8,1.4L796.3,1210.7"/><path d="M837.5,1457.7l55.7-6.5l4.5,25.3l-55.7,6.5L837.5,1457.7"/><path d="M841.3,1455.2l11.8-1.4l5.4,29.9l-11.8,1.4L841.3,1455.2"/></g></g></g></g><g id="RightShin_Current"><g id="Right-Shin_F"><g id="Heavy-Shnees_Shin_Right_F" class="option" style="display: inherit;"><g id="Shin_Heavy-Shnees-Shin_Right_F" style="fill: rgb(19, 25, 17);"><path d="M363.7,1623.8l-52.8-62.5l-90.7-6.4l35.3-595l258.8,19.5L410.9,1534l2,60.1L363.7,1623.8"/><path d="M473.5,968.3l26.7-24.2l18.4-0.9c0,0,11.1,52.3,10.6,78.5c-0.9,42.6-41.1,98.8-41.1,98.8l-27.8,14.9 l-35.5-72.3L473.5,968.3"/><path d="M284.3,1037L262.5,949c0,0-23.1,51.4-24.2,77.7c-2,46.6,8.7,76.7,8.7,76.7L284.3,1037"/><path d="M311,1561.2l-90.7-6.4l20.1-46.5l61.9,2.5L311,1561.2"/><path d="M272.4,1509.6l53.2-392.5"/></g><g id="Knee_Heavy-Shnees-Shin_Right_F" style="fill: rgb(15, 20, 12);"><path d="M306.1,867.6l146,17.2l26.8,104.2l-100.1,134.3l-96.4-8.9l-38.5-157.6L306.1,867.6"/><path d="M452,884.8l-29.2,39.3l-112.9-12.1l-3.9-44.5L452,884.8"/><path d="M422.9,924.2l55.9,64.6L452,884.8L422.9,924.2"/><path d="M309.9,912.1l-66.1,44.7l62.3-89.2L309.9,912.1"/><path d="M309.9,912.1l-27.6,202.3l-38.5-157.6L309.9,912.1"/><path d="M422.9,924.2l56,64.6l-100.1,134.6L422.9,924.2"/></g><g id="Straps_Heavy-Shnees-Shin_Right_F" class="toggle" style="fill: rgb(20, 18, 17);"><path d="M474.5,1213.2l-55.7-6.5l-4.5,25.3l55.7,6.4L474.5,1213.2"/><path d="M470.7,1210.7l-11.8-1.4l-5.4,29.9l11.8,1.4L470.7,1210.7"/><path d="M429.6,1457.7l-55.7-6.5l-4.5,25.3l55.7,6.4L429.6,1457.7"/><path d="M425.8,1455.2l-11.8-1.4l-5.4,29.9l11.8,1.4L425.8,1455.2"/></g></g></g></g></g><g id="Ankles_Current"><g id="LeftAnkle_Current"><g id="Left-Ankle_F"><g id="Legacy_Ankle_Left_F" class="option" style="display: inherit;"><path id="Plate-2_Legacy-Ankle_Left_F" d="M1035.7,1580l38.5,34.8l26.6,33.3l-42.4,13.8l-97.1-20.2l-35.5-47 L1035.7,1580" style="fill: rgb(14, 20, 12);"/><path id="Plate-1_Legacy-Ankle_Left_F" d="M860.9,1514.6c0,0,38.8,17.3,96.2,15.3c39.4-1.4,55.4-11.3,55.4-11.3 l33.3,61.8l-8.6,34.1l-140.5-11l-34.6-29.3L860.9,1514.6" style="fill: rgb(14, 20, 12);"/><path id="Trauma-Plate-2_Legacy-Ankle_Left_F" d="M1044,1587.5l30,27.1l15.5,19.4l-32.3,10.5l-85.6-17.8 l-14-18.6l79.5,6.2L1044,1587.5" class="toggle" style="fill: rgb(25, 30, 23);"/><path id="Trauma-Plate-1_Legacy-Ankle_Left_F" d="M875.6,1536.2l0.6,28.3l28,22.7l123.5,9.7l8.7-34.1 l-15.7-29.2c-10.4,3-42.1,12.1-62.8,12.9C924.8,1547.7,894,1541,875.6,1536.2" class="toggle" style="fill: rgb(25, 30, 23);"/></g></g></g><g id="RightAnkle_Current"><g id="Right-Ankle_F"><g id="Legacy_Ankle_Right_F" class="option" style="display: inherit;"><path id="Plate-2_Legacy-Ankle_Right_F" d="M230,1580l-38.5,34.8l-26.6,33.3l42.4,13.8l97.1-20.2l35.5-47L230,1580" style="fill: rgb(14, 20, 12);"/><path id="Plate-1_Legacy-Ankle_Right_F" d="M404.7,1514.6c0,0-38.8,17.3-96.2,15.3c-39.4-1.4-55.4-11.3-55.4-11.3 l-33.3,61.8l8.6,34.1l140.5-11l34.6-29.3L404.7,1514.6" style="fill: rgb(14, 20, 12);"/><path id="Trauma-Plate-2_Legacy-Ankle_Right_F" d="M221.7,1587.5l-30,27.1l-15.5,19.4l32.3,10.5l85.6-17.8 l14-18.6l-79.5,6.2L221.7,1587.5" class="toggle" style="fill: rgb(25, 30, 23);"/><path id="Trauma-Plate-1_Legacy-Ankle_Right_F" d="M390,1536.2l-0.6,28.3l-28,22.7l-123.5,9.7l-8.7-34.1 l15.7-29.2c10.4,3,42.1,12.1,62.8,12.9C340.8,1547.7,371.6,1541,390,1536.2" class="toggle" style="fill: rgb(25, 30, 23);"/></g></g></g></g><g id="Toes_Current"><g id="LeftToe_Current"><g id="Left-Toe_F"><g id="Armored_Toe_Left_F" class="option" style="display: inherit;"><g id="Plate_Armored_Toe_Left_F" style="fill: rgb(25, 30, 23);"><path d="M947,1678.1l102.1,56.7l77.1,5.3l61.8-15.7c12.9-10.8,18.1-35,7-59.2l-87-41.4l-68.3,17.1L947,1678.1"/><path d="M1032.5,1644c0,0,79.6,23.3,89.6,37.1c11,15.3,4.1,58.9,4.1,58.9"/></g><g id="Trim_Armored_Toe_Left_F" style="fill: rgb(14, 20, 12);"><path d="M1096,1617.1l-82,19.8l-69.1,42l14.3,7.9l73.3-42.9l81.6-19.2L1096,1617.1"/><path d="M1014.1,1637l18.4,7"/></g></g></g></g><g id="RightToe_Current"><g id="Right-Toe_F"><g id="Armored_Toe_Right_F" class="option" style="display: inherit;"><g id="Plate_Armored_Toe_Right_F" style="fill: rgb(25, 30, 23);"><path d="M318,1678.1l-102.1,56.7l-77.1,5.3l-61.8-15.7c-12.9-10.8-18.1-35-7-59.2l87-41.4l68.3,17.1L318,1678.1"/><path d="M232.5,1644c0,0-79.6,23.3-89.5,37.1c-11,15.3-4.1,58.9-4.1,58.9"/></g><g id="Trim_Armored_Toe_Right_F" style="fill: rgb(14, 20, 12);"><path d="M169,1617.1l81.9,19.8l69.1,42l-14.3,7.9l-73.3-42.9l-81.6-19.2L169,1617.1"/><path d="M250.9,1637l-18.4,7"/></g></g></g></g></g><g id="Thighs_Current"><g id="LeftThigh_Current"><g id="Left-Thigh_F"><g id="Basic_Thigh_Left_F" class="option" style="display: inherit;"><path id="Thigh_Basic-Thigh_Left_F" d="M986.2,457.9c0,0-53.3-68.5-80.5-79.9c-25.8-10.8-60.3-6.1-82.5,11.6 c-33.8,27.1-111.4,85.7-120.2,151c-9.8,72.9,43.2,234.1,61.3,286.1c6.1,17.7,29.3,25.7,47,26.4c32.8,1.2,122.6-1.6,144.1-50 C984.5,737.3,986.2,457.9,986.2,457.9" style="fill: rgb(15, 20, 12);"/><path id="Trauma-Plate_Basic-Thigh_Left_F" d="M968.2,464.1c-8-9.9-27.1-33.1-45.5-50.9 c-8.8-8.5-17.2-15.8-23.8-18.6c-20.1-8.4-47-4.8-64.3,9.1c-19.6,15.7-54.6,42.3-81.2,74.8c-16.1,19.7-29.4,41.6-32.5,64.5 c-9.5,70.8,42.9,227.2,60.4,277.8c1.5,4.4,5.7,7.2,10.1,9.3c6.5,3.2,14.1,4.7,20.6,5c18.4,0.7,55.9,0.2,87.2-10.2 c17.3-5.7,33.1-14.1,39.7-29.1c8.3-18.7,13.8-55.7,18.1-98.1C966.1,607.1,967.9,492.1,968.2,464.1" class="toggle" style="fill: rgb(19, 25, 17);"/><g id="Ridge_Basic-Thigh_Left_F" class="toggle" style="fill: rgb(15, 20, 12);"><path d="M896.3,372.3l-36.8-9.5l-38.6,21.3l12.5,469.2c25.4,4.9,25.8,5.9,48.1-0.9L896.3,372.3"/><path d="M859.8,362.9l-1,494.3"/></g></g></g></g><g id="RightThigh_Current"><g id="Right-Thigh_F"><g id="Basic_Thigh_Right_F" class="option" style="display: inherit;"><path id="Thigh_Basic-Thigh_Right_F" d="M278.8,457.9c0,0,53.3-68.5,80.5-79.9c25.8-10.8,60.3-6.1,82.5,11.6 c33.8,27.1,111.4,85.7,120.2,151c9.8,72.9-43.2,234.1-61.3,286.1c-6.1,17.7-29.3,25.7-47,26.4c-32.8,1.2-122.6-1.6-144.1-50 C280.5,737.3,278.8,457.9,278.8,457.9" style="fill: rgb(15, 20, 12);"/><path id="Trauma-Plate_Basic-Thigh_Right_F" d="M296.8,464.1c8-9.9,27.1-33.1,45.5-50.9 c8.8-8.5,17.1-15.8,23.8-18.6c20.1-8.4,47-4.8,64.3,9.1c19.6,15.7,54.6,42.3,81.2,74.8c16.1,19.7,29.4,41.6,32.5,64.5 c9.5,70.8-42.9,227.2-60.4,277.8c-1.5,4.4-5.7,7.2-10.1,9.3c-6.5,3.2-14.1,4.7-20.6,5c-18.4,0.7-55.9,0.2-87.2-10.2 c-17.3-5.7-33.1-14.1-39.7-29.1c-8.3-18.7-13.8-55.7-18.1-98.1C298.9,607.1,297.1,492.1,296.8,464.1" class="toggle" style="fill: rgb(19, 25, 17);"/><g id="Ridge_Basic-Thigh_Right_F" class="toggle" style="fill: rgb(15, 20, 12);"><path d="M368.7,372.3l36.8-9.5l38.6,21.3l-12.5,469.2c-25.4,4.9-25.8,5.9-48.1-0.9L368.7,372.3"/><path d="M405.2,362.9l1,494.3"/></g></g></g></g></g><g id="Groin_Current"><g id="Groin_F"><g id="Basic_Groin_F" class="option" style="display: inherit;"><path id="Groin-Plate_Basic_F" d="M566.9,360L456.1,137.4h354.3L699.6,360c0,0-44.2,53-66.4,53 C611.1,413.1,566.9,360,566.9,360z" style="fill: rgb(15, 20, 12);"/><path id="Trauma-Plating_Groin_F" d="M687.8,352.3l100-200.9H478.7l100,200.9c4.4,5.1,22,25.4,38.9,38.2 c5.9,4.5,11.2,8.6,15.6,8.6c4.4,0,9.7-4.1,15.6-8.6C665.8,377.7,683.5,357.4,687.8,352.3" class="toggle" style="fill: rgb(19, 25, 17);"/></g></g></g><g id="Waist_Current" class="F"><g id="Accessories_Waist_F"><g id="Kama_F" class="toggle" style=""><g id="Tattered_Kama_F" class="option" style="display: inherit;"><g id="Main_Kama-Tattered" style="fill: rgb(12, 17, 12);"><path d="M844.1,99.4c14.9-3.4,8.2,54.9,41.5,100.2c20.3,27.6,47.5,73.3,53,98.7c6.4,30.2,25.7,60.7,33.3,90.9 c13.2,52.4,31.1,103.4,42.1,155c8.8,41.2,5.8,85,15.6,126.4c7.4,31.3,2.7,58.4,12.9,88.3c11.4,33.5-11.5,67-3.3,101.3 c5,21,0.9,41.1,7.5,61.6c2.2,6.9,4.1,13.9,5.9,21c0.5,2.2,1,4.3,1.5,6.5c0.3,1.3,1.8,4.8,0.8,3.9c-6.9-6.3-10.6-18.1-17-25.4 c-12.5-14.3-28.2-25-40-40c-4.6-5.8-8.1-12.2-11.3-18.9c-0.3-0.6-2.4-5.7-2.6-5.6c-24.2,5.2-48.3,14.7-68.9-6.5 c-16.4-16.8-30.5-53-38.8-75.5c-3.5-9.4,1.2-64.9-5-70.1c-4.6-3.8-8.8,46.1-14.4,42.7c-34.8-21.2-84.2-33.8-84.2-33.8 s-3.9-70.7-1-111.2c2.5-36.4-2.4-67.9-7.6-103.5c-6.7-46-5.9-93.4-2.9-139.5C765.7,290.6,709.9,129.8,844.1,99.4z M923.8,779.8 c-4.3,18.7-4.7,40,5.6,56.9c3.4,5.6,12.1,14.6,19.6,12.2c31.7-10.1-7.1-60.4-17.3-71.6L923.8,779.8z M830.8,643.2 c-5.7,3.6-10.7,7.9-14.8,13.3c-15,19.6,26.2,9.9,19.1-14L830.8,643.2z"/><path d="M421.7,99.4c-14.9-3.4-12,52.4-41.5,100.2c-19.5,31.5-47.5,73.3-53,98.7c-6.4,30.2-25.7,60.7-33.3,90.9 c-13.2,52.4-31.1,103.4-42.1,155c-8.8,41.2-5.8,85-15.6,126.4c-7.4,31.3-2.7,58.4-12.9,88.3c-11.4,33.5,11.5,67,3.3,101.3 c-5,21-0.9,41.1-7.5,61.6c-2.2,6.9-4.1,13.9-5.9,21c-0.5,2.2-1,4.3-1.5,6.5c-0.3,1.3-1.8,4.8-0.8,3.9 c6.9-6.3,10.6-18.1,17-25.4c12.5-14.3,28.2-25,40-40c4.6-5.8,8.1-12.2,11.3-18.9c0.3-0.6,2.4-5.7,2.6-5.6 c24.2,5.2,48.3,14.7,68.9-6.5c16.4-16.8,30.5-53,38.8-75.5c3.5-9.4-1.2-64.9,5-70.1c4.6-3.8,8.8,46.1,14.3,42.7 c34.8-21.2,84.2-33.8,84.2-33.8s3.9-70.7,1-111.2c-2.5-36.4,2.4-67.9,7.6-103.5c6.7-46,5.9-93.4,2.9-139.5 C500.1,290.6,555.9,129.8,421.7,99.4z M342,779.8c4.3,18.7,4.7,40-5.6,56.9c-3.4,5.6-12.1,14.6-19.6,12.2 c-31.7-10.1,7.1-60.4,17.3-71.6L342,779.8z M435,643.2c5.7,3.6,10.7,7.9,14.8,13.3c15,19.6-26.2,9.9-19.1-14L435,643.2z"/></g></g></g><g id="Right-Holster_F" class="toggle" style=""><g id="Thigh-Plate-Holster_Right_F" class="option" style="display: inherit;"><g id="Weapon_Thigh-Plate-Holster-Right_F"><g id="Main_Weapon_Thigh-Plate-Holster-Right_F" style="fill: rgb(73, 73, 73);"><path d="M313.1,405.6l-2.5-38.3l-6.6,0.4l-1.6-24.1l6.6-0.4l-0.8-12.5c-0.3-4.1-5.9-7-12.6-6.6 c-15.3,1-41.6,2.7-56.9,3.7c-6.7,0.4-11.9,4.1-11.6,8.2l0.8,12.5l6.6-0.4l1.6,24.1l-6.6,0.4l2.5,38.3l15.5-1l6.9,106.1 l50.2-3.3l-6.9-106.1L313.1,405.6z"/><path d="M238.1,404.8l8.9-0.6l8.3,127.5l50.2-3.3L297.2,401l8.9-0.6l-1.9-29.1l-68,4.4L238.1,404.8z"/><path d="M247.5,335.5l40.3-2.6l2.6,39.4l-40.3,2.6L247.5,335.5z"/><path d="M286.4,413.2l6.6-0.4l6.6,100.3l-6.6,0.4L286.4,413.2z"/><path d="M268,391.4l6.6-0.4l9.2,140.8l-6.6,0.4L268,391.4z"/><path d="M252.7,415.4l6.6-0.4l7.3,111.3l-6.6,0.4L252.7,415.4z"/></g><g id="Accent_Weapon_Thigh-Plate-Holster-Right_F" style="fill: rgb(41, 40, 40);"><path d="M276.1,413.9l10.2-0.7l6.6,100.3l-10.2,0.7L276.1,413.9z"/><path d="M259.3,415l10.3-0.7l7.3,111.3l-10.3,0.7L259.3,415z"/><path d="M281.2,333.3l6.6-0.4l2.6,39.4l-6.6,0.4L281.2,333.3z"/><path d="M247.5,335.5l6.6-0.4l2.6,39.4l-6.6,0.4L247.5,335.5z"/><path d="M284.6,376.6l0.3,4l-28.4,1.9l-0.3-4L284.6,376.6z"/><path d="M284.9,380.6l0.3,4l-28.4,1.9l-0.3-4L284.9,380.6z"/><path d="M284.4,372.6l0.3,4l-28.4,1.9l-0.3-4L284.4,372.6z"/><path d="M281.2,323.2l0.3,4l-28.4,1.9l-0.3-4L281.2,323.2z"/></g></g><path id="Holster_Thigh-Plate-Holster-Right_F" d="M244.7,524.9l35.6-2.4l19.9-72.4l10.9-0.7L332.9,771 c0,0-30.1,2-51.1,3.5c-5.3,0.4-10.6-1.4-14.6-4.9c-4-3.5-6.5-8.5-6.8-13.8C256.3,696.3,244.7,524.9,244.7,524.9z" style="fill: rgb(14, 17, 12);"/></g></g></g><g id="Under-Belt_F"><g id="Girth-Belt_F" class="option" style="display: inherit; fill: rgb(9, 15, 8);"><path d="M632.9,72.8c-75.2,0-225.5-19.1-225.5-19.1l4.9-16.2c0,0,146.6,12.7,220.6,19.1 c73.6-6.4,220.6-19.1,220.6-19.1l4.9,16.2C858.4,53.7,708.1,72.8,632.9,72.8z"/><path d="M632.9,89c-76.7,0-230.2-19.1-230.2-19.1l4.7-16.2c0,0,187.9,16,225.5,19.1c37.6-3.2,225.5-19.1,225.5-19.1 l4.7,16.2C863.1,69.9,709.6,89,632.9,89z"/><path d="M632.9,105.2c-77.9,0-233.7-19.1-233.7-19.1l3.5-16.2c0,0,191.8,15.9,230.2,19.1 c38.4-3.2,230.2-19.1,230.2-19.1l3.5,16.2C866.6,86.1,710.8,105.2,632.9,105.2z"/><path d="M632.9,121.4c-78.9,0-236.6-19.1-236.6-19.1l2.9-16.2c0,0,194.7,16,233.7,19.1 c38.9-3.2,233.7-19.1,233.7-19.1l2.9,16.2C869.5,102.3,711.8,121.4,632.9,121.4z"/><path d="M632.9,137.7c-79.8,0-239.3-19.1-239.3-19.1l2.7-16.2c0,0,197.2,15.9,236.6,19.1 c39.4-3.2,236.6-19.1,236.6-19.1l2.7,16.2C872.2,118.5,712.7,137.7,632.9,137.7z"/><path d="M632.9,153.9c-80.6,0-241.8-19.1-241.8-19.1l2.5-16.2c0,0,199.4,15.9,239.3,19.1 c39.9-3.2,239.3-19.1,239.3-19.1l2.5,16.2C874.7,134.7,713.5,153.9,632.9,153.9z"/><path d="M632.9,170.1c-81.4,0-244.3-19.1-244.3-19.1l2.5-16.2c0,0,201.5,15.9,241.8,19.1 c40.3-3.2,241.8-19.1,241.8-19.1l2.5,16.2C877.2,150.9,714.3,170.1,632.9,170.1z"/><path d="M632.9,186.3c-82.3,0-246.8-19.1-246.8-19.1l2.5-16.2c0,0,203.6,15.9,244.3,19.1 c40.7-3.2,244.3-19.1,244.3-19.1l2.5,16.2C879.7,167.2,715.2,186.3,632.9,186.3z"/><path d="M632.9,202.5c-83.2,0-249.6-19.1-249.6-19.1l2.8-16.2c0,0,205.7,15.9,246.8,19.1 c41.1-3.2,246.8-19.1,246.8-19.1l2.8,16.2C882.5,183.4,716.1,202.5,632.9,202.5z"/><path d="M632.9,218.7c-84.3,0-252.8-19.1-252.8-19.1l3.2-16.2c0,0,208,16,249.6,19.1c41.6-3.2,249.6-19.1,249.6-19.1 l3.2,16.2C885.7,199.6,717.2,218.7,632.9,218.7z"/></g></g><g id="Belt_F"><g id="Pouch-Belt-4_F" class="option" style="display: inherit;"><path id="Main_Pouch-Belt-4_F" d="M881.3,151.2c-55.9,5-183.5,23.3-247.9,23.3c-65.1,0-192.7-18.4-247.8-23.2 l8.2-65.4c45.3,4,176.6,22.6,239.6,22.6c61.2,0,189.7-18.4,238.1-22.8L881.3,151.2z" style="fill: rgb(10, 10, 9);"/><rect id="Buckle_Pouch-Belt-4_F" x="587.7" y="102.2" width="92.4" height="75.8" style="fill: rgb(71, 80, 89);"/><g id="Pouches_Pouch-Belt-4_F" style="fill: rgb(25, 19, 17);"><g><g><path d="M427.4,73.1c-3.3-0.2-6.6,0.4-9.6,1.7c-5.6,2.4-14.2,6.2-14.2,6.2l60.4,3.5l16.4-7.8 C480.4,76.7,441.5,74.1,427.4,73.1z"/><path d="M482.4,80c0.1-0.9-0.3-1.8-1.1-2.4c-0.8-0.5-1.7-0.6-2.6-0.2c-5.5,2.6-14.7,7-14.7,7l-8.4,102.3 c4.9-3.1,9.7-5.2,14.5-6.6c4-1.1,6.9-4.7,7-8.9C478.2,140.8,479.5,110.4,482.4,80z"/><path d="M464,84.5L403.6,81c-0.5,15.5-1.9,31-2.7,46.6c-0.9,16.7-1.3,33.4-2.7,50.3c-0.1,1.6,0.4,3.2,1.5,4.4 c1.1,1.2,2.6,1.9,4.3,1.8c16.1-0.1,32.2,0.9,48.2,2.8c1.5,0.2,3.1-0.3,4.3-1.2c1.2-1,1.9-2.4,2-3.9c0.9-13,2.9-42.6,2.9-42.6 L464,84.5z"/><path d="M464,84.5L403.6,81c0,0-1,8.8-2.2,19c-0.9,8,1.5,16,6.7,22.2c5.2,6.2,12.7,9.9,20.7,10.4 c1.4,0.1,2.8,0.2,4.2,0.2c8.1,0.5,16-2.4,21.8-8c5.9-5.5,9.2-13.3,9.2-21.3C464,93.3,464,84.5,464,84.5z"/><path d="M431.7,120.5c2.1,0.1,3.8,2.1,3.6,4.5c-0.1,2.3-2,4.2-4.1,4c-2.1-0.1-3.8-2.1-3.6-4.5 C427.7,122.2,429.5,120.4,431.7,120.5z"/></g></g><g><path d="M365.4,79.8l4.5-7l23.2,0.8l2.9,8.7L365.4,79.8z"/><path d="M395.7,83.8c0.1-0.7-0.1-1.4-0.6-2c-0.5-0.5-1.1-0.9-1.9-0.9c-7.5-0.3-27.9-1.1-27.9-1.1l-4.1,92 c0.8,2.1,10.7,3.5,19.5,3.9c2.6,0.1,5.1-0.8,7-2.6c1.9-1.8,3-4.2,3.1-6.8C391.5,138.8,392.6,111.2,395.7,83.8z"/></g><g><g><path d="M839.4,73.1c3.3-0.2,6.6,0.4,9.7,1.7c5.6,2.4,14.2,6.2,14.2,6.2l-60.4,3.5l-16.4-7.8 C786.5,76.7,825.3,74.1,839.4,73.1z"/><path d="M784.4,80c-0.1-0.9,0.3-1.8,1.1-2.4c0.8-0.5,1.7-0.6,2.6-0.2c5.5,2.6,14.7,7,14.7,7l8.4,102.3 c-4.9-3.1-9.7-5.2-14.5-6.6c-4-1.1-6.9-4.7-7-8.9C788.6,140.8,787.4,110.4,784.4,80z"/><path d="M802.9,84.5l60.4-3.5c0.5,15.5,1.9,31,2.7,46.6c0.9,16.7,1.3,33.4,2.7,50.3c0.1,1.6-0.4,3.2-1.5,4.4 s-2.6,1.9-4.3,1.8c-16.1-0.1-32.2,0.9-48.2,2.8c-1.5,0.2-3.1-0.3-4.3-1.2c-1.2-1-1.9-2.4-2-3.9c-0.9-13-2.9-42.6-2.9-42.6 L802.9,84.5z"/><path d="M802.9,84.5l60.4-3.5c0,0,1,8.8,2.2,19c0.9,8-1.5,16-6.7,22.2c-5.2,6.2-12.7,9.9-20.7,10.4 c-1.4,0.1-2.8,0.2-4.2,0.2c-8.1,0.5-16-2.4-21.8-8c-5.9-5.5-9.2-13.3-9.2-21.3C802.8,93.3,802.9,84.5,802.9,84.5z"/><path d="M835.2,120.5c-2.1,0.1-3.8,2.1-3.6,4.5c0.1,2.3,2,4.2,4.1,4c2.1-0.1,3.8-2.1,3.6-4.5 C839.2,122.2,837.3,120.4,835.2,120.5z"/></g></g><g><path d="M901.5,79.8l-4.5-7l-23.2,0.8l-2.9,8.7L901.5,79.8z"/><path d="M871.1,83.8c-0.1-0.7,0.1-1.4,0.6-2c0.5-0.5,1.1-0.9,1.9-0.9c7.5-0.3,27.9-1.1,27.9-1.1l4.1,92 c-0.8,2.1-10.7,3.5-19.5,3.9c-2.6,0.1-5.1-0.8-7-2.6c-1.9-1.8-3-4.2-3.1-6.8C875.3,138.8,874.3,111.2,871.1,83.8z"/></g></g></g></g></g></g><g id="Helmet_F_Wrapper" transform="translate(550,35)"><g id="Helmet_Current" class="Recon"><g id="Left-Earcap_Recon"><g id="Module_Left_Recon" class="option" style="display: inherit;"><g id="Main_Module_Left_Recon" style="fill: rgb(24, 42, 24);"><rect x="570.7" y="390.8" width="21.5" height="28.5"/><rect x="598.8" y="375.6" width="7.8" height="5"/><rect x="610.3" y="375.6" width="7.8" height="5"/><path d="M637.8,403.1v-7.8h-5v7.8H637.8z"/><path d="M637.8,414.6v-7.8h-5v7.8H637.8z"/><rect x="598.8" y="429.3" width="7.8" height="5"/><rect x="610.3" y="429.3" width="7.8" height="5"/><circle cx="608.4" cy="405" r="26.4"/></g><g id="Inside_Module_Left_Recon" style="fill: rgb(92, 16, 16);"><ellipse cx="608.4" cy="405" rx="20.9" ry="20.6"/><ellipse cx="608.4" cy="405" rx="12.3" ry="12.2"/><ellipse cx="608.4" cy="405" rx="7.8" ry="7.7"/><ellipse cx="608.4" cy="405" rx="4" ry="4"/></g></g><g id="Ear-Cap_Left_Recon" style="fill: rgb(18, 30, 18);"><path d="M554.9,340.2l16.1,8.3l-7.2,13.4h-8.7L554.9,340.2z"/><path d="M571.1,348.5L582,491.2l-15.2-1.7l-3-127.6L571.1,348.5z"/><path d="M566.8,489.5h-11.9L552,361.9h11.8L566.8,489.5z"/><path d="M576.5,491.2v15h-21l-0.4-16.5l11.8-0.2L576.5,491.2z"/><path d="M563,489.5v16.7h-7.5l-0.4-16.7H563z"/><path d="M576.5,510.6V525l-20.6,2.1v-16.2h7.1L576.5,510.6z"/><path d="M563,510.9v15.4l-7.1,0.8v-16.2H563z"/><path d="M574,506.2v4.3l-11,0.3h-7.5l-0.1-4.6H574z"/><rect x="555.5" y="506.2" width="6.3" height="4.7"/><path d="M576.5,525h6l1,49.6l-13.1,14.1v-63.1L576.5,525z"/><path d="M570.4,588.8l-12.9,9.6l-1.6-71.4l14.5-1.5V588.8z"/><path d="M553.1,409.8h6.3v25h-5.8L553.1,409.8z"/></g></g><g id="Right-Earcap_Recon"><g id="Range-Finder_Right_Recon" class="option" style="display: inherit;"><g id="Finder_Range-Finder_Right_Recon" style="fill: rgb(18, 30, 18);"><path d="M147.7,94.9h-21.8l-6-19.6l9.3-22.3h152.6v11.4C233.9,65,185.1,63.1,147.7,94.9z"/><path d="M137.6,53l-10.1,23.4l6.5,18.5h-8.2l-6-19.6l9.3-22.3H137.6z"/><path d="M276.8,64.5L276.8,64.5l0,6.5h-81C221.4,64.6,249.2,64.8,276.8,64.5z"/><path d="M195.8,70.9h74.7l-9.5,7.6h-69.5l-4.9-4.9l0-0.1C189.7,72.6,192.7,71.7,195.8,70.9z"/></g><path id="Shaft_Range-Finder_Right_Recon" d="M137.6,94.9h-6.1l-8.9,285.1h6.1L137.6,94.9z" style="fill: rgb(43, 61, 43);"/><g id="Base_Range-Finder_Right_Recon" style="fill: rgb(18, 30, 18);"><path d="M124.4,322.5l-19.2,11.5l-1.4,35.4l19.1,0.8L124.4,322.5z"/><path d="M107.5,369.5l-1.8,54.6h6.1l2.3-54.3L107.5,369.5z"/><path d="M107.3,376.3l-11.2,8.6l-0.6,29.2l10.2,10L107.3,376.3z"/><path d="M104.6,350.1l-3.2,1.8v28.8l5.9-4.5v-6.8l-3.4-0.1L104.6,350.1z"/><path d="M111.8,424.1l2.3-54.3l8.8,0.4l-0.3,9.9h6.1v44H111.8z"/><path d="M113.7,380.8h9l0.3-10.7h-8.8L113.7,380.8z"/><path d="M113.1,394.5h15.7v5.9h-15.9L113.1,394.5z"/><path d="M112.6,406.3l0.3-5.9h15.9v5.7L112.6,406.3z"/><path d="M120.3,380.8v13.7h-7.2l0.6-13.7H120.3z"/></g></g><g id="Ear-Cap_Right_Recon" style="fill: rgb(18, 30, 18);"><path d="M145.1,340.2l-16.1,8.3l7.2,13.4h8.7L145.1,340.2z"/><path d="M128.9,348.5L118,491.2l15.2-1.7l3-127.6L128.9,348.5z"/><path d="M133.2,489.5h11.9l2.9-127.6h-11.8L133.2,489.5z"/><path d="M123.5,491.2v15h21l0.4-16.5l-11.8-0.2L123.5,491.2z"/><path d="M137,489.5v16.7h7.5l0.4-16.7H137z"/><path d="M123.5,510.6V525l20.6,2.1v-16.2H137L123.5,510.6z"/><path d="M137,510.9v15.4l7.1,0.8v-16.2H137z"/><path d="M126,506.2v4.3l11,0.3h7.5l0.1-4.6H126z"/><rect x="138.3" y="506.2" width="6.3" height="4.7"/><path d="M123.5,525h-6l-1,49.6l13.1,14.1v-63.1L123.5,525z"/><path d="M129.6,588.8l12.9,9.6l1.6-71.4l-14.5-1.5V588.8z"/><path d="M146.9,409.8h-6.3v25h5.7L146.9,409.8z"/></g></g><g id="Helmet_Pieces_Recon"><g id="Face_Recon" style="fill: rgb(14, 23, 14);"><path d="M167.2,600.2l8.4-74.3l8.6-3.4L192,467c0,0,48,33.1,67.2,55.3c21.8,25.2,43.7,161.1,43.7,161.1L167.2,600.2z "/><path d="M532.8,600.2l-8.4-74.3l-8.6-3.4L508,467c0,0-48,33.1-67.2,55.3C418.9,547.5,397,683.4,397,683.4 L532.8,600.2z"/></g><g id="Vents_Recon" style="fill: rgb(12, 20, 12);"><g><path d="M199.9,542.9l-13.2-9.7l-4.8,1.7l-0.3,5.6l11.9,11.5v-6.4L199.9,542.9z"/><path d="M175.7,525.9l6.2,9l4.8-1.7l13.2,9.7l-6.4,2.7l18.8,12.6l18-9.1c-17.1-7.6-32.7-16.3-45.9-26.6L175.7,525.9 z"/><path d="M212.3,558.2c-8.6,17.9-11.7,39.3-9.3,63.8l16.2,9.9l11.1-82.9L212.3,558.2z"/><path d="M216.9,560.3l8.5-4.3l-9.3,69.5l-9.4-5.8l-0.1-1.8h8.1v-4.3h-8.4l-0.1-2.2l0-2.4h10v-4.3h-10l0-1.3l0.2-3.3 h11.1v-4.3h-10.9l0-0.1l0.5-4.4h11.6v-4.3h-11l0.8-4.6h10.7V578h-9.7l1-3.9l0.2-0.7h9.7v-4.3H212l0.6-1.7l1.2-2.9h8.2v-4.3 H216.9z"/><path d="M202.9,622l-35.7-21.9l8.4-74.3l6.2,9l-0.4,5.5l12,11.6v-6.4l18.8,12.6c-8.6,17.9-11.7,39.1-9.3,63.5 L202.9,622z"/><path d="M184.9,537.2l8.5,8.4l6.4-2.7l-10.1-7.4L184.9,537.2z"/><path d="M184.9,540.5v-3.4l8.5,8.4v3L184.9,540.5z"/><path d="M181.5,540.3l3.4,0.2"/><path d="M189.7,602.1l-12.3-6.9v3.4l12.3,6.9V602.1z"/><path d="M216.9,560.3h5v4.3h-8.2l1.4-3.5v0L216.9,560.3z"/><path d="M212,569.1l-1.4,4.3h9.7v-4.3H212z"/><path d="M209.4,578l-0.8,3l-0.2,1.3h10.7V578H209.4z"/><path d="M207.6,586.9l-0.2,1.3l-0.3,3h11.6v-4.3H207.6z"/><path d="M206.5,595.8l-0.2,4.3h11.1v-4.3H206.5z"/><path d="M206.1,604.7l0,4.3h10v-4.3H206.1z"/><path d="M206.3,613.6l0.3,4.3h8.1v-4.3H206.3z"/></g><g><path d="M500.1,542.9l13.2-9.7l4.8,1.7l0.3,5.6L506.6,552v-6.4L500.1,542.9z"/><path d="M524.3,525.9l-6.2,9l-4.8-1.7l-13.2,9.7l6.4,2.7l-18.8,12.6l-18-9.1c17.1-7.6,32.7-16.3,45.9-26.6 L524.3,525.9z"/><path d="M487.7,558.2c8.6,17.9,11.7,39.3,9.3,63.8l-16.2,9.9l-11.1-82.9L487.7,558.2z"/><path d="M483.1,560.3l-8.5-4.3l9.3,69.5l9.4-5.8l0.1-1.8h-8.1v-4.3h8.4l0.1-2.2l0-2.4h-10v-4.3h10l0-1.3l-0.2-3.3 h-11.1v-4.3h10.9l0-0.1l-0.5-4.4h-11.6v-4.3h11l-0.8-4.6h-10.7V578h9.7l-1-3.9l-0.2-0.7h-9.7v-4.3h8.2l-0.6-1.7l-1.2-2.9h-8.1 v-4.3H483.1z"/><path d="M497,622l35.7-21.9l-8.4-74.3l-6.2,9l0.4,5.5l-12,11.6v-6.4l-18.8,12.6c8.6,17.9,11.7,39.1,9.3,63.5 L497,622z"/><path d="M515.1,537.2l-8.5,8.4l-6.4-2.7l10.1-7.4L515.1,537.2z"/><path d="M515.1,540.5v-3.4l-8.5,8.4v3L515.1,540.5z"/><path d="M518.5,540.3l-3.4,0.2"/><path d="M510.3,602.1l12.3-6.9v3.4l-12.3,6.9V602.1z"/><path d="M483.1,560.3h-5v4.3h8.1l-1.5-3.5v0L483.1,560.3z"/><path d="M488,569.1l1.4,4.3h-9.7v-4.3H488z"/><path d="M490.6,578l0.8,3l0.2,1.3h-10.7V578H490.6z"/><path d="M492.4,586.9l0.2,1.3l0.3,3h-11.6v-4.3H492.4z"/><path d="M493.5,595.8l0.2,4.3h-11.1v-4.3H493.5z"/><path d="M493.9,604.7l0,4.3h-10v-4.3H493.9z"/><path d="M493.7,613.6l-0.3,4.3h-8.1v-4.3H493.7z"/></g></g><g id="Cheeks_Recon" style="fill: rgb(12, 23, 12);"><path d="M186.7,429l5.4,38l-7.8,55.6l-8.6,3.4L186.7,429z"/><path d="M186.7,429c0,0,57.6,41.4,76.6,72.2c23.5,38.2,45.8,173.4,47.1,181.8l0.1,0.4H303c0,0-21.9-135.9-43.7-161.1 C240,500.1,192,467,192,467L186.7,429z"/><path d="M202.6,452l1.4,6.7l12.6,9.6l-0.9-7.1L202.6,452z"/><path d="M513.3,429l-5.4,38l7.8,55.6l8.6,3.4L513.3,429z"/><path d="M513.3,429c0,0-57.6,41.4-76.6,72.2C413.3,539.4,391,674.6,389.6,683l-0.1,0.4h7.5 c0,0,21.9-135.9,43.7-161.1C460,500.1,508,467,508,467L513.3,429z"/></g><path id="Visor_Recon" d="M338.9,683.4l-14.7-236.6l-7.6-1.8L221,415.2l-9.7-24.4l3.1,0.1c23.2,4.2,48,7.7,74.8,10.1 h0l22,14.5c12.5,2.2,25.3,3.2,38.5,3.4l0.3,0l0.3,0c13.1-0.2,26-1.1,38.5-3.4l22-14.5h0c26.8-2.4,51.6-5.9,74.8-10.1l3.1-0.1 l-9.6,24.4L383.4,445l-7.6,1.8l-14.7,236.6H338.9z" style="fill: rgb(0, 0, 0);"/><g id="Eyes-2_Recon" style="fill: rgb(17, 29, 16);"><path d="M201.7,388.5l8.5,23.3L316.6,445l15.2,238.4h-21.4c0,0-23-142.8-47.2-182.2c-18.9-30.8-76.6-72.2-76.6-72.2 l10.7-41.3L201.7,388.5z"/><path d="M211.2,390.3l9.8,24.8l-10.8-3.4l-8.5-23.3L211.2,390.3z"/><path d="M316.6,445l7.6,1.8l14.7,236.6h-7.1L316.6,445z"/><path d="M498.3,388.5l-8.5,23.3L383.4,445l-15.2,238.4h21.4c0,0,23-142.8,47.2-182.2c18.9-30.8,76.6-72.2,76.6-72.2 l-10.7-41.3L498.3,388.5z"/><path d="M488.8,390.3l-9.8,24.8l10.8-3.4l8.5-23.3L488.8,390.3z"/><path d="M383.4,445l-7.6,1.8l-14.7,236.6h7.1L383.4,445z"/><path d="M349.3,404.5c-58.6-1.6-107.9-7.9-151.9-16.9h305.2c-44.2,9-93.7,15.3-152.6,16.9L349.3,404.5z"/><path d="M349.7,418.8c-13.1-0.2-26-1.1-38.5-3.4l-22-14.5h0c19.1,1.7,39.3,2.9,60.8,3.5l1,0 c21.1-0.6,40.9-1.8,59.8-3.5h0l-22,14.5c-12.6,2.2-25.5,3.2-38.8,3.4L349.7,418.8z"/></g><g id="Eyes-1_Recon" style="fill: rgb(14, 21, 14);"><path d="M184.5,387.7h7.4L180.6,429l-18.9,171.2h-19.1c5.9-75,19.4-145.9,41.8-211.8L184.5,387.7z"/><path d="M197.4,387.7L186.7,429l-19.4,171.2h-5.6L180.6,429l11.4-41.3H197.4z"/><path d="M515.5,387.7h-7.4l11.4,41.3l18.9,171.2h19.1c-5.9-75-19.4-145.9-41.8-211.8L515.5,387.7z"/><path d="M502.6,387.7l10.7,41.3l19.4,171.2h5.6L519.4,429l-11.4-41.3H502.6z"/><rect x="139.1" y="345.7" width="421.9" height="33.5"/><path d="M322.9,362.4l22-6.5v12.9L322.9,362.4z"/><path d="M377.1,362.4l-22-6.5v12.9L377.1,362.4z"/><path d="M184.5,387.7c-22.5,66.1-36.1,137.2-42,212.6l4.8-221h405.3l4.8,221c-6-75.3-19.5-146.4-42-212.6H184.5z"/><path d="M170,435.5l10.6-6.5"/><path d="M186.7,429h-6.1"/><path d="M530,435.5l-10.6-6.5"/><path d="M513.3,429h6.1"/></g><g id="Dome-2_Recon" style="fill: rgb(17, 23, 17);"><path d="M350,177.3v168.5H144.9C144.9,282.5,226.4,177.3,350,177.3z"/><path d="M350,177.3v168.5h205.1C555.1,282.5,473.6,177.3,350,177.3z"/><path d="M329.4,345.7V171.1l20.6-1l20.6,1v174.6H329.4z"/></g><g id="Dome-1_Recon" style="fill: rgb(13, 18, 13);"><path d="M329.4,345.7V165.9c-31.8,4.2-61.7,13.9-89.4,30.5v149.3H329.4z"/><path d="M370.6,345.7V165.9c31.8,4.2,61.7,13.9,89.4,30.5v149.3H370.6z"/></g></g><g id="Macrobinoculars_Brow_Recon" class="toggle" style=""><g id="Arms_Macrobinoculars_Brow_Recon" style="fill: rgb(33, 42, 33);"><path d="M160.1,269l-6.5-1.9l-42.4,101.6l0,4.1l5.5,0.1L160.1,269z"/><rect x="124.4" y="382.5" width="11.2" height="10.1"/><rect x="116.5" y="382.5" width="5.4" height="10.1"/><rect x="116.5" y="392.6" width="5.4" height="17.3"/><rect x="111.2" y="373" width="5.3" height="37"/><path d="M111.2,351.1l-5.7,3.3v23l5.7-4.4V351.1z"/><path d="M111.2,373l-8.4,1.2l-0.1,27.1l8.5,8.7V373z"/><rect x="121.8" y="382.5" width="2.6" height="10.1"/><path d="M111.2,351.1l2.6-4.6l7.8-2.6l-10.4,24.9L111.2,351.1z"/><path d="M113.8,346.5v-4.3l-8.4,5.1v7l5.7-3.3L113.8,346.5z"/><path d="M113.8,346.5v-9.8l7.8-7.5v14.6L113.8,346.5z"/><path d="M116.4,373h12l-0.5,9.5h-11.4L116.4,373z"/><path d="M128.4,373h-11.9l11.4,9.5L128.4,373z"/><path d="M120,365.1l8.3,2.9v4.9h-11.6L120,365.1z"/><path d="M121.8,409.9v-17.3h5.2l-1.3,17.3H121.8z"/><path d="M121.8,329.3l30-72.6l0.5,10l1.3,0.5l-31.8,76.2V329.3z"/><path d="M135.1,301.5l-9.5,22.4v5.9l9.6-22.8L135.1,301.5z"/><path d="M148.9,268.7l-9.5,22.4v5.9l9.6-22.8L148.9,268.7z"/><path d="M539.9,269l6.5-1.9l42.4,101.6l0,4.1l-5.5,0.1L539.9,269z"/><rect x="564.4" y="382.5" width="11.2" height="10.1"/><rect x="578.2" y="382.5" width="5.4" height="10.1"/><rect x="578.2" y="392.6" width="5.4" height="17.3"/><rect x="583.5" y="373" width="5.3" height="37"/><path d="M588.8,351.1l5.7,3.3v23l-5.7-4.4V351.1z"/><path d="M588.8,373l8.4,1.2l0.1,27.1l-8.5,8.7V373z"/><rect x="575.6" y="382.5" width="2.6" height="10.1"/><path d="M588.8,351.1l-2.6-4.6l-7.8-2.6l10.4,24.9L588.8,351.1z"/><path d="M586.2,346.5v-4.3l8.4,5.1v7l-5.7-3.3L586.2,346.5z"/><path d="M586.2,346.5v-9.8l-7.8-7.5v14.6L586.2,346.5z"/><path d="M583.6,373h-12l0.5,9.5h11.4L583.6,373z"/><path d="M571.6,373h11.9l-11.4,9.5L571.6,373z"/><path d="M580,365.1l-8.3,2.9v4.9h11.6L580,365.1z"/><path d="M578.2,409.9v-17.3H573l1.3,17.3H578.2z"/><path d="M578.2,329.3l-30-72.6l-0.5,10l-1.3,0.5l31.8,76.2V329.3z"/><path d="M564.9,301.5l9.5,22.4v5.9l-9.6-22.8L564.9,301.5z"/><path d="M551.1,268.7l9.5,22.4v5.9l-9.6-22.8L551.1,268.7z"/></g><g id="Main_Macrobinoculars_Brow_Recon" style="fill: rgb(15, 24, 15);"><rect x="195.5" y="154.8" width="308.9" height="12.6"/><path d="M243.8,231.7l-0.1-19.6l13.7-14.7l-0.1,19.3L243.8,231.7z"/><path d="M243.6,212l0.1,19.6h-69.2l8.5-19.6H243.6z"/><g><rect x="186.7" y="215.4" width="8.5" height="6.5"/><rect x="186.7" y="221.9" width="8.5" height="7.9"/></g><g><rect x="200.7" y="215.4" width="8.5" height="6.5"/><rect x="200.7" y="221.9" width="8.5" height="7.9"/></g><g><rect x="214.7" y="215.4" width="8.5" height="6.5"/><rect x="214.7" y="221.9" width="8.5" height="7.9"/></g><g><rect x="228.7" y="215.4" width="8.5" height="6.5"/><rect x="228.7" y="221.9" width="8.5" height="7.9"/></g><path d="M233,231.7l-37.7,32.8h-20.7v-32.8H233z"/><path d="M186.7,264.4l-10.4,9.4l-24-7.2l16.2-35h6.1v32.8H186.7z"/><path d="M152.3,266.7l-0.5-10v-15.5l43.8-86.4v12.6L183.1,212l-8.5,19.6h-6.1L152.3,266.7z"/><path d="M154.4,236v20.7l38.2-87.1v-8.1L154.4,236z"/><path d="M162.5,220.2l13.9-49.9l11.9,3.5c0,0,0.4,14.3-3.2,27c-2.1,7.4-9.6,22.2-9.6,22.2L162.5,220.2z"/><path d="M176.6,170.3c2.2,0.6,0.9,12.3-2.9,26c-3.8,13.8-8.7,24.4-10.9,23.8c-2.2-0.6-0.9-12.3,2.9-26 C169.5,180.3,174.4,169.7,176.6,170.3z"/><path d="M173.7,179.4c1.3,0.4,0.4,7.7-2,16.4c-2.4,8.7-5.4,15.5-6.7,15.1c-1.3-0.4-0.4-7.7,2-16.4 C169.4,185.8,172.5,179,173.7,179.4z"/><path d="M177.7,174.2l10.6,2.9"/><path d="M177.4,178.1l10.7,2.9"/><path d="M177,181l10.9,2.8"/><path d="M176.4,184.6l11.2,2.8"/><path d="M175.9,187.4l11.4,2.6"/><path d="M174.8,192.1l11.6,3.5"/><path d="M174.2,194.5l11.7,3.3"/><path d="M172.9,199.1l11.7,3.3"/><path d="M172.2,201.3l11.5,3.4"/><path d="M170.5,206.4l11.2,3.3"/><path d="M169.7,208.6l11.1,3.1"/><path d="M168.2,212.2l10.9,3.2"/><path d="M167.5,213.8l10.8,3.2"/><path d="M166.1,216.6l10.9,3.4"/><path d="M165,218.4l11.2,3.2"/><path d="M456.2,231.7l0.1-19.6l-13.7-14.7l0.1,19.3L456.2,231.7z"/><path d="M456.4,212l-0.1,19.6h69.2l-8.5-19.6H456.4z"/><path d="M467,231.7l37.7,32.8h20.7v-32.8H467z"/><path d="M513.3,264.4l10.4,9.4l24-7.2l-16.2-35h-6.1v32.8H513.3z"/><path d="M547.7,266.7l0.5-10v-15.5l-43.8-86.4v12.6l12.5,44.6l8.5,19.6h6.1L547.7,266.7z"/><path d="M545.6,236v20.7l-13.7-31.4h-6.4l-6.3-14.6l-11.8-41.2v-8.1L545.6,236z"/><path d="M195.5,167.5h308.9l12.5,44.6h-60.6l-13.7-14.7H257.3L243.6,212h-60.6L195.5,167.5z"/><path d="M257.3,197.3h185.3l0.1,19.3l-4.8-4.6H262.1l-4.8,4.6L257.3,197.3z"/><path d="M511.5,218.4h-47.1v6.9h50.7L511.5,218.4z"/><path d="M514.3,180l2.4,5.6v5.8l-2.5-6L514.3,180z"/><path d="M518.3,188.1l2.4,5.6v5.9l-2.5-6L518.3,188.1z"/><path d="M522.3,196.2l2.4,5.6v5.8l-2.5-6L522.3,196.2z"/><path d="M526.3,204.3l2.4,5.6v5.9l-2.5-6L526.3,204.3z"/><rect x="473.4" y="148.4" width="27.4" height="6.5"/><path d="M473.4,149.7l-3.7,2.1v3.1h3.7V149.7z"/><path d="M500.7,149.7l3.7,2.1v3.1h-3.7V149.7z"/></g><path id="Visor_Macrobinoculars_Brow_Recon" d="M496.2,157.9c0.8,0,1.5,0.3,2.1,0.9c0.5,0.5,0.9,1.3,0.9,2.1 c0,0.2,0,0.5,0,0.7c0,0.8-0.3,1.5-0.9,2.1c-0.5,0.5-1.3,0.9-2.1,0.9H203.8c-0.8,0-1.5-0.3-2.1-0.9c-0.5-0.5-0.9-1.3-0.9-2.1 c0-0.2,0-0.5,0-0.7c0-0.8,0.3-1.5,0.9-2.1c0.5-0.5,1.3-0.9,2.1-0.9H496.2z" style="fill: rgb(35, 51, 82);"/></g></g></g><g id="Shoulders_Current" transform="translate(193,565)"><g id="LeftShoulder_Current"><g id="Left-Shoulder_F"><g id="Legacy-x2_Shoulder_Left_F" class="option" style="display: inherit;"><path id="Plate-2_Shoulder_Left_Legacy-x2_F" d="M992,153.8l-61.5,92.7l63.1,88.4l99.6-24.4l62.5,38.7l46.8-12.3 L992,153.8z" style="fill: rgb(15, 20, 12);"/><path id="Trauma-Plate-2_Shoulder_Legacy-x2_Left_F" d="M1158.4,329.9l30.2-7.9l-181.3-158.9l-55,82.6 l48.7,68.5l91.6-23.2L1158.4,329.9z" class="toggle" style="fill: rgb(23, 31, 20);"/><path id="Plate-1_Shoulder_Left_Legacy-x2_F" d="M916.3,106.4l-27.7,107.7l88.6,62.8l86-55.7l71.7,16.1l40.1-27 L916.3,106.4z" style="fill: rgb(17, 22, 17);"/><path id="Trauma-Plate-1_Shoulder_Legacy-x2_Left_F" d="M1131.4,218.1l25.9-17.4l-223.5-90.2l-24.7,96.2 l68.6,48.6l78.8-52.1L1131.4,218.1z" class="toggle" style="fill: rgb(20, 27, 18);"/></g></g></g><g id="RightShoulder_Current"><g id="Right-Shoulder_F"><g id="Gunslinger-Bell_Shoulder_Right_F" class="option" style="display: inherit;"><path id="Main_Gunslinger-Bell_Shoulder_Right_F" d="M444.8,139c-65.3-1.6-211.1,50.8-205.3,237.3l0.8,36.8 l126.9,52.1l111.3-148.8l0-177.4L444.8,139z" style="fill: rgb(71, 80, 89);"/><path id="Ridge_Gunslinger-Bell_Shoulder_Right_F" d="M478.5,139L478.5,139l0-21.5 c-138.9-0.7-270.4,59.1-260.3,289.4l21.3,5c0.2-2.7,0.4-5.4,0.6-8l-0.6-27.6C233.6,189.8,379.4,137.4,444.8,139l7.2,0 C466.4,137,476.2,137.5,478.5,139L478.5,139L478.5,139z" class="toggle" style="fill: rgb(22, 37, 21);"/><g id="Trim_Gunslinger-Bell_Shoulder_Right_F" class="toggle" style="fill: rgb(57, 64, 71);"><rect x="444.8" y="130.6" width="33.8" height="186"/><path d="M444.8,305.2l33.8,11.2l-111.5,149l-27-20.2L444.8,305.2z"/><path d="M355.8,424l11.8,41.4l-133.3-54.7v-36.5L355.8,424z"/></g></g></g></g></g><g id="Front_F" transform="translate(0,530)"><g id="Cape_F"></g></g></svg>
