<svg id="Female-Body" viewBox="0 0 1800 3300" version="1.1" xmlns="http://www.w3.org/2000/svg" style="stroke:black;stroke-width:2px;fill-rule:evenodd;height:100%;"><g id="Back_F" transform="translate(0,601)"><g id="Cape_F"><g id="None_Back_F" class="option" style="display: inherit;"></g></g></g><g id="Flight-Suit" transform="translate(0,528)"><g id="Soft-Parts_F"><g id="Suit_F"><g id="Neck-Seal_F"><path id="Plain-Neck-Seal_F" d="M1003.2,68.3l50,98.1l-27.8,47.1l-125,29l-125.8-29l-27-47.1l49.2-98.1 L900,75.4L1003.2,68.3" class="option" style="display: inherit; fill: rgb(13, 12, 12);"/></g><g id="Flight-Suit_F" style="fill: rgb(19, 19, 19);"><path d="M421.3,665.8l53.1-193l124-83.5l19.4,169.3c0,0-53.6,102.2-72.1,149c-19,48.2-52,158.4-56.2,172.5 l-29.4,255.8l-85.3-27.3c0,0-3.1-177.5,4.7-251.3C386.4,791.5,421.3,665.8,421.3,665.8z"/><path d="M1378.7,665.8l-53.3-193.6l-123.1-82.9l-19.6,170.4c0,0,53.1,101.1,71.6,147.9c19,48.2,52,158.4,56.2,172.5 l29.4,255.8l85.3-27.3c0,0,3.1-177.5-4.7-251.3C1413.6,791.5,1378.7,665.8,1378.7,665.8z"/><path d="M899.8,1212.7c-10.5,1-19.9,5.2-23.4,12.5c-30.6,64.7-93.6,360.6-111.8,415.2c-9.9,29.7-17.7,192-34.5,286.7 c-20,113-85.7,391.3-85.7,391.3l-113.8-11.8c0,0-14.7-279.4-10.6-381.2c3.1-77.3,34.9-229.1,34.9-229.1s6.8-55.4,7-83.3 c0.6-100.8,9.5-325,29.4-453.8C607,1057.4,703,843.7,703,843.7s124.3,48.9,197.4,48.9s198.4-49.9,198.4-49.9 s90.6,214.8,106.3,316.6c19.9,128.7,33.1,353,33.7,453.8c0.2,27.9,7,83.3,7,83.3s31.8,151.8,34.9,229.1 c4,101.7-10.6,381.2-10.6,381.2l-113.8,11.8c0,0-65.6-278.3-85.7-391.3c-16.8-94.7-24.6-257-34.5-286.7 c-18.2-54.5-81.2-350.5-111.8-415.2c-3.5-7.5-13.2-11.7-23.9-12.6L899.8,1212.7z"/></g></g><g id="Boots_F"><g id="Tall_Boots_F" class="option" style="display: inherit;"><g id="Bottom_Tall-Boot_F" style="fill: rgb(0, 0, 0);"><path d="M669.2,2402c-0.2,1.4-0.5,2.8-0.9,4.3c-9,18.8-33.3,25.2-50,29.7c-11.8,3.2-23.2,7.6-34.4,13.1 c-15.4,7.4-23.2,20.6-35.2,33.1c-5.4,5.6-11.7,9.9-17.9,14.1c-15.4,10.6-30.2,11.4-47.6,11.9c-23.4,0.8-44.1-2.9-67.1-8.8 c-20.2-5.2-35.2-9.5-52.6-15.1c-5.2-1.7-11.6-2.9-14.7-7.3l-2.6,6.7l-1.9,17.5c0,0,18.9,11.6,39,16.7 c20.1,5.1,60.6,12.3,60.6,12.3l2.8-7.6l9.1,2.2l-0.4,7.5l22.1,1.4l4.7-7.3l7.4,0.2l-1.1,6.5c0,0,13.7-0.3,21.2-5.4 c1.4-2.5,4.2-6.5,4.2-6.5l5.2-3.3l-0.7,6.1l19-7.8l0.9-8.4l5.5-3.7l0.2,6.1l13.5-12l1.5-7.4l29.1-17.5l9.9,4.6l23.7-5.9l0.8-5.8 l6-2.8l4.2,4.5l15.9-7.5l0.3-5.4l5.2-2.1l0.6,3.9l15.1-11.9L669.2,2402z M669.8,2395.1L669.8,2395.1L669.8,2395.1L669.8,2395.1z"/><path d="M1131.5,2402c0.2,1.4,0.5,2.8,0.9,4.3c9,18.8,33.3,25.2,50,29.7c11.8,3.2,23.2,7.6,34.4,13.1 c15.4,7.4,23.2,20.6,35.2,33.1c5.4,5.6,11.7,9.9,17.9,14.1c15.3,10.6,30.1,11.4,47.6,11.9c23.4,0.8,44.1-2.9,67.2-8.8 c20.1-5.2,35.2-9.5,52.6-15.1c5.2-1.7,11.6-2.9,14.7-7.3l2.6,6.7l1.9,17.5c0,0-18.9,11.6-39,16.7c-20.1,5.1-60.6,12.3-60.6,12.3 l-2.8-7.6l-9.1,2.2l0.4,7.5l-22.1,1.4l-4.7-7.3l-7.4,0.2l1.1,6.5c0,0-13.7-0.3-21.2-5.4c-1.4-2.5-4.2-6.5-4.2-6.5l-5.2-3.3 l0.7,6.1l-19-7.8l-0.9-8.4l-5.5-3.7l-0.2,6.1l-13.5-12l-1.5-7.4l-29.1-17.5l-9.9,4.6l-23.7-5.9l-0.8-5.8l-6-2.8l-4.2,4.5 l-15.9-7.5l-0.3-5.4l-5.2-2.1l-0.6,3.9l-15.1-11.9L1131.5,2402z M1130.9,2395.1L1130.9,2395.1L1130.9,2395.1L1130.9,2395.1z"/></g><g id="Main_Tall-Boot_F" style="fill: rgb(63, 35, 10);"><path d="M669,2259.6c13.5-45.1,23.6-117.1,31.6-150c6-24.6,33.7-158.6,29.2-175.4c-4.6-17.1-205.2-50.7-210.9-35.3 c-8.7,23.5,3.6,254.7,2.1,288.8c-1.1,25,1.9,77.5,1.9,77.5c-2.3,13.7-4.3,28.3-9.2,40.6c-9.3,23.1-15.2,30.5-30.9,48 c-10.8,12-31.3,32.2-44.1,41.3c-5.4,3.9-24.4,17.9-24.4,17.9c-23.6,10.1-49.8,6.6-62.7,36.5c-2.8,6.5-5.2,14.3-4.7,21.7 c0.6,9.5,9.6,10.8,16.6,13.1c17.4,5.7,32.5,10,52.6,15.1c23,5.9,43.8,9.5,67.1,8.8c17.5-0.6,32.3-1.4,47.6-11.9 c6.2-4.3,12.5-8.6,17.9-14.1c12-12.5,19.7-25.6,35.2-33.1c11.2-5.4,22.6-9.9,34.4-13.1c16.7-4.5,41-10.9,50-29.7 c3.5-14.1-0.1-21.1-1.2-33.3l-0.5-5.2c-0.9-7.9-2.1-16.1-2.5-24.6c-0.7-16.4,2.9-32.6,3.8-49c0.5-9.3,0.9-18.6,1.1-27.9 C668.9,2265.3,669.2,2261.8,669,2259.6z"/><path d="M1131.7,2259.6c-13.5-45.1-23.6-117.1-31.6-150c-6-24.6-33.7-158.6-29.2-175.4 c4.7-17.1,205.2-50.7,210.9-35.3c8.8,23.5-3.6,254.7-2.1,288.8c1.1,25-1.9,77.5-1.9,77.5c2.3,13.7,4.3,28.3,9.2,40.6 c9.3,23.1,15.2,30.5,30.9,48c10.8,12,31.3,32.2,44.1,41.3c5.4,3.9,24.3,17.9,24.3,17.9c23.7,10.1,49.9,6.6,62.7,36.5 c2.8,6.5,5.2,14.3,4.7,21.7c-0.6,9.5-9.6,10.8-16.6,13.1c-17.4,5.7-32.5,10-52.6,15.1c-23,5.9-43.8,9.5-67.2,8.8 c-17.5-0.6-32.3-1.4-47.6-11.9c-6.2-4.3-12.5-8.6-17.9-14.1c-12-12.5-19.7-25.6-35.2-33.1c-11.2-5.4-22.6-9.9-34.4-13.1 c-16.7-4.5-41-10.9-50-29.7c-3.5-14.1,0.1-21.1,1.2-33.3l0.5-5.2c0.9-7.9,2.1-16.1,2.5-24.6c0.7-16.4-2.9-32.6-3.8-49 c-0.5-9.3-0.9-18.6-1.1-27.9C1131.8,2265.3,1131.5,2261.8,1131.7,2259.6z"/></g></g></g><g id="Gloves_F"><g id="Left-Glove_F"><g id="Basic_Left_Glove_F" class="option" style="display: inherit; fill: rgb(19, 19, 19);"><path d="M1391.6,1284.8c-4.7-0.3-9.2-0.2-13.9,1c-3.2,0.8-6.3,1.6-9.2,3.5c-8.7,5.7-6.3,18,1.4,22.7 c9,5.5,23.3,0.1,27.5-10.5C1399.1,1297.1,1393.9,1288.9,1391.6,1284.8"/><path d="M1375.7,1295.5c-4.7-0.3-9.2-0.2-13.9,1c-3.2,0.8-6.3,1.6-9.2,3.5c-8.7,5.7-6.3,18,1.4,22.7 c9,5.5,23.4,0.1,27.5-10.5C1383.2,1307.8,1377.9,1299.7,1375.7,1295.5"/><path d="M1364.3,1310.1c-4.7,0.5-10.4,1.3-14.9,3.1c-3.1,1.2-6.1,2.6-8.7,4.8c-7.9,6.9-4.1,18.8,4.1,22.3 c9.6,4.1,23.1-3.5,26-14.6C1371.9,1321.2,1364.3,1310.1,1364.3,1310.1z"/><path d="M1338.5,1144.4c0,0-13.7,21.4-17.3,36.8c-2.5,10.8-1.2,36.8-4.3,54.2c-3.2,17.4-6.1,27.1-6.1,27.1 s-12.1,27.9-10,34.3c2.1,6.4,12.7,12.1,18.8,8.7c7.6-4.2,16.9-23.8,22.9-37.7c6-14.1,11-34.1,11-34.1s8.3,3.2,12.5,7 c14.1,12.3,8,49.5,8,49.5s-5.8,13.3-14.6,28.2c-11.9,20.4-30.3,38-18.2,53.6c11.3,14.6,37-23.7,37-23.7l25.2-37.2 c0,0,29-54,30.4-64.5c1.1-8,0.1-34.7,0.1-34.7l-9.1-103.5l-45.9,4.3l-37.8,13.9L1338.5,1144.4"/></g></g><g id="Right-Glove_F"><g id="Basic_Right_Glove_F" class="option" style="display: inherit; fill: rgb(19, 19, 19);"><path d="M408.7,1284.8c4.7-0.3,9.2-0.2,13.9,1c3.2,0.8,6.3,1.6,9.2,3.5c8.7,5.7,6.3,18-1.4,22.7 c-9,5.5-23.4,0.1-27.5-10.5C401.1,1297.1,406.4,1288.9,408.7,1284.8"/><path d="M424.6,1295.5c4.7-0.3,9.2-0.2,13.9,1c3.2,0.8,6.3,1.6,9.2,3.5c8.7,5.7,6.3,18-1.4,22.7 c-9,5.5-23.4,0.1-27.5-10.5C417,1307.8,422.3,1299.7,424.6,1295.5"/><path d="M436,1310.1c4.7,0.5,10.4,1.3,14.9,3.1c3.1,1.2,6.1,2.6,8.7,4.8c7.9,6.9,4.1,18.8-4.1,22.3 c-9.6,4.1-23.2-3.5-26-14.6C428.3,1321.2,436,1310.1,436,1310.1z"/><path d="M461.7,1144.4c0,0,13.7,21.4,17.2,36.8c2.5,10.8,1.2,36.8,4.3,54.2c3.2,17.4,6.1,27.1,6.1,27.1 s12.1,27.9,10,34.3c-2.1,6.4-12.7,12.1-18.8,8.7c-7.6-4.2-17-23.8-22.9-37.7c-6-14.1-11-34.1-11-34.1s-8.3,3.2-12.5,7 c-14.1,12.3-8,49.5-8,49.5s5.8,13.3,14.6,28.2c12,20.4,30.3,38,18.2,53.6c-11.3,14.6-37-23.7-37-23.7l-25.2-37.2 c0,0-28.9-54-30.4-64.5c-1.1-8-0.1-34.7-0.1-34.7l9-103.5l45.9,4.3l37.8,13.9L461.7,1144.4"/></g></g></g></g></g><g id="Biceps_Current" transform="translate(193,579)"><g id="LeftBiceps_Current"><g id="Left-Biceps_F"><g id="None_Biceps_Left_F" class="option" style="display: inherit;"></g></g></g><g id="RightBiceps_Current"><g id="Right-Biceps_F"><g id="None_Biceps_Right_F" class="option" style="display: inherit;"></g></g></g></g><g id="Vest_Current" transform="translate(0,528)"><path id="Vest_F" d="M967.4,899.8c-43.9,9-90.3,9-134.1,0c-44.2-9.1-131-54.4-131-54.4S626.5,606.6,613,536.9 c-10.8-55.4-14.5-147.6-14.5-147.6l-129.9,87.4l-27.7-11.8c0,0,77.7-171.7,128.8-221.5c46.3-45,177.8-77,177.8-77 s58,63.7,152.8,64.2c90.2,0.4,152.8-64.2,152.8-64.2s131.6,32,177.8,77c51.1,49.8,128.8,221.5,128.8,221.5l-27.7,11.8l-129.9-87.4 c0,0-3.7,92.2-14.5,147.6c-13.6,69.7-89.3,308.6-89.3,308.6S1011.6,890.7,967.4,899.8z" style="fill: rgb(26, 26, 26);"/></g><g id="Upper-Body_F_Wrapper" transform="translate(193,565)"><g id="Chest_Current" class="Galaxy_F"><g id="Abdomen_Galaxy_F"><path id="Abdomen-Plate_Galaxy_F" d="M637.5,724.7l-20.6,15l-104.9-15l-7.6-58l49.7-1l30.1-49.2l13.7-45.3 l108.8-99.6l0.2,0.2l0.2-0.2l108.8,99.6l13.7,45.3l30.1,49.2l49.7,1l-7.6,58l-104.9,15l-20.6-15H637.5z" style="fill: rgb(80, 36, 53);"/></g><g id="Full-Chest_Galaxy_F"><path id="Chest-Plate_Galaxy_F" d="M663.1,327.1l-0.2,101.4l31.9,32.2L583,566.7l-14.5,48.9l-23.7,39h-40.9l-19.9-29 l-25.3-142.1l-37.1-58.1l47-152l54.2-6.9l7.6-33.6l58.1-7.1l18.3,30h199.7l18.3-30l58.1,7.1l7.6,33.6l54.2,6.9l47,152l-37.1,58.1 l-25.3,142.1l-19.9,29h-40.9l-23.7-39l-14.5-48.9L718.8,460.8l31.9-32.2l-0.2-101.4l-43.7-34L663.1,327.1z" style="fill: rgb(80, 36, 53);"/><path id="Trauma-Plating_Left-Chest_Galaxy_F" d="M816.1,272.7H708l59.3,46.2l0.2,116.6l-24.6,24.9 l102.5,97.2l15.2,51.1l17.6,29h22.5l12.8-18.7l25.3-141.8l34.7-54.3L932,288.8l-55.2-7l-7.6-33.6l-35.5-4.3L816.1,272.7z" class="toggle" style="fill: rgb(80, 36, 53);"/><path id="Trauma-Plating_Right-Chest_Galaxy_F" d="M579.8,243.9l-35.5,4.3l-7.6,33.6l-55.2,7l-41.5,134.1 l34.7,54.3L500,619l12.8,18.7h22.5l17.6-29l15.2-51.1l102.5-97.2L646,435.5l0.2-116.6l59.3-46.2H597.4L579.8,243.9z" class="toggle" style="fill: rgb(80, 36, 53);"/></g><g id="Iron-Heart_Galaxy_F"><path id="Heart_Galaxy_F" d="M680,425.7v-91.3l26.8-21l26.8,21v91.3l-26.8,27.1L680,425.7z" style="fill: rgb(142, 142, 142);"/><rect id="Center_Heart_Galaxy_F" x="697.5" y="348.4" width="18.6" height="62.5" class="option" style="display: inherit; fill: rgb(44, 14, 26);"/></g><g id="Neck-Armor_Galaxy_F"><g id="Neck-Plate_Galaxy_F" style="fill: rgb(80, 36, 53);"><path d="M684.4,245.9l-73.5,1.2l-18.1-29.7l-70.1,8.4l-7,30.7l-44.9,5.6l-33.1-114.2l114.8-34.4 c0,0,15.2,25.7,26.2,34.9c11.3,9.3,26.4,20.2,40.6,26.4c15.5,6.8,34.4,11.3,52.4,14.2c1.9,0.3,3.8,0.6,5.8,0.8L684.4,245.9z"/><path d="M729.1,245.9l73.5,1.2l18.1-29.7l70.1,8.4l7,30.7l44.9,5.6l33.1-114.2L861,113.5c0,0-15.2,25.7-26.2,34.9 c-11.3,9.3-26.4,20.2-40.6,26.4c-15.5,6.8-34.4,11.3-52.4,14.2c-1.9,0.3-3.8,0.6-5.8,0.8L729.1,245.9z"/></g></g></g><g id="Collar_Current"/><g id="ChestAttachments_Current"><g id="Chest-Attachments_F"><g id="No-Device_Accessories_Chest_F" class="option" style="display: inherit;"></g></g></g><g id="Gauntlets_Current"><g id="LeftGauntlets_Current"><g id="Left-Gauntlets_F"><g id="Gunslinger_Gauntlet_Left_F" class="option" style="display: inherit;"><g id="Accent-Top_Gunslinger_Gauntlet_Left_F" style="fill: rgb(121, 121, 121);"><path d="M1235.7,805.2l1.6,60.3l-30.8,5.9l-2.3-57.2L1235.7,805.2z"/><path d="M1203.1,1025.3l3.5,31l-27,3.5l-3.8-30.9L1203.1,1025.3z"/></g><path id="Top_Gunslinger_Gauntlet_Left_F" d="M1235.7,805.2l14.1-4l1.2,281.8l-67.4,8.6l-5.4-44.1l1.5,12.5l27-3.5 l-3.5-31l-27.3,3.6l-24.5-199.6L1235.7,805.2l-31.5,9l2.3,57.2l30.8-5.9L1235.7,805.2z" style="fill: rgb(142, 142, 142);"/><g id="Accent-Bottom_Gunslinger_Gauntlet_Left_F" style="fill: rgb(121, 121, 121);"><path d="M1105.7,916.7l-5.8-25.1l-17.6,4.1l5.8,25.1L1105.7,916.7z"/><path d="M1112.4,945.2l-5.8-25.1l-17.6,4.1l5.8,25.1L1112.4,945.2z"/><path d="M1175.8,1028.9l-60.3,7.9l7.1,30.5l57-7.4L1175.8,1028.9z"/></g><path id="Bottom_Gunslinger_Gauntlet_Left_F" d="M1179.1,1055.4l-3.3-26.4l-60.3,7.9l7.1,30.5l57-7.4l3.9,31.7 c0,0-21.1,1.9-36.9,3.4c-9.9,0.9-18.9-5.6-21.2-15.3c-12.4-52.8-49.6-211.6-49.6-211.6l76.1-34.6L1179.1,1055.4z M1112.4,945.2 l-5.8-25.1l-17.6,4.1l5.8,25.1L1112.4,945.2z M1105.7,916.7l-5.8-25.1l-17.6,4.1l5.8,25.1L1105.7,916.7z" style="fill: rgb(142, 142, 142);"/><g id="No-Device_Attachment_Gunslinger_Gauntlet_Left_F" class="option" style="display: inherit;"></g></g></g></g><g id="RightGauntlets_Current"><g id="Right-Gauntlets_F"><g id="Gunslinger_Gauntlet_Right_F" class="option" style="display: inherit;"><g id="Accent-Top_Gunslinger_Gauntlet_Right_F" style="fill: rgb(121, 121, 121);"><path d="M177.3,805.2l-1.6,60.3l30.8,5.9l2.3-57.2L177.3,805.2z"/><path d="M209.8,1025.3l-3.5,31l27,3.5l3.8-30.9L209.8,1025.3z"/></g><path id="Top_Gunslinger_Gauntlet_Right_F" d="M177.3,805.2l-14.1-4l-1.2,281.8l67.4,8.6l5.4-44.1l-1.5,12.5l-27-3.5 l3.5-31l27.3,3.6l24.5-199.6L177.3,805.2l31.5,9l-2.3,57.2l-30.8-5.9L177.3,805.2z" style="fill: rgb(142, 142, 142);"/><g id="Accent-Bottom_Gunslinger_Gauntlet_Right_F" style="fill: rgb(121, 121, 121);"><path d="M307.2,916.7l5.8-25.1l17.6,4.1l-5.8,25.1L307.2,916.7z"/><path d="M300.5,945.2l5.8-25.1l17.6,4.1l-5.8,25.1L300.5,945.2z"/><path d="M237.1,1028.9l60.3,7.9l-7.1,30.5l-57-7.4L237.1,1028.9z"/></g><path id="Bottom_Gunslinger_Gauntlet_Right_F" d="M233.9,1055.4l3.3-26.4l60.3,7.9l-7.1,30.5l-57-7.4l-3.9,31.7 c0,0,21.1,1.9,36.9,3.4c9.9,0.9,18.9-5.6,21.2-15.3C300,1026.8,337.2,868,337.2,868l-76.1-34.6L233.9,1055.4z M300.5,945.2 l5.8-25.1l17.6,4.1l-5.8,25.1L300.5,945.2z M307.2,916.7l5.8-25.1l17.6,4.1l-5.8,25.1L307.2,916.7z" style="fill: rgb(142, 142, 142);"/><g id="Whistling-Birds_Attachment_Gunslinger_Gauntlet_Right_F" class="option" style="display: inherit;"><path id="Head_Whistling-Birds_Attachment_Gunslinger_Gauntlet_Right_F" d="M130,973.8l32.2,54.4l0.2-54.2 L130,973.8z" style="fill: rgb(121, 121, 121);"/><g id="Birds_Whistling-Birds_Attachment_Gunslinger_Gauntlet_Right_F" style="fill: rgb(85, 85, 85);"><g><path d="M157.1,977.8c-1.3,0-2.3,2.8-2.3,6.2c0,3.4,1,6.2,2.3,6.2c1.3,0,2.3-2.8,2.3-6.2 C159.4,980.6,158.4,977.8,157.1,977.8z"/><path d="M157.1,995.1c-1.3,0-2.3,2.8-2.3,6.2c0,3.4,1,6.2,2.3,6.2c1.3,0,2.3-2.8,2.3-6.2 C159.4,997.9,158.3,995.1,157.1,995.1z"/><path d="M148.4,977.8c-1.3,0-2.3,2.8-2.3,6.2c0,3.4,1,6.2,2.3,6.2c1.3,0,2.3-2.8,2.3-6.2 C150.7,980.6,149.6,977.8,148.4,977.8z"/><path d="M158.8,1022.3c0.3-1,0.5-2.3,0.5-3.7c0-3.4-1-6.2-2.3-6.2c-0.9,0-1.7,1.4-2.1,3.4L158.8,1022.3z M149.5,1006.5c0.7-1.1,1.1-3,1.1-5.3c0-3.4-1-6.2-2.3-6.2c-1.2,0-2.2,2.4-2.3,5.6L149.5,1006.5z M139.7,990.1 c1.2-0.3,2.1-2.9,2.1-6.1c0-3.4-1-6.2-2.3-6.2c-1.3,0-2.3,2.8-2.3,6.2c0,0.8,0.1,1.5,0.1,2.2L139.7,990.1z"/></g></g><g id="Base_Whistling-Birds_Attachment_Gunslinger_Gauntlet_Right_F" style="fill: rgb(121, 121, 121);"><path d="M132.7,810l21.8,0.1l0,9.6l-21.8-0.1L132.7,810z"/><path d="M130.7,819.6l23.8,0.1l-0.6,154.1l-23.8-0.1L130.7,819.6z"/><path d="M127.6,821.3l3.1,0l-0.6,133.1l-3.1,0L127.6,821.3z"/><path d="M134.6,819.7l3.1,0l-0.6,144.5l-3.1,0L134.6,819.7z"/></g><g id="Accent_Whistling-Birds_Attachment_Gunslinger_Gauntlet_Right_F" style="fill: rgb(70, 69, 69);"><path d="M154.5,807.7l8.7,0l-0.7,156.5l-8.7,0L154.5,807.7z"/><path d="M128.3,964.1l34.2,0.1l0,9.6l-34.2-0.1L128.3,964.1z"/><path d="M140.2,810.1l14.3,0.1l-0.1,22.4l-14.3-0.1L140.2,810.1z"/><path d="M143.5,832.5l10.9,0l-0.2,53.4l-10.8-20L143.5,832.5z"/></g></g></g></g></g></g></g><g id="Lower-Body_F_Wrapper" transform="translate(268,1285)"><g id="Knees_Current"><g id="LeftKnee_Current"><g id="Left-Knee_F"><g id="Basic_Knee_Left_F" class="option" style="display: inherit;"><g id="Knee_Basic-Knee_Left_F" style="fill: rgb(44, 14, 26);"><path d="M759.1,915.8l15.2-2.5c0,0,11.5,73.9,16.6,106.6c1.3,8.4-4.4,16.3-12.8,17.7c0,0,0,0,0,0L759.1,915.8z"/><path d="M773.8,910.3l8.7,54.8c11.1-6.3,39.2,5.3,48.4,38.2c16.8,60.4,31.5,74.3,84.2,68.8 c41-4.2,70.3-23.5,73.7-51.9c4.9-41.1,0-100.6-2.5-125.7c-0.3-3.1-1.9-6-4.4-7.9c-2.5-1.9-5.6-2.8-8.7-2.4 C928.8,890,773.8,910.3,773.8,910.3z"/><path d="M768.6,911.1l5.2-0.8l9.7,59.3l-5.2,0.8L768.6,911.1z"/></g></g></g></g><g id="RightKnee_Current"><g id="Right-Knee_F"><g id="Basic_Knee_Right_F" class="option" style="display: inherit;"><g id="Knee_Basic-Knee_Right_F" style="fill: rgb(44, 14, 26);"><path d="M505.9,915.8l-15.2-2.5c0,0-11.5,73.9-16.6,106.6c-1.3,8.4,4.4,16.3,12.8,17.7c0,0,0,0,0,0L505.9,915.8z"/><path d="M491.2,910.3l-8.7,54.8c-11.1-6.3-39.2,5.3-48.4,38.2c-16.8,60.4-31.5,74.3-84.2,68.8 c-41-4.2-70.3-23.5-73.7-51.9c-4.9-41.1,0-100.6,2.5-125.7c0.3-3.1,1.9-6,4.4-7.9c2.5-1.9,5.6-2.8,8.7-2.4 C336.2,890,491.2,910.3,491.2,910.3z"/><path d="M496.4,911.1l-5.2-0.8l-9.7,59.3l5.2,0.8L496.4,911.1z"/></g></g></g></g></g><g id="Shins_Current"><g id="LeftShin_Current"><g id="Left-Shin_F"><g id="Basic_Shin_Left_F" class="option" style="display: inherit;"><path id="Shin_Basic-Shin_Left_F" d="M1024.2,1149.2l-48.3-63l-107.5,4.8l-47.1,89.1l44.8,315.1 c45.4,23.6,114.2,19.6,153.9-10.7L1024.2,1149.2" style="fill: rgb(80, 36, 53);"/></g></g></g><g id="RightShin_Current"><g id="Right-Shin_F"><g id="Basic_Shin_Right_F" class="option" style="display: inherit;"><path id="Shin_Basic-Shin_Right_F" d="M241.3,1149.2l48.3-63l107.5,4.8l47.1,89.1l-44.8,315.1 c-45.4,23.6-114.2,19.6-153.8-10.7L241.3,1149.2" style="fill: rgb(80, 36, 53);"/></g></g></g></g><g id="Ankles_Current"><g id="LeftAnkle_Current"><g id="Left-Ankle_F"><g id="Basic_Ankle_Left_F" class="option" style="display: inherit;"><path id="Main_Basic-Ankle_Left_F" d="M1097.1,1637.4l-69.5-122.5c-40.7-2.1-78.9,4.5-114.3,20.9 c-4.1,1.9-7.2,5.5-8.6,9.8c-0.3,0.9-0.6,1.8-0.9,2.8c-5,15.9-0.4,33.2,11.8,44.6c21.7,20.2,56.3,50.1,77.8,57.5 C1045,1668.3,1097.1,1637.4,1097.1,1637.4" style="fill: rgb(80, 36, 53);"/></g></g></g><g id="RightAnkle_Current"><g id="Right-Ankle_F"><g id="Basic_Ankle_Right_F" class="option" style="display: inherit;"><path id="Main_Basic-Ankle_Right_F" d="M168.5,1637.4l69.5-122.5c40.7-2.1,78.9,4.5,114.3,20.9 c4.1,1.9,7.2,5.5,8.6,9.8c0.3,0.9,0.6,1.8,0.9,2.8c5,15.9,0.4,33.2-11.8,44.6c-21.7,20.2-56.3,50.1-77.8,57.5 C220.6,1668.3,168.5,1637.4,168.5,1637.4" style="fill: rgb(80, 36, 53);"/></g></g></g></g><g id="Toes_Current"><g id="LeftToe_Current"><g id="Left-Toe_F"><g id="None_Toe_Left_F" class="option" style="display: inherit;"></g></g></g><g id="RightToe_Current"><g id="Right-Toe_F"><g id="None_Toe_Right_F" class="option" style="display: inherit;"></g></g></g></g><g id="Thighs_Current"><g id="LeftThigh_Current"><g id="Left-Thigh_F"><g id="Basic_Thigh_Left_F" class="option" style="display: inherit;"><path id="Thigh_Basic-Thigh_Left_F" d="M986.2,457.9c0,0-53.3-68.5-80.5-79.9c-25.8-10.8-60.3-6.1-82.5,11.6 c-33.8,27.1-111.4,85.7-120.2,151c-9.8,72.9,43.2,234.1,61.3,286.1c6.1,17.7,29.3,25.7,47,26.4c32.8,1.2,122.6-1.6,144.1-50 C984.5,737.3,986.2,457.9,986.2,457.9" style="fill: rgb(80, 36, 53);"/><path id="Trauma-Plate_Basic-Thigh_Left_F" d="M968.2,464.1c-8-9.9-27.1-33.1-45.5-50.9 c-8.8-8.5-17.2-15.8-23.8-18.6c-20.1-8.4-47-4.8-64.3,9.1c-19.6,15.7-54.6,42.3-81.2,74.8c-16.1,19.7-29.4,41.6-32.5,64.5 c-9.5,70.8,42.9,227.2,60.4,277.8c1.5,4.4,5.7,7.2,10.1,9.3c6.5,3.2,14.1,4.7,20.6,5c18.4,0.7,55.9,0.2,87.2-10.2 c17.3-5.7,33.1-14.1,39.7-29.1c8.3-18.7,13.8-55.7,18.1-98.1C966.1,607.1,967.9,492.1,968.2,464.1" class="toggle" style="fill: rgb(80, 36, 53);"/><g id="Ridge_Basic-Thigh_Left_F" class="toggle" style="fill: rgb(142, 142, 142);"><path d="M896.3,372.3l-36.8-9.5l-38.6,21.3l12.5,469.2c25.4,4.9,25.8,5.9,48.1-0.9L896.3,372.3"/><path d="M859.8,362.9l-1,494.3"/></g></g></g></g><g id="RightThigh_Current"><g id="Right-Thigh_F"><g id="Basic_Thigh_Right_F" class="option" style="display: inherit;"><path id="Thigh_Basic-Thigh_Right_F" d="M278.8,457.9c0,0,53.3-68.5,80.5-79.9c25.8-10.8,60.3-6.1,82.5,11.6 c33.8,27.1,111.4,85.7,120.2,151c9.8,72.9-43.2,234.1-61.3,286.1c-6.1,17.7-29.3,25.7-47,26.4c-32.8,1.2-122.6-1.6-144.1-50 C280.5,737.3,278.8,457.9,278.8,457.9" style="fill: rgb(80, 36, 53);"/><path id="Trauma-Plate_Basic-Thigh_Right_F" d="M296.8,464.1c8-9.9,27.1-33.1,45.5-50.9 c8.8-8.5,17.1-15.8,23.8-18.6c20.1-8.4,47-4.8,64.3,9.1c19.6,15.7,54.6,42.3,81.2,74.8c16.1,19.7,29.4,41.6,32.5,64.5 c9.5,70.8-42.9,227.2-60.4,277.8c-1.5,4.4-5.7,7.2-10.1,9.3c-6.5,3.2-14.1,4.7-20.6,5c-18.4,0.7-55.9,0.2-87.2-10.2 c-17.3-5.7-33.1-14.1-39.7-29.1c-8.3-18.7-13.8-55.7-18.1-98.1C298.9,607.1,297.1,492.1,296.8,464.1" class="toggle" style="fill: rgb(80, 36, 53);"/><g id="Ridge_Basic-Thigh_Right_F" class="toggle" style="fill: rgb(142, 142, 142);"><path d="M368.7,372.3l36.8-9.5l38.6,21.3l-12.5,469.2c-25.4,4.9-25.8,5.9-48.1-0.9L368.7,372.3"/><path d="M405.2,362.9l1,494.3"/></g></g></g></g></g><g id="Groin_Current"><g id="Groin_F"><g id="Basic_Groin_F" class="option" style="display: inherit;"><path id="Groin-Plate_Basic_F" d="M566.9,360L456.1,137.4h354.3L699.6,360c0,0-44.2,53-66.4,53 C611.1,413.1,566.9,360,566.9,360z" style="fill: rgb(80, 36, 53);"/></g></g></g><g id="Waist_Current" class="F"><g id="Accessories_Waist_F"><g id="Left-Holster_F" class="toggle" style=""><g id="Belt-Holster_Left_F" class="option" style="display: inherit;"><g id="Weapon_Belt-Holster-Left_F"><g id="Main_Weapon_Belt-Holster-Left_F" style="fill: rgb(102, 101, 101);"><path d="M886.9,208l-2.6-38.3l6.6-0.4l-1.6-24.1l-6.6,0.4l-0.8-12.5c-0.3-4.1,4.9-7.7,11.6-8.2 c15.3-1,41.6-2.8,56.9-3.8c6.7-0.4,12.3,2.5,12.6,6.6l0.8,12.5l-6.6,0.4l1.6,24.1l6.6-0.4l2.6,38.3l-15.5,1l7.1,106.1 l-50.2,3.3L902.5,207L886.9,208z"/><path d="M961.2,197.4l-8.9,0.6l8.5,127.5l-50.2,3.3l-8.5-127.5l-8.9,0.6l-1.9-29.1l68-4.5L961.2,197.4z"/><path d="M942.7,129.9l-40.3,2.7l2.6,39.4l40.3-2.7L942.7,129.9z"/><path d="M914.4,212.1l-6.6,0.4l6.7,100.3l6.6-0.4L914.4,212.1z"/><path d="M929.7,188.1l-6.6,0.4l6.7,100.3l6.6-0.4L929.7,188.1z"/><path d="M948.1,209.8l-6.6,0.4l6.7,100.3l6.6-0.4L948.1,209.8z"/></g><g id="Accent_Weapon_Belt-Holster-Left_F" style="fill: rgb(18, 18, 18);"><path d="M911.3,175.6l0.3,4l28.4-1.9l-0.3-4L911.3,175.6z"/><path d="M911.6,179.6l0.3,4l28.4-1.9l-0.3-4L911.6,179.6z"/><path d="M911,171.6l0.3,4l28.4-1.9l-0.3-4L911,171.6z"/><path d="M907.7,122.2l0.3,4l28.4-1.9l-0.3-4L907.7,122.2z"/><path d="M909.1,132.2l-6.6,0.4l2.6,39.4l6.6-0.4L909.1,132.2z"/><path d="M942.7,129.9l-6.6,0.4l2.6,39.4l6.6-0.4L942.7,129.9z"/><path d="M941.5,210.3l-10,0.7l6.7,100.3l10-0.7L941.5,210.3z"/><path d="M924.5,211.4l-10,0.7l6.7,100.3l10-0.7L924.5,211.4z"/></g></g><path id="Holster_Belt-Holster-Left_F" d="M904,355l-26.2-159.8l87.9,112.6l8.3,220.5 c-15.2,20.1-32.3,22.2-51.3,3.8L904,355z" style="fill: rgb(63, 35, 10);"/></g></g><g id="Right-Holster_F" class="toggle" style=""><g id="Belt-Holster_Right_F" class="option" style="display: inherit;"><g id="Weapon_Belt-Holster-Right_F"><g id="Main_Weapon_Belt-Holster-Right_F" style="fill: rgb(102, 101, 101);"><path d="M377.9,208l2.6-38.3l-6.6-0.4l1.6-24.1l6.6,0.4l0.8-12.5c0.3-4.1-4.9-7.7-11.6-8.2 c-15.3-1-41.6-2.8-56.9-3.8c-6.7-0.4-12.3,2.5-12.6,6.6l-0.8,12.5l6.6,0.4l-1.6,24.1l-6.6-0.4l-2.6,38.3l15.5,1l-7.1,106.1 l50.2,3.3l7.1-106.1L377.9,208z"/><path d="M303.7,197.4l8.9,0.6l-8.5,127.5l50.2,3.3l8.5-127.5l8.9,0.6l1.9-29.1l-68-4.5L303.7,197.4z"/><path d="M322.1,129.9l40.3,2.7l-2.6,39.4l-40.3-2.7L322.1,129.9z"/><path d="M350.5,212.1l6.6,0.4l-6.7,100.3l-6.6-0.4L350.5,212.1z"/><path d="M335.2,188.1l6.6,0.4l-6.7,100.3l-6.6-0.4L335.2,188.1z"/><path d="M316.8,209.8l6.6,0.4l-6.7,100.3l-6.6-0.4L316.8,209.8z"/></g><g id="Accent_Weapon_Belt-Holster-Right_F" style="fill: rgb(18, 18, 18);"><path d="M353.6,175.6l-0.3,4l-28.4-1.9l0.3-4L353.6,175.6z"/><path d="M353.3,179.6l-0.3,4l-28.4-1.9l0.3-4L353.3,179.6z"/><path d="M353.8,171.6l-0.3,4l-28.4-1.9l0.3-4L353.8,171.6z"/><path d="M357.1,122.2l-0.3,4l-28.4-1.9l0.3-4L357.1,122.2z"/><path d="M355.8,132.2l6.6,0.4l-2.6,39.4l-6.6-0.4L355.8,132.2z"/><path d="M322.1,129.9l6.6,0.4l-2.6,39.4l-6.6-0.4L322.1,129.9z"/><path d="M323.4,210.3l10,0.7l-6.7,100.3l-10-0.7L323.4,210.3z"/><path d="M340.4,211.4l10,0.7l-6.7,100.3l-10-0.7L340.4,211.4z"/></g></g><path id="Holster_Belt-Holster-Right_F" d="M360.9,355l26.2-159.8l-87.9,112.6l-8.3,220.5 c15.2,20.1,32.3,22.2,51.3,3.8L360.9,355z" style="fill: rgb(63, 35, 10);"/></g></g></g><g id="Under-Belt_F"><g id="Girth-Belt_F" class="option" style="display: inherit; fill: rgb(44, 14, 26);"><path d="M632.9,72.8c-75.2,0-225.5-19.1-225.5-19.1l4.9-16.2c0,0,146.6,12.7,220.6,19.1 c73.6-6.4,220.6-19.1,220.6-19.1l4.9,16.2C858.4,53.7,708.1,72.8,632.9,72.8z"/><path d="M632.9,89c-76.7,0-230.2-19.1-230.2-19.1l4.7-16.2c0,0,187.9,16,225.5,19.1c37.6-3.2,225.5-19.1,225.5-19.1 l4.7,16.2C863.1,69.9,709.6,89,632.9,89z"/><path d="M632.9,105.2c-77.9,0-233.7-19.1-233.7-19.1l3.5-16.2c0,0,191.8,15.9,230.2,19.1 c38.4-3.2,230.2-19.1,230.2-19.1l3.5,16.2C866.6,86.1,710.8,105.2,632.9,105.2z"/><path d="M632.9,121.4c-78.9,0-236.6-19.1-236.6-19.1l2.9-16.2c0,0,194.7,16,233.7,19.1 c38.9-3.2,233.7-19.1,233.7-19.1l2.9,16.2C869.5,102.3,711.8,121.4,632.9,121.4z"/><path d="M632.9,137.7c-79.8,0-239.3-19.1-239.3-19.1l2.7-16.2c0,0,197.2,15.9,236.6,19.1 c39.4-3.2,236.6-19.1,236.6-19.1l2.7,16.2C872.2,118.5,712.7,137.7,632.9,137.7z"/><path d="M632.9,153.9c-80.6,0-241.8-19.1-241.8-19.1l2.5-16.2c0,0,199.4,15.9,239.3,19.1 c39.9-3.2,239.3-19.1,239.3-19.1l2.5,16.2C874.7,134.7,713.5,153.9,632.9,153.9z"/><path d="M632.9,170.1c-81.4,0-244.3-19.1-244.3-19.1l2.5-16.2c0,0,201.5,15.9,241.8,19.1 c40.3-3.2,241.8-19.1,241.8-19.1l2.5,16.2C877.2,150.9,714.3,170.1,632.9,170.1z"/><path d="M632.9,186.3c-82.3,0-246.8-19.1-246.8-19.1l2.5-16.2c0,0,203.6,15.9,244.3,19.1 c40.7-3.2,244.3-19.1,244.3-19.1l2.5,16.2C879.7,167.2,715.2,186.3,632.9,186.3z"/><path d="M632.9,202.5c-83.2,0-249.6-19.1-249.6-19.1l2.8-16.2c0,0,205.7,15.9,246.8,19.1 c41.1-3.2,246.8-19.1,246.8-19.1l2.8,16.2C882.5,183.4,716.1,202.5,632.9,202.5z"/><path d="M632.9,218.7c-84.3,0-252.8-19.1-252.8-19.1l3.2-16.2c0,0,208,16,249.6,19.1c41.6-3.2,249.6-19.1,249.6-19.1 l3.2,16.2C885.7,199.6,717.2,218.7,632.9,218.7z"/></g></g><g id="Belt_F"><g id="Pouch-Belt-4_F" class="option" style="display: inherit;"><path id="Main_Pouch-Belt-4_F" d="M881.3,151.2c-55.9,5-183.5,23.3-247.9,23.3c-65.1,0-192.7-18.4-247.8-23.2 l8.2-65.4c45.3,4,176.6,22.6,239.6,22.6c61.2,0,189.7-18.4,238.1-22.8L881.3,151.2z" style="fill: rgb(63, 35, 10);"/><rect id="Buckle_Pouch-Belt-4_F" x="587.7" y="102.2" width="92.4" height="75.8" style="fill: rgb(142, 142, 142);"/><g id="Pouches_Pouch-Belt-4_F" style="fill: rgb(81, 46, 13);"><g><g><path d="M427.4,73.1c-3.3-0.2-6.6,0.4-9.6,1.7c-5.6,2.4-14.2,6.2-14.2,6.2l60.4,3.5l16.4-7.8 C480.4,76.7,441.5,74.1,427.4,73.1z"/><path d="M482.4,80c0.1-0.9-0.3-1.8-1.1-2.4c-0.8-0.5-1.7-0.6-2.6-0.2c-5.5,2.6-14.7,7-14.7,7l-8.4,102.3 c4.9-3.1,9.7-5.2,14.5-6.6c4-1.1,6.9-4.7,7-8.9C478.2,140.8,479.5,110.4,482.4,80z"/><path d="M464,84.5L403.6,81c-0.5,15.5-1.9,31-2.7,46.6c-0.9,16.7-1.3,33.4-2.7,50.3c-0.1,1.6,0.4,3.2,1.5,4.4 c1.1,1.2,2.6,1.9,4.3,1.8c16.1-0.1,32.2,0.9,48.2,2.8c1.5,0.2,3.1-0.3,4.3-1.2c1.2-1,1.9-2.4,2-3.9c0.9-13,2.9-42.6,2.9-42.6 L464,84.5z"/><path d="M464,84.5L403.6,81c0,0-1,8.8-2.2,19c-0.9,8,1.5,16,6.7,22.2c5.2,6.2,12.7,9.9,20.7,10.4 c1.4,0.1,2.8,0.2,4.2,0.2c8.1,0.5,16-2.4,21.8-8c5.9-5.5,9.2-13.3,9.2-21.3C464,93.3,464,84.5,464,84.5z"/><path d="M431.7,120.5c2.1,0.1,3.8,2.1,3.6,4.5c-0.1,2.3-2,4.2-4.1,4c-2.1-0.1-3.8-2.1-3.6-4.5 C427.7,122.2,429.5,120.4,431.7,120.5z"/></g></g><g><path d="M365.4,79.8l4.5-7l23.2,0.8l2.9,8.7L365.4,79.8z"/><path d="M395.7,83.8c0.1-0.7-0.1-1.4-0.6-2c-0.5-0.5-1.1-0.9-1.9-0.9c-7.5-0.3-27.9-1.1-27.9-1.1l-4.1,92 c0.8,2.1,10.7,3.5,19.5,3.9c2.6,0.1,5.1-0.8,7-2.6c1.9-1.8,3-4.2,3.1-6.8C391.5,138.8,392.6,111.2,395.7,83.8z"/></g><g><g><path d="M839.4,73.1c3.3-0.2,6.6,0.4,9.7,1.7c5.6,2.4,14.2,6.2,14.2,6.2l-60.4,3.5l-16.4-7.8 C786.5,76.7,825.3,74.1,839.4,73.1z"/><path d="M784.4,80c-0.1-0.9,0.3-1.8,1.1-2.4c0.8-0.5,1.7-0.6,2.6-0.2c5.5,2.6,14.7,7,14.7,7l8.4,102.3 c-4.9-3.1-9.7-5.2-14.5-6.6c-4-1.1-6.9-4.7-7-8.9C788.6,140.8,787.4,110.4,784.4,80z"/><path d="M802.9,84.5l60.4-3.5c0.5,15.5,1.9,31,2.7,46.6c0.9,16.7,1.3,33.4,2.7,50.3c0.1,1.6-0.4,3.2-1.5,4.4 s-2.6,1.9-4.3,1.8c-16.1-0.1-32.2,0.9-48.2,2.8c-1.5,0.2-3.1-0.3-4.3-1.2c-1.2-1-1.9-2.4-2-3.9c-0.9-13-2.9-42.6-2.9-42.6 L802.9,84.5z"/><path d="M802.9,84.5l60.4-3.5c0,0,1,8.8,2.2,19c0.9,8-1.5,16-6.7,22.2c-5.2,6.2-12.7,9.9-20.7,10.4 c-1.4,0.1-2.8,0.2-4.2,0.2c-8.1,0.5-16-2.4-21.8-8c-5.9-5.5-9.2-13.3-9.2-21.3C802.8,93.3,802.9,84.5,802.9,84.5z"/><path d="M835.2,120.5c-2.1,0.1-3.8,2.1-3.6,4.5c0.1,2.3,2,4.2,4.1,4c2.1-0.1,3.8-2.1,3.6-4.5 C839.2,122.2,837.3,120.4,835.2,120.5z"/></g></g><g><path d="M901.5,79.8l-4.5-7l-23.2,0.8l-2.9,8.7L901.5,79.8z"/><path d="M871.1,83.8c-0.1-0.7,0.1-1.4,0.6-2c0.5-0.5,1.1-0.9,1.9-0.9c7.5-0.3,27.9-1.1,27.9-1.1l4.1,92 c-0.8,2.1-10.7,3.5-19.5,3.9c-2.6,0.1-5.1-0.8-7-2.6c-1.9-1.8-3-4.2-3.1-6.8C875.3,138.8,874.3,111.2,871.1,83.8z"/></g></g></g></g></g></g><g id="Helmet_F_Wrapper" transform="translate(550,35)"><g id="Helmet_Current" class="Nite"><g id="Left-Earcap_Nite" class="toggle"><g id="Ear-Cap_Left_Nite" style="fill: rgb(121, 121, 121);"><path d="M563.4,582.8l18.7-27.6l-18.7-190.9l-26.1-16.4L563.4,582.8z"/><path d="M544.3,415l21.6-22.4"/></g></g><g id="Right-Earcap_Nite" class="toggle"><g id="Range-Finder_Right_Nite" class="option" style="display: inherit;"><path id="Shaft_Right_Range-Finder_Nite" d="M162.1,75.1l11.5,0.7L156.3,364h-11.8L162.1,75.1z" style="fill: rgb(121, 121, 121);"/><path id="Finder_Right_Range-Finder_Nite" d="M251.6,51.9h-64l2.5-7.9l74.8-7L251.6,51.9" style="fill: rgb(0, 0, 0);"/><g id="Cover_Right_Range-Finder_Nite" style="fill: rgb(44, 14, 26);"><path d="M152.9,63l30.4,2l6.8-21l80.4-7.5l1.6-8.2L157.4,24l-11.2,14.1L152.9,63"/><path d="M161.1,63.5l15.1,1L175.5,76l-15.1-1L161.1,63.5"/></g></g><g id="Ear-Cap_Right_Nite" style="fill: rgb(121, 121, 121);"><path d="M137.3,582.8l-18.7-27.6l18.7-190.9l26.1-16.4L137.3,582.8z"/><path d="M156.3,415l-21.6-22.4"/></g></g><g id="Helmet_Pieces_Nite"><g id="Face_Nite" style="fill: rgb(80, 36, 53);"><path d="M149.4,453.3c2.1,1,54,27.7,82.3,65.4c50.7,67.4,81.7,146.5,85,155.3c-17.5-1-32.1-2.7-38.8-5.4 c-31.4-12.3-119.9-68.2-119.9-68.2l-22.6-17.7L149.4,453.3"/><path d="M551.2,453.3c-2.1,1-54,27.7-82.3,65.4c-50.7,67.4-81.7,146.5-85,155.3c17.5-1,32.1-2.7,38.8-5.4 c31.4-12.3,119.9-68.2,119.9-68.2l22.6-17.7L551.2,453.3"/></g><g id="Cheeks_Nite" style="fill: rgb(44, 14, 26);"><path d="M149.4,453.3l5-46.3c0,0,57.6,34.6,77.1,52.8s46.8,46.2,53,72.6c8.4,35.8,33.5,142,33.5,142h-1.2l-0.2-0.3 l0.2,0c-3.4-8.8-34.3-88-85-155.3C204.2,482.2,154.4,455.8,149.4,453.3"/><path d="M551.2,453.3l-5-46.3c0,0-57.6,34.6-77.1,52.8s-46.8,46.2-53,72.6c-8.4,35.8-33.5,142-33.5,142h1.2l0.2-0.3 l-0.2,0c3.4-8.8,34.3-88,85-155.3C496.4,482.2,546.2,455.8,551.2,453.3"/></g><path id="Visor_Nite" d="M337.6,674.3l-24.2-236.2c0,0-43.8-3.9-63.9-7.7c-49.2-9.3-80.8-49.3-80.8-49.3 s55.7-5,83.8-2c75.8,8.1,84.8,42.9,97.7,55.8c12.9-12.9,21.9-47.8,97.7-55.8c28.1-3,83.8,2,83.8,2s-31.6,40-80.8,49.3 c-20.1,3.8-63.9,7.7-63.9,7.7L363,674.3H337.6" style="fill: rgb(6, 6, 6);"/><path id="Eyes_Nite" d="M350.3,363.6c0,0,69.8-0.5,98.7-2.3c30.7-2,91.7-5.1,91.7-5.1l5.5,50.8 c0,0-57.6,34.6-77.1,52.8s-46.8,46.2-53,72.6c-8.4,35.8-33.5,142-33.5,142H363l24.2-236.2c0,0,43.8-3.9,63.9-7.7 c49.2-9.3,80.8-49.3,80.8-49.3s-55.7-5-83.8-2c-75.8,8.1-84.8,42.9-97.7,55.8c-12.9-12.9-21.9-47.8-97.7-55.8 c-28.1-3-83.8,2-83.8,2s31.6,40,80.8,49.3c20.1,3.8,63.9,7.7,63.9,7.7l24.2,236.2H318c0,0-25.1-106.3-33.5-142 c-6.2-26.4-33.5-54.4-53-72.6S154.4,407,154.4,407l5.5-50.8c0,0,61,3.1,91.7,5.1C280.5,363.1,338.9,363.6,350.3,363.6" style="fill: rgb(142, 142, 142);"/><path id="Dome_Nite" d="M160.2,356.2h-0.3l0-1.2c0.7-99.4,84.5-180.1,188.4-182.1v0l1.2,0l0.7,0l0.7,0l1.2,0v0 c104,2,187.8,82.7,188.4,182.1l0,1.2l0,0c-4.3,0.2-61.9,3.2-91.5,5c-28.8,1.8-87.2,2.3-98.7,2.3c-11.5-0.1-69.8-0.5-98.7-2.3 C221.2,359.3,160.2,356.2,160.2,356.2z" style="fill: rgb(80, 36, 53);"/></g></g></g><g id="Shoulders_Current" transform="translate(193,565)"><g id="LeftShoulder_Current"><g id="Left-Shoulder_F"><g id="Classic_Shoulder_Left_F" class="option" style="display: inherit;"><path id="Main_Shoulder_Classic_Left_F" d="M1014.9,138.6l-26.7,120.8l21.4,69.6l143,72.4l24-36.9L1014.9,138.6z" style="fill: rgb(44, 14, 26);"/><path id="Trauma-Plates_Shoulder_Classic_Left_F" d="M1006.8,258.6l17.7,57.7l121.7,61.6l20.6-31.6 l-137.1-191.8L1006.8,258.6z" class="toggle" style="fill: rgb(142, 142, 142);"/></g></g></g><g id="RightShoulder_Current"><g id="Right-Shoulder_F"><g id="Classic_Shoulder_Right_F" class="option" style="display: inherit;"><path id="Main_Shoulder_Classic_Right_F" d="M399.3,138.6L426,259.4L404.6,329l-143,72.4l-24-36.9L399.3,138.6z" style="fill: rgb(44, 14, 26);"/><path id="Trauma-Plates_Shoulder_Classic_Right_F" d="M407.4,258.6l-17.7,57.7L268,378l-20.6-31.6 l137-191.8L407.4,258.6z" class="toggle" style="fill: rgb(142, 142, 142);"/></g></g></g></g><g id="Front_F" transform="translate(0,530)"><g id="Cape_F"></g></g></svg>
