<svg id="Female-Body" viewBox="0 0 1800 3300" version="1.1" xmlns="http://www.w3.org/2000/svg" style="stroke:black;stroke-width:2px;fill-rule:evenodd;height:100%;"><g id="Back_F" transform="translate(0,601)"><g id="Cape_F"><g id="None_Back_F_Option" class="option" style="display: inherit;"></g></g></g><g id="Flight-Suit" transform="translate(0,528)"><g id="Soft-Parts_F"><g id="Suit_F"><g id="Neck-Seal_F"><g id="Standard-Neck-Seal_F_Option" class="option" style="display: inherit; fill: rgb(174, 217, 9);"><path d="M1011.8,83.6c0-9.6-7.5-17.3-16.8-17.3c0,0-63.5,9.1-95.2,9.1c-31.7,0-95.2-9.1-95.2-9.1 c-9.3,0-16.8,7.8-16.8,17.3s7.5,17.3,16.8,17.3c0,0,63.5,9.1,95.2,9.1c31.7,0,95.2-9.1,95.2-9.1 C1004.3,100.9,1011.8,93.1,1011.8,83.6z"/><path d="M1017.5,103.8c0-10-7.9-18.2-17.7-18.2c0,0-66.7,9.6-100,9.6c-33.3,0-100-9.6-100-9.6 c-9.8,0-17.7,8.1-17.7,18.2s7.9,18.2,17.7,18.2c0,0,66.7,9.6,100,9.6c33.3,0,100-9.6,100-9.6 C1009.6,122,1017.5,113.8,1017.5,103.8z"/><path d="M1023.9,128.9c0-10.6-8.4-19.2-18.6-19.2c0,0-70.3,10.1-105.5,10.1c-35.2,0-105.5-10.1-105.5-10.1 c-10.3,0-18.6,8.6-18.6,19.2c0,10.6,8.4,19.2,18.6,19.2c0,0,70.3,10.1,105.5,10.1c35.2,0,105.5-10.1,105.5-10.1 C1015.6,148.1,1023.9,139.5,1023.9,128.9z"/><path d="M1030.2,152c0-11.1-8.8-20.1-19.6-20.1c0,0-73.8,10.6-110.7,10.6s-110.7-10.6-110.7-10.6 c-10.8,0-19.6,9-19.6,20.1s8.8,20.1,19.6,20.1c0,0,73.8,10.6,110.7,10.6s110.7-10.6,110.7-10.6 C1021.4,172.1,1030.2,163.1,1030.2,152z"/><path d="M1036.3,174.6c0-8.4-9.2-15.2-20.5-15.2c0,0-77.3,8-116,8c-38.7,0-116-8-116-8c-11.3,0-20.5,6.8-20.5,15.2 c0,8.4,9.2,15.2,20.5,15.2c0,0,77.3,8,116,8c38.7,0,116-8,116-8C1027.1,189.8,1036.3,183,1036.3,174.6z"/><path d="M1036.3,199.9c0-8.4-9.2-15.2-20.5-15.2c0,0-77.3,8-116,8c-38.7,0-116-8-116-8c-11.3,0-20.5,6.8-20.5,15.2 c0,8.4,9.2,15.2,20.5,15.2c0,0,77.3,15.4,116,15.4c38.7,0,116-15.4,116-15.4C1027.1,215.1,1036.3,208.3,1036.3,199.9z"/></g></g><g id="Flight-Suit_F" style="fill: rgb(212, 212, 212);"><path d="M421.3,665.8l53.1-193l124-83.5l19.4,169.3c0,0-53.6,102.2-72.1,149c-19,48.2-52,158.4-56.2,172.5 l-29.4,255.8l-85.3-27.3c0,0-3.1-177.5,4.7-251.3C386.4,791.5,421.3,665.8,421.3,665.8z"/><path d="M1378.7,665.8l-53.3-193.6l-123.1-82.9l-19.6,170.4c0,0,53.1,101.1,71.6,147.9c19,48.2,52,158.4,56.2,172.5 l29.4,255.8l85.3-27.3c0,0,3.1-177.5-4.7-251.3C1413.6,791.5,1378.7,665.8,1378.7,665.8z"/><path d="M899.8,1212.7c-10.5,1-19.9,5.2-23.4,12.5c-30.6,64.7-93.6,360.6-111.8,415.2c-9.9,29.7-17.7,192-34.5,286.7 c-20,113-85.7,391.3-85.7,391.3l-113.8-11.8c0,0-14.7-279.4-10.6-381.2c3.1-77.3,34.9-229.1,34.9-229.1s6.8-55.4,7-83.3 c0.6-100.8,9.5-325,29.4-453.8C607,1057.4,703,843.7,703,843.7s124.3,48.9,197.4,48.9s198.4-49.9,198.4-49.9 s90.6,214.8,106.3,316.6c19.9,128.7,33.1,353,33.7,453.8c0.2,27.9,7,83.3,7,83.3s31.8,151.8,34.9,229.1 c4,101.7-10.6,381.2-10.6,381.2l-113.8,11.8c0,0-65.6-278.3-85.7-391.3c-16.8-94.7-24.6-257-34.5-286.7 c-18.2-54.5-81.2-350.5-111.8-415.2c-3.5-7.5-13.2-11.7-23.9-12.6L899.8,1212.7z"/></g></g><g id="Boots_F"><g id="Basic_Boots_F_Option" class="option" style="display: inherit;"><g id="Main_Basic-Boot_F" style="fill: rgb(72, 40, 11);"><path d="M652.3,2285.1c-1.9-0.7-23.6,13.1-36,15.2c-13.2,2.2-27.6,2-41.6,0.6l-5.7-0.6l-0.2,0l-0.7-0.1l-1.9-0.3 l-2.9-0.4l-1.2-0.2c-3.3-0.4-6.5-1-9.7-1.5l-5-1l-1.1-0.3l-0.4-0.1l-0.8-0.2l-3.5-0.9l-3.1-0.9l-0.5-0.1c-10.7-2.9-8.7-8-8.7-8 c0,14.9-15.5,61.4-53.8,99.4c-11.7,11.6-40,25.2-64.6,36c-22.5,9.9-49.7,12.3-62.8,38.8c-2.8,5.8-5.3,12.7-4.8,19.3 c0.6,8.4,9.7,9.6,16.8,11.6c17.6,5,32.8,8.8,53.2,13.4c23.3,5.2,44.3,8.4,67.9,7.8c17.7-0.5,32.6-1.2,48.1-10.6 c6.2-3.8,12.7-7.6,18.1-12.5c12.1-11.1,20-22.7,35.6-29.3c11.3-4.8,22.9-8.7,34.8-11.6c16.9-4,41.5-9.7,50.5-26.4 c3.5-12.5-11.7-39.3-12.8-57.4C655,2350.5,653.6,2285.6,652.3,2285.1z"/><path d="M1148.4,2285.1c1.9-0.7,23.6,13.1,36,15.2c13.2,2.2,27.6,2,41.6,0.6l5.7-0.6l0.2,0l0.7-0.1l1.9-0.3l2.9-0.4 l1.2-0.2c3.3-0.4,6.5-1,9.7-1.5l5-1l1.1-0.3l0.4-0.1l0.8-0.2l3.5-0.9l3.1-0.9l0.5-0.1c10.7-2.9,8.7-8,8.7-8 c0,14.9,15.5,61.4,53.8,99.4c11.7,11.6,40,25.2,64.6,36c22.5,9.9,49.7,12.3,62.8,38.8c2.8,5.8,5.3,12.7,4.8,19.3 c-0.6,8.4-9.7,9.6-16.8,11.6c-17.6,5-32.8,8.8-53.2,13.4c-23.3,5.2-44.3,8.4-67.9,7.8c-17.7-0.5-32.6-1.2-48.2-10.6 c-6.2-3.8-12.7-7.6-18.1-12.5c-12.1-11.1-20-22.7-35.6-29.3c-11.3-4.8-22.8-8.7-34.8-11.6c-16.9-4-41.5-9.7-50.6-26.4 c-3.5-12.5,11.7-39.3,12.8-57.4C1145.7,2350.5,1147.1,2285.6,1148.4,2285.1z"/></g><g id="Bottom_Basic-Boot_F" style="fill: rgb(72, 40, 11);"><path d="M668.7,2422.4c-4.5,8.3-12.9,13.9-22.3,17.9c-8.5,4.3-18.6,6.1-28.3,8.4c-1.3,0.3-2.6,0.6-3.9,1 c-1.9,0.5-3.8,1-5.7,1.6c-0.6,0.2-1.2,0.3-1.7,0.5l-1,0.3c-0.6,0.2-1.2,0.4-1.9,0.6c-0.3,0.1-0.5,0.2-0.8,0.3 c-1,0.3-2.1,0.7-3.1,1c-0.4,0.1-0.7,0.3-1.1,0.4l-0.5,0.2c-1.6,0.5-3.2,1.1-4.8,1.7c-0.3,0.1-0.7,0.3-1,0.4 c-1.4,0.6-2.9,1.1-4.3,1.7l-1.1,0.4c-0.9,0.3-1.7,0.7-2.6,1.1c-0.4,0.2-0.7,0.3-1.1,0.5c-2.6,1.1-4.9,2.3-7.1,3.6l-0.3,0.2 c-0.2,0.1-0.3,0.2-0.5,0.3c-0.7,0.4-1.3,0.9-2,1.3l-0.4,0.3c-0.1,0.1-0.3,0.2-0.4,0.3c-0.7,0.5-1.3,1-1.9,1.4l-0.5,0.4l-0.9,0.7 c-2.7,2.2-5.2,4.5-7.7,7l-0.7,0.7c-1.3,1.4-2.7,2.7-4,4.1c-1.4,1.4-2.8,2.9-4.3,4.4c-1.5,1.5-3,2.9-4.6,4.4l-0.5,0.5 c-0.5,0.4-1,0.9-1.5,1.3c-0.1,0.1-0.2,0.1-0.3,0.2c-0.8,0.7-1.6,1.3-2.4,1.9c-0.5,0.4-1.1,0.8-1.7,1.2l-0.3,0.2 c-0.7,0.5-1.4,1-2.1,1.4c-0.3,0.2-0.6,0.4-0.9,0.6c-1,0.7-2.1,1.3-3.2,2c-0.7,0.4-1.5,0.9-2.2,1.3l-0.9,0.6l-2.3,1.4l-1.1,0.7 l-0.7,0.4l-0.7,0.4c-1.1,0.6-2.1,1.1-3.2,1.7c-0.5,0.2-1,0.5-1.5,0.7l-0.5,0.2c-3.2,1.4-6.5,2.5-9.7,3.3l-0.6,0.1l-0.7,0.2 c-0.2,0-0.5,0.1-0.7,0.2c-0.7,0.2-1.3,0.3-2,0.4c-0.5,0.1-1,0.2-1.6,0.3l-1.2,0.2l-0.4,0.1c-0.3,0.1-0.7,0.1-1,0.2 c-0.6,0.1-1.2,0.2-1.7,0.2c-0.8,0.1-1.6,0.2-2.5,0.3c-0.2,0-0.4,0-0.7,0.1c-2.1,0.2-4.1,0.4-6.3,0.5c-1.2,0.1-2.3,0.1-3.5,0.2 l-1,0c-2.2,0.1-4.5,0.2-6.7,0.2c-1.5,0.1-2.9,0.1-4.4,0.1c-0.5,0-1.1,0-1.6,0c-0.8,0-1.5,0-2.2,0c-0.5,0-1.1,0-1.6,0l-0.5,0 c-2.7-0.1-5.3-0.2-8-0.3c-0.4,0-0.7,0-1.1-0.1l-1.1-0.1c-0.3,0-0.7,0-1-0.1c-3.9-0.3-7.7-0.6-11.6-1.1l-1-0.1 c-1-0.1-1.9-0.2-2.9-0.4c-0.4-0.1-0.8-0.1-1.3-0.2l-1-0.1c-0.8-0.1-1.6-0.2-2.4-0.4c-3.4-0.5-6.7-1.1-10.1-1.7 c-0.8-0.1-1.5-0.3-2.3-0.4l-1-0.2c-0.4-0.1-0.7-0.1-1.1-0.2l-1.1-0.2c-0.4-0.1-0.7-0.1-1.1-0.2l-0.7-0.2 c-0.8-0.2-1.6-0.3-2.5-0.5l-1.1-0.2c-1-0.2-1.9-0.4-2.9-0.6c-0.8-0.2-1.7-0.4-2.5-0.6l-0.2-0.1c-5.3-1.2-10.3-2.3-15.1-3.5 l-1.8-0.4c-1.4-0.3-2.7-0.6-4-1l-1.6-0.4l-0.7-0.2c-1.9-0.5-3.7-0.9-5.6-1.4c-1.1-0.3-2.2-0.6-3.3-0.9c-3.2-0.8-6.4-1.7-9.6-2.5 l-1.5-0.4c-0.5-0.1-1.1-0.3-1.6-0.4l-0.6-0.2c-2.5-0.7-5-1.4-7.5-2.1l-0.6-0.2l-0.9-0.2l-2.6-0.7l-0.9-0.2l-1.3-0.4l-0.6-0.2 l-1.1-0.3l-0.9-0.3l-0.4-0.2l-0.5-0.2l-0.3-0.1l-0.5-0.2l-0.5-0.2l-0.2-0.1l-0.5-0.3l-0.6-0.3l-0.5-0.4l-0.5-0.4 c-0.8-0.7-1.6-1.4-2.1-2.4h0c0,0-4.7,7-5.1,19.1c10.6,15.3,44,20.4,90.2,26.6c45.9,6.1,74.3,4.9,93.5-3.3s52.9-47.5,77-49.6 c24.1-2.1,52.6-14.9,64.3-21.7c6.1-3.6,4.3-28.9,4.3-28.9L668.7,2422.4z"/><path d="M1131.9,2422.4c4.5,8.3,12.9,13.9,22.3,17.9c8.6,4.3,18.6,6.1,28.3,8.4c1.3,0.3,2.6,0.6,3.9,1 c1.9,0.5,3.8,1,5.8,1.6c0.6,0.2,1.2,0.3,1.7,0.5l1,0.3c0.6,0.2,1.2,0.4,1.8,0.6c0.3,0.1,0.5,0.2,0.8,0.3c1,0.3,2.1,0.7,3.1,1 c0.4,0.1,0.7,0.3,1.1,0.4l0.5,0.2c1.6,0.5,3.2,1.1,4.8,1.7c0.4,0.1,0.7,0.3,1,0.4c1.4,0.6,2.9,1.1,4.3,1.7l1.1,0.4 c0.9,0.3,1.7,0.7,2.6,1.1c0.4,0.2,0.8,0.3,1.1,0.5c2.6,1.1,4.9,2.3,7.1,3.6l0.3,0.2c0.2,0.1,0.3,0.2,0.5,0.3 c0.7,0.4,1.3,0.9,2,1.3l0.4,0.3c0.1,0.1,0.3,0.2,0.4,0.3c0.7,0.5,1.3,1,1.9,1.4l0.6,0.4l0.8,0.7c2.7,2.2,5.2,4.5,7.7,7l0.7,0.7 c1.3,1.4,2.7,2.7,4,4.1c1.4,1.4,2.8,2.9,4.3,4.4c1.5,1.5,3,2.9,4.6,4.4l0.5,0.5c0.5,0.4,1,0.9,1.5,1.3c0.1,0.1,0.2,0.1,0.3,0.2 c0.8,0.7,1.6,1.3,2.4,1.9c0.5,0.4,1.1,0.8,1.7,1.2l0.3,0.2c0.7,0.5,1.4,1,2.1,1.4c0.3,0.2,0.6,0.4,0.9,0.6c1,0.7,2.1,1.3,3.2,2 c0.7,0.4,1.5,0.9,2.2,1.3l0.9,0.6l2.3,1.4l1.1,0.7l0.7,0.4l0.7,0.4c1.1,0.6,2.1,1.1,3.2,1.7c0.5,0.2,1,0.5,1.5,0.7l0.5,0.2 c3.2,1.4,6.5,2.5,9.7,3.3l0.6,0.1l0.7,0.2c0.2,0,0.5,0.1,0.7,0.2c0.7,0.2,1.4,0.3,2,0.4c0.5,0.1,1.1,0.2,1.6,0.3l1.2,0.2l0.4,0.1 c0.3,0.1,0.7,0.1,1,0.2c0.6,0.1,1.2,0.2,1.7,0.2c0.8,0.1,1.7,0.2,2.5,0.3c0.2,0,0.4,0,0.7,0.1c2.1,0.2,4.1,0.4,6.3,0.5 c1.1,0.1,2.3,0.1,3.5,0.2l1,0c2.2,0.1,4.5,0.2,6.8,0.2c1.5,0.1,2.9,0.1,4.4,0.1c0.5,0,1.1,0,1.6,0c0.8,0,1.5,0,2.2,0 c0.5,0,1.1,0,1.6,0l0.5,0c2.7-0.1,5.3-0.2,8-0.3c0.4,0,0.7,0,1.1-0.1l1.1-0.1c0.3,0,0.7,0,1-0.1c3.9-0.3,7.7-0.6,11.6-1.1l1-0.1 c1-0.1,1.9-0.2,2.9-0.4c0.4-0.1,0.8-0.1,1.3-0.2l1-0.1c0.8-0.1,1.6-0.2,2.4-0.4c3.4-0.5,6.7-1.1,10.1-1.7 c0.8-0.1,1.5-0.3,2.3-0.4l1-0.2c0.3-0.1,0.7-0.1,1.1-0.2l1.1-0.2c0.4-0.1,0.7-0.1,1.1-0.2l0.7-0.2c0.8-0.2,1.7-0.3,2.5-0.5 l1.1-0.2c1-0.2,1.9-0.4,2.9-0.6c0.8-0.2,1.7-0.4,2.5-0.6l0.2-0.1c5.3-1.2,10.3-2.3,15.1-3.5l1.8-0.4c1.4-0.3,2.7-0.6,4-1l1.6-0.4 l0.7-0.2c1.9-0.5,3.8-0.9,5.6-1.4c1.1-0.3,2.2-0.6,3.3-0.9c3.2-0.8,6.4-1.7,9.6-2.5l1.5-0.4c0.5-0.1,1.1-0.3,1.6-0.4l0.6-0.2 c2.5-0.7,5-1.4,7.5-2.1l0.6-0.2l0.9-0.2l2.7-0.7l0.9-0.2l1.3-0.4l0.5-0.2l1.1-0.3l0.9-0.3l0.4-0.2l0.5-0.2l0.3-0.1l0.5-0.2 l0.5-0.2l0.2-0.1l0.5-0.3l0.6-0.3l0.5-0.4l0.5-0.4c0.8-0.7,1.5-1.4,2.1-2.4l0,0c0,0,4.7,7,5.1,19.1c-10.6,15.3-44,20.4-90.2,26.6 c-46,6.1-74.3,4.9-93.5-3.3s-52.9-47.5-77-49.6c-24.1-2.1-52.6-14.9-64.3-21.7c-6.1-3.6-4.3-28.9-4.3-28.9L1131.9,2422.4z"/></g><g id="Top_Basic-Boot_F" style="fill: rgb(72, 40, 11);"><path d="M536.1,2293.9c-6.4,31.4-16.3,58.7-37.2,85.1c-32.5,41.1-88,44.5-126.4,77.9c-9.8,8.6-9.4,22.3-11,35 c15.9,4.5,29.9,8,47.7,12.1c1.2-12.6-1-26.7,9.5-35.9c38.4-33.4,98.8-32.1,131.3-73.2c21.2-26.9,21.3-61.5,27.5-93.7 c-1-0.1-1.9-0.2-2.9-0.3l-5.7-0.6l-0.2,0l-0.7-0.1l-1.9-0.3l-2.9-0.4l-1.2-0.2c-3.3-0.4-6.5-1-9.7-1.5l-5-1l-1.1-0.3l-0.4-0.1 l-0.8-0.2l-3.5-0.9l-3.1-0.9l-0.5-0.1C537.6,2294.3,536.8,2294.1,536.1,2293.9z"/><path d="M1264.5,2293.9c6.4,31.4,16.3,58.7,37.2,85.1c32.5,41.1,88,44.5,126.4,77.9c9.8,8.6,9.4,22.3,11,35 c-15.9,4.5-29.9,8-47.7,12.1c-1.3-12.6,1-26.7-9.5-35.9c-38.4-33.4-98.8-32.1-131.3-73.2c-21.2-26.9-21.3-61.5-27.5-93.7 c1-0.1,1.9-0.2,2.8-0.3l5.7-0.6l0.2,0l0.7-0.1l1.9-0.3l2.9-0.4l1.2-0.2c3.3-0.4,6.5-1,9.7-1.5l5-1l1.1-0.3l0.4-0.1l0.8-0.2 l3.5-0.9l3.1-0.9l0.5-0.1C1263.1,2294.3,1263.8,2294.1,1264.5,2293.9z"/></g><g id="Side_Basic-Boot_F" style="fill: rgb(72, 40, 11);"><path d="M646.4,2287.4c-12.3,5.4-18.8,10.9-30.1,12.8c-0.6,0.1-1.2,0.2-1.8,0.3c-0.2,3.9-0.1,7.9-0.2,11.3 c-0.4,19.7,2,103.6,5.9,103.5c3.9-0.2,15.1-2.2,18-5.3c1.9-2,2.3-6.8,2.9-9.5c2-8.3,3.8-16.7,5.1-25.2 C647.8,2364.1,646,2304.5,646.4,2287.4z"/><path d="M1154.3,2287.4c12.3,5.4,18.8,10.9,30.1,12.8c0.6,0.1,1.2,0.2,1.8,0.3c0.2,3.9,0.1,7.9,0.2,11.3 c0.4,19.7-2,103.6-5.9,103.5c-3.9-0.2-15.1-2.2-18-5.3c-1.9-2-2.3-6.8-2.9-9.5c-2-8.3-3.8-16.7-5.1-25.2 C1152.8,2364.1,1154.6,2304.5,1154.3,2287.4z"/></g></g></g><g id="Sleeves_F_Toggle" class="toggle" style="fill: rgb(212, 212, 212);"><path d="M460.3,473.2l8.2,3.5l129.9-87.4c0,0,3.7,92.2,14.5,147.6c1.5,7.7,3.7,17.4,6.6,28.6l-17.3,56 c0,0-58.7-23.1-84.5-38.2c-25-14.7-69.9-52.7-69.9-52.7L460.3,473.2z"/><path d="M1181.2,565.5c2.8-11.2,5.1-21,6.6-28.6c10.8-55.4,14.5-147.6,14.5-147.6l129.9,87.4l8.2-3.5l12.4,57.3 c0,0-44.9,38-69.9,52.7c-25.7,15.2-84.4,38.2-84.4,38.2L1181.2,565.5z"/></g><g id="Gloves_F"><g id="Left-Glove_F"><g id="Basic_Left_Glove_F_Option" class="option" style="display: inherit; fill: rgb(174, 217, 9);"><path d="M1391.6,1284.8c-4.7-0.3-9.2-0.2-13.9,1c-3.2,0.8-6.3,1.6-9.2,3.5c-8.7,5.7-6.3,18,1.4,22.7 c9,5.5,23.3,0.1,27.5-10.5C1399.1,1297.1,1393.9,1288.9,1391.6,1284.8"/><path d="M1375.7,1295.5c-4.7-0.3-9.2-0.2-13.9,1c-3.2,0.8-6.3,1.6-9.2,3.5c-8.7,5.7-6.3,18,1.4,22.7 c9,5.5,23.4,0.1,27.5-10.5C1383.2,1307.8,1377.9,1299.7,1375.7,1295.5"/><path d="M1364.3,1310.1c-4.7,0.5-10.4,1.3-14.9,3.1c-3.1,1.2-6.1,2.6-8.7,4.8c-7.9,6.9-4.1,18.8,4.1,22.3 c9.6,4.1,23.1-3.5,26-14.6C1371.9,1321.2,1364.3,1310.1,1364.3,1310.1z"/><path d="M1338.5,1144.4c0,0-13.7,21.4-17.3,36.8c-2.5,10.8-1.2,36.8-4.3,54.2c-3.2,17.4-6.1,27.1-6.1,27.1 s-12.1,27.9-10,34.3c2.1,6.4,12.7,12.1,18.8,8.7c7.6-4.2,16.9-23.8,22.9-37.7c6-14.1,11-34.1,11-34.1s8.3,3.2,12.5,7 c14.1,12.3,8,49.5,8,49.5s-5.8,13.3-14.6,28.2c-11.9,20.4-30.3,38-18.2,53.6c11.3,14.6,37-23.7,37-23.7l25.2-37.2 c0,0,29-54,30.4-64.5c1.1-8,0.1-34.7,0.1-34.7l-9.1-103.5l-45.9,4.3l-37.8,13.9L1338.5,1144.4"/></g></g><g id="Right-Glove_F"><g id="Basic_Right_Glove_F_Option" class="option" style="display: inherit; fill: rgb(174, 217, 9);"><path d="M408.7,1284.8c4.7-0.3,9.2-0.2,13.9,1c3.2,0.8,6.3,1.6,9.2,3.5c8.7,5.7,6.3,18-1.4,22.7 c-9,5.5-23.4,0.1-27.5-10.5C401.1,1297.1,406.4,1288.9,408.7,1284.8"/><path d="M424.6,1295.5c4.7-0.3,9.2-0.2,13.9,1c3.2,0.8,6.3,1.6,9.2,3.5c8.7,5.7,6.3,18-1.4,22.7 c-9,5.5-23.4,0.1-27.5-10.5C417,1307.8,422.3,1299.7,424.6,1295.5"/><path d="M436,1310.1c4.7,0.5,10.4,1.3,14.9,3.1c3.1,1.2,6.1,2.6,8.7,4.8c7.9,6.9,4.1,18.8-4.1,22.3 c-9.6,4.1-23.2-3.5-26-14.6C428.3,1321.2,436,1310.1,436,1310.1z"/><path d="M461.7,1144.4c0,0,13.7,21.4,17.2,36.8c2.5,10.8,1.2,36.8,4.3,54.2c3.2,17.4,6.1,27.1,6.1,27.1 s12.1,27.9,10,34.3c-2.1,6.4-12.7,12.1-18.8,8.7c-7.6-4.2-17-23.8-22.9-37.7c-6-14.1-11-34.1-11-34.1s-8.3,3.2-12.5,7 c-14.1,12.3-8,49.5-8,49.5s5.8,13.3,14.6,28.2c12,20.4,30.3,38,18.2,53.6c-11.3,14.6-37-23.7-37-23.7l-25.2-37.2 c0,0-28.9-54-30.4-64.5c-1.1-8-0.1-34.7-0.1-34.7l9-103.5l45.9,4.3l37.8,13.9L461.7,1144.4"/></g></g></g></g></g><g id="Biceps_Current" transform="translate(193,579)"><g id="LeftBiceps_Current"><g id="Left-Biceps_F"><g id="Basic_Biceps_Left_F_Option" class="option" style="display: inherit;"><path id="Main_Basic_Biceps_Left_F" d="M1200.1,549.5c-12.1-29.3-65.9-157.6-65.9-157.6s-88.4,36.5-110.4,45.6 c-6.2,2.6-9.2,9.7-6.6,16c10.4,25.2,35.8,86.8,51.7,125.1c3.6,8.7,10.5,15.6,19.1,19.2c8.7,3.6,18.4,3.6,27.1,0 c26-10.7,60.8-25.1,78.4-32.4C1199.7,562.9,1202.6,555.7,1200.1,549.5z" style="fill: rgb(212, 212, 212);"/><path id="Strap_Basic_Biceps_Left_F" d="M1040.8,510.3l-48.1,19.8l11.3,40.5l52.7-21.7L1040.8,510.3" style="fill: rgb(212, 212, 212);"/></g></g></g><g id="RightBiceps_Current"><g id="Right-Biceps_F"><g id="Basic_Biceps_Right_F_Option" class="option" style="display: inherit;"><path id="Main_Basic_Biceps_Right_F" d="M214.2,549.5c12.1-29.3,65.9-157.6,65.9-157.6s88.4,36.5,110.4,45.6 c6.2,2.6,9.2,9.7,6.6,16c-10.4,25.2-35.8,86.8-51.7,125.1c-3.6,8.7-10.5,15.6-19.1,19.2c-8.7,3.6-18.4,3.6-27.1,0 c-26-10.7-60.8-25.1-78.4-32.4C214.6,562.9,211.7,555.7,214.2,549.5z" style="fill: rgb(212, 212, 212);"/><path id="Strap_Basic_Biceps_Right_F" d="M373.5,510.3l48.1,19.8l-11.3,40.5l-52.7-21.7L373.5,510.3" style="fill: rgb(212, 212, 212);"/></g></g></g></g><g id="Vest_Current" transform="translate(0,528)"><path id="Vest_F" d="M967.4,899.8c-43.9,9-90.3,9-134.1,0c-44.2-9.1-131-54.4-131-54.4S626.5,606.6,613,536.9 c-10.8-55.4-14.5-147.6-14.5-147.6l-129.9,87.4l-27.7-11.8c0,0,77.7-171.7,128.8-221.5c46.3-45,177.8-77,177.8-77 s58,63.7,152.8,64.2c90.2,0.4,152.8-64.2,152.8-64.2s131.6,32,177.8,77c51.1,49.8,128.8,221.5,128.8,221.5l-27.7,11.8l-129.9-87.4 c0,0-3.7,92.2-14.5,147.6c-13.6,69.7-89.3,308.6-89.3,308.6S1011.6,890.7,967.4,899.8z" style="fill: rgb(212, 212, 212);"/></g><g id="Upper-Body_F_Wrapper" transform="translate(193,565)"><g id="Chest_Current" class="Classic_F"><g id="Abdomen_Classic_F"><path id="Abdomen-Plate_Classic_F" d="M563.1,741.2c33.5,7,95.6,10.9,143.4,10.9c47.8,0,109.9-3.9,143.4-10.9 c21.2-4.4,59.6-100.1,59.6-100.1l-55.6-38.3l-41.3-89.3l-106-26.1l-106,26.1l-41.3,89.3l-55.6,38.3 C503.5,641.1,541.8,736.8,563.1,741.2" style="fill: rgb(212, 212, 212);"/></g><g id="Iron-Heart_Classic_F"><path id="Heart_Classic_F" d="M678.2,382.7V289l28.6-21.6l28.6,21.6v93.7l-28.6,27.8L678.2,382.7z" style="fill: rgb(139, 87, 42);"/><rect id="Center_Heart_Classic_F_Option" x="696.4" y="297.6" width="20.8" height="82.7" class="option" style="display: inherit; fill: rgb(139, 87, 42);"/></g><g id="Left-Chest_Classic_F"><path id="Chest_Left_Classic_F" d="M953.3,273.6c-39.4-38.3-223.9-39.5-223.9-39.5l-2.3,21.5l30.3,27.4l-2.3,115.6 l-26.8,25v38.1l102.6,27.4l40.8,89.4l45.5,35.8c0,0,47.5-109.3,53.3-170.4C974.3,403.5,987.7,307,953.3,273.6" style="fill: rgb(139, 87, 42);"/></g><g id="Right-Chest_Classic_F"><path id="Chest_Right_Classic_F" d="M460.2,273.6c39.4-38.3,223.9-39.5,223.9-39.5l2.3,21.5L656.1,283l2.3,115.6 l26.8,25v38.1l-102.6,27.4l-40.8,89.4l-45.5,35.8c0,0-47.5-109.3-53.3-170.4C439.2,403.5,425.8,307,460.2,273.6" style="fill: rgb(139, 87, 42);"/></g><g id="Neck-Armor_Classic_F"><path id="Neck-Plate_Classic_F" d="M706.8,217.1c-72.8,0-218.5-15.6-218.5-15.6l-22.5-59.3l102.9-26.5 c0,0,13.6,19.8,23.5,26.8c10.1,7.1,23.7,15.6,36.4,20.3c13.9,5.2,30.8,8.7,46.9,10.9c18.1,2.5,44.6,2.5,62.7,0 c16.1-2.3,34.8-5.7,48.7-10.9c12.7-4.8,24.5-13.2,34.6-20.3c9.9-7,23.5-26.8,23.5-26.8l102.9,26.5l-22.5,59.3 C925.3,201.5,779.6,217.1,706.8,217.1z" style="fill: rgb(212, 212, 212);"/></g></g><g id="Collar_Current"/><g id="ChestAttachments_Current"><g id="Chest-Attachments_F"><g id="No-Device_Accessories_Chest_F_Option" class="option" style="display: inherit;"></g></g></g><g id="Gauntlets_Current"><g id="LeftGauntlets_Current"><g id="Left-Gauntlets_F"><g id="Basic_Gauntlet_Left_F_Option" class="option" style="display: inherit;"><path id="Top-2_Basic_Gauntlet_Left_F" d="M1270.3,1106.4l16.3-21.9l-25.1-198l-8.8,23l12.3,90.3l-9.5,21.4 L1270.3,1106.4z" style="fill: rgb(212, 212, 212);"/><path id="Top-1_Basic_Gauntlet_Left_F" d="M1261.4,886.5l-8.8,23l12.3,90.3l-9.5,21.4l14.8,85.3l-10.7,14.4l0.5,54.5 l-17,3l-15.8-83.3l-15-7l-51.6-244.4l95-2.1L1261.4,886.5z" style="fill: rgb(212, 212, 212);"/><g id="Accent-Bottom_Basic_Gauntlet_Left_F" style="fill: rgb(212, 212, 212);"><path d="M1119,912.4l-21.4,5.2l7.7,31.8l21.4-5.2L1119,912.4z"/><path d="M1132.3,968.2l-21.4,5.2l7.7,31.8l21.4-5.2L1132.3,968.2z"/><path d="M1146.1,1025.3l-21.4,5.2l7.7,31.8l21.4-5.2L1146.1,1025.3z"/></g><path id="Bottom_Basic_Gauntlet_Left_F" d="M1097.8,917.5l-5.8-24.3l69.6-45.6l50.7,240.3l-72.3,7.2l-21.4-90 l21.3-5.1l-7.7-31.8l-21.2,5.1l-5.7-23.9l21.3-5.2l-7.7-31.8L1097.8,917.5z M1146.1,1025.3l-21.5,5.2l7.6,31.9l21.6-5.2 L1146.1,1025.3z" style="fill: rgb(212, 212, 212);"/><g id="No-Device_Attachment_Basic_Gauntlet_Left_F_Option" class="option" style="display: inherit;"></g></g></g></g><g id="RightGauntlets_Current"><g id="Right-Gauntlets_F"><g id="Basic_Gauntlet_Right_F_Option" class="option" style="display: inherit;"><path id="Top-2_Basic_Gauntlet_Right_F" d="M143.1,1106.4l-16.3-21.9l25.1-198.1l8.8,23l-12.2,90.3l9.5,21.4 L143.1,1106.4z" style="fill: rgb(212, 212, 212);"/><path id="Top-1_Basic_Gauntlet_Right_F" d="M151.9,886.5l8.8,23l-12.2,90.3l9.5,21.4l-14.8,85.3l10.7,14.4l-0.5,54.5 l16.9,3L186,1095l15-7l51.5-244.4l-95-2.1L151.9,886.5z" style="fill: rgb(212, 212, 212);"/><g id="Accent-Bottom_Basic_Gauntlet_Right_F" style="fill: rgb(212, 212, 212);"><path d="M294.3,912.4l21.4,5.2l-7.7,31.8l-21.4-5.2L294.3,912.4z"/><path d="M281,968.1l21.4,5.2l-7.7,31.8l-21.4-5.2L281,968.1z"/><path d="M267.2,1025.2l21.4,5.2l-7.7,31.8l-21.4-5.2L267.2,1025.2z"/></g><path id="Bottom_Basic_Gauntlet_Right_F" d="M315.5,917.5l5.8-24.3l-69.6-45.6L201,1088l72.3,7.2l21.4-90l-21.3-5.1 l7.7-31.8l21.2,5.1l5.7-23.9l-21.3-5.1l7.7-31.8L315.5,917.5z M267.2,1025.2l21.5,5.2l-7.6,31.9l-21.6-5.2L267.2,1025.2z" style="fill: rgb(212, 212, 212);"/><g id="No-Device_Attachment_Basic_Gauntlet_Right_F_Option" class="option" style="display: inherit;"></g></g></g></g></g></g><g id="Lower-Body_F_Wrapper" transform="translate(268,1285)"><g id="Knees_Current"><g id="LeftKnee_Current"><g id="Left-Knee_F"><g id="Basic_Knee_Left_F_Option" class="option" style="display: inherit;"><g id="Knee_Basic-Knee_Left_F" style="fill: rgb(112, 64, 22);"><path d="M759.1,915.8l15.2-2.5c0,0,11.5,73.9,16.6,106.6c1.3,8.4-4.4,16.3-12.8,17.7c0,0,0,0,0,0L759.1,915.8z"/><path d="M773.8,910.3l8.7,54.8c11.1-6.3,39.2,5.3,48.4,38.2c16.8,60.4,31.5,74.3,84.2,68.8 c41-4.2,70.3-23.5,73.7-51.9c4.9-41.1,0-100.6-2.5-125.7c-0.3-3.1-1.9-6-4.4-7.9c-2.5-1.9-5.6-2.8-8.7-2.4 C928.8,890,773.8,910.3,773.8,910.3z"/><path d="M768.6,911.1l5.2-0.8l9.7,59.3l-5.2,0.8L768.6,911.1z"/></g></g></g></g><g id="RightKnee_Current"><g id="Right-Knee_F"><g id="Basic_Knee_Right_F_Option" class="option" style="display: inherit;"><g id="Knee_Basic-Knee_Right_F" style="fill: rgb(112, 64, 22);"><path d="M505.9,915.8l-15.2-2.5c0,0-11.5,73.9-16.6,106.6c-1.3,8.4,4.4,16.3,12.8,17.7c0,0,0,0,0,0L505.9,915.8z"/><path d="M491.2,910.3l-8.7,54.8c-11.1-6.3-39.2,5.3-48.4,38.2c-16.8,60.4-31.5,74.3-84.2,68.8 c-41-4.2-70.3-23.5-73.7-51.9c-4.9-41.1,0-100.6,2.5-125.7c0.3-3.1,1.9-6,4.4-7.9c2.5-1.9,5.6-2.8,8.7-2.4 C336.2,890,491.2,910.3,491.2,910.3z"/><path d="M496.4,911.1l-5.2-0.8l-9.7,59.3l5.2,0.8L496.4,911.1z"/></g></g></g></g></g><g id="Shins_Current"><g id="LeftShin_Current"><g id="Left-Shin_F"><g id="Basic_Shin_Left_F_Option" class="option" style="display: inherit;"><path id="Shin_Basic-Shin_Left_F" d="M1024.2,1149.2l-48.3-63l-107.5,4.8l-47.1,89.1l44.8,315.1 c45.4,23.6,114.2,19.6,153.9-10.7L1024.2,1149.2" style="fill: rgb(112, 64, 22);"/></g></g></g><g id="RightShin_Current"><g id="Right-Shin_F"><g id="Basic_Shin_Right_F_Option" class="option" style="display: inherit;"><path id="Shin_Basic-Shin_Right_F" d="M241.3,1149.2l48.3-63l107.5,4.8l47.1,89.1l-44.8,315.1 c-45.4,23.6-114.2,19.6-153.8-10.7L241.3,1149.2" style="fill: rgb(112, 64, 22);"/></g></g></g></g><g id="Ankles_Current"><g id="LeftAnkle_Current"><g id="Left-Ankle_F"><g id="Basic_Ankle_Left_F_Option" class="option" style="display: inherit;"><path id="Main_Basic-Ankle_Left_F" d="M1097.1,1637.4l-69.5-122.5c-40.7-2.1-78.9,4.5-114.3,20.9 c-4.1,1.9-7.2,5.5-8.6,9.8c-0.3,0.9-0.6,1.8-0.9,2.8c-5,15.9-0.4,33.2,11.8,44.6c21.7,20.2,56.3,50.1,77.8,57.5 C1045,1668.3,1097.1,1637.4,1097.1,1637.4" style="fill: rgb(72, 40, 11);"/></g></g></g><g id="RightAnkle_Current"><g id="Right-Ankle_F"><g id="Basic_Ankle_Right_F_Option" class="option" style="display: inherit;"><path id="Main_Basic-Ankle_Right_F" d="M168.5,1637.4l69.5-122.5c40.7-2.1,78.9,4.5,114.3,20.9 c4.1,1.9,7.2,5.5,8.6,9.8c0.3,0.9,0.6,1.8,0.9,2.8c5,15.9,0.4,33.2-11.8,44.6c-21.7,20.2-56.3,50.1-77.8,57.5 C220.6,1668.3,168.5,1637.4,168.5,1637.4" style="fill: rgb(72, 40, 11);"/></g></g></g></g><g id="Toes_Current"><g id="LeftToe_Current"><g id="Left-Toe_F"><g id="None_Toe_Left_F_Option" class="option" style="display: inherit;"></g></g></g><g id="RightToe_Current"><g id="Right-Toe_F"><g id="None_Toe_Right_F_Option" class="option" style="display: inherit;"></g></g></g></g><g id="Thighs_Current"><g id="LeftThigh_Current"><g id="Left-Thigh_F"><g id="Basic_Thigh_Left_F_Option" class="option" style="display: inherit;"><path id="Thigh_Basic-Thigh_Left_F" d="M986.2,457.9c0,0-53.3-68.5-80.5-79.9c-25.8-10.8-60.3-6.1-82.5,11.6 c-33.8,27.1-111.4,85.7-120.2,151c-9.8,72.9,43.2,234.1,61.3,286.1c6.1,17.7,29.3,25.7,47,26.4c32.8,1.2,122.6-1.6,144.1-50 C984.5,737.3,986.2,457.9,986.2,457.9" style="fill: rgb(112, 64, 22);"/></g></g></g><g id="RightThigh_Current"><g id="Right-Thigh_F"><g id="Basic_Thigh_Right_F_Option" class="option" style="display: inherit;"><path id="Thigh_Basic-Thigh_Right_F" d="M278.8,457.9c0,0,53.3-68.5,80.5-79.9c25.8-10.8,60.3-6.1,82.5,11.6 c33.8,27.1,111.4,85.7,120.2,151c9.8,72.9-43.2,234.1-61.3,286.1c-6.1,17.7-29.3,25.7-47,26.4c-32.8,1.2-122.6-1.6-144.1-50 C280.5,737.3,278.8,457.9,278.8,457.9" style="fill: rgb(112, 64, 22);"/></g></g></g></g><g id="Groin_Current"><g id="Groin_F"><g id="Basic_Groin_F_Option" class="option" style="display: inherit;"><path id="Groin-Plate_Basic_F" d="M566.9,360L456.1,137.4h354.3L699.6,360c0,0-44.2,53-66.4,53 C611.1,413.1,566.9,360,566.9,360z" style="fill: rgb(212, 212, 212);"/></g></g></g><g id="Waist_Current" class="F"><g id="Accessories_Waist_F"><g id="Kama_F_ToggleOff" class="toggle" style=""><g id="Clean_Kama_F_Option" class="option" style="display: inherit;"><g id="Trim_Kama-Clean" style="fill: rgb(212, 212, 212);"><path d="M771.4,151.7l79.6,605.9l321.5,138.7L881.7,201l-9.9-85.4L771.4,151.7z"/><path d="M494.6,151.7l-79.6,605.9L93.4,896.2L384.3,201l9.3-85.4L494.6,151.7z"/></g><g id="Main_Kama-Clean" style="fill: rgb(212, 212, 212);"><path d="M791.3,149.1l77,586l290.9,129.2L881.7,201l-9.5-82.5L791.3,149.1z"/><path d="M474.7,149.1l-77,586L106.8,864.3L384.3,201l9.3-85.4L474.7,149.1z"/></g></g></g><g id="Loin-Cloth_F_ToggleOff" class="toggle" style=""><g id="Clean_Loin-Cloth_F_Option" class="option" style="display: inherit;"><path id="Trim_Loin-Cloth-Clean_F" d="M741.6,135.9H524.3V613L633,747l108.7-134V135.9z" style="fill: rgb(212, 212, 212);"/><path id="Main_Loin-Cloth-Clean_F" d="M727.7,186.1H538.3V602L633,718.8L727.7,602V186.1z" style="fill: rgb(212, 212, 212);"/></g></g></g><g id="Under-Belt_F"><g id="Girth-Belt_F_Option" class="option" style="display: inherit; fill: rgb(212, 212, 212);"><path d="M632.9,72.8c-75.2,0-225.5-19.1-225.5-19.1l4.9-16.2c0,0,146.6,12.7,220.6,19.1 c73.6-6.4,220.6-19.1,220.6-19.1l4.9,16.2C858.4,53.7,708.1,72.8,632.9,72.8z"/><path d="M632.9,89c-76.7,0-230.2-19.1-230.2-19.1l4.7-16.2c0,0,187.9,16,225.5,19.1c37.6-3.2,225.5-19.1,225.5-19.1 l4.7,16.2C863.1,69.9,709.6,89,632.9,89z"/><path d="M632.9,105.2c-77.9,0-233.7-19.1-233.7-19.1l3.5-16.2c0,0,191.8,15.9,230.2,19.1 c38.4-3.2,230.2-19.1,230.2-19.1l3.5,16.2C866.6,86.1,710.8,105.2,632.9,105.2z"/><path d="M632.9,121.4c-78.9,0-236.6-19.1-236.6-19.1l2.9-16.2c0,0,194.7,16,233.7,19.1 c38.9-3.2,233.7-19.1,233.7-19.1l2.9,16.2C869.5,102.3,711.8,121.4,632.9,121.4z"/><path d="M632.9,137.7c-79.8,0-239.3-19.1-239.3-19.1l2.7-16.2c0,0,197.2,15.9,236.6,19.1 c39.4-3.2,236.6-19.1,236.6-19.1l2.7,16.2C872.2,118.5,712.7,137.7,632.9,137.7z"/><path d="M632.9,153.9c-80.6,0-241.8-19.1-241.8-19.1l2.5-16.2c0,0,199.4,15.9,239.3,19.1 c39.9-3.2,239.3-19.1,239.3-19.1l2.5,16.2C874.7,134.7,713.5,153.9,632.9,153.9z"/><path d="M632.9,170.1c-81.4,0-244.3-19.1-244.3-19.1l2.5-16.2c0,0,201.5,15.9,241.8,19.1 c40.3-3.2,241.8-19.1,241.8-19.1l2.5,16.2C877.2,150.9,714.3,170.1,632.9,170.1z"/><path d="M632.9,186.3c-82.3,0-246.8-19.1-246.8-19.1l2.5-16.2c0,0,203.6,15.9,244.3,19.1 c40.7-3.2,244.3-19.1,244.3-19.1l2.5,16.2C879.7,167.2,715.2,186.3,632.9,186.3z"/><path d="M632.9,202.5c-83.2,0-249.6-19.1-249.6-19.1l2.8-16.2c0,0,205.7,15.9,246.8,19.1 c41.1-3.2,246.8-19.1,246.8-19.1l2.8,16.2C882.5,183.4,716.1,202.5,632.9,202.5z"/><path d="M632.9,218.7c-84.3,0-252.8-19.1-252.8-19.1l3.2-16.2c0,0,208,16,249.6,19.1c41.6-3.2,249.6-19.1,249.6-19.1 l3.2,16.2C885.7,199.6,717.2,218.7,632.9,218.7z"/></g></g><g id="Belt_F"><g id="Basic-Belt_F_Option" class="option" style="display: inherit;"><path id="Main_Basic-Belt_F" d="M881.3,151.2c-55.9,5-183.5,23.3-247.9,23.3c-65.1,0-192.7-18.4-247.8-23.2l8.2-65.4 c45.3,4,176.6,22.6,239.6,22.6c61.2,0,189.7-18.4,238.1-22.8L881.3,151.2z" style="fill: rgb(139, 87, 42);"/><rect id="Buckle_Basic-Belt_F" x="587.7" y="102.2" width="92.4" height="75.8" style="fill: rgb(139, 87, 42);"/></g></g></g></g><g id="Helmet_F_Wrapper" transform="translate(550,35)"><g id="Helmet_Current" class="GI"><g id="Left-Earcap_GI"><g id="Module_Left_GI_Option" class="option" style="display: inherit;"><g id="Main_Module_Left_GI" style="fill: rgb(174, 217, 9);"><rect x="566.2" y="390.8" width="21.5" height="28.5"/><rect x="594.3" y="375.6" width="7.8" height="5"/><rect x="605.8" y="375.6" width="7.8" height="5"/><path d="M633.3,403.1v-7.8h-5v7.8H633.3z"/><path d="M633.3,414.6v-7.8h-5v7.8H633.3z"/><rect x="594.3" y="429.3" width="7.8" height="5"/><rect x="605.8" y="429.3" width="7.8" height="5"/><circle cx="603.9" cy="405" r="26.4"/></g><g id="Inside_Module_Left_GI" style="fill: rgb(174, 217, 9);"><ellipse cx="603.9" cy="405" rx="20.9" ry="20.6"/><ellipse cx="603.9" cy="405" rx="12.3" ry="12.2"/><ellipse cx="603.9" cy="405" rx="7.8" ry="7.7"/><ellipse cx="603.9" cy="405" rx="4" ry="4"/></g></g><g id="Ear-Cap_Left_GI" style="fill: rgb(174, 217, 9);"><path d="M560,577l10.8-6.7l-2.6-104.9h-12L560,577z"/><path d="M558.5,342.8h-14.2l4.5,82h7.3l5.3,14.9h10l-2.1-60.2l-3.9-10.7v34.5H563v-47.2L558.5,342.8z"/><path d="M548.4,401.5h4.3v11.1h-4L548.4,401.5z"/><path d="M548.9,422h11.3l7,17.6h-5.7l-5.3-14.9h-7.3V422z"/><path d="M565.4,371.3l-2.5-5l-0.2,37h2.7V371.3z"/><path d="M558.5,342.8l1.7,79.3"/><path d="M548.9,424.8v18.3l18.8-0.8l0.4-2.6h-6.7l-5.3-14.9H548.9z"/><path d="M555,594h5.6l13.6-17H560l-3.8-111.6h12l-0.4-23.2l-18.8,0.8L555,594z"/><path d="M560,577h14.2l-3.4-6.7L560,577z"/><path d="M556.3,469.8l13,0l0-4.4h-13.2L556.3,469.8z"/><path d="M563.5,450.4l-7.3,3v-6.1L563.5,450.4z"/><path d="M563.5,458.3l-7.3,3v-6.1L563.5,458.3z"/></g></g><g id="Right-Earcap_GI"><g id="Module_Right_GI_Option" class="option" style="display: inherit;"><g id="Main_Module_Right_GI" style="fill: rgb(174, 217, 9);"><rect x="112.3" y="390.8" width="21.5" height="28.5"/><rect x="97.9" y="375.6" width="7.8" height="5"/><rect x="86.4" y="375.6" width="7.8" height="5"/><path d="M66.7,403.1v-7.8h5v7.8H66.7z"/><path d="M66.7,414.6v-7.8h5v7.8H66.7z"/><rect x="97.9" y="429.3" width="7.8" height="5"/><rect x="86.4" y="429.3" width="7.8" height="5"/><circle cx="96.1" cy="405" r="26.4"/></g><g id="Inside_Module_Right_GI" style="fill: rgb(174, 217, 9);"><ellipse cx="96.1" cy="405" rx="20.9" ry="20.6"/><ellipse cx="96.1" cy="405" rx="12.3" ry="12.2"/><ellipse cx="96.1" cy="405" rx="7.8" ry="7.7"/><ellipse cx="96.1" cy="405" rx="4" ry="4"/></g></g><g id="Ear-Cap_Right_GI" style="fill: rgb(174, 217, 9);"><path d="M151.3,443.1L145.3,594h-5.6l4.4-128.6h-12l0.4-23.2L151.3,443.1z"/><path d="M139.7,594l-10.2-19.6l2.6-109h12L139.7,594z"/><path d="M143.9,469.8l-13,0l0-4.4h13.1L143.9,469.8z"/><circle cx="140.7" cy="449.1" r="3.4"/><circle cx="140.7" cy="458.5" r="3.4"/><path d="M141.7,342.8h14.2l-4.5,82h-7.3l-5.3,14.9h-10l2.1-60.2l3.9-10.7v34.5h2.5v-47.2L141.7,342.8z"/><path d="M151.9,401.5h-4.3v11.1h4L151.9,401.5z"/><path d="M151.3,422h-11.3l-7,17.6h5.7l5.3-14.9h7.3V422z"/><path d="M134.8,371.3l2.5-5l0.2,37h-2.7V371.3z"/><path d="M141.7,342.8l-1.7,79.3"/><path d="M151.3,424.8v18.3l-18.8-0.8l-0.4-2.6h6.7l5.3-14.9H151.3z"/></g></g><g id="Helmet_Pieces_GI"><g id="Face_GI" style="fill: rgb(174, 217, 9);"><path d="M166.2,608.3l26.5-104.6l0.1,0c2,0.2,34,3.5,65.6,50.5c22,32.7,28.1,125.4,28.1,125.4L166.2,608.3z"/><path d="M534.8,608.3l-26.5-104.6l-0.1,0c-2,0.2-34,3.5-65.6,50.5c-22,32.7-28.1,125.4-28.1,125.4L534.8,608.3z"/></g><g id="Cheeks_GI" style="fill: rgb(174, 217, 9);"><path d="M150.7,419.6l-5,174.5l20.4,14.3l26.5-104.6L150.7,419.6z"/><path d="M550.2,419.6l5,174.5l-20.4,14.3l-26.5-104.6L550.2,419.6z"/><path d="M150.9,419.6c3.5,0.8,60.5,15,94.7,70c34.2,55,49,181.7,49.8,189.6l0,0.4h-9c0,0-6.2-92.7-28.1-125.4 c-32.6-48.5-65.7-50.5-65.7-50.5l-41.9-84.1L150.9,419.6z"/><path d="M550.1,419.6c-3.5,0.8-60.5,15-94.7,70c-34.2,55-49,181.7-49.8,189.6l0,0.4h9c0,0,6.2-92.7,28.1-125.4 c32.6-48.5,65.7-50.5,65.7-50.5l41.9-84.1L550.1,419.6z"/></g><path id="Visor_GI" d="M161.1,369.5l189.4,10.2l189.4-10.2v15.7L392,419.6l-11.3,260h-60.6l-11.3-260l-147.8-34.5 V369.5z" style="fill: rgb(0, 0, 0);"/><path id="Eyes_GI" d="M161.1,369.5v15.7l147.8,34.5l11.3,260h-24.7c0,0-14.5-133.2-49.9-190 c-35.4-56.8-94.9-70-94.9-70l5.1-76.8h389.2l5.1,76.8c0,0-59.5,13.3-94.9,70c-35.4,56.8-49.9,190-49.9,190h-24.7l11.3-260 l147.8-34.5v-15.7c0,0-126.2,10.2-189.4,10.2S161.1,369.5,161.1,369.5z" style="fill: rgb(174, 217, 9);"/><path id="Dome_GI" d="M544.7,342.8H155.5c0-99.3,87.2-180,194.6-180S544.7,243.4,544.7,342.8z" style="fill: rgb(174, 217, 9);"/></g></g></g><g id="Shoulders_Current" transform="translate(193,565)"><g id="LeftShoulder_Current"><g id="Left-Shoulder_F"><g id="Classic_Shoulder_Left_F_Option" class="option" style="display: inherit;"><path id="Main_Shoulder_Classic_Left_F" d="M1014.9,138.6l-26.7,120.8l21.4,69.6l143,72.4l24-36.9L1014.9,138.6z" style="fill: rgb(212, 212, 212);"/></g></g></g><g id="RightShoulder_Current"><g id="Right-Shoulder_F"><g id="Classic_Shoulder_Right_F_Option" class="option" style="display: inherit;"><path id="Main_Shoulder_Classic_Right_F" d="M399.3,138.6L426,259.4L404.6,329l-143,72.4l-24-36.9L399.3,138.6z" style="fill: rgb(212, 212, 212);"/></g></g></g></g></svg>
