<svg id="Female-Body" viewBox="0 0 1800 3300" version="1.1" xmlns="http://www.w3.org/2000/svg" style="stroke:black;stroke-width:2px;fill-rule:evenodd;height:100%;"><g id="Back_F" transform="translate(0,601)"><g id="Cape_F"><path id="Torn-Full-Cape_Back_F_Option" d="M724.6,181.1c-124.5,47-263.2,273.6-280.3,445.9 c-10.8,108.7-63.8,219.2-58.9,327.4c5,109.8-50.3,223.6-54.4,333.3c-3.7,98.8-32.8,144-49.7,241.7c-25.3,146.2-53.3,242.6-76,388.9 c-18.1,116.3-72.6,212.5-98.3,248.8c-1,1.3,26.1-12.5,59.6-13.1c9.8-0.2,58.5-71.8,58.5-71.8s60.7,50.6,73.2,79.1 c16.4-10.4,28.9-161.8,47.6-167.7c9.8-3.1,27.8,190.1,27.8,190.1s29.2-57.2,40.4-57.4c24-0.4,67.9,21.5,92.5,24.1 c26.1,2.8,53-40.5,81.6-33.4c44,10.8,87.6,9.9,131.4,15.6c30.9,4,61.9,64.3,93,64.2c38.3-0.1,32.9-89.9,72.1-98.6 c33.6-7.4,79.3,72.7,79.3,72.7s10.6-265.9,43.7-276.8c43.4-14.2,206.6,200.1,252,195.9c13.4-1.2,30.7-135.6,43.9-135.4 c28.8,0.6,53.3,138.4,81.7,143.8c35.6,6.8,52.8-59.9,87.9-51.2c9.9,2.5,37.8,80.9,47.7,83.2c21.7,5,51.7,17.9,74.2,16.5 c0.6,0-7.2-52.1-8.3-57.7c-5-24.9-13-49.3-23-73c-11.9-28.2-26.7-55.2-42.8-80.7c-75.2-119-49.3-249.6-63-390.3 c-13.3-136.4,0.6-273.1-22.3-409.2c-20.3-120.4-91.5-232.5-109.4-354c-20.9-142.6-69.6-295.3-112.6-433.8 C1160.7,178.2,849.2,134.1,724.6,181.1z M759.9,1990.6c-10,25.8-13.9,52.8-11.1,80.4c1.3,12.5,4.9,25.4,11.1,36.4 c0.6,1.1,0.9,4.1,1.9,3.2C808.6,2068.9,759.9,1990.6,759.9,1990.6z M393.9,1732.6c-4.3,82.5-12,165.4-12,248 c0,15.5,0.2,30.9,1.6,46.3c0.2,2.4,2.6,25,3.8,24.8c28-5.6,14.4-82.1,21-105.9C431.3,1863.5,393.9,1732.6,393.9,1732.6z M1371.9,2018.6c-2.5,29.9,6.5,26.6,14.2,11.6c7.7-15,13.9-41.6,5.9-58.4L1371.9,2018.6z M1249.9,1758.6 c-6.9,49.5,3.8,91.6,7.4,140.3c1.2,15.9,1.2,31.8,1.5,47.7c0.1,5.3,0.3,10.7,0.2,16c-0.1,2.7-2,10.1-0.1,8.2 c37.3-38.9,33.1-114,21.5-162.1L1249.9,1758.6z M803.9,1904.6c-0.4,12.7-0.2,25.9,1.5,38.5c3.4,25.5,17.7-14.6,17.9-24.7 c0.3-14-9.1-30.4-12.5-43.9L803.9,1904.6z" class="option" style="display: inherit; fill: rgb(74, 147, 169);"/></g></g><g id="Flight-Suit" transform="translate(0,528)"><g id="Soft-Parts_F"><g id="Suit_F"><g id="Neck-Seal_F"><g id="Standard-Neck-Seal_F_Option" class="option" style="display: inherit; fill: rgb(52, 68, 83);"><path d="M1011.8,83.6c0-9.6-7.5-17.3-16.8-17.3c0,0-63.5,9.1-95.2,9.1c-31.7,0-95.2-9.1-95.2-9.1 c-9.3,0-16.8,7.8-16.8,17.3s7.5,17.3,16.8,17.3c0,0,63.5,9.1,95.2,9.1c31.7,0,95.2-9.1,95.2-9.1 C1004.3,100.9,1011.8,93.1,1011.8,83.6z"/><path d="M1017.5,103.8c0-10-7.9-18.2-17.7-18.2c0,0-66.7,9.6-100,9.6c-33.3,0-100-9.6-100-9.6 c-9.8,0-17.7,8.1-17.7,18.2s7.9,18.2,17.7,18.2c0,0,66.7,9.6,100,9.6c33.3,0,100-9.6,100-9.6 C1009.6,122,1017.5,113.8,1017.5,103.8z"/><path d="M1023.9,128.9c0-10.6-8.4-19.2-18.6-19.2c0,0-70.3,10.1-105.5,10.1c-35.2,0-105.5-10.1-105.5-10.1 c-10.3,0-18.6,8.6-18.6,19.2c0,10.6,8.4,19.2,18.6,19.2c0,0,70.3,10.1,105.5,10.1c35.2,0,105.5-10.1,105.5-10.1 C1015.6,148.1,1023.9,139.5,1023.9,128.9z"/><path d="M1030.2,152c0-11.1-8.8-20.1-19.6-20.1c0,0-73.8,10.6-110.7,10.6s-110.7-10.6-110.7-10.6 c-10.8,0-19.6,9-19.6,20.1s8.8,20.1,19.6,20.1c0,0,73.8,10.6,110.7,10.6s110.7-10.6,110.7-10.6 C1021.4,172.1,1030.2,163.1,1030.2,152z"/><path d="M1036.3,174.6c0-8.4-9.2-15.2-20.5-15.2c0,0-77.3,8-116,8c-38.7,0-116-8-116-8c-11.3,0-20.5,6.8-20.5,15.2 c0,8.4,9.2,15.2,20.5,15.2c0,0,77.3,8,116,8c38.7,0,116-8,116-8C1027.1,189.8,1036.3,183,1036.3,174.6z"/><path d="M1036.3,199.9c0-8.4-9.2-15.2-20.5-15.2c0,0-77.3,8-116,8c-38.7,0-116-8-116-8c-11.3,0-20.5,6.8-20.5,15.2 c0,8.4,9.2,15.2,20.5,15.2c0,0,77.3,15.4,116,15.4c38.7,0,116-15.4,116-15.4C1027.1,215.1,1036.3,208.3,1036.3,199.9z"/></g></g><g id="Flight-Suit_F" style="fill: rgb(52, 68, 83);"><path d="M421.3,665.8l53.1-193l124-83.5l19.4,169.3c0,0-53.6,102.2-72.1,149c-19,48.2-52,158.4-56.2,172.5 l-29.4,255.8l-85.3-27.3c0,0-3.1-177.5,4.7-251.3C386.4,791.5,421.3,665.8,421.3,665.8z"/><path d="M1378.7,665.8l-53.3-193.6l-123.1-82.9l-19.6,170.4c0,0,53.1,101.1,71.6,147.9c19,48.2,52,158.4,56.2,172.5 l29.4,255.8l85.3-27.3c0,0,3.1-177.5-4.7-251.3C1413.6,791.5,1378.7,665.8,1378.7,665.8z"/><path d="M899.8,1212.7c-10.5,1-19.9,5.2-23.4,12.5c-30.6,64.7-93.6,360.6-111.8,415.2c-9.9,29.7-17.7,192-34.5,286.7 c-20,113-85.7,391.3-85.7,391.3l-113.8-11.8c0,0-14.7-279.4-10.6-381.2c3.1-77.3,34.9-229.1,34.9-229.1s6.8-55.4,7-83.3 c0.6-100.8,9.5-325,29.4-453.8C607,1057.4,703,843.7,703,843.7s124.3,48.9,197.4,48.9s198.4-49.9,198.4-49.9 s90.6,214.8,106.3,316.6c19.9,128.7,33.1,353,33.7,453.8c0.2,27.9,7,83.3,7,83.3s31.8,151.8,34.9,229.1 c4,101.7-10.6,381.2-10.6,381.2l-113.8,11.8c0,0-65.6-278.3-85.7-391.3c-16.8-94.7-24.6-257-34.5-286.7 c-18.2-54.5-81.2-350.5-111.8-415.2c-3.5-7.5-13.2-11.7-23.9-12.6L899.8,1212.7z"/></g></g><g id="Boots_F"><g id="Basic_Boots_F_Option" class="option" style="display: inherit;"><g id="Main_Basic-Boot_F" style="fill: rgb(42, 41, 41);"><path d="M652.3,2285.1c-1.9-0.7-23.6,13.1-36,15.2c-13.2,2.2-27.6,2-41.6,0.6l-5.7-0.6l-0.2,0l-0.7-0.1l-1.9-0.3 l-2.9-0.4l-1.2-0.2c-3.3-0.4-6.5-1-9.7-1.5l-5-1l-1.1-0.3l-0.4-0.1l-0.8-0.2l-3.5-0.9l-3.1-0.9l-0.5-0.1c-10.7-2.9-8.7-8-8.7-8 c0,14.9-15.5,61.4-53.8,99.4c-11.7,11.6-40,25.2-64.6,36c-22.5,9.9-49.7,12.3-62.8,38.8c-2.8,5.8-5.3,12.7-4.8,19.3 c0.6,8.4,9.7,9.6,16.8,11.6c17.6,5,32.8,8.8,53.2,13.4c23.3,5.2,44.3,8.4,67.9,7.8c17.7-0.5,32.6-1.2,48.1-10.6 c6.2-3.8,12.7-7.6,18.1-12.5c12.1-11.1,20-22.7,35.6-29.3c11.3-4.8,22.9-8.7,34.8-11.6c16.9-4,41.5-9.7,50.5-26.4 c3.5-12.5-11.7-39.3-12.8-57.4C655,2350.5,653.6,2285.6,652.3,2285.1z"/><path d="M1148.4,2285.1c1.9-0.7,23.6,13.1,36,15.2c13.2,2.2,27.6,2,41.6,0.6l5.7-0.6l0.2,0l0.7-0.1l1.9-0.3l2.9-0.4 l1.2-0.2c3.3-0.4,6.5-1,9.7-1.5l5-1l1.1-0.3l0.4-0.1l0.8-0.2l3.5-0.9l3.1-0.9l0.5-0.1c10.7-2.9,8.7-8,8.7-8 c0,14.9,15.5,61.4,53.8,99.4c11.7,11.6,40,25.2,64.6,36c22.5,9.9,49.7,12.3,62.8,38.8c2.8,5.8,5.3,12.7,4.8,19.3 c-0.6,8.4-9.7,9.6-16.8,11.6c-17.6,5-32.8,8.8-53.2,13.4c-23.3,5.2-44.3,8.4-67.9,7.8c-17.7-0.5-32.6-1.2-48.2-10.6 c-6.2-3.8-12.7-7.6-18.1-12.5c-12.1-11.1-20-22.7-35.6-29.3c-11.3-4.8-22.8-8.7-34.8-11.6c-16.9-4-41.5-9.7-50.6-26.4 c-3.5-12.5,11.7-39.3,12.8-57.4C1145.7,2350.5,1147.1,2285.6,1148.4,2285.1z"/></g><g id="Bottom_Basic-Boot_F" style="fill: rgb(0, 0, 0);"><path d="M668.7,2422.4c-4.5,8.3-12.9,13.9-22.3,17.9c-8.5,4.3-18.6,6.1-28.3,8.4c-1.3,0.3-2.6,0.6-3.9,1 c-1.9,0.5-3.8,1-5.7,1.6c-0.6,0.2-1.2,0.3-1.7,0.5l-1,0.3c-0.6,0.2-1.2,0.4-1.9,0.6c-0.3,0.1-0.5,0.2-0.8,0.3 c-1,0.3-2.1,0.7-3.1,1c-0.4,0.1-0.7,0.3-1.1,0.4l-0.5,0.2c-1.6,0.5-3.2,1.1-4.8,1.7c-0.3,0.1-0.7,0.3-1,0.4 c-1.4,0.6-2.9,1.1-4.3,1.7l-1.1,0.4c-0.9,0.3-1.7,0.7-2.6,1.1c-0.4,0.2-0.7,0.3-1.1,0.5c-2.6,1.1-4.9,2.3-7.1,3.6l-0.3,0.2 c-0.2,0.1-0.3,0.2-0.5,0.3c-0.7,0.4-1.3,0.9-2,1.3l-0.4,0.3c-0.1,0.1-0.3,0.2-0.4,0.3c-0.7,0.5-1.3,1-1.9,1.4l-0.5,0.4l-0.9,0.7 c-2.7,2.2-5.2,4.5-7.7,7l-0.7,0.7c-1.3,1.4-2.7,2.7-4,4.1c-1.4,1.4-2.8,2.9-4.3,4.4c-1.5,1.5-3,2.9-4.6,4.4l-0.5,0.5 c-0.5,0.4-1,0.9-1.5,1.3c-0.1,0.1-0.2,0.1-0.3,0.2c-0.8,0.7-1.6,1.3-2.4,1.9c-0.5,0.4-1.1,0.8-1.7,1.2l-0.3,0.2 c-0.7,0.5-1.4,1-2.1,1.4c-0.3,0.2-0.6,0.4-0.9,0.6c-1,0.7-2.1,1.3-3.2,2c-0.7,0.4-1.5,0.9-2.2,1.3l-0.9,0.6l-2.3,1.4l-1.1,0.7 l-0.7,0.4l-0.7,0.4c-1.1,0.6-2.1,1.1-3.2,1.7c-0.5,0.2-1,0.5-1.5,0.7l-0.5,0.2c-3.2,1.4-6.5,2.5-9.7,3.3l-0.6,0.1l-0.7,0.2 c-0.2,0-0.5,0.1-0.7,0.2c-0.7,0.2-1.3,0.3-2,0.4c-0.5,0.1-1,0.2-1.6,0.3l-1.2,0.2l-0.4,0.1c-0.3,0.1-0.7,0.1-1,0.2 c-0.6,0.1-1.2,0.2-1.7,0.2c-0.8,0.1-1.6,0.2-2.5,0.3c-0.2,0-0.4,0-0.7,0.1c-2.1,0.2-4.1,0.4-6.3,0.5c-1.2,0.1-2.3,0.1-3.5,0.2 l-1,0c-2.2,0.1-4.5,0.2-6.7,0.2c-1.5,0.1-2.9,0.1-4.4,0.1c-0.5,0-1.1,0-1.6,0c-0.8,0-1.5,0-2.2,0c-0.5,0-1.1,0-1.6,0l-0.5,0 c-2.7-0.1-5.3-0.2-8-0.3c-0.4,0-0.7,0-1.1-0.1l-1.1-0.1c-0.3,0-0.7,0-1-0.1c-3.9-0.3-7.7-0.6-11.6-1.1l-1-0.1 c-1-0.1-1.9-0.2-2.9-0.4c-0.4-0.1-0.8-0.1-1.3-0.2l-1-0.1c-0.8-0.1-1.6-0.2-2.4-0.4c-3.4-0.5-6.7-1.1-10.1-1.7 c-0.8-0.1-1.5-0.3-2.3-0.4l-1-0.2c-0.4-0.1-0.7-0.1-1.1-0.2l-1.1-0.2c-0.4-0.1-0.7-0.1-1.1-0.2l-0.7-0.2 c-0.8-0.2-1.6-0.3-2.5-0.5l-1.1-0.2c-1-0.2-1.9-0.4-2.9-0.6c-0.8-0.2-1.7-0.4-2.5-0.6l-0.2-0.1c-5.3-1.2-10.3-2.3-15.1-3.5 l-1.8-0.4c-1.4-0.3-2.7-0.6-4-1l-1.6-0.4l-0.7-0.2c-1.9-0.5-3.7-0.9-5.6-1.4c-1.1-0.3-2.2-0.6-3.3-0.9c-3.2-0.8-6.4-1.7-9.6-2.5 l-1.5-0.4c-0.5-0.1-1.1-0.3-1.6-0.4l-0.6-0.2c-2.5-0.7-5-1.4-7.5-2.1l-0.6-0.2l-0.9-0.2l-2.6-0.7l-0.9-0.2l-1.3-0.4l-0.6-0.2 l-1.1-0.3l-0.9-0.3l-0.4-0.2l-0.5-0.2l-0.3-0.1l-0.5-0.2l-0.5-0.2l-0.2-0.1l-0.5-0.3l-0.6-0.3l-0.5-0.4l-0.5-0.4 c-0.8-0.7-1.6-1.4-2.1-2.4h0c0,0-4.7,7-5.1,19.1c10.6,15.3,44,20.4,90.2,26.6c45.9,6.1,74.3,4.9,93.5-3.3s52.9-47.5,77-49.6 c24.1-2.1,52.6-14.9,64.3-21.7c6.1-3.6,4.3-28.9,4.3-28.9L668.7,2422.4z"/><path d="M1131.9,2422.4c4.5,8.3,12.9,13.9,22.3,17.9c8.6,4.3,18.6,6.1,28.3,8.4c1.3,0.3,2.6,0.6,3.9,1 c1.9,0.5,3.8,1,5.8,1.6c0.6,0.2,1.2,0.3,1.7,0.5l1,0.3c0.6,0.2,1.2,0.4,1.8,0.6c0.3,0.1,0.5,0.2,0.8,0.3c1,0.3,2.1,0.7,3.1,1 c0.4,0.1,0.7,0.3,1.1,0.4l0.5,0.2c1.6,0.5,3.2,1.1,4.8,1.7c0.4,0.1,0.7,0.3,1,0.4c1.4,0.6,2.9,1.1,4.3,1.7l1.1,0.4 c0.9,0.3,1.7,0.7,2.6,1.1c0.4,0.2,0.8,0.3,1.1,0.5c2.6,1.1,4.9,2.3,7.1,3.6l0.3,0.2c0.2,0.1,0.3,0.2,0.5,0.3 c0.7,0.4,1.3,0.9,2,1.3l0.4,0.3c0.1,0.1,0.3,0.2,0.4,0.3c0.7,0.5,1.3,1,1.9,1.4l0.6,0.4l0.8,0.7c2.7,2.2,5.2,4.5,7.7,7l0.7,0.7 c1.3,1.4,2.7,2.7,4,4.1c1.4,1.4,2.8,2.9,4.3,4.4c1.5,1.5,3,2.9,4.6,4.4l0.5,0.5c0.5,0.4,1,0.9,1.5,1.3c0.1,0.1,0.2,0.1,0.3,0.2 c0.8,0.7,1.6,1.3,2.4,1.9c0.5,0.4,1.1,0.8,1.7,1.2l0.3,0.2c0.7,0.5,1.4,1,2.1,1.4c0.3,0.2,0.6,0.4,0.9,0.6c1,0.7,2.1,1.3,3.2,2 c0.7,0.4,1.5,0.9,2.2,1.3l0.9,0.6l2.3,1.4l1.1,0.7l0.7,0.4l0.7,0.4c1.1,0.6,2.1,1.1,3.2,1.7c0.5,0.2,1,0.5,1.5,0.7l0.5,0.2 c3.2,1.4,6.5,2.5,9.7,3.3l0.6,0.1l0.7,0.2c0.2,0,0.5,0.1,0.7,0.2c0.7,0.2,1.4,0.3,2,0.4c0.5,0.1,1.1,0.2,1.6,0.3l1.2,0.2l0.4,0.1 c0.3,0.1,0.7,0.1,1,0.2c0.6,0.1,1.2,0.2,1.7,0.2c0.8,0.1,1.7,0.2,2.5,0.3c0.2,0,0.4,0,0.7,0.1c2.1,0.2,4.1,0.4,6.3,0.5 c1.1,0.1,2.3,0.1,3.5,0.2l1,0c2.2,0.1,4.5,0.2,6.8,0.2c1.5,0.1,2.9,0.1,4.4,0.1c0.5,0,1.1,0,1.6,0c0.8,0,1.5,0,2.2,0 c0.5,0,1.1,0,1.6,0l0.5,0c2.7-0.1,5.3-0.2,8-0.3c0.4,0,0.7,0,1.1-0.1l1.1-0.1c0.3,0,0.7,0,1-0.1c3.9-0.3,7.7-0.6,11.6-1.1l1-0.1 c1-0.1,1.9-0.2,2.9-0.4c0.4-0.1,0.8-0.1,1.3-0.2l1-0.1c0.8-0.1,1.6-0.2,2.4-0.4c3.4-0.5,6.7-1.1,10.1-1.7 c0.8-0.1,1.5-0.3,2.3-0.4l1-0.2c0.3-0.1,0.7-0.1,1.1-0.2l1.1-0.2c0.4-0.1,0.7-0.1,1.1-0.2l0.7-0.2c0.8-0.2,1.7-0.3,2.5-0.5 l1.1-0.2c1-0.2,1.9-0.4,2.9-0.6c0.8-0.2,1.7-0.4,2.5-0.6l0.2-0.1c5.3-1.2,10.3-2.3,15.1-3.5l1.8-0.4c1.4-0.3,2.7-0.6,4-1l1.6-0.4 l0.7-0.2c1.9-0.5,3.8-0.9,5.6-1.4c1.1-0.3,2.2-0.6,3.3-0.9c3.2-0.8,6.4-1.7,9.6-2.5l1.5-0.4c0.5-0.1,1.1-0.3,1.6-0.4l0.6-0.2 c2.5-0.7,5-1.4,7.5-2.1l0.6-0.2l0.9-0.2l2.7-0.7l0.9-0.2l1.3-0.4l0.5-0.2l1.1-0.3l0.9-0.3l0.4-0.2l0.5-0.2l0.3-0.1l0.5-0.2 l0.5-0.2l0.2-0.1l0.5-0.3l0.6-0.3l0.5-0.4l0.5-0.4c0.8-0.7,1.5-1.4,2.1-2.4l0,0c0,0,4.7,7,5.1,19.1c-10.6,15.3-44,20.4-90.2,26.6 c-46,6.1-74.3,4.9-93.5-3.3s-52.9-47.5-77-49.6c-24.1-2.1-52.6-14.9-64.3-21.7c-6.1-3.6-4.3-28.9-4.3-28.9L1131.9,2422.4z"/></g><g id="Top_Basic-Boot_F" style="fill: rgb(52, 68, 83);"><path d="M536.1,2293.9c-6.4,31.4-16.3,58.7-37.2,85.1c-32.5,41.1-88,44.5-126.4,77.9c-9.8,8.6-9.4,22.3-11,35 c15.9,4.5,29.9,8,47.7,12.1c1.2-12.6-1-26.7,9.5-35.9c38.4-33.4,98.8-32.1,131.3-73.2c21.2-26.9,21.3-61.5,27.5-93.7 c-1-0.1-1.9-0.2-2.9-0.3l-5.7-0.6l-0.2,0l-0.7-0.1l-1.9-0.3l-2.9-0.4l-1.2-0.2c-3.3-0.4-6.5-1-9.7-1.5l-5-1l-1.1-0.3l-0.4-0.1 l-0.8-0.2l-3.5-0.9l-3.1-0.9l-0.5-0.1C537.6,2294.3,536.8,2294.1,536.1,2293.9z"/><path d="M1264.5,2293.9c6.4,31.4,16.3,58.7,37.2,85.1c32.5,41.1,88,44.5,126.4,77.9c9.8,8.6,9.4,22.3,11,35 c-15.9,4.5-29.9,8-47.7,12.1c-1.3-12.6,1-26.7-9.5-35.9c-38.4-33.4-98.8-32.1-131.3-73.2c-21.2-26.9-21.3-61.5-27.5-93.7 c1-0.1,1.9-0.2,2.8-0.3l5.7-0.6l0.2,0l0.7-0.1l1.9-0.3l2.9-0.4l1.2-0.2c3.3-0.4,6.5-1,9.7-1.5l5-1l1.1-0.3l0.4-0.1l0.8-0.2 l3.5-0.9l3.1-0.9l0.5-0.1C1263.1,2294.3,1263.8,2294.1,1264.5,2293.9z"/></g><g id="Side_Basic-Boot_F" style="fill: rgb(52, 68, 83);"><path d="M646.4,2287.4c-12.3,5.4-18.8,10.9-30.1,12.8c-0.6,0.1-1.2,0.2-1.8,0.3c-0.2,3.9-0.1,7.9-0.2,11.3 c-0.4,19.7,2,103.6,5.9,103.5c3.9-0.2,15.1-2.2,18-5.3c1.9-2,2.3-6.8,2.9-9.5c2-8.3,3.8-16.7,5.1-25.2 C647.8,2364.1,646,2304.5,646.4,2287.4z"/><path d="M1154.3,2287.4c12.3,5.4,18.8,10.9,30.1,12.8c0.6,0.1,1.2,0.2,1.8,0.3c0.2,3.9,0.1,7.9,0.2,11.3 c0.4,19.7-2,103.6-5.9,103.5c-3.9-0.2-15.1-2.2-18-5.3c-1.9-2-2.3-6.8-2.9-9.5c-2-8.3-3.8-16.7-5.1-25.2 C1152.8,2364.1,1154.6,2304.5,1154.3,2287.4z"/></g></g></g><g id="Sleeves_F_Toggle" class="toggle" style="fill: rgb(52, 68, 83);"><path d="M460.3,473.2l8.2,3.5l129.9-87.4c0,0,3.7,92.2,14.5,147.6c1.5,7.7,3.7,17.4,6.6,28.6l-17.3,56 c0,0-58.7-23.1-84.5-38.2c-25-14.7-69.9-52.7-69.9-52.7L460.3,473.2z"/><path d="M1181.2,565.5c2.8-11.2,5.1-21,6.6-28.6c10.8-55.4,14.5-147.6,14.5-147.6l129.9,87.4l8.2-3.5l12.4,57.3 c0,0-44.9,38-69.9,52.7c-25.7,15.2-84.4,38.2-84.4,38.2L1181.2,565.5z"/></g><g id="Gloves_F"><g id="Left-Glove_F"><g id="Basic_Left_Glove_F_Option" class="option" style="display: inherit; fill: rgb(52, 68, 83);"><path d="M1391.6,1284.8c-4.7-0.3-9.2-0.2-13.9,1c-3.2,0.8-6.3,1.6-9.2,3.5c-8.7,5.7-6.3,18,1.4,22.7 c9,5.5,23.3,0.1,27.5-10.5C1399.1,1297.1,1393.9,1288.9,1391.6,1284.8"/><path d="M1375.7,1295.5c-4.7-0.3-9.2-0.2-13.9,1c-3.2,0.8-6.3,1.6-9.2,3.5c-8.7,5.7-6.3,18,1.4,22.7 c9,5.5,23.4,0.1,27.5-10.5C1383.2,1307.8,1377.9,1299.7,1375.7,1295.5"/><path d="M1364.3,1310.1c-4.7,0.5-10.4,1.3-14.9,3.1c-3.1,1.2-6.1,2.6-8.7,4.8c-7.9,6.9-4.1,18.8,4.1,22.3 c9.6,4.1,23.1-3.5,26-14.6C1371.9,1321.2,1364.3,1310.1,1364.3,1310.1z"/><path d="M1338.5,1144.4c0,0-13.7,21.4-17.3,36.8c-2.5,10.8-1.2,36.8-4.3,54.2c-3.2,17.4-6.1,27.1-6.1,27.1 s-12.1,27.9-10,34.3c2.1,6.4,12.7,12.1,18.8,8.7c7.6-4.2,16.9-23.8,22.9-37.7c6-14.1,11-34.1,11-34.1s8.3,3.2,12.5,7 c14.1,12.3,8,49.5,8,49.5s-5.8,13.3-14.6,28.2c-11.9,20.4-30.3,38-18.2,53.6c11.3,14.6,37-23.7,37-23.7l25.2-37.2 c0,0,29-54,30.4-64.5c1.1-8,0.1-34.7,0.1-34.7l-9.1-103.5l-45.9,4.3l-37.8,13.9L1338.5,1144.4"/></g></g><g id="Right-Glove_F"><g id="Basic_Right_Glove_F_Option" class="option" style="display: inherit; fill: rgb(52, 68, 83);"><path d="M408.7,1284.8c4.7-0.3,9.2-0.2,13.9,1c3.2,0.8,6.3,1.6,9.2,3.5c8.7,5.7,6.3,18-1.4,22.7 c-9,5.5-23.4,0.1-27.5-10.5C401.1,1297.1,406.4,1288.9,408.7,1284.8"/><path d="M424.6,1295.5c4.7-0.3,9.2-0.2,13.9,1c3.2,0.8,6.3,1.6,9.2,3.5c8.7,5.7,6.3,18-1.4,22.7 c-9,5.5-23.4,0.1-27.5-10.5C417,1307.8,422.3,1299.7,424.6,1295.5"/><path d="M436,1310.1c4.7,0.5,10.4,1.3,14.9,3.1c3.1,1.2,6.1,2.6,8.7,4.8c7.9,6.9,4.1,18.8-4.1,22.3 c-9.6,4.1-23.2-3.5-26-14.6C428.3,1321.2,436,1310.1,436,1310.1z"/><path d="M461.7,1144.4c0,0,13.7,21.4,17.2,36.8c2.5,10.8,1.2,36.8,4.3,54.2c3.2,17.4,6.1,27.1,6.1,27.1 s12.1,27.9,10,34.3c-2.1,6.4-12.7,12.1-18.8,8.7c-7.6-4.2-17-23.8-22.9-37.7c-6-14.1-11-34.1-11-34.1s-8.3,3.2-12.5,7 c-14.1,12.3-8,49.5-8,49.5s5.8,13.3,14.6,28.2c12,20.4,30.3,38,18.2,53.6c-11.3,14.6-37-23.7-37-23.7l-25.2-37.2 c0,0-28.9-54-30.4-64.5c-1.1-8-0.1-34.7-0.1-34.7l9-103.5l45.9,4.3l37.8,13.9L461.7,1144.4"/></g></g></g></g></g><g id="Biceps_Current" transform="translate(193,579)"><g id="LeftBiceps_Current"><g id="Left-Biceps_F"><g id="Basic_Biceps_Left_F_Option" class="option" style="display: inherit;"><path id="Main_Basic_Biceps_Left_F" d="M1200.1,549.5c-12.1-29.3-65.9-157.6-65.9-157.6s-88.4,36.5-110.4,45.6 c-6.2,2.6-9.2,9.7-6.6,16c10.4,25.2,35.8,86.8,51.7,125.1c3.6,8.7,10.5,15.6,19.1,19.2c8.7,3.6,18.4,3.6,27.1,0 c26-10.7,60.8-25.1,78.4-32.4C1199.7,562.9,1202.6,555.7,1200.1,549.5z" style="fill: rgb(1, 17, 61);"/><path id="Strap_Basic_Biceps_Left_F" d="M1040.8,510.3l-48.1,19.8l11.3,40.5l52.7-21.7L1040.8,510.3" style="fill: rgb(78, 47, 16);"/><path id="Trauma-Plate_Basic_Biceps_Left_F_ToggleOff" d="M1199.7,543.4l-56.1-135.9l-107.7,44.4l49.5,119.8 c1.8,4.3,5.2,7.7,9.4,9.4c4.3,1.8,9,1.8,13.3,0L1199.7,543.4" class="toggle" style="fill: rgb(136, 163, 236);"/></g></g></g><g id="RightBiceps_Current"><g id="Right-Biceps_F"><g id="Basic_Biceps_Right_F_Option" class="option" style="display: inherit;"><path id="Main_Basic_Biceps_Right_F" d="M214.2,549.5c12.1-29.3,65.9-157.6,65.9-157.6s88.4,36.5,110.4,45.6 c6.2,2.6,9.2,9.7,6.6,16c-10.4,25.2-35.8,86.8-51.7,125.1c-3.6,8.7-10.5,15.6-19.1,19.2c-8.7,3.6-18.4,3.6-27.1,0 c-26-10.7-60.8-25.1-78.4-32.4C214.6,562.9,211.7,555.7,214.2,549.5z" style="fill: rgb(1, 17, 61);"/><path id="Strap_Basic_Biceps_Right_F" d="M373.5,510.3l48.1,19.8l-11.3,40.5l-52.7-21.7L373.5,510.3" style="fill: rgb(76, 44, 12);"/><path id="Trauma-Plate_Basic_Biceps_Right_F_ToggleOff" d="M214.6,543.4l56.1-135.9l107.7,44.4l-49.4,119.8 c-1.8,4.3-5.1,7.7-9.4,9.4s-9.1,1.8-13.3,0L214.6,543.4" class="toggle" style="fill: rgb(136, 163, 236);"/></g></g></g></g><g id="Vest_Current" transform="translate(0,528)"><path id="Vest_F" d="M967.4,899.8c-43.9,9-90.3,9-134.1,0c-44.2-9.1-131-54.4-131-54.4S626.5,606.6,613,536.9 c-10.8-55.4-14.5-147.6-14.5-147.6l-129.9,87.4l-27.7-11.8c0,0,77.7-171.7,128.8-221.5c46.3-45,177.8-77,177.8-77 s58,63.7,152.8,64.2c90.2,0.4,152.8-64.2,152.8-64.2s131.6,32,177.8,77c51.1,49.8,128.8,221.5,128.8,221.5l-27.7,11.8l-129.9-87.4 c0,0-3.7,92.2-14.5,147.6c-13.6,69.7-89.3,308.6-89.3,308.6S1011.6,890.7,967.4,899.8z" style="fill: rgb(52, 68, 83);"/></g><g id="Upper-Body_F_Wrapper" transform="translate(193,565)"><g id="Chest_Current" class="Galaxy_F"><g id="Abdomen_Galaxy_F"><path id="Abdomen-Plate_Galaxy_F" d="M637.5,724.7l-20.6,15l-104.9-15l-7.6-58l49.7-1l30.1-49.2l13.7-45.3 l108.8-99.6l0.2,0.2l0.2-0.2l108.8,99.6l13.7,45.3l30.1,49.2l49.7,1l-7.6,58l-104.9,15l-20.6-15H637.5z" style="fill: rgb(4, 198, 255);"/><path id="Trauma-Plate_Abdomen_Galaxy_F_ToggleOff" d="M706.6,494.5l-94,86l-12.9,42.9l-36,58.9l-40,0.8l3.5,26.6 l85.5,12.2l19.5-14.2h149.4L801,722l85.5-12.2l3.5-26.6l-40-0.8l-36-58.9L801,580.6l-94-86l-0.2,0.2L706.6,494.5z" class="toggle" style="fill: rgb(2, 29, 105);"/></g><g id="Full-Chest_Galaxy_F"><path id="Chest-Plate_Galaxy_F" d="M663.1,327.1l-0.2,101.4l31.9,32.2L583,566.7l-14.5,48.9l-23.7,39h-40.9l-19.9-29 l-25.3-142.1l-37.1-58.1l47-152l54.2-6.9l7.6-33.6l58.1-7.1l18.3,30h199.7l18.3-30l58.1,7.1l7.6,33.6l54.2,6.9l47,152l-37.1,58.1 l-25.3,142.1l-19.9,29h-40.9l-23.7-39l-14.5-48.9L718.8,460.8l31.9-32.2l-0.2-101.4l-43.7-34L663.1,327.1z" style="fill: rgb(4, 198, 255);"/><path id="Trauma-Plating_Left-Chest_Galaxy_F_ToggleOff" d="M816.1,272.7H708l59.3,46.2l0.2,116.6l-24.6,24.9 l102.5,97.2l15.2,51.1l17.6,29h22.5l12.8-18.7l25.3-141.8l34.7-54.3L932,288.8l-55.2-7l-7.6-33.6l-35.5-4.3L816.1,272.7z" class="toggle" style="fill: rgb(1, 17, 61);"/><path id="Trauma-Plating_Right-Chest_Galaxy_F_ToggleOff" d="M579.8,243.9l-35.5,4.3l-7.6,33.6l-55.2,7l-41.5,134.1 l34.7,54.3L500,619l12.8,18.7h22.5l17.6-29l15.2-51.1l102.5-97.2L646,435.5l0.2-116.6l59.3-46.2H597.4L579.8,243.9z" class="toggle" style="fill: rgb(1, 17, 61);"/><g id="Accents_Chest-Plate_Galaxy_F_ToggleOn" class="toggle" style="fill: rgb(255, 126, 0);"><rect x="817.3" y="305.2" width="91.9" height="12.2"/><rect x="817.3" y="326.7" width="91.9" height="12.2"/></g></g><g id="Iron-Heart_Galaxy_F"><path id="Heart_Galaxy_F" d="M680,425.7v-91.3l26.8-21l26.8,21v91.3l-26.8,27.1L680,425.7z" style="fill: rgb(4, 198, 255);"/><rect id="Center_Heart_Galaxy_F_Option" x="697.5" y="348.4" width="18.6" height="62.5" class="option" style="display: inherit; fill: rgb(255, 126, 0);"/></g><g id="Neck-Armor_Galaxy_F"><g id="Neck-Plate_Galaxy_F" style="fill: rgb(4, 198, 255);"><path d="M684.4,245.9l-73.5,1.2l-18.1-29.7l-70.1,8.4l-7,30.7l-44.9,5.6l-33.1-114.2l114.8-34.4 c0,0,15.2,25.7,26.2,34.9c11.3,9.3,26.4,20.2,40.6,26.4c15.5,6.8,34.4,11.3,52.4,14.2c1.9,0.3,3.8,0.6,5.8,0.8L684.4,245.9z"/><path d="M729.1,245.9l73.5,1.2l18.1-29.7l70.1,8.4l7,30.7l44.9,5.6l33.1-114.2L861,113.5c0,0-15.2,25.7-26.2,34.9 c-11.3,9.3-26.4,20.2-40.6,26.4c-15.5,6.8-34.4,11.3-52.4,14.2c-1.9,0.3-3.8,0.6-5.8,0.8L729.1,245.9z"/></g></g></g><g id="Collar_Current"><g id="Collar_F_ToggleOff" class="toggle" style=""><g id="Cloth-Wrap-Right_Collar_F_Option" class="option" style="display: inherit;"><g id="Main_Cloth-Wrap-Right_Collar_F" style="fill: rgb(52, 1, 63);"><path d="M813,217c47.5-14.9,56.1-38.8,58.9-62.9c1.2-9.8-12.9-35.5,1.6-42.1c16.4-7.5,55.1,4.3,71.1,7.7 c11.8,2.5,22.4,14.5,34.5,14.7c27.9,0.3,50.1,30.8,52.6,44.8c3.5,19.5-31,5.7-47.2,20.6c-40.4,37-54.5,87.2-139.5,101 c-39,6.3-77.7-2.6-113.9-10.7c-93.6-20.9-144.6-38.8-204.8-85.3c-26.3-20.3-66-36.9-65-64.1c0-1.2,19.2-12.6,21-13 c16.9-4.2,31.2-11.2,49.8-11.5c11.1-0.2,9.3,9.4,10.1,13.7c3.1,16.6,18.3,29.1,37.4,41.6C629.9,204.3,744.3,214.5,813,217z"/><path d="M813,217c12.6,0.5,23.6,2.4,33.2,3c43.4,2.7,58.9-7.9,67.4-27.4"/><path d="M948,120.2c12.6,20.5,11,44.6,0.9,60.4"/><path d="M583.6,178.6c32.5,44.6,80.8,58.6,133.6,64"/><path d="M495.5,123.8c1.9,11.3,8.6,15.5,16.9,23c4.8,4.4,10.6,7.5,14.4,12.8c1.4,1.9,2.1,4.2,2.9,6.4"/></g><path id="Buckle_Cloth-Wrap-Right_Collar_F" d="M594.7,170.2l-27.7-19.8l-48,67l27.7,19.8L594.7,170.2z" style="fill: rgb(48, 49, 49);"/></g></g></g><g id="ChestAttachments_Current"><g id="Chest-Attachments_F"><g id="No-Device_Accessories_Chest_F_Option" class="option" style="display: inherit;"></g></g></g><g id="Gauntlets_Current"><g id="LeftGauntlets_Current"><g id="Left-Gauntlets_F"><g id="Basic_Gauntlet_Left_F_Option" class="option" style="display: inherit;"><path id="Top-2_Basic_Gauntlet_Left_F" d="M1270.3,1106.4l16.3-21.9l-25.1-198l-8.8,23l12.3,90.3l-9.5,21.4 L1270.3,1106.4z" style="fill: rgb(255, 126, 0);"/><path id="Top-1_Basic_Gauntlet_Left_F" d="M1261.4,886.5l-8.8,23l12.3,90.3l-9.5,21.4l14.8,85.3l-10.7,14.4l0.5,54.5 l-17,3l-15.8-83.3l-15-7l-51.6-244.4l95-2.1L1261.4,886.5z" style="fill: rgb(163, 213, 228);"/><g id="Accent-Bottom_Basic_Gauntlet_Left_F" style="fill: rgb(255, 126, 0);"><path d="M1119,912.4l-21.4,5.2l7.7,31.8l21.4-5.2L1119,912.4z"/><path d="M1132.3,968.2l-21.4,5.2l7.7,31.8l21.4-5.2L1132.3,968.2z"/><path d="M1146.1,1025.3l-21.4,5.2l7.7,31.8l21.4-5.2L1146.1,1025.3z"/></g><path id="Bottom_Basic_Gauntlet_Left_F" d="M1097.8,917.5l-5.8-24.3l69.6-45.6l50.7,240.3l-72.3,7.2l-21.4-90 l21.3-5.1l-7.7-31.8l-21.2,5.1l-5.7-23.9l21.3-5.2l-7.7-31.8L1097.8,917.5z M1146.1,1025.3l-21.5,5.2l7.6,31.9l21.6-5.2 L1146.1,1025.3z" style="fill: rgb(1, 17, 61);"/><g id="Whistling-Birds_Attachment_Basic_Gauntlet_Left_F_Option" class="option" style="display: inherit;"><path id="Head_Whistling-Birds_Attachment_Basic_Gauntlet_Left_F" d="M1309.3,1003.6l-25.3,57.9l-6.8-53.8 L1309.3,1003.6z" style="fill: rgb(1, 17, 61);"/><g id="Birds_Whistling-Birds_Attachment_Basic_Gauntlet_Left_F" style="fill: rgb(201, 3, 251);"><g><path d="M1282.9,1011c1.3-0.2,2.6,2.5,3.1,5.8c0.4,3.4-0.2,6.3-1.5,6.4c-1.3,0.2-2.6-2.5-3.1-5.8 C1281,1014,1281.7,1011.1,1282.9,1011z"/><path d="M1285.1,1028.1c1.3-0.2,2.6,2.5,3.1,5.8c0.4,3.4-0.2,6.3-1.5,6.4c-1.3,0.2-2.6-2.4-3.1-5.8 C1283.2,1031.1,1283.8,1028.3,1285.1,1028.1z"/><path d="M1291.6,1009.8c1.3-0.2,2.6,2.4,3.1,5.8c0.4,3.4-0.3,6.3-1.5,6.4c-1.3,0.2-2.6-2.5-3.1-5.8 C1289.7,1012.9,1290.4,1010,1291.6,1009.8z"/><path d="M1286.7,1055.3c-0.4-1-0.8-2.2-0.9-3.6c-0.4-3.4,0.2-6.3,1.5-6.4c0.9-0.1,1.8,1.2,2.5,3.1L1286.7,1055.3z M1294.1,1038.4c-0.8-1-1.5-2.9-1.8-5.1c-0.4-3.4,0.2-6.2,1.5-6.4c1.2-0.2,2.5,2.2,3,5.2L1294.1,1038.4z M1301.7,1021 c-1.2-0.1-2.5-2.6-2.9-5.8c-0.4-3.4,0.2-6.3,1.5-6.4c1.3-0.2,2.6,2.5,3.1,5.8c0.1,0.8,0.1,1.5,0.1,2.3L1301.7,1021z"/></g></g><g id="Base_Whistling-Birds_Attachment_Basic_Gauntlet_Left_F" style="fill: rgb(4, 198, 255);"><path d="M1286.7,841.4l-21.6,2.8l1.2,9.5l21.6-2.8L1286.7,841.4z"/><path d="M1289.9,850.7l-23.6,3l19.5,152.9l23.6-3L1289.9,850.7z"/><path d="M1293.2,851.9l-3.1,0.4l16.8,132.1l3.1-0.4L1293.2,851.9z"/><path d="M1286,851.2l-3.1,0.4l18.3,143.4l3.1-0.4L1286,851.2z"/></g><g id="Accent_Whistling-Birds_Attachment_Basic_Gauntlet_Left_F" style="fill: rgb(2, 29, 105);"><path d="M1264.8,841.8l-8.6,1.1l19.8,155.3l8.6-1.1L1264.8,841.8z"/><path d="M1309.8,993.8l-33.9,4.3l1.2,9.5l33.9-4.3L1309.8,993.8z"/><path d="M1279.2,842.4l-14.2,1.8l2.8,22.3l14.2-1.8L1279.2,842.4z"/><path d="M1278.7,865.1l-10.8,1.4l6.8,53l8.3-21.2L1278.7,865.1z"/></g></g></g></g></g><g id="RightGauntlets_Current"><g id="Right-Gauntlets_F"><g id="Basic_Gauntlet_Right_F_Option" class="option" style="display: inherit;"><path id="Top-2_Basic_Gauntlet_Right_F" d="M143.1,1106.4l-16.3-21.9l25.1-198.1l8.8,23l-12.2,90.3l9.5,21.4 L143.1,1106.4z" style="fill: rgb(255, 126, 0);"/><path id="Top-1_Basic_Gauntlet_Right_F" d="M151.9,886.5l8.8,23l-12.2,90.3l9.5,21.4l-14.8,85.3l10.7,14.4l-0.5,54.5 l16.9,3L186,1095l15-7l51.5-244.4l-95-2.1L151.9,886.5z" style="fill: rgb(163, 213, 228);"/><g id="Accent-Bottom_Basic_Gauntlet_Right_F" style="fill: rgb(255, 126, 0);"><path d="M294.3,912.4l21.4,5.2l-7.7,31.8l-21.4-5.2L294.3,912.4z"/><path d="M281,968.1l21.4,5.2l-7.7,31.8l-21.4-5.2L281,968.1z"/><path d="M267.2,1025.2l21.4,5.2l-7.7,31.8l-21.4-5.2L267.2,1025.2z"/></g><path id="Bottom_Basic_Gauntlet_Right_F" d="M315.5,917.5l5.8-24.3l-69.6-45.6L201,1088l72.3,7.2l21.4-90l-21.3-5.1 l7.7-31.8l21.2,5.1l5.7-23.9l-21.3-5.1l7.7-31.8L315.5,917.5z M267.2,1025.2l21.5,5.2l-7.6,31.9l-21.6-5.2L267.2,1025.2z" style="fill: rgb(1, 17, 61);"/><g id="Flamethrower_Attachment_Basic_Gauntlet_Right_F_Option" class="option" style="display: inherit;"><g id="Tubes_Flamethrower_Attachment_Basic_Gauntlet_Right_F" style="fill: rgb(101, 6, 109);"><path d="M140.7,852.1l8.8,1.1l-33,267.3l-8.8-1.1L140.7,852.1z"/><path d="M120.6,849.6l8.8,1.1l-23.7,191.6l-8.8-1.1L120.6,849.6z"/><path d="M137,868.6l12.1,1.5l-7.9,63.7l-12.1-1.5L137,868.6z"/><path d="M116.9,866.1l12.1,1.5l-7.9,63.7l-12.1-1.5L116.9,866.1z"/></g><g id="Main_Flamethrower_Attachment_Basic_Gauntlet_Right_F" style="fill: rgb(1, 17, 61);"><path d="M116.9,849.1l36.1,4.5l-2.1,16.8l-36.1-4.5L116.9,849.1z"/><path d="M106.1,929.4l37.7,4.7l-1.3,10.2l-37.7-4.7L106.1,929.4z"/><path d="M106.4,939.8l34.6,4.3l-0.6,5.1l-34.6-4.3L106.4,939.8z"/><path d="M140.8,927.3l5.8,0.9l-3.9,31.1l-5.8-0.9L140.8,927.3z"/></g><g id="Accent_Flamethrower_Attachment_Basic_Gauntlet_Right_F" style="fill: rgb(4, 198, 255);"><path d="M96.6,1041.1l9.4,1.2l-0.2,13.3l-12.3-1.5L96.6,1041.1z"/><path d="M101.4,972.6l16.7,2.1l-2.5,20.3l-16.7-2.1L101.4,972.6z"/><path d="M101.2,993.2l12.1,1.5l-2.5,20.3l-12.1-1.5L101.2,993.2z"/><path d="M110.2,1085.3l12.1,1.5l-3.4,27.8l-12.1-1.5L110.2,1085.3z"/><path d="M121.3,995.7l12.1,1.5l-4.7,37.8l-12.1-1.5L121.3,995.7z"/><path d="M106.2,1099l16.7,2.1l-0.7,5.4l-16.7-2.1L106.2,1099z"/></g><path id="Base_Flamethrower_Attachment_Basic_Gauntlet_Right_F" d="M146.6,928.2l10.6-84.3l-10.5,2.7l-17.9,142.6 l9.5,5.8l4.5-35.7l-5.8-0.9l3.9-31.1L146.6,928.2z" style="fill: rgb(2, 29, 105);"/></g></g></g></g></g></g><g id="Lower-Body_F_Wrapper" transform="translate(268,1285)"><g id="Knees_Current"><g id="LeftKnee_Current"><g id="Left-Knee_F"><g id="Legacy_Knee_Left_F_Option" class="option" style="display: inherit;"><path id="Plate-2_Legacy-Knee_Left_F" d="M975.3,958.7L932.8,929l-95,14.8l-37,42l30.5,102.7h75.2l71-22.7 L975.3,958.7z" style="fill: rgb(4, 198, 255);"/><path id="Plate-1_Legacy-Knee_Left_F" d="M989.7,889.3l-54.5-38.1l-121.8,18.9L765.9,924l39.1,131.7l99.3-0.9 l88.2-28.2L989.7,889.3z" style="fill: rgb(109, 141, 231);"/></g></g></g><g id="RightKnee_Current"><g id="Right-Knee_F"><g id="Legacy_Knee_Right_F_Option" class="option" style="display: inherit;"><path id="Plate-2_Legacy-Knee_Right_F" d="M289.7,958.7l42.5-29.7l95,14.8l37,42l-30.5,102.7h-75.2l-71-22.7 L289.7,958.7z" style="fill: rgb(4, 198, 255);"/><path id="Plate-1_Legacy-Knee_Right_F" d="M275.3,889.3l54.5-38.1l121.8,18.9l47.5,53.9L460,1055.8l-99.3-0.9 l-88.2-28.2L275.3,889.3z" style="fill: rgb(109, 141, 231);"/></g></g></g></g><g id="Shins_Current"><g id="LeftShin_Current"><g id="Left-Shin_F"><g id="Basic_Shin_Left_F_Option" class="option" style="display: inherit;"><path id="Shin_Basic-Shin_Left_F" d="M1024.2,1149.2l-48.3-63l-107.5,4.8l-47.1,89.1l44.8,315.1 c45.4,23.6,114.2,19.6,153.9-10.7L1024.2,1149.2" style="fill: rgb(1, 17, 61);"/><path id="Trauma-Plating_Basic-Shin_Left_F_ToggleOff" d="M1002,1475l4.1-319.8l-38.8-50.5l-87.9,3.9l-39.6,74.8 l42.6,299.6C919.3,1498.3,969.2,1495.5,1002,1475" class="toggle" style="fill: rgb(143, 230, 255);"/><g id="Ridge_Basic-Shin_Left_F_ToggleOff" class="toggle" style="fill: rgb(4, 198, 255);"><path d="M961.2,1084.9l-37.4-7l-38.2,12.4l38,419.9c25.7,3.2,26.1,4.2,47.9-4L961.2,1084.9"/><path d="M923.8,1077.9l25.1,434.6"/></g></g></g></g><g id="RightShin_Current"><g id="Right-Shin_F"><g id="Basic_Shin_Right_F_Option" class="option" style="display: inherit;"><path id="Shin_Basic-Shin_Right_F" d="M241.3,1149.2l48.3-63l107.5,4.8l47.1,89.1l-44.8,315.1 c-45.4,23.6-114.2,19.6-153.8-10.7L241.3,1149.2" style="fill: rgb(1, 17, 61);"/><path id="Trauma-Plating_Basic-Shin_Right_F_ToggleOff" d="M263.4,1475l-4.1-319.8l38.8-50.5l87.9,3.9l39.6,74.8 L382.9,1483C346.2,1498.3,296.2,1495.5,263.4,1475" class="toggle" style="fill: rgb(143, 230, 255);"/><g id="Ridge_Basic-Shin_Right_F_ToggleOff" class="toggle" style="fill: rgb(4, 198, 255);"><path d="M304.3,1084.9l37.4-7l38.2,12.4l-38,419.9c-25.7,3.2-26.1,4.2-47.9-4L304.3,1084.9"/><path d="M341.7,1077.9l-25.1,434.6"/></g></g></g></g></g><g id="Ankles_Current"><g id="LeftAnkle_Current"><g id="Left-Ankle_F"><g id="Legacy_Ankle_Left_F_Option" class="option" style="display: inherit;"><path id="Plate-2_Legacy-Ankle_Left_F" d="M1035.7,1580l38.5,34.8l26.6,33.3l-42.4,13.8l-97.1-20.2l-35.5-47 L1035.7,1580" style="fill: rgb(1, 17, 61);"/><path id="Plate-1_Legacy-Ankle_Left_F" d="M860.9,1514.6c0,0,38.8,17.3,96.2,15.3c39.4-1.4,55.4-11.3,55.4-11.3 l33.3,61.8l-8.6,34.1l-140.5-11l-34.6-29.3L860.9,1514.6" style="fill: rgb(1, 17, 61);"/><path id="Trauma-Plate-2_Legacy-Ankle_Left_F_ToggleOff" d="M1044,1587.5l30,27.1l15.5,19.4l-32.3,10.5l-85.6-17.8 l-14-18.6l79.5,6.2L1044,1587.5" class="toggle" style="fill: rgb(142, 246, 255);"/><path id="Trauma-Plate-1_Legacy-Ankle_Left_F_ToggleOff" d="M875.6,1536.2l0.6,28.3l28,22.7l123.5,9.7l8.7-34.1 l-15.7-29.2c-10.4,3-42.1,12.1-62.8,12.9C924.8,1547.7,894,1541,875.6,1536.2" class="toggle" style="fill: rgb(142, 246, 255);"/></g></g></g><g id="RightAnkle_Current"><g id="Right-Ankle_F"><g id="Legacy_Ankle_Right_F_Option" class="option" style="display: inherit;"><path id="Plate-2_Legacy-Ankle_Right_F" d="M230,1580l-38.5,34.8l-26.6,33.3l42.4,13.8l97.1-20.2l35.5-47L230,1580" style="fill: rgb(1, 17, 61);"/><path id="Plate-1_Legacy-Ankle_Right_F" d="M404.7,1514.6c0,0-38.8,17.3-96.2,15.3c-39.4-1.4-55.4-11.3-55.4-11.3 l-33.3,61.8l8.6,34.1l140.5-11l34.6-29.3L404.7,1514.6" style="fill: rgb(1, 17, 61);"/><path id="Trauma-Plate-2_Legacy-Ankle_Right_F_ToggleOff" d="M221.7,1587.5l-30,27.1l-15.5,19.4l32.3,10.5l85.6-17.8 l14-18.6l-79.5,6.2L221.7,1587.5" class="toggle" style="fill: rgb(143, 230, 255);"/><path id="Trauma-Plate-1_Legacy-Ankle_Right_F_ToggleOff" d="M390,1536.2l-0.6,28.3l-28,22.7l-123.5,9.7l-8.7-34.1 l15.7-29.2c10.4,3,42.1,12.1,62.8,12.9C340.8,1547.7,371.6,1541,390,1536.2" class="toggle" style="fill: rgb(143, 230, 255);"/></g></g></g></g><g id="Toes_Current"><g id="LeftToe_Current"><g id="Left-Toe_F"><g id="None_Toe_Left_F_Option" class="option" style="display: inherit;"></g></g></g><g id="RightToe_Current"><g id="Right-Toe_F"><g id="None_Toe_Right_F_Option" class="option" style="display: inherit;"></g></g></g></g><g id="Thighs_Current"><g id="LeftThigh_Current"><g id="Left-Thigh_F"><g id="Basic_Thigh_Left_F_Option" class="option" style="display: inherit;"><path id="Thigh_Basic-Thigh_Left_F" d="M986.2,457.9c0,0-53.3-68.5-80.5-79.9c-25.8-10.8-60.3-6.1-82.5,11.6 c-33.8,27.1-111.4,85.7-120.2,151c-9.8,72.9,43.2,234.1,61.3,286.1c6.1,17.7,29.3,25.7,47,26.4c32.8,1.2,122.6-1.6,144.1-50 C984.5,737.3,986.2,457.9,986.2,457.9" style="fill: rgb(1, 17, 61);"/><path id="Trauma-Plate_Basic-Thigh_Left_F_ToggleOff" d="M968.2,464.1c-8-9.9-27.1-33.1-45.5-50.9 c-8.8-8.5-17.2-15.8-23.8-18.6c-20.1-8.4-47-4.8-64.3,9.1c-19.6,15.7-54.6,42.3-81.2,74.8c-16.1,19.7-29.4,41.6-32.5,64.5 c-9.5,70.8,42.9,227.2,60.4,277.8c1.5,4.4,5.7,7.2,10.1,9.3c6.5,3.2,14.1,4.7,20.6,5c18.4,0.7,55.9,0.2,87.2-10.2 c17.3-5.7,33.1-14.1,39.7-29.1c8.3-18.7,13.8-55.7,18.1-98.1C966.1,607.1,967.9,492.1,968.2,464.1" class="toggle" style="fill: rgb(7, 50, 170);"/><g id="Ridge_Basic-Thigh_Left_F_ToggleOff" class="toggle" style="fill: rgb(4, 198, 255);"><path d="M896.3,372.3l-36.8-9.5l-38.6,21.3l12.5,469.2c25.4,4.9,25.8,5.9,48.1-0.9L896.3,372.3"/><path d="M859.8,362.9l-1,494.3"/></g></g></g></g><g id="RightThigh_Current"><g id="Right-Thigh_F"><g id="Basic_Thigh_Right_F_Option" class="option" style="display: inherit;"><path id="Thigh_Basic-Thigh_Right_F" d="M278.8,457.9c0,0,53.3-68.5,80.5-79.9c25.8-10.8,60.3-6.1,82.5,11.6 c33.8,27.1,111.4,85.7,120.2,151c9.8,72.9-43.2,234.1-61.3,286.1c-6.1,17.7-29.3,25.7-47,26.4c-32.8,1.2-122.6-1.6-144.1-50 C280.5,737.3,278.8,457.9,278.8,457.9" style="fill: rgb(1, 17, 61);"/><path id="Trauma-Plate_Basic-Thigh_Right_F_ToggleOff" d="M296.8,464.1c8-9.9,27.1-33.1,45.5-50.9 c8.8-8.5,17.1-15.8,23.8-18.6c20.1-8.4,47-4.8,64.3,9.1c19.6,15.7,54.6,42.3,81.2,74.8c16.1,19.7,29.4,41.6,32.5,64.5 c9.5,70.8-42.9,227.2-60.4,277.8c-1.5,4.4-5.7,7.2-10.1,9.3c-6.5,3.2-14.1,4.7-20.6,5c-18.4,0.7-55.9,0.2-87.2-10.2 c-17.3-5.7-33.1-14.1-39.7-29.1c-8.3-18.7-13.8-55.7-18.1-98.1C298.9,607.1,297.1,492.1,296.8,464.1" class="toggle" style="fill: rgb(7, 50, 170);"/><g id="Ridge_Basic-Thigh_Right_F_ToggleOff" class="toggle" style="fill: rgb(4, 198, 255);"><path d="M368.7,372.3l36.8-9.5l38.6,21.3l-12.5,469.2c-25.4,4.9-25.8,5.9-48.1-0.9L368.7,372.3"/><path d="M405.2,362.9l1,494.3"/></g></g></g></g></g><g id="Groin_Current"><g id="Groin_F"><g id="Basic_Groin_F_Option" class="option" style="display: inherit;"><path id="Groin-Plate_Basic_F" d="M566.9,360L456.1,137.4h354.3L699.6,360c0,0-44.2,53-66.4,53 C611.1,413.1,566.9,360,566.9,360z" style="fill: rgb(1, 17, 61);"/></g></g></g><g id="Waist_Current" class="F"><g id="Accessories_Waist_F"><g id="Kama_F_ToggleOff" class="toggle" style=""><g id="Clean_Kama_F_Option" class="option" style="display: inherit;"><g id="Trim_Kama-Clean" style="fill: rgb(209, 70, 217);"><path d="M771.4,151.7l79.6,605.9l321.5,138.7L881.7,201l-9.9-85.4L771.4,151.7z"/><path d="M494.6,151.7l-79.6,605.9L93.4,896.2L384.3,201l9.3-85.4L494.6,151.7z"/></g><g id="Main_Kama-Clean" style="fill: rgb(45, 59, 97);"><path d="M791.3,149.1l77,586l290.9,129.2L881.7,201l-9.5-82.5L791.3,149.1z"/><path d="M474.7,149.1l-77,586L106.8,864.3L384.3,201l9.3-85.4L474.7,149.1z"/></g></g></g><g id="Loin-Cloth_F_ToggleOff" class="toggle" style=""><g id="Clean_Loin-Cloth_F_Option" class="option" style="display: inherit;"><path id="Trim_Loin-Cloth-Clean_F" d="M741.6,135.9H524.3V613L633,747l108.7-134V135.9z" style="fill: rgb(232, 81, 227);"/><path id="Main_Loin-Cloth-Clean_F" d="M727.7,186.1H538.3V602L633,718.8L727.7,602V186.1z" style="fill: rgb(52, 68, 83);"/></g></g></g><g id="Under-Belt_F"><g id="Sash_F_Option" class="option" style="display: inherit; fill: rgb(249, 136, 198);"><path d="M405.9,30.3c20.6-4.6,52.7,8.7,79.6,11c28.9,2.5,57.9,0.3,86.8,2.3c16.9,1.2,33.5,5.6,50.3,8 c32.2,4.5,64.5,2.1,96.6-2.2c8.5-1.1,17.1-1.4,25.5-3.2c21-4.6,48.5-9.7,66.6-18.7c16-4.2,32.2-4.9,47.3-1 c15.3,4,4.6,36.2,5.3,49.3c0.7,13.9,10.2,68.5,15.9,81.2c6.3,14.1,11.3,29.5-7.1,38.8c-15.4,7.8-31.7,0.8-47.4-1.4 c-18.4-2.5-36.7-1.3-54.9,2.4c-22.3,4.6-44.3,13-67,15.3c-30.4,3-61-2.9-91.3-2.5c-17.4,0.3-34.2,6.2-51.7,4.7 c-29.3-2.5-55.9-15-84.3-18c-14.3-1.5-28.5,2-42.8,2c-9.8,0-19-2.8-28.4-5.2c-9.4-2.4-18.2-1.4-23.4-10.8 c-3.9-7,4.4-26.1,8.3-32.1c10.1-15.4,12.8-69.8,9.2-87.3C395.8,48.4,391.5,33.5,405.9,30.3z"/><path d="M385,159.6c32.3-0.1,60.6-0.7,89.7,11c98.6,40,96.4,34.5,138.3,39.1c61.7,6.7,86.3,4.2,111.9-1.9 c10.3-2.5,20.6-5.9,29.9-10.9c16.4-8.8,32.4-17.8,47-30c17.8-14.8,48.8-24.9,73.7-23.6c0,0-4.8-17.2-11.7-67.9 C862,62.2,870,47.9,863.7,30c-2.7-7.7-27.2-5.6-43.8-4.1c-32.9,2.8-47.4,27.8-72.8,47.8c-14.8,11.6-32.3,25.4-54.2,32.8 C658.5,118.2,605,123.6,503.4,88c-33.2-11.6-61.2-33.6-104.9-26.5c0,0,1.6,23.6,1.6,35.5C400.2,134.9,385,159.6,385,159.6z"/></g></g><g id="Belt_F"><g id="Pouch-Belt-4_F_Option" class="option" style="display: inherit;"><path id="Main_Pouch-Belt-4_F" d="M881.3,151.2c-55.9,5-183.5,23.3-247.9,23.3c-65.1,0-192.7-18.4-247.8-23.2 l8.2-65.4c45.3,4,176.6,22.6,239.6,22.6c61.2,0,189.7-18.4,238.1-22.8L881.3,151.2z" style="fill: rgb(46, 24, 3);"/><rect id="Buckle_Pouch-Belt-4_F" x="587.7" y="102.2" width="92.4" height="75.8" style="fill: rgb(37, 37, 37);"/><g id="Pouches_Pouch-Belt-4_F" style="fill: rgb(80, 41, 4);"><g><g><path d="M427.4,73.1c-3.3-0.2-6.6,0.4-9.6,1.7c-5.6,2.4-14.2,6.2-14.2,6.2l60.4,3.5l16.4-7.8 C480.4,76.7,441.5,74.1,427.4,73.1z"/><path d="M482.4,80c0.1-0.9-0.3-1.8-1.1-2.4c-0.8-0.5-1.7-0.6-2.6-0.2c-5.5,2.6-14.7,7-14.7,7l-8.4,102.3 c4.9-3.1,9.7-5.2,14.5-6.6c4-1.1,6.9-4.7,7-8.9C478.2,140.8,479.5,110.4,482.4,80z"/><path d="M464,84.5L403.6,81c-0.5,15.5-1.9,31-2.7,46.6c-0.9,16.7-1.3,33.4-2.7,50.3c-0.1,1.6,0.4,3.2,1.5,4.4 c1.1,1.2,2.6,1.9,4.3,1.8c16.1-0.1,32.2,0.9,48.2,2.8c1.5,0.2,3.1-0.3,4.3-1.2c1.2-1,1.9-2.4,2-3.9c0.9-13,2.9-42.6,2.9-42.6 L464,84.5z"/><path d="M464,84.5L403.6,81c0,0-1,8.8-2.2,19c-0.9,8,1.5,16,6.7,22.2c5.2,6.2,12.7,9.9,20.7,10.4 c1.4,0.1,2.8,0.2,4.2,0.2c8.1,0.5,16-2.4,21.8-8c5.9-5.5,9.2-13.3,9.2-21.3C464,93.3,464,84.5,464,84.5z"/><path d="M431.7,120.5c2.1,0.1,3.8,2.1,3.6,4.5c-0.1,2.3-2,4.2-4.1,4c-2.1-0.1-3.8-2.1-3.6-4.5 C427.7,122.2,429.5,120.4,431.7,120.5z"/></g></g><g><path d="M365.4,79.8l4.5-7l23.2,0.8l2.9,8.7L365.4,79.8z"/><path d="M395.7,83.8c0.1-0.7-0.1-1.4-0.6-2c-0.5-0.5-1.1-0.9-1.9-0.9c-7.5-0.3-27.9-1.1-27.9-1.1l-4.1,92 c0.8,2.1,10.7,3.5,19.5,3.9c2.6,0.1,5.1-0.8,7-2.6c1.9-1.8,3-4.2,3.1-6.8C391.5,138.8,392.6,111.2,395.7,83.8z"/></g><g><g><path d="M839.4,73.1c3.3-0.2,6.6,0.4,9.7,1.7c5.6,2.4,14.2,6.2,14.2,6.2l-60.4,3.5l-16.4-7.8 C786.5,76.7,825.3,74.1,839.4,73.1z"/><path d="M784.4,80c-0.1-0.9,0.3-1.8,1.1-2.4c0.8-0.5,1.7-0.6,2.6-0.2c5.5,2.6,14.7,7,14.7,7l8.4,102.3 c-4.9-3.1-9.7-5.2-14.5-6.6c-4-1.1-6.9-4.7-7-8.9C788.6,140.8,787.4,110.4,784.4,80z"/><path d="M802.9,84.5l60.4-3.5c0.5,15.5,1.9,31,2.7,46.6c0.9,16.7,1.3,33.4,2.7,50.3c0.1,1.6-0.4,3.2-1.5,4.4 s-2.6,1.9-4.3,1.8c-16.1-0.1-32.2,0.9-48.2,2.8c-1.5,0.2-3.1-0.3-4.3-1.2c-1.2-1-1.9-2.4-2-3.9c-0.9-13-2.9-42.6-2.9-42.6 L802.9,84.5z"/><path d="M802.9,84.5l60.4-3.5c0,0,1,8.8,2.2,19c0.9,8-1.5,16-6.7,22.2c-5.2,6.2-12.7,9.9-20.7,10.4 c-1.4,0.1-2.8,0.2-4.2,0.2c-8.1,0.5-16-2.4-21.8-8c-5.9-5.5-9.2-13.3-9.2-21.3C802.8,93.3,802.9,84.5,802.9,84.5z"/><path d="M835.2,120.5c-2.1,0.1-3.8,2.1-3.6,4.5c0.1,2.3,2,4.2,4.1,4c2.1-0.1,3.8-2.1,3.6-4.5 C839.2,122.2,837.3,120.4,835.2,120.5z"/></g></g><g><path d="M901.5,79.8l-4.5-7l-23.2,0.8l-2.9,8.7L901.5,79.8z"/><path d="M871.1,83.8c-0.1-0.7,0.1-1.4,0.6-2c0.5-0.5,1.1-0.9,1.9-0.9c7.5-0.3,27.9-1.1,27.9-1.1l4.1,92 c-0.8,2.1-10.7,3.5-19.5,3.9c-2.6,0.1-5.1-0.8-7-2.6c-1.9-1.8-3-4.2-3.1-6.8C875.3,138.8,874.3,111.2,871.1,83.8z"/></g></g></g></g></g></g><g id="Helmet_F_Wrapper" transform="translate(550,35)"><g id="Helmet_Current" class="Ramikadyc"><g id="Left-Earcap_Ramikadyc_Toggle" class="toggle"><g id="Sensor-Stalk_Left_Ramikadyc_Option" class="option" style="display: inherit;"><g id="Sensor_Left_Sensor-Stalk_Ramikadyc" style="fill: rgb(255, 126, 0);"><path d="M587.5,486.7l50.1-85.7l-61.6,0.5v85.2H587.5z"/><path d="M574.3,150.4l63.3,195.9H576L574.3,150.4z"/></g><g id="Shaft_Left_Sensor-Stalk_Ramikadyc" style="fill: rgb(1, 17, 61);"><path d="M648.7,346.4l-74.5-229.8l0.1,33.9l63.3,195.9H585v12.3h63.7V346.4z"/><path d="M648.7,400.9v-12.3H585v12.3h52.7l-50.2,85.8h11L648.7,400.9z"/><path d="M566.9,319.3l18-12.7v112.1h-18V319.3z"/><rect x="561.3" y="418.8" width="26.2" height="24.5"/><rect x="557.1" y="414.6" width="4.2" height="35.5"/></g></g><path id="Ear-Cap_Left_Ramikadyc" d="M522,353.5l29.2,10.8c0,0,8,36.8,8.7,67.5c0.7,30.7-8.3,66.4-8.3,66.4l-18.3,8.5 l-0.6-128.6L522,353.5z" style="fill: rgb(42, 41, 41);"/></g><g id="Right-Earcap_Ramikadyc_Toggle" class="toggle"><g id="Sensor-Stalk_Right_Ramikadyc_Option" class="option" style="display: inherit;"><g id="Sensor_Right_Sensor-Stalk_Ramikadyc" style="fill: rgb(255, 126, 0);"><path d="M113.1,486.7L63.1,401l61.6,0.5v85.2H113.1z"/><path d="M126.4,150.4L63.1,346.4h61.6L126.4,150.4z"/></g><g id="Shaft_Right_Sensor-Stalk_Ramikadyc" style="fill: rgb(1, 17, 61);"><path d="M52,346.4l74.5-229.8l-0.1,33.9L63.1,346.4h52.6v12.3H52V346.4z"/><path d="M52,400.9v-12.3h63.7v12.3H63l50.2,85.8h-11L52,400.9z"/><path d="M133.7,319.3l-18-12.7v112.1h18V319.3z"/><rect x="113.1" y="418.8" width="26.2" height="24.5"/><rect x="139.4" y="414.6" width="4.2" height="35.5"/></g></g><path id="Ear-Cap_Right_Ramikadyc" d="M178.7,353.5l-29.2,10.8c0,0-8,36.8-8.7,67.5c-0.7,30.7,8.3,66.4,8.3,66.4 l18.3,8.5l0.6-128.6L178.7,353.5z" style="fill: rgb(42, 41, 41);"/></g><g id="Helmet_Pieces_Ramikadyc"><g id="Mouth_Ramikadyc" style="fill: rgb(2, 29, 105);"><path d="M316.2,693.2c0,0,1-29.5-2-43.9c-3-14.4-7-30.8-7-30.8l41.7-17.3h0.6l41.7,17.3c0,0-4,16.4-7,30.8 c-3,14.4-2,43.9-2,43.9H316.2z"/><path d="M349.2,601.2V670"/><path d="M316.2,693.2l0.2-10l32.6-12.9V670l0.3,0.1l0.3-0.1v0.2l32.6,12.9l0.2,10H316.2z"/></g><g id="Face_Ramikadyc" style="fill: rgb(2, 29, 105);"><path d="M391.2,618.5l2.1,0.3c45.8-50.3,76.5-99.4,88.3-146.9l45.5-39.7l6.1-14l0-0.3l0,0v112.5 c0,0-33.5,70.4-69.4,104.7c-23.9,22.8-80.9,58.3-80.9,58.3h-0.8c0,0-1-29.5,2-43.9C387.2,634.9,391.2,618.5,391.2,618.5z"/><path d="M307.2,618.5l-2.1,0.3c-45.8-50.3-76.5-99.4-88.3-146.9l-45.5-39.7l-6.1-14l0-0.3l0,0v112.5 c0,0,33.5,70.4,69.4,104.7c23.9,22.8,80.9,58.3,80.9,58.3h0.8c0,0,1-29.5-2-43.9C311.2,634.9,307.2,618.5,307.2,618.5z"/></g><g id="Cheeks-2_Ramikadyc" style="fill: rgb(52, 68, 83);"><path d="M194,496.9l84.5,102.3c0,0,15,20,11.2,42.7c-3.7,22.7-14.6,24.3-14.6,24.3l-22.7-7.8l-84.3-95.7 c0,0-12.3-12-10.4-36.6c0.9-12.2,22.9-32,22.9-32S187.4,489.9,194,496.9z"/><path d="M158.6,522.3c0,0,3.8-9.8,9.4-9.2c5.7,0.6,43.6,44.8,43.6,44.8s45.9,49.5,48.3,53.6 c7.3,12.5,6.8,26.7,5.3,32.6c-3,11.9-12.9,14.2-12.9,14.2l-84.3-95.7C168.2,562.8,152.9,545.3,158.6,522.3z"/><path d="M160.8,526.1c1-3.8,2.9-8.6,6.7-9.2c4.7-0.7,37.5,38.3,37.5,38.3s37.2,40.4,39.2,43.9 c6.1,10.5,5.7,22.3,4.4,27.2c-2.5,9.9-10.7,11.9-10.7,11.9l-69.6-80.3C168.3,557.7,157.3,540.1,160.8,526.1z"/><path d="M506.7,496.9l-84.5,102.3c0,0-15,20-11.2,42.7c3.7,22.7,14.6,24.3,14.6,24.3l22.7-7.8l84.3-95.7 c0,0,12.3-12,10.4-36.6c-0.9-12.2-22.9-32-22.9-32S513.4,489.9,506.7,496.9z"/><path d="M542.1,522.3c0,0-3.8-9.8-9.5-9.2C527,513.8,489,558,489,558s-45.9,49.5-48.3,53.6 c-7.3,12.5-6.8,26.7-5.3,32.6c3,11.9,12.9,14.2,12.9,14.2l84.3-95.7C532.5,562.8,547.9,545.3,542.1,522.3z"/><path d="M539.9,526.1c-1-3.8-2.9-8.6-6.7-9.2c-4.7-0.7-37.5,38.3-37.5,38.3s-37.2,40.4-39.2,43.9 c-6.1,10.5-5.7,22.3-4.4,27.2c2.5,9.9,10.7,11.9,10.7,11.9l69.6-80.3C532.4,557.7,543.5,540.1,539.9,526.1z"/></g><g id="Cheeks-1_Ramikadyc" style="fill: rgb(255, 126, 0);"><path d="M222.8,599.2c8.5-3,20.5,7.5,26.7,23.3c6.2,15.8,4.3,31-4.2,34c-8.5,3-20.5-7.5-26.7-23.3 C212.3,617.3,214.2,602.1,222.8,599.2z"/><path d="M223.5,603.5c6.9-2.4,16.8,6.7,22.1,20.3c5.3,13.6,4.1,26.5-2.8,28.9c-6.9,2.4-16.8-6.7-22.1-20.3 C215.4,618.8,216.6,605.9,223.5,603.5z"/><path d="M226.9,614.4c3.8-1.3,9.3,3.7,12.3,11.3c3,7.6,2.3,14.8-1.6,16.1c-3.8,1.3-9.3-3.7-12.3-11.3 C222.4,622.9,223.1,615.7,226.9,614.4z"/><path d="M228.2,619.4c2.6-0.9,6.2,2.5,8.2,7.5c2,5.1,1.5,9.9-1,10.8c-2.6,0.9-6.2-2.5-8.2-7.5 S225.7,620.3,228.2,619.4z"/><path d="M243.9,593.1c9.6,10.6,15.2,16.8,16.2,18.5c7.3,12.5,6.8,26.7,5.3,32.6c-1.6,6.5-6.1,12.6-12.9,14.2 l-9.7-1.6c2.2-0.4,4.2-1.3,5.9-2.7c5.4-5.5,5.9-18.4,0.7-31.7c-6.2-15.8-18.1-26.2-26.7-23.3L243.9,593.1z"/><path d="M478,599.2c-8.5-3-20.5,7.5-26.7,23.3c-6.2,15.8-4.3,31,4.2,34c8.5,3,20.5-7.5,26.7-23.3 C488.4,617.3,486.5,602.1,478,599.2z"/><path d="M477.2,603.5c-6.9-2.4-16.8,6.7-22.1,20.3c-5.3,13.6-4.1,26.5,2.8,28.9c6.9,2.4,16.8-6.7,22.1-20.3 C485.3,618.8,484.1,605.9,477.2,603.5z"/><path d="M473.8,614.4c-3.8-1.3-9.3,3.7-12.3,11.3c-3,7.6-2.3,14.8,1.6,16.1c3.8,1.3,9.3-3.7,12.3-11.3 C478.3,622.9,477.6,615.7,473.8,614.4z"/><path d="M472.5,619.4c-2.6-0.9-6.2,2.5-8.2,7.5c-2,5.1-1.5,9.9,1,10.8c2.6,0.9,6.2-2.5,8.2-7.5 S475.1,620.3,472.5,619.4z"/><path d="M456.9,593.1c-9.6,10.6-15.2,16.8-16.2,18.5c-7.3,12.5-6.8,26.7-5.3,32.6c1.6,6.5,6.1,12.6,12.9,14.2 l9.7-1.6c-2.2-0.4-4.2-1.3-5.9-2.7c-5.4-5.5-5.9-18.4-0.7-31.7c6.2-15.8,18.1-26.2,26.7-23.3L456.9,593.1z"/></g><path id="Visor_Ramikadyc" d="M346.7,594v-9.5l-16.4-31.8l-2.6-93.8l-33.6-14.3l-13.3,5.6l-89.3-49.1l-12.9-51.3 c53.5,31,170.6,72.9,170.6,72.9s117.5-42.2,170.6-72.9l-12.9,51.3l-89.3,49.1l-13.3-5.6l-33.6,14.3l-2.6,93.8l-16.4,31.8v9.5 l41.6,24.7l-2.1-0.3l-42-17.3l-42,17.3h-2.1L346.7,594z M349.2,592.6L349.2,592.6z" style="fill: rgb(255, 126, 0);"/><g id="Eyes_Ramikadyc" style="fill: rgb(1, 17, 61);"><path d="M520.5,350l12.3,28.1l0.6,39.7l-6.1,14l-45.5,39.7c-11.8,47.5-42.5,96.6-88.3,146.9l-41.2-25.2l0-0.1 l0.3,0.1v-8.7l16.4-31.8l2.6-93.8l33.6-14.3l13.3,5.6l89.3-49.1L520.5,350z M520.5,349.8l-0.4,0.2L520.5,349.8L520.5,349.8z"/><path d="M177.9,350l-12.3,28.1l-0.6,39.7l6.1,14l45.5,39.7c11.8,47.5,42.5,96.6,88.3,146.9l41.2-25.2l0-0.1l-0.3,0.1 v-8.7l-16.4-31.8l-2.6-93.8l-33.6-14.3l-13.3,5.6l-89.3-49.1L177.9,350z M178,349.8l0.4,0.2L178,349.8L178,349.8z"/></g><g id="Dome-2_Ramikadyc" style="fill: rgb(1, 17, 61);"><path d="M394.9,405.5l-23.1-20.2l-2.8-29.8l31.1-28.2l30-101.9L449,226l5-29.8l-15-11l5.6-13.1 c0,0,59.4,44.9,65,55.4c5.6,10.5,9.4,117.1,8.3,122.3c-0.1,0.4-0.4,0.9-0.9,1.6C485,369.4,432.7,390.9,394.9,405.5z"/><path d="M181.5,351.4c-0.5-0.7-0.8-1.2-0.9-1.6c-1.2-5.2,2.7-111.8,8.3-122.3c5.6-10.5,65-55.4,65-55.4l5.6,13.1 l-15,11l5,29.8l18.9-0.5l30,101.9l31.1,28.2l-2.8,29.8l-23.1,20.2C265.9,390.9,213.6,369.5,181.5,351.4z"/></g><g id="Dome-1_Ramikadyc" style="fill: rgb(52, 68, 83);"><path d="M188.5,228.6c-5.3,15-9,116.2-7.9,121.2c0.1,0.4,0.4,0.9,0.9,1.6c0.6,0.3-14.7,6.5-14.7,6.5 C169.9,302.3,174,249.7,188.5,228.6L188.5,228.6z"/><path d="M510.1,228.6c5.3,15,9,116.2,7.9,121.2c-0.1,0.4-0.4,0.9-0.9,1.6c-0.6,0.3,14.7,6.5,14.7,6.5 C528.7,302.3,524.6,249.7,510.1,228.6L510.1,228.6z"/><path d="M303.5,405.5l23.1-20.2l2.8-29.8l-31.1-28.2l-30-101.9l-18.9,0.5l-5-29.8l15-11l-5.6-13.1 c40.1-19.1,87-22.1,94.8-22.4v0l1,0c0,0,0.1,0,0.1,0v0c7.8,0.4,54.7,3.3,94.8,22.4l-5.6,13.1l15,11l-5,29.8l-18.9-0.5l-30,101.9 L369,355.6l2.8,29.8l23.1,20.2c-12.6,4.9-23.5,9-31.5,12l-13.6,4.4v0.4l-0.6-0.2l-0.6,0.2v-0.4l-13.8-4.5 C326.8,414.5,316,410.4,303.5,405.5z"/></g></g></g></g><g id="Shoulders_Current" transform="translate(193,565)"><g id="LeftShoulder_Current"><g id="Left-Shoulder_F"><g id="Legacy-x3_Shoulder_Left_F_Option" class="option" style="display: inherit;"><path id="Plate-3_Shoulder_Left_Legacy-x3_F" d="M1034,203.1l-77.7,79.6l45.5,98.6l102.3-5.4l54.2,49.7l48.2-3.4 L1034,203.1z" style="fill: rgb(1, 17, 61);"/><path id="Trauma-Plate-3_Shoulder_Legacy-x3_Left_F_ToggleOff" d="M1164.8,407.1l31.2-2.2l-148.8-189.6l-69.4,71.1 l35.2,76.3l94.3-5.9L1164.8,407.1z" class="toggle" style="fill: rgb(136, 163, 236);"/><path id="Plate-2_Shoulder_Left_Legacy-x3_F" d="M992,153.8l-61.5,92.7l63.1,88.4l99.6-24.4l62.5,38.7l46.8-12.3 L992,153.8z" style="fill: rgb(1, 17, 61);"/><path id="Trauma-Plate-2_Shoulder_Legacy-x3_Left_F_ToggleOff" d="M1158.4,329.9l30.2-7.9l-181.3-158.9l-55,82.6 l48.7,68.5l91.6-23.2L1158.4,329.9z" class="toggle" style="fill: rgb(78, 97, 150);"/><path id="Plate-1_Shoulder_Left_Legacy-x3_F" d="M916.3,106.4l-27.7,107.7l88.6,62.8l86-55.7l71.7,16.1l40.1-27 L916.3,106.4z" style="fill: rgb(1, 17, 61);"/><path id="Trauma-Plate-1_Shoulder_Legacy-x3_Left_F_ToggleOff" d="M1131.4,218.1l25.9-17.4l-223.5-90.2l-24.7,96.2 l68.6,48.6l78.8-52.1L1131.4,218.1z" class="toggle" style="fill: rgb(45, 59, 97);"/></g></g></g><g id="RightShoulder_Current"><g id="Right-Shoulder_F"><g id="Pauldron_Shoulder_Right_F_Option" class="option" style="display: inherit;"><path id="Main_Pauldron_Shoulder_Right_F" d="M575.8,161.2L280.1,301.2L137.6,152.7l382.7-46.3L575.8,161.2z" style="fill: rgb(1, 17, 61);"/><g id="Plate_Pauldron_Shoulder_Right_F" style="fill: rgb(45, 59, 97);"><path d="M164.8,155.5l119.3,123.9l260.7-123.5l-42.3-41.8L164.8,155.5z"/><path d="M159.7,150l336.5-40.7l-3.8-4.4l-334.9,39.3L159.7,150z"/></g></g></g></g></g></svg>
