<?xml version="1.0" encoding="UTF-8" standalone="no"?>
<!DOCTYPE svg PUBLIC "-//W3C//DTD SVG 1.1//EN" "http://www.w3.org/Graphics/SVG/1.1/DTD/svg11.dtd">
<svg id="Female-Body" viewBox="0 0 1800 3300" version="1.1" xmlns="http://www.w3.org/2000/svg" style="stroke:black;stroke-width:2px;fill-rule:evenodd;height:100%;">
<style>
	#Stitch_Right,
	#Stitch_Left {
		stroke-dasharray: 4;
	}
</style>
<g id="Back_F" transform="translate(0,601)">
	<g id="Cape_F">
		<path id="Torn-Full-Cape_Back_F_Option" d="M724.6,181.1c-124.5,47-263.2,273.6-280.3,445.9
			c-10.8,108.7-63.8,219.2-58.9,327.4c5,109.8-50.3,223.6-54.4,333.3c-3.7,98.8-32.8,144-49.7,241.7c-25.3,146.2-53.3,242.6-76,388.9
			c-18.1,116.3-72.6,212.5-98.3,248.8c-1,1.3,26.1-12.5,59.6-13.1c9.8-0.2,58.5-71.8,58.5-71.8s60.7,50.6,73.2,79.1
			c16.4-10.4,28.9-161.8,47.6-167.7c9.8-3.1,27.8,190.1,27.8,190.1s29.2-57.2,40.4-57.4c24-0.4,67.9,21.5,92.5,24.1
			c26.1,2.8,53-40.5,81.6-33.4c44,10.8,87.6,9.9,131.4,15.6c30.9,4,61.9,64.3,93,64.2c38.3-0.1,32.9-89.9,72.1-98.6
			c33.6-7.4,79.3,72.7,79.3,72.7s10.6-265.9,43.7-276.8c43.4-14.2,206.6,200.1,252,195.9c13.4-1.2,30.7-135.6,43.9-135.4
			c28.8,0.6,53.3,138.4,81.7,143.8c35.6,6.8,52.8-59.9,87.9-51.2c9.9,2.5,37.8,80.9,47.7,83.2c21.7,5,51.7,17.9,74.2,16.5
			c0.6,0-7.2-52.1-8.3-57.7c-5-24.9-13-49.3-23-73c-11.9-28.2-26.7-55.2-42.8-80.7c-75.2-119-49.3-249.6-63-390.3
			c-13.3-136.4,0.6-273.1-22.3-409.2c-20.3-120.4-91.5-232.5-109.4-354c-20.9-142.6-69.6-295.3-112.6-433.8
			C1160.7,178.2,849.2,134.1,724.6,181.1z M759.9,1990.6c-10,25.8-13.9,52.8-11.1,80.4c1.3,12.5,4.9,25.4,11.1,36.4
			c0.6,1.1,0.9,4.1,1.9,3.2C808.6,2068.9,759.9,1990.6,759.9,1990.6z M393.9,1732.6c-4.3,82.5-12,165.4-12,248
			c0,15.5,0.2,30.9,1.6,46.3c0.2,2.4,2.6,25,3.8,24.8c28-5.6,14.4-82.1,21-105.9C431.3,1863.5,393.9,1732.6,393.9,1732.6z
			 M1371.9,2018.6c-2.5,29.9,6.5,26.6,14.2,11.6c7.7-15,13.9-41.6,5.9-58.4L1371.9,2018.6z M1249.9,1758.6
			c-6.9,49.5,3.8,91.6,7.4,140.3c1.2,15.9,1.2,31.8,1.5,47.7c0.1,5.3,0.3,10.7,0.2,16c-0.1,2.7-2,10.1-0.1,8.2
			c37.3-38.9,33.1-114,21.5-162.1L1249.9,1758.6z M803.9,1904.6c-0.4,12.7-0.2,25.9,1.5,38.5c3.4,25.5,17.7-14.6,17.9-24.7
			c0.3-14-9.1-30.4-12.5-43.9L803.9,1904.6z"/>
		<path id="Full-Cape_Back_F_Option" d="M724.6,181.1c-124.5,47-263.2,273.6-280.3,445.9
			c-10.8,108.7-63.8,219.2-58.9,327.4c5,109.8-50.3,223.6-54.4,333.3c-3.7,98.8-32.8,144-49.7,241.7c-25.3,146.2-53.3,242.6-76,388.9
			c-18.1,116.3-72.6,212.5-98.3,248.8c-2.3,3.3,158.8-0.6,191.3-5.8c105.1-17,185.6-21.9,289.9,3.7c113.3,27.8,224.6,44.8,340.4,19.2
			c111.6-24.7,216.5-83.7,331-94.2c88.9-8.2,175.7,20.5,261.2,40.4c21.7,5.1,51.7,18,74.2,16.5c0.6,0-7.2-52.1-8.3-57.7
			c-11-54.7-36.3-106.9-65.8-153.7c-75.2-119-49.3-249.6-63-390.3c-13.3-136.4,0.6-273.1-22.3-409.2
			c-20.3-120.4-91.5-232.5-109.4-354c-20.9-142.6-69.6-295.3-112.6-433.8C1160.7,178.2,849.2,134.1,724.6,181.1z"/>
		<path id="Torn-Short-Cape-Left_Back_F_Option" d="M1098.1,631.6c-12.1-59.7-18.2-267.9-96.2-294.1
			c-68.8-23.1,86.7-150.1,86.7-150.1c3.7-11.1,42.1-10.8,51.4-10.7c21.7,0.4,85.7,19.5,103,33c47.8,37.3,65.5,117.4,82.3,145.6
			c46.5,78.2,89.7,171.5,103.8,250c13.6,76.1,48.8,144.2,75.4,213.3c30.1,78.1,45.4,133.2,72.2,213.1c27.5,82.4,60,155.5,106.1,214.5
			c18.1,23.2,46.9,42,59.7,73.1c1.3,3.2,14.5,70.5,14.3,70.6c-7.8,4.7-36.9-38.6-45.5-37.9c-15.2,1.1-117.3-27.7-123,24.7
			c-2.1,19-11,62.3-11,62.3s-66.7,1.2-84.7-13.7l6.6,83.6c0,0-28.9-35.6-61.6-50.3c-12.3-5.6-36.6,7.7-36.6,7.7l-40.6-42
			c0,0,12.6,97.6,19,128c0,0-97.5-50-104.5-34.7c-6.7,14.6,10,48.9-7,62.6c-10.8,8.7-43.2,38.2-42.9,35.8
			c3.4-26.2,7.4-93.3-4.8-166.3c-15.4-92-20.9-154.7-35.3-247c-9.7-61.7-6.5-93.8-21-153.9c-16.2-66.7-14.7-144.6-34.1-209.8
			C1110.5,774.3,1111.7,698.9,1098.1,631.6z M1318.1,1307.7c4,15.4,13.6,30.1,21,44.2c4.4,8.5,50.4,59.3,59.1,63.7
			c14.2,7.1-45.9-70.6-49.6-82c-11.4-35.8,2.8-47.7-32.1-61.3L1318.1,1307.7z M1534.7,1343.7c-0.6,3.1-1.2,6.3-1.6,9.5
			c-2.9,24.7,17.5-1.3,10.2-7.6L1534.7,1343.7z M1598.1,1260c3.2,2.8,62.5,51.8,65.5,50.9c2.9-0.9-8.7-22-10-23.8
			c-7.2-10.5-17.8-18.3-28.1-25.5L1598.1,1260z"/>
		<path id="Short-Cape-Left_Back_F_Option" d="M1104.5,294.5c-14.2-39.4-26.3-78.8-26.3-78.8
			c4.9-10.9,43.1-10.5,53.8-9.9c24.9,1.6,60,12.8,75.2,31.3c8.7,10.5,26.4,11.1,32.3,23.9c0.5,1,5.8,11.7,5.3,12.2
			c-0.1,0.1,3,21.7,6.6,46.9c25.3,20.1,48,46.7,63.3,77.7c38.5,78.1,77,166.2,106.7,250.1c25.4,71.5,68.3,141.3,94.6,211.8
			c29.7,79.7,43.8,135.5,69.5,216.7c26.5,83.8,59.1,158.6,108.4,220c19.4,24.2,51.3,44.5,64,76.3c1.3,3.3,12.2,33.9,12,34
			c-9.3,4.2-23.9,0.8-33.8,0.9c-39.1,0.5-120.9-45.2-157.4-27c-46.9,23.4-41.8,116.1-85.5,147.8c-45.3,32.8-122.1-48.2-174.2-48.3
			c-47.9-0.1-36.3,126.7-78.3,152.7c-13,8.1-98.3,9.7-97.8,7.3c5.5-26,14.5-92.7,5.1-166.4c-11.8-92.7-14.1-155.6-24.8-248.6
			c-7.2-62.1-1.4-94-14.4-154.8c-14.4-67.5-7.6-145.2-25.8-211.4c-18-65.3-11.7-140.6-23.1-208.5c-18-107.7-2.5-307.5,43.3-354.6
			C1103.7,295.3,1104.1,294.9,1104.5,294.5z"/>
		<path id="Torn-Short-Cape-Right_Back_F_Option" d="M699.8,631.6c12.1-59.7,18.2-267.9,96.2-294.1
			c68.8-23.1-86.6-150.1-86.6-150.1c-3.7-11.1-42.1-10.8-51.4-10.7c-21.7,0.4-85.7,19.5-103,33c-47.8,37.3-65.5,117.4-82.3,145.6
			c-46.5,78.2-89.7,171.5-103.8,250c-13.6,76.1-48.8,144.2-75.5,213.3c-30.1,78.1-45.4,133.2-72.2,213.1
			c-27.5,82.4-60,155.5-106.1,214.5c-18.1,23.2-46.9,42-59.6,73.1c-1.3,3.2-14.5,70.5-14.3,70.6c7.8,4.7,36.9-38.6,45.5-37.9
			c15.2,1.1,117.3-27.7,123,24.7c2.1,19,11,62.3,11,62.3s66.7,1.2,84.7-13.7l-6.6,83.6c0,0,28.9-35.6,61.6-50.3
			c12.3-5.6,36.6,7.7,36.6,7.7l40.6-42c0,0-12.6,97.6-19,128c0,0,97.5-50,104.5-34.7c6.7,14.6-10,48.9,7,62.6
			c10.8,8.7,43.2,38.2,42.9,35.8c-3.3-26.2-7.4-93.3,4.8-166.3c15.4-92,20.9-154.7,35.3-247c9.7-61.7,6.5-93.8,21-153.9
			c16.2-66.7,14.7-144.6,34.1-209.8C687.4,774.3,686.2,698.9,699.8,631.6z M479.8,1307.7c-4,15.4-13.6,30.1-21,44.2
			c-4.5,8.5-50.4,59.3-59.1,63.7c-14.2,7.1,45.9-70.6,49.6-82c11.4-35.8-2.8-47.7,32.1-61.3L479.8,1307.7z M263.2,1343.7
			c0.6,3.1,1.2,6.3,1.5,9.5c2.9,24.7-17.5-1.3-10.2-7.6L263.2,1343.7z M199.8,1260c-3.2,2.8-62.5,51.8-65.5,50.9
			c-2.9-0.9,8.7-22,10-23.8c7.2-10.5,17.8-18.3,28.1-25.5L199.8,1260z"/>
		<path id="Short-Cape-Right_Back_F_Option" d="M695.5,294.5c14.2-39.4,26.3-78.8,26.3-78.8
			c-4.9-10.9-43.1-10.5-53.8-9.9c-24.9,1.6-60,12.8-75.2,31.3c-8.7,10.5-26.4,11.1-32.3,23.9c-0.5,1-5.8,11.7-5.3,12.2
			c0.1,0.1-3,21.7-6.6,46.9c-25.3,20.1-48,46.7-63.3,77.7c-38.5,78.1-77,166.2-106.7,250.1c-25.4,71.5-68.3,141.3-94.6,211.8
			c-29.7,79.7-43.8,135.5-69.5,216.7c-26.5,83.8-59.1,158.6-108.4,220c-19.4,24.2-51.3,44.5-64,76.3c-1.3,3.3-12.2,33.9-12,34
			c9.3,4.2,23.9,0.8,33.8,0.9c39.1,0.5,120.9-45.2,157.4-27c46.9,23.4,41.8,116.1,85.5,147.8c45.3,32.8,122.1-48.2,174.2-48.3
			c47.9-0.1,36.3,126.7,78.3,152.7c13,8.1,98.4,9.7,97.8,7.3c-5.5-26-14.5-92.7-5.1-166.4c11.8-92.7,14.1-155.6,24.8-248.6
			c7.2-62.1,1.4-94,14.4-154.8c14.4-67.5,7.6-145.2,25.8-211.4c18-65.3,11.7-140.6,23.1-208.5c18-107.7,2.5-307.5-43.3-354.6
			C696.3,295.3,695.9,294.9,695.5,294.5z"/>
		<g id="None_Back_F_Option">
		</g>
	</g>
</g>
<g id="Flight-Suit" transform="translate(0,528)">
	<title>Flight Suit (Kute)</title>
	<g id="Soft-Parts_F">
		<g id="Suit_F">
			<g id="Neck-Seal_F">
				<path id="Plain-Neck-Seal_F_Option" d="M1003.2,68.3l50,98.1l-27.8,47.1l-125,29l-125.8-29l-27-47.1l49.2-98.1
					L900,75.4L1003.2,68.3"/>
				<g id="Standard-Neck-Seal_F_Option">
					<path d="M1011.8,83.6c0-9.6-7.5-17.3-16.8-17.3c0,0-63.5,9.1-95.2,9.1c-31.7,0-95.2-9.1-95.2-9.1
						c-9.3,0-16.8,7.8-16.8,17.3s7.5,17.3,16.8,17.3c0,0,63.5,9.1,95.2,9.1c31.7,0,95.2-9.1,95.2-9.1
						C1004.3,100.9,1011.8,93.1,1011.8,83.6z"/>
					<path d="M1017.5,103.8c0-10-7.9-18.2-17.7-18.2c0,0-66.7,9.6-100,9.6c-33.3,0-100-9.6-100-9.6
						c-9.8,0-17.7,8.1-17.7,18.2s7.9,18.2,17.7,18.2c0,0,66.7,9.6,100,9.6c33.3,0,100-9.6,100-9.6
						C1009.6,122,1017.5,113.8,1017.5,103.8z"/>
					<path d="M1023.9,128.9c0-10.6-8.4-19.2-18.6-19.2c0,0-70.3,10.1-105.5,10.1c-35.2,0-105.5-10.1-105.5-10.1
						c-10.3,0-18.6,8.6-18.6,19.2c0,10.6,8.4,19.2,18.6,19.2c0,0,70.3,10.1,105.5,10.1c35.2,0,105.5-10.1,105.5-10.1
						C1015.6,148.1,1023.9,139.5,1023.9,128.9z"/>
					<path d="M1030.2,152c0-11.1-8.8-20.1-19.6-20.1c0,0-73.8,10.6-110.7,10.6s-110.7-10.6-110.7-10.6
						c-10.8,0-19.6,9-19.6,20.1s8.8,20.1,19.6,20.1c0,0,73.8,10.6,110.7,10.6s110.7-10.6,110.7-10.6
						C1021.4,172.1,1030.2,163.1,1030.2,152z"/>
					<path d="M1036.3,174.6c0-8.4-9.2-15.2-20.5-15.2c0,0-77.3,8-116,8c-38.7,0-116-8-116-8c-11.3,0-20.5,6.8-20.5,15.2
						c0,8.4,9.2,15.2,20.5,15.2c0,0,77.3,8,116,8c38.7,0,116-8,116-8C1027.1,189.8,1036.3,183,1036.3,174.6z"/>
					<path d="M1036.3,199.9c0-8.4-9.2-15.2-20.5-15.2c0,0-77.3,8-116,8c-38.7,0-116-8-116-8c-11.3,0-20.5,6.8-20.5,15.2
						c0,8.4,9.2,15.2,20.5,15.2c0,0,77.3,15.4,116,15.4c38.7,0,116-15.4,116-15.4C1027.1,215.1,1036.3,208.3,1036.3,199.9z"/>
				</g>
			</g>
			<g id="Flight-Suit_F">
				<path d="M421.3,665.8l53.1-193l124-83.5l19.4,169.3c0,0-53.6,102.2-72.1,149c-19,48.2-52,158.4-56.2,172.5
					l-29.4,255.8l-85.3-27.3c0,0-3.1-177.5,4.7-251.3C386.4,791.5,421.3,665.8,421.3,665.8z"/>
				<path d="M1378.7,665.8l-53.3-193.6l-123.1-82.9l-19.6,170.4c0,0,53.1,101.1,71.6,147.9c19,48.2,52,158.4,56.2,172.5
					l29.4,255.8l85.3-27.3c0,0,3.1-177.5-4.7-251.3C1413.6,791.5,1378.7,665.8,1378.7,665.8z"/>
				<path d="M899.8,1212.7c-10.5,1-19.9,5.2-23.4,12.5c-30.6,64.7-93.6,360.6-111.8,415.2c-9.9,29.7-17.7,192-34.5,286.7
					c-20,113-85.7,391.3-85.7,391.3l-113.8-11.8c0,0-14.7-279.4-10.6-381.2c3.1-77.3,34.9-229.1,34.9-229.1s6.8-55.4,7-83.3
					c0.6-100.8,9.5-325,29.4-453.8C607,1057.4,703,843.7,703,843.7s124.3,48.9,197.4,48.9s198.4-49.9,198.4-49.9
					s90.6,214.8,106.3,316.6c19.9,128.7,33.1,353,33.7,453.8c0.2,27.9,7,83.3,7,83.3s31.8,151.8,34.9,229.1
					c4,101.7-10.6,381.2-10.6,381.2l-113.8,11.8c0,0-65.6-278.3-85.7-391.3c-16.8-94.7-24.6-257-34.5-286.7
					c-18.2-54.5-81.2-350.5-111.8-415.2c-3.5-7.5-13.2-11.7-23.9-12.6L899.8,1212.7z"/>
			</g>
		</g>
		<g id="Boots_F">
			<g id="Tall_Boots_F_Option">
				<g id="Bottom_Tall-Boot_F">
					<path d="M669.2,2402c-0.2,1.4-0.5,2.8-0.9,4.3c-9,18.8-33.3,25.2-50,29.7c-11.8,3.2-23.2,7.6-34.4,13.1
						c-15.4,7.4-23.2,20.6-35.2,33.1c-5.4,5.6-11.7,9.9-17.9,14.1c-15.4,10.6-30.2,11.4-47.6,11.9c-23.4,0.8-44.1-2.9-67.1-8.8
						c-20.2-5.2-35.2-9.5-52.6-15.1c-5.2-1.7-11.6-2.9-14.7-7.3l-2.6,6.7l-1.9,17.5c0,0,18.9,11.6,39,16.7
						c20.1,5.1,60.6,12.3,60.6,12.3l2.8-7.6l9.1,2.2l-0.4,7.5l22.1,1.4l4.7-7.3l7.4,0.2l-1.1,6.5c0,0,13.7-0.3,21.2-5.4
						c1.4-2.5,4.2-6.5,4.2-6.5l5.2-3.3l-0.7,6.1l19-7.8l0.9-8.4l5.5-3.7l0.2,6.1l13.5-12l1.5-7.4l29.1-17.5l9.9,4.6l23.7-5.9l0.8-5.8
						l6-2.8l4.2,4.5l15.9-7.5l0.3-5.4l5.2-2.1l0.6,3.9l15.1-11.9L669.2,2402z M669.8,2395.1L669.8,2395.1L669.8,2395.1L669.8,2395.1z"
						/>
					<path d="M1131.5,2402c0.2,1.4,0.5,2.8,0.9,4.3c9,18.8,33.3,25.2,50,29.7c11.8,3.2,23.2,7.6,34.4,13.1
						c15.4,7.4,23.2,20.6,35.2,33.1c5.4,5.6,11.7,9.9,17.9,14.1c15.3,10.6,30.1,11.4,47.6,11.9c23.4,0.8,44.1-2.9,67.2-8.8
						c20.1-5.2,35.2-9.5,52.6-15.1c5.2-1.7,11.6-2.9,14.7-7.3l2.6,6.7l1.9,17.5c0,0-18.9,11.6-39,16.7c-20.1,5.1-60.6,12.3-60.6,12.3
						l-2.8-7.6l-9.1,2.2l0.4,7.5l-22.1,1.4l-4.7-7.3l-7.4,0.2l1.1,6.5c0,0-13.7-0.3-21.2-5.4c-1.4-2.5-4.2-6.5-4.2-6.5l-5.2-3.3
						l0.7,6.1l-19-7.8l-0.9-8.4l-5.5-3.7l-0.2,6.1l-13.5-12l-1.5-7.4l-29.1-17.5l-9.9,4.6l-23.7-5.9l-0.8-5.8l-6-2.8l-4.2,4.5
						l-15.9-7.5l-0.3-5.4l-5.2-2.1l-0.6,3.9l-15.1-11.9L1131.5,2402z M1130.9,2395.1L1130.9,2395.1L1130.9,2395.1L1130.9,2395.1z"/>
				</g>
				<g id="Main_Tall-Boot_F">
					<path d="M669,2259.6c13.5-45.1,23.6-117.1,31.6-150c6-24.6,33.7-158.6,29.2-175.4c-4.6-17.1-205.2-50.7-210.9-35.3
						c-8.7,23.5,3.6,254.7,2.1,288.8c-1.1,25,1.9,77.5,1.9,77.5c-2.3,13.7-4.3,28.3-9.2,40.6c-9.3,23.1-15.2,30.5-30.9,48
						c-10.8,12-31.3,32.2-44.1,41.3c-5.4,3.9-24.4,17.9-24.4,17.9c-23.6,10.1-49.8,6.6-62.7,36.5c-2.8,6.5-5.2,14.3-4.7,21.7
						c0.6,9.5,9.6,10.8,16.6,13.1c17.4,5.7,32.5,10,52.6,15.1c23,5.9,43.8,9.5,67.1,8.8c17.5-0.6,32.3-1.4,47.6-11.9
						c6.2-4.3,12.5-8.6,17.9-14.1c12-12.5,19.7-25.6,35.2-33.1c11.2-5.4,22.6-9.9,34.4-13.1c16.7-4.5,41-10.9,50-29.7
						c3.5-14.1-0.1-21.1-1.2-33.3l-0.5-5.2c-0.9-7.9-2.1-16.1-2.5-24.6c-0.7-16.4,2.9-32.6,3.8-49c0.5-9.3,0.9-18.6,1.1-27.9
						C668.9,2265.3,669.2,2261.8,669,2259.6z"/>
					<path d="M1131.7,2259.6c-13.5-45.1-23.6-117.1-31.6-150c-6-24.6-33.7-158.6-29.2-175.4
						c4.7-17.1,205.2-50.7,210.9-35.3c8.8,23.5-3.6,254.7-2.1,288.8c1.1,25-1.9,77.5-1.9,77.5c2.3,13.7,4.3,28.3,9.2,40.6
						c9.3,23.1,15.2,30.5,30.9,48c10.8,12,31.3,32.2,44.1,41.3c5.4,3.9,24.3,17.9,24.3,17.9c23.7,10.1,49.9,6.6,62.7,36.5
						c2.8,6.5,5.2,14.3,4.7,21.7c-0.6,9.5-9.6,10.8-16.6,13.1c-17.4,5.7-32.5,10-52.6,15.1c-23,5.9-43.8,9.5-67.2,8.8
						c-17.5-0.6-32.3-1.4-47.6-11.9c-6.2-4.3-12.5-8.6-17.9-14.1c-12-12.5-19.7-25.6-35.2-33.1c-11.2-5.4-22.6-9.9-34.4-13.1
						c-16.7-4.5-41-10.9-50-29.7c-3.5-14.1,0.1-21.1,1.2-33.3l0.5-5.2c0.9-7.9,2.1-16.1,2.5-24.6c0.7-16.4-2.9-32.6-3.8-49
						c-0.5-9.3-0.9-18.6-1.1-27.9C1131.8,2265.3,1131.5,2261.8,1131.7,2259.6z"/>
				</g>
			</g>
			<g id="Gunslinger_Boots_F_Option">
				<g id="Main_Gunslinger-Boot_F">
					<path d="M668,2383.6c-0.4,1.9-6.7,31.8-39.6,40.1c-11,2.8-29.7-3.1-41.5-9.1c-16.2-8.3-33.1-14.7-50.4-19.8l-0.5,0.7
						c-0.3,0.4-0.5,0.8-0.8,1.1c-5.4,7.6-11.3,14.7-17.5,21.1l-0.5,0.5l-0.3,0.3c-0.6,0.6-1.3,1.3-1.9,1.9c-3.7,3.6-7.5,6.9-11.4,10
						l-1.1,0.9l-0.9,0.7c-0.3,0.2-0.5,0.4-0.8,0.6c-0.6,0.4-1.2,0.9-1.8,1.3c-8.2,5.8-19.1,14.5-30,13c-10.3-1.5-21.8-5.6-30.4-9.7
						c-7.2-3.4-14.7-8.2-19.8-13c-1.5-1.1-2.7-2.5-3.6-4.1c-23.8,9.3-49.7,12.8-62.4,39.4c-2.7,5.7-5.1,12.6-4.5,19.1
						c0.7,8.3,9.8,9.3,16.9,11.2c17.6,4.7,32.7,8.3,53.1,12.5c23.2,4.8,44.1,7.7,67.6,6.8c17.5-0.7,32.4-1.7,47.7-11.1
						c6.2-3.8,12.5-7.6,17.8-12.6c11.9-11.1,19.5-22.7,34.9-29.4c11.1-4.9,22.6-8.9,34.4-11.9c16.7-4.2,34.7-7.1,43.5-23.7
						C670.6,2407.5,669.8,2395.7,668,2383.6L668,2383.6"/>
					<path d="M1132.7,2383.6c0.4,1.9,6.7,31.8,39.6,40.1c11,2.8,29.7-3.1,41.5-9.1c16.2-8.3,33.1-14.7,50.4-19.8l0.5,0.7
						c0.3,0.4,0.5,0.8,0.8,1.1c5.4,7.6,11.3,14.7,17.5,21.1l0.5,0.5l0.3,0.3c0.6,0.6,1.3,1.3,1.9,1.9c3.7,3.6,7.5,6.9,11.4,10l1.1,0.9
						l0.9,0.7c0.3,0.2,0.5,0.4,0.8,0.6c0.6,0.4,1.2,0.9,1.8,1.3c8.2,5.8,19.1,14.5,30,13c10.3-1.5,21.8-5.6,30.4-9.7
						c7.2-3.4,14.7-8.2,19.8-13c1.5-1.1,2.7-2.5,3.6-4.1c23.8,9.3,49.7,12.8,62.4,39.4c2.7,5.7,5.1,12.6,4.5,19.1
						c-0.7,8.3-9.8,9.3-16.9,11.2c-17.6,4.7-32.7,8.3-53.1,12.5c-23.2,4.8-44.1,7.7-67.6,6.8c-17.5-0.7-32.4-1.7-47.7-11.1
						c-6.2-3.8-12.5-7.6-17.8-12.6c-11.9-11.1-19.5-22.7-34.9-29.4c-11.1-4.9-22.6-8.9-34.4-11.9c-16.7-4.2-34.7-7.1-43.5-23.7
						C1130.1,2407.5,1130.9,2395.7,1132.7,2383.6L1132.7,2383.6"/>
				</g>
				<g id="Bottom_Gunslinger-Boot_F">
					<path d="M668.6,2406.3c-0.8,4.6-2.2,9.1-4.7,13.9c-8.8,16.6-26.8,19.5-43.5,23.7c-11.8,3-23.2,7-34.4,11.9
						c-15.4,6.7-23,18.3-34.9,29.4c-5.3,5-11.6,8.8-17.8,12.6c-15.3,9.4-30.2,10.4-47.7,11.1c-23.5,1-44.4-1.9-67.6-6.8
						c-20.3-4.2-35.5-7.8-53.1-12.5c-5.6-1.5-12.6-2.5-15.5-7.1h0l-3.3,7.4l-1.9,15.3c0,0,18.8,10.2,38.9,14.6
						c20.1,4.5,60.5,10.8,60.5,10.8l2.8-6.7l9.1,1.9l-0.4,6.6l22,1.2l4.7-6.4l7.4,0.1l-1.1,5.7c0,0,13.6-0.2,21.2-4.7
						c1.4-2.1,4.2-5.7,4.2-5.7l5.2-2.9l-0.7,5.4l18.9-6.8l0.9-7.4l5.5-3.2l0.2,5.3l13.5-10.5l1.5-6.4l33.7-23.8l5.3,12.4l23.7-5.2
						l0.8-5.1l6-2.5l4.2,3.9l15.9-6.6l0.3-4.8l5.2-1.8l0.6,3.4l15.1-10.4l2.9-20.8l0.7-22.6L668.6,2406.3L668.6,2406.3"/>
					<path d="M1132.1,2406.3c0.8,4.6,2.2,9.1,4.7,13.9c8.8,16.6,26.8,19.5,43.5,23.7c11.8,3,23.2,7,34.4,11.9
						c15.4,6.7,23,18.3,34.9,29.4c5.3,5,11.6,8.8,17.8,12.6c15.3,9.4,30.2,10.4,47.7,11.1c23.5,1,44.3-1.9,67.6-6.8
						c20.3-4.2,35.5-7.8,53.1-12.5c5.7-1.5,12.6-2.5,15.5-7.1l0,0l3.3,7.4l1.9,15.3c0,0-18.8,10.2-38.9,14.6
						c-20.1,4.5-60.5,10.8-60.5,10.8l-2.8-6.7l-9.1,1.9l0.4,6.6l-22,1.2l-4.7-6.4l-7.4,0.1l1.1,5.7c0,0-13.7-0.2-21.2-4.7
						c-1.4-2.1-4.2-5.7-4.2-5.7l-5.2-2.9l0.7,5.4l-19-6.8l-0.9-7.4l-5.5-3.2l-0.2,5.3l-13.5-10.5l-1.5-6.4l-33.8-23.8l-5.3,12.4
						l-23.7-5.2l-0.8-5.1l-6-2.5l-4.2,3.9l-15.9-6.6l-0.3-4.8l-5.2-1.8l-0.6,3.4l-15.1-10.4l-2.9-20.8l-0.7-22.6L1132.1,2406.3
						L1132.1,2406.3"/>
				</g>
				<g id="Top_Gunslinger-Boot_F">
					<path d="M536.7,2394.4c20.2-29,33.8-64.6,38.6-95.9l0,0l-5.6-0.5l-0.2,0l-0.7-0.1l-1.9-0.2l-2.8-0.3l-1.2-0.2
						c-3.3-0.4-6.5-0.9-9.7-1.3l-5-0.9l-1.1-0.2l-0.4-0.1l-0.8-0.2l-3.5-0.8l-3.1-0.8l-0.5-0.1c-10.7-2.7-9.3-5-9.3-5
						c-2.9,13.8-9.4,28.6-15.2,41.5c-9.1,20.3-27.8,37.9-43.4,53.4c-10.7,10.6-26.2,20.8-39,28.9c-5.4,3.5-11.2,6.1-17.1,8.4
						c4.5,6.3,14.2,12.8,23.4,17.2c8.6,4.1,20.1,8.2,30.4,9.7c10.9,1.6,21.8-7.2,30-13c14.2-10,26.8-23.6,37.6-39.1L536.7,2394.4"/>
					<path d="M1264.1,2394.4c-20.2-29-33.8-64.6-38.6-95.9l0,0l5.6-0.5l0.2,0l0.7-0.1l1.9-0.2l2.8-0.3l1.2-0.2
						c3.3-0.4,6.5-0.9,9.7-1.3l5-0.9l1.1-0.2l0.4-0.1l0.8-0.2l3.5-0.8l3-0.8l0.5-0.1c10.7-2.7,9.3-5,9.3-5
						c2.9,13.8,9.4,28.6,15.2,41.5c9.1,20.3,27.8,37.9,43.4,53.4c10.7,10.6,26.2,20.8,39,28.9c5.4,3.5,11.2,6.1,17.1,8.4
						c-4.5,6.3-14.2,12.8-23.4,17.2c-8.6,4.1-20.1,8.2-30.4,9.7c-10.9,1.6-21.8-7.2-30-13c-14.2-10-26.8-23.6-37.6-39.1L1264.1,2394.4
						"/>
				</g>
				<g id="Side_Gunslinger-Boot_F">
					<path d="M536.4,2394.8c17.3,5.1,34.3,11.5,50.4,19.8c11.8,6,30.6,11.8,41.5,9.1c33.9-8.5,39.6-40.1,39.6-40.1
						c-1-6.9-8.6-33.3-10.8-40.5c-4.9-15.8-4.4-56-5.6-55.3c-27.2,14.5-62.4,11.9-76.3,10.8l0,0C570.4,2330,556.7,2365.7,536.4,2394.8
						"/>
					<path d="M1264.3,2394.8c-17.3,5.1-34.3,11.5-50.4,19.8c-11.8,6-30.6,11.8-41.5,9.1c-33.9-8.5-39.6-40.1-39.6-40.1
						c1-6.9,8.6-33.3,10.8-40.5c4.9-15.8,4.4-56,5.6-55.3c27.2,14.5,62.4,11.9,76.3,10.8l0,0C1230.3,2330,1244,2365.7,1264.3,2394.8"
						/>
				</g>
			</g>
			<g id="Basic_Boots_F_Option">
				<g id="Main_Basic-Boot_F">
					<path d="M652.3,2285.1c-1.9-0.7-23.6,13.1-36,15.2c-13.2,2.2-27.6,2-41.6,0.6l-5.7-0.6l-0.2,0l-0.7-0.1l-1.9-0.3
						l-2.9-0.4l-1.2-0.2c-3.3-0.4-6.5-1-9.7-1.5l-5-1l-1.1-0.3l-0.4-0.1l-0.8-0.2l-3.5-0.9l-3.1-0.9l-0.5-0.1c-10.7-2.9-8.7-8-8.7-8
						c0,14.9-15.5,61.4-53.8,99.4c-11.7,11.6-40,25.2-64.6,36c-22.5,9.9-49.7,12.3-62.8,38.8c-2.8,5.8-5.3,12.7-4.8,19.3
						c0.6,8.4,9.7,9.6,16.8,11.6c17.6,5,32.8,8.8,53.2,13.4c23.3,5.2,44.3,8.4,67.9,7.8c17.7-0.5,32.6-1.2,48.1-10.6
						c6.2-3.8,12.7-7.6,18.1-12.5c12.1-11.1,20-22.7,35.6-29.3c11.3-4.8,22.9-8.7,34.8-11.6c16.9-4,41.5-9.7,50.5-26.4
						c3.5-12.5-11.7-39.3-12.8-57.4C655,2350.5,653.6,2285.6,652.3,2285.1z"/>
					<path d="M1148.4,2285.1c1.9-0.7,23.6,13.1,36,15.2c13.2,2.2,27.6,2,41.6,0.6l5.7-0.6l0.2,0l0.7-0.1l1.9-0.3l2.9-0.4
						l1.2-0.2c3.3-0.4,6.5-1,9.7-1.5l5-1l1.1-0.3l0.4-0.1l0.8-0.2l3.5-0.9l3.1-0.9l0.5-0.1c10.7-2.9,8.7-8,8.7-8
						c0,14.9,15.5,61.4,53.8,99.4c11.7,11.6,40,25.2,64.6,36c22.5,9.9,49.7,12.3,62.8,38.8c2.8,5.8,5.3,12.7,4.8,19.3
						c-0.6,8.4-9.7,9.6-16.8,11.6c-17.6,5-32.8,8.8-53.2,13.4c-23.3,5.2-44.3,8.4-67.9,7.8c-17.7-0.5-32.6-1.2-48.2-10.6
						c-6.2-3.8-12.7-7.6-18.1-12.5c-12.1-11.1-20-22.7-35.6-29.3c-11.3-4.8-22.8-8.7-34.8-11.6c-16.9-4-41.5-9.7-50.6-26.4
						c-3.5-12.5,11.7-39.3,12.8-57.4C1145.7,2350.5,1147.1,2285.6,1148.4,2285.1z"/>
				</g>
				<g id="Bottom_Basic-Boot_F">
					<path d="M668.7,2422.4c-4.5,8.3-12.9,13.9-22.3,17.9c-8.5,4.3-18.6,6.1-28.3,8.4c-1.3,0.3-2.6,0.6-3.9,1
						c-1.9,0.5-3.8,1-5.7,1.6c-0.6,0.2-1.2,0.3-1.7,0.5l-1,0.3c-0.6,0.2-1.2,0.4-1.9,0.6c-0.3,0.1-0.5,0.2-0.8,0.3
						c-1,0.3-2.1,0.7-3.1,1c-0.4,0.1-0.7,0.3-1.1,0.4l-0.5,0.2c-1.6,0.5-3.2,1.1-4.8,1.7c-0.3,0.1-0.7,0.3-1,0.4
						c-1.4,0.6-2.9,1.1-4.3,1.7l-1.1,0.4c-0.9,0.3-1.7,0.7-2.6,1.1c-0.4,0.2-0.7,0.3-1.1,0.5c-2.6,1.1-4.9,2.3-7.1,3.6l-0.3,0.2
						c-0.2,0.1-0.3,0.2-0.5,0.3c-0.7,0.4-1.3,0.9-2,1.3l-0.4,0.3c-0.1,0.1-0.3,0.2-0.4,0.3c-0.7,0.5-1.3,1-1.9,1.4l-0.5,0.4l-0.9,0.7
						c-2.7,2.2-5.2,4.5-7.7,7l-0.7,0.7c-1.3,1.4-2.7,2.7-4,4.1c-1.4,1.4-2.8,2.9-4.3,4.4c-1.5,1.5-3,2.9-4.6,4.4l-0.5,0.5
						c-0.5,0.4-1,0.9-1.5,1.3c-0.1,0.1-0.2,0.1-0.3,0.2c-0.8,0.7-1.6,1.3-2.4,1.9c-0.5,0.4-1.1,0.8-1.7,1.2l-0.3,0.2
						c-0.7,0.5-1.4,1-2.1,1.4c-0.3,0.2-0.6,0.4-0.9,0.6c-1,0.7-2.1,1.3-3.2,2c-0.7,0.4-1.5,0.9-2.2,1.3l-0.9,0.6l-2.3,1.4l-1.1,0.7
						l-0.7,0.4l-0.7,0.4c-1.1,0.6-2.1,1.1-3.2,1.7c-0.5,0.2-1,0.5-1.5,0.7l-0.5,0.2c-3.2,1.4-6.5,2.5-9.7,3.3l-0.6,0.1l-0.7,0.2
						c-0.2,0-0.5,0.1-0.7,0.2c-0.7,0.2-1.3,0.3-2,0.4c-0.5,0.1-1,0.2-1.6,0.3l-1.2,0.2l-0.4,0.1c-0.3,0.1-0.7,0.1-1,0.2
						c-0.6,0.1-1.2,0.2-1.7,0.2c-0.8,0.1-1.6,0.2-2.5,0.3c-0.2,0-0.4,0-0.7,0.1c-2.1,0.2-4.1,0.4-6.3,0.5c-1.2,0.1-2.3,0.1-3.5,0.2
						l-1,0c-2.2,0.1-4.5,0.2-6.7,0.2c-1.5,0.1-2.9,0.1-4.4,0.1c-0.5,0-1.1,0-1.6,0c-0.8,0-1.5,0-2.2,0c-0.5,0-1.1,0-1.6,0l-0.5,0
						c-2.7-0.1-5.3-0.2-8-0.3c-0.4,0-0.7,0-1.1-0.1l-1.1-0.1c-0.3,0-0.7,0-1-0.1c-3.9-0.3-7.7-0.6-11.6-1.1l-1-0.1
						c-1-0.1-1.9-0.2-2.9-0.4c-0.4-0.1-0.8-0.1-1.3-0.2l-1-0.1c-0.8-0.1-1.6-0.2-2.4-0.4c-3.4-0.5-6.7-1.1-10.1-1.7
						c-0.8-0.1-1.5-0.3-2.3-0.4l-1-0.2c-0.4-0.1-0.7-0.1-1.1-0.2l-1.1-0.2c-0.4-0.1-0.7-0.1-1.1-0.2l-0.7-0.2
						c-0.8-0.2-1.6-0.3-2.5-0.5l-1.1-0.2c-1-0.2-1.9-0.4-2.9-0.6c-0.8-0.2-1.7-0.4-2.5-0.6l-0.2-0.1c-5.3-1.2-10.3-2.3-15.1-3.5
						l-1.8-0.4c-1.4-0.3-2.7-0.6-4-1l-1.6-0.4l-0.7-0.2c-1.9-0.5-3.7-0.9-5.6-1.4c-1.1-0.3-2.2-0.6-3.3-0.9c-3.2-0.8-6.4-1.7-9.6-2.5
						l-1.5-0.4c-0.5-0.1-1.1-0.3-1.6-0.4l-0.6-0.2c-2.5-0.7-5-1.4-7.5-2.1l-0.6-0.2l-0.9-0.2l-2.6-0.7l-0.9-0.2l-1.3-0.4l-0.6-0.2
						l-1.1-0.3l-0.9-0.3l-0.4-0.2l-0.5-0.2l-0.3-0.1l-0.5-0.2l-0.5-0.2l-0.2-0.1l-0.5-0.3l-0.6-0.3l-0.5-0.4l-0.5-0.4
						c-0.8-0.7-1.6-1.4-2.1-2.4h0c0,0-4.7,7-5.1,19.1c10.6,15.3,44,20.4,90.2,26.6c45.9,6.1,74.3,4.9,93.5-3.3s52.9-47.5,77-49.6
						c24.1-2.1,52.6-14.9,64.3-21.7c6.1-3.6,4.3-28.9,4.3-28.9L668.7,2422.4z"/>
					<path d="M1131.9,2422.4c4.5,8.3,12.9,13.9,22.3,17.9c8.6,4.3,18.6,6.1,28.3,8.4c1.3,0.3,2.6,0.6,3.9,1
						c1.9,0.5,3.8,1,5.8,1.6c0.6,0.2,1.2,0.3,1.7,0.5l1,0.3c0.6,0.2,1.2,0.4,1.8,0.6c0.3,0.1,0.5,0.2,0.8,0.3c1,0.3,2.1,0.7,3.1,1
						c0.4,0.1,0.7,0.3,1.1,0.4l0.5,0.2c1.6,0.5,3.2,1.1,4.8,1.7c0.4,0.1,0.7,0.3,1,0.4c1.4,0.6,2.9,1.1,4.3,1.7l1.1,0.4
						c0.9,0.3,1.7,0.7,2.6,1.1c0.4,0.2,0.8,0.3,1.1,0.5c2.6,1.1,4.9,2.3,7.1,3.6l0.3,0.2c0.2,0.1,0.3,0.2,0.5,0.3
						c0.7,0.4,1.3,0.9,2,1.3l0.4,0.3c0.1,0.1,0.3,0.2,0.4,0.3c0.7,0.5,1.3,1,1.9,1.4l0.6,0.4l0.8,0.7c2.7,2.2,5.2,4.5,7.7,7l0.7,0.7
						c1.3,1.4,2.7,2.7,4,4.1c1.4,1.4,2.8,2.9,4.3,4.4c1.5,1.5,3,2.9,4.6,4.4l0.5,0.5c0.5,0.4,1,0.9,1.5,1.3c0.1,0.1,0.2,0.1,0.3,0.2
						c0.8,0.7,1.6,1.3,2.4,1.9c0.5,0.4,1.1,0.8,1.7,1.2l0.3,0.2c0.7,0.5,1.4,1,2.1,1.4c0.3,0.2,0.6,0.4,0.9,0.6c1,0.7,2.1,1.3,3.2,2
						c0.7,0.4,1.5,0.9,2.2,1.3l0.9,0.6l2.3,1.4l1.1,0.7l0.7,0.4l0.7,0.4c1.1,0.6,2.1,1.1,3.2,1.7c0.5,0.2,1,0.5,1.5,0.7l0.5,0.2
						c3.2,1.4,6.5,2.5,9.7,3.3l0.6,0.1l0.7,0.2c0.2,0,0.5,0.1,0.7,0.2c0.7,0.2,1.4,0.3,2,0.4c0.5,0.1,1.1,0.2,1.6,0.3l1.2,0.2l0.4,0.1
						c0.3,0.1,0.7,0.1,1,0.2c0.6,0.1,1.2,0.2,1.7,0.2c0.8,0.1,1.7,0.2,2.5,0.3c0.2,0,0.4,0,0.7,0.1c2.1,0.2,4.1,0.4,6.3,0.5
						c1.1,0.1,2.3,0.1,3.5,0.2l1,0c2.2,0.1,4.5,0.2,6.8,0.2c1.5,0.1,2.9,0.1,4.4,0.1c0.5,0,1.1,0,1.6,0c0.8,0,1.5,0,2.2,0
						c0.5,0,1.1,0,1.6,0l0.5,0c2.7-0.1,5.3-0.2,8-0.3c0.4,0,0.7,0,1.1-0.1l1.1-0.1c0.3,0,0.7,0,1-0.1c3.9-0.3,7.7-0.6,11.6-1.1l1-0.1
						c1-0.1,1.9-0.2,2.9-0.4c0.4-0.1,0.8-0.1,1.3-0.2l1-0.1c0.8-0.1,1.6-0.2,2.4-0.4c3.4-0.5,6.7-1.1,10.1-1.7
						c0.8-0.1,1.5-0.3,2.3-0.4l1-0.2c0.3-0.1,0.7-0.1,1.1-0.2l1.1-0.2c0.4-0.1,0.7-0.1,1.1-0.2l0.7-0.2c0.8-0.2,1.7-0.3,2.5-0.5
						l1.1-0.2c1-0.2,1.9-0.4,2.9-0.6c0.8-0.2,1.7-0.4,2.5-0.6l0.2-0.1c5.3-1.2,10.3-2.3,15.1-3.5l1.8-0.4c1.4-0.3,2.7-0.6,4-1l1.6-0.4
						l0.7-0.2c1.9-0.5,3.8-0.9,5.6-1.4c1.1-0.3,2.2-0.6,3.3-0.9c3.2-0.8,6.4-1.7,9.6-2.5l1.5-0.4c0.5-0.1,1.1-0.3,1.6-0.4l0.6-0.2
						c2.5-0.7,5-1.4,7.5-2.1l0.6-0.2l0.9-0.2l2.7-0.7l0.9-0.2l1.3-0.4l0.5-0.2l1.1-0.3l0.9-0.3l0.4-0.2l0.5-0.2l0.3-0.1l0.5-0.2
						l0.5-0.2l0.2-0.1l0.5-0.3l0.6-0.3l0.5-0.4l0.5-0.4c0.8-0.7,1.5-1.4,2.1-2.4l0,0c0,0,4.7,7,5.1,19.1c-10.6,15.3-44,20.4-90.2,26.6
						c-46,6.1-74.3,4.9-93.5-3.3s-52.9-47.5-77-49.6c-24.1-2.1-52.6-14.9-64.3-21.7c-6.1-3.6-4.3-28.9-4.3-28.9L1131.9,2422.4z"/>
				</g>
				<g id="Top_Basic-Boot_F">
					<path d="M536.1,2293.9c-6.4,31.4-16.3,58.7-37.2,85.1c-32.5,41.1-88,44.5-126.4,77.9c-9.8,8.6-9.4,22.3-11,35
						c15.9,4.5,29.9,8,47.7,12.1c1.2-12.6-1-26.7,9.5-35.9c38.4-33.4,98.8-32.1,131.3-73.2c21.2-26.9,21.3-61.5,27.5-93.7
						c-1-0.1-1.9-0.2-2.9-0.3l-5.7-0.6l-0.2,0l-0.7-0.1l-1.9-0.3l-2.9-0.4l-1.2-0.2c-3.3-0.4-6.5-1-9.7-1.5l-5-1l-1.1-0.3l-0.4-0.1
						l-0.8-0.2l-3.5-0.9l-3.1-0.9l-0.5-0.1C537.6,2294.3,536.8,2294.1,536.1,2293.9z"/>
					<path d="M1264.5,2293.9c6.4,31.4,16.3,58.7,37.2,85.1c32.5,41.1,88,44.5,126.4,77.9c9.8,8.6,9.4,22.3,11,35
						c-15.9,4.5-29.9,8-47.7,12.1c-1.3-12.6,1-26.7-9.5-35.9c-38.4-33.4-98.8-32.1-131.3-73.2c-21.2-26.9-21.3-61.5-27.5-93.7
						c1-0.1,1.9-0.2,2.8-0.3l5.7-0.6l0.2,0l0.7-0.1l1.9-0.3l2.9-0.4l1.2-0.2c3.3-0.4,6.5-1,9.7-1.5l5-1l1.1-0.3l0.4-0.1l0.8-0.2
						l3.5-0.9l3.1-0.9l0.5-0.1C1263.1,2294.3,1263.8,2294.1,1264.5,2293.9z"/>
				</g>
				<g id="Side_Basic-Boot_F">
					<path d="M646.4,2287.4c-12.3,5.4-18.8,10.9-30.1,12.8c-0.6,0.1-1.2,0.2-1.8,0.3c-0.2,3.9-0.1,7.9-0.2,11.3
						c-0.4,19.7,2,103.6,5.9,103.5c3.9-0.2,15.1-2.2,18-5.3c1.9-2,2.3-6.8,2.9-9.5c2-8.3,3.8-16.7,5.1-25.2
						C647.8,2364.1,646,2304.5,646.4,2287.4z"/>
					<path d="M1154.3,2287.4c12.3,5.4,18.8,10.9,30.1,12.8c0.6,0.1,1.2,0.2,1.8,0.3c0.2,3.9,0.1,7.9,0.2,11.3
						c0.4,19.7-2,103.6-5.9,103.5c-3.9-0.2-15.1-2.2-18-5.3c-1.9-2-2.3-6.8-2.9-9.5c-2-8.3-3.8-16.7-5.1-25.2
						C1152.8,2364.1,1154.6,2304.5,1154.3,2287.4z"/>
				</g>
			</g>
		</g>
		<g id="Sleeves_F_Toggle">
			<path d="M460.3,473.2l8.2,3.5l129.9-87.4c0,0,3.7,92.2,14.5,147.6c1.5,7.7,3.7,17.4,6.6,28.6l-17.3,56
				c0,0-58.7-23.1-84.5-38.2c-25-14.7-69.9-52.7-69.9-52.7L460.3,473.2z"/>
			<path d="M1181.2,565.5c2.8-11.2,5.1-21,6.6-28.6c10.8-55.4,14.5-147.6,14.5-147.6l129.9,87.4l8.2-3.5l12.4,57.3
				c0,0-44.9,38-69.9,52.7c-25.7,15.2-84.4,38.2-84.4,38.2L1181.2,565.5z"/>
		</g>
		<g id="Gloves_F">
			<g id="Left-Glove_F">
				<g id="Fingerless_Left_Glove_F_Option">
					<g id="Fingers_Fingerless_Left_Glove_F">
						<path d="M1391.6,1284.8c-4.7-0.3-9.2-0.2-13.9,1c-3.2,0.8-6.3,1.6-9.2,3.5c-8.7,5.7-6.3,18,1.4,22.7
							c9,5.5,23.3,0.1,27.5-10.5C1399.1,1297.1,1393.9,1288.9,1391.6,1284.8"/>
						<path d="M1375.7,1295.5c-4.7-0.3-9.2-0.2-13.9,1c-3.2,0.8-6.3,1.6-9.2,3.5c-8.7,5.7-6.3,18,1.4,22.7
							c9,5.5,23.4,0.1,27.5-10.5C1383.2,1307.8,1377.9,1299.7,1375.7,1295.5"/>
						<path d="M1364.5,1309.7c-4.7,0.5-10.6,1.6-15.1,3.4c-3.1,1.2-6.1,2.6-8.7,4.8c-7.9,6.9-4.1,18.8,4.1,22.3
							c9.6,4.1,23.1-3.5,26-14.6C1371.9,1321.2,1364.5,1309.7,1364.5,1309.7z"/>
						<path d="M1315.7,1241.9c-2.7,13.3-4.8,20.6-4.8,20.6s-12.1,27.9-10,34.3c2.1,6.4,12.7,12.1,18.8,8.7
							c7.6-4.2,16.9-23.8,22.9-37.7c2.2-5.1,4.2-10.9,5.9-16.3C1324.4,1255.5,1315.7,1241.9,1315.7,1241.9L1315.7,1241.9z"/>
						<path d="M1365.6,1307.7c-1.8,3.4-3.8,7-6,10.8c-11.9,20.4-30.3,38-18.2,53.6c11.3,14.6,37-23.7,37-23.7l11.9-17.6
							C1370.5,1325.4,1365.6,1307.8,1365.6,1307.7z"/>
					</g>
					<path id="Glove_Fingerless_Left_Glove_F" d="M1390.3,1330.7l13.3-19.6c0,0,29-54,30.4-64.5c1.1-8,0.1-34.7,0.1-34.7
						l-9.1-103.5l-45.9,4.3l-37.8,13.9l-2.8,17.7c0,0-13.7,21.4-17.3,36.8c-2.5,10.8-1.2,36.8-4.3,54.2c-0.4,2.3-0.8,4.4-1.2,6.4l0,0
						c0,0,8.6,13.6,32.8,9.5c3-9.6,5.1-17.7,5.1-17.7s8.3,3.2,12.5,7c14.1,12.3,8,49.5,8,49.5s-3.3,7.4-8.6,17.5
						C1365.6,1307.8,1370.5,1325.4,1390.3,1330.7z"/>
				</g>
				<g id="Basic_Left_Glove_F_Option">
					<path d="M1391.6,1284.8c-4.7-0.3-9.2-0.2-13.9,1c-3.2,0.8-6.3,1.6-9.2,3.5c-8.7,5.7-6.3,18,1.4,22.7
						c9,5.5,23.3,0.1,27.5-10.5C1399.1,1297.1,1393.9,1288.9,1391.6,1284.8"/>
					<path d="M1375.7,1295.5c-4.7-0.3-9.2-0.2-13.9,1c-3.2,0.8-6.3,1.6-9.2,3.5c-8.7,5.7-6.3,18,1.4,22.7
						c9,5.5,23.4,0.1,27.5-10.5C1383.2,1307.8,1377.9,1299.7,1375.7,1295.5"/>
					<path d="M1364.3,1310.1c-4.7,0.5-10.4,1.3-14.9,3.1c-3.1,1.2-6.1,2.6-8.7,4.8c-7.9,6.9-4.1,18.8,4.1,22.3
						c9.6,4.1,23.1-3.5,26-14.6C1371.9,1321.2,1364.3,1310.1,1364.3,1310.1z"/>
					<path d="M1338.5,1144.4c0,0-13.7,21.4-17.3,36.8c-2.5,10.8-1.2,36.8-4.3,54.2c-3.2,17.4-6.1,27.1-6.1,27.1
						s-12.1,27.9-10,34.3c2.1,6.4,12.7,12.1,18.8,8.7c7.6-4.2,16.9-23.8,22.9-37.7c6-14.1,11-34.1,11-34.1s8.3,3.2,12.5,7
						c14.1,12.3,8,49.5,8,49.5s-5.8,13.3-14.6,28.2c-11.9,20.4-30.3,38-18.2,53.6c11.3,14.6,37-23.7,37-23.7l25.2-37.2
						c0,0,29-54,30.4-64.5c1.1-8,0.1-34.7,0.1-34.7l-9.1-103.5l-45.9,4.3l-37.8,13.9L1338.5,1144.4"/>
				</g>
			</g>
			<g id="Right-Glove_F">
				<g id="Fingerless_Right_Glove_F_Option">
					<g id="Fingers_Fingerless_Right_Glove_F">
						<path d="M408.7,1284.8c4.7-0.3,9.2-0.2,13.9,1c3.2,0.8,6.3,1.6,9.2,3.5c8.7,5.7,6.3,18-1.4,22.7
							c-9,5.5-23.4,0.1-27.5-10.5C401.1,1297.1,406.4,1288.9,408.7,1284.8"/>
						<path d="M424.6,1295.5c4.7-0.3,9.2-0.2,13.9,1c3.2,0.8,6.3,1.6,9.2,3.5c8.7,5.7,6.3,18-1.4,22.7
							c-9,5.5-23.4,0.1-27.5-10.5C417,1307.8,422.3,1299.7,424.6,1295.5"/>
						<path d="M435.8,1309.7c4.7,0.5,10.6,1.6,15.1,3.4c3.1,1.2,6.1,2.6,8.7,4.8c7.9,6.9,4.1,18.8-4.1,22.3
							c-9.6,4.1-23.2-3.5-26-14.6C428.3,1321.2,435.8,1309.7,435.8,1309.7z"/>
						<path d="M484.5,1241.9c2.7,13.3,4.8,20.6,4.8,20.6s12.1,27.9,10,34.3c-2.1,6.4-12.7,12.1-18.8,8.7
							c-7.6-4.2-17-23.8-22.9-37.7c-2.2-5.1-4.2-10.9-5.9-16.3C475.9,1255.5,484.5,1241.9,484.5,1241.9L484.5,1241.9z"/>
						<path d="M434.7,1307.7c1.8,3.4,3.8,7,6,10.8c12,20.4,30.3,38,18.2,53.6c-11.3,14.6-37-23.7-37-23.7l-11.9-17.6
							C429.7,1325.4,434.6,1307.8,434.7,1307.7z"/>
					</g>
					<path id="Glove_Fingerless_Right_Glove_F" d="M409.9,1330.7l-13.3-19.6c0,0-28.9-54-30.4-64.5
						c-1.1-8-0.1-34.7-0.1-34.7l9-103.5l45.9,4.3l37.8,13.9l2.8,17.7c0,0,13.7,21.4,17.2,36.8c2.5,10.8,1.2,36.8,4.3,54.2
						c0.4,2.3,0.8,4.4,1.2,6.4l0,0c0,0-8.6,13.6-32.8,9.5c-3-9.6-5.1-17.7-5.1-17.7s-8.3,3.2-12.5,7c-14.1,12.3-8,49.5-8,49.5
						s3.3,7.4,8.6,17.5C434.6,1307.8,429.7,1325.4,409.9,1330.7z"/>
				</g>
				<g id="Basic_Right_Glove_F_Option">
					<path d="M408.7,1284.8c4.7-0.3,9.2-0.2,13.9,1c3.2,0.8,6.3,1.6,9.2,3.5c8.7,5.7,6.3,18-1.4,22.7
						c-9,5.5-23.4,0.1-27.5-10.5C401.1,1297.1,406.4,1288.9,408.7,1284.8"/>
					<path d="M424.6,1295.5c4.7-0.3,9.2-0.2,13.9,1c3.2,0.8,6.3,1.6,9.2,3.5c8.7,5.7,6.3,18-1.4,22.7
						c-9,5.5-23.4,0.1-27.5-10.5C417,1307.8,422.3,1299.7,424.6,1295.5"/>
					<path d="M436,1310.1c4.7,0.5,10.4,1.3,14.9,3.1c3.1,1.2,6.1,2.6,8.7,4.8c7.9,6.9,4.1,18.8-4.1,22.3
						c-9.6,4.1-23.2-3.5-26-14.6C428.3,1321.2,436,1310.1,436,1310.1z"/>
					<path d="M461.7,1144.4c0,0,13.7,21.4,17.2,36.8c2.5,10.8,1.2,36.8,4.3,54.2c3.2,17.4,6.1,27.1,6.1,27.1
						s12.1,27.9,10,34.3c-2.1,6.4-12.7,12.1-18.8,8.7c-7.6-4.2-17-23.8-22.9-37.7c-6-14.1-11-34.1-11-34.1s-8.3,3.2-12.5,7
						c-14.1,12.3-8,49.5-8,49.5s5.8,13.3,14.6,28.2c12,20.4,30.3,38,18.2,53.6c-11.3,14.6-37-23.7-37-23.7l-25.2-37.2
						c0,0-28.9-54-30.4-64.5c-1.1-8-0.1-34.7-0.1-34.7l9-103.5l45.9,4.3l37.8,13.9L461.7,1144.4"/>
				</g>
			</g>
		</g>
	</g>
</g>
<g id="Biceps_Current" transform="translate(193,579)">
	<title>Upper Body</title>
	<g id="LeftBiceps_Current"></g>
	<g id="RightBiceps_Current"></g>
</g>
<g id="Vest_Current" transform="translate(0,528)">
	<path id="Vest_F" d="M967.4,899.8c-43.9,9-90.3,9-134.1,0c-44.2-9.1-131-54.4-131-54.4S626.5,606.6,613,536.9
		c-10.8-55.4-14.5-147.6-14.5-147.6l-129.9,87.4l-27.7-11.8c0,0,77.7-171.7,128.8-221.5c46.3-45,177.8-77,177.8-77
		s58,63.7,152.8,64.2c90.2,0.4,152.8-64.2,152.8-64.2s131.6,32,177.8,77c51.1,49.8,128.8,221.5,128.8,221.5l-27.7,11.8l-129.9-87.4
		c0,0-3.7,92.2-14.5,147.6c-13.6,69.7-89.3,308.6-89.3,308.6S1011.6,890.7,967.4,899.8z"/>
</g>
<g id="Upper-Body_F_Wrapper" transform="translate(193,565)">
	<title>Upper Body</title>
	<g id="Chest_Current"></g>
	<g id="Collar_Current"></g>
	<g id="ChestAttachments_Current"></g>
	<g id="Shoulders_Current">
		<g id="LeftShoulder_Current"></g>
		<g id="RightShoulder_Current"></g>
	</g>
	<g id="Gauntlets_Current">
		<g id="LeftGauntlets_Current"></g>
		<g id="RightGauntlets_Current"></g>
	</g>
</g>
<g id="Lower-Body_F_Wrapper" transform="translate(268,1285)">
	<title>Lower Body</title>
	<g id="Knees_Current">
		<g id="LeftKnee_Current"></g>
		<g id="RightKnee_Current"></g>
	</g>
	<g id="Shins_Current">
		<g id="LeftShin_Current"></g>
		<g id="RightShin_Current"></g>
	</g>
	<g id="Ankles_Current">
		<g id="LeftAnkle_Current"></g>
		<g id="RightAnkle_Current"></g>
	</g>
	<g id="Toes_Current">
		<g id="LeftToe_Current"></g>
		<g id="RightToe_Current"></g>
	</g>
	<g id="Thighs_Current">
		<g id="LeftThigh_Current"></g>
		<g id="RightThigh_Current"></g>
	</g>
	<g id="Groin_Current"></g>
	<g id="Waist_Current"></g>
</g>
<g id="Front_F" transform="translate(0,530)">
	<g id="Cape_F">
		<g id="Shoulder-Cape-Left_Back_F_Option">
			<path id="Cape-Shoulder" d="M1151.3,615.2c-10.1-60.3-118.1-394.9,4.4-443.9
				c23.1-9.2,71.6,5.3,82.3,6c24.9,1.6,131.6,106.4,144,126.9c15.7,25.9,24.2,48.6,41.7,77.8c48.6,80.6,80.4,139.2,105.5,219.4
				c23.2,73.9,52,152.7,78.3,223.1c29.7,79.7,43.8,135.5,69.5,216.7c13.9,43.9,34.3,135.9,54.4,220.4c18.2,76.7,53.3,138.4,9.5,166.5
				c-44.1,28.4-105.8,98.8-149.5,130.4c-45.3,32.8-217.2,13.1-259.2,39c-13,8.1-98.3,9.7-97.8,7.3c5.5-25.9,14.6-92.7,5.1-166.4
				c-11.8-92.7-14.1-155.6-24.8-248.6c-7.2-62.1-1.4-94-14.4-154.8c-14.4-67.5-7.6-145.2-25.8-211.4
				C1156.5,758.4,1162.7,683.2,1151.3,615.2z"/>
			<path d="M1509.7,1061.7c-9.3-37.6-23.9-91.8-7.5-129.6c12.9-29.7,66.9,33.8,71,47.3c10.6,34.3-2.4,72.2-6,106.7
				c-4.1,38.3-3.5,76.8,3.9,114.8c9.1,46.5,19.9,94.1,38.2,138c20.8,50.1,55.1,96.5,57.7,152.3"/>
			<path d="M1443.7,1499.7c-8.6,8.3-18.4,11.3-30.5,10c-58.9-6.6-66.7-105.7-63.5-150.1c5.1-71.9,20.2-141.4,14.5-214
				c-7.6-98.4-45.1-206.6-60-306.7c-11.2-75.6-7.2-154.2-24.3-228.7c-11.1-48.5-98.6-248.8-125.7-286.2"/>
			<path d="M1337.7,479.7c32.3,82.9,63.4,158.7,72.5,248.4c5.2,50.8,8.7,102.6,7.9,153.6c-0.5,37.5-6.9,75.4-0.9,112.8
				c12.9,80.5,59.4,152.1,75.1,232.5"/>
			<path d="M1651.7,1145.7c2.2,103.7,46.7,194.7,74.7,292.7"/>
			<path d="M1358.7,277c19.9,33.9,20.1,72.9,27.5,108.4c7.6,36.4,6,76.2,20.3,111c14.1,34.5,38.5,63.3,57.2,95.3
				c29.9,51.2,40.6,107.9,45.8,166.3"/>
		</g>
		<g id="Shoulder-Cape-Right_Back_F_Option">
			<path id="Cape-Shoulder1" d="M648.6,615.2c10.1-60.3,118.1-394.9-4.4-443.9
				c-23.1-9.2-71.6,5.3-82.3,6c-24.9,1.6-131.6,106.4-144,126.9c-15.7,25.9-24.1,48.6-41.7,77.8c-48.6,80.6-80.4,139.2-105.5,219.4
				c-23.2,73.9-52,152.7-78.3,223.1c-29.7,79.7-43.8,135.5-69.5,216.7c-13.9,43.9-34.3,135.9-54.4,220.4
				c-18.2,76.7-53.3,138.4-9.6,166.5c44.1,28.4,105.8,98.8,149.5,130.4c45.3,32.8,217.2,13.1,259.2,39c13,8.1,98.4,9.7,97.8,7.3
				c-5.5-25.9-14.5-92.7-5.1-166.4c11.8-92.7,14.1-155.6,24.8-248.6c7.2-62.1,1.4-94,14.4-154.8c14.4-67.5,7.6-145.2,25.8-211.4
				C643.5,758.4,637.3,683.2,648.6,615.2z"/>
			<path d="M290.3,1061.7c9.3-37.6,23.9-91.8,7.5-129.6c-12.9-29.7-66.9,33.8-71,47.3c-10.6,34.3,2.4,72.2,6,106.7
				c4.1,38.3,3.5,76.8-3.9,114.8c-9.1,46.5-20,94.1-38.2,138c-20.8,50.1-55.1,96.5-57.7,152.3"/>
			<path d="M356.3,1499.7c8.6,8.3,18.4,11.3,30.5,10c58.9-6.6,66.7-105.7,63.5-150.1c-5.1-71.9-20.2-141.4-14.5-214
				c7.6-98.4,45.1-206.6,60-306.7c11.2-75.6,7.2-154.2,24.3-228.7c11.1-48.5,98.6-248.8,125.7-286.2"/>
			<path d="M462.3,479.7C430,562.6,399,638.4,389.9,728.1c-5.2,50.8-8.7,102.6-7.9,153.6c0.5,37.5,6.9,75.4,0.9,112.8
				c-12.9,80.5-59.4,152.1-75.1,232.5"/>
			<path d="M148.3,1145.7c-2.2,103.7-46.7,194.7-74.7,292.7"/>
			<path d="M441.3,277c-19.9,33.9-20.1,72.9-27.5,108.4c-7.6,36.4-6,76.2-20.3,111c-14.1,34.5-38.5,63.3-57.2,95.3
				c-29.9,51.2-40.6,107.9-45.8,166.3"/>
		</g>
	</g>
</g>
<g id="Helmet_F_Wrapper" transform="translate(550,35)">
	<title>Helmet (Buy'ce)</title>
	<g id="Helmet_Current"></g>
</g>
</svg>
