<?xml version="1.0" encoding="utf-8"?>
<!-- Generator: Adobe Illustrator 25.1.0, SVG Export Plug-In . SVG Version: 6.00 Build 0)  -->
<svg version="1.1" xmlns="http://www.w3.org/2000/svg" viewBox="0 0 1265 1840">
<g id="Shins_F">
	<g id="Left-Shin_F">
		<g id="None_Shin_Left_F_Option">
		</g>
		<g id="Pockets_Shin_Left_F_Option">
			<g id="Accent-2_Pockets-Shin_Left_F">
				<path d="M961.6,1187.3c3.8-6,7.8-5.6,12-0.4l3.8,115.9l-12,0.4L961.6,1187.3"/>
				<path d="M890.8,1202.3c4.9-5.5,9.8-5.6,14.7-0.5l4.5,134.3l-14.7,0.5L890.8,1202.3"/>
			</g>
			<g id="Accent-1_Pockets-Shin_Left_F">
				<path d="M941.4,1166.1c4.4-6.6,9.4-6.3,14.7-0.5l4.5,134.2l-14.7,0.5L941.4,1166.1"/>
				<path d="M872.3,1210.3c4.8-7.1,9.7-7.3,14.7-0.5l4.5,134.2l-14.7,0.5L872.3,1210.3"/>
			</g>
			<g id="Shin_Pockets-Shin_Left_F">
				<path d="M919.3,1219.3c24.7,4.8,48.7,4.2,72.2-1.7l5.8,238.7c-24.5,7.5-38.6,9-62.3,2.3L919.3,1219.3"/>
				<path d="M853.8,1220.9c22.4,5.8,44.2,5.1,65.5-1.6l15.7,239.3c-21.3,7.9-40.2,8.2-62.6,1.8L853.8,1220.9"/>
			</g>
		</g>
		<g id="Wraps_Shin_Left_F_Option">
			<path d="M1039.6,1532.8c-67.6,18.9-131.3,19.9-191.5,4.4l-19.6-110.6l203.8-1.8L1039.6,1532.8"/>
			<path d="M1037.3,1450.6c-66.4,24.5-133.5,34.7-201.5,29.8L818.6,1371l209.3-33.4L1037.3,1450.6"/>
			<path d="M1035.2,1389.5C922,1399.4,839.4,1425,822,1402l-13.5-110.9l217.4,5.4L1035.2,1389.5"/>
			<path d="M1032.8,1325.2c0,0-74.5,8.4-111.9,7.4c-37.8-1-114.7-13.3-114.7-13.3l-5-105.6l220.5,0.4L1032.8,1325.2"/>
			<path d="M1025.8,1229.6c0,0-75.3,15-113.6,18.2c-38.7,3.2-112.4,1.5-112.4,1.5l-7.9-104.6l225.1-26.1L1025.8,1229.6"
				/>
			<path d="M1016.5,1110.7l8.6,84c0,0-82.3-17.9-123-19.8c-40.2-1.9-112.1,7.7-112.1,7.7l-5.4-104.1
				c0,0,87-13.9,128.3-12c39.3,1.8,100.1,16.7,100.1,16.7L1016.5,1110.7"/>
		</g>
		<g id="Heavy-Shnees_Shin_Left_F_Option">
			<g id="Shin_Heavy-Shnees-Shin_Left_F">
				<path d="M903.4,1623.8l52.7-62.5l90.7-6.4l-35.5-595l-258.8,19.6L856.3,1534l-1.9,60.1L903.4,1623.8"/>
				<path d="M793.4,968.3l-26.7-24.2l-18.4-0.9c0,0-11.1,52.3-10.5,78.5c0.9,42.5,41.2,98.8,41.2,98.8l27.8,14.9
					l35.5-72.3L793.4,968.3"/>
				<path d="M982.7,1036.9l21.7-87.9c0,0,23.1,51.4,24.2,77.7c2.1,46.6-8.7,76.8-8.7,76.8L982.7,1036.9"/>
				<path d="M956.1,1561.2l90.7-6.4l-20.1-46.5l-61.9,2.5L956.1,1561.2"/>
				<path d="M994.8,1509.6l-53.3-392.5"/>
			</g>
			<g id="Knee_Heavy-Shnees-Shin_Left_F">
				<path d="M960.8,867.6l-146,17.3L788,989.1l100.2,134.2l96.4-9l38.5-157.7L960.8,867.6"/>
				<path d="M814.8,884.9l29.2,39.3L956.9,912l3.9-44.5L814.8,884.9"/>
				<path d="M844,924.2l-55.9,64.6l26.7-103.9L844,924.2"/>
				<path d="M956.9,912l66.2,44.7l-62.3-89.1L956.9,912"/>
				<path d="M956.9,912l27.7,202.3l38.5-157.7L956.9,912"/>
				<path d="M844,924.2l-55.9,64.6l100.2,134.6L844,924.2"/>
			</g>
			<g id="Straps_Heavy-Shnees-Shin_Left_F_Toggle">
				<path d="M792.5,1213.2l55.7-6.5l4.5,25.3l-55.7,6.5L792.5,1213.2"/>
				<path d="M796.3,1210.7l11.8-1.4l5.4,29.9l-11.8,1.4L796.3,1210.7"/>
				<path d="M837.5,1457.7l55.7-6.5l4.5,25.3l-55.7,6.5L837.5,1457.7"/>
				<path d="M841.3,1455.2l11.8-1.4l5.4,29.9l-11.8,1.4L841.3,1455.2"/>
			</g>
		</g>
		<g id="Basic-Shnees_Shin_Left_F_Option">
			<path id="Shin_Basic-Shnees-Shin_Left_F" d="M804.7,932c-1.1-23,16.2-42.8,39.2-44.7c28.6-2.4,66.3-5.5,94.7-7.8
				c22.6-1.9,42.7,14.2,45.9,36.6c7,49.7,20.1,127.9,32.8,126.6l29.9,493.2l-105.8,8.3l-34.2,35.8l-48.5-12.2L781,1062.3
				C806.7,1060.8,807.1,982.3,804.7,932z"/>
			<g id="Straps_Basic-Shnees-Shin_Left_F_Toggle">
				<path d="M788.6,1139.6l55-6.7l4.5,25.3l-55,6.7L788.6,1139.6"/>
				<path d="M792.3,1137.1l11.6-1.4l5.4,29.9l-11.6,1.4L792.3,1137.1"/>
				<path d="M826.3,1383.6l55-6.7l4.5,25.3l-55,6.7L826.3,1383.6"/>
				<path d="M830.1,1381.1l11.6-1.4l5.4,29.9l-11.6,1.4L830.1,1381.1"/>
			</g>
			<g id="Accent_Basic-Shnees-Shin_Left_F_Toggle">
				<path d="M937.4,876.9l-40.2-4.5l-40.8,9.5l92.2,661.8l49.1-3.8L937.4,876.9"/>
				<path d="M897.3,872.4l77.6,669.2"/>
			</g>
		</g>
		<g id="Full_Shin_Left_F_Option">
			<path id="Shin_Full-Shin_Left_F" d="M819.7,1063.8c117.8-25.5,194.2-1.5,194.2-1.5l22,453.4c0,0-46.3,10-96.1,8.8
				c-36.5-0.9-94.3-15.4-94.3-15.4l-63.1-387.7C782.4,1121.5,821.2,1115,819.7,1063.8"/>
			<g id="Accent_Full-Shin_Left_F_Toggle">
				<path d="M789.7,1164l64.8-4.6l3.4,17.1l-65.2,4.6L789.7,1164"/>
				<path d="M793.7,1187.8l44.3-3.2l3.4,17.1l-44.7,3.3L793.7,1187.8"/>
			</g>
			<g id="Ridge_Full-Shin_Left_F_Toggle">
				<path d="M974.1,1050.6l-41.4-5.3l-43,3.6l61.5,475.7c20.7,0.9,36.1-1.1,60-4.7L974.1,1050.6"/>
				<path d="M932.7,1045.3l51.7,478.2"/>
			</g>
		</g>
		<g id="Legacy_Shin_Left_F_Option">
			<path id="Plate-3_Legacy-Shin_Left_F" d="M839.6,1324.8l35.4,165.9c0,0,51.6,12.9,79.8,10.9
				c28.2-1.9,66.6-15.1,66.6-15.1l-7.6-177l-77.4,42.9L839.6,1324.8"/>
			<path id="Plate-2_Legacy-Shin_Left_F" d="M812.2,1222.2l20.4,100.6l103.8,29.7l84.1-46.6l-3.1-100.7l-94,42.6
				L812.2,1222.2"/>
			<path id="Plate-1_Legacy-Shin_Left_F" d="M857.3,1084.3l-66.8,66.4l14.5,69.9l118.5,27.3l100.5-45.6l-2.3-85.3
				l-75.3-41L857.3,1084.3"/>
			<path id="Trauma-Plate-3_Legacy-Shin_Left_F_ToggleOff" d="M997.1,1339.5l-51.9,28.8c-4.2,2.3-9.1,2.9-13.7,1.6
				l-68-19.4l26.7,125.5c15.7,3.5,44.9,9.2,63.4,7.9c16.4-1.1,36.5-6.4,49.2-10.2L997.1,1339.5"/>
			<path id="Trauma-Plate-2_Legacy-Shin_Left_F_ToggleOff" d="M1000.2,1232.7l-69.4,31.4c-3.6,1.6-7.6,2-11.5,1.2
				l-84-19.3l12.7,62.5l86.1,24.6l68-37.7L1000.2,1232.7"/>
			<path id="Trauma-Plate-1_Legacy-Shin_Left_F_ToggleOff" d="M865.4,1101.6l-55.3,55l10.2,49l101.3,23.3l84.1-38.1
				l-1.7-63l-61.4-33.5L865.4,1101.6"/>
			<g id="Ridge_Legacy-Shin_Left_F_ToggleOff">
				<path d="M930.4,1501.4l6.2,0.6c-3.4-0.2-6.7-0.5-9.9-1L930.4,1501.4"/>
				<path d="M956.8,1233.3l6.9,104.7l-27.3,15.2l-37.5-10.7l-16.7-103.5l41.2,9.5L956.8,1233.3"/>
				<path d="M963.7,1337.9l10.7,161.1c-12.1,1.9-25.3,3.5-37.8,2.9l-6.2-0.6l-3.6-0.4l-2.4-0.3l-25.5-158.3l37.5,10.7
					L963.7,1337.9"/>
				<path d="M857.4,1084.8l-0.1-0.6l43.4-15l45.7,6.6l0,0.6l-0.1-0.1l-0.2,0l0.2,0l0.1,0.1l10.4,156.7l-33.4,15.1
					l-41.2-9.5L857.4,1084.8"/>
				<path d="M900.6,1069.3l22.8,179.1"/>
				<path d="M923.4,1248.4l13,104.7"/>
				<path d="M936.4,1353.1l16.7,148.6"/>
			</g>
		</g>
		<g id="Basic-Round_Shin_Left_F_Option">
			<path id="Shin_Basic-Round-Shin_Left_F" d="M1008.3,1153.6c-1.6-22.1-25.1-87.6-111.3-73.3
				c-103.5,17.1-89.6,103.3-88.2,110.9c10.6,54.5,58.8,301.8,58.8,301.8c46.6,21.3,115.1,13.8,153.1-18.6
				C1020.6,1474.3,1013,1217.4,1008.3,1153.6"/>
			<path id="Trauma-Plating_Basic-Round-Shin_Left_F_ToggleOff" d="M1000.3,1464.7c-1.5-48.3-7.8-253.6-12-309.6
				c-0.7-10-7.6-31.7-26.9-45.2c-13.7-9.6-33.5-14.5-61.2-9.9c-33.7,5.6-52.6,19.2-62.5,35.1c-14.3,22.9-10,48.7-9.3,52.2
				l56.7,291.1C921.5,1490.9,969.4,1485.8,1000.3,1464.7"/>
			<g id="Ridge_Basic-Round-Shin_Left_F_ToggleOff">
				<path d="M942.8,1078.4l-37.7-5.1l-37.5,14.4l59.4,417.4c25.8,1.9,26.3,2.8,47.7-6.5L942.8,1078.4"/>
				<path d="M905.1,1073.3l47.3,432.8"/>
			</g>
		</g>
		<g id="Basic_Shin_Left_F_Option">
			<path id="Shin_Basic-Shin_Left_F" d="M1024.2,1149.2l-48.3-63l-107.5,4.8l-47.1,89.1l44.8,315.1
				c45.4,23.6,114.2,19.6,153.9-10.7L1024.2,1149.2"/>
			<path id="Trauma-Plating_Basic-Shin_Left_F_ToggleOff" d="M1002,1475l4.1-319.8l-38.8-50.5l-87.9,3.9l-39.6,74.8
				l42.6,299.6C919.3,1498.3,969.2,1495.5,1002,1475"/>
			<g id="Ridge_Basic-Shin_Left_F_ToggleOff">
				<path d="M961.2,1084.9l-37.4-7l-38.2,12.4l38,419.9c25.7,3.2,26.1,4.2,47.9-4L961.2,1084.9"/>
				<path d="M923.8,1077.9l25.1,434.6"/>
			</g>
		</g>
	</g>
	<g id="Right-Shin_F">
		<g id="None_Shin_Right_F_Option">
		</g>
		<g id="Pockets_Shin_Right_F_Option">
			<g id="Accent-2_Pockets-Shin_Right_F">
				<path d="M303.7,1187.4c-3.8-6-7.8-5.7-12-0.4l-3.9,115.9l12,0.4L303.7,1187.4"/>
				<path d="M374.5,1202.5c-4.9-5.5-9.8-5.6-14.7-0.5l-4.5,134.2l14.7,0.5L374.5,1202.5"/>
			</g>
			<g id="Accent-1_Pockets-Shin_Right_F">
				<path d="M323.9,1166.2c-4.4-6.6-9.4-6.3-14.7-0.5l-4.5,134.2l14.7,0.5L323.9,1166.2"/>
				<path d="M393,1210.5c-4.8-7.1-9.7-7.3-14.7-0.5l-4.5,134.2l14.7,0.5L393,1210.5"/>
			</g>
			<g id="Shin_Pockets-Shin_Right_F">
				<path d="M346,1219.5c-24.7,4.8-48.8,4.2-72.2-1.8l-5.9,238.7c24.5,7.5,38.6,9,62.3,2.3L346,1219.5"/>
				<path d="M411.5,1221.1c-22.4,5.8-44.2,5.1-65.5-1.6l-15.8,239.3c21.3,7.9,40.2,8.2,62.6,1.8L411.5,1221.1"/>
			</g>
		</g>
		<g id="Wraps_Shin_Right_F_Option">
			<path d="M222.1,1532.8c67.6,18.9,131.3,19.8,191.5,4.3l19.5-110.6l-203.8-1.7L222.1,1532.8"/>
			<path d="M224.3,1450.7c66.4,24.5,133.5,34.6,201.5,29.7l17.2-109.4l-209.3-33.2L224.3,1450.7"/>
			<path d="M226.3,1389.6c113.2,9.9,195.9,35.4,213.3,12.4l13.5-110.9l-217.4,5.5L226.3,1389.6"/>
			<path d="M228.7,1325.3c0,0,74.5,8.3,111.9,7.3c37.8-1,114.7-13.4,114.7-13.4l4.9-105.6l-220.5,0.5L228.7,1325.3"/>
			<path d="M235.7,1229.7c0,0,75.3,15,113.6,18.2c38.7,3.2,112.4,1.4,112.4,1.4l7.8-104.6l-225.1-26L235.7,1229.7"/>
			<path d="M244.8,1110.8l-8.5,84c0,0,82.3-17.9,123-19.9c40.2-1.9,112.1,7.7,112.1,7.7l5.3-104.1
				c0,0-87-13.9-128.3-11.9c-39.3,1.9-100.1,16.8-100.1,16.8L244.8,1110.8"/>
		</g>
		<g id="Heavy-Shnees_Shin_Right_F_Option">
			<g id="Shin_Heavy-Shnees-Shin_Right_F">
				<path d="M363.7,1623.8l-52.8-62.5l-90.7-6.4l35.3-595l258.8,19.5L410.9,1534l2,60.1L363.7,1623.8"/>
				<path d="M473.5,968.3l26.7-24.2l18.4-0.9c0,0,11.1,52.3,10.6,78.5c-0.9,42.6-41.1,98.8-41.1,98.8l-27.8,14.9
					l-35.5-72.3L473.5,968.3"/>
				<path d="M284.3,1037L262.5,949c0,0-23.1,51.4-24.2,77.7c-2,46.6,8.7,76.7,8.7,76.7L284.3,1037"/>
				<path d="M311,1561.2l-90.7-6.4l20.1-46.5l61.9,2.5L311,1561.2"/>
				<path d="M272.4,1509.6l53.2-392.5"/>
			</g>
			<g id="Knee_Heavy-Shnees-Shin_Right_F">
				<path d="M306.1,867.6l146,17.2l26.8,104.2l-100.1,134.3l-96.4-8.9l-38.5-157.6L306.1,867.6"/>
				<path d="M452,884.8l-29.2,39.3l-112.9-12.1l-3.9-44.5L452,884.8"/>
				<path d="M422.9,924.2l55.9,64.6L452,884.8L422.9,924.2"/>
				<path d="M309.9,912.1l-66.1,44.7l62.3-89.2L309.9,912.1"/>
				<path d="M309.9,912.1l-27.6,202.3l-38.5-157.6L309.9,912.1"/>
				<path d="M422.9,924.2l56,64.6l-100.1,134.6L422.9,924.2"/>
			</g>
			<g id="Straps_Heavy-Shnees-Shin_Right_F_Toggle">
				<path d="M474.5,1213.2l-55.7-6.5l-4.5,25.3l55.7,6.4L474.5,1213.2"/>
				<path d="M470.7,1210.7l-11.8-1.4l-5.4,29.9l11.8,1.4L470.7,1210.7"/>
				<path d="M429.6,1457.7l-55.7-6.5l-4.5,25.3l55.7,6.4L429.6,1457.7"/>
				<path d="M425.8,1455.2l-11.8-1.4l-5.4,29.9l11.8,1.4L425.8,1455.2"/>
			</g>
		</g>
		<g id="Basic-Shnees_Shin_Right_F_Option">
			<path id="Shin_Basic-Shnees-Shin_Right_F" d="M461.1,932.2c1.1-23-16.2-42.8-39.1-44.7c-28.6-2.4-66.3-5.6-94.7-7.9
				c-22.6-1.9-42.7,14.2-45.9,36.6c-7.1,49.7-20.3,127.9-33,126.5l-30.6,493.2l105.8,8.4l34.2,35.9l48.5-12.2l78.3-505.5
				C458.9,1060.9,458.7,982.4,461.1,932.2"/>
			<g id="Straps_Basic-Shnees-Shin_Right_F_Toggle">
				<path d="M477,1139.8l-55-6.7l-4.6,25.3l55,6.7L477,1139.8"/>
				<path d="M473.2,1137.3l-11.6-1.4l-5.4,29.9l11.6,1.4L473.2,1137.3"/>
				<path d="M438.9,1383.7l-55-6.7l-4.6,25.3l55,6.7L438.9,1383.7"/>
				<path d="M435.2,1381.2l-11.6-1.4l-5.4,29.9l11.6,1.4L435.2,1381.2"/>
			</g>
			<g id="Accent_Basic-Shnees-Shin_Right_F_Toggle">
				<path d="M328.5,876.9l40.2-4.5l40.8,9.5l-93.1,661.7l-49.1-3.9L328.5,876.9"/>
				<path d="M368.6,872.4l-78.5,669.1"/>
			</g>
		</g>
		<g id="Full_Shin_Right_F_Option">
			<path id="Shin_Full-Shin_Right_F" d="M445.2,1063.8c-117.8-25.5-194.2-1.5-194.2-1.5l-22,453.4c0,0,46.3,10,96.1,8.8
				c36.5-0.9,94.3-15.3,94.3-15.3l63.1-387.7C482.4,1121.5,443.6,1115,445.2,1063.8"/>
			<g id="Accent_Full-Shin_Right_F_Toggle">
				<path d="M475.1,1164l-64.8-4.6l-3.4,17.1l65.2,4.6L475.1,1164"/>
				<path d="M471.1,1187.8l-44.3-3.2l-3.4,17.1l44.7,3.3L471.1,1187.8"/>
			</g>
			<g id="Ridge_Full-Shin_Right_F_Toggle">
				<path d="M290.7,1050.6l41.4-5.3l43,3.6l-61.5,475.7c-20.7,0.9-36.1-1.1-60-4.7L290.7,1050.6"/>
				<path d="M332.1,1045.3l-51.7,478.2"/>
			</g>
		</g>
		<g id="Legacy_Shin_Right_F_Option">
			<path id="Plate-3_Legacy-Shin_Right_F" d="M425.4,1324.8l-35.4,165.9c0,0-51.6,12.9-79.8,10.9
				c-28.2-1.9-66.6-15.1-66.6-15.1l7.6-177l77.4,42.9L425.4,1324.8"/>
			<path id="Plate-2_Legacy-Shin_Right_F" d="M452.8,1222.2l-20.4,100.7l-103.8,29.7l-84.1-46.6l3.1-100.7l94,42.6
				L452.8,1222.2"/>
			<path id="Plate-1_Legacy-Shin_Right_F" d="M407.8,1084.3l66.8,66.4l-14.5,69.9l-118.5,27.3l-100.5-45.6l2.3-85.3
				l75.3-41L407.8,1084.3"/>
			<path id="Trauma-Plate-3_Legacy-Shin_Right_F_ToggleOff" d="M268,1339.5l51.9,28.8c4.2,2.3,9.1,2.9,13.7,1.6l68-19.4
				l-26.7,125.5c-15.7,3.5-44.9,9.2-63.4,7.9c-16.4-1.1-36.5-6.4-49.2-10.2L268,1339.5"/>
			<path id="Trauma-Plate-2_Legacy-Shin_Right_F_ToggleOff" d="M264.8,1232.7l69.4,31.5c3.6,1.6,7.6,2,11.5,1.2l84-19.3
				l-12.7,62.5l-86.2,24.6l-68-37.7L264.8,1232.7"/>
			<path id="Trauma-Plate-1_Legacy-Shin_Right_F_ToggleOff" d="M399.7,1101.6l55.3,55l-10.2,49l-101.3,23.3l-84.1-38.1
				l1.7-63l61.4-33.5L399.7,1101.6"/>
			<g id="Ridge_Legacy-Shin_Right_F_ToggleOff">
				<path d="M334.6,1501.4l-6.2,0.6c3.4-0.2,6.7-0.4,9.9-1L334.6,1501.4"/>
				<path d="M308.3,1233.2l-6.9,104.7l27.3,15.2l37.5-10.7l16.7-103.5l-41.2,9.5L308.3,1233.2"/>
				<path d="M301.3,1337.9l-10.7,161.1c12.1,1.9,25.3,3.5,37.8,2.9l6.2-0.6l3.6-0.4l2.4-0.3l25.5-158.3l-37.5,10.7
					L301.3,1337.9"/>
				<path d="M407.7,1084.8l0.1-0.6l-43.4-15l-45.7,6.6l0,0.6l0.1,0l0.2,0l-0.2,0l-0.1,0l-10.4,156.7l33.4,15.1l41.2-9.5
					L407.7,1084.8"/>
				<path d="M364.4,1069.3l-22.8,179.1"/>
				<path d="M341.6,1248.4l-13,104.7"/>
				<path d="M328.6,1353.1l-16.7,148.6"/>
			</g>
		</g>
		<g id="Basic-Round_Shin_Right_F_Option">
			<path id="Shin_Basic-Round-Shin_Right_F" d="M256.7,1153.6c1.6-22.1,25.1-87.6,111.3-73.3
				c103.5,17.1,89.6,103.3,88.2,110.9c-10.6,54.5-58.8,301.8-58.8,301.8c-46.6,21.3-115.1,13.8-153.1-18.6
				C244.4,1474.3,252,1217.4,256.7,1153.6"/>
			<path id="Trauma-Plating_Basic-Round-Shin_Right_F_ToggleOff" d="M264.7,1464.7c1.5-48.3,7.8-253.6,12-309.6
				c0.7-10,7.6-31.7,26.9-45.2c13.7-9.6,33.5-14.5,61.2-9.9c33.7,5.6,52.6,19.2,62.5,35.1c14.3,22.9,10,48.7,9.3,52.2l-56.7,291.1
				C343.5,1490.9,295.6,1485.8,264.7,1464.7"/>
			<g id="Ridge_Basic-Round-Shin_Right_F_ToggleOff">
				<path d="M322.2,1078.4l37.7-5.1l37.5,14.4L337.9,1505c-25.8,1.9-26.3,2.8-47.7-6.5L322.2,1078.4"/>
				<path d="M359.9,1073.3L312.6,1506"/>
			</g>
		</g>
		<g id="Basic_Shin_Right_F_Option">
			<path id="Shin_Basic-Shin_Right_F" d="M241.3,1149.2l48.3-63l107.5,4.8l47.1,89.1l-44.8,315.1
				c-45.4,23.6-114.2,19.6-153.8-10.7L241.3,1149.2"/>
			<path id="Trauma-Plating_Basic-Shin_Right_F_ToggleOff" d="M263.4,1475l-4.1-319.8l38.8-50.5l87.9,3.9l39.6,74.8
				L382.9,1483C346.2,1498.3,296.2,1495.5,263.4,1475"/>
			<g id="Ridge_Basic-Shin_Right_F_ToggleOff">
				<path d="M304.3,1084.9l37.4-7l38.2,12.4l-38,419.9c-25.7,3.2-26.1,4.2-47.9-4L304.3,1084.9"/>
				<path d="M341.7,1077.9l-25.1,434.6"/>
			</g>
		</g>
	</g>
</g>
<g id="Foot_F">
	<g id="Left-Ankle_F">
		<g id="None_Ankle_Left_F_Option">
		</g>
		<g id="Heavy_Ankle_Left_F_Option">
			<path id="Plate_Heavy-Ankle_Left_F" d="M864.3,1542.4l3.2,32.2l65.9,82.6l64.2-29l69.9-18.1l-52.8-93.9
				c-26.7-3.7-57.7-0.5-93.6,10.3l-19.9,17.5L864.3,1542.4"/>
			<path id="Trim_Heavy-Ankle_Left_F" d="M921.2,1526.6l7.5,9.1l-23.5,20l-26.7-1.1l1,13l57.1,70.7l57.3-26.8l69-16.4
				l7.1,14.5l-72.4,18.7l-64.2,29l-65.9-82.6l-3.2-32.2l36.9,1.7L921.2,1526.6"/>
		</g>
		<g id="Legacy_Ankle_Left_F_Option">
			<path id="Plate-2_Legacy-Ankle_Left_F" d="M1035.7,1580l38.5,34.8l26.6,33.3l-42.4,13.8l-97.1-20.2l-35.5-47
				L1035.7,1580"/>
			<path id="Plate-1_Legacy-Ankle_Left_F" d="M860.9,1514.6c0,0,38.8,17.3,96.2,15.3c39.4-1.4,55.4-11.3,55.4-11.3
				l33.3,61.8l-8.6,34.1l-140.5-11l-34.6-29.3L860.9,1514.6"/>
			<path id="Trauma-Plate-2_Legacy-Ankle_Left_F_ToggleOff" d="M1044,1587.5l30,27.1l15.5,19.4l-32.3,10.5l-85.6-17.8
				l-14-18.6l79.5,6.2L1044,1587.5"/>
			<path id="Trauma-Plate-1_Legacy-Ankle_Left_F_ToggleOff" d="M875.6,1536.2l0.6,28.3l28,22.7l123.5,9.7l8.7-34.1
				l-15.7-29.2c-10.4,3-42.1,12.1-62.8,12.9C924.8,1547.7,894,1541,875.6,1536.2"/>
		</g>
		<g id="Basic_Ankle_Left_F_Option">
			<path id="Main_Basic-Ankle_Left_F" d="M1097.1,1637.4l-69.5-122.5c-40.7-2.1-78.9,4.5-114.3,20.9
				c-4.1,1.9-7.2,5.5-8.6,9.8c-0.3,0.9-0.6,1.8-0.9,2.8c-5,15.9-0.4,33.2,11.8,44.6c21.7,20.2,56.3,50.1,77.8,57.5
				C1045,1668.3,1097.1,1637.4,1097.1,1637.4"/>
			<path id="Trauma-Plate_Basic-Ankle_Left_F_ToggleOff" d="M1036.1,1529.9c-34.2-0.6-85.2,6-115.3,19.9l-3,9.6
				c-2,6.4-0.1,13.3,4.8,18c19.6,18.5,54.9,50.9,76.5,58.4c29.1,10,73.1-5.9,89.8-12.7L1036.1,1529.9"/>
		</g>
	</g>
	<g id="Left-Toe_F">
		<g id="Armored_Toe_Left_F_Option">
			<g id="Plate_Armored_Toe_Left_F">
				<path d="M947,1678.1l102.1,56.7l77.1,5.3l61.8-15.7c12.9-10.8,18.1-35,7-59.2l-87-41.4l-68.3,17.1L947,1678.1"/>
				<path d="M1032.5,1644c0,0,79.6,23.3,89.6,37.1c11,15.3,4.1,58.9,4.1,58.9"/>
			</g>
			<g id="Trim_Armored_Toe_Left_F">
				<path d="M1096,1617.1l-82,19.8l-69.1,42l14.3,7.9l73.3-42.9l81.6-19.2L1096,1617.1"/>
				<path d="M1014.1,1637l18.4,7"/>
			</g>
		</g>
		<g id="Spikes_Toe_Left_F_Option">
			<path d="M1086.2,1749.2c31.4-5.5,63.1-13.1,95.1-22.7c1.5-0.5,3.1-0.2,4.4,0.7c1.3,0.9,2,2.4,2.1,3.9
				c0.1,3.6,0.2,7.9,0.3,10.8c0.1,2-1.1,3.9-3,4.8c-24.8,10.7-56.3,17.9-92.8,22.4c-1.4,0.2-2.8-0.3-3.9-1.2
				c-1.1-0.9-1.7-2.3-1.8-3.7C1086.5,1758.3,1086.2,1749.2,1086.2,1749.2"/>
			<path d="M1137.5,1770c0,0-27.2-3.1-39.4-4.4c-2-0.2-3.8-1.2-5-2.8c-1.2-1.6-1.8-3.6-1.5-5.5
				c0.7-5.3,4.5-7.9,11.5-7.7c2.2,0,4.4,0.7,6.3,2C1116.6,1756.3,1137.5,1770,1137.5,1770"/>
			<path d="M1211.9,1748.2c0,0-24.4-2.1-35.4-3.1c-1.9-0.2-3.6-1.2-4.6-2.7c-1.1-1.6-1.4-3.5-0.9-5.3
				c1-3.7,4.1-5.5,9.5-5.4c1.8,0,3.5,0.5,5.1,1.4C1192.1,1736.8,1211.9,1748.2,1211.9,1748.2"/>
		</g>
		<g id="None_Toe_Left_F_Option">
		</g>
	</g>
	<g id="Right-Ankle_F">
		<g id="None_Ankle_Right_F_Option">
		</g>
		<g id="Heavy_Ankle_Right_F_Option">
			<path id="Plate_Heavy-Ankle_Right_F" d="M401.3,1542.4l-3.2,32.2l-65.9,82.6l-64.2-29l-69.9-18.1l52.8-93.9
				c26.7-3.7,57.7-0.5,93.6,10.3l19.9,17.5L401.3,1542.4"/>
			<path id="Trim_Heavy-Ankle_Right_F" d="M344.5,1526.6l-7.5,9.1l23.5,20l26.7-1.1l-1,13l-57.1,70.7l-57.3-26.8
				l-69-16.4l-7.1,14.5l72.4,18.7l64.2,29l65.9-82.6l3.2-32.2l-36.9,1.7L344.5,1526.6"/>
		</g>
		<g id="Legacy_Ankle_Right_F_Option">
			<path id="Plate-2_Legacy-Ankle_Right_F" d="M230,1580l-38.5,34.8l-26.6,33.3l42.4,13.8l97.1-20.2l35.5-47L230,1580"
				/>
			<path id="Plate-1_Legacy-Ankle_Right_F" d="M404.7,1514.6c0,0-38.8,17.3-96.2,15.3c-39.4-1.4-55.4-11.3-55.4-11.3
				l-33.3,61.8l8.6,34.1l140.5-11l34.6-29.3L404.7,1514.6"/>
			<path id="Trauma-Plate-2_Legacy-Ankle_Right_F_ToggleOff" d="M221.7,1587.5l-30,27.1l-15.5,19.4l32.3,10.5l85.6-17.8
				l14-18.6l-79.5,6.2L221.7,1587.5"/>
			<path id="Trauma-Plate-1_Legacy-Ankle_Right_F_ToggleOff" d="M390,1536.2l-0.6,28.3l-28,22.7l-123.5,9.7l-8.7-34.1
				l15.7-29.2c10.4,3,42.1,12.1,62.8,12.9C340.8,1547.7,371.6,1541,390,1536.2"/>
		</g>
		<g id="Basic_Ankle_Right_F_Option">
			<path id="Main_Basic-Ankle_Right_F" d="M168.5,1637.4l69.5-122.5c40.7-2.1,78.9,4.5,114.3,20.9
				c4.1,1.9,7.2,5.5,8.6,9.8c0.3,0.9,0.6,1.8,0.9,2.8c5,15.9,0.4,33.2-11.8,44.6c-21.7,20.2-56.3,50.1-77.8,57.5
				C220.6,1668.3,168.5,1637.4,168.5,1637.4"/>
			<path id="Trauma-Plate_Basic-Ankle_Right_F_ToggleOff" d="M229.5,1529.9c34.2-0.6,85.2,6,115.3,19.9l3,9.6
				c2,6.4,0.1,13.3-4.8,18c-19.6,18.5-54.9,50.9-76.5,58.4c-29.1,10-73.1-5.9-89.8-12.7L229.5,1529.9"/>
		</g>
	</g>
	<g id="Right-Toe_F">
		<g id="Armored_Toe_Right_F_Option">
			<g id="Plate_Armored_Toe_Right_F">
				<path d="M318,1678.1l-102.1,56.7l-77.1,5.3l-61.8-15.7c-12.9-10.8-18.1-35-7-59.2l87-41.4l68.3,17.1L318,1678.1"/>
				<path d="M232.5,1644c0,0-79.6,23.3-89.5,37.1c-11,15.3-4.1,58.9-4.1,58.9"/>
			</g>
			<g id="Trim_Armored_Toe_Right_F">
				<path d="M169,1617.1l81.9,19.8l69.1,42l-14.3,7.9l-73.3-42.9l-81.6-19.2L169,1617.1"/>
				<path d="M250.9,1637l-18.4,7"/>
			</g>
		</g>
		<g id="Spikes_Toe_Right_F_Option">
			<path d="M178.8,1749.2c-31.4-5.5-63.1-13.1-95.1-22.7c-1.5-0.5-3.1-0.2-4.4,0.7c-1.3,0.9-2,2.4-2.1,3.9
				c-0.1,3.6-0.2,7.9-0.3,10.8c-0.1,2,1.1,3.9,3,4.8c24.8,10.7,56.3,17.9,92.8,22.4c1.4,0.2,2.8-0.3,3.9-1.2
				c1.1-0.9,1.7-2.3,1.8-3.7C178.5,1758.3,178.8,1749.2,178.8,1749.2"/>
			<path d="M127.5,1770c0,0,27.2-3.1,39.4-4.4c2-0.2,3.8-1.2,5-2.8c1.2-1.6,1.8-3.6,1.5-5.5c-0.7-5.3-4.5-7.9-11.5-7.7
				c-2.2,0-4.4,0.7-6.3,2C148.4,1756.3,127.5,1770,127.5,1770"/>
			<path d="M53.1,1748.2c0,0,24.5-2.1,35.4-3.1c1.9-0.2,3.6-1.2,4.6-2.7c1.1-1.6,1.4-3.5,0.9-5.3
				c-1-3.7-4.1-5.5-9.5-5.4c-1.8,0-3.5,0.5-5.1,1.4C72.9,1736.8,53.1,1748.2,53.1,1748.2"/>
		</g>
		<g id="None_Toe_Right_F_Option">
		</g>
	</g>
</g>
<g id="Knees_F">
	<g id="Left-Knee_F">
		<g id="None-(Nih-Plates)_Knee_Left_F_Option">
		</g>
		<g id="Long_Knee_Left_F_Option">
			<g id="Missiles_Long-Knee_Left_F_ToggleOff">
				<path id="Base_Missiles_Long-Knee_Left_F" d="M979.2,979.1l8.6,103.4l23.8-15.7c3.9-2.5,6.1-7,5.8-11.6
					c-0.9-14.1-2.8-44.5-3.8-60.6c-0.4-6.1-4.9-11-10.9-12L979.2,979.1z"/>
				<g id="Missile-2_Missiles_Long-Knee_Left_F">
					<path d="M998.7,1037.5c-6,1-10,6.6-9,12.6c1,6,6.7,10.1,12.7,9.1c6-1,10-6.6,9-12.6
						C1010.4,1040.6,1004.7,1036.5,998.7,1037.5z"/>
					<path d="M999.4,1041.1c-4,0.6-6.8,4.5-6.1,8.5c0.7,4,4.5,6.8,8.6,6.1c4-0.7,6.8-4.5,6.1-8.5
						C1007.3,1043.2,1003.5,1040.4,999.4,1041.1z"/>
				</g>
				<g id="Missile-1_Missiles_Long-Knee_Left_F">
					<path d="M995.4,989.8c-6,1-10.1,6.6-9,12.6c1,6,6.7,10.1,12.7,9.1c6-1,10.1-6.6,9-12.6
						C1007.1,992.9,1001.4,988.8,995.4,989.8z"/>
					<path d="M996.1,993.3c-4,0.7-6.8,4.5-6.1,8.5c0.7,4,4.5,6.8,8.6,6.1c4-0.6,6.8-4.5,6.1-8.5
						C1004,995.4,1000.2,992.7,996.1,993.3z"/>
				</g>
			</g>
			<g id="Straps_Long-Knee_Left_F">
				<path d="M777.1,971.1l12.6-1.9l4.2,27.7l-12.5,1.9L777.1,971.1z"/>
				<path d="M771,975.5l6.6-1l3.2,20.9l-6.6,1L771,975.5z"/>
				<path d="M986.7,967.3l-12.6,1.9l-4.2-27.7l12.6-1.9L986.7,967.3z"/>
				<path d="M992.9,962.9l-6.6,1L983,943l6.6-1L992.9,962.9z"/>
			</g>
			<g id="Knee_Long-Knee_Left_F">
				<path d="M936.3,859.5L795.1,883l-9.3,97.5l75.7,301.8l141.2-23.5l-26.1-310L936.3,859.5z"/>
				<path d="M936.3,859.5l2.1,90.7l64.3,308.5"/>
				<path d="M795.1,883l28.3,86.4l38.1,312.9"/>
				<path d="M938.4,950.2l-115,19.1"/>
			</g>
		</g>
		<g id="Heavy_Knee_Left_F_Option">
			<g id="Missiles_Heavy-Knee_Left_F_ToggleOff">
				<path id="Base_Missiles_Heavy-Knee_Left_F" d="M989.7,929.3l18.9,102l22.1-18c3.6-2.9,5.3-7.5,4.6-12.1
					c-2.3-13.9-7.2-44-9.8-59.9c-1-6-6-10.5-12.1-10.8L989.7,929.3z"/>
				<g id="Missile-2_Missiles_Heavy-Knee_Left_F">
					<path d="M1015,985.5c-5.9,1.6-9.3,7.6-7.7,13.4c1.6,5.9,7.7,9.4,13.6,7.8c5.9-1.5,9.3-7.6,7.7-13.4
						C1027,987.4,1020.9,983.9,1015,985.5z"/>
					<path d="M1016.1,989c-4,1-6.3,5.1-5.2,9c1.1,3.9,5.2,6.3,9.1,5.3c4-1,6.3-5.1,5.2-9
						C1024.1,990.3,1020,987.9,1016.1,989z"/>
				</g>
				<g id="Missile-1_Missiles_Heavy-Knee_Left_F">
					<path d="M1007,938.3c-5.9,1.6-9.3,7.6-7.7,13.5c1.6,5.9,7.7,9.4,13.6,7.8s9.4-7.6,7.8-13.5
						C1018.9,940.3,1012.8,936.8,1007,938.3z"/>
					<path d="M1008,941.8c-4,1-6.3,5.1-5.2,9.1c1.1,3.9,5.2,6.3,9.1,5.3c4-1,6.3-5.1,5.2-9.1
						C1016.1,943.1,1012,940.8,1008,941.8z"/>
				</g>
			</g>
			<path id="Plate-2_Heavy-Knee_Left_F" d="M970.2,883L940,864.7l-151.1,26L766.9,918l29.6,151.5l59.5,1.4l84.9-14.6
				l59-21.4L970.2,883z"/>
			<g id="Plate-1_Heavy-Knee_Left_F">
				<path d="M962.9,891.4L935,873.7l-138.4,23.8l-19.9,26l28.6,146.2l50.6,1.3l84.9-14.6l50.6-18.7L962.9,891.4z"/>
				<path d="M914.4,911.9l-84.9,14.6l26.4,144.4l44-1.7l40.9-12.9L914.4,911.9z"/>
				<path d="M829.6,926.5l-32.9-29l-19.9,26L829.6,926.5z"/>
				<path d="M914.4,911.9l20.6-38.2l27.9,17.7L914.4,911.9z"/>
			</g>
			<g id="Trim_Heavy-Knee_Left_F">
				<path d="M767.3,970l-4.7,11.5l16.7,91.5l6.6-1.1L767.3,970z"/>
				<path d="M923.5,1013.1l-66.6,11.5l6.5,35.7l66.6-11.5L923.5,1013.1z"/>
				<path d="M773.8,953.5l-9.3,1.6l21.4,116.7l10.9-1.9l-0.1-0.5l-0.2,0L773.8,953.5z"/>
				<path d="M979.3,929.3l20.6,105.6l-1.9,0.7l10.9-1.9l-19.4-106.2L979.3,929.3z"/>
			</g>
		</g>
		<g id="Galaxy_Knee_Left_F_Option">
			<g id="Missiles_Galaxy-Knee_Left_F_ToggleOff">
				<path id="Base_Missiles_Galaxy-Knee_Left_F" d="M986.6,932.6l-33.1,98.3l28.1-4.9c4.6-0.8,8.3-4,9.9-8.3
					c4.8-13.3,15.1-42,20.6-57.1c2.1-5.7-0.1-12.1-5.3-15.3L986.6,932.6z"/>
				<g id="Missile-2_Missiles_Galaxy-Knee_Left_F">
					<path d="M981.3,994c-5.9-1.5-11.8,2.1-13.3,8c-1.4,5.9,2.2,11.9,8,13.4c5.9,1.5,11.8-2.1,13.3-8
						C990.8,1001.5,987.2,995.5,981.3,994z"/>
					<path d="M980.5,997.5c-4-1-8,1.4-8.9,5.4c-1,4,1.5,8,5.4,9c4,1,8-1.4,8.9-5.4
						C986.9,1002.5,984.5,998.5,980.5,997.5z"/>
				</g>
				<g id="Missile-1_Missiles_Galaxy-Knee_Left_F">
					<path d="M997.2,948.9c-5.9-1.5-11.9,2.1-13.3,8c-1.4,5.9,2.2,11.9,8.1,13.4c5.9,1.5,11.9-2.1,13.3-8
						C1006.7,956.4,1003.1,950.4,997.2,948.9z"/>
					<path d="M996.4,952.4c-4-1-8,1.4-9,5.4c-1,4,1.5,8,5.4,9c4,1,8-1.4,9-5.4C1002.8,957.4,1000.4,953.4,996.4,952.4z"
						/>
				</g>
			</g>
			<g id="Strap_Galaxy-Knee_Left_F">
				<path d="M771.4,944.2l29.7-4.5l4.2,27.7l-29.7,4.5L771.4,944.2z"/>
				<path d="M756.2,950l15.7-2.4l3.2,20.9l-15.7,2.4L756.2,950z"/>
			</g>
			<path id="Knee_Galaxy-Knee_Left_F" d="M946.5,1051.6l42.4-126.4L944,873.4l-131.2,20l-27.4,62.8l78.1,108
				L946.5,1051.6z"/>
			<g id="Trim_Galaxy-Knee_Left_F">
				<path d="M853.4,887.2l50-7.6l5,33.1l-50,7.6L853.4,887.2z"/>
				<path d="M785.4,956.2c47.1,2.8,94.6,105.5,94.6,105.5l-16.5,2.5L785.4,956.2z"/>
				<path d="M988.8,925.2c-44.1,16.7-58.9,128.9-58.9,128.9l16.5-2.5L988.8,925.2z"/>
			</g>
		</g>
		<g id="Legacy_Knee_Left_F_Option">
			<g id="Missiles_Legacy-Knee_Left_F_ToggleOff">
				<path id="Base_Missiles_Legacy-Knee_Left_F" d="M989.9,898.3l1.9,103.7l24.8-14.1c4-2.3,6.5-6.6,6.5-11.2
					c0-14.1,0.1-44.6,0.2-60.7c0-6.1-4.2-11.3-10.1-12.6L989.9,898.3z"/>
				<g id="Missile-2_Missiles_Legacy-Knee_Left_F">
					<path d="M1005.6,957.9c-6.1,0.6-10.5,6-9.8,12c0.6,6,6,10.5,12.1,9.9c6-0.6,10.5-5.9,9.8-12
						C1017.1,961.7,1011.7,957.3,1005.6,957.9z"/>
					<path d="M1006.1,961.5c-4.1,0.4-7,4-6.6,8.1c0.4,4.1,4.1,7.1,8.1,6.7c4.1-0.4,7-4,6.6-8.1
						C1013.8,964.1,1010.1,961.1,1006.1,961.5z"/>
				</g>
				<g id="Missile-1_Missiles_Legacy-Knee_Left_F">
					<path d="M1005.4,910c-6.1,0.6-10.5,6-9.8,12c0.6,6.1,6,10.5,12.1,9.9c6.1-0.6,10.5-6,9.8-12
						C1016.9,913.9,1011.5,909.5,1005.4,910z"/>
					<path d="M1005.8,913.6c-4.1,0.4-7,4-6.6,8.1c0.4,4.1,4.1,7.1,8.1,6.7c4.1-0.4,7-4,6.6-8.1
						S1009.9,913.2,1005.8,913.6z"/>
				</g>
			</g>
			<path id="Plate-2_Legacy-Knee_Left_F" d="M975.3,958.7L932.8,929l-95,14.8l-37,42l30.5,102.7h75.2l71-22.7
				L975.3,958.7z"/>
			<path id="Plate-1_Legacy-Knee_Left_F" d="M989.7,889.3l-54.5-38.1l-121.8,18.9L765.9,924l39.1,131.7l99.3-0.9
				l88.2-28.2L989.7,889.3z"/>
		</g>
		<g id="Basic_Knee_Left_F_Option">
			<g id="Missiles_Basic-Knee_Left_F_ToggleOff">
				<path id="Base_Missiles_Basic-Knee_Left_F" d="M986.1,893.2c0.1,0.4,0.2,0.9,0.2,1.3c2.1,20.6,5.7,64.5,4.2,102.3
					l24.4-14.7c4-2.4,6.3-6.7,6.2-11.3c-0.3-14.1-1-44.6-1.3-60.7c-0.1-6.1-4.5-11.2-10.4-12.4L986.1,893.2z"/>
				<g id="Missile-2_Missiles_Basic-Knee_Left_F">
					<path d="M1003.3,952.4c-6,0.7-10.3,6.2-9.5,12.2c0.8,6,6.3,10.3,12.3,9.6c6-0.7,10.3-6.2,9.5-12.2
						C1014.9,956,1009.4,951.7,1003.3,952.4z"/>
					<path d="M1003.9,956c-4.1,0.5-6.9,4.2-6.4,8.2c0.5,4.1,4.2,7,8.3,6.5s6.9-4.2,6.4-8.2
						C1011.7,958.4,1007.9,955.5,1003.9,956z"/>
				</g>
				<g id="Missile-1_Missiles_Basic-Knee_Left_F">
					<path d="M1001.9,904.6c-6,0.7-10.3,6.2-9.5,12.2c0.8,6,6.3,10.3,12.3,9.6c6-0.7,10.3-6.2,9.5-12.2
						C1013.5,908.2,1008,903.9,1001.9,904.6z"/>
					<path d="M1002.5,908.2c-4.1,0.5-6.9,4.2-6.4,8.2c0.5,4.1,4.2,7,8.3,6.5c4.1-0.5,6.9-4.2,6.4-8.2
						C1010.3,910.6,1006.5,907.7,1002.5,908.2z"/>
				</g>
			</g>
			<g id="Knee_Basic-Knee_Left_F">
				<path d="M759.1,915.8l15.2-2.5c0,0,11.5,73.9,16.6,106.6c1.3,8.4-4.4,16.3-12.8,17.7c0,0,0,0,0,0L759.1,915.8z"/>
				<path d="M773.8,910.3l8.7,54.8c11.1-6.3,39.2,5.3,48.4,38.2c16.8,60.4,31.5,74.3,84.2,68.8
					c41-4.2,70.3-23.5,73.7-51.9c4.9-41.1,0-100.6-2.5-125.7c-0.3-3.1-1.9-6-4.4-7.9c-2.5-1.9-5.6-2.8-8.7-2.4
					C928.8,890,773.8,910.3,773.8,910.3z"/>
				<path d="M768.6,911.1l5.2-0.8l9.7,59.3l-5.2,0.8L768.6,911.1z"/>
			</g>
		</g>
	</g>
	<g id="Right-Knee_F">
		<g id="None-(Nih-Plates)_Knee_Right_F_Option">
		</g>
		<g id="Long_Knee_Right_F_Option">
			<g id="Missiles_Long-Knee_Right_F_ToggleOff">
				<path id="Base_Missiles_Long-Knee_Right_F" d="M285.8,979.1l-8.6,103.4l-23.8-15.7c-3.9-2.5-6.1-7-5.8-11.6
					c0.9-14.1,2.8-44.5,3.8-60.6c0.4-6.1,4.9-11,10.9-12L285.8,979.1z"/>
				<g id="Missile-2_Missiles_Long-Knee_Right_F">
					<path d="M266.3,1037.5c6,1,10,6.6,9,12.6c-1,6-6.7,10.1-12.7,9.1c-6-1-10-6.6-9-12.6
						C254.6,1040.6,260.3,1036.5,266.3,1037.5z"/>
					<path d="M265.6,1041.1c4,0.6,6.8,4.5,6.1,8.5c-0.7,4-4.5,6.8-8.6,6.1c-4-0.7-6.8-4.5-6.1-8.5
						C257.7,1043.2,261.5,1040.4,265.6,1041.1z"/>
				</g>
				<g id="Missile-1_Missiles_Long-Knee_Right_F">
					<path d="M269.6,989.8c6,1,10.1,6.6,9,12.6c-1,6-6.7,10.1-12.7,9.1c-6-1-10.1-6.6-9-12.6
						C257.9,992.9,263.6,988.8,269.6,989.8z"/>
					<path d="M268.9,993.3c4,0.7,6.8,4.5,6.1,8.5c-0.7,4-4.5,6.8-8.6,6.1c-4-0.6-6.8-4.5-6.1-8.5
						C261,995.4,264.9,992.7,268.9,993.3z"/>
				</g>
			</g>
			<g id="Straps_Long-Knee_Right_F">
				<path d="M487.9,971.1l-12.6-1.9l-4.2,27.7l12.6,1.9L487.9,971.1z"/>
				<path d="M494,975.5l-6.6-1l-3.2,20.9l6.6,1L494,975.5z"/>
				<path d="M278.3,967.3l12.6,1.9l4.2-27.7l-12.6-1.9L278.3,967.3z"/>
				<path d="M272.1,962.9l6.6,1L282,943l-6.6-1L272.1,962.9z"/>
			</g>
			<g id="Knee_Long-Knee_Right_F">
				<path d="M328.7,859.5L469.9,883l9.3,97.5l-75.7,301.8l-141.2-23.5l26.1-310L328.7,859.5z"/>
				<path d="M328.7,859.5l-2.1,90.7l-64.3,308.5"/>
				<path d="M469.9,883l-28.3,86.4l-38.1,312.9"/>
				<path d="M326.6,950.2l115,19.1"/>
			</g>
		</g>
		<g id="Heavy_Knee_Right_F_Option">
			<g id="Missiles_Heavy-Knee_Right_F_ToggleOff">
				<path id="Base_Missiles_Heavy-Knee_Right_F" d="M275.3,929.3l-18.8,102l-22.1-18c-3.6-2.9-5.3-7.5-4.6-12.1
					c2.3-13.9,7.2-44,9.8-59.9c1-6,6-10.5,12.1-10.8L275.3,929.3z"/>
				<g id="Missile-2_Missiles_Heavy-Knee_Right_F">
					<path d="M250,985.5c5.9,1.6,9.3,7.6,7.7,13.4c-1.6,5.9-7.7,9.4-13.6,7.8c-5.9-1.5-9.3-7.6-7.7-13.4
						C238,987.4,244.1,983.9,250,985.5z"/>
					<path d="M248.9,989c4,1,6.3,5.1,5.2,9c-1.1,3.9-5.2,6.3-9.1,5.3c-4-1-6.3-5.1-5.2-9S245,987.9,248.9,989z"/>
				</g>
				<g id="Missile-1_Missiles_Heavy-Knee_Right_F">
					<path d="M258,938.3c5.9,1.6,9.3,7.6,7.7,13.5c-1.6,5.9-7.7,9.4-13.6,7.8s-9.3-7.6-7.7-13.5S252.1,936.8,258,938.3z
						"/>
					<path d="M257,941.8c4,1,6.3,5.1,5.2,9.1c-1.1,3.9-5.2,6.3-9.1,5.3c-4-1-6.3-5.1-5.2-9.1
						C248.9,943.1,253,940.8,257,941.8z"/>
				</g>
			</g>
			<path id="Plate-2_Heavy-Knee_Right_F" d="M294.8,883l30.3-18.3l151.1,26l21.9,27.3l-29.6,151.5l-59.5,1.4l-84.9-14.6
				l-59-21.4L294.8,883z"/>
			<g id="Plate-1_Heavy-Knee_Right_F">
				<path d="M302.1,891.4l27.9-17.7l138.4,23.8l19.9,26l-28.6,146.2l-50.6,1.3l-84.9-14.6l-50.6-18.7L302.1,891.4z"/>
				<path d="M350.6,911.9l84.9,14.6L409,1070.9l-44-1.7l-40.9-12.9L350.6,911.9z"/>
				<path d="M435.4,926.5l32.9-29l19.9,26L435.4,926.5z"/>
				<path d="M350.6,911.9L330,873.7l-27.9,17.7L350.6,911.9z"/>
			</g>
			<g id="Trim_Heavy-Knee_Right_F">
				<path d="M497.7,970l4.7,11.5l-16.7,91.5l-6.6-1.1L497.7,970z"/>
				<path d="M341.5,1013.1l66.6,11.5l-6.5,35.7l-66.6-11.5L341.5,1013.1z"/>
				<path d="M491.2,953.5l9.3,1.6l-21.4,116.7l-10.9-1.9l0.1-0.5l0.2,0L491.2,953.5z"/>
				<path d="M285.7,929.3l-20.6,105.6l1.9,0.7l-10.9-1.9l19.4-106.2L285.7,929.3z"/>
			</g>
		</g>
		<g id="Galaxy_Knee_Right_F_Option">
			<g id="Missiles_Galaxy-Knee_Right_F_ToggleOff">
				<path id="Base_Missiles_Galaxy-Knee_Right_F" d="M278.4,932.6l33.1,98.3l-28.1-4.9c-4.6-0.8-8.3-4-9.9-8.3
					c-4.8-13.3-15.1-42-20.6-57.1c-2.1-5.7,0.1-12.1,5.3-15.3L278.4,932.6z"/>
				<g id="Missile-2_Missiles_Galaxy-Knee_Right_F">
					<path d="M283.7,994c5.9-1.5,11.8,2.1,13.3,8c1.4,5.9-2.2,11.9-8.1,13.4c-5.9,1.5-11.8-2.1-13.3-8
						C274.2,1001.5,277.8,995.5,283.7,994z"/>
					<path d="M284.5,997.5c4-1,8,1.4,8.9,5.4c1,4-1.5,8-5.4,9c-4,1-8-1.4-8.9-5.4C278.1,1002.5,280.5,998.5,284.5,997.5
						z"/>
				</g>
				<g id="Missile-1_Missiles_Galaxy-Knee_Right_F">
					<path d="M267.8,948.9c5.9-1.5,11.9,2.1,13.3,8c1.4,5.9-2.2,11.9-8.1,13.4c-5.9,1.5-11.9-2.1-13.3-8
						C258.3,956.4,261.9,950.4,267.8,948.9z"/>
					<path d="M268.6,952.4c4-1,8,1.4,9,5.4s-1.5,8-5.4,9c-4,1-8-1.4-9-5.4C262.2,957.4,264.6,953.4,268.6,952.4z"/>
				</g>
			</g>
			<g id="Strap_Galaxy-Knee_Right_F">
				<path d="M493.6,944.2l-29.7-4.5l-4.2,27.7l29.7,4.5L493.6,944.2z"/>
				<path d="M508.8,950l-15.7-2.4l-3.2,20.9l15.7,2.4L508.8,950z"/>
			</g>
			<path id="Knee_Galaxy-Knee_Right_F" d="M318.5,1051.6l-42.4-126.4l44.9-51.8l131.2,20l27.4,62.8l-78.1,108
				L318.5,1051.6z"/>
			<g id="Trim_Galaxy-Knee_Right_F">
				<path d="M411.6,887.2l-50-7.6l-5,33.1l50,7.6L411.6,887.2z"/>
				<path d="M479.6,956.2c-47.1,2.8-94.6,105.5-94.6,105.5l16.5,2.5L479.6,956.2z"/>
				<path d="M276.2,925.2c44.1,16.7,58.9,128.9,58.9,128.9l-16.5-2.5L276.2,925.2z"/>
			</g>
		</g>
		<g id="Legacy_Knee_Right_F_Option">
			<g id="Missiles_Legacy-Knee_Right_F_ToggleOff">
				<path id="Base_Missiles_Legacy-Knee_Right_F" d="M275.1,898.3l-1.9,103.7l-24.8-14.1c-4-2.3-6.5-6.6-6.5-11.2
					c0-14.1-0.1-44.6-0.2-60.7c0-6.1,4.2-11.3,10.1-12.6L275.1,898.3z"/>
				<g id="Missile-2_Missiles_Legacy-Knee_Right_F">
					<path d="M259.4,957.9c6.1,0.6,10.5,6,9.8,12c-0.6,6-6,10.5-12.1,9.9c-6.1-0.6-10.5-5.9-9.8-12
						C247.9,961.7,253.3,957.3,259.4,957.9z"/>
					<path d="M258.9,961.5c4.1,0.4,7,4,6.6,8.1c-0.4,4.1-4.1,7.1-8.1,6.7c-4.1-0.4-7-4-6.6-8.1
						C251.2,964.1,254.9,961.1,258.9,961.5z"/>
				</g>
				<g id="Missile-1_Missiles_Legacy-Knee_Right_F">
					<path d="M259.6,910c6.1,0.6,10.5,6,9.8,12c-0.6,6.1-6,10.5-12.1,9.9c-6.1-0.6-10.5-6-9.8-12
						C248.1,913.9,253.5,909.5,259.6,910z"/>
					<path d="M259.1,913.6c4.1,0.4,7,4,6.6,8.1c-0.4,4.1-4.1,7.1-8.1,6.7c-4.1-0.4-7-4-6.6-8.1
						C251.4,916.2,255.1,913.2,259.1,913.6z"/>
				</g>
			</g>
			<path id="Plate-2_Legacy-Knee_Right_F" d="M289.7,958.7l42.5-29.7l95,14.8l37,42l-30.5,102.7h-75.2l-71-22.7
				L289.7,958.7z"/>
			<path id="Plate-1_Legacy-Knee_Right_F" d="M275.3,889.3l54.5-38.1l121.8,18.9l47.5,53.9L460,1055.8l-99.3-0.9
				l-88.2-28.2L275.3,889.3z"/>
		</g>
		<g id="Basic_Knee_Right_F_Option">
			<g id="Missiles_Basic-Knee_Right_F_ToggleOff">
				<path id="Base_Missiles_Basic-Knee_Right_F" d="M278.9,893.2c-0.1,0.4-0.2,0.9-0.2,1.3
					c-2.1,20.6-5.7,64.5-4.2,102.3L250,982.2c-4-2.4-6.3-6.7-6.2-11.3c0.3-14.1,1-44.6,1.3-60.7c0.1-6.1,4.5-11.2,10.4-12.4
					L278.9,893.2z"/>
				<g id="Missile-2_Missiles_Basic-Knee_Right_F">
					<path d="M261.7,952.4c6,0.7,10.3,6.2,9.5,12.2c-0.8,6-6.3,10.3-12.3,9.6c-6-0.7-10.3-6.2-9.5-12.2
						C250.1,956,255.6,951.7,261.7,952.4z"/>
					<path d="M261.1,956c4.1,0.5,6.9,4.2,6.4,8.2c-0.5,4.1-4.2,7-8.3,6.5c-4.1-0.5-6.9-4.2-6.4-8.2
						C253.4,958.4,257.1,955.5,261.1,956z"/>
				</g>
				<g id="Missile-1_Missiles_Basic-Knee_Right_F">
					<path d="M263.1,904.6c6,0.7,10.3,6.2,9.5,12.2c-0.8,6-6.3,10.3-12.3,9.6c-6-0.7-10.3-6.2-9.5-12.2
						C251.5,908.2,257,903.9,263.1,904.6z"/>
					<path d="M262.5,908.2c4.1,0.5,6.9,4.2,6.4,8.2c-0.5,4.1-4.2,7-8.3,6.5c-4.1-0.5-6.9-4.2-6.4-8.2
						C254.7,910.6,258.5,907.7,262.5,908.2z"/>
				</g>
			</g>
			<g id="Knee_Basic-Knee_Right_F">
				<path d="M505.9,915.8l-15.2-2.5c0,0-11.5,73.9-16.6,106.6c-1.3,8.4,4.4,16.3,12.8,17.7c0,0,0,0,0,0L505.9,915.8z"/>
				<path d="M491.2,910.3l-8.7,54.8c-11.1-6.3-39.2,5.3-48.4,38.2c-16.8,60.4-31.5,74.3-84.2,68.8
					c-41-4.2-70.3-23.5-73.7-51.9c-4.9-41.1,0-100.6,2.5-125.7c0.3-3.1,1.9-6,4.4-7.9c2.5-1.9,5.6-2.8,8.7-2.4
					C336.2,890,491.2,910.3,491.2,910.3z"/>
				<path d="M496.4,911.1l-5.2-0.8l-9.7,59.3l5.2,0.8L496.4,911.1z"/>
			</g>
		</g>
	</g>
</g>
<g id="Thighs_F">
	<g id="Left-Thigh_F">
		<g id="None_Thigh_Left_F_Option">
		</g>
		<g id="Pocket_Thigh_Left_F_Option">
			<path d="M970.1,552.5c5.8,68.8,14,134.1,24.3,196c2.1,12.4-1.1,25-8.8,34.9c-7.7,9.9-19.3,16-31.8,17
				c-56.7,4.6-114.2,13.3-172.1,24.4c-9.7,1.9-19.8-0.3-27.9-6c-8.1-5.7-13.5-14.5-15-24.3c-9.8-65.1-29.4-196.2-37.1-247.1
				c-1.7-11.5,6.2-22.3,17.7-24.1c25.6-4,65.8-10.4,65.8-10.4L970.1,552.5"/>
			<path d="M943.4,487.3c8-1.3,15.9,3.2,18.9,10.8c9.8,26.1,18.2,67.8,11.7,89.2c-8.5,27.7-94.7,187.2-116.1,226.6
				c-3,5.5-8.4,9.2-14.6,9.9c-12.3,1.4-33.5,3.9-47.5,5.6c-7.8,0.9-14.9-4.5-16-12.3c-7.1-47.4-30.3-202.6-39.2-262.4
				c-2.2-14.5-12.5-26.4-26.6-30.4l0,0C713.8,524.2,892.8,495.4,943.4,487.3"/>
			<path id="Stitch_Left" d="M940.8,487.7c18.3-2.5,31.4,72.5,25.5,91.9c-7.7,25-93.7,190.2-113,225.8
				c-2.7,5-7.6,8.3-13.2,9l-37.1,5.4c-7,0.8-13.5-4.1-14.5-11.1c-6.4-42.8-31.4-209.2-39.8-263.1c-3-19.1-23.2-23.1-23.2-23.1"/>
			<path d="M718.6,523.4l223.1-35.8"/>
		</g>
		<g id="Heavy_Thigh_Left_F_Option">
			<g id="Thigh_Heavy-Thigh_Left_F">
				<path d="M746.8,484.7l-61.2,78.1l70,279.8l47.6,16.9L770,540.6L746.8,484.7"/>
				<path d="M903.2,468.5l76,63.8l-11,288.2l-43.1,26.4L892,527.9L903.2,468.5"/>
				<path d="M903.2,468.5l-156.4,16.3l23.2,55.8l122-12.7L903.2,468.5"/>
				<path d="M892,527.9l-122,12.7l33.1,318.9l122-12.7L892,527.9"/>
			</g>
			<g id="Trim_Heavy-Thigh_Left_F">
				<path d="M909.3,444l-173.6,18l11,22.7l156.4-16.3L909.3,444"/>
				<path d="M976.2,504.9l-66.8-61l-6.1,24.5l76,63.8L976.2,504.9"/>
				<path d="M682.9,535.4l52.9-73.4l11,22.7l-61.2,78.1L682.9,535.4"/>
			</g>
		</g>
		<g id="Legacy_Thigh_Left_F_Option">
			<path id="Plate-3_Legacy-Thigh_Left_F" d="M748.6,723.3l19.4,113l109.4,17l88.4-38.6l4.3-115.4l-100.6,47.3
				L748.6,723.3"/>
			<path id="Plate-2_Legacy-Thigh_Left_F" d="M724.3,614.5l18.7,107.8l126.5,24.3l106.4-50l5.2-131.3l-120.2,76.8
				L724.3,614.5"/>
			<path id="Plate-1_Legacy-Thigh_Left_F" d="M992.5,458.1l-93.6-81.9l-125,20.5l-71.8,118.7l18,98.1l140.7,28.4
				l125.8-80.3L992.5,458.1"/>
			<path id="Trauma-Plate-3_Legacy-Thigh_Left_F_ToggleOff" d="M948.7,734.5l-71.8,33.7c-3.4,1.6-7.1,2.1-10.7,1.4
				l-92.3-17.7l10.9,63.5l90.3,14l71.3-31.2L948.7,734.5"/>
			<path id="Trauma-Plate-2_Legacy-Thigh_Left_F_ToggleOff" d="M959.4,605.7l-89,56.8c-4,2.5-8.6,3.4-13,2.5
				l-107.8-21.8l10.1,58.6l107.4,20.6l89.3-42L959.4,605.7"/>
			<path id="Trauma-Plate-1_Legacy-Thigh_Left_F_ToggleOff" d="M785.2,418.5l-61.7,102.1l13.3,72.7l120.5,24.3l110-70.2
				l4.4-78.2l-78.3-68.5L785.2,418.5"/>
			<g id="Ridge_Legacy-Thigh_Left_F_ToggleOff">
				<path d="M890.4,623.2l4.9,111.3l-25.9,12.2l-33.3-6.4l-15-106.1l39.6,8L890.4,623.2"/>
				<path d="M895.3,734.4l6.8,108.1l-24.8,10.8l-28.4-4.4l-12.7-108.7l33.3,6.4L895.3,734.4"/>
				<path d="M821.2,634.1l-30.8-240l42.9-21.9l45.4,7.4l11.8,243.6l-29.6,18.9L821.2,634.1"/>
				<path d="M833.2,372.2l27.6,269.9"/>
				<path d="M860.8,642.1l8.6,104.5"/>
				<path d="M869.5,746.6l7.9,106.8"/>
			</g>
		</g>
		<g id="Basic_Thigh_Left_F_Option">
			<path id="Thigh_Basic-Thigh_Left_F" d="M986.2,457.9c0,0-53.3-68.5-80.5-79.9c-25.8-10.8-60.3-6.1-82.5,11.6
				c-33.8,27.1-111.4,85.7-120.2,151c-9.8,72.9,43.2,234.1,61.3,286.1c6.1,17.7,29.3,25.7,47,26.4c32.8,1.2,122.6-1.6,144.1-50
				C984.5,737.3,986.2,457.9,986.2,457.9"/>
			<path id="Trauma-Plate_Basic-Thigh_Left_F_ToggleOff" d="M968.2,464.1c-8-9.9-27.1-33.1-45.5-50.9
				c-8.8-8.5-17.2-15.8-23.8-18.6c-20.1-8.4-47-4.8-64.3,9.1c-19.6,15.7-54.6,42.3-81.2,74.8c-16.1,19.7-29.4,41.6-32.5,64.5
				c-9.5,70.8,42.9,227.2,60.4,277.8c1.5,4.4,5.7,7.2,10.1,9.3c6.5,3.2,14.1,4.7,20.6,5c18.4,0.7,55.9,0.2,87.2-10.2
				c17.3-5.7,33.1-14.1,39.7-29.1c8.3-18.7,13.8-55.7,18.1-98.1C966.1,607.1,967.9,492.1,968.2,464.1"/>
			<g id="Ridge_Basic-Thigh_Left_F_ToggleOff">
				<path d="M896.3,372.3l-36.8-9.5l-38.6,21.3l12.5,469.2c25.4,4.9,25.8,5.9,48.1-0.9L896.3,372.3"/>
				<path d="M859.8,362.9l-1,494.3"/>
			</g>
		</g>
	</g>
	<g id="Right-Thigh_F">
		<g id="None_Thigh_Right_F_Option">
		</g>
		<g id="Pocket_Thigh_Right_F_Option">
			<path d="M294.9,552.5c-5.8,68.8-14,134.1-24.3,196c-2.1,12.4,1.1,25,8.8,34.9c7.7,9.9,19.3,16,31.8,17
				c56.7,4.6,114.2,13.3,172.1,24.4c9.7,1.9,19.8-0.3,27.9-6c8.1-5.7,13.5-14.5,15-24.3c9.8-65.1,29.4-196.2,37.1-247.1
				c1.7-11.5-6.2-22.3-17.7-24.1c-25.6-4-65.8-10.4-65.8-10.4L294.9,552.5"/>
			<path d="M321.6,487.3c-8-1.3-15.9,3.2-18.9,10.8c-9.8,26.1-18.2,67.8-11.7,89.2c8.5,27.7,94.7,187.2,116.1,226.6
				c3,5.5,8.4,9.2,14.6,9.9c12.3,1.4,33.5,3.9,47.5,5.6c7.8,0.9,14.9-4.5,16-12.3c7.1-47.4,30.3-202.6,39.2-262.4
				c2.2-14.5,12.5-26.4,26.6-30.4l0,0C551.2,524.2,372.2,495.4,321.6,487.3"/>
			<path id="Stitch_Right" d="M324.2,487.7c-18.3-2.5-31.4,72.5-25.5,91.9c7.7,25,93.7,190.2,113,225.8
				c2.7,5,7.6,8.3,13.2,9l37.1,5.4c7,0.8,13.5-4.1,14.5-11.1c6.4-42.8,31.4-209.2,39.8-263.1c3-19.1,23.2-23.1,23.2-23.1"/>
			<path d="M546.4,523.4l-223.1-35.8"/>
		</g>
		<g id="Heavy_Thigh_Right_F_Option">
			<g id="Thigh_Heavy-Thigh_Right_F">
				<path d="M518.2,484.7l61.2,78.1l-70,279.8l-47.6,16.9L495,540.6L518.2,484.7"/>
				<path d="M361.8,468.5l-76,63.8l11,288.2l43.1,26.4L373,527.9L361.8,468.5"/>
				<path d="M361.8,468.5l156.4,16.3L495,540.6l-122-12.7L361.8,468.5"/>
				<path d="M373,527.9l122,12.7l-33.1,318.9l-122-12.7L373,527.9"/>
			</g>
			<g id="Trim_Heavy-Thigh_Right_F">
				<path d="M355.6,444l173.6,18l-11,22.7l-156.4-16.3L355.6,444"/>
				<path d="M288.8,504.9l66.8-61l6.1,24.5l-76,63.8L288.8,504.9"/>
				<path d="M582.1,535.4L529.3,462l-11,22.7l61.2,78.1L582.1,535.4"/>
			</g>
		</g>
		<g id="Legacy_Thigh_Right_F_Option">
			<path id="Plate-3_Legacy-Thigh_Right_F" d="M516.4,723.3l-19.4,113l-109.4,17l-88.4-38.6L295,699.3l100.6,47.3
				L516.4,723.3"/>
			<path id="Plate-2_Legacy-Thigh_Right_F" d="M540.7,614.5l-18.7,107.8l-126.5,24.3l-106.4-50L284,565.3l120.2,76.8
				L540.7,614.5"/>
			<path id="Plate-1_Legacy-Thigh_Right_F" d="M272.5,458.1l93.6-81.9l125,20.5l71.8,118.7l-18,98.1l-140.7,28.4
				l-125.8-80.3L272.5,458.1"/>
			<path id="Trauma-Plate-3_Legacy-Thigh_Right_F_ToggleOff" d="M316.3,734.5l71.8,33.7c3.4,1.6,7.1,2.1,10.7,1.4
				l92.3-17.7l-10.9,63.5l-90.3,14l-71.3-31.2L316.3,734.5"/>
			<path id="Trauma-Plate-2_Legacy-Thigh_Right_F_ToggleOff" d="M305.6,605.7l89,56.8c4,2.5,8.6,3.4,13,2.5l107.8-21.8
				l-10.1,58.6l-107.4,20.6l-89.3-42L305.6,605.7"/>
			<path id="Trauma-Plate-1_Legacy-Thigh_Right_F_ToggleOff" d="M479.8,418.5l61.7,102.1l-13.3,72.7l-120.5,24.3
				l-110-70.2l-4.4-78.2l78.3-68.5L479.8,418.5"/>
			<g id="Ridge_Legacy-Thigh_Right_F_ToggleOff">
				<path d="M374.6,623.2l-4.9,111.3l25.9,12.2l33.3-6.4l15-106.1l-39.6,8L374.6,623.2"/>
				<path d="M369.7,734.4l-6.8,108.1l24.8,10.8l28.4-4.4l12.7-108.7l-33.3,6.4L369.7,734.4"/>
				<path d="M443.8,634.1l30.8-240l-42.9-21.9l-45.4,7.4l-11.8,243.6l29.6,18.9L443.8,634.1"/>
				<path d="M431.8,372.2l-27.6,269.9"/>
				<path d="M404.2,642.1l-8.6,104.5"/>
				<path d="M395.5,746.6l-7.9,106.8"/>
			</g>
		</g>
		<g id="Basic_Thigh_Right_F_Option">
			<path id="Thigh_Basic-Thigh_Right_F" d="M278.8,457.9c0,0,53.3-68.5,80.5-79.9c25.8-10.8,60.3-6.1,82.5,11.6
				c33.8,27.1,111.4,85.7,120.2,151c9.8,72.9-43.2,234.1-61.3,286.1c-6.1,17.7-29.3,25.7-47,26.4c-32.8,1.2-122.6-1.6-144.1-50
				C280.5,737.3,278.8,457.9,278.8,457.9"/>
			<path id="Trauma-Plate_Basic-Thigh_Right_F_ToggleOff" d="M296.8,464.1c8-9.9,27.1-33.1,45.5-50.9
				c8.8-8.5,17.1-15.8,23.8-18.6c20.1-8.4,47-4.8,64.3,9.1c19.6,15.7,54.6,42.3,81.2,74.8c16.1,19.7,29.4,41.6,32.5,64.5
				c9.5,70.8-42.9,227.2-60.4,277.8c-1.5,4.4-5.7,7.2-10.1,9.3c-6.5,3.2-14.1,4.7-20.6,5c-18.4,0.7-55.9,0.2-87.2-10.2
				c-17.3-5.7-33.1-14.1-39.7-29.1c-8.3-18.7-13.8-55.7-18.1-98.1C298.9,607.1,297.1,492.1,296.8,464.1"/>
			<g id="Ridge_Basic-Thigh_Right_F_ToggleOff">
				<path d="M368.7,372.3l36.8-9.5l38.6,21.3l-12.5,469.2c-25.4,4.9-25.8,5.9-48.1-0.9L368.7,372.3"/>
				<path d="M405.2,362.9l1,494.3"/>
			</g>
		</g>
	</g>
</g>
<g id="Groin_F">
	<g id="None_Groin_F_Option">
	</g>
	<g id="Basic_Groin_F_Option">
		<path id="Groin-Plate_Basic_F" d="M566.9,360L456.1,137.4h354.3L699.6,360c0,0-44.2,53-66.4,53
			C611.1,413.1,566.9,360,566.9,360z"/>
		<path id="Trauma-Plating_Groin_F_ToggleOff" d="M687.8,352.3l100-200.9H478.7l100,200.9c4.4,5.1,22,25.4,38.9,38.2
			c5.9,4.5,11.2,8.6,15.6,8.6c4.4,0,9.7-4.1,15.6-8.6C665.8,377.7,683.5,357.4,687.8,352.3"/>
	</g>
</g>
<g id="Waist_F">
	<g id="Accessories_Waist_F">
		<g id="Kama_F_ToggleOff">
			<g id="Clean_Kama_F_Option">
				<g id="Trim_Kama-Clean">
					<path d="M771.4,151.7l79.6,605.9l321.5,138.7L881.7,201l-9.9-85.4L771.4,151.7z"/>
					<path d="M494.6,151.7l-79.6,605.9L93.4,896.2L384.3,201l9.3-85.4L494.6,151.7z"/>
				</g>
				<g id="Main_Kama-Clean">
					<path d="M791.3,149.1l77,586l290.9,129.2L881.7,201l-9.5-82.5L791.3,149.1z"/>
					<path d="M474.7,149.1l-77,586L106.8,864.3L384.3,201l9.3-85.4L474.7,149.1z"/>
				</g>
			</g>
			<g id="Tattered_Kama_F_Option">
				<g id="Main_Kama-Tattered">
					<path d="M844.1,99.4c14.9-3.4,8.2,54.9,41.5,100.2c20.3,27.6,47.5,73.3,53,98.7c6.4,30.2,25.7,60.7,33.3,90.9
						c13.2,52.4,31.1,103.4,42.1,155c8.8,41.2,5.8,85,15.6,126.4c7.4,31.3,2.7,58.4,12.9,88.3c11.4,33.5-11.5,67-3.3,101.3
						c5,21,0.9,41.1,7.5,61.6c2.2,6.9,4.1,13.9,5.9,21c0.5,2.2,1,4.3,1.5,6.5c0.3,1.3,1.8,4.8,0.8,3.9c-6.9-6.3-10.6-18.1-17-25.4
						c-12.5-14.3-28.2-25-40-40c-4.6-5.8-8.1-12.2-11.3-18.9c-0.3-0.6-2.4-5.7-2.6-5.6c-24.2,5.2-48.3,14.7-68.9-6.5
						c-16.4-16.8-30.5-53-38.8-75.5c-3.5-9.4,1.2-64.9-5-70.1c-4.6-3.8-8.8,46.1-14.4,42.7c-34.8-21.2-84.2-33.8-84.2-33.8
						s-3.9-70.7-1-111.2c2.5-36.4-2.4-67.9-7.6-103.5c-6.7-46-5.9-93.4-2.9-139.5C765.7,290.6,709.9,129.8,844.1,99.4z M923.8,779.8
						c-4.3,18.7-4.7,40,5.6,56.9c3.4,5.6,12.1,14.6,19.6,12.2c31.7-10.1-7.1-60.4-17.3-71.6L923.8,779.8z M830.8,643.2
						c-5.7,3.6-10.7,7.9-14.8,13.3c-15,19.6,26.2,9.9,19.1-14L830.8,643.2z"/>
					<path d="M421.7,99.4c-14.9-3.4-12,52.4-41.5,100.2c-19.5,31.5-47.5,73.3-53,98.7c-6.4,30.2-25.7,60.7-33.3,90.9
						c-13.2,52.4-31.1,103.4-42.1,155c-8.8,41.2-5.8,85-15.6,126.4c-7.4,31.3-2.7,58.4-12.9,88.3c-11.4,33.5,11.5,67,3.3,101.3
						c-5,21-0.9,41.1-7.5,61.6c-2.2,6.9-4.1,13.9-5.9,21c-0.5,2.2-1,4.3-1.5,6.5c-0.3,1.3-1.8,4.8-0.8,3.9
						c6.9-6.3,10.6-18.1,17-25.4c12.5-14.3,28.2-25,40-40c4.6-5.8,8.1-12.2,11.3-18.9c0.3-0.6,2.4-5.7,2.6-5.6
						c24.2,5.2,48.3,14.7,68.9-6.5c16.4-16.8,30.5-53,38.8-75.5c3.5-9.4-1.2-64.9,5-70.1c4.6-3.8,8.8,46.1,14.3,42.7
						c34.8-21.2,84.2-33.8,84.2-33.8s3.9-70.7,1-111.2c-2.5-36.4,2.4-67.9,7.6-103.5c6.7-46,5.9-93.4,2.9-139.5
						C500.1,290.6,555.9,129.8,421.7,99.4z M342,779.8c4.3,18.7,4.7,40-5.6,56.9c-3.4,5.6-12.1,14.6-19.6,12.2
						c-31.7-10.1,7.1-60.4,17.3-71.6L342,779.8z M435,643.2c5.7,3.6,10.7,7.9,14.8,13.3c15,19.6-26.2,9.9-19.1-14L435,643.2z"/>
				</g>
			</g>
		</g>
		<g id="Loin-Cloth_F_ToggleOff">
			<g id="Clean_Loin-Cloth_F_Option">
				<path id="Trim_Loin-Cloth-Clean_F" d="M741.6,135.9H524.3V613L633,747l108.7-134V135.9z"/>
				<path id="Main_Loin-Cloth-Clean_F" d="M727.7,186.1H538.3V602L633,718.8L727.7,602V186.1z"/>
			</g>
			<path id="Tattered_Loin-Cloth_F_Option" d="M742.2,134.2c-0.6,28.1-1.7,56-0.1,84.1c1.4,24.6,5.5,49.9,5.3,74.6
				c-0.1,19.5-5,38.2-6.1,57.5c-1.8,31.8,0.9,65.9,3.8,97.5c5.8,62-16.4,270.4-16.4,270.4l-45-50.5l-30.4,91.5l-25.4-58.7l-23,47.2
				l-24.3-9.6l-11.8,78.3l-23.7-62.3l-2.9-53.2c0,0-3.6-26-11.2-71.7c-3.3-19.6-11.3-39-11.9-59.2c-1.4-50.2,13.2-100.4,14.6-150.7
				c1.1-40.1-8-79.1-10.8-118.8c-2.5-34.6-6.9-89.7,12.6-118.3C555.8,152.9,742.2,134.2,742.2,134.2z M600.1,652.5
				c-1.2,6.3-2.4,12.6-3.2,19c-0.5,3.9-1,7.8-1.2,11.7c-0.2,5.3,0.2,11.2,2,16.1c0.2,0.4,2.9-1.4,3.2-1.6c3-2.4,5.1-6.1,6.2-10.3
				c2.6-9.9,4.1-28.1-3.5-35.6L600.1,652.5z M714.8,582.1c-5.4,3.7-12.6,8-16.5,14c-2.9,4.5-4.9,9.2-5.9,14.8
				c-0.6,3.8-1.1,7.5-1.3,11.4c-0.8,14.1,6.1,18.9,15,8.8C714.2,622,723.3,593.7,714.8,582.1z"/>
		</g>
		<g id="Left-Holster_F_ToggleOff">
			<g id="Thigh-Plate-Holster_Left_F_Option">
				<g id="Weapon_Thigh-Plate-Holster-Left_F">
					<g id="Main_Weapon_Thigh-Plate-Holster-Left_F">
						<path d="M951.8,405.6l2.5-38.3l6.6,0.4l1.6-24.1l-6.6-0.4l0.8-12.5c0.3-4.1,5.9-7,12.6-6.6
							c15.3,1,41.6,2.7,56.9,3.7c6.7,0.4,11.9,4.1,11.6,8.2l-0.8,12.5l-6.6-0.4l-1.6,24.1l6.6,0.4l-2.5,38.3l-15.5-1l-6.9,106.1
							l-50.2-3.3l6.9-106.1L951.8,405.6z"/>
						<path d="M1026.8,404.8l-8.9-0.6l-8.3,127.5l-50.2-3.3l8.3-127.5l-8.9-0.6l1.9-29.1l68,4.4L1026.8,404.8z"/>
						<path d="M1017.4,335.5l-40.3-2.6l-2.6,39.4l40.3,2.6L1017.4,335.5z"/>
						<path d="M978.5,413.2l-6.6-0.4L965.3,513l6.6,0.4L978.5,413.2z"/>
						<path d="M996.8,391.4l-6.6-0.4L981,531.8l6.6,0.4L996.8,391.4z"/>
						<path d="M1012.1,415.4l-6.6-0.4l-7.3,111.3l6.6,0.4L1012.1,415.4z"/>
					</g>
					<g id="Accent_Weapon_Thigh-Plate-Holster-Left_F">
						<path d="M988.7,413.9l-10.2-0.7l-6.6,100.3l10.2,0.7L988.7,413.9z"/>
						<path d="M1005.6,415l-10.3-0.7L988,525.6l10.3,0.7L1005.6,415z"/>
						<path d="M983.7,333.3l-6.6-0.4l-2.6,39.4l6.6,0.4L983.7,333.3z"/>
						<path d="M1017.4,335.5l-6.6-0.4l-2.6,39.4l6.6,0.4L1017.4,335.5z"/>
						<path d="M980.2,376.6l-0.3,4l28.4,1.9l0.3-4L980.2,376.6z"/>
						<path d="M979.9,380.6l-0.3,4l28.4,1.9l0.3-4L979.9,380.6z"/>
						<path d="M980.5,372.6l-0.3,4l28.4,1.9l0.3-4L980.5,372.6z"/>
						<path d="M983.7,323.2l-0.3,4l28.4,1.9l0.3-4L983.7,323.2z"/>
					</g>
				</g>
				<path id="Holster_Thigh-Plate-Holster-Left_F" d="M1020.1,524.9l-35.6-2.4l-19.9-72.4l-10.9-0.7L932,771
					c0,0,30.1,2,51.1,3.5c5.3,0.4,10.6-1.4,14.6-4.9c4-3.5,6.5-8.5,6.8-13.8C1008.5,696.3,1020.1,524.9,1020.1,524.9z"/>
			</g>
			<g id="Hanging-Holster_Left_F_Option">
				<g id="Weapon_Hanging-Holster-Left_F">
					<g id="Main_Weapon_Hanging-Holster-Left_F">
						<path d="M973.4,472.1l1.8-38.4l6.6,0.3l1.1-24.1l-6.6-0.3l0.6-12.6c0.2-4.1,5.8-7.1,12.5-6.8
							c15.4,0.7,41.7,1.9,57,2.6c6.7,0.3,12,3.9,11.8,7.9l-0.6,12.6l-6.6-0.3l-1.1,24.1l6.6,0.3l-1.8,38.4l-15.5-0.7l-4.9,106.2
							L984,579l4.9-106.2L973.4,472.1z"/>
						<path d="M1048.3,469.9l-8.9-0.4l-5.9,127.7l-50.2-2.3l5.9-127.7l-8.9-0.4l1.3-29.1l68.1,3.1L1048.3,469.9z"/>
						<path d="M1037.6,400.8l-40.3-1.9l-1.8,39.4l40.3,1.9L1037.6,400.8z"/>
						<path d="M1000.2,479.2l-6.6-0.3L989,579.3l6.6,0.3L1000.2,479.2z"/>
						<path d="M1018.2,457.1l-6.6-0.3l-4.6,100.4l6.6,0.3L1018.2,457.1z"/>
						<path d="M1033.9,480.8l-6.6-0.3l-4.6,100.4l6.6,0.3L1033.9,480.8z"/>
					</g>
					<g id="Accent_Weapon_Hanging-Holster-Left_F">
						<path d="M1001.3,442.6l-0.2,4l28.4,1.3l0.2-4L1001.3,442.6z"/>
						<path d="M1001.1,446.6l-0.2,4l28.4,1.3l0.2-4L1001.1,446.6z"/>
						<path d="M1001.5,438.6l-0.2,4l28.4,1.3l0.2-4L1001.5,438.6z"/>
						<path d="M1003.7,389.1l-0.2,4l28.4,1.3l0.2-4L1003.7,389.1z"/>
						<path d="M1003.9,399.2l-6.6-0.3l-1.8,39.4l6.6,0.3L1003.9,399.2z"/>
						<path d="M1037.6,400.8l-6.6-0.3l-1.8,39.4l6.6,0.3L1037.6,400.8z"/>
						<path d="M1027.3,480.5l-10-0.5l-4.6,100.4l10,0.5L1027.3,480.5z"/>
						<path d="M1010.3,479.7l-10-0.5l-4.6,100.4l10,0.5L1010.3,479.7z"/>
					</g>
				</g>
				<path id="Holster_Hanging-Holster-Left_F" d="M973.8,620.1l-8.1-161.7l74.7,121.7l-16.5,220
					c-17.4,18.3-34.6,18.4-51.4-2L973.8,620.1z"/>
				<g id="Straps_Hanging-Holster-Left_F">
					<path d="M688,197.5C769.8,314.7,852,414,965.7,458.4l1.4,27.7c-141.4-59.6-217.2-160.6-300.8-288.6H688z"/>
					<path d="M973.4,652.9c-76.4,58.5-159,90.4-258,95.7l7,21.9c85.6-7.8,165.5-39.5,251-94.5V652.9z"/>
					<path d="M973.4,676.1l0.2-23.1c19.9,8.8,43,9.5,61.2,3l-1.8,23.6C1013.4,684.6,991.1,684.9,973.4,676.1z"/>
				</g>
				<g id="Buckle_Hanging-Holster-Left_F">
					<path d="M794.7,747.5l-10.7,1.6l0.5,3.5l10.7-1.6L794.7,747.5"/>
					<path d="M765.5,315.9l-7.4-9.8l-2.8,2.1l7.4,9.8L765.5,315.9"/>
					<path d="M762.6,318.1l-12.1,9.8l-28.6-35.3l27.6-22.3l28.6,35.3l-12.6,10.2l-6.1-8.1l6.2-5l-15.8-19.5l-15.2,12.3
						l15.8,19.5l6.2-5.1L762.6,318.1"/>
					<path d="M794.3,747.6l-8.5,1.3l-1.2-8.3l-20.6,4.4l2.9,19.3l20.6-4.4l-1.1-7.5l8.5-1.3l2.2,14.8l-37.3,8l-5.2-35
						l37.3-8L794.3,747.6"/>
				</g>
			</g>
			<g id="Belt-Holster_Left_F_Option">
				<g id="Weapon_Belt-Holster-Left_F">
					<g id="Main_Weapon_Belt-Holster-Left_F">
						<path d="M886.9,208l-2.6-38.3l6.6-0.4l-1.6-24.1l-6.6,0.4l-0.8-12.5c-0.3-4.1,4.9-7.7,11.6-8.2
							c15.3-1,41.6-2.8,56.9-3.8c6.7-0.4,12.3,2.5,12.6,6.6l0.8,12.5l-6.6,0.4l1.6,24.1l6.6-0.4l2.6,38.3l-15.5,1l7.1,106.1
							l-50.2,3.3L902.5,207L886.9,208z"/>
						<path d="M961.2,197.4l-8.9,0.6l8.5,127.5l-50.2,3.3l-8.5-127.5l-8.9,0.6l-1.9-29.1l68-4.5L961.2,197.4z"/>
						<path d="M942.7,129.9l-40.3,2.7l2.6,39.4l40.3-2.7L942.7,129.9z"/>
						<path d="M914.4,212.1l-6.6,0.4l6.7,100.3l6.6-0.4L914.4,212.1z"/>
						<path d="M929.7,188.1l-6.6,0.4l6.7,100.3l6.6-0.4L929.7,188.1z"/>
						<path d="M948.1,209.8l-6.6,0.4l6.7,100.3l6.6-0.4L948.1,209.8z"/>
					</g>
					<g id="Accent_Weapon_Belt-Holster-Left_F">
						<path d="M911.3,175.6l0.3,4l28.4-1.9l-0.3-4L911.3,175.6z"/>
						<path d="M911.6,179.6l0.3,4l28.4-1.9l-0.3-4L911.6,179.6z"/>
						<path d="M911,171.6l0.3,4l28.4-1.9l-0.3-4L911,171.6z"/>
						<path d="M907.7,122.2l0.3,4l28.4-1.9l-0.3-4L907.7,122.2z"/>
						<path d="M909.1,132.2l-6.6,0.4l2.6,39.4l6.6-0.4L909.1,132.2z"/>
						<path d="M942.7,129.9l-6.6,0.4l2.6,39.4l6.6-0.4L942.7,129.9z"/>
						<path d="M941.5,210.3l-10,0.7l6.7,100.3l10-0.7L941.5,210.3z"/>
						<path d="M924.5,211.4l-10,0.7l6.7,100.3l10-0.7L924.5,211.4z"/>
					</g>
				</g>
				<path id="Holster_Belt-Holster-Left_F" d="M904,355l-26.2-159.8l87.9,112.6l8.3,220.5
					c-15.2,20.1-32.3,22.2-51.3,3.8L904,355z"/>
			</g>
		</g>
		<g id="Right-Holster_F_ToggleOff">
			<g id="Thigh-Plate-Holster_Right_F_Option">
				<g id="Weapon_Thigh-Plate-Holster-Right_F">
					<g id="Main_Weapon_Thigh-Plate-Holster-Right_F">
						<path d="M313.1,405.6l-2.5-38.3l-6.6,0.4l-1.6-24.1l6.6-0.4l-0.8-12.5c-0.3-4.1-5.9-7-12.6-6.6
							c-15.3,1-41.6,2.7-56.9,3.7c-6.7,0.4-11.9,4.1-11.6,8.2l0.8,12.5l6.6-0.4l1.6,24.1l-6.6,0.4l2.5,38.3l15.5-1l6.9,106.1
							l50.2-3.3l-6.9-106.1L313.1,405.6z"/>
						<path d="M238.1,404.8l8.9-0.6l8.3,127.5l50.2-3.3L297.2,401l8.9-0.6l-1.9-29.1l-68,4.4L238.1,404.8z"/>
						<path d="M247.5,335.5l40.3-2.6l2.6,39.4l-40.3,2.6L247.5,335.5z"/>
						<path d="M286.4,413.2l6.6-0.4l6.6,100.3l-6.6,0.4L286.4,413.2z"/>
						<path d="M268,391.4l6.6-0.4l9.2,140.8l-6.6,0.4L268,391.4z"/>
						<path d="M252.7,415.4l6.6-0.4l7.3,111.3l-6.6,0.4L252.7,415.4z"/>
					</g>
					<g id="Accent_Weapon_Thigh-Plate-Holster-Right_F">
						<path d="M276.1,413.9l10.2-0.7l6.6,100.3l-10.2,0.7L276.1,413.9z"/>
						<path d="M259.3,415l10.3-0.7l7.3,111.3l-10.3,0.7L259.3,415z"/>
						<path d="M281.2,333.3l6.6-0.4l2.6,39.4l-6.6,0.4L281.2,333.3z"/>
						<path d="M247.5,335.5l6.6-0.4l2.6,39.4l-6.6,0.4L247.5,335.5z"/>
						<path d="M284.6,376.6l0.3,4l-28.4,1.9l-0.3-4L284.6,376.6z"/>
						<path d="M284.9,380.6l0.3,4l-28.4,1.9l-0.3-4L284.9,380.6z"/>
						<path d="M284.4,372.6l0.3,4l-28.4,1.9l-0.3-4L284.4,372.6z"/>
						<path d="M281.2,323.2l0.3,4l-28.4,1.9l-0.3-4L281.2,323.2z"/>
					</g>
				</g>
				<path id="Holster_Thigh-Plate-Holster-Right_F" d="M244.7,524.9l35.6-2.4l19.9-72.4l10.9-0.7L332.9,771
					c0,0-30.1,2-51.1,3.5c-5.3,0.4-10.6-1.4-14.6-4.9c-4-3.5-6.5-8.5-6.8-13.8C256.3,696.3,244.7,524.9,244.7,524.9z"/>
			</g>
			<g id="Hanging-Holster_Right_F_Option">
				<g id="Weapon_Hanging-Holster-Right_F">
					<g id="Main_Weapon_Hanging-Holster-Right_F">
						<path d="M291.4,472.1l-1.8-38.4l-6.6,0.3l-1.1-24.1l6.6-0.3L288,397c-0.2-4.1-5.8-7.1-12.5-6.8
							c-15.4,0.7-41.6,1.9-57,2.6c-6.7,0.3-12,3.9-11.8,7.9l0.6,12.6l6.6-0.3l1.1,24.1l-6.6,0.3l1.8,38.4l15.5-0.7l4.9,106.2
							l50.2-2.3l-4.9-106.2L291.4,472.1z"/>
						<path d="M216.5,469.9l8.9-0.4l5.9,127.7l50.2-2.3l-5.9-127.7l8.9-0.4l-1.3-29.1l-68.1,3.1L216.5,469.9z"/>
						<path d="M227.2,400.8l40.3-1.9l1.8,39.4l-40.3,1.9L227.2,400.8z"/>
						<path d="M264.6,479.2l6.6-0.3l4.6,100.4l-6.6,0.3L264.6,479.2z"/>
						<path d="M246.7,457.1l6.6-0.3l4.6,100.4l-6.6,0.3L246.7,457.1z"/>
						<path d="M230.9,480.8l6.6-0.3l4.6,100.4l-6.6,0.3L230.9,480.8z"/>
					</g>
					<g id="Accent_Weapon_Hanging-Holster-Right_F">
						<path d="M263.6,442.6l0.2,4l-28.4,1.3l-0.2-4L263.6,442.6z"/>
						<path d="M263.8,446.6l0.2,4l-28.4,1.3l-0.2-4L263.8,446.6z"/>
						<path d="M263.4,438.6l0.2,4l-28.4,1.3l-0.2-4L263.4,438.6z"/>
						<path d="M261.1,389.1l0.2,4l-28.4,1.3l-0.2-4L261.1,389.1z"/>
						<path d="M260.9,399.2l6.6-0.3l1.8,39.4l-6.6,0.3L260.9,399.2z"/>
						<path d="M227.2,400.8l6.6-0.3l1.8,39.4l-6.6,0.3L227.2,400.8z"/>
						<path d="M237.5,480.5l10-0.5l4.6,100.4l-10,0.5L237.5,480.5z"/>
						<path d="M254.5,479.7l10-0.5l4.6,100.4l-10,0.5L254.5,479.7z"/>
					</g>
				</g>
				<path id="Holster_Hanging-Holster-Right_F" d="M291,620.1l8.1-161.7l-74.7,121.7l16.5,220
					c17.4,18.3,34.6,18.4,51.4-2L291,620.1z"/>
				<g id="Straps_Hanging-Holster-Right_F">
					<path d="M576.8,197.5c-81.7,117.2-164,216.5-277.7,260.9l-1.4,27.7c141.4-59.6,217.2-160.6,300.8-288.6H576.8z"/>
					<path d="M291.5,652.9c76.4,58.5,159,90.4,258,95.7l-7,21.9c-85.6-7.8-165.5-39.5-251-94.5V652.9z"/>
					<path d="M291.5,676.1l-0.2-23.1c-19.9,8.8-43,9.5-61.2,3l1.8,23.6C251.5,684.6,273.7,684.9,291.5,676.1z"/>
				</g>
				<g id="Buckle_Hanging-Holster-Right_F">
					<path d="M470.2,747.5l10.7,1.6l-0.5,3.5l-10.7-1.6L470.2,747.5"/>
					<path d="M499.4,315.9l7.4-9.8l2.8,2.1l-7.4,9.8L499.4,315.9"/>
					<path d="M502.2,318.1l12.1,9.8l28.6-35.3l-27.6-22.3l-28.6,35.3l12.6,10.2l6.1-8.1l-6.2-5l15.8-19.5l15.2,12.3
						L514.6,315l-6.2-5.1L502.2,318.1"/>
					<path d="M470.5,747.6l8.5,1.3l1.2-8.3l20.6,4.4l-2.9,19.3l-20.6-4.4l1.1-7.5l-8.5-1.3l-2.2,14.8l37.3,8l5.2-35
						l-37.3-8L470.5,747.6"/>
				</g>
			</g>
			<g id="Belt-Holster_Right_F_Option">
				<g id="Weapon_Belt-Holster-Right_F">
					<g id="Main_Weapon_Belt-Holster-Right_F">
						<path d="M377.9,208l2.6-38.3l-6.6-0.4l1.6-24.1l6.6,0.4l0.8-12.5c0.3-4.1-4.9-7.7-11.6-8.2
							c-15.3-1-41.6-2.8-56.9-3.8c-6.7-0.4-12.3,2.5-12.6,6.6l-0.8,12.5l6.6,0.4l-1.6,24.1l-6.6-0.4l-2.6,38.3l15.5,1l-7.1,106.1
							l50.2,3.3l7.1-106.1L377.9,208z"/>
						<path d="M303.7,197.4l8.9,0.6l-8.5,127.5l50.2,3.3l8.5-127.5l8.9,0.6l1.9-29.1l-68-4.5L303.7,197.4z"/>
						<path d="M322.1,129.9l40.3,2.7l-2.6,39.4l-40.3-2.7L322.1,129.9z"/>
						<path d="M350.5,212.1l6.6,0.4l-6.7,100.3l-6.6-0.4L350.5,212.1z"/>
						<path d="M335.2,188.1l6.6,0.4l-6.7,100.3l-6.6-0.4L335.2,188.1z"/>
						<path d="M316.8,209.8l6.6,0.4l-6.7,100.3l-6.6-0.4L316.8,209.8z"/>
					</g>
					<g id="Accent_Weapon_Belt-Holster-Right_F">
						<path d="M353.6,175.6l-0.3,4l-28.4-1.9l0.3-4L353.6,175.6z"/>
						<path d="M353.3,179.6l-0.3,4l-28.4-1.9l0.3-4L353.3,179.6z"/>
						<path d="M353.8,171.6l-0.3,4l-28.4-1.9l0.3-4L353.8,171.6z"/>
						<path d="M357.1,122.2l-0.3,4l-28.4-1.9l0.3-4L357.1,122.2z"/>
						<path d="M355.8,132.2l6.6,0.4l-2.6,39.4l-6.6-0.4L355.8,132.2z"/>
						<path d="M322.1,129.9l6.6,0.4l-2.6,39.4l-6.6-0.4L322.1,129.9z"/>
						<path d="M323.4,210.3l10,0.7l-6.7,100.3l-10-0.7L323.4,210.3z"/>
						<path d="M340.4,211.4l10,0.7l-6.7,100.3l-10-0.7L340.4,211.4z"/>
					</g>
				</g>
				<path id="Holster_Belt-Holster-Right_F" d="M360.9,355l26.2-159.8l-87.9,112.6l-8.3,220.5
					c15.2,20.1,32.3,22.2,51.3,3.8L360.9,355z"/>
			</g>
		</g>
	</g>
	<g id="Under-Belt_F">
		<g id="Sash_F_Option">
			<path d="M405.9,30.3c20.6-4.6,52.7,8.7,79.6,11c28.9,2.5,57.9,0.3,86.8,2.3c16.9,1.2,33.5,5.6,50.3,8
				c32.2,4.5,64.5,2.1,96.6-2.2c8.5-1.1,17.1-1.4,25.5-3.2c21-4.6,48.5-9.7,66.6-18.7c16-4.2,32.2-4.9,47.3-1
				c15.3,4,4.6,36.2,5.3,49.3c0.7,13.9,10.2,68.5,15.9,81.2c6.3,14.1,11.3,29.5-7.1,38.8c-15.4,7.8-31.7,0.8-47.4-1.4
				c-18.4-2.5-36.7-1.3-54.9,2.4c-22.3,4.6-44.3,13-67,15.3c-30.4,3-61-2.9-91.3-2.5c-17.4,0.3-34.2,6.2-51.7,4.7
				c-29.3-2.5-55.9-15-84.3-18c-14.3-1.5-28.5,2-42.8,2c-9.8,0-19-2.8-28.4-5.2c-9.4-2.4-18.2-1.4-23.4-10.8
				c-3.9-7,4.4-26.1,8.3-32.1c10.1-15.4,12.8-69.8,9.2-87.3C395.8,48.4,391.5,33.5,405.9,30.3z"/>
			<path d="M385,159.6c32.3-0.1,60.6-0.7,89.7,11c98.6,40,96.4,34.5,138.3,39.1c61.7,6.7,86.3,4.2,111.9-1.9
				c10.3-2.5,20.6-5.9,29.9-10.9c16.4-8.8,32.4-17.8,47-30c17.8-14.8,48.8-24.9,73.7-23.6c0,0-4.8-17.2-11.7-67.9
				C862,62.2,870,47.9,863.7,30c-2.7-7.7-27.2-5.6-43.8-4.1c-32.9,2.8-47.4,27.8-72.8,47.8c-14.8,11.6-32.3,25.4-54.2,32.8
				C658.5,118.2,605,123.6,503.4,88c-33.2-11.6-61.2-33.6-104.9-26.5c0,0,1.6,23.6,1.6,35.5C400.2,134.9,385,159.6,385,159.6z"/>
		</g>
		<g id="Girth-Belt_F_Option">
			<path d="M632.9,72.8c-75.2,0-225.5-19.1-225.5-19.1l4.9-16.2c0,0,146.6,12.7,220.6,19.1
				c73.6-6.4,220.6-19.1,220.6-19.1l4.9,16.2C858.4,53.7,708.1,72.8,632.9,72.8z"/>
			<path d="M632.9,89c-76.7,0-230.2-19.1-230.2-19.1l4.7-16.2c0,0,187.9,16,225.5,19.1c37.6-3.2,225.5-19.1,225.5-19.1
				l4.7,16.2C863.1,69.9,709.6,89,632.9,89z"/>
			<path d="M632.9,105.2c-77.9,0-233.7-19.1-233.7-19.1l3.5-16.2c0,0,191.8,15.9,230.2,19.1
				c38.4-3.2,230.2-19.1,230.2-19.1l3.5,16.2C866.6,86.1,710.8,105.2,632.9,105.2z"/>
			<path d="M632.9,121.4c-78.9,0-236.6-19.1-236.6-19.1l2.9-16.2c0,0,194.7,16,233.7,19.1
				c38.9-3.2,233.7-19.1,233.7-19.1l2.9,16.2C869.5,102.3,711.8,121.4,632.9,121.4z"/>
			<path d="M632.9,137.7c-79.8,0-239.3-19.1-239.3-19.1l2.7-16.2c0,0,197.2,15.9,236.6,19.1
				c39.4-3.2,236.6-19.1,236.6-19.1l2.7,16.2C872.2,118.5,712.7,137.7,632.9,137.7z"/>
			<path d="M632.9,153.9c-80.6,0-241.8-19.1-241.8-19.1l2.5-16.2c0,0,199.4,15.9,239.3,19.1
				c39.9-3.2,239.3-19.1,239.3-19.1l2.5,16.2C874.7,134.7,713.5,153.9,632.9,153.9z"/>
			<path d="M632.9,170.1c-81.4,0-244.3-19.1-244.3-19.1l2.5-16.2c0,0,201.5,15.9,241.8,19.1
				c40.3-3.2,241.8-19.1,241.8-19.1l2.5,16.2C877.2,150.9,714.3,170.1,632.9,170.1z"/>
			<path d="M632.9,186.3c-82.3,0-246.8-19.1-246.8-19.1l2.5-16.2c0,0,203.6,15.9,244.3,19.1
				c40.7-3.2,244.3-19.1,244.3-19.1l2.5,16.2C879.7,167.2,715.2,186.3,632.9,186.3z"/>
			<path d="M632.9,202.5c-83.2,0-249.6-19.1-249.6-19.1l2.8-16.2c0,0,205.7,15.9,246.8,19.1
				c41.1-3.2,246.8-19.1,246.8-19.1l2.8,16.2C882.5,183.4,716.1,202.5,632.9,202.5z"/>
			<path d="M632.9,218.7c-84.3,0-252.8-19.1-252.8-19.1l3.2-16.2c0,0,208,16,249.6,19.1c41.6-3.2,249.6-19.1,249.6-19.1
				l3.2,16.2C885.7,199.6,717.2,218.7,632.9,218.7z"/>
		</g>
	</g>
	<g id="Belt_F">
		<g id="Pouch-Belt-Full_F_Option">
			<path id="Main_Pouch-Belt-Full_F" d="M881.3,151.2c-55.9,5-183.5,23.3-247.9,23.3c-65.1,0-192.7-18.4-247.8-23.2
				l8.2-65.4c45.3,4,176.6,22.6,239.6,22.6c61.2,0,189.7-18.4,238.1-22.8L881.3,151.2z"/>
			<g id="Pouches_Pouch-Belt-Full_F">
				<g>
					<g>
						<g>
							<path d="M518.7,85.7c-3-0.2-6.1,0.3-8.9,1.4c-6,2.4-16.2,6.4-16.2,6.4l66.2,3.8l17.9-7.7
								C577.6,89.5,533.3,86.6,518.7,85.7z"/>
							<path d="M579.8,92.7c0.1-0.9-0.3-1.8-1-2.3c-0.7-0.5-1.7-0.6-2.5-0.3c-6,2.6-16.6,7.1-16.6,7.1l-8.6,102.3
								c5.4-3.1,10.8-5.3,16.2-6.6c4.2-1,7.2-4.7,7.3-9C575.6,153.5,576.8,123.1,579.8,92.7z"/>
							<path d="M559.7,97.3l-66.2-3.8c-0.4,15.6-1.9,31-2.7,46.6c-0.8,16.7-1.2,33.5-2.7,50.3c-0.1,1.6,0.4,3.2,1.5,4.4
								c1.1,1.2,2.6,1.9,4.3,1.9c18.1,0,36.1,1.1,54,3.1c1.5,0.2,3.1-0.3,4.2-1.3c1.2-1,1.9-2.4,2-3.9c0.9-12.9,3-42.6,3-42.6
								L559.7,97.3z"/>
							<path d="M559.7,97.3l-66.2-3.8c0,0-1,8.7-2.3,18.8c-1,8,1.4,16.1,6.6,22.3c5.2,6.2,12.7,10,20.8,10.4
								c3.4,0.2,6.8,0.4,10.2,0.6c8.1,0.5,16-2.4,21.9-8c5.9-5.6,9.2-13.4,9.1-21.5C559.7,106,559.7,97.3,559.7,97.3z"/>
							<path d="M524.5,133.2c2.3,0.1,4.1,2.2,4,4.5c-0.1,2.4-2.2,4.1-4.5,4c-2.3-0.1-4.1-2.2-4-4.5
								C520.1,134.8,522.1,133,524.5,133.2z"/>
						</g>
					</g>
					<g>
						<g>
							<path d="M427.4,73.2c-3.3-0.2-6.6,0.4-9.6,1.7c-5.6,2.4-14.2,6.2-14.2,6.2l60.4,3.5l16.4-7.8
								C480.4,76.7,441.5,74.2,427.4,73.2z"/>
							<path d="M482.4,80.1c0.1-0.9-0.3-1.8-1.1-2.4c-0.8-0.5-1.7-0.6-2.6-0.2c-5.5,2.6-14.7,7-14.7,7l-8.4,102.3
								c4.9-3.1,9.7-5.2,14.5-6.6c4-1.1,6.9-4.7,7-8.9C478.2,140.9,479.5,110.4,482.4,80.1z"/>
							<path d="M464,84.5l-60.4-3.5c-0.5,15.6-1.9,31-2.7,46.6c-0.9,16.7-1.3,33.4-2.7,50.3c-0.1,1.6,0.4,3.2,1.5,4.4
								c1.1,1.2,2.6,1.9,4.3,1.8c16.1-0.1,32.2,0.9,48.2,2.8c1.5,0.2,3.1-0.3,4.3-1.2c1.2-1,1.9-2.4,2-3.9c0.9-13,2.9-42.6,2.9-42.6
								L464,84.5z"/>
							<path d="M464,84.5l-60.4-3.5c0,0-1,8.8-2.2,19c-0.9,8,1.5,16,6.7,22.2c5.2,6.2,12.7,9.9,20.7,10.4
								c1.4,0.1,2.8,0.2,4.2,0.2c8.1,0.5,16-2.4,21.8-8c5.9-5.5,9.2-13.3,9.2-21.3C464,93.3,464,84.5,464,84.5z"/>
							<path d="M431.7,120.6c2.1,0.1,3.8,2.1,3.6,4.5c-0.1,2.3-2,4.2-4.1,4c-2.1-0.1-3.8-2.1-3.6-4.5
								C427.7,122.3,429.5,120.5,431.7,120.6z"/>
						</g>
					</g>
					<g>
						<path d="M365.4,79.9l4.5-7l23.2,0.8l2.9,8.7L365.4,79.9z"/>
						<path d="M395.7,83.8c0.1-0.7-0.1-1.4-0.6-2c-0.5-0.5-1.1-0.9-1.9-0.9c-7.5-0.3-27.9-1.1-27.9-1.1l-4.1,92
							c0.8,2.1,10.7,3.5,19.5,3.9c2.6,0.1,5.1-0.8,7-2.6c1.9-1.8,3-4.2,3.1-6.8C391.5,138.9,392.6,111.3,395.7,83.8z"/>
					</g>
				</g>
				<g>
					<g>
						<g>
							<path d="M748.2,85.7c3-0.2,6.1,0.3,8.9,1.4c6,2.4,16.2,6.4,16.2,6.4l-66.2,3.8l-17.9-7.7
								C689.3,89.5,733.5,86.6,748.2,85.7z"/>
							<path d="M687,92.7c-0.1-0.9,0.3-1.8,1-2.3s1.7-0.6,2.5-0.3c6,2.6,16.6,7.1,16.6,7.1l8.6,102.3
								c-5.4-3.1-10.8-5.3-16.2-6.6c-4.2-1-7.2-4.7-7.3-9C691.3,153.5,690.1,123.1,687,92.7z"/>
							<path d="M707.2,97.3l66.2-3.8c0.4,15.6,1.9,31,2.7,46.6c0.8,16.7,1.2,33.5,2.7,50.3c0.1,1.6-0.4,3.2-1.5,4.4
								c-1.1,1.2-2.6,1.9-4.3,1.9c-18.1,0-36.1,1.1-54,3.1c-1.5,0.2-3.1-0.3-4.2-1.3c-1.2-1-1.9-2.4-2-3.9c-0.9-12.9-3-42.6-3-42.6
								L707.2,97.3z"/>
							<path d="M707.2,97.3l66.2-3.8c0,0,1,8.7,2.3,18.8c1,8-1.4,16.1-6.6,22.3c-5.2,6.2-12.7,10-20.8,10.4
								c-3.4,0.2-6.8,0.4-10.2,0.6c-8.1,0.5-16-2.4-21.9-8c-5.9-5.6-9.2-13.4-9.1-21.5C707.1,106,707.2,97.3,707.2,97.3z"/>
							<path d="M742.4,133.2c-2.3,0.1-4.1,2.2-4,4.5c0.1,2.4,2.2,4.1,4.5,4c2.3-0.1,4.1-2.2,4-4.5
								C746.7,134.8,744.7,133,742.4,133.2z"/>
						</g>
					</g>
					<g>
						<g>
							<path d="M839.4,73.2c3.3-0.2,6.6,0.4,9.7,1.7c5.6,2.4,14.2,6.2,14.2,6.2l-60.4,3.5l-16.4-7.8
								C786.5,76.7,825.3,74.2,839.4,73.2z"/>
							<path d="M784.4,80.1c-0.1-0.9,0.3-1.8,1.1-2.4c0.8-0.5,1.7-0.6,2.6-0.2c5.5,2.6,14.7,7,14.7,7l8.4,102.3
								c-4.9-3.1-9.7-5.2-14.5-6.6c-4-1.1-6.9-4.7-7-8.9C788.6,140.9,787.4,110.4,784.4,80.1z"/>
							<path d="M802.9,84.5l60.4-3.5c0.5,15.6,1.9,31,2.7,46.6c0.9,16.7,1.3,33.4,2.7,50.3c0.1,1.6-0.4,3.2-1.5,4.4
								c-1.1,1.2-2.6,1.9-4.3,1.8c-16.1-0.1-32.2,0.9-48.2,2.8c-1.5,0.2-3.1-0.3-4.3-1.2c-1.2-1-1.9-2.4-2-3.9
								c-0.9-13-2.9-42.6-2.9-42.6L802.9,84.5z"/>
							<path d="M802.9,84.5l60.4-3.5c0,0,1,8.8,2.2,19c0.9,8-1.5,16-6.7,22.2c-5.2,6.2-12.7,9.9-20.7,10.4
								c-1.4,0.1-2.8,0.2-4.2,0.2c-8.1,0.5-16-2.4-21.8-8c-5.9-5.5-9.2-13.3-9.2-21.3C802.8,93.3,802.9,84.5,802.9,84.5z"/>
							<path d="M835.2,120.6c-2.1,0.1-3.8,2.1-3.6,4.5c0.1,2.3,2,4.2,4.1,4c2.1-0.1,3.8-2.1,3.6-4.5
								C839.2,122.3,837.3,120.5,835.2,120.6z"/>
						</g>
					</g>
					<g>
						<path d="M901.5,79.9l-4.5-7l-23.2,0.8l-2.9,8.7L901.5,79.9z"/>
						<path d="M871.1,83.8c-0.1-0.7,0.1-1.4,0.6-2c0.5-0.5,1.1-0.9,1.9-0.9c7.5-0.3,27.9-1.1,27.9-1.1l4.1,92
							c-0.8,2.1-10.7,3.5-19.5,3.9c-2.6,0.1-5.1-0.8-7-2.6c-1.9-1.8-3-4.2-3.1-6.8C875.3,138.9,874.3,111.3,871.1,83.8z"/>
					</g>
				</g>
				<path d="M663,91.2l9.1,8.9l-74.9-1.4l5.8-8.2L663,91.2z"/>
				<path d="M597.1,98.7l74.7,1.4c-0.8,16.2-0.5,32.4-0.9,48.6c-0.5,17.5-1.4,35-1.2,52.7c0,1.6-0.6,3.2-1.8,4.3
					c-1.2,1.1-2.8,1.7-4.4,1.5c-20.8-1.5-41.7-1.9-62.5-1.2c-1.5,0.1-3-0.5-4.1-1.6c-1.1-1.1-1.7-2.5-1.7-4.1
					c0.1-13.4,0.3-44.8,0.3-44.8L597.1,98.7z"/>
				<path d="M597.1,98.7l74.7,1.4c0,0,0.5,9.8,1,20.9c0.4,8.1-2.6,16-8.3,21.8c-5.7,5.8-13.5,9-21.6,8.9
					c-6.3-0.1-12.8-0.2-19.1-0.4c-8.1-0.2-15.8-3.7-21.3-9.7c-5.4-6.1-8.1-14.1-7.4-22.2C596.3,108.4,597.1,98.7,597.1,98.7z"/>
				<path d="M633.7,138.8c-2.7-0.1-4.8,1.9-4.9,4.4c0,2.5,2.1,4.5,4.7,4.5c2.7,0.1,4.8-1.9,4.9-4.4
					C638.4,140.9,636.3,138.9,633.7,138.8z"/>
			</g>
		</g>
		<g id="Pouch-Belt-6_F_Option">
			<path id="Main_Pouch-Belt-6_F" d="M881.3,151.2c-55.9,5-183.5,23.3-247.9,23.3c-65.1,0-192.7-18.4-247.8-23.2
				l8.2-65.4c45.3,4,176.6,22.6,239.6,22.6c61.2,0,189.7-18.4,238.1-22.8L881.3,151.2z"/>
			<rect id="Buckle_Pouch-Belt-6_F" x="587.7" y="102.2" width="92.4" height="75.8"/>
			<g id="Pouches_Pouch-Belt-6_F">
				<g>
					<g>
						<g>
							<path d="M518.7,85.6c-3-0.2-6.1,0.3-8.9,1.4c-6,2.4-16.2,6.4-16.2,6.4l66.2,3.8l17.9-7.7
								C577.6,89.5,533.3,86.6,518.7,85.6z"/>
							<path d="M579.8,92.7c0.1-0.9-0.3-1.8-1-2.3c-0.7-0.5-1.7-0.6-2.5-0.3c-6,2.6-16.6,7.1-16.6,7.1l-8.6,102.3
								c5.4-3.1,10.8-5.3,16.2-6.6c4.2-1,7.2-4.7,7.3-9C575.6,153.4,576.8,123,579.8,92.7z"/>
							<path d="M559.7,97.2l-66.2-3.8c-0.4,15.6-1.9,31-2.7,46.6c-0.8,16.7-1.2,33.5-2.7,50.3c-0.1,1.6,0.4,3.2,1.5,4.4
								c1.1,1.2,2.6,1.9,4.3,1.9c18.1,0,36.1,1.1,54,3.1c1.5,0.2,3.1-0.3,4.2-1.3c1.2-1,1.9-2.4,2-3.9c0.9-12.9,3-42.6,3-42.6
								L559.7,97.2z"/>
							<path d="M559.7,97.2l-66.2-3.8c0,0-1,8.7-2.3,18.8c-1,8,1.4,16.1,6.6,22.3c5.2,6.2,12.7,10,20.8,10.4
								c3.4,0.2,6.8,0.4,10.2,0.6c8.1,0.5,16-2.4,21.9-8c5.9-5.6,9.2-13.4,9.1-21.5C559.7,105.9,559.7,97.2,559.7,97.2z"/>
							<path d="M524.5,133.1c2.3,0.1,4.1,2.2,4,4.5c-0.1,2.3-2.2,4.1-4.5,4c-2.3-0.1-4.1-2.2-4-4.5
								C520.1,134.8,522.1,133,524.5,133.1z"/>
						</g>
					</g>
					<g>
						<g>
							<path d="M427.4,73.1c-3.3-0.2-6.6,0.4-9.6,1.7c-5.6,2.4-14.2,6.2-14.2,6.2l60.4,3.5l16.4-7.8
								C480.4,76.7,441.5,74.1,427.4,73.1z"/>
							<path d="M482.4,80c0.1-0.9-0.3-1.8-1.1-2.4c-0.8-0.5-1.7-0.6-2.6-0.2c-5.5,2.6-14.7,7-14.7,7l-8.4,102.3
								c4.9-3.1,9.7-5.2,14.5-6.6c4-1.1,6.9-4.7,7-8.9C478.2,140.8,479.5,110.4,482.4,80z"/>
							<path d="M464,84.5L403.6,81c-0.5,15.5-1.9,31-2.7,46.6c-0.9,16.7-1.3,33.4-2.7,50.3c-0.1,1.6,0.4,3.2,1.5,4.4
								c1.1,1.2,2.6,1.9,4.3,1.8c16.1-0.1,32.2,0.9,48.2,2.8c1.5,0.2,3.1-0.3,4.3-1.2c1.2-1,1.9-2.4,2-3.9c0.9-13,2.9-42.6,2.9-42.6
								L464,84.5z"/>
							<path d="M464,84.5L403.6,81c0,0-1,8.8-2.2,19c-0.9,8,1.5,16,6.7,22.2c5.2,6.2,12.7,9.9,20.7,10.4
								c1.4,0.1,2.8,0.2,4.2,0.2c8.1,0.5,16-2.4,21.8-8c5.9-5.5,9.2-13.3,9.2-21.3C464,93.3,464,84.5,464,84.5z"/>
							<path d="M431.7,120.5c2.1,0.1,3.8,2.1,3.6,4.5c-0.1,2.3-2,4.2-4.1,4c-2.1-0.1-3.8-2.1-3.6-4.5
								C427.7,122.2,429.5,120.4,431.7,120.5z"/>
						</g>
					</g>
					<g>
						<path d="M365.4,79.8l4.5-7l23.2,0.8l2.9,8.7L365.4,79.8z"/>
						<path d="M395.7,83.8c0.1-0.7-0.1-1.4-0.6-2c-0.5-0.5-1.1-0.9-1.9-0.9c-7.5-0.3-27.9-1.1-27.9-1.1l-4.1,92
							c0.8,2.1,10.7,3.5,19.5,3.9c2.6,0.1,5.1-0.8,7-2.6c1.9-1.8,3-4.2,3.1-6.8C391.5,138.8,392.6,111.2,395.7,83.8z"/>
					</g>
				</g>
				<g>
					<g>
						<g>
							<path d="M748.2,85.6c3-0.2,6.1,0.3,8.9,1.4c6,2.4,16.2,6.4,16.2,6.4l-66.2,3.8l-17.9-7.7
								C689.3,89.5,733.5,86.6,748.2,85.6z"/>
							<path d="M687,92.7c-0.1-0.9,0.3-1.8,1-2.3s1.7-0.6,2.5-0.3c6,2.6,16.6,7.1,16.6,7.1l8.6,102.3
								c-5.4-3.1-10.8-5.3-16.2-6.6c-4.2-1-7.2-4.7-7.3-9C691.3,153.4,690.1,123,687,92.7z"/>
							<path d="M707.2,97.2l66.2-3.8c0.4,15.6,1.9,31,2.7,46.6c0.8,16.7,1.2,33.5,2.7,50.3c0.1,1.6-0.4,3.2-1.5,4.4
								c-1.1,1.2-2.6,1.9-4.3,1.9c-18.1,0-36.1,1.1-54,3.1c-1.5,0.2-3.1-0.3-4.2-1.3c-1.2-1-1.9-2.4-2-3.9c-0.9-12.9-3-42.6-3-42.6
								L707.2,97.2z"/>
							<path d="M707.2,97.2l66.2-3.8c0,0,1,8.7,2.3,18.8c1,8-1.4,16.1-6.6,22.3c-5.2,6.2-12.7,10-20.8,10.4
								c-3.4,0.2-6.8,0.4-10.2,0.6c-8.1,0.5-16-2.4-21.9-8c-5.9-5.6-9.2-13.4-9.1-21.5C707.1,105.9,707.2,97.2,707.2,97.2z"/>
							<path d="M742.4,133.1c-2.3,0.1-4.1,2.2-4,4.5c0.1,2.3,2.2,4.1,4.5,4c2.3-0.1,4.1-2.2,4-4.5
								C746.7,134.8,744.7,133,742.4,133.1z"/>
						</g>
					</g>
					<g>
						<g>
							<path d="M839.4,73.1c3.3-0.2,6.6,0.4,9.7,1.7c5.6,2.4,14.2,6.2,14.2,6.2l-60.4,3.5l-16.4-7.8
								C786.5,76.7,825.3,74.1,839.4,73.1z"/>
							<path d="M784.4,80c-0.1-0.9,0.3-1.8,1.1-2.4c0.8-0.5,1.7-0.6,2.6-0.2c5.5,2.6,14.7,7,14.7,7l8.4,102.3
								c-4.9-3.1-9.7-5.2-14.5-6.6c-4-1.1-6.9-4.7-7-8.9C788.6,140.8,787.4,110.4,784.4,80z"/>
							<path d="M802.9,84.5l60.4-3.5c0.5,15.5,1.9,31,2.7,46.6c0.9,16.7,1.3,33.4,2.7,50.3c0.1,1.6-0.4,3.2-1.5,4.4
								s-2.6,1.9-4.3,1.8c-16.1-0.1-32.2,0.9-48.2,2.8c-1.5,0.2-3.1-0.3-4.3-1.2c-1.2-1-1.9-2.4-2-3.9c-0.9-13-2.9-42.6-2.9-42.6
								L802.9,84.5z"/>
							<path d="M802.9,84.5l60.4-3.5c0,0,1,8.8,2.2,19c0.9,8-1.5,16-6.7,22.2c-5.2,6.2-12.7,9.9-20.7,10.4
								c-1.4,0.1-2.8,0.2-4.2,0.2c-8.1,0.5-16-2.4-21.8-8c-5.9-5.5-9.2-13.3-9.2-21.3C802.8,93.3,802.9,84.5,802.9,84.5z"/>
							<path d="M835.2,120.5c-2.1,0.1-3.8,2.1-3.6,4.5c0.1,2.3,2,4.2,4.1,4c2.1-0.1,3.8-2.1,3.6-4.5
								C839.2,122.2,837.3,120.4,835.2,120.5z"/>
						</g>
					</g>
					<g>
						<path d="M901.5,79.8l-4.5-7l-23.2,0.8l-2.9,8.7L901.5,79.8z"/>
						<path d="M871.1,83.8c-0.1-0.7,0.1-1.4,0.6-2c0.5-0.5,1.1-0.9,1.9-0.9c7.5-0.3,27.9-1.1,27.9-1.1l4.1,92
							c-0.8,2.1-10.7,3.5-19.5,3.9c-2.6,0.1-5.1-0.8-7-2.6c-1.9-1.8-3-4.2-3.1-6.8C875.3,138.8,874.3,111.2,871.1,83.8z"/>
					</g>
				</g>
			</g>
		</g>
		<g id="Pouch-Belt-4_F_Option">
			<path id="Main_Pouch-Belt-4_F" d="M881.3,151.2c-55.9,5-183.5,23.3-247.9,23.3c-65.1,0-192.7-18.4-247.8-23.2
				l8.2-65.4c45.3,4,176.6,22.6,239.6,22.6c61.2,0,189.7-18.4,238.1-22.8L881.3,151.2z"/>
			<rect id="Buckle_Pouch-Belt-4_F" x="587.7" y="102.2" width="92.4" height="75.8"/>
			<g id="Pouches_Pouch-Belt-4_F">
				<g>
					<g>
						<path d="M427.4,73.1c-3.3-0.2-6.6,0.4-9.6,1.7c-5.6,2.4-14.2,6.2-14.2,6.2l60.4,3.5l16.4-7.8
							C480.4,76.7,441.5,74.1,427.4,73.1z"/>
						<path d="M482.4,80c0.1-0.9-0.3-1.8-1.1-2.4c-0.8-0.5-1.7-0.6-2.6-0.2c-5.5,2.6-14.7,7-14.7,7l-8.4,102.3
							c4.9-3.1,9.7-5.2,14.5-6.6c4-1.1,6.9-4.7,7-8.9C478.2,140.8,479.5,110.4,482.4,80z"/>
						<path d="M464,84.5L403.6,81c-0.5,15.5-1.9,31-2.7,46.6c-0.9,16.7-1.3,33.4-2.7,50.3c-0.1,1.6,0.4,3.2,1.5,4.4
							c1.1,1.2,2.6,1.9,4.3,1.8c16.1-0.1,32.2,0.9,48.2,2.8c1.5,0.2,3.1-0.3,4.3-1.2c1.2-1,1.9-2.4,2-3.9c0.9-13,2.9-42.6,2.9-42.6
							L464,84.5z"/>
						<path d="M464,84.5L403.6,81c0,0-1,8.8-2.2,19c-0.9,8,1.5,16,6.7,22.2c5.2,6.2,12.7,9.9,20.7,10.4
							c1.4,0.1,2.8,0.2,4.2,0.2c8.1,0.5,16-2.4,21.8-8c5.9-5.5,9.2-13.3,9.2-21.3C464,93.3,464,84.5,464,84.5z"/>
						<path d="M431.7,120.5c2.1,0.1,3.8,2.1,3.6,4.5c-0.1,2.3-2,4.2-4.1,4c-2.1-0.1-3.8-2.1-3.6-4.5
							C427.7,122.2,429.5,120.4,431.7,120.5z"/>
					</g>
				</g>
				<g>
					<path d="M365.4,79.8l4.5-7l23.2,0.8l2.9,8.7L365.4,79.8z"/>
					<path d="M395.7,83.8c0.1-0.7-0.1-1.4-0.6-2c-0.5-0.5-1.1-0.9-1.9-0.9c-7.5-0.3-27.9-1.1-27.9-1.1l-4.1,92
						c0.8,2.1,10.7,3.5,19.5,3.9c2.6,0.1,5.1-0.8,7-2.6c1.9-1.8,3-4.2,3.1-6.8C391.5,138.8,392.6,111.2,395.7,83.8z"/>
				</g>
				<g>
					<g>
						<path d="M839.4,73.1c3.3-0.2,6.6,0.4,9.7,1.7c5.6,2.4,14.2,6.2,14.2,6.2l-60.4,3.5l-16.4-7.8
							C786.5,76.7,825.3,74.1,839.4,73.1z"/>
						<path d="M784.4,80c-0.1-0.9,0.3-1.8,1.1-2.4c0.8-0.5,1.7-0.6,2.6-0.2c5.5,2.6,14.7,7,14.7,7l8.4,102.3
							c-4.9-3.1-9.7-5.2-14.5-6.6c-4-1.1-6.9-4.7-7-8.9C788.6,140.8,787.4,110.4,784.4,80z"/>
						<path d="M802.9,84.5l60.4-3.5c0.5,15.5,1.9,31,2.7,46.6c0.9,16.7,1.3,33.4,2.7,50.3c0.1,1.6-0.4,3.2-1.5,4.4
							s-2.6,1.9-4.3,1.8c-16.1-0.1-32.2,0.9-48.2,2.8c-1.5,0.2-3.1-0.3-4.3-1.2c-1.2-1-1.9-2.4-2-3.9c-0.9-13-2.9-42.6-2.9-42.6
							L802.9,84.5z"/>
						<path d="M802.9,84.5l60.4-3.5c0,0,1,8.8,2.2,19c0.9,8-1.5,16-6.7,22.2c-5.2,6.2-12.7,9.9-20.7,10.4
							c-1.4,0.1-2.8,0.2-4.2,0.2c-8.1,0.5-16-2.4-21.8-8c-5.9-5.5-9.2-13.3-9.2-21.3C802.8,93.3,802.9,84.5,802.9,84.5z"/>
						<path d="M835.2,120.5c-2.1,0.1-3.8,2.1-3.6,4.5c0.1,2.3,2,4.2,4.1,4c2.1-0.1,3.8-2.1,3.6-4.5
							C839.2,122.2,837.3,120.4,835.2,120.5z"/>
					</g>
				</g>
				<g>
					<path d="M901.5,79.8l-4.5-7l-23.2,0.8l-2.9,8.7L901.5,79.8z"/>
					<path d="M871.1,83.8c-0.1-0.7,0.1-1.4,0.6-2c0.5-0.5,1.1-0.9,1.9-0.9c7.5-0.3,27.9-1.1,27.9-1.1l4.1,92
						c-0.8,2.1-10.7,3.5-19.5,3.9c-2.6,0.1-5.1-0.8-7-2.6c-1.9-1.8-3-4.2-3.1-6.8C875.3,138.8,874.3,111.2,871.1,83.8z"/>
				</g>
			</g>
		</g>
		<g id="Pouch-Belt-2_F_Option">
			<path id="Main_Pouch-Belt-2_F" d="M881.3,151.2c-55.9,5-183.5,23.3-247.9,23.3c-65.1,0-192.7-18.4-247.8-23.2
				l8.2-65.4c45.3,4,176.6,22.6,239.6,22.6c61.2,0,189.7-18.4,238.1-22.8L881.3,151.2z"/>
			<rect id="Buckle_Pouch-Belt-2_F" x="587.7" y="102.2" width="92.4" height="75.8"/>
			<g id="Pouches_Pouch-Belt-2_F">
				<g>
					<path d="M365.4,79.8l4.5-7l23.2,0.8l2.9,8.7L365.4,79.8z"/>
					<path d="M395.7,83.8c0.1-0.7-0.1-1.4-0.6-2c-0.5-0.5-1.1-0.9-1.9-0.9c-7.5-0.3-27.9-1.1-27.9-1.1l-4.1,92
						c0.8,2.1,10.7,3.5,19.5,3.9c2.6,0.1,5.1-0.8,7-2.6c1.9-1.8,3-4.2,3.1-6.8C391.5,138.8,392.6,111.2,395.7,83.8z"/>
				</g>
				<g>
					<path d="M901.5,79.8l-4.5-7l-23.2,0.8l-2.9,8.7L901.5,79.8z"/>
					<path d="M871.1,83.8c-0.1-0.7,0.1-1.4,0.6-2c0.5-0.5,1.1-0.9,1.9-0.9c7.5-0.3,27.9-1.1,27.9-1.1l4.1,92
						c-0.8,2.1-10.7,3.5-19.5,3.9c-2.6,0.1-5.1-0.8-7-2.6c-1.9-1.8-3-4.2-3.1-6.8C875.3,138.8,874.3,111.2,871.1,83.8z"/>
				</g>
			</g>
		</g>
		<g id="Basic-Belt_F_Option">
			<path id="Main_Basic-Belt_F" d="M881.3,151.2c-55.9,5-183.5,23.3-247.9,23.3c-65.1,0-192.7-18.4-247.8-23.2l8.2-65.4
				c45.3,4,176.6,22.6,239.6,22.6c61.2,0,189.7-18.4,238.1-22.8L881.3,151.2z"/>
			<rect id="Buckle_Basic-Belt_F" x="587.7" y="102.2" width="92.4" height="75.8"/>
		</g>
	</g>
</g>
</svg>
