<?xml version="1.0" encoding="UTF-8" standalone="no"?>
<!DOCTYPE svg PUBLIC "-//W3C//DTD SVG 1.1//EN" "http://www.w3.org/Graphics/SVG/1.1/DTD/svg11.dtd">
<svg id="Male-Body" viewBox="0 0 1800 3300" version="1.1" xmlns="http://www.w3.org/2000/svg" style="stroke:black;stroke-width:2px;fill-rule:evenodd;height:100%;">
<style>
	#Stitch_Right,
	#Stitch_Left {
		stroke-dasharray: 4;
	}
</style>
<g id="Back_M" transform="translate(0,560)">
	<g id="Cape_M">
		<path id="Torn-Full-Cape_Back_M_Option" d="M724.6,148.9c-124.5,47-263.2,273.6-280.3,445.9c-10.8,108.7-63.8,219.2-58.9,327.4
			c5,109.8-50.3,223.6-54.4,333.3c-3.7,98.8-32.8,144-49.7,241.7c-25.3,146.2-53.3,242.6-76,388.9c-18.1,116.3-72.6,212.5-98.3,248.8
			c-1,1.3,26.1-12.5,59.6-13.1c9.8-0.2,58.5-71.8,58.5-71.8s60.7,50.6,73.2,79.1c16.4-10.4,28.9-161.8,47.6-167.7
			c9.8-3.1,27.8,190.1,27.8,190.1s29.2-57.2,40.4-57.4c24-0.5,67.9,21.5,92.5,24.1c26.1,2.8,53-40.5,81.6-33.4
			c44,10.8,87.6,9.9,131.4,15.6c30.9,4,61.9,64.3,93,64.2c38.3-0.1,32.9-89.9,72.1-98.6c33.6-7.4,79.3,72.7,79.3,72.7
			s10.6-265.9,43.7-276.8c43.4-14.2,206.6,200.1,252,195.9c13.4-1.2,30.7-135.6,43.9-135.4c28.8,0.6,53.3,138.4,81.7,143.8
			c35.6,6.8,52.8-59.9,87.9-51.2c9.9,2.5,37.8,80.9,47.7,83.2c21.7,5.1,51.7,17.9,74.2,16.5c0.6,0-7.2-52.1-8.3-57.7
			c-5-24.9-13-49.3-23-73c-11.9-28.2-26.7-55.2-42.8-80.7c-75.2-119-49.3-249.6-63-390.3c-13.3-136.4,0.6-273.1-22.3-409.2
			c-20.3-120.4-91.5-232.5-109.4-354c-20.9-142.6-69.6-295.3-112.6-433.8C1160.7,145.9,849.2,101.9,724.6,148.9z M759.9,1958.3
			c-10,25.8-13.9,52.8-11.1,80.4c1.3,12.5,4.9,25.4,11.1,36.5c0.6,1.1,0.9,4.1,1.9,3.2C808.6,2036.7,759.9,1958.3,759.9,1958.3z
			 M393.9,1700.3c-4.3,82.5-12,165.4-12,248c0,15.5,0.2,30.9,1.6,46.3c0.2,2.4,2.6,25.1,3.8,24.8c28-5.6,14.4-82.1,21-105.9
			C431.3,1831.2,393.9,1700.3,393.9,1700.3z M1371.9,1986.3c-2.5,29.9,6.5,26.6,14.2,11.6c7.7-15,13.9-41.6,5.9-58.4L1371.9,1986.3z
			 M1249.9,1726.3c-6.9,49.5,3.8,91.6,7.4,140.3c1.2,15.9,1.2,31.8,1.5,47.7c0.1,5.3,0.3,10.7,0.2,16c-0.1,2.7-2,10.1-0.1,8.2
			c37.3-38.9,33.1-114,21.5-162.1L1249.9,1726.3z M803.9,1872.3c-0.4,12.7-0.2,25.9,1.5,38.5c3.4,25.5,17.7-14.6,17.9-24.7
			c0.3-14-9.1-30.4-12.5-43.9L803.9,1872.3z"/>
		<path id="Full-Cape_Back_M_Option" d="M724.6,148.9c-124.5,47-263.2,273.6-280.3,445.9
			c-10.8,108.7-63.8,219.2-58.9,327.4c5,109.8-50.3,223.6-54.4,333.3c-3.7,98.8-32.8,144-49.7,241.7c-25.3,146.2-53.3,242.6-76,388.9
			c-18.1,116.3-72.6,212.5-98.3,248.8c-2.3,3.3,158.8-0.6,191.3-5.8c105.1-17,185.6-21.9,289.9,3.7c113.3,27.8,224.6,44.8,340.4,19.2
			c111.6-24.7,216.5-83.7,331-94.2c88.9-8.2,175.7,20.5,261.2,40.4c21.7,5.1,51.7,18,74.2,16.5c0.6,0-7.2-52.1-8.3-57.7
			c-11-54.7-36.3-106.9-65.8-153.7c-75.2-119-49.3-249.6-63-390.3c-13.3-136.4,0.6-273.1-22.3-409.2
			c-20.3-120.4-91.5-232.5-109.4-354c-20.9-142.6-69.6-295.3-112.6-433.8C1160.7,145.9,849.2,101.9,724.6,148.9z"/>
		<path id="Torn-Short-Cape-Left_Back_M_Option" d="M1098.1,599.3c-12.1-59.7-18.2-267.9-96.2-294.1
			c-68.8-23.1,86.7-150.1,86.7-150.1c3.7-11.1,42.1-10.9,51.4-10.7c21.7,0.4,85.7,19.5,103,33c47.8,37.3,65.5,117.4,82.3,145.6
			c46.5,78.2,89.7,171.5,103.8,250c13.6,76.1,48.8,144.2,75.4,213.3c30.1,78.1,45.4,133.2,72.2,213.1c27.5,82.4,60,155.5,106.1,214.5
			c18.1,23.2,46.9,42,59.7,73.1c1.3,3.2,14.5,70.5,14.3,70.6c-7.8,4.6-36.9-38.6-45.5-37.9c-15.2,1.1-117.3-27.7-123,24.7
			c-2.1,19-11,62.3-11,62.3s-66.7,1.2-84.7-13.7l6.6,83.6c0,0-28.9-35.6-61.6-50.3c-12.3-5.6-36.6,7.7-36.6,7.7l-40.6-42
			c0,0,12.6,97.6,19,128c0,0-97.5-50-104.5-34.7c-6.7,14.6,10,48.9-7,62.6c-10.8,8.7-43.2,38.2-42.9,35.8
			c3.4-26.2,7.4-93.3-4.8-166.4c-15.4-92-20.9-154.7-35.3-247c-9.7-61.7-6.5-93.8-21-153.9c-16.2-66.7-14.7-144.6-34.1-209.8
			C1110.5,742.1,1111.7,666.6,1098.1,599.3z M1318.1,1275.4c4,15.4,13.6,30.1,21,44.2c4.4,8.5,50.4,59.3,59.1,63.7
			c14.2,7.1-45.9-70.6-49.6-82c-11.4-35.8,2.8-47.7-32.1-61.3L1318.1,1275.4z M1534.7,1311.4c-0.6,3.1-1.2,6.3-1.6,9.5
			c-2.9,24.7,17.5-1.3,10.2-7.6L1534.7,1311.4z M1598.1,1227.8c3.2,2.8,62.5,51.8,65.5,50.9c2.9-0.9-8.7-22-10-23.8
			c-7.2-10.5-17.8-18.3-28.1-25.5L1598.1,1227.8z"/>
		<path id="Short-Cape-Left_Back_M_Option" d="M1104.5,232.3c-14.2-39.4-26.3-78.8-26.3-78.8
			c4.9-10.9,43.1-10.5,53.8-9.9c24.9,1.6,60,12.8,75.2,31.3c8.7,10.5,26.4,11.1,32.3,23.9c0.5,1,5.8,11.7,5.3,12.2
			c-0.1,0.1,3,21.7,6.6,46.9c25.3,20.1,48,46.7,63.3,77.7c38.5,78.1,77,166.2,106.7,250.1c25.4,71.5,68.3,141.3,94.6,211.8
			c29.7,79.7,43.8,135.5,69.5,216.7c26.5,83.8,59.1,158.6,108.4,220c19.4,24.2,51.3,44.5,64,76.3c1.3,3.3,12.2,33.9,12,34
			c-9.3,4.2-23.9,0.8-33.8,0.9c-39.1,0.5-120.9-45.2-157.4-27c-46.9,23.4-41.8,116.1-85.5,147.8c-45.3,32.8-122.1-48.2-174.2-48.3
			c-47.9-0.1-36.3,126.7-78.3,152.7c-13,8.1-98.3,9.7-97.8,7.3c5.5-26,14.5-92.7,5.1-166.4c-11.8-92.7-14.1-155.6-24.8-248.6
			c-7.2-62.1-1.4-94-14.4-154.8c-14.4-67.5-7.6-145.2-25.8-211.4c-18-65.3-11.7-140.6-23.1-208.5c-18-107.7-2.5-307.5,43.3-354.6
			C1103.7,233.1,1104.1,232.7,1104.5,232.3z"/>
		<path id="Torn-Short-Cape-Right_Back_M_Option" d="M699.8,599.3c12.1-59.7,18.2-267.9,96.2-294.1
			c68.8-23.1-86.6-150.1-86.6-150.1c-3.7-11.1-42.1-10.9-51.4-10.7c-21.7,0.4-85.7,19.5-103,33c-47.8,37.3-65.5,117.4-82.3,145.6
			c-46.5,78.2-89.7,171.5-103.8,250c-13.6,76.1-48.8,144.2-75.5,213.3c-30.1,78.1-45.4,133.2-72.2,213.1
			c-27.5,82.4-60,155.5-106.1,214.5c-18.1,23.2-46.9,42-59.6,73.1c-1.3,3.2-14.5,70.5-14.3,70.6c7.8,4.6,36.9-38.6,45.5-37.9
			c15.2,1.1,117.3-27.7,123,24.7c2.1,19,11,62.3,11,62.3s66.7,1.2,84.7-13.7l-6.6,83.6c0,0,28.9-35.6,61.6-50.3
			c12.3-5.6,36.6,7.7,36.6,7.7l40.6-42c0,0-12.6,97.6-19,128c0,0,97.5-50,104.5-34.7c6.7,14.6-10,48.9,7,62.6
			c10.8,8.7,43.2,38.2,42.9,35.8c-3.3-26.2-7.4-93.3,4.8-166.4c15.4-92,20.9-154.7,35.3-247c9.7-61.7,6.5-93.8,21-153.9
			c16.2-66.7,14.7-144.6,34.1-209.8C687.4,742.1,686.2,666.6,699.8,599.3z M479.8,1275.4c-4,15.4-13.6,30.1-21,44.2
			c-4.5,8.5-50.4,59.3-59.1,63.7c-14.2,7.1,45.9-70.6,49.6-82c11.4-35.8-2.8-47.7,32.1-61.3L479.8,1275.4z M263.2,1311.4
			c0.6,3.1,1.2,6.3,1.5,9.5c2.9,24.7-17.5-1.3-10.2-7.6L263.2,1311.4z M199.8,1227.8c-3.2,2.8-62.5,51.8-65.5,50.9
			c-2.9-0.9,8.7-22,10-23.8c7.2-10.5,17.8-18.3,28.1-25.5L199.8,1227.8z"/>
		<path id="Short-Cape-Right_Back_M_Option" d="M695.5,232.3c14.2-39.4,26.3-78.8,26.3-78.8
			c-4.9-10.9-43.1-10.5-53.8-9.9c-24.9,1.6-60,12.8-75.2,31.3c-8.7,10.5-26.4,11.1-32.3,23.9c-0.5,1-5.8,11.7-5.3,12.2
			c0.1,0.1-3,21.7-6.6,46.9c-25.3,20.1-48,46.7-63.3,77.7c-38.5,78.1-77,166.2-106.7,250.1c-25.4,71.5-68.3,141.3-94.6,211.8
			c-29.7,79.7-43.8,135.5-69.5,216.7c-26.5,83.8-59.1,158.6-108.4,220c-19.4,24.2-51.3,44.5-64,76.3c-1.3,3.3-12.2,33.9-12,34
			c9.3,4.2,23.9,0.8,33.8,0.9c39.1,0.5,120.9-45.2,157.4-27c46.9,23.4,41.8,116.1,85.5,147.8c45.3,32.8,122.1-48.2,174.2-48.3
			c47.9-0.1,36.3,126.7,78.3,152.7c13,8.1,98.4,9.7,97.8,7.3c-5.5-26-14.5-92.7-5.1-166.4c11.8-92.7,14.1-155.6,24.8-248.6
			c7.2-62.1,1.4-94,14.4-154.8c14.4-67.5,7.6-145.2,25.8-211.4c18-65.3,11.7-140.6,23.1-208.5c18-107.7,2.5-307.5-43.3-354.6
			C696.3,233.1,695.9,232.7,695.5,232.3z"/>
		<g id="None_Back_M_Option"> </g>
	</g>
</g>
<g id="Flight-Suit" transform="translate(260,575)">
	<title>Flight Suit (Kute)</title>
	<g id="Soft-Parts_M">
		<g id="Suit_M">
			<g id="Neck-Seal_M">
				<path id="Plain-Neck-Seal_M_Option" d="M774.5,39.6l31.2,72.9l-2.2,72.3l-163.5,17v0.1l-0.3,0l-0.3,0v-0.1l-162.5-17 l-2.2-72.3l31.2-72.9L640,46.7L774.5,39.6"/>
				<g id="Standard-Neck-Seal_M_Option">
					<path d="M785.8,54.9c0-9.6-9.8-17.3-21.9-17.3c0,0-82.7,9.1-124,9.1s-124-9.1-124-9.1c-12.1,0-21.9,7.8-21.9,17.3
						c0,9.6,9.8,17.3,21.9,17.3c0,0,82.7,9.1,124,9.1s124-9.1,124-9.1C775.9,72.2,785.8,64.4,785.8,54.9z"/>
					<path d="M793.2,75.1c0-10-10.3-18.2-23-18.2c0,0-86.9,9.6-130.3,9.6c-43.4,0-130.3-9.6-130.3-9.6
						c-12.7,0-23,8.1-23,18.2s10.3,18.2,23,18.2c0,0,86.9,9.6,130.3,9.6c43.4,0,130.3-9.6,130.3-9.6C782.8,93.3,793.2,85.1,793.2,75.1
						z"/>
					<path d="M801.5,100.2c0-10.6-10.9-19.2-24.3-19.2c0,0-91.6,10.1-137.4,10.1S502.4,81.1,502.4,81.1
						c-13.4,0-24.3,8.6-24.3,19.2s10.9,19.2,24.3,19.2c0,0,91.6,10.1,137.4,10.1s137.4-10.1,137.4-10.1
						C790.7,119.4,801.5,110.8,801.5,100.2z"/>
					<path d="M809.6,123.3c0-11.1-11.4-20.1-25.5-20.1c0,0-96.2,10.6-144.3,10.6c-48.1,0-144.3-10.6-144.3-10.6
						c-14.1,0-25.5,9-25.5,20.1s11.4,20.1,25.5,20.1c0,0,96.2,10.6,144.3,10.6c48.1,0,144.3-10.6,144.3-10.6
						C798.2,143.4,809.6,134.4,809.6,123.3z"/>
					<path d="M817.7,145.9c0-8.4-12-15.2-26.7-15.2c0,0-100.8,8-151.1,8s-151.1-8-151.1-8c-14.7,0-26.7,6.8-26.7,15.2
						c0,8.4,12,15.2,26.7,15.2c0,0,100.7,8,151.1,8s151.1-8,151.1-8C805.7,161.1,817.7,154.3,817.7,145.9z"/>
					<path d="M817.7,171.2c0-8.4-12-15.2-26.7-15.2c0,0-100.8,8-151.1,8s-151.1-8-151.1-8c-14.7,0-26.7,6.8-26.7,15.2
						c0,8.4,12,15.2,26.7,15.2c0,0,100.7,15.4,151.1,15.4S791,186.4,791,186.4C805.7,186.4,817.7,179.6,817.7,171.2z"/>
				</g>
			</g>
			<g id="Flight-Suit_M">
				<path d="M516.6,1664.2l-15.7,92.9L384,2323.3c0,0-52.3,31.5-79.1,36.9c-26.8,5.4-81.9-4.7-81.9-4.7l40.8-458.5
					l30.8-195.8l7-83.3c0,0-26.8-242.9-18.1-364c8.7-121.1,70.6-362.6,70.6-362.6l285.9,6.2l285.9-6.2c0,0,61.8,241.5,70.6,362.6
					c8.7,121.1-18.1,364-18.1,364l7,83.3l30.8,195.8l40.8,458.5c0,0-56.4,12.7-83.2,7.3c-26.8-5.4-77.8-39.6-77.8-39.6l-116.9-566.3
					l-15.7-92.9l-123.2-323.4L516.6,1664.2z"/>
				<g>
					<path d="M1110.7,436.8l127,444l11,228.9l-101.2,19.5l-64.2-215.5L938.7,551.9l7.3-165.8l24.5-39.6L1110.7,436.8z"/>
					<path d="M169.3,436.6l139.9-90.1l24.5,39.6l5.5,171L196.7,913.8l-64.2,215.5l-101.2-19.5l11-228.9L169.3,436.6z"/>
				</g>
			</g>
		</g>
		<g id="Boots_M">
			<g id="Tall_Boots_M_Option">
				<g id="Bottom_Tall-Boot_M">
					<path d="M879.8,2430.7c0.3,1.4,0.6,2.8,1,4.3c10.2,18.8,38,25.2,57.1,29.7c13.5,3.2,26.5,7.6,39.2,13.1
						c17.6,7.5,26.4,20.6,40.1,33.1c6.1,5.6,13.4,9.9,20.4,14.1c17.5,10.6,34.4,11.4,54.3,11.9c26.7,0.8,50.4-2.9,76.7-8.8
						c23-5.2,40.2-9.5,60.1-15.1c6-1.7,13.2-2.9,16.8-7.3l3,6.7l2.2,17.5c0,0-21.5,11.6-44.5,16.7c-22.9,5.1-69.2,12.3-69.2,12.3
						l-3.2-7.6l-10.4,2.2l0.5,7.5l-25.2,1.4l-5.4-7.3l-8.4,0.2l1.3,6.5c0,0-15.6-0.3-24.3-5.4c-1.7-2.5-4.8-6.5-4.8-6.5l-6-3.2
						l0.8,6.1l-21.7-7.8l-1.1-8.4l-6.2-3.7l-0.3,6.1l-15.5-12l-1.7-7.4l-33.2-17.5l-11.3,4.6l-27-5.9l-0.9-5.8l-6.9-2.8l-4.8,4.5
						l-18.1-7.5l-0.4-5.4l-5.9-2.1l-0.7,3.9l-17.2-11.9L879.8,2430.7z M879.1,2423.8L879.1,2423.8L879.1,2423.8L879.1,2423.8z"/>
					<path d="M400.1,2430.7c-0.3,1.4-0.6,2.8-1,4.3c-10.2,18.8-38,25.2-57.1,29.7c-13.5,3.2-26.5,7.6-39.2,13.1
						c-17.6,7.5-26.4,20.6-40.1,33.1c-6.1,5.6-13.3,9.9-20.4,14.1c-17.5,10.6-34.4,11.4-54.3,11.9c-26.7,0.8-50.4-2.9-76.7-8.8
						c-23-5.2-40.2-9.5-60.1-15.1c-6-1.7-13.2-2.9-16.8-7.3l-3,6.7l-2.2,17.5c0,0,21.5,11.6,44.5,16.7c22.9,5.1,69.2,12.3,69.2,12.3
						l3.2-7.6l10.4,2.2l-0.5,7.5l25.2,1.4l5.4-7.3l8.4,0.2l-1.3,6.5c0,0,15.6-0.3,24.3-5.4c1.6-2.5,4.8-6.5,4.8-6.5l6-3.2l-0.8,6.1
						l21.7-7.8l1.1-8.4l6.2-3.7l0.3,6.1l15.4-12l1.7-7.4l33.2-17.5l11.3,4.6l27-5.9l0.9-5.8l6.9-2.8l4.8,4.5l18.1-7.5l0.4-5.4l5.9-2.1
						l0.7,3.9l17.2-11.9L400.1,2430.7z M400.8,2423.8L400.8,2423.8L400.8,2423.8L400.8,2423.8z"/>
				</g>
				<g id="Main_Tall-Boot_M">
					<path d="M879.9,2288.3c-15.4-45.1-26.9-117.1-36.1-150c-6.9-24.6-38.5-158.6-33.3-175.4
						c5.3-17,208.5-51.8,215.1-36.4c10,23.5,21.6,255.8,23.3,290c1.3,25,5,49.7,5,74.8l-0.1,0.1c2.6,13.7,4.9,28.3,10.5,40.6
						c10.7,23.1,10.2,33.2,28.1,50.6c12.3,12,44.1,33.2,58.7,42.3c6.2,3.9,12.8,6.8,19.6,9.3l0.6,0.2c27,10.1,56.1,13.9,70.8,43.8
						c3.2,6.5,5.9,14.3,5.4,21.7c-0.7,9.5-11,10.8-19,13.1c-19.9,5.7-37.1,10-60.1,15.1c-26.3,5.9-50,9.5-76.7,8.8
						c-19.9-0.6-36.8-1.4-54.3-11.9c-7-4.3-14.3-8.6-20.4-14.1c-13.7-12.5-22.5-25.6-40.1-33.1c-12.7-5.4-25.8-9.9-39.2-13.1
						c-19-4.5-46.8-10.9-57.1-29.7c-4-14.1,0.1-21.1,1.4-33.3l0.6-5.2c1-7.9,2.4-16,2.9-24.6c0.8-16.4-3.3-32.6-4.3-49
						c-0.6-9.3-1-18.5-1.2-27.8C880.1,2294,879.7,2290.5,879.9,2288.3z"/>
					<path d="M399.9,2288.3c15.4-45.1,26.9-117.1,36.1-150c6.9-24.6,38.5-158.6,33.3-175.4c-5.3-17-208.5-51.8-215-36.4
						c-10,23.5-21.6,255.8-23.3,290c-1.3,25-5,49.7-5,74.8l0.1,0.1c-2.6,13.7-4.9,28.3-10.5,40.6c-10.7,23.1-10.2,33.2-28.1,50.6
						c-12.3,12-44.1,33.2-58.7,42.3c-6.2,3.9-12.8,6.8-19.6,9.3l-0.6,0.2c-27,10.1-56.1,13.9-70.8,43.8c-3.2,6.5-5.9,14.3-5.4,21.7
						c0.7,9.5,11,10.8,19,13.1c19.9,5.7,37.1,10,60.1,15.1c26.3,5.9,50,9.5,76.7,8.8c19.9-0.6,36.8-1.4,54.3-11.9
						c7.1-4.3,14.3-8.6,20.4-14.1c13.7-12.5,22.5-25.6,40.1-33.1c12.7-5.4,25.8-9.9,39.2-13.1c19-4.5,46.8-10.9,57.1-29.7
						c4-14.1-0.1-21.1-1.4-33.3l-0.6-5.2c-1-7.9-2.4-16-2.9-24.6c-0.8-16.4,3.3-32.6,4.3-49c0.6-9.3,1-18.5,1.2-27.8
						C399.8,2294,400.2,2290.5,399.9,2288.3z"/>
				</g>
			</g>
			<g id="Gunslinger_Boots_M_Option">
				<g id="Main_Gunslinger-Boot_M">
					<path d="M880.6,2390.9c0.4,2.1,7.7,36.3,45.3,45.8c12.5,3.2,34-3.5,47.5-10.4c18.5-9.4,37.9-16.8,57.6-22.6l0.6,0.8
						c0.3,0.4,0.6,0.9,0.9,1.3c6.2,8.6,12.9,16.7,20,24.1l0.6,0.6l0.4,0.3c0.7,0.7,1.5,1.5,2.2,2.2c4.2,4.1,8.6,7.9,13.1,11.4l1.3,1
						l1,0.8c0.3,0.2,0.6,0.5,0.9,0.7c0.7,0.5,1.4,1,2.1,1.5c9.4,6.6,21.8,16.6,34.3,14.8c11.7-1.7,24.9-6.4,34.7-11.1
						c8.2-3.9,16.8-9.3,22.6-14.9c1.7-1.3,3.1-2.8,4.2-4.7c27.2,10.6,56.8,14.7,71.3,45c3.1,6.6,5.8,14.4,5.1,21.8
						c-0.8,9.5-11.2,10.7-19.3,12.8c-20.1,5.4-37.4,9.4-60.6,14.3c-26.5,5.5-50.4,8.8-77.2,7.7c-20-0.8-37-1.9-54.5-12.7
						c-7-4.3-14.2-8.7-20.3-14.4c-13.6-12.7-22.3-25.9-39.9-33.6c-12.7-5.6-25.8-10.2-39.3-13.6c-19.1-4.8-39.7-8.1-49.7-27.1
						c-7.7-14.5-6.8-27.9-4.7-41.9L880.6,2390.9"/>
					<path d="M399.2,2390.9c-0.4,2.1-7.7,36.3-45.3,45.8c-12.5,3.2-34-3.5-47.5-10.4c-18.5-9.4-37.9-16.8-57.6-22.6
						l-0.6,0.8c-0.3,0.4-0.6,0.9-0.9,1.3c-6.2,8.6-12.9,16.7-20,24.1l-0.6,0.6l-0.4,0.3c-0.7,0.7-1.5,1.5-2.2,2.2
						c-4.2,4.1-8.6,7.9-13.1,11.4l-1.3,1l-1,0.8c-0.3,0.2-0.6,0.5-0.9,0.7c-0.7,0.5-1.4,1-2.1,1.5c-9.4,6.6-21.8,16.6-34.3,14.8
						c-11.7-1.7-24.9-6.4-34.7-11.1c-8.2-3.9-16.8-9.3-22.6-14.9c-1.7-1.3-3.1-2.8-4.2-4.7c-27.2,10.6-56.8,14.7-71.3,45
						c-3.1,6.6-5.8,14.4-5.1,21.8c0.8,9.5,11.2,10.7,19.3,12.8c20.1,5.4,37.4,9.4,60.6,14.3c26.5,5.5,50.4,8.8,77.2,7.7
						c20-0.8,37-1.9,54.5-12.7c7-4.3,14.3-8.7,20.3-14.4c13.6-12.7,22.3-25.9,39.9-33.6c12.7-5.6,25.8-10.2,39.3-13.6
						c19.1-4.8,39.7-8.1,49.7-27.1c7.7-14.5,6.8-27.9,4.7-41.9L399.2,2390.9"/>
				</g>
				<g id="Bottom_Gunslinger-Boot_M">
					<path d="M880,2416.8c0.9,5.2,2.5,10.5,5.4,15.9c10,19,30.6,22.3,49.7,27.1c13.5,3.4,26.6,8,39.3,13.6
						c17.6,7.7,26.3,20.9,39.9,33.6c6.1,5.7,13.3,10.1,20.3,14.4c17.5,10.8,34.5,11.8,54.5,12.7c26.8,1.1,50.7-2.2,77.2-7.7
						c23.2-4.8,40.5-8.9,60.6-14.3c6.5-1.7,14.4-2.8,17.7-8.1l0,0l3.8,8.5l2.2,17.5c0,0-21.5,11.6-44.5,16.7
						c-22.9,5.1-69.2,12.3-69.2,12.3l-3.2-7.6l-10.4,2.2l0.5,7.5l-25.2,1.4l-5.4-7.3l-8.4,0.2l1.3,6.5c0,0-15.6-0.3-24.3-5.4
						c-1.7-2.5-4.8-6.5-4.8-6.5l-6-3.2l0.8,6.1l-21.7-7.8l-1.1-8.4l-6.2-3.7l-0.3,6.1l-15.5-12l-1.7-7.4l-38.6-27.1l-6,14.2l-27-5.9
						l-0.9-5.8l-6.9-2.8l-4.8,4.5l-18.1-7.5l-0.4-5.4l-5.9-2.1l-0.7,3.9l-17.2-11.9l-3.3-23.8l-0.7-25.8L880,2416.8L880,2416.8"/>
					<path d="M399.9,2416.8c-0.9,5.2-2.5,10.5-5.4,15.9c-10,19-30.6,22.3-49.7,27.1c-13.5,3.4-26.6,8-39.3,13.6
						c-17.6,7.7-26.3,20.9-39.9,33.6c-6.1,5.7-13.3,10.1-20.3,14.4c-17.5,10.8-34.5,11.8-54.5,12.7c-26.8,1.1-50.7-2.2-77.2-7.7
						c-23.2-4.8-40.5-8.9-60.6-14.3c-6.5-1.7-14.4-2.8-17.7-8.1l0,0l-3.8,8.5l-2.2,17.5c0,0,21.5,11.6,44.5,16.7
						c22.9,5.1,69.2,12.3,69.2,12.3l3.2-7.6l10.4,2.2l-0.5,7.5l25.2,1.4l5.4-7.3l8.4,0.2l-1.3,6.5c0,0,15.6-0.3,24.3-5.4
						c1.6-2.5,4.8-6.5,4.8-6.5l6-3.2l-0.8,6.1l21.7-7.8l1.1-8.4l6.2-3.7l0.3,6.1l15.4-12l1.7-7.4l38.6-27.1l6,14.2l27-5.9l0.9-5.8
						l6.9-2.8l4.8,4.5l18.1-7.5l0.4-5.4l5.9-2.1l0.7,3.9l17.2-11.9l3.3-23.8l0.7-25.8L399.9,2416.8L399.9,2416.8"/>
				</g>
				<g id="Top_Gunslinger-Boot_M">
					<path d="M1030.8,2403.2c-23-33.1-38.6-73.8-44.1-109.7l0,0l6.4-0.6l0.2,0l0.8-0.1l2.1-0.3l3.3-0.4l1.3-0.2
						c3.8-0.4,7.4-1,11-1.5l5.7-1.1l1.2-0.3l0.4-0.1l0.9-0.2l4-0.9l3.5-0.9l0.6-0.2c12.2-3.1,24.5-6.9,24.5-6.9
						c3.4,15.8,5,33.8,11.6,48.6c10.4,23.2,29.5,41,47.3,58.7c12.2,12.2,24.2,26,38.8,35.3c6.2,3.9,12.8,7,19.6,9.6
						c-5.2,7.2-16.3,14.6-26.8,19.6c-9.8,4.7-23,9.4-34.7,11.1c-12.4,1.8-24.9-8.2-34.3-14.8c-16.2-11.5-30.7-27-43-44.6
						L1030.8,2403.2"/>
					<path d="M249.1,2403.2c23-33.1,38.6-73.8,44.1-109.7l0,0l-6.4-0.6l-0.2,0l-0.8-0.1l-2.1-0.3l-3.3-0.4l-1.3-0.2
						c-3.7-0.4-7.4-1-11-1.5l-5.7-1.1l-1.2-0.3l-0.4-0.1l-0.9-0.2l-4-0.9l-3.5-0.9l-0.6-0.2c-12.2-3.1-24.5-6.9-24.5-6.9
						c-3.3,15.8-4.9,33.8-11.6,48.6c-10.4,23.2-29.5,41-47.3,58.7c-12.2,12.2-24.2,26-38.8,35.3c-6.2,3.9-12.8,7-19.5,9.6
						c5.2,7.2,16.3,14.6,26.8,19.6c9.8,4.7,23,9.4,34.7,11.1c12.4,1.8,24.9-8.2,34.3-14.8c16.2-11.5,30.7-27,43-44.6L249.1,2403.2"/>
				</g>
				<g id="Side_Gunslinger-Boot_M">
					<path d="M1031,2403.6c-19.8,5.8-39.2,13.2-57.6,22.6c-13.5,6.9-34.9,13.6-47.5,10.4c-38.8-9.8-45.3-45.9-45.3-45.9
						c1.2-7.9,2.7-16,3.2-24.6c1-16.4-1.1-87.6,0.3-86.8c31.1,16.6,86.7,15.5,102.5,14.2l0,0C992.2,2329.6,1007.8,2370.4,1031,2403.6"
						/>
					<path d="M248.8,2403.6c19.8,5.8,39.2,13.2,57.6,22.6c13.5,6.9,34.9,13.6,47.5,10.4c38.8-9.8,45.3-45.9,45.3-45.9
						c-1.1-7.9-2.7-16-3.2-24.6c-1-16.4,1.1-87.6-0.3-86.8c-31.1,16.6-86.7,15.5-102.5,14.2l0,0C287.7,2329.6,272,2370.4,248.8,2403.6
						"/>
				</g>
			</g>
			<g id="Basic_Boots_M_Option">
				<g id="Main_Basic-Boot_M">
					<path d="M895.4,2286.4c15.5,0.2,34.4,9.9,48,12.2c14.6,2.5,30.5,2.2,46,0.7l6.3-0.7l0.2,0l0.8-0.1l2.1-0.3l3.2-0.4
						l1.3-0.2c3.6-0.5,7.2-1.1,10.8-1.7l5.6-1.1l1.2-0.3l0.4-0.1l0.9-0.2l3.9-0.9l3.4-0.9l0.6-0.2c11.9-3.2,23.8-7.1,23.8-7.1
						c3.5,15.5,5.3,33.2,11.9,47.6c10.5,22.7,10.1,32.5,27.6,49.7c12.1,11.8,43.2,32.5,57.6,41.5c6.1,3.8,12.6,6.7,19.2,9.2l0.6,0.2
						c26.5,9.9,55.1,13.6,69.5,43c3.1,6.4,5.8,14.1,5.3,21.3c-0.7,9.3-10.8,10.6-18.6,12.8c-19.5,5.6-36.4,9.8-58.9,14.9
						c-25.8,5.8-49,9.3-75.2,8.6c-19.5-0.6-36.1-1.3-53.3-11.7c-6.9-4.2-14-8.4-20-13.9c-13.4-12.3-22.1-25.1-39.4-32.5
						c-12.5-5.3-25.3-9.7-38.5-12.8c-18.7-4.5-46-10.7-56-29.2c-3.9-13.9,0.1-20.7,1.4-32.6l0.6-5.1c1-7.8,2.4-15.7,2.8-24.1
						c0.8-16.1-3.2-32-4.2-48.1c-0.6-9.1-1-18.2-1.2-27.3c0-1.5-0.8-8,0.6-8.6c2.1-0.8,4.3-1.3,6.5-1.5L895.4,2286.4z"/>
					<path d="M384.9,2286.4c-15.5,0.2-34.4,9.9-48,12.2c-14.6,2.5-30.5,2.2-46,0.7l-6.3-0.7l-0.2,0l-0.8-0.1l-2.1-0.3
						l-3.2-0.4l-1.3-0.2c-3.6-0.5-7.2-1.1-10.8-1.7l-5.6-1.1l-1.2-0.3l-0.4-0.1l-0.9-0.2l-3.9-0.9l-3.4-0.9l-0.6-0.2
						c-11.9-3.2-23.8-7.1-23.8-7.1c-3.5,15.5-5.3,33.2-11.9,47.6c-10.5,22.7-10.1,32.5-27.6,49.7c-12.1,11.8-43.2,32.5-57.6,41.5
						c-6.1,3.8-12.6,6.7-19.2,9.2l-0.6,0.2c-26.5,9.9-55.1,13.6-69.5,43c-3.1,6.4-5.8,14.1-5.3,21.3c0.7,9.3,10.8,10.6,18.6,12.8
						c19.5,5.6,36.4,9.8,58.9,14.9c25.8,5.8,49,9.3,75.2,8.6c19.6-0.6,36.1-1.3,53.3-11.7c6.9-4.2,14-8.4,20-13.9
						c13.4-12.3,22.1-25.1,39.4-32.5c12.5-5.3,25.3-9.7,38.5-12.8c18.7-4.5,46-10.7,56-29.2c3.9-13.9-0.1-20.7-1.4-32.6l-0.6-5.1
						c-1-7.8-2.4-15.7-2.8-24.1c-0.8-16.1,3.2-32,4.2-48.1c0.6-9.1,1-18.2,1.2-27.3c0-1.5,0.8-8-0.6-8.6c-2.1-0.8-4.3-1.3-6.5-1.5
						L384.9,2286.4z"/>
				</g>
				<g id="Bottom_Basic-Boot_M">
					<path d="M885.4,2433.9c5,9.2,14.3,15.4,24.7,19.8c9.5,4.8,20.6,6.8,31.3,9.4c1.4,0.3,2.9,0.7,4.3,1.1
						c2.1,0.6,4.3,1.1,6.4,1.8c0.6,0.2,1.3,0.4,1.9,0.6l1.1,0.3c0.7,0.2,1.4,0.4,2,0.6c0.3,0.1,0.6,0.2,0.9,0.3
						c1.2,0.4,2.3,0.7,3.4,1.1c0.4,0.1,0.8,0.3,1.2,0.4l0.6,0.2c1.8,0.6,3.5,1.3,5.3,1.9c0.4,0.1,0.8,0.3,1.1,0.4
						c1.6,0.6,3.2,1.2,4.8,1.8l1.2,0.5c1,0.4,1.9,0.8,2.9,1.2c0.4,0.2,0.8,0.3,1.2,0.5c2.8,1.2,5.4,2.6,7.9,4l0.3,0.2
						c0.2,0.1,0.4,0.2,0.6,0.3c0.8,0.5,1.5,1,2.2,1.5l0.5,0.3c0.2,0.1,0.3,0.2,0.5,0.3c0.7,0.5,1.5,1.1,2.2,1.6l0.6,0.5l0.9,0.8
						c3,2.4,5.7,5,8.5,7.7l0.8,0.8c1.5,1.5,3,3,4.5,4.6c1.5,1.6,3.1,3.2,4.7,4.8c1.6,1.6,3.3,3.3,5.1,4.9l0.6,0.5
						c0.5,0.5,1.1,0.9,1.6,1.4c0.1,0.1,0.2,0.2,0.3,0.2c0.9,0.7,1.8,1.4,2.7,2.1c0.6,0.5,1.2,0.9,1.8,1.4l0.3,0.2
						c0.8,0.5,1.6,1.1,2.3,1.6c0.3,0.2,0.7,0.5,1,0.7c1.2,0.8,2.3,1.5,3.5,2.2c0.8,0.5,1.6,1,2.4,1.5l1,0.6l2.6,1.6l1.2,0.7l0.8,0.5
						l0.8,0.5c1.2,0.6,2.4,1.3,3.6,1.8c0.6,0.3,1.1,0.5,1.7,0.8l0.6,0.3c3.6,1.6,7.2,2.8,10.8,3.7l0.7,0.2l0.8,0.2
						c0.3,0.1,0.5,0.1,0.8,0.2c0.7,0.2,1.5,0.3,2.2,0.5c0.6,0.1,1.2,0.2,1.7,0.3l1.4,0.2l0.4,0.1c0.4,0.1,0.8,0.1,1.2,0.2
						c0.6,0.1,1.3,0.2,1.9,0.3c0.9,0.1,1.8,0.2,2.7,0.3c0.2,0,0.5,0.1,0.7,0.1c2.3,0.2,4.6,0.4,6.9,0.5c1.3,0.1,2.6,0.1,3.9,0.2l1.1,0
						c2.4,0.1,4.9,0.2,7.5,0.3c1.6,0,3.2,0.1,4.8,0.1c0.6,0,1.2,0,1.8,0c0.8,0,1.7,0,2.5,0c0.6,0,1.2,0,1.8,0l0.6,0
						c3-0.1,5.9-0.2,8.8-0.3c0.4,0,0.8,0,1.2-0.1l1.2-0.1c0.4,0,0.8,0,1.1-0.1c4.3-0.3,8.6-0.7,12.8-1.2l1.2-0.1
						c1.1-0.1,2.1-0.3,3.2-0.4c0.5-0.1,0.9-0.1,1.4-0.2l1.2-0.2c0.9-0.1,1.8-0.3,2.6-0.4c3.7-0.6,7.4-1.2,11.2-1.9
						c0.8-0.2,1.7-0.3,2.5-0.5l1.1-0.2c0.4-0.1,0.8-0.2,1.2-0.2l1.2-0.2c0.4-0.1,0.8-0.2,1.2-0.2l0.8-0.2c0.9-0.2,1.8-0.4,2.7-0.6
						l1.2-0.3c1.1-0.2,2.1-0.5,3.2-0.7c0.9-0.2,1.8-0.4,2.8-0.6l0.3-0.1c5.9-1.3,11.4-2.6,16.7-3.9l2-0.5c1.5-0.4,3-0.7,4.4-1.1
						l1.8-0.5l0.8-0.2c2.1-0.5,4.1-1,6.2-1.5c1.2-0.3,2.5-0.6,3.7-0.9c3.6-0.9,7.1-1.8,10.6-2.8l1.6-0.4c0.6-0.2,1.2-0.3,1.8-0.5
						l0.7-0.2c2.7-0.8,5.5-1.5,8.3-2.3l0.7-0.2l1-0.3l2.9-0.8l1-0.3l1.5-0.4l0.6-0.2l1.2-0.4l1-0.4l0.5-0.2l0.6-0.2l0.3-0.1l0.6-0.3
						l0.5-0.3l0.3-0.1l0.5-0.3l0.6-0.4l0.6-0.4l0.6-0.4c0.9-0.7,1.7-1.6,2.3-2.6l0,0c0,0,5.2,7.7,5.6,21.2
						c-11.7,17-48.8,22.6-100,29.4c-50.9,6.8-82.2,5.5-103.5-3.7c-21.3-9.1-58.6-52.6-85.3-54.9c-26.7-2.3-58.2-16.5-71.2-24.1
						c-6.7-3.9-4.7-32-4.7-32L885.4,2433.9z"/>
					<path d="M394.9,2433.9c-5,9.2-14.3,15.4-24.7,19.8c-9.5,4.8-20.6,6.8-31.3,9.4c-1.4,0.3-2.9,0.7-4.3,1.1
						c-2.1,0.6-4.3,1.1-6.4,1.8c-0.6,0.2-1.3,0.4-1.9,0.6l-1.1,0.3c-0.7,0.2-1.4,0.4-2,0.6c-0.3,0.1-0.6,0.2-0.9,0.3
						c-1.2,0.4-2.3,0.7-3.4,1.1c-0.4,0.1-0.8,0.3-1.2,0.4l-0.6,0.2c-1.8,0.6-3.5,1.3-5.3,1.9c-0.4,0.1-0.8,0.3-1.1,0.4
						c-1.6,0.6-3.2,1.2-4.8,1.8l-1.2,0.5c-1,0.4-1.9,0.8-2.9,1.2c-0.4,0.2-0.8,0.3-1.2,0.5c-2.8,1.2-5.4,2.6-7.9,4l-0.3,0.2
						c-0.2,0.1-0.4,0.2-0.6,0.3c-0.8,0.5-1.5,1-2.2,1.5l-0.5,0.3c-0.2,0.1-0.3,0.2-0.5,0.3c-0.7,0.5-1.5,1.1-2.2,1.6l-0.6,0.5l-1,0.8
						c-3,2.4-5.8,5-8.5,7.7l-0.8,0.8c-1.5,1.5-3,3-4.5,4.6c-1.5,1.6-3.1,3.2-4.7,4.8c-1.6,1.6-3.3,3.3-5.1,4.9l-0.6,0.5
						c-0.5,0.5-1.1,0.9-1.6,1.4c-0.1,0.1-0.2,0.2-0.3,0.2c-0.9,0.7-1.8,1.4-2.7,2.1c-0.6,0.5-1.2,0.9-1.8,1.4l-0.3,0.2
						c-0.8,0.5-1.5,1.1-2.3,1.6c-0.3,0.2-0.7,0.5-1,0.7c-1.2,0.8-2.3,1.5-3.5,2.2c-0.8,0.5-1.6,1-2.4,1.5l-1,0.6l-2.6,1.6l-1.2,0.7
						l-0.8,0.5l-0.8,0.5c-1.2,0.6-2.4,1.3-3.6,1.8c-0.6,0.3-1.1,0.5-1.7,0.8l-0.6,0.3c-3.6,1.6-7.2,2.8-10.8,3.7l-0.7,0.2l-0.8,0.2
						c-0.3,0.1-0.5,0.1-0.8,0.2c-0.7,0.2-1.5,0.3-2.2,0.5c-0.6,0.1-1.2,0.2-1.7,0.3l-1.4,0.2l-0.4,0.1c-0.4,0.1-0.8,0.1-1.1,0.2
						c-0.6,0.1-1.3,0.2-1.9,0.3c-0.9,0.1-1.8,0.2-2.7,0.3c-0.2,0-0.5,0.1-0.7,0.1c-2.3,0.2-4.6,0.4-6.9,0.5c-1.3,0.1-2.6,0.1-3.9,0.2
						l-1.1,0c-2.4,0.1-4.9,0.2-7.5,0.3c-1.6,0-3.2,0.1-4.8,0.1c-0.6,0-1.2,0-1.8,0c-0.8,0-1.7,0-2.5,0c-0.6,0-1.2,0-1.8,0l-0.6,0
						c-3-0.1-5.9-0.2-8.8-0.3c-0.4,0-0.8,0-1.2-0.1l-1.2-0.1c-0.4,0-0.7,0-1.1-0.1c-4.3-0.3-8.6-0.7-12.8-1.2l-1.2-0.1
						c-1.1-0.1-2.1-0.3-3.2-0.4c-0.5-0.1-0.9-0.1-1.4-0.2l-1.2-0.2c-0.9-0.1-1.8-0.3-2.6-0.4c-3.7-0.6-7.4-1.2-11.2-1.9
						c-0.8-0.2-1.7-0.3-2.5-0.5l-1.1-0.2c-0.4-0.1-0.8-0.2-1.2-0.2l-1.2-0.2c-0.4-0.1-0.8-0.2-1.2-0.2l-0.8-0.2
						c-0.9-0.2-1.8-0.4-2.7-0.6l-1.2-0.3c-1.1-0.2-2.1-0.5-3.2-0.7c-0.9-0.2-1.9-0.4-2.8-0.6l-0.3-0.1c-5.9-1.3-11.4-2.6-16.7-3.9
						l-2-0.5c-1.5-0.4-3-0.7-4.5-1.1l-1.8-0.5l-0.8-0.2c-2.1-0.5-4.1-1-6.2-1.5c-1.2-0.3-2.5-0.6-3.7-0.9c-3.6-0.9-7.1-1.8-10.6-2.8
						l-1.6-0.4c-0.6-0.2-1.2-0.3-1.8-0.5l-0.7-0.2c-2.7-0.8-5.5-1.5-8.3-2.3l-0.6-0.2l-1-0.3l-2.9-0.8l-1-0.3l-1.5-0.4l-0.6-0.2
						l-1.2-0.4l-1-0.4l-0.5-0.2l-0.6-0.2l-0.3-0.1l-0.6-0.3l-0.5-0.3l-0.3-0.1l-0.5-0.3l-0.6-0.4l-0.6-0.4l-0.6-0.4
						c-0.9-0.7-1.7-1.6-2.3-2.6l0,0c0,0-5.2,7.7-5.6,21.2c11.7,17,48.8,22.6,100,29.4c50.9,6.8,82.2,5.5,103.5-3.7
						c21.3-9.1,58.6-52.6,85.3-54.9c26.7-2.3,58.2-16.5,71.2-24.1c6.7-3.9,4.7-32,4.7-32L394.9,2433.9z"/>
				</g>
				<g id="Top_Basic-Boot_M">
					<path d="M1032.2,2291.6c7.1,34.7,18.1,65,41.2,94.2c36,45.6,97.5,49.3,140,86.3c10.9,9.5,10.4,24.8,12.2,38.8
						c-17.6,5-33.1,8.9-52.9,13.4c-1.4-14,1.1-29.6-10.5-39.7c-42.5-37-109.4-35.6-145.4-81.1c-23.5-29.8-23.6-68.1-30.5-103.8
						c1.1-0.1,2.1-0.2,3.2-0.3l6.3-0.7l0.2,0l0.8-0.1l2.1-0.3l3.2-0.4l1.3-0.2c3.6-0.5,7.2-1.1,10.8-1.7l5.6-1.1l1.2-0.3l0.4-0.1
						l0.9-0.2l3.9-0.9l3.4-0.9l0.6-0.2C1030.6,2292,1031.4,2291.8,1032.2,2291.6z"/>
					<path d="M248,2291.6c-7.1,34.7-18.1,65-41.2,94.2c-36,45.6-97.5,49.3-140,86.3c-10.9,9.5-10.4,24.8-12.1,38.8
						c17.6,5,33.1,8.9,52.9,13.4c1.4-14-1.1-29.6,10.5-39.7c42.5-37,109.4-35.6,145.4-81.1c23.5-29.8,23.6-68.1,30.4-103.8
						c-1.1-0.1-2.1-0.2-3.2-0.3l-6.3-0.7l-0.2,0l-0.8-0.1l-2.1-0.3l-3.2-0.4l-1.3-0.2c-3.6-0.5-7.2-1.1-10.8-1.7l-5.6-1.1l-1.2-0.3
						l-0.4-0.1l-0.9-0.2l-3.9-0.9l-3.4-0.9l-0.6-0.2C249.7,2292,248.9,2291.8,248,2291.6z"/>
				</g>
				<g id="Side_Basic-Boot_M">
					<path d="M899.6,2286.6c14.6,1.6,31.4,9.9,43.8,11.9c0.7,0.1,1.4,0.2,2,0.3c0.2,4.4,0.1,8.7,0.2,12.6
						c0.5,21.8-2.2,114.8-6.5,114.6c-4.3-0.2-16.7-2.4-19.9-5.8c-2.1-2.2-2.5-7.6-3.2-10.5c-2.2-9.2-4.2-18.5-5.6-27.9
						c-1.9-12.6-3.3-25.1-4.3-37.8C904.7,2324.9,901.8,2305.7,899.6,2286.6z"/>
					<path d="M380.7,2286.6c-14.6,1.6-31.4,9.9-43.8,11.9c-0.7,0.1-1.4,0.2-2,0.3c-0.2,4.4-0.1,8.7-0.2,12.6
						c-0.5,21.8,2.2,114.8,6.5,114.6c4.3-0.2,16.7-2.4,19.9-5.8c2.1-2.2,2.5-7.6,3.2-10.5c2.2-9.2,4.2-18.5,5.6-27.9
						c1.9-12.6,3.4-25.1,4.3-37.8C375.5,2324.9,378.4,2305.7,380.7,2286.6z"/>
				</g>
			</g>
		</g>
		<g id="Sleeves_M_Toggle">
			<g>
				<path d="M928.3,573.2l28.4,62.9c0,0,44.9-34.2,74.8-51.1c29.9-17,46.4-28,73.3-38.4c26.9-10.4,53.9-15.7,53.9-15.7
					l-64.3-130.6l-61.4-103.1l-122.7,54.8L928.3,573.2z"/>
				<path d="M943.2,606.4c-2.1-2.6,53.8-48,91.2-67.6c37.4-19.6,108.6-39.4,108.6-39.4"/>
			</g>
			<g>
				<path d="M351.7,573.2l-28.4,62.9c0,0-44.9-34.2-74.8-51.1c-29.9-17-46.4-28-73.3-38.4c-26.9-10.4-53.9-15.7-53.9-15.7
					l64.3-130.6l61.4-103.1l122.7,54.8L351.7,573.2z"/>
				<path d="M336.8,606.4c2.1-2.6-53.8-48-91.2-67.6c-37.4-19.6-108.6-39.4-108.6-39.4"/>
			</g>
		</g>
		<g id="Gloves_M">
			<g id="Left-Glove_M">
				<g id="Fingerless_Left_Glove_M_Option">
					<g id="Fingers_Fingerless_Left_Glove_M">
						<path d="M1208.1,1298.1c-5.7-0.3-11.1-0.2-16.8,1c-3.9,0.8-7.6,1.7-11.1,3.7c-10.5,6.1-7.6,19.3,1.7,24.3
							c10.9,5.9,28.2,0.1,33.2-11.2C1217.3,1311.3,1210.9,1302.6,1208.1,1298.1"/>
						<path d="M1188.9,1309.6c-5.7-0.3-11.1-0.2-16.8,1c-3.9,0.8-7.6,1.7-11.1,3.7c-10.5,6.1-7.6,19.3,1.7,24.3
							c10.9,5.9,28.2,0.1,33.2-11.2C1198,1322.8,1191.7,1314.1,1188.9,1309.6"/>
						<path d="M1175.3,1324.8c-5.7,0.5-12.8,1.8-18.3,3.7c-3.7,1.3-7.3,2.7-10.5,5.2c-9.6,7.4-5,20.1,5,23.8
							c11.6,4.3,28-3.7,31.4-15.6C1184.4,1337.1,1175.3,1324.8,1175.3,1324.8z"/>
						<path d="M1116.4,1252.3c-3.2,14.3-5.8,22-5.8,22s-14.6,29.8-12,36.6c2.5,6.8,15.4,12.9,22.8,9.3
							c9.1-4.5,20.5-25.5,27.6-40.2c2.6-5.4,5.1-11.7,7.2-17.5C1126.9,1266.9,1116.4,1252.3,1116.4,1252.3L1116.4,1252.3z"/>
						<path d="M1176.7,1322.6c-2.2,3.6-4.6,7.5-7.3,11.5c-14.5,21.8-36.6,40.6-22,57.2c13.7,15.6,44.8-25.3,44.8-25.3
							l14.4-18.8C1182.7,1341.6,1176.7,1322.7,1176.7,1322.6z"/>
					</g>
					<path id="Glove_Fingerless_Left_Glove_M" d="M1206.7,1347.2l16-20.9c0,0,35-57.7,36.8-68.9
						c1.4-8.5,0.2-37.1,0.2-37.1l-10.9-110.6l-55.5,4.6l-45.7,14.9l-3.4,18.9c0,0-16.5,22.9-20.8,39.4c-3,11.6-1.4,39.3-5.3,57.9
						c-0.5,2.4-1,4.7-1.5,6.9h0c0,0,10.4,14.6,39.7,10.2c3.7-10.2,6.1-18.9,6.1-18.9s10,3.5,15.2,7.4c17.1,13.2,9.7,52.9,9.7,52.9
						s-4,7.9-10.4,18.7C1176.7,1322.7,1182.7,1341.6,1206.7,1347.2z"/>
				</g>
				<g id="Basic_Left_Glove_M_Option">
					<path d="M1208.1,1298.1c-5.7-0.3-11.1-0.2-16.8,1c-3.9,0.8-7.6,1.7-11.1,3.7c-10.5,6.1-7.6,19.3,1.7,24.3
						c10.9,5.9,28.2,0.1,33.2-11.2C1217.3,1311.3,1210.9,1302.6,1208.1,1298.1"/>
					<path d="M1188.9,1309.6c-5.7-0.3-11.1-0.2-16.8,1c-3.9,0.8-7.6,1.7-11.1,3.7c-10.5,6.1-7.6,19.3,1.7,24.3
						c10.9,5.9,28.2,0.1,33.2-11.2C1198,1322.8,1191.7,1314.1,1188.9,1309.6"/>
					<path d="M1175.1,1325.2c-5.7,0.5-12.6,1.3-18,3.3c-3.7,1.3-7.3,2.7-10.5,5.2c-9.6,7.4-5,20.1,5,23.8
						c11.6,4.3,28-3.7,31.4-15.6C1184.4,1337.1,1175.1,1325.2,1175.1,1325.2z"/>
					<path d="M1144,1148.2c0,0-16.5,22.9-20.8,39.4c-3,11.6-1.4,39.3-5.3,57.9c-3.8,18.6-7.3,28.9-7.3,28.9
						s-14.6,29.8-12,36.6c2.5,6.8,15.4,12.9,22.8,9.3c9.1-4.5,20.5-25.5,27.6-40.2c7.3-15,13.3-36.4,13.3-36.4s10,3.5,15.2,7.4
						c17.1,13.2,9.7,52.9,9.7,52.9s-7,14.2-17.6,30.2c-14.5,21.8-36.6,40.6-22,57.2c13.7,15.6,44.8-25.3,44.8-25.3l30.5-39.8
						c0,0,35-57.7,36.8-68.9c1.4-8.5,0.2-37.1,0.2-37.1l-10.9-110.6l-55.5,4.6l-45.7,14.9L1144,1148.2"/>
				</g>
			</g>
			<g id="Right-Glove_M">
				<g id="Fingerless_Right_Glove_M_Option">
					<g id="Fingers_Fingerless_Right_Glove_M">
						<path d="M71.9,1298.1c5.7-0.3,11.1-0.2,16.8,1c3.9,0.8,7.6,1.7,11.1,3.7c10.5,6.1,7.6,19.3-1.7,24.3
							c-10.9,5.9-28.2,0.1-33.2-11.2C62.7,1311.3,69.1,1302.6,71.9,1298.1"/>
						<path d="M91.1,1309.6c5.7-0.3,11.1-0.2,16.8,1c3.9,0.8,7.6,1.7,11.1,3.7c10.5,6.1,7.6,19.3-1.7,24.3
							c-10.9,5.9-28.2,0.1-33.2-11.2C82,1322.8,88.4,1314.1,91.1,1309.6"/>
						<path d="M104.7,1324.8c5.7,0.5,12.8,1.8,18.3,3.7c3.7,1.3,7.3,2.7,10.5,5.2c9.6,7.4,5,20.1-5,23.8
							c-11.6,4.3-28-3.7-31.4-15.6C95.6,1337.1,104.7,1324.8,104.7,1324.8z"/>
						<path d="M163.6,1252.3c3.2,14.3,5.8,22,5.8,22s14.6,29.8,12,36.6c-2.5,6.8-15.4,12.9-22.7,9.3
							c-9.2-4.5-20.5-25.5-27.7-40.2c-2.6-5.4-5.1-11.7-7.2-17.5C153.1,1266.9,163.6,1252.3,163.6,1252.3L163.6,1252.3z"/>
						<path d="M103.3,1322.6c2.2,3.6,4.6,7.5,7.3,11.5c14.4,21.8,36.6,40.6,22,57.2c-13.7,15.6-44.8-25.3-44.8-25.3
							l-14.4-18.8C97.3,1341.6,103.3,1322.7,103.3,1322.6z"/>
					</g>
					<path id="Glove_Fingerless_Right_Glove_M" d="M73.4,1347.2l-16-20.9c0,0-35-57.7-36.8-68.9
						c-1.4-8.5-0.2-37.1-0.2-37.1l10.9-110.6l55.5,4.6l45.7,14.9l3.4,18.9c0,0,16.5,22.9,20.9,39.4c3,11.6,1.4,39.3,5.3,57.9
						c0.5,2.4,1,4.7,1.5,6.9h0c0,0-10.4,14.6-39.7,10.2c-3.7-10.2-6.1-18.9-6.1-18.9s-10,3.5-15.2,7.4c-17.1,13.2-9.7,52.9-9.7,52.9
						s3.9,7.9,10.4,18.7C103.3,1322.7,97.3,1341.6,73.4,1347.2z"/>
				</g>
				<g id="Basic_Right_Glove_M_Option">
					<path d="M71.9,1298.1c5.7-0.3,11.1-0.2,16.8,1c3.9,0.8,7.6,1.7,11.1,3.7c10.5,6.1,7.6,19.3-1.7,24.3
						c-10.9,5.9-28.2,0.1-33.2-11.2C62.7,1311.3,69.1,1302.6,71.9,1298.1"/>
					<path d="M91.1,1309.6c5.7-0.3,11.1-0.2,16.8,1c3.9,0.8,7.6,1.7,11.1,3.7c10.5,6.1,7.6,19.3-1.7,24.3
						c-10.9,5.9-28.2,0.1-33.2-11.2C82,1322.8,88.4,1314.1,91.1,1309.6"/>
					<path d="M104.9,1325.2c5.7,0.5,12.6,1.3,18,3.3c3.7,1.3,7.3,2.7,10.5,5.2c9.6,7.4,5,20.1-5,23.8
						c-11.6,4.3-28-3.7-31.4-15.6C95.6,1337.1,104.9,1325.2,104.9,1325.2z"/>
					<path d="M136,1148.2c0,0,16.5,22.9,20.9,39.4c3,11.6,1.4,39.3,5.3,57.9c3.8,18.6,7.3,28.9,7.3,28.9
						s14.6,29.8,12,36.6c-2.5,6.8-15.4,12.9-22.7,9.3c-9.2-4.5-20.5-25.5-27.7-40.2c-7.3-15-13.3-36.4-13.3-36.4s-10,3.5-15.2,7.4
						c-17.1,13.2-9.7,52.9-9.7,52.9s7,14.2,17.6,30.2c14.4,21.8,36.6,40.6,22,57.2c-13.7,15.6-44.8-25.3-44.8-25.3l-30.5-39.8
						c0,0-35-57.7-36.8-68.9c-1.4-8.5-0.2-37.1-0.2-37.1l10.9-110.6l55.5,4.6l45.7,14.9L136,1148.2"/>
				</g>
			</g>
		</g>
	</g>
</g>
<g id="Biceps_Current" transform="translate(199,588)">
	<title>Upper Body</title>
	<g id="LeftBiceps_Current"></g>
	<g id="RightBiceps_Current"></g>
</g>
<g id="Vest_Current" transform="translate(260,575)">
	<title>Flight Suit (Kute)</title>
	<path id="Vest_M" d="M640,197.9c90.1-0.1,163.5-45.9,165.6-85.4l1.6,0.2l194.8,57.8l141.1,255.2l-30.3,12.4l-142.3-91.7
		L946,386.1l-16.3,505.4c0,0-92.4,50.2-143.4,57c-36.5,4.8-91.5,7.2-146.2,7.1c-54.7,0.1-109.7-2.3-146.2-7.1
		c-51-6.8-143.4-57-143.4-57L334,386.1l-24.5-39.6l-142.3,91.7l-30.3-12.4L278,170.5l194.8-57.8l1.6-0.2
		C476.5,152.1,549.9,197.9,640,197.9"/>
</g>
<g id="Upper-Body_M_Wrapper" transform="translate(199,588)">
	<title>Upper Body</title>
	<g id="Chest_Current"></g>
	<g id="Collar_Current"></g>
	<g id="ChestAttachments_Current"></g>
	<g id="Shoulders_Current">
		<g id="LeftShoulder_Current"></g>
		<g id="RightShoulder_Current"></g>
	</g>
	<g id="Gauntlets_Current">
		<g id="LeftGauntlets_Current"></g>
		<g id="RightGauntlets_Current"></g>
	</g>
</g>
<g id="Lower-Body_M_Wrapper" transform="translate(268,1340)">
	<title>Lower Body</title>
	<g id="Knees_Current">
		<g id="LeftKnee_Current"></g>
		<g id="RightKnee_Current"></g>
	</g>
	<g id="Shins_Current">
		<g id="LeftShin_Current"></g>
		<g id="RightShin_Current"></g>
	</g>
	<g id="Ankles_Current">
		<g id="LeftAnkle_Current"></g>
		<g id="RightAnkle_Current"></g>
	</g>
	<g id="Toes_Current">
		<g id="LeftToe_Current"></g>
		<g id="RightToe_Current"></g>
	</g>
	<g id="Thighs_Current">
		<g id="LeftThigh_Current"></g>
		<g id="RightThigh_Current"></g>
	</g>
	<g id="Groin_Current"></g>
	<g id="Waist_Current"></g>
</g>
<g id="Front_M" transform="translate(0,550)">
	<g id="Cape_M">
		<g id="Shoulder-Cape-Left_Back_M_Option">
			<path d="M1151.3,581.7c-10.1-60.3-118.1-394.9,4.4-443.9c23.1-9.2,71.6,5.3,82.3,6c24.9,1.6,131.6,106.4,144,126.9
				c15.7,25.9,24.2,48.6,41.7,77.8c48.6,80.6,80.4,139.2,105.5,219.4c23.2,73.9,52,152.7,78.3,223.1c29.7,79.7,43.8,135.5,69.5,216.7
				c13.9,43.9,34.3,136,54.4,220.4c18.2,76.7,53.3,138.4,9.5,166.5c-44.1,28.4-105.8,98.8-149.5,130.5
				c-45.3,32.8-217.2,13.1-259.2,39c-13,8-98.3,9.7-97.8,7.3c5.5-26,14.6-92.7,5.1-166.4c-11.8-92.7-14.1-155.6-24.8-248.6
				c-7.2-62.1-1.4-94-14.4-154.8c-14.4-67.5-7.6-145.2-25.8-211.4C1156.5,724.9,1162.7,649.6,1151.3,581.7z"/>
			<path d="M1509.7,1028.1c-9.3-37.6-23.9-91.8-7.5-129.6c12.9-29.7,66.9,33.8,71,47.3c10.6,34.3-2.4,72.2-6,106.7
				c-4.1,38.3-3.5,76.8,3.9,114.8c9.1,46.5,19.9,94.1,38.2,138c20.8,50.1,55.1,96.5,57.7,152.3"/>
			<path d="M1443.7,1466.1c-8.6,8.3-18.4,11.3-30.5,10c-58.9-6.6-66.7-105.7-63.5-150.1c5.1-71.9,20.2-141.4,14.5-214
				c-7.6-98.4-45.1-206.6-60-306.6c-11.2-75.6-7.2-154.2-24.3-228.7c-11.1-48.5-98.6-248.8-125.7-286.2"/>
			<path d="M1337.7,446.1c32.3,82.9,63.4,158.7,72.5,248.4c5.2,50.8,8.7,102.6,7.9,153.6c-0.5,37.5-6.9,75.4-0.9,112.8
				c12.9,80.5,59.4,152.1,75.1,232.5"/>
			<path d="M1651.7,1112.1c2.2,103.7,46.7,194.7,74.7,292.7"/>
			<path d="M1358.7,243.4c19.9,33.9,20.1,72.9,27.5,108.4c7.6,36.4,6,76.2,20.3,111c14.1,34.5,38.5,63.3,57.2,95.3
				c29.9,51.2,40.6,107.9,45.8,166.3"/>
		</g>
		<g id="Shoulder-Cape-Right_Back_M_Option">
			<path d="M648.6,581.7c10.1-60.3,118.1-394.9-4.4-443.9c-23.1-9.2-71.6,5.3-82.3,6c-24.9,1.6-131.6,106.4-144,126.9
				c-15.7,25.9-24.1,48.6-41.7,77.8c-48.6,80.6-80.4,139.2-105.5,219.4c-23.2,73.9-52,152.7-78.3,223.1
				c-29.7,79.7-43.8,135.5-69.5,216.7c-13.9,43.9-34.3,136-54.4,220.4c-18.2,76.7-53.3,138.4-9.6,166.5
				c44.1,28.4,105.8,98.8,149.5,130.5c45.3,32.8,217.2,13.1,259.2,39c13,8,98.4,9.7,97.8,7.3c-5.5-26-14.5-92.7-5.1-166.4
				c11.8-92.7,14.1-155.6,24.8-248.6c7.2-62.1,1.4-94,14.4-154.8c14.4-67.5,7.6-145.2,25.8-211.4
				C643.5,724.9,637.3,649.6,648.6,581.7z"/>
			<path d="M290.3,1028.1c9.3-37.6,23.9-91.8,7.5-129.6c-12.9-29.7-66.9,33.8-71,47.3c-10.6,34.3,2.4,72.2,6,106.7
				c4.1,38.3,3.5,76.8-3.9,114.8c-9.1,46.5-20,94.1-38.2,138c-20.8,50.1-55.1,96.5-57.7,152.3"/>
			<path d="M356.3,1466.1c8.6,8.3,18.4,11.3,30.5,10c58.9-6.6,66.7-105.7,63.5-150.1c-5.1-71.9-20.2-141.4-14.5-214
				c7.6-98.4,45.1-206.6,60-306.6c11.2-75.6,7.2-154.2,24.3-228.7c11.1-48.5,98.6-248.8,125.7-286.2"/>
			<path d="M462.3,446.1C430,529.1,399,604.9,389.9,694.5c-5.2,50.8-8.7,102.6-7.9,153.6c0.5,37.5,6.9,75.4,0.9,112.8
				c-12.9,80.5-59.4,152.1-75.1,232.5"/>
			<path d="M148.3,1112.1c-2.2,103.7-46.7,194.7-74.7,292.7"/>
			<path d="M441.3,243.4c-19.9,33.9-20.1,72.9-27.5,108.4c-7.6,36.4-6,76.2-20.3,111c-14.1,34.5-38.5,63.3-57.2,95.3
				c-29.9,51.2-40.6,107.9-45.8,166.3"/>
		</g>
	</g>
</g>
<g id="Helmet_M_Wrapper" transform="translate(550,35)">
	<title>Helmet (Buy'ce)</title>
	<g id="Helmet_Current"></g>
</g>
</svg>
