<?xml version="1.0" standalone="no"?>
<!DOCTYPE svg PUBLIC "-//W3C//DTD SVG 20010904//EN"
 "http://www.w3.org/TR/2001/REC-SVG-20010904/DTD/svg10.dtd">
<svg version="1.0" xmlns="http://www.w3.org/2000/svg"
 width="640.000000pt" height="640.000000pt" viewBox="0 0 640.000000 640.000000"
 preserveAspectRatio="xMidYMid meet">
<metadata>
Created by potrace 1.11, written by Peter Selinger 2001-2013
</metadata>
<g transform="translate(0.000000,640.000000) scale(0.100000,-0.100000)"
fill="#000000" stroke="none">
<path d="M3059 6396 c-2 -2 -35 -6 -74 -10 -141 -13 -367 -57 -475 -92 -8 -3
-17 -6 -20 -6 -8 -2 -152 -55 -185 -69 -16 -6 -35 -13 -41 -14 -59 -13 -465
-246 -514 -295 -3 -3 -39 -32 -80 -64 -83 -66 -260 -241 -330 -326 -153 -185
-280 -398 -365 -610 -42 -105 -86 -240 -78 -240 3 0 1 -6 -5 -12 -5 -7 -13
-29 -16 -48 -3 -19 -8 -46 -11 -60 -20 -86 -45 -263 -48 -337 -1 -31 -7 -45
-22 -53 -37 -20 -125 -76 -207 -131 -32 -22 -58 -37 -58 -33 0 11 -28 -23 -33
-41 -3 -11 -9 -54 -12 -95 -3 -41 -7 -88 -9 -105 -2 -16 -7 -64 -11 -105 -3
-41 -8 -91 -10 -110 -10 -82 -20 -190 -30 -300 -3 -41 -8 -86 -10 -100 -2 -14
-7 -59 -10 -100 -3 -41 -8 -86 -10 -100 -2 -14 -7 -61 -10 -105 -4 -44 -9 -93
-10 -110 -2 -16 -6 -66 -10 -109 -4 -44 -8 -87 -10 -95 -1 -9 -6 -52 -10 -96
-4 -44 -8 -91 -10 -105 -1 -14 -6 -56 -9 -95 -4 -38 -9 -86 -11 -105 -4 -34
-13 -131 -21 -219 -2 -24 -6 -67 -9 -95 -3 -28 -7 -73 -10 -101 -3 -27 -7 -73
-10 -102 l-5 -51 116 -172 c75 -110 117 -182 117 -199 0 -14 -3 -59 -6 -98 -3
-40 -2 -75 1 -77 4 -2 38 -7 76 -10 62 -6 80 -13 185 -75 206 -122 295 -173
341 -199 25 -14 78 -45 118 -69 41 -24 77 -43 82 -43 5 0 10 -4 12 -8 2 -5 28
-22 58 -39 31 -16 137 -77 235 -135 183 -107 225 -132 305 -177 25 -14 47 -29
48 -33 2 -4 7 -8 12 -8 5 0 90 -47 189 -105 l179 -105 901 0 c510 0 902 4 905
9 3 5 25 18 48 30 24 12 88 49 143 82 55 33 111 65 125 72 14 6 27 14 30 17 3
3 16 11 30 19 87 49 247 142 260 151 14 9 56 33 165 95 28 16 78 45 111 66 34
21 93 54 130 75 38 20 76 42 84 49 8 7 22 15 30 19 8 3 38 20 65 37 28 16 58
33 68 36 9 3 17 9 17 14 0 5 4 9 9 9 5 0 54 26 108 58 54 32 105 61 113 65 8
4 29 16 45 26 71 46 112 63 160 67 90 7 90 7 88 45 -4 55 -12 132 -18 166 -5
26 2 43 32 90 21 32 40 60 43 63 3 3 34 47 68 97 60 91 61 94 57 150 -2 32 -6
74 -9 93 -5 34 -9 77 -21 215 -3 39 -8 86 -11 105 -3 19 -7 60 -9 91 -2 31 -6
76 -9 100 -3 24 -8 73 -11 109 -8 92 -15 159 -20 205 -3 22 -7 65 -10 95 -2
30 -7 74 -10 97 -3 23 -7 72 -10 110 -3 37 -7 84 -9 103 -2 19 -7 67 -10 105
-4 39 -9 90 -12 115 -15 149 -25 247 -29 290 -5 60 -15 163 -21 210 -3 25 -7
74 -9 110 -3 36 -7 85 -11 110 -3 25 -7 58 -9 74 -1 16 -7 31 -12 35 -5 3 -67
42 -137 85 -70 44 -129 82 -130 85 -2 3 -7 42 -10 86 -4 44 -8 91 -11 105 -2
14 -7 45 -10 70 -3 25 -7 54 -10 65 -2 11 -6 34 -9 50 -3 17 -12 57 -21 90
-15 53 -19 70 -29 110 -3 16 -35 103 -63 175 -32 80 -121 261 -157 318 -14 23
-26 45 -26 50 0 5 -9 17 -20 27 -11 10 -20 22 -20 27 0 14 -123 173 -197 256
-65 73 -165 172 -228 227 -49 43 -229 177 -245 183 -8 3 -17 9 -20 12 -10 14
-182 111 -276 155 -105 50 -173 79 -244 101 -25 8 -52 19 -61 24 -9 5 -34 12
-55 16 -22 3 -45 11 -51 17 -7 5 -13 7 -13 4 0 -3 -24 1 -52 9 -29 7 -78 18
-108 24 -30 6 -66 13 -80 16 -14 3 -45 7 -70 9 -25 3 -56 7 -70 11 -26 6 -415
15 -421 10z m-2149 -2331 c64 -9 97 -13 160 -20 30 -4 69 -8 85 -10 17 -2 55
-7 85 -10 30 -3 71 -8 90 -10 65 -9 115 -15 170 -20 30 -3 73 -7 95 -10 22 -2
69 -7 105 -10 36 -3 83 -8 105 -10 37 -4 164 -11 345 -20 620 -31 2018 -20
2460 20 30 2 87 7 125 10 39 3 79 7 91 9 11 2 54 7 95 10 41 4 88 9 104 11 17
3 55 7 85 10 30 3 66 7 80 9 39 7 121 17 160 21 19 1 62 6 95 10 114 15 148
12 151 -10 1 -11 5 -51 8 -90 4 -38 9 -81 11 -95 4 -24 11 -84 20 -175 2 -22
7 -62 10 -90 3 -27 7 -68 10 -90 2 -22 7 -65 10 -95 6 -58 15 -143 18 -174 2
-14 -13 -24 -68 -43 -383 -135 -621 -240 -795 -351 -80 -50 -216 -193 -285
-297 -32 -49 -66 -101 -75 -115 -15 -23 -70 -136 -114 -232 -40 -89 -111 -331
-131 -447 -15 -87 -15 -88 -30 -216 -3 -22 -7 -56 -10 -75 -2 -19 -7 -66 -10
-105 -3 -38 -7 -90 -10 -115 -10 -105 -14 -160 -20 -250 -3 -52 -8 -126 -11
-165 -15 -223 -28 -532 -21 -525 3 3 8 45 11 94 11 145 29 307 42 364 2 12 7
44 9 70 3 26 8 58 11 72 2 14 7 39 10 55 12 72 47 238 70 335 14 58 27 112 29
120 4 15 44 157 49 175 2 6 4 13 5 17 15 54 100 286 125 341 8 17 28 63 45
100 30 66 108 206 120 217 3 3 19 22 35 43 15 21 46 51 67 67 36 26 46 28 119
26 69 -2 89 -7 156 -41 141 -69 287 -240 394 -460 45 -91 94 -224 104 -278 3
-12 5 -22 6 -22 1 0 3 -7 5 -15 2 -8 11 -44 20 -80 19 -74 18 -71 38 -165 27
-126 38 -189 40 -233 2 -41 -1 -45 -38 -68 -22 -13 -49 -28 -60 -34 -11 -6
-33 -18 -50 -28 -64 -40 -121 -72 -145 -84 -14 -7 -27 -15 -30 -18 -5 -5 -19
-13 -105 -63 -27 -15 -72 -41 -100 -58 -27 -16 -59 -34 -70 -39 -11 -6 -33
-19 -50 -30 -16 -11 -37 -23 -45 -27 -8 -4 -63 -35 -122 -70 -59 -35 -111 -63
-117 -63 -5 0 -11 -4 -13 -8 -2 -6 -483 -288 -568 -333 -18 -9 -78 -13 -217
-14 l-193 0 0 1527 c0 841 3 1529 8 1529 11 2 41 6 114 13 37 4 77 9 90 11 13
2 50 6 83 9 33 3 69 8 80 10 19 3 48 7 155 21 25 4 56 8 70 10 23 5 37 7 100
20 14 2 36 6 50 9 38 6 204 52 395 108 93 27 178 50 187 51 10 1 18 5 18 9 0
4 7 8 16 8 8 0 48 10 87 23 40 13 143 46 230 72 l158 49 -3 89 -3 88 -55 -6
c-30 -3 -64 -8 -75 -10 -11 -3 -37 -7 -59 -10 -21 -3 -41 -7 -45 -9 -3 -2 -28
-6 -56 -10 -27 -3 -61 -8 -75 -11 -14 -3 -45 -8 -70 -11 -25 -3 -56 -7 -70
-10 -14 -2 -36 -6 -50 -8 -21 -4 -93 -14 -210 -31 -14 -2 -44 -6 -67 -10 -23
-4 -59 -8 -80 -10 -21 -2 -56 -6 -78 -9 -22 -3 -65 -8 -95 -11 -30 -2 -77 -7
-105 -11 -52 -6 -74 -9 -185 -19 -36 -3 -84 -8 -107 -10 -23 -3 -73 -7 -110
-10 -37 -3 -90 -8 -118 -10 -240 -21 -812 -27 -1025 -11 -58 4 -127 9 -155 11
-27 1 -81 6 -120 9 -38 4 -94 9 -122 11 -91 8 -167 16 -198 20 -30 4 -94 10
-210 21 -33 3 -71 7 -85 10 -14 3 -41 7 -60 9 -64 7 -196 25 -230 32 -14 2
-41 6 -60 8 -19 1 -48 6 -65 9 -16 3 -61 10 -100 16 -38 5 -81 12 -95 14 -14
3 -54 10 -90 15 -127 20 -143 23 -164 27 -11 2 -42 7 -68 10 -45 6 -48 5 -49
-17 0 -13 -2 -52 -4 -87 -3 -57 -2 -64 18 -72 32 -12 60 -23 72 -26 6 -1 78
-23 160 -49 210 -65 445 -136 464 -140 9 -2 63 -18 121 -35 58 -17 112 -33
120 -35 8 -1 42 -10 75 -18 52 -14 79 -19 145 -31 19 -3 105 -16 145 -22 17
-2 41 -6 55 -8 35 -6 117 -17 165 -21 22 -2 58 -6 80 -9 22 -3 67 -8 100 -12
80 -8 106 -12 113 -18 4 -4 7 -2928 3 -3033 -1 -22 -2 -22 -193 -21 -113 0
-198 5 -206 11 -12 10 -40 26 -122 72 -25 14 -52 29 -60 35 -24 15 -275 161
-330 192 -19 11 -75 44 -125 73 -102 60 -494 289 -540 315 -329 187 -355 204
-349 233 2 12 11 60 20 107 9 47 18 94 20 105 2 11 6 29 8 40 2 11 11 50 20
86 8 37 17 78 20 90 13 59 70 240 97 304 124 298 356 547 532 571 18 3 39 5
47 7 8 1 36 -2 62 -6 39 -7 57 -18 95 -57 59 -59 60 -61 105 -135 73 -122 164
-331 218 -500 13 -38 26 -79 31 -90 5 -11 18 -56 30 -100 12 -44 24 -87 27
-95 3 -8 6 -22 8 -29 2 -8 10 -45 19 -81 9 -36 18 -75 20 -86 2 -10 4 -19 5
-19 1 0 3 -9 5 -20 1 -11 10 -55 19 -98 10 -43 19 -92 21 -108 2 -15 6 -36 9
-46 2 -10 7 -40 11 -67 3 -27 8 -52 10 -55 1 -3 6 -35 10 -71 4 -36 9 -73 10
-82 2 -9 6 -48 10 -85 7 -80 14 -125 21 -132 2 -3 2 17 -1 45 -3 27 -7 99 -10
159 -6 132 -13 245 -20 340 -3 39 -8 102 -10 140 -3 39 -7 88 -10 110 -2 22
-7 72 -10 110 -3 39 -8 80 -10 93 -2 13 -7 53 -10 90 -4 37 -8 78 -11 92 -2
14 -7 41 -10 60 -13 85 -27 157 -43 215 -6 22 -11 45 -12 50 -11 82 -207 525
-249 565 -3 3 -22 29 -43 58 -99 139 -214 246 -347 320 -106 60 -325 162 -346
162 -8 0 -14 4 -14 10 0 5 -3 9 -7 8 -5 -2 -33 7 -63 19 -87 34 -238 89 -318
114 l-72 24 5 65 c3 36 8 81 10 100 7 53 16 141 20 180 2 19 6 58 9 85 3 28 8
73 11 100 2 28 6 64 9 80 3 17 7 59 11 95 3 36 7 74 10 85 2 11 4 30 4 41 1
23 3 23 101 9z"/>
<path d="M2331 414 c0 -11 3 -14 6 -6 3 7 2 16 -1 19 -3 4 -6 -2 -5 -13z"/>
<path d="M4095 280 c-3 -5 -1 -10 4 -10 6 0 11 5 11 10 0 6 -2 10 -4 10 -3 0
-8 -4 -11 -10z"/>
<path d="M4094 249 c-3 -6 -2 -15 3 -20 5 -5 9 -1 9 11 0 23 -2 24 -12 9z"/>
</g>
</svg>
