<?xml version="1.0" encoding="UTF-8" standalone="no"?>
<!DOCTYPE svg PUBLIC "-//W3C//DTD SVG 1.1//EN" "http://www.w3.org/Graphics/SVG/1.1/DTD/svg11.dtd">
<svg id="Female-Body" width="100%" height="100%" viewBox="0 0 1800 3200" version="1.1" xmlns="http://www.w3.org/2000/svg" style="stroke:black;fill:white;">
	<g id="Back" transform="matrix(1,0,0,1,-345.148,0)">
		<g id="Cape-Full" transform="matrix(4.16667,0,0,4.16667,-106.797,-2.27374e-13)">
			<path d="M282.382,188.133C252.498,199.416 219.224,253.787 215.107,295.138C212.51,321.231 199.786,347.741 200.978,373.719C202.186,400.062 188.897,427.382 187.92,453.706C187.04,477.422 180.043,488.257 175.981,511.709C169.904,546.803 163.185,569.926 157.733,605.049C153.4,632.967 140.299,656.04 134.145,664.751C133.582,665.547 172.258,664.613 180.066,663.35C205.284,659.269 224.613,658.09 249.639,664.229C276.827,670.898 303.539,674.986 331.343,668.837C358.129,662.913 383.311,648.755 410.783,646.225C432.127,644.259 452.952,651.144 473.474,655.924C478.676,657.136 485.884,660.234 491.268,659.892C491.404,659.884 489.545,647.386 489.273,646.04C486.62,632.918 480.568,620.393 473.47,609.161C455.416,580.592 461.642,549.247 458.342,515.481C455.143,482.746 458.488,449.941 452.986,417.265C448.119,388.362 431.018,361.468 426.736,332.303C421.711,298.087 410.04,261.437 399.709,228.191C387.039,187.419 312.266,176.85 282.382,188.133Z" style="stroke-width:0.96px;"/>
		</g>
		<g id="Cape-Shoulder" transform="matrix(0.871254,0,0,1.0528,77.8679,13.0749)">
			<path d="M1552.7,783.806C1536.45,746.35 1522.52,708.924 1522.52,708.924C1528.19,698.577 1571.95,698.914 1584.23,699.549C1612.85,701.028 1653.09,711.751 1670.56,729.276C1680.53,739.27 1700.88,739.819 1707.64,751.967C1708.17,752.916 1714.34,763.088 1713.75,763.539C1713.67,763.599 1717.21,784.138 1721.36,808.087C1750.4,827.225 1776.49,852.445 1794.03,881.876C1838.26,956.076 1882.39,1039.73 1916.55,1119.39C1945.68,1187.3 1994.99,1253.64 2025.12,1320.56C2059.17,1396.22 2075.4,1449.28 2104.84,1526.43C2135.2,1606.03 2172.7,1677.06 2229.28,1735.43C2251.53,1758.38 2288.19,1777.74 2302.77,1807.86C2304.26,1810.95 2316.79,1840.04 2316.52,1840.14C2305.86,1844.13 2289.09,1840.88 2277.71,1841.02C2232.81,1841.54 2138.94,1798.1 2097.11,1815.4C2043.26,1837.66 2049.08,1925.72 1999,1955.77C1947.02,1986.97 1858.82,1909.99 1799.1,1909.88C1744.13,1909.77 1757.38,2030.24 1709.18,2054.92C1694.26,2062.56 1596.3,2064.12 1596.88,2061.87C1603.23,2037.21 1613.58,1973.8 1602.77,1903.84C1589.18,1815.83 1586.57,1756.05 1574.26,1667.74C1566.04,1608.72 1572.61,1578.45 1557.76,1520.67C1541.28,1456.53 1549.02,1382.75 1528.1,1319.86C1507.47,1257.83 1514.64,1186.34 1501.6,1121.81C1480.94,1019.54 1498.72,829.766 1551.31,784.951C1551.77,784.562 1552.23,784.181 1552.7,783.806Z" style="stroke-width:4.14px;"/>
		</g>
	</g>
	<g id="Body">
		<g id="Boots">
			<g transform="matrix(1.32813,0,0,1.71875,272.497,40.8176)">
				<g transform="matrix(-1.31718,0,0,1.08136,1689.97,-124.051)">
					<path d="M726.29,1716.4L726.29,1733.18C726.29,1733.18 686.583,1760.92 668.24,1763.71C650.512,1766.41 626.465,1754.43 616.231,1749.95C611.31,1747.8 606.835,1736.87 606.835,1736.87L606.835,1716.07C606.835,1716.07 612.824,1727.35 618.244,1729.82C628.534,1734.52 668.576,1744.25 668.576,1744.25L726.29,1716.4Z" style="stroke-width:2.22px;"/>
				</g>
				<g transform="matrix(-1.31718,0,0,1.08136,1689.97,-122.969)">
					<path d="M649.785,1676.13C649.785,1676.13 619.698,1696.21 612.54,1702.64C609.227,1705.62 605.942,1710.36 606.835,1714.72C607.786,1719.37 612.409,1727.66 618.244,1730.49C628.366,1735.41 650.646,1746.48 667.569,1744.25C685.409,1741.9 725.283,1716.4 725.283,1716.4L756.196,1678.15L756.196,1701.97L795.412,1680.5C795.412,1680.5 797.784,1660.65 795.748,1652.65C793.795,1644.97 783.196,1632.47 783.196,1632.47L717.376,1626.14L649.785,1676.13Z" style="stroke-width:2.22px;"/>
				</g>
				<g transform="matrix(-1.31718,0,0,1.08136,1689.97,-122.969)">
					<path d="M736.692,1701.97L756.196,1701.97L756.196,1677.81L736.692,1701.97Z" style="stroke-width:2.22px;"/>
				</g>
			</g>
			<g transform="matrix(-1.32813,0,0,1.71875,1508.81,40.8176)">
				<g transform="matrix(-1.31718,0,0,1.08136,1689.97,-124.051)">
					<path d="M726.29,1716.4L726.29,1733.18C726.29,1733.18 686.583,1760.92 668.24,1763.71C650.512,1766.41 626.465,1754.43 616.231,1749.95C611.31,1747.8 606.835,1736.87 606.835,1736.87L606.835,1716.07C606.835,1716.07 612.824,1727.35 618.244,1729.82C628.534,1734.52 668.576,1744.25 668.576,1744.25L726.29,1716.4Z" style="stroke-width:2.22px;"/>
				</g>
				<g transform="matrix(-1.31718,0,0,1.08136,1689.97,-122.969)">
					<path d="M649.785,1676.13C649.785,1676.13 619.698,1696.21 612.54,1702.64C609.227,1705.62 605.942,1710.36 606.835,1714.72C607.786,1719.37 612.409,1727.66 618.244,1730.49C628.366,1735.41 650.646,1746.48 667.569,1744.25C685.409,1741.9 725.283,1716.4 725.283,1716.4L756.196,1678.15L756.196,1701.97L795.412,1680.5C795.412,1680.5 797.784,1660.65 795.748,1652.65C793.795,1644.97 783.196,1632.47 783.196,1632.47L717.376,1626.14L649.785,1676.13Z" style="stroke-width:2.22px;"/>
				</g>
				<g transform="matrix(-1.31718,0,0,1.08136,1689.97,-122.969)">
					<path d="M736.692,1701.97L756.196,1701.97L756.196,1677.81L736.692,1701.97Z" style="stroke-width:2.22px;"/>
				</g>
			</g>
		</g>
		<g id="Flight-Suit">
			<path d="M411.951,1211L460.452,1034.78L527.914,1057.97L601.893,1117.44C601.893,1117.44 554.876,1206.02 536.405,1252.82C517.381,1301.02 484.443,1411.17 480.223,1425.35L450.788,1681.1L365.499,1653.77L360.152,1402.49L411.951,1211Z" style="stroke-width:4px;"/>
			<g transform="matrix(-1,0,0,1,1781.26,0)">
				<path d="M411.951,1211L460.452,1034.78L527.914,1057.97L601.893,1117.44C601.893,1117.44 554.876,1206.02 536.405,1252.82C517.381,1301.02 484.443,1411.17 480.223,1425.35L450.788,1681.1L365.499,1653.77L360.152,1402.49L411.951,1211Z" style="stroke-width:4px;"/>
			</g>
			<g id="Pants" transform="matrix(1,0,0,1,-384,-56)">
				<path d="M1274.5,1813.92C1264.02,1814.92 1254.56,1819.11 1251.09,1826.45C1220.49,1891.17 1157.49,2187.1 1139.29,2241.63C1129.38,2271.29 1121.57,2433.63 1104.79,2528.31C1084.76,2641.3 1019.12,2919.56 1019.12,2919.56L905.303,2907.8C905.303,2907.8 890.635,2628.36 894.687,2526.65C897.767,2449.36 929.614,2297.55 929.614,2297.55C929.614,2297.55 936.45,2242.11 936.611,2214.22C937.195,2113.43 931.118,1889.18 950.976,1760.44C966.682,1658.62 1077.63,1444.91 1077.63,1444.91C1077.63,1444.91 1201.92,1493.81 1275,1493.81C1348.08,1493.81 1473.41,1443.86 1473.41,1443.86C1473.41,1443.86 1579.04,1658.62 1594.74,1760.44C1614.6,1889.18 1612.81,2113.43 1613.39,2214.22C1613.55,2242.11 1620.39,2297.55 1620.39,2297.55C1620.39,2297.55 1652.23,2449.36 1655.31,2526.65C1659.37,2628.36 1644.7,2907.8 1644.7,2907.8L1530.88,2919.56C1530.88,2919.56 1465.24,2641.3 1445.21,2528.31C1428.43,2433.63 1420.62,2271.29 1410.71,2241.63C1392.51,2187.1 1329.52,1891.17 1298.91,1826.45C1295.38,1818.99 1285.67,1814.79 1275,1813.88L1274.5,1813.92Z" style="stroke-width:4px;"/>
			</g>
			<g id="Neck-padding" transform="matrix(1.55624,0,0,1.95769,166.266,-1.56125)">
				<g transform="matrix(1.29579,0,0,0.929431,-738.62,-84.9653)">
					<path d="M984.737,430.319C984.737,425.068 981.013,420.806 976.426,420.806C976.426,420.806 945.078,425.806 929.404,425.806C913.73,425.806 882.382,420.806 882.382,420.806C877.795,420.806 874.071,425.068 874.071,430.319C874.071,435.569 877.795,439.832 882.382,439.832C882.382,439.832 913.73,444.832 929.404,444.832C945.078,444.832 976.426,439.832 976.426,439.832C981.013,439.832 984.737,435.569 984.737,430.319Z" style="stroke-width:2.08px;"/>
				</g>
				<g transform="matrix(1.36143,0,0,0.976507,-799.619,-94.8875)">
					<path d="M984.737,430.319C984.737,425.068 981.013,420.806 976.426,420.806C976.426,420.806 945.078,425.806 929.404,425.806C913.73,425.806 882.382,420.806 882.382,420.806C877.795,420.806 874.071,425.068 874.071,430.319C874.071,435.569 877.795,439.832 882.382,439.832C882.382,439.832 913.73,444.832 929.404,444.832C945.078,444.832 976.426,439.832 976.426,439.832C981.013,439.832 984.737,435.569 984.737,430.319Z" style="stroke-width:1.98px;"/>
				</g>
				<g transform="matrix(1.43578,0,0,1.02984,-868.719,-104.993)">
					<path d="M984.737,430.319C984.737,425.068 981.013,420.806 976.426,420.806C976.426,420.806 945.078,425.806 929.404,425.806C913.73,425.806 882.382,420.806 882.382,420.806C877.795,420.806 874.071,425.068 874.071,430.319C874.071,435.569 877.795,439.832 882.382,439.832C882.382,439.832 913.73,444.832 929.404,444.832C945.078,444.832 976.426,439.832 976.426,439.832C981.013,439.832 984.737,435.569 984.737,430.319Z" style="stroke-width:1.88px;"/>
				</g>
				<g transform="matrix(1.50761,0,0,1.08136,-935.486,-115.4)">
					<path d="M984.737,430.319C984.737,425.068 981.013,420.806 976.426,420.806C976.426,420.806 945.078,425.806 929.404,425.806C913.73,425.806 882.382,420.806 882.382,420.806C877.795,420.806 874.071,425.068 874.071,430.319C874.071,435.569 877.795,439.832 882.382,439.832C882.382,439.832 913.73,444.832 929.404,444.832C945.078,444.832 976.426,439.832 976.426,439.832C981.013,439.832 984.737,435.569 984.737,430.319Z" style="stroke-width:1.79px;"/>
				</g>
				<g transform="matrix(1.57903,0,0,0.816557,-1001.86,10.0899)">
					<path d="M984.737,430.319C984.737,425.068 981.013,420.806 976.426,420.806C976.426,420.806 945.078,425.806 929.404,425.806C913.73,425.806 882.382,420.806 882.382,420.806C877.795,420.806 874.071,425.068 874.071,430.319C874.071,435.569 877.795,439.832 882.382,439.832C882.382,439.832 913.73,444.832 929.404,444.832C945.078,444.832 976.426,439.832 976.426,439.832C981.013,439.832 984.737,435.569 984.737,430.319Z" style="stroke-width:1.93px;"/>
				</g>
				<g transform="matrix(1.57903,0,0,0.816557,-1001.86,23.0506)">
					<path d="M984.737,430.319C984.737,425.068 981.013,420.806 976.426,420.806C976.426,420.806 945.078,425.806 929.404,425.806C913.73,425.806 882.382,420.806 882.382,420.806C877.795,420.806 874.071,425.068 874.071,430.319C874.071,435.569 877.795,439.832 882.382,439.832C882.382,439.832 913.73,449.461 929.404,449.461C945.078,449.461 976.426,439.832 976.426,439.832C981.013,439.832 984.737,435.569 984.737,430.319Z" style="stroke-width:1.93px;"/>
				</g>
			</g>
		</g>
		<g id="Gloves">
			<g id="Glove-Left" transform="matrix(-1.74772,-0.0761664,-0.0809216,1.85683,2533.34,-136.574)">
				<path d="M641.796,1004.6L650.874,1023.8L654.958,1041.28L654.958,1051.25L659.343,1084.46L657.442,1101.88L650.694,1103.51L639.456,1084.01L632.839,1055.01L622.339,1055.51L622.339,1089.01L644.523,1115.01L644.523,1121.51L641.243,1124.71L630.126,1127.71L614.126,1112.71L598.243,1089.71L580.626,1060.36L577.805,1050.37L575.339,1039.01L596.456,979.514L613.339,982.014L639.456,990.014L641.796,1004.6Z" style="stroke-width:2.22px;"/>
			</g>
			<g id="Glove-Right" transform="matrix(1.74772,-0.0761664,0.0809216,1.85683,-751.339,-136.574)">
				<path d="M641.796,1004.6L650.874,1023.8L654.958,1041.28L654.958,1051.25L659.343,1084.46L657.442,1101.88L650.694,1103.51L639.456,1084.01L632.839,1055.01L622.339,1055.51L622.339,1089.01L644.523,1115.01L644.523,1121.51L641.243,1124.71L630.126,1127.71L614.126,1112.71L598.243,1089.71L580.626,1060.36L577.805,1050.37L575.339,1039.01L596.456,979.514L613.339,982.014L639.456,990.014L641.796,1004.6Z" style="stroke-width:2.22px;"/>
			</g>
		</g>
		<g id="Sleeves">
			<path d="M450.98,1018.45L459.199,1021.96L589.112,934.514C589.112,934.514 592.819,1026.72 603.604,1082.08C605.099,1089.76 607.348,1099.49 610.169,1110.73L592.915,1166.71C592.915,1166.71 534.194,1143.63 508.463,1128.48C483.467,1113.76 438.527,1075.79 438.527,1075.79L450.98,1018.45Z" style="stroke-width:4px;"/>
			<path d="M1171.83,1110.73C1174.65,1099.49 1176.9,1089.76 1178.4,1082.08C1189.18,1026.72 1192.89,934.514 1192.89,934.514L1322.8,1021.96L1331.02,1018.45L1343.47,1075.79C1343.47,1075.79 1298.53,1113.76 1273.54,1128.48C1247.81,1143.63 1189.09,1166.71 1189.09,1166.71L1171.83,1110.73Z" style="stroke-width:4px;"/>
		</g>
		<g id="Vest" transform="matrix(0.913063,0,0,0.953721,-273.155,13.4654)">
			<path d="M1348.45,1501.02L1201.55,1501.02L1058.1,1444.02C1058.1,1444.02 975.113,1193.58 960.239,1120.47C948.428,1062.42 944.368,965.743 944.368,965.743L802.085,1057.43L771.762,1045.04C771.762,1045.04 856.899,864.965 912.879,812.796C963.551,765.573 1107.64,732.024 1107.64,732.024L1200.07,789.535L1284.86,795.605L1350.05,790.234L1442.36,732.024C1442.36,732.024 1586.45,765.573 1637.12,812.796C1693.1,864.965 1778.24,1045.04 1778.24,1045.04L1747.91,1057.43L1605.63,965.743C1605.63,965.743 1601.57,1062.42 1589.76,1120.47C1574.89,1193.58 1491.9,1444.02 1491.9,1444.02L1348.45,1501.02Z" style="stroke-width:4.28px;"/>
		</g>
	</g>
	<g id="Lower-Armor">
		<g id="Ankles" transform="matrix(1.32813,0,0,1.71875,272.497,40.8176)">
			<g id="Ankle-Left" transform="matrix(-1.31718,0,0,1.08136,1689.97,-122.969)">
				<path d="M645.696,1674.97L710.345,1596.35L775.696,1607.47L783.196,1631.47L716.529,1683.97L688.196,1692.47L645.696,1674.97Z" style="stroke-width:2.22px;"/>
			</g>
			<g id="Ankle-Right" transform="matrix(1.31718,0,0,1.08136,-758.572,-122.969)">
				<path d="M645.696,1674.97L710.345,1596.35L775.696,1607.47L783.196,1631.47L716.529,1683.97L688.196,1692.47L645.696,1674.97Z" style="stroke-width:2.22px;"/>
			</g>
		</g>
		<g id="Shins" transform="matrix(1.32813,0,0,1.71875,272.497,40.8176)">
			<g id="Shin-Left" transform="matrix(-1.31718,0,0,1.08136,1689.97,-122.969)">
				<path d="M705.196,1410.47L731.196,1375.97C731.196,1375.97 764.315,1370.84 775.696,1380.47C789.779,1392.38 817.361,1421.51 815.696,1447.47C813.446,1482.55 762.196,1590.97 762.196,1590.97L708.129,1582.47L705.196,1410.47Z" style="stroke-width:2.22px;"/>
			</g>
			<g id="Shin-Right" transform="matrix(1.31718,0,0,1.08136,-758.572,-122.969)">
				<path d="M705.196,1410.47L731.196,1375.97C731.196,1375.97 764.315,1370.84 775.696,1380.47C789.779,1392.38 817.361,1421.51 815.696,1447.47C813.446,1482.55 762.196,1590.97 762.196,1590.97L708.129,1582.47L705.196,1410.47Z" style="stroke-width:2.22px;"/>
			</g>
		</g>
		<g id="Knees" transform="matrix(1.32813,0,0,1.71875,272.497,40.8176)">
			<g id="Knee-Left" transform="matrix(1.24028,-0.342686,0.471162,1.01823,-945.298,235.299)">
				<path d="M740.461,1256.59L731.079,1298.78L751.696,1304.3L755.696,1345.97C755.696,1345.97 802.807,1366.69 819.029,1363.3C835.252,1359.91 845.863,1338.97 853.029,1325.63C859.859,1312.93 862.029,1283.3 862.029,1283.3L841.363,1285.97L740.461,1256.59Z" style="stroke-width:2.22px;"/>
			</g>
			<g id="Knee-Right" transform="matrix(-1.24028,-0.342686,-0.471162,1.01823,1877.14,235.299)">
				<path d="M740.461,1256.59L731.079,1298.78L751.696,1304.3L755.696,1345.97C755.696,1345.97 802.807,1366.69 819.029,1363.3C835.252,1359.91 845.863,1338.97 853.029,1325.63C859.859,1312.93 862.029,1283.3 862.029,1283.3L841.363,1285.97L740.461,1256.59Z" style="stroke-width:2.22px;"/>
			</g>
		</g>
		<g id="Thighs" transform="matrix(1.32813,0,0,1.71875,272.497,40.8176)">
			<g id="Thigh-Left" transform="matrix(-1.49662,0,0,1.22868,1819.1,-304.958)">
				<path d="M716.529,1061.97C718.904,1043.65 743.363,1029.52 757.029,1024.13C770.011,1019.02 787.392,1021.23 798.529,1029.63C815.529,1042.47 854.6,1070.23 859.029,1101.13C863.974,1135.63 828.196,1236.63 828.196,1236.63L804.529,1249.13L729.029,1240.13C729.029,1240.13 711.863,1097.97 716.529,1061.97Z" style="stroke-width:1.95px;"/>
			</g>
			<g id="Thigh-Right" transform="matrix(1.49662,0,0,1.22868,-887.709,-304.958)">
				<path d="M716.529,1061.97C718.904,1043.65 743.363,1029.52 757.029,1024.13C770.011,1019.02 787.392,1021.23 798.529,1029.63C815.529,1042.47 854.6,1070.23 859.029,1101.13C863.974,1135.63 828.196,1236.63 828.196,1236.63L804.529,1249.13L729.029,1240.13C729.029,1240.13 711.863,1097.97 716.529,1061.97Z" style="stroke-width:1.95px;"/>
			</g>
		</g>
		<g id="Groin" transform="matrix(1.74938,0,0,1.69526,-734.982,-152.991)">
			<path d="M891.529,1073.97L828.196,942.634L1030.73,942.634L967.397,1073.97C967.397,1073.97 942.108,1105.26 929.463,1105.26C916.818,1105.26 891.529,1073.97 891.529,1073.97Z" style="stroke-width:2.32px;"/>
		</g>
		<g id="Belt" transform="matrix(3.12512,0,0,4.30679,681.475,1494)">
			<path d="M-1.774,-35.627C-1.774,-35.627 20.949,-24.108 34.428,-22.195C52.225,-19.669 86.07,-19.915 103.284,-22.195C115.526,-23.816 135.717,-35.874 135.717,-35.874L140.07,-14.493C140.07,-14.493 116.306,-1.789 103.232,0C85.576,2.415 52.383,2.301 34.134,0C20.016,-1.78 -6.263,-13.805 -6.263,-13.805L-1.774,-35.627Z" style="stroke-width:1.06px;stroke-miterlimit:10;"/>
		</g>
	</g>
	<g id="Upper-Armor">
		<g id="Gauntlets">
			<g id="Gauntlet-Left">
				<g transform="matrix(1.60992,0.0701613,-0.0855986,1.96415,-536.232,-337.622)">
					<path d="M1219.98,849.641L1177.58,856.806L1173.78,873.241L1212.3,984.478L1252.18,971.441L1219.98,849.641Z" style="stroke-width:2.23px;"/>
				</g>
				<g transform="matrix(1.60992,0.0701613,-0.0855986,1.96415,-536.232,-337.622)">
					<path d="M1272.05,838.775L1218.05,844.108L1251.38,970.775L1266.05,1011.44L1295.38,1052.11L1304.05,1043.44L1300.05,1025.44L1293.38,994.108L1262.05,886.108L1279.38,871.441L1272.05,838.775Z" style="stroke-width:2.23px;"/>
				</g>
				<g transform="matrix(1.60992,0.0701613,-0.0855986,1.96415,-536.232,-337.622)">
					<path d="M1262.09,886.284L1293.06,1006.22L1309.72,1013.07L1282.56,869.241L1262.09,886.284Z" style="stroke-width:2.23px;"/>
				</g>
			</g>
			<g id="Gauntlet-Right">
				<g transform="matrix(-1.60992,0.0701613,0.0855986,1.96415,2318.23,-337.622)">
					<path d="M1219.98,849.641L1177.58,856.806L1173.78,873.241L1212.3,984.478L1252.18,971.441L1219.98,849.641Z" style="stroke-width:2.23px;"/>
				</g>
				<g transform="matrix(-1.60992,0.0701613,0.0855986,1.96415,2318.23,-337.622)">
					<path d="M1272.05,838.775L1218.05,844.108L1251.38,970.775L1266.05,1011.44L1295.38,1052.11L1304.05,1043.44L1300.05,1025.44L1293.38,994.108L1262.05,886.108L1279.38,871.441L1272.05,838.775Z" style="stroke-width:2.23px;"/>
				</g>
				<g transform="matrix(-1.60992,0.0701613,0.0855986,1.96415,2318.23,-337.622)">
					<path d="M1262.09,886.284L1293.06,1006.22L1309.72,1013.07L1282.56,869.241L1262.09,886.284Z" style="stroke-width:2.23px;"/>
				</g>
			</g>
		</g>
		<g id="Abdomen" transform="matrix(1.74938,0,0,1.85859,-735.211,-200.516)">
			<path d="M847.463,833.472C835.317,830.998 813.42,777.472 813.42,777.472L845.229,756.045L868.846,706.092L929.463,691.472L990.08,706.092L1013.7,756.045L1045.51,777.472C1045.51,777.472 1023.61,830.998 1011.46,833.472C992.313,837.373 956.796,839.543 929.463,839.543C902.13,839.543 866.613,837.373 847.463,833.472Z" style="stroke-width:2.22px;"/>
		</g>
		<g id="Iron-Heart">
			<g id="Heart-Outer" transform="matrix(1.74938,0,0,1.85859,-734.982,-180.536)">
				<path d="M913.13,622.189L913.13,569.789L929.463,557.722L945.796,569.789L945.796,622.189L929.463,637.722L913.13,622.189Z" style="stroke-width:2.22px;"/>
			</g>
			<g id="Heart-Center" transform="matrix(1,0,0,1,1.38054,-0.0586451)">
				<rect x="879.239" y="887.445" width="20.761" height="86" style="stroke-width:4px;"/>
			</g>
		</g>
		<g id="Chest" transform="matrix(1.32813,0,0,1.71875,271.973,30.8176)">
			<g id="Chest-Left" transform="matrix(-1.31718,0,0,1.08136,1690.75,-122.969)">
				<path d="M788.835,561.163C811.378,539.742 916.796,539.056 916.796,539.056L918.13,551.056L900.796,566.389L902.13,631.056L917.463,645.056L917.463,666.389L858.796,681.722L835.463,731.722L809.463,751.722C809.463,751.722 782.299,690.565 779.01,656.423C776.833,633.826 769.167,579.853 788.835,561.163Z" style="stroke-width:2.22px;"/>
			</g>
			<g id="Chest-Right" transform="matrix(1.31718,0,0,1.08136,-758.572,-122.969)">
				<path d="M788.835,561.163C811.378,539.742 916.796,539.056 916.796,539.056L918.13,551.056L900.796,566.389L902.13,631.056L917.463,645.056L917.463,666.389L858.796,681.722L835.463,731.722L809.463,751.722C809.463,751.722 782.299,690.565 779.01,656.423C776.833,633.826 769.167,579.853 788.835,561.163Z" style="stroke-width:2.22px;"/>
			</g>
		</g>
		<g id="Shoulders" transform="matrix(1.32813,0,0,1.71875,272.497,40.8176)">
			<g id="Shoulder-Left" transform="matrix(-1.509,0,0,1.23884,1765.49,-206.893)">
				<path d="M710.463,483.389C710.463,483.389 723.352,525.236 723.796,540.139C724.138,551.589 722.018,565.58 713.13,572.806C699.463,583.917 641.796,606.806 641.796,606.806L629.796,589.472L710.463,483.389Z" style="stroke-width:1.93px;"/>
			</g>
			<g id="Shoulder-Right" transform="matrix(1.509,0,0,1.23884,-834.205,-206.893)">
				<path d="M710.463,483.389C710.463,483.389 723.352,525.236 723.796,540.139C724.138,551.589 722.018,565.58 713.13,572.806C699.463,583.917 641.796,606.806 641.796,606.806L629.796,589.472L710.463,483.389Z" style="stroke-width:1.93px;"/>
			</g>
		</g>
		<g id="Neck" transform="matrix(1.46991,0,0,1.39372,-475.224,80.7559)">
			<path d="M929.463,518.7C879.907,518.7 780.796,507.056 780.796,507.056L765.463,462.809L835.463,443.056C835.463,443.056 844.712,457.829 851.463,463.056C858.352,468.389 867.561,474.664 876.201,478.221C885.645,482.11 897.151,484.708 908.13,486.389C920.463,488.278 938.463,488.278 950.796,486.389C961.775,484.708 974.472,482.11 983.916,478.221C992.556,474.664 1000.57,468.389 1007.46,463.056C1014.21,457.829 1023.46,443.056 1023.46,443.056L1093.46,462.809L1078.13,507.056C1078.13,507.056 979.019,518.7 929.463,518.7Z" style="stroke-width:2.79px;"/>
		</g>
	</g>
	<g id="Helmet-wrapper" transform="translate(540,35)">
		<title>Helmet</title>
		<g id="Helmet" transform="matrix(0.9375,0,0,0.819242,-10.0757,0)">
			<defs>
				<g id="Antenna_Left_Classic" transform="matrix(-4.44444,0,0,5.086,1791.16,-40.6465)">
					<path id="Antenna_Left_Antenna_Classic" d="M266.3,95.575L271.494,17.306C271.494,14.696 273.368,14.884 273.312,17.494L269.13,95.575L266.3,95.575Z" style="stroke-width:0.96px;"/>
				</g>
				<g id="Antenna_Right_Classic" transform="matrix(4.44444,0,0,5.086,-1023,-40.6465)">
					<path id="Antenna_Right_Antenna_Classic" d="M266.3,95.575L271.494,17.306C271.494,14.696 273.368,14.884 273.312,17.494L269.13,95.575L266.3,95.575Z" style="stroke-width:0.96px;"/>
				</g>
			<defs>
			</defs>
				<g id="Sensor-Stalk_Left_Classic" transform="matrix(-0.276044,0,0,0.315891,729.949,-85.5922)">
					<g id="Sensor_Left_Sensor-Stalk_Classic">
						<path d="M294.824,1985.62L101.341,1654.63L339.466,1656.53L339.466,1985.62L294.824,1985.62Z" style="stroke-width:15.46px;"/>
						<path d="M345.97,686.244L101.341,1443.38L339.466,1443.38L345.97,686.244Z" style="stroke-width:15.46px;"/>
					</g>
					<g id="Shaft_Left_Sensor-Stalk_Classic">
						<path d="M58.549,1443.38L346.52,555.253L345.97,686.244L101.341,1443.38L304.624,1443.38L304.624,1490.75L58.549,1490.75L58.549,1443.38Z" style="stroke-width:15.46px;"/>
						<path d="M58.549,1654.07L58.549,1606.71L304.624,1606.71L304.624,1654.07L101.013,1654.07L294.824,1985.62L252.36,1985.62L58.549,1654.07Z" style="stroke-width:15.46px;"/>
						<path d="M374.309,1338.85L304.624,1289.86L304.624,1723.21L374.309,1723.21L374.309,1338.85Z" style="stroke-width:15.46px;"/>
						<rect x="294.824" y="1723.21" width="101.261" height="94.728" style="stroke-width:15.46px;"/>
						<rect x="396.085" y="1706.88" width="16.282" height="137.192" style="stroke-width:15.46px;"/>
					</g>
				</g>
				<g id="Sensor-Stalk_Right_Classic" transform="matrix(0.276044,0,0,0.315891,38.2122,-85.5922)">
					<g id="Sensor_Right_Sensor-Stalk_Classic">
						<path d="M294.824,1985.62L101.341,1654.63L339.466,1656.53L339.466,1985.62L294.824,1985.62Z" style="stroke-width:15.46px;"/>
						<path d="M345.97,686.244L101.341,1443.38L339.466,1443.38L345.97,686.244Z" style="stroke-width:15.46px;"/>
					</g>
					<g id="Shaft_Right_Sensor-Stalk_Classic">
						<path d="M58.549,1443.38L346.52,555.253L345.97,686.244L101.341,1443.38L304.624,1443.38L304.624,1490.75L58.549,1490.75L58.549,1443.38Z" style="stroke-width:15.46px;"/>
						<path d="M58.549,1654.07L58.549,1606.71L304.624,1606.71L304.624,1654.07L101.013,1654.07L294.824,1985.62L252.36,1985.62L58.549,1654.07Z" style="stroke-width:15.46px;"/>
						<path d="M374.309,1338.85L304.624,1289.86L304.624,1723.21L374.309,1723.21L374.309,1338.85Z" style="stroke-width:15.46px;"/>
						<rect x="294.824" y="1723.21" width="101.261" height="94.728" style="stroke-width:15.46px;"/>
						<rect x="396.085" y="1706.88" width="16.282" height="137.192" style="stroke-width:15.46px;"/>
					</g>
				</g>
			<defs>
			</defs>
				<g id="Range-Finder_Left_Classic">
					<g id="Shaft_Left_Range-Finder_Classic" transform="matrix(-4.44444,0,0,5.086,1791.16,-40.6465)">
						<path d="M266.3,95.575L270.666,23.806L273.444,23.994L269.13,95.575L266.3,95.575Z" style="stroke-width:0.96px;"/>
					</g>
					<g id="Finder_Left_Range-Finder_Classic" transform="matrix(-4.44444,0,0,5.086,1787.79,-40.6465)">
						<path d="M266.836,23.806L275.103,23.806L277.541,20.056L295.541,19.119L295.916,14.994L264.836,13.744L266.836,23.806Z" style="stroke-width:0.96px;"/>
					</g>
				</g>
				<g id="Range-Finder_Right_Classic">
					<g id="Shaft_Right_Range-Finder_Classic" transform="matrix(4.44444,0,0,5.086,-1023,-40.6465)">
						<path d="M266.3,95.575L270.666,23.806L273.444,23.994L269.13,95.575L266.3,95.575Z" style="stroke-width:0.96px;"/>
					</g>
					<g id="Finder_Right_Range-Finder_Classic" transform="matrix(4.44444,0,0,5.086,-1018.56,-40.6465)">
						<path d="M266.836,23.806L275.103,23.806L277.541,20.056L295.541,19.119L295.916,14.994L264.836,13.744L266.836,23.806Z" style="stroke-width:0.96px;"/>
					</g>
				</g>
			</defs>
			<g id="Left-Earcap_Classic" class="optional">
				<metadata>Sensor-Stalk_Left_Classic</metadata>
				<g id="Ear-Cap_Left_Classic" transform="matrix(4.44444,0,0,5.086,-977.736,-80.3809)">
					<path d="M358.056,156.056L362.541,149.431L358.056,103.556L351.791,99.619L358.056,156.056Z" style="stroke-width:0.96px;"/>
				</g>
				<metadata>Antenna_Left_Classic</metadata>
				<metadata>Range-Finder_Left_Classic</metadata>
			</g>
			<g id="Right-Earcap_Classic" class="optional">
				<metadata>Sensor-Stalk_Right_Classic</metadata>
				<g id="Ear-Cap_Right_Classic" transform="matrix(-4.44444,0,0,5.086,1745.9,-80.3809)">
					<path d="M358.056,156.056L362.541,149.431L358.056,103.556L351.791,99.619L358.056,156.056Z" style="stroke-width:0.96px;"/>
				</g>
				<metadata>Antenna_Right_Classic</metadata>
				<metadata>Range-Finder_Right_Classic</metadata>
			</g>
			<g id="Dome_Classic" transform="matrix(1.06667,0,0,1.22064,10.7474,0)">
				<path d="M159.201,357.67L159.215,357.545L159.219,356.358C159.881,256.837 243.807,175.998 347.886,173.99L347.886,173.951L349.131,173.955L349.87,173.962L350.609,173.955L351.854,173.951L351.854,173.99C455.933,175.998 539.86,256.837 540.522,356.358L540.526,357.545L540.539,357.67C532.482,358.691 477.141,365.632 448.673,367.441C419.802,369.275 361.358,369.706 349.87,369.773C338.383,369.706 279.938,369.275 251.067,367.441C222.599,365.632 167.258,358.691 159.201,357.67Z" style="stroke-width:4px;"/>
			</g>
			<g id="Eyes_Classic" transform="matrix(4.76481,0,0,5.086,-1113.44,-31.4488)">
				<path d="M329.627,168.432L298.89,168.432C298.89,168.432 298.14,142.9 296.265,134.307C294.883,127.971 292.015,121.223 287.64,116.869C283.265,112.515 270.015,108.182 270.015,108.182L271.577,91.994C271.577,91.994 285.256,93.9 292.14,94.369C298.603,94.809 311.687,94.913 314.258,94.929C316.83,94.913 329.913,94.809 336.377,94.369C343.26,93.9 356.939,91.994 356.939,91.994L358.502,108.182C358.502,108.182 345.252,112.515 340.877,116.869C336.502,121.223 333.634,127.971 332.252,134.307C330.379,142.891 329.628,168.378 329.627,168.432Z" style="stroke-width:0.93px;"/>
			</g>
			<g id="Visor_Classic" transform="matrix(4.76481,0,0,5.086,-1113.44,-31.4488)">
				<path d="M322.516,168.432L306,168.432L306,108.182C306,108.182 296.822,107.277 292.359,106.182C286.924,104.848 273.39,100.182 273.39,100.182L273.577,96.807C273.577,96.807 286.06,99.089 292.359,99.807C298.525,100.51 306.958,101.468 314.258,101.468C321.558,101.468 329.992,100.51 336.158,99.807C342.457,99.089 354.939,96.807 354.939,96.807L355.127,100.182C355.127,100.182 341.593,104.848 336.158,106.182C331.694,107.277 322.516,108.182 322.516,108.182L322.516,168.432Z" style="stroke-width:0.93px;"/>
			</g>
			<g id="Cheeks_Classic" transform="matrix(1.06667,0,0,1.22064,-45.2839,-80.3809)">
				<g transform="matrix(1,0,0,1,-713.253,0)">
					<path d="M1313.64,491.139L1332.55,665.844L1306.31,667.928L1186.26,738.761L1184.41,738.841C1185.03,721.206 1188.5,631.905 1196.03,599.698C1202.2,573.3 1215.01,545.185 1234.56,527.042C1252.64,510.253 1305.81,493.539 1313.64,491.139Z" style="stroke-width:4px;"/>
				</g>
				<g transform="matrix(1,0,0,1,-713.253,0)">
					<path d="M917.674,491.044C924.255,493.062 978.405,510.014 996.748,527.042C1016.29,545.185 1029.1,573.3 1035.28,599.698C1042.81,631.907 1046.28,721.216 1046.9,738.841L1045.05,738.761L924.996,667.928L898.753,665.844L917.674,491.044Z" style="stroke-width:4px;"/>
				</g>
			</g>
			<g id="Face_Classic" transform="matrix(1.06667,0,0,1.22064,-45.2839,-80.3809)">
				<g transform="matrix(4.46701,0,0,4.16667,-1001.39,40.0872)">
					<path d="M271.577,150.432C271.577,150.432 273.051,139.658 275.265,134.307C277.515,128.869 281.827,122.869 286.702,123.807C290.604,124.557 298.327,144.244 298.89,168.432C298.515,168.057 271.577,150.432 271.577,150.432Z" style="stroke-width:0.93px;"/>
				</g>
				<g transform="matrix(-4.46701,0,0,4.16667,1806.19,40.0872)">
					<path d="M271.577,150.432C271.577,150.432 273.051,139.658 275.265,134.307C277.515,128.869 281.827,122.869 286.702,123.807C290.604,124.557 298.327,144.244 298.89,168.432C298.515,168.057 271.577,150.432 271.577,150.432Z" style="stroke-width:0.93px;"/>
				</g>
			</g>
		</g>
	</g>
</svg>
