<?xml version="1.0" encoding="UTF-8" standalone="no"?>
<!DOCTYPE svg PUBLIC "-//W3C//DTD SVG 1.1//EN" "http://www.w3.org/Graphics/SVG/1.1/DTD/svg11.dtd">
<svg id="Female-Body" width="100%" height="100%" viewBox="0 0 1800 3200" version="1.1" xmlns="http://www.w3.org/2000/svg" style="stroke:black;fill:white;">
	<style>
		.option {
			visibility: hidden;
		}
	</style>
	<g id="Back">
		<g id="Cape" transform="matrix(1,0,0,1,-345.148,0)">
			<g id="No-Cape_Option"></g>
			<g id="Full-Cape_Option" transform="matrix(4.16667,0,0,4.16667,-106.797,-2.27374e-13)" class="option">
				<path d="M282.382,188.133C252.498,199.416 219.224,253.787 215.107,295.138C212.51,321.231 199.786,347.741 200.978,373.719C202.186,400.062 188.897,427.382 187.92,453.706C187.04,477.422 180.043,488.257 175.981,511.709C169.904,546.803 163.185,569.926 157.733,605.049C153.4,632.967 140.299,656.04 134.145,664.751C133.582,665.547 172.258,664.613 180.066,663.35C205.284,659.269 224.613,658.09 249.639,664.229C276.827,670.898 303.539,674.986 331.343,668.837C358.129,662.913 383.311,648.755 410.783,646.225C432.127,644.259 452.952,651.144 473.474,655.924C478.676,657.136 485.884,660.234 491.268,659.892C491.404,659.884 489.545,647.386 489.273,646.04C486.62,632.918 480.568,620.393 473.47,609.161C455.416,580.592 461.642,549.247 458.342,515.481C455.143,482.746 458.488,449.941 452.986,417.265C448.119,388.362 431.018,361.468 426.736,332.303C421.711,298.087 410.04,261.437 399.709,228.191C387.039,187.419 312.266,176.85 282.382,188.133Z" style="stroke-width:0.96px;"/>
			</g>
			<g id="Shoulder-Cape_Option" transform="matrix(0.871254,0,0,1.0528,77.8679,13.0749)" class="option">
				<path d="M1552.7,783.806C1536.45,746.35 1522.52,708.924 1522.52,708.924C1528.19,698.577 1571.95,698.914 1584.23,699.549C1612.85,701.028 1653.09,711.751 1670.56,729.276C1680.53,739.27 1700.88,739.819 1707.64,751.967C1708.17,752.916 1714.34,763.088 1713.75,763.539C1713.67,763.599 1717.21,784.138 1721.36,808.087C1750.4,827.225 1776.49,852.445 1794.03,881.876C1838.26,956.076 1882.39,1039.73 1916.55,1119.39C1945.68,1187.3 1994.99,1253.64 2025.12,1320.56C2059.17,1396.22 2075.4,1449.28 2104.84,1526.43C2135.2,1606.03 2172.7,1677.06 2229.28,1735.43C2251.53,1758.38 2288.19,1777.74 2302.77,1807.86C2304.26,1810.95 2316.79,1840.04 2316.52,1840.14C2305.86,1844.13 2289.09,1840.88 2277.71,1841.02C2232.81,1841.54 2138.94,1798.1 2097.11,1815.4C2043.26,1837.66 2049.08,1925.72 1999,1955.77C1947.02,1986.97 1858.82,1909.99 1799.1,1909.88C1744.13,1909.77 1757.38,2030.24 1709.18,2054.92C1694.26,2062.56 1596.3,2064.12 1596.88,2061.87C1603.23,2037.21 1613.58,1973.8 1602.77,1903.84C1589.18,1815.83 1586.57,1756.05 1574.26,1667.74C1566.04,1608.72 1572.61,1578.45 1557.76,1520.67C1541.28,1456.53 1549.02,1382.75 1528.1,1319.86C1507.47,1257.83 1514.64,1186.34 1501.6,1121.81C1480.94,1019.54 1498.72,829.766 1551.31,784.951C1551.77,784.562 1552.23,784.181 1552.7,783.806Z" style="stroke-width:4.14px;"/>
			</g>
		</g>
	</g>
	<g id="Flight-Suit">
		<title>Flight Suit (Kute)</title>
		<g id="Soft-Parts">
			<g id="Boots">
				<g transform="matrix(1.32813,0,0,1.71875,272.497,40.8176)">
					<g transform="matrix(-1.31718,0,0,1.08136,1689.97,-124.051)">
						<path d="M726.29,1716.4L726.29,1733.18C726.29,1733.18 686.583,1760.92 668.24,1763.71C650.512,1766.41 626.465,1754.43 616.231,1749.95C611.31,1747.8 606.835,1736.87 606.835,1736.87L606.835,1716.07C606.835,1716.07 612.824,1727.35 618.244,1729.82C628.534,1734.52 668.576,1744.25 668.576,1744.25L726.29,1716.4Z" style="stroke-width:2.22px;"/>
					</g>
					<g transform="matrix(-1.31718,0,0,1.08136,1689.97,-122.969)">
						<path d="M649.785,1676.13C649.785,1676.13 619.698,1696.21 612.54,1702.64C609.227,1705.62 605.942,1710.36 606.835,1714.72C607.786,1719.37 612.409,1727.66 618.244,1730.49C628.366,1735.41 650.646,1746.48 667.569,1744.25C685.409,1741.9 725.283,1716.4 725.283,1716.4L756.196,1678.15L756.196,1701.97L795.412,1680.5C795.412,1680.5 797.784,1660.65 795.748,1652.65C793.795,1644.97 783.196,1632.47 783.196,1632.47L717.376,1626.14L649.785,1676.13Z" style="stroke-width:2.22px;"/>
					</g>
					<g transform="matrix(-1.31718,0,0,1.08136,1689.97,-122.969)">
						<path d="M736.692,1701.97L756.196,1701.97L756.196,1677.81L736.692,1701.97Z" style="stroke-width:2.22px;"/>
					</g>
				</g>
				<g transform="matrix(-1.32813,0,0,1.71875,1508.81,40.8176)">
					<g transform="matrix(-1.31718,0,0,1.08136,1689.97,-124.051)">
						<path d="M726.29,1716.4L726.29,1733.18C726.29,1733.18 686.583,1760.92 668.24,1763.71C650.512,1766.41 626.465,1754.43 616.231,1749.95C611.31,1747.8 606.835,1736.87 606.835,1736.87L606.835,1716.07C606.835,1716.07 612.824,1727.35 618.244,1729.82C628.534,1734.52 668.576,1744.25 668.576,1744.25L726.29,1716.4Z" style="stroke-width:2.22px;"/>
					</g>
					<g transform="matrix(-1.31718,0,0,1.08136,1689.97,-122.969)">
						<path d="M649.785,1676.13C649.785,1676.13 619.698,1696.21 612.54,1702.64C609.227,1705.62 605.942,1710.36 606.835,1714.72C607.786,1719.37 612.409,1727.66 618.244,1730.49C628.366,1735.41 650.646,1746.48 667.569,1744.25C685.409,1741.9 725.283,1716.4 725.283,1716.4L756.196,1678.15L756.196,1701.97L795.412,1680.5C795.412,1680.5 797.784,1660.65 795.748,1652.65C793.795,1644.97 783.196,1632.47 783.196,1632.47L717.376,1626.14L649.785,1676.13Z" style="stroke-width:2.22px;"/>
					</g>
					<g transform="matrix(-1.31718,0,0,1.08136,1689.97,-122.969)">
						<path d="M736.692,1701.97L756.196,1701.97L756.196,1677.81L736.692,1701.97Z" style="stroke-width:2.22px;"/>
					</g>
				</g>
			</g>
			<g id="Suit">
				<path d="M411.951,1211L465.066,1018.01L589.112,934.514L608.469,1103.85C608.469,1103.85 554.876,1206.02 536.405,1252.82C517.381,1301.02 484.443,1411.17 480.223,1425.35L450.788,1681.1L365.499,1653.77L360.152,1402.49L411.951,1211Z" style="stroke-width:4px;"/>
				<g transform="matrix(-1,0,0,1,1781.26,0)">
					<path d="M411.951,1211L465.235,1017.4L588.371,934.514L607.977,1104.87C607.977,1104.87 554.876,1206.02 536.405,1252.82C517.381,1301.02 484.443,1411.17 480.223,1425.35L450.788,1681.1L365.499,1653.77L360.152,1402.49L411.951,1211Z" style="stroke-width:4px;"/>
				</g>
				<g transform="matrix(1.55624,0,0,1.95769,166.266,-1.56125)">
					<g transform="matrix(1.29579,0,0,0.929431,-738.62,-84.9653)">
						<path d="M984.737,430.319C984.737,425.068 981.013,420.806 976.426,420.806C976.426,420.806 945.078,425.806 929.404,425.806C913.73,425.806 882.382,420.806 882.382,420.806C877.795,420.806 874.071,425.068 874.071,430.319C874.071,435.569 877.795,439.832 882.382,439.832C882.382,439.832 913.73,444.832 929.404,444.832C945.078,444.832 976.426,439.832 976.426,439.832C981.013,439.832 984.737,435.569 984.737,430.319Z" style="stroke-width:2.08px;"/>
					</g>
					<g transform="matrix(1.36143,0,0,0.976507,-799.619,-94.8875)">
						<path d="M984.737,430.319C984.737,425.068 981.013,420.806 976.426,420.806C976.426,420.806 945.078,425.806 929.404,425.806C913.73,425.806 882.382,420.806 882.382,420.806C877.795,420.806 874.071,425.068 874.071,430.319C874.071,435.569 877.795,439.832 882.382,439.832C882.382,439.832 913.73,444.832 929.404,444.832C945.078,444.832 976.426,439.832 976.426,439.832C981.013,439.832 984.737,435.569 984.737,430.319Z" style="stroke-width:1.98px;"/>
					</g>
					<g transform="matrix(1.43578,0,0,1.02984,-868.719,-104.993)">
						<path d="M984.737,430.319C984.737,425.068 981.013,420.806 976.426,420.806C976.426,420.806 945.078,425.806 929.404,425.806C913.73,425.806 882.382,420.806 882.382,420.806C877.795,420.806 874.071,425.068 874.071,430.319C874.071,435.569 877.795,439.832 882.382,439.832C882.382,439.832 913.73,444.832 929.404,444.832C945.078,444.832 976.426,439.832 976.426,439.832C981.013,439.832 984.737,435.569 984.737,430.319Z" style="stroke-width:1.88px;"/>
					</g>
					<g transform="matrix(1.50761,0,0,1.08136,-935.486,-115.4)">
						<path d="M984.737,430.319C984.737,425.068 981.013,420.806 976.426,420.806C976.426,420.806 945.078,425.806 929.404,425.806C913.73,425.806 882.382,420.806 882.382,420.806C877.795,420.806 874.071,425.068 874.071,430.319C874.071,435.569 877.795,439.832 882.382,439.832C882.382,439.832 913.73,444.832 929.404,444.832C945.078,444.832 976.426,439.832 976.426,439.832C981.013,439.832 984.737,435.569 984.737,430.319Z" style="stroke-width:1.79px;"/>
					</g>
					<g transform="matrix(1.57903,0,0,0.816557,-1001.86,10.0899)">
						<path d="M984.737,430.319C984.737,425.068 981.013,420.806 976.426,420.806C976.426,420.806 945.078,425.806 929.404,425.806C913.73,425.806 882.382,420.806 882.382,420.806C877.795,420.806 874.071,425.068 874.071,430.319C874.071,435.569 877.795,439.832 882.382,439.832C882.382,439.832 913.73,444.832 929.404,444.832C945.078,444.832 976.426,439.832 976.426,439.832C981.013,439.832 984.737,435.569 984.737,430.319Z" style="stroke-width:1.93px;"/>
					</g>
					<g transform="matrix(1.57903,0,0,0.816557,-1001.86,23.0506)">
						<path d="M984.737,430.319C984.737,425.068 981.013,420.806 976.426,420.806C976.426,420.806 945.078,425.806 929.404,425.806C913.73,425.806 882.382,420.806 882.382,420.806C877.795,420.806 874.071,425.068 874.071,430.319C874.071,435.569 877.795,439.832 882.382,439.832C882.382,439.832 913.73,449.461 929.404,449.461C945.078,449.461 976.426,439.832 976.426,439.832C981.013,439.832 984.737,435.569 984.737,430.319Z" style="stroke-width:1.93px;"/>
					</g>
				</g>
				<g transform="matrix(1,0,0,1,-384,-56)">
					<path d="M1274.5,1813.92C1264.02,1814.92 1254.56,1819.11 1251.09,1826.45C1220.49,1891.17 1157.49,2187.1 1139.29,2241.63C1129.38,2271.29 1121.57,2433.63 1104.79,2528.31C1084.76,2641.3 1019.12,2919.56 1019.12,2919.56L905.303,2907.8C905.303,2907.8 890.635,2628.36 894.687,2526.65C897.767,2449.36 929.614,2297.55 929.614,2297.55C929.614,2297.55 936.45,2242.11 936.611,2214.22C937.195,2113.43 931.118,1889.18 950.976,1760.44C966.682,1658.62 1077.63,1444.91 1077.63,1444.91C1077.63,1444.91 1201.92,1493.81 1275,1493.81C1348.08,1493.81 1473.41,1443.86 1473.41,1443.86C1473.41,1443.86 1579.04,1658.62 1594.74,1760.44C1614.6,1889.18 1612.81,2113.43 1613.39,2214.22C1613.55,2242.11 1620.39,2297.55 1620.39,2297.55C1620.39,2297.55 1652.23,2449.36 1655.31,2526.65C1659.37,2628.36 1644.7,2907.8 1644.7,2907.8L1530.88,2919.56C1530.88,2919.56 1465.24,2641.3 1445.21,2528.31C1428.43,2433.63 1420.62,2271.29 1410.71,2241.63C1392.51,2187.1 1329.52,1891.17 1298.91,1826.45C1295.38,1818.99 1285.67,1814.79 1275,1813.88L1274.5,1813.92Z" style="stroke-width:4px;"/>
				</g>
			</g>
			<g id="Vest" transform="matrix(0.913063,0,0,0.953721,-273.155,13.4654)">
				<path d="M1348.45,1501.02L1201.55,1501.02L1058.1,1444.02C1058.1,1444.02 975.113,1193.58 960.239,1120.47C948.428,1062.42 944.368,965.743 944.368,965.743L802.085,1057.43L771.762,1045.04C771.762,1045.04 856.899,864.965 912.879,812.796C963.551,765.573 1107.64,732.024 1107.64,732.024L1200.07,789.535L1284.86,795.605L1350.05,790.234L1442.36,732.024C1442.36,732.024 1586.45,765.573 1637.12,812.796C1693.1,864.965 1778.24,1045.04 1778.24,1045.04L1747.91,1057.43L1605.63,965.743C1605.63,965.743 1601.57,1062.42 1589.76,1120.47C1574.89,1193.58 1491.9,1444.02 1491.9,1444.02L1348.45,1501.02Z" style="stroke-width:4.28px;"/>
			</g>
			<g id="Sleeves_Toggle">
				<g id="Sleeves">
					<path d="M450.98,1018.45L459.199,1021.96L589.112,934.514C589.112,934.514 592.819,1026.72 603.604,1082.08C605.099,1089.76 607.348,1099.49 610.169,1110.73L592.915,1166.71C592.915,1166.71 534.194,1143.63 508.463,1128.48C483.467,1113.76 438.527,1075.79 438.527,1075.79L450.98,1018.45Z" style="stroke-width:4px;"/>
					<path d="M1171.83,1110.73C1174.65,1099.49 1176.9,1089.76 1178.4,1082.08C1189.18,1026.72 1192.89,934.514 1192.89,934.514L1322.8,1021.96L1331.02,1018.45L1343.47,1075.79C1343.47,1075.79 1298.53,1113.76 1273.54,1128.48C1247.81,1143.63 1189.09,1166.71 1189.09,1166.71L1171.83,1110.73Z" style="stroke-width:4px;"/>
				</g>
			</g>
		</g>
		<g id="Gloves">
			<g id="Left_Glove" transform="matrix(-1.74772,-0.0761664,-0.0809216,1.85683,2533.34,-136.574)">
				<path d="M641.796,1004.6L650.874,1023.8L654.958,1041.28L654.958,1051.25L659.343,1084.46L657.442,1101.88L650.694,1103.51L639.456,1084.01L632.839,1055.01L622.339,1055.51L622.339,1089.01L644.523,1115.01L644.523,1121.51L641.243,1124.71L630.126,1127.71L614.126,1112.71L598.243,1089.71L580.626,1060.36L577.805,1050.37L575.339,1039.01L596.456,979.514L613.339,982.014L639.456,990.014L641.796,1004.6Z" style="stroke-width:2.22px;"/>
			</g>
			<g id="Right_Glove" transform="matrix(1.74772,-0.0761664,0.0809216,1.85683,-751.339,-136.574)">
				<path d="M641.796,1004.6L650.874,1023.8L654.958,1041.28L654.958,1051.25L659.343,1084.46L657.442,1101.88L650.694,1103.51L639.456,1084.01L632.839,1055.01L622.339,1055.51L622.339,1089.01L644.523,1115.01L644.523,1121.51L641.243,1124.71L630.126,1127.71L614.126,1112.71L598.243,1089.71L580.626,1060.36L577.805,1050.37L575.339,1039.01L596.456,979.514L613.339,982.014L639.456,990.014L641.796,1004.6Z" style="stroke-width:2.22px;"/>
			</g>
		</g>
	</g>
	<g id="Lower-body_wrapper" transform="translate(291,1343)">
		<title>Lower Body</title>
		<g id="Ankles_Current"></g>
		<g id="Shins_Current"></g>
		<g id="Knees_Current"></g>
		<g id="Thighs_Current"></g>
		<g id="Groin_Current"></g>
	</g>
	<g id="Upper-body_wrapper" transform="translate(190,557)">
		<title>Upper Body</title>
		<g id="Shoulders_Current"></g>
		<g id="Biceps_Current"></g>
		<g id="Chest_Current"></g>
		<g id="Elbows_Current"></g>
		<g id="Gauntlets_Current"></g>
	</g>
	<g id="Helmet-wrapper" transform="translate(540,35)">
		<title>Helmet (Buy'ce)</title>
		<g id="Helmet_Current"></g>
	</g>
</svg>
