<?xml version="1.0" encoding="UTF-8" standalone="no"?>
<!DOCTYPE svg PUBLIC "-//W3C//DTD SVG 1.1//EN" "http://www.w3.org/Graphics/SVG/1.1/DTD/svg11.dtd">
<svg id="Female-Body" width="100%" height="100%" viewBox="0 0 1800 3200" version="1.1" xmlns="http://www.w3.org/2000/svg" style="stroke:black;fill:white;stroke-width:2px;">
	<style>
		.option {
			visibility: hidden;
		}
	</style>
	<g id="Back">
		<g id="Cape" transform="matrix(1,0,0,1,-345.148,0)">
			<g id="Full-Cape_Option" transform="matrix(4.16667,0,0,4.16667,-106.797,-2.27374e-13)" class="option">
				<path d="M282.382,188.133C252.498,199.416 219.224,253.787 215.107,295.138C212.51,321.231 199.786,347.741 200.978,373.719C202.186,400.062 188.897,427.382 187.92,453.706C187.04,477.422 180.043,488.257 175.981,511.709C169.904,546.803 163.185,569.926 157.733,605.049C153.4,632.967 140.299,656.04 134.145,664.751C133.582,665.547 172.258,664.613 180.066,663.35C205.284,659.269 224.613,658.09 249.639,664.229C276.827,670.898 303.539,674.986 331.343,668.837C358.129,662.913 383.311,648.755 410.783,646.225C432.127,644.259 452.952,651.144 473.474,655.924C478.676,657.136 485.884,660.234 491.268,659.892C491.404,659.884 489.545,647.386 489.273,646.04C486.62,632.918 480.568,620.393 473.47,609.161C455.416,580.592 461.642,549.247 458.342,515.481C455.143,482.746 458.488,449.941 452.986,417.265C448.119,388.362 431.018,361.468 426.736,332.303C421.711,298.087 410.04,261.437 399.709,228.191C387.039,187.419 312.266,176.85 282.382,188.133Z" style="stroke-width:0.96px;"/>
			</g>
			<g id="Shoulder-Cape_Option" transform="matrix(0.871254,0,0,1.0528,77.8679,13.0749)" class="option">
				<path d="M1552.7,783.806C1536.45,746.35 1522.52,708.924 1522.52,708.924C1528.19,698.577 1571.95,698.914 1584.23,699.549C1612.85,701.028 1653.09,711.751 1670.56,729.276C1680.53,739.27 1700.88,739.819 1707.64,751.967C1708.17,752.916 1714.34,763.088 1713.75,763.539C1713.67,763.599 1717.21,784.138 1721.36,808.087C1750.4,827.225 1776.49,852.445 1794.03,881.876C1838.26,956.076 1882.39,1039.73 1916.55,1119.39C1945.68,1187.3 1994.99,1253.64 2025.12,1320.56C2059.17,1396.22 2075.4,1449.28 2104.84,1526.43C2135.2,1606.03 2172.7,1677.06 2229.28,1735.43C2251.53,1758.38 2288.19,1777.74 2302.77,1807.86C2304.26,1810.95 2316.79,1840.04 2316.52,1840.14C2305.86,1844.13 2289.09,1840.88 2277.71,1841.02C2232.81,1841.54 2138.94,1798.1 2097.11,1815.4C2043.26,1837.66 2049.08,1925.72 1999,1955.77C1947.02,1986.97 1858.82,1909.99 1799.1,1909.88C1744.13,1909.77 1757.38,2030.24 1709.18,2054.92C1694.26,2062.56 1596.3,2064.12 1596.88,2061.87C1603.23,2037.21 1613.58,1973.8 1602.77,1903.84C1589.18,1815.83 1586.57,1756.05 1574.26,1667.74C1566.04,1608.72 1572.61,1578.45 1557.76,1520.67C1541.28,1456.53 1549.02,1382.75 1528.1,1319.86C1507.47,1257.83 1514.64,1186.34 1501.6,1121.81C1480.94,1019.54 1498.72,829.766 1551.31,784.951C1551.77,784.562 1552.23,784.181 1552.7,783.806Z" style="stroke-width:4.14px;"/>
			</g>
			<g id="No-Cape_Option"></g>
		</g>
	</g>
	<g id="Flight-Suit" transform="translate(250,528)">
		<title>Flight Suit</title>
		<g id="Soft-Parts_F">
			<g id="Boots_F">
				<g>
					<path class="st0" d="M995.8,2465.6v31.2c0,0,69.5,51.6,101.5,56.8c31,5,73.1-17.3,91-25.6c8.6-4,16.4-24.3,16.4-24.3V2465
						c0,0-10.5,21-20,25.6c-18,8.7-88.1,26.8-88.1,26.8L995.8,2465.6z"/>
					<path class="st0" d="M1129.6,2392.6c0,0,52.6,37.3,65.2,49.3c5.8,5.5,11.5,14.3,10,22.5c-1.7,8.6-9.8,24-20,29.3
						c-17.7,9.2-56.7,29.7-86.3,25.6c-31.2-4.4-101-51.8-101-51.8l-54.1-71.1v44.3l-68.6-39.9c0,0-4.1-36.9-0.6-51.8
						c3.4-14.3,22-37.5,22-37.5l115.1-11.8L1129.6,2392.6z"/>
					<path class="st0" d="M977.6,2440.7h-34.1v-44.9L977.6,2440.7z"/>
				</g>
				<g>
					<path class="st0" d="M284.2,2465.6v31.2c0,0-69.5,51.6-101.6,56.8c-31,5-73.1-17.3-91-25.6c-8.6-4-16.4-24.3-16.4-24.3V2465
						c0,0,10.5,21,20,25.6c18,8.7,88.1,26.8,88.1,26.8L284.2,2465.6z"/>
					<path class="st0" d="M150.4,2392.6c0,0-52.6,37.3-65.2,49.3c-5.8,5.5-11.5,14.3-10,22.5c1.7,8.6,9.8,24,20,29.3
						c17.7,9.2,56.7,29.7,86.3,25.6c31.2-4.4,101-51.8,101-51.8l54.1-71.1v44.3l68.6-39.9c0,0,4.1-36.9,0.6-51.8
						c-3.4-14.3-22-37.5-22-37.5l-115.1-11.8L150.4,2392.6z"/>
					<path class="st0" d="M302.4,2440.7h34.1v-44.9L302.4,2440.7z"/>
				</g>
			</g>
			<g id="Gloves_F">
				<path id="Glove-Left" class="st0" d="M1079.7,1127.8l-17.4,35l-8.6,32.1l-0.8,18.5l-10.4,61.3l1.9,32.5
					l11.7,3.6l21.2-35.4l13.9-53.3l18.3,1.7l-2.7,62.2l-40.9,46.6l-0.5,12.1l5.5,6.2l19.2,6.4l29.2-26.6l29.6-41.5l33.2-53.1l5.7-18.4
					l5.2-20.9l-32.1-112.1l-29.7,3.4l-46.3,12.9L1079.7,1127.8z"/>
				<path id="Glove-Right" class="st0" d="M201,1127.8l17.4,35l8.6,32.1l0.8,18.5l10.4,61.3l-1.9,32.5
					l-11.7,3.6l-21.2-35.4l-13.9-53.3l-18.3,1.7l2.7,62.2l40.9,46.6l0.5,12.1l-5.5,6.2l-19.2,6.4l-29.2-26.6l-29.6-41.5l-33.2-53.1
					l-5.7-18.4l-5.2-20.9l32.1-112.1l29.7,3.4l46.3,12.9L201,1127.8z"/>
			</g>
			<g id="Suit_F">
				<path class="st0" d="M161.3,658.9l53.1-193l124-83.5l19.4,169.3c0,0-53.6,102.2-72.1,149c-19,48.2-52,158.4-56.2,172.5L200.1,1129
					l-85.3-27.3l-5.3-251.3L161.3,658.9z"/>
				<path class="st0" d="M1118.7,658.9l-53.3-193.6l-123.1-82.9l-19.6,170.4c0,0,53.1,101.1,71.6,147.9c19,48.2,52,158.4,56.2,172.5
					l29.4,255.8l85.3-27.3l5.3-251.3L1118.7,658.9z"/>
				<path id="Pants" class="st0" d="M639.8,1205.9c-10.5,1-19.9,5.2-23.4,12.5c-30.6,64.7-93.6,360.6-111.8,415.2
					c-9.9,29.7-17.7,192-34.5,286.7c-20,113-85.7,391.3-85.7,391.3l-113.8-11.8c0,0-14.7-279.4-10.6-381.1
					c3.1-77.3,34.9-229.1,34.9-229.1s6.8-55.4,7-83.3c0.6-100.8-5.5-325,14.4-453.8C332,1050.6,443,836.8,443,836.8
					s124.3,48.9,197.4,48.9s198.4-49.9,198.4-49.9s105.6,214.8,121.3,316.6c19.9,128.7,18.1,353,18.6,453.8c0.2,27.9,7,83.3,7,83.3
					s31.8,151.8,34.9,229.1c4,101.7-10.6,381.1-10.6,381.1l-113.8,11.8c0,0-65.6-278.3-85.7-391.3c-16.8-94.7-24.6-257-34.5-286.7
					c-18.2-54.5-81.2-350.5-111.8-415.2c-3.5-7.5-13.2-11.7-23.9-12.6L639.8,1205.9z"/>
				<g id="Neck-padding">
					<path class="st0" d="M751.9,78c0-9.6-7.5-17.3-16.8-17.3c0,0-63.2,9.1-94.8,9.1c-31.6,0-94.8-9.1-94.8-9.1
						c-9.3,0-16.8,7.8-16.8,17.3c0,9.6,7.5,17.3,16.8,17.3c0,0,63.2,9.1,94.8,9.1c31.6,0,94.8-9.1,94.8-9.1
						C744.4,95.3,751.9,87.6,751.9,78z"/>
					<path class="st0" d="M757.6,98.3c0-10-7.9-18.2-17.6-18.2c0,0-66.4,9.6-99.6,9.6c-33.2,0-99.6-9.6-99.6-9.6
						c-9.7,0-17.6,8.1-17.6,18.2s7.9,18.2,17.6,18.2c0,0,66.4,9.6,99.6,9.6c33.2,0,99.6-9.6,99.6-9.6
						C749.7,116.4,757.6,108.3,757.6,98.3z"/>
					<path class="st0" d="M764,123.4c0-10.6-8.3-19.2-18.6-19.2c0,0-70,10.1-105.1,10.1c-35,0-105.1-10.1-105.1-10.1
						c-10.3,0-18.6,8.6-18.6,19.2c0,10.6,8.3,19.2,18.6,19.2c0,0,70,10.1,105.1,10.1c35,0,105.1-10.1,105.1-10.1
						C755.7,142.6,764,134,764,123.4z"/>
					<path class="st0" d="M770.2,146.4c0-11.1-8.7-20.1-19.5-20.1c0,0-73.5,10.6-110.3,10.6S530,126.3,530,126.3
						c-10.8,0-19.5,9-19.5,20.1c0,11.1,8.7,20.1,19.5,20.1c0,0,73.5,10.6,110.3,10.6s110.3-10.6,110.3-10.6
						C761.4,166.6,770.2,157.5,770.2,146.4z"/>
					<path class="st0" d="M776.3,169c0-8.4-9.2-15.2-20.4-15.2c0,0-77,8-115.5,8s-115.5-8-115.5-8c-11.3,0-20.4,6.8-20.4,15.2
						s9.2,15.2,20.4,15.2c0,0,77,8,115.5,8s115.5-8,115.5-8C767.2,184.2,776.3,177.4,776.3,169z"/>
					<path class="st0" d="M776.3,194.4c0-8.4-9.2-15.2-20.4-15.2c0,0-77,8-115.5,8s-115.5-8-115.5-8c-11.3,0-20.4,6.8-20.4,15.2
						c0,8.4,9.2,15.2,20.4,15.2c0,0,77,15.4,115.5,15.4s115.5-15.4,115.5-15.4C767.2,209.6,776.3,202.8,776.3,194.4z"/>
				</g>
			</g>
			<g id="Sleeves_F_Toggle">
				<path class="st0" d="M200.3,466.4l8.2,3.5l129.9-87.4c0,0,3.7,92.2,14.5,147.6c1.5,7.7,3.7,17.4,6.6,28.6l-17.3,56
					c0,0-58.7-23.1-84.5-38.2c-25-14.7-69.9-52.7-69.9-52.7L200.3,466.4z"/>
				<path class="st0" d="M921.2,558.7c2.8-11.2,5.1-21,6.6-28.6c10.8-55.4,14.5-147.6,14.5-147.6l129.9,87.4l8.2-3.5l12.4,57.3
					c0,0-44.9,38-69.9,52.7c-25.7,15.2-84.4,38.2-84.4,38.2L921.2,558.7z"/>
			</g>
			<path id="Vest_F" class="st0" d="M707.4,893H573.3l-131-54.4c0,0-75.8-238.9-89.4-308.6c-10.8-55.4-14.5-147.6-14.5-147.6
				l-129.9,87.4l-27.7-11.8c0,0,77.7-171.7,128.8-221.5c46.3-45,177.8-77,177.8-77l84.4,54.9l77.4,5.8l59.5-5.1l84.3-55.5
				c0,0,131.6,32,177.8,77c51.1,49.8,128.9,221.5,128.9,221.5l-27.7,11.8l-129.9-87.4c0,0-3.7,92.2-14.5,147.6
				c-13.6,69.7-89.4,308.6-89.4,308.6L707.4,893z"/>
		</g>
	</g>
	<g id="Lower-Body_F_Wrapper" transform="translate(289,1285)">
		<title>Lower Body</title>
		<g id="Ankles_Current">
			<g id="LeftAnkle_Current"></g>
			<g id="RightAnkle_Current"></g>
		</g>
		<g id="Shins_Current">
			<g id="LeftShin_Current"></g>
			<g id="RightShin_Current"></g>
		</g>
		<g id="Knees_Current">
			<g id="LeftKnee_Current"></g>
			<g id="RightKnee_Current"></g>
		</g>
		<g id="Thighs_Current">
			<g id="LeftThigh_Current"></g>
			<g id="RightThigh_Current"></g>
		</g>
		<g id="Groin_Current"></g>
		<g id="Waist_Current"></g>
	</g>
	<g id="Upper-Body_F_Wrapper" transform="translate(190,557)">
		<title>Upper Body</title>
		<g id="Biceps_Current">
			<g id="LeftBiceps_Current"></g>
			<g id="RightBiceps_Current"></g>
		</g>
		<g id="Shoulders_Current">
			<g id="LeftShoulder_Current"></g>
			<g id="RightShoulder_Current"></g>
		</g>
		<g id="Chest_Current"></g>
		<g id="Elbows_Current">
			<g id="LeftElbow_Current"></g>
			<g id="LeftElbow_Current"></g>
		</g>
		<g id="Gauntlets_Current">
			<g id="LeftGauntlets_Current"></g>
			<g id="RightGauntlets_Current"></g>
		</g>
	</g>
	<g id="Helmet_F_Wrapper" transform="translate(540,35)">
		<title>Helmet (Buy'ce)</title>
		<g id="Helmet_Current"></g>
	</g>
</svg>
