<?xml version="1.0" encoding="UTF-8" standalone="no"?>
<!DOCTYPE svg PUBLIC "-//W3C//DTD SVG 1.1//EN" "http://www.w3.org/Graphics/SVG/1.1/DTD/svg11.dtd">
<svg id="Female-Body" width="100%" height="100%" viewBox="0 0 1800 3300" version="1.1" xmlns="http://www.w3.org/2000/svg" style="stroke:black;fill:white;stroke-width:2px;">
	<style>
		.option {
			visibility: hidden;
		}
	</style>
	<g id="Back">
		<g id="Cape" transform="matrix(1,0,0,1,-345.148,0)">
			<g id="Full-Cape_Option" transform="matrix(4.16667,0,0,4.16667,-106.797,-2.27374e-13)" class="option">
				<path d="M282.382,188.133C252.498,199.416 219.224,253.787 215.107,295.138C212.51,321.231 199.786,347.741 200.978,373.719C202.186,400.062 188.897,427.382 187.92,453.706C187.04,477.422 180.043,488.257 175.981,511.709C169.904,546.803 163.185,569.926 157.733,605.049C153.4,632.967 140.299,656.04 134.145,664.751C133.582,665.547 172.258,664.613 180.066,663.35C205.284,659.269 224.613,658.09 249.639,664.229C276.827,670.898 303.539,674.986 331.343,668.837C358.129,662.913 383.311,648.755 410.783,646.225C432.127,644.259 452.952,651.144 473.474,655.924C478.676,657.136 485.884,660.234 491.268,659.892C491.404,659.884 489.545,647.386 489.273,646.04C486.62,632.918 480.568,620.393 473.47,609.161C455.416,580.592 461.642,549.247 458.342,515.481C455.143,482.746 458.488,449.941 452.986,417.265C448.119,388.362 431.018,361.468 426.736,332.303C421.711,298.087 410.04,261.437 399.709,228.191C387.039,187.419 312.266,176.85 282.382,188.133Z" style="stroke-width:0.96px;"/>
			</g>
			<g id="Shoulder-Cape_Option" transform="matrix(0.871254,0,0,1.0528,77.8679,13.0749)" class="option">
				<path d="M1552.7,783.806C1536.45,746.35 1522.52,708.924 1522.52,708.924C1528.19,698.577 1571.95,698.914 1584.23,699.549C1612.85,701.028 1653.09,711.751 1670.56,729.276C1680.53,739.27 1700.88,739.819 1707.64,751.967C1708.17,752.916 1714.34,763.088 1713.75,763.539C1713.67,763.599 1717.21,784.138 1721.36,808.087C1750.4,827.225 1776.49,852.445 1794.03,881.876C1838.26,956.076 1882.39,1039.73 1916.55,1119.39C1945.68,1187.3 1994.99,1253.64 2025.12,1320.56C2059.17,1396.22 2075.4,1449.28 2104.84,1526.43C2135.2,1606.03 2172.7,1677.06 2229.28,1735.43C2251.53,1758.38 2288.19,1777.74 2302.77,1807.86C2304.26,1810.95 2316.79,1840.04 2316.52,1840.14C2305.86,1844.13 2289.09,1840.88 2277.71,1841.02C2232.81,1841.54 2138.94,1798.1 2097.11,1815.4C2043.26,1837.66 2049.08,1925.72 1999,1955.77C1947.02,1986.97 1858.82,1909.99 1799.1,1909.88C1744.13,1909.77 1757.38,2030.24 1709.18,2054.92C1694.26,2062.56 1596.3,2064.12 1596.88,2061.87C1603.23,2037.21 1613.58,1973.8 1602.77,1903.84C1589.18,1815.83 1586.57,1756.05 1574.26,1667.74C1566.04,1608.72 1572.61,1578.45 1557.76,1520.67C1541.28,1456.53 1549.02,1382.75 1528.1,1319.86C1507.47,1257.83 1514.64,1186.34 1501.6,1121.81C1480.94,1019.54 1498.72,829.766 1551.31,784.951C1551.77,784.562 1552.23,784.181 1552.7,783.806Z" style="stroke-width:4.14px;"/>
			</g>
			<g id="No-Cape_Option"></g>
		</g>
	</g>
	<g id="Flight-Suit" transform="translate(250,528)">
		<title>Flight Suit</title>
		<g id="Soft-Parts_F">
<g id="Suit_F">
	<g id="Neck-Seal_F">
		<path id="Plain-Neck-Seal_F_Option" class="st0" d="M742.8,62.3l50,98.1L765,207.5l-125,29l-125.8-29l-27-47.1l49.2-98.1
			l103.2,7.1L742.8,62.3"/>
		<g id="Standard-Neck-Seal_F_Option">
			<path class="st0" d="M751.5,77.6c0-9.6-7.5-17.3-16.8-17.3c0,0-63.5,9.1-95.2,9.1c-31.7,0-95.2-9.1-95.2-9.1
				c-9.3,0-16.8,7.8-16.8,17.3s7.5,17.3,16.8,17.3c0,0,63.5,9.1,95.2,9.1c31.7,0,95.2-9.1,95.2-9.1C744,94.9,751.5,87.1,751.5,77.6z
				"/>
			<path class="st0" d="M757.2,97.8c0-10-7.9-18.2-17.7-18.2c0,0-66.7,9.6-100,9.6c-33.3,0-100-9.6-100-9.6
				c-9.8,0-17.7,8.1-17.7,18.2s7.9,18.2,17.7,18.2c0,0,66.7,9.6,100,9.6c33.3,0,100-9.6,100-9.6C749.3,116,757.2,107.8,757.2,97.8z"
				/>
			<path class="st0" d="M763.6,122.9c0-10.6-8.4-19.2-18.6-19.2c0,0-70.3,10.1-105.5,10.1c-35.2,0-105.5-10.1-105.5-10.1
				c-10.3,0-18.6,8.6-18.6,19.2c0,10.6,8.4,19.2,18.6,19.2c0,0,70.3,10.1,105.5,10.1c35.2,0,105.5-10.1,105.5-10.1
				C755.3,142.1,763.6,133.5,763.6,122.9z"/>
			<path class="st0" d="M769.8,146c0-11.1-8.8-20.1-19.6-20.1c0,0-73.8,10.6-110.7,10.6s-110.7-10.6-110.7-10.6
				c-10.8,0-19.6,9-19.6,20.1s8.8,20.1,19.6,20.1c0,0,73.8,10.6,110.7,10.6s110.7-10.6,110.7-10.6
				C761.1,166.1,769.8,157.1,769.8,146z"/>
			<path class="st0" d="M776,168.6c0-8.4-9.2-15.2-20.5-15.2c0,0-77.3,8-116,8c-38.7,0-116-8-116-8c-11.3,0-20.5,6.8-20.5,15.2
				c0,8.4,9.2,15.2,20.5,15.2c0,0,77.3,8,116,8c38.7,0,116-8,116-8C766.8,183.8,776,177,776,168.6z"/>
			<path class="st0" d="M776,193.9c0-8.4-9.2-15.2-20.5-15.2c0,0-77.3,8-116,8c-38.7,0-116-8-116-8c-11.3,0-20.5,6.8-20.5,15.2
				c0,8.4,9.2,15.2,20.5,15.2c0,0,77.3,15.4,116,15.4c38.7,0,116-15.4,116-15.4C766.8,209.1,776,202.3,776,193.9z"/>
		</g>
	</g>
	<g id="Flight-Suit_F">
		<path class="st0" d="M161,659.8l53.1-193l124-83.5l19.4,169.3c0,0-53.6,102.2-72.1,149c-19,48.2-52,158.4-56.2,172.5l-29.4,255.8
			l-85.3-27.3c0,0-3.1-177.5,4.7-251.3C126.1,785.5,161,659.8,161,659.8z"/>
		<path class="st0" d="M1118.3,659.8l-53.3-193.6l-123.1-82.9l-19.6,170.4c0,0,53.1,101.1,71.6,147.9c19,48.2,52,158.4,56.2,172.5
			l29.4,255.8l85.3-27.3c0,0,3.1-177.5-4.7-251.3C1153.2,785.5,1118.3,659.8,1118.3,659.8z"/>
		<path id="Pants" class="st0" d="M639.5,1206.7c-10.5,1-19.9,5.2-23.4,12.5c-30.6,64.7-93.6,360.6-111.8,415.2
			c-9.9,29.7-17.7,192-34.5,286.7c-20,113-85.7,391.3-85.7,391.3l-113.8-11.8c0,0-14.7-279.4-10.6-381.2
			c3.1-77.3,34.9-229.1,34.9-229.1s6.8-55.4,7-83.3c0.6-100.8,9.5-325,29.4-453.8c15.7-101.8,111.7-315.5,111.7-315.5
			s124.3,48.9,197.4,48.9c73.1,0,198.4-49.9,198.4-49.9s90.6,214.8,106.3,316.6c19.9,128.7,33.1,353,33.6,453.8
			c0.2,27.9,7,83.3,7,83.3s31.9,151.8,34.9,229.1c4,101.7-10.6,381.2-10.6,381.2l-113.8,11.8c0,0-65.6-278.3-85.7-391.3
			c-16.8-94.7-24.6-257-34.5-286.7c-18.2-54.5-81.2-350.5-111.8-415.2c-3.5-7.5-13.2-11.7-23.9-12.6L639.5,1206.7z"/>
	</g>
</g>
<g id="Boots_F">
	<g id="Tall_Boots_F_Option">
		<g id="Bottom_Tall-Boot_F">
			<path class="st0" d="M408.8,2396c-0.2,1.4-0.5,2.8-0.9,4.3c-9,18.8-33.3,25.2-50,29.7c-11.8,3.2-23.2,7.6-34.4,13.1
				c-15.4,7.4-23.2,20.6-35.2,33.1c-5.4,5.6-11.7,9.9-17.9,14.1c-15.4,10.6-30.2,11.4-47.6,11.9c-23.4,0.8-44.1-2.9-67.1-8.8
				c-20.2-5.2-35.2-9.5-52.6-15.1c-5.2-1.7-11.6-2.9-14.7-7.3l-2.6,6.7l-1.9,17.5c0,0,18.9,11.6,39,16.7
				c20.1,5.1,60.6,12.3,60.6,12.3l2.8-7.6l9.1,2.2l-0.4,7.5l22.1,1.4l4.7-7.3l7.4,0.2l-1.1,6.5c0,0,13.7-0.3,21.2-5.4
				c1.4-2.5,4.2-6.5,4.2-6.5l5.2-3.3l-0.7,6.1l19-7.8l0.9-8.4l5.5-3.7l0.2,6.1l13.5-12l1.5-7.4l29.1-17.5l9.9,4.6l23.7-5.9l0.8-5.8
				l6-2.8l4.2,4.5l15.9-7.5l0.3-5.4l5.2-2.1l0.6,3.9l15.1-11.9L408.8,2396z M409.4,2389.1L409.4,2389.1L409.4,2389.1L409.4,2389.1z"
				/>
			<path class="st0" d="M871.2,2396c0.2,1.4,0.5,2.8,0.9,4.3c9,18.8,33.3,25.2,50,29.7c11.8,3.2,23.2,7.6,34.4,13.1
				c15.4,7.4,23.2,20.6,35.2,33.1c5.4,5.6,11.7,9.9,17.9,14.1c15.3,10.6,30.2,11.4,47.6,11.9c23.4,0.8,44.1-2.9,67.2-8.8
				c20.2-5.2,35.2-9.5,52.6-15.1c5.2-1.7,11.6-2.9,14.7-7.3l2.6,6.7l1.9,17.5c0,0-18.9,11.6-39,16.7c-20.1,5.1-60.6,12.3-60.6,12.3
				l-2.8-7.6l-9.1,2.2l0.4,7.5l-22.1,1.4l-4.7-7.3l-7.4,0.2l1.1,6.5c0,0-13.7-0.3-21.2-5.4c-1.4-2.5-4.2-6.5-4.2-6.5l-5.2-3.3
				l0.7,6.1l-19-7.8l-0.9-8.4l-5.5-3.7l-0.2,6.1l-13.5-12l-1.5-7.4l-29.1-17.5l-9.9,4.6l-23.7-5.9l-0.8-5.8l-6-2.8l-4.2,4.5
				l-15.9-7.5l-0.3-5.4l-5.2-2.1l-0.6,3.9l-15.1-11.9L871.2,2396z M870.6,2389.1L870.6,2389.1L870.6,2389.1L870.6,2389.1z"/>
		</g>
		<g id="Main_Tall-Boot_F">
			<path class="st0" d="M408.7,2253.6c13.5-45.1,23.6-117.1,31.6-150c6-24.6,33.7-158.6,29.2-175.4c-4.6-17.1-205.2-50.7-210.9-35.3
				c-8.7,23.5,3.6,254.7,2.1,288.8c-1.1,25,1.9,77.5,1.9,77.5c-2.3,13.7-4.3,28.3-9.2,40.6c-9.3,23.1-15.2,30.5-30.9,48
				c-10.8,12-31.3,32.2-44.1,41.3C173,2393,154,2407,154,2407c-23.6,10.1-49.8,6.6-62.7,36.5c-2.8,6.5-5.2,14.3-4.7,21.7
				c0.6,9.5,9.6,10.8,16.6,13.1c17.4,5.7,32.5,10,52.6,15.1c23,5.9,43.8,9.5,67.1,8.8c17.5-0.6,32.3-1.4,47.6-11.9
				c6.2-4.3,12.5-8.6,17.9-14.1c12-12.5,19.7-25.6,35.2-33.1c11.2-5.4,22.6-9.9,34.4-13.1c16.7-4.5,41-10.9,50-29.7
				c3.5-14.1-0.1-21.1-1.2-33.3l-0.5-5.2c-0.9-7.9-2.1-16.1-2.5-24.6c-0.7-16.4,2.9-32.6,3.8-49c0.5-9.3,0.9-18.6,1.1-27.9
				C408.6,2259.3,408.9,2255.8,408.7,2253.6z"/>
			<path class="st0" d="M871.4,2253.6c-13.5-45.1-23.6-117.1-31.6-150c-6-24.6-33.7-158.6-29.2-175.4
				c4.6-17.1,205.2-50.7,210.9-35.3c8.8,23.5-3.6,254.7-2.1,288.8c1.1,25-1.9,77.5-1.9,77.5c2.3,13.7,4.3,28.3,9.2,40.6
				c9.3,23.1,15.2,30.5,30.9,48c10.8,12,31.3,32.2,44.1,41.3c5.4,3.9,24.4,17.9,24.4,17.9c23.6,10.1,49.8,6.6,62.7,36.5
				c2.8,6.5,5.2,14.3,4.7,21.7c-0.6,9.5-9.6,10.8-16.6,13.1c-17.4,5.7-32.5,10-52.6,15.1c-23,5.9-43.8,9.5-67.2,8.8
				c-17.4-0.6-32.3-1.4-47.6-11.9c-6.2-4.3-12.5-8.6-17.9-14.1c-12-12.5-19.7-25.6-35.2-33.1c-11.2-5.4-22.6-9.9-34.4-13.1
				c-16.7-4.5-41-10.9-50-29.7c-3.5-14.1,0.1-21.1,1.2-33.3l0.5-5.2c0.9-7.9,2.1-16.1,2.5-24.6c0.7-16.4-2.9-32.6-3.8-49
				c-0.5-9.3-0.9-18.6-1.1-27.9C871.5,2259.3,871.1,2255.8,871.4,2253.6z"/>
		</g>
	</g>
	<g id="Gunslinger_Boots_F_Option">
		<g id="Main_Gunslinger-Boot_F">
			<path class="st0" d="M407.7,2377.6c-0.4,1.9-6.7,31.8-39.6,40.1c-11,2.8-29.7-3.1-41.5-9.1c-16.2-8.3-33.1-14.7-50.4-19.8
				l-0.5,0.7c-0.3,0.4-0.5,0.8-0.8,1.1c-5.4,7.6-11.3,14.7-17.5,21.1l-0.5,0.5l-0.3,0.3c-0.6,0.6-1.3,1.3-1.9,1.9
				c-3.7,3.6-7.5,6.9-11.4,10l-1.1,0.9l-0.9,0.7c-0.3,0.2-0.5,0.4-0.8,0.6c-0.6,0.4-1.2,0.9-1.8,1.3c-8.2,5.8-19.1,14.5-30,13
				c-10.3-1.5-21.8-5.6-30.4-9.7c-7.2-3.4-14.7-8.2-19.8-13c-1.5-1.1-2.7-2.5-3.6-4.1c-23.8,9.3-49.7,12.8-62.4,39.4
				c-2.7,5.7-5.1,12.6-4.5,19.1c0.7,8.3,9.8,9.3,16.9,11.2c17.6,4.7,32.7,8.3,53.1,12.5c23.2,4.8,44.1,7.7,67.6,6.8
				c17.5-0.7,32.4-1.7,47.7-11.1c6.2-3.8,12.5-7.6,17.8-12.6c11.9-11.1,19.5-22.7,34.9-29.4c11.1-4.9,22.6-8.9,34.4-11.9
				c16.7-4.2,34.7-7.1,43.5-23.7C410.3,2401.5,409.5,2389.7,407.7,2377.6L407.7,2377.6"/>
			<path class="st0" d="M872.4,2377.6c0.4,1.9,6.7,31.8,39.6,40.1c11,2.8,29.7-3.1,41.5-9.1c16.2-8.3,33.1-14.7,50.4-19.8l0.5,0.7
				c0.3,0.4,0.5,0.8,0.8,1.1c5.4,7.6,11.3,14.7,17.5,21.1l0.5,0.5l0.3,0.3c0.6,0.6,1.3,1.3,1.9,1.9c3.7,3.6,7.5,6.9,11.4,10l1.1,0.9
				l0.9,0.7c0.3,0.2,0.5,0.4,0.8,0.6c0.6,0.4,1.2,0.9,1.8,1.3c8.2,5.8,19.1,14.5,30,13c10.3-1.5,21.8-5.6,30.4-9.7
				c7.2-3.4,14.7-8.2,19.8-13c1.5-1.1,2.7-2.5,3.6-4.1c23.8,9.3,49.7,12.8,62.4,39.4c2.7,5.7,5.1,12.6,4.5,19.1
				c-0.7,8.3-9.8,9.3-16.8,11.2c-17.6,4.7-32.8,8.3-53.1,12.5c-23.2,4.8-44.1,7.7-67.6,6.8c-17.5-0.7-32.4-1.7-47.7-11.1
				c-6.2-3.8-12.5-7.6-17.8-12.6c-11.9-11.1-19.5-22.7-34.9-29.4c-11.1-4.9-22.6-8.9-34.4-11.9c-16.7-4.2-34.7-7.1-43.5-23.7
				C869.8,2401.5,870.6,2389.7,872.4,2377.6L872.4,2377.6"/>
		</g>
		<g id="Bottom_Gunslinger-Boot_F">
			<path class="st0" d="M408.3,2400.3c-0.8,4.6-2.2,9.1-4.7,13.9c-8.8,16.6-26.8,19.5-43.5,23.7c-11.8,3-23.2,7-34.4,11.9
				c-15.4,6.7-23,18.3-34.9,29.4c-5.3,5-11.6,8.8-17.8,12.6c-15.3,9.4-30.2,10.4-47.7,11.1c-23.5,1-44.4-1.9-67.6-6.8
				c-20.3-4.2-35.5-7.8-53.1-12.5c-5.6-1.5-12.6-2.5-15.5-7.1l0,0l-3.3,7.4l-1.9,15.3c0,0,18.8,10.2,38.9,14.6
				c20.1,4.5,60.5,10.8,60.5,10.8l2.8-6.7l9.1,1.9l-0.4,6.6l22,1.2l4.7-6.4l7.4,0.1l-1.1,5.7c0,0,13.6-0.2,21.2-4.7
				c1.4-2.1,4.2-5.7,4.2-5.7l5.2-2.9l-0.7,5.4l18.9-6.8l0.9-7.4l5.5-3.2l0.2,5.3l13.5-10.5l1.5-6.4l33.7-23.8l5.3,12.4l23.7-5.2
				l0.8-5.1l6-2.5l4.2,3.9l15.9-6.6l0.3-4.8l5.2-1.8l0.6,3.4l15.1-10.4l2.9-20.8l0.7-22.6L408.3,2400.3L408.3,2400.3"/>
			<path class="st0" d="M871.8,2400.3c0.8,4.6,2.2,9.1,4.7,13.9c8.8,16.6,26.8,19.5,43.5,23.7c11.8,3,23.2,7,34.4,11.9
				c15.4,6.7,23,18.3,34.9,29.4c5.3,5,11.6,8.8,17.8,12.6c15.3,9.4,30.2,10.4,47.7,11.1c23.5,1,44.4-1.9,67.6-6.8
				c20.3-4.2,35.5-7.8,53.1-12.5c5.7-1.5,12.6-2.5,15.5-7.1l0,0l3.3,7.4l1.9,15.3c0,0-18.8,10.2-38.9,14.6
				c-20.1,4.5-60.5,10.8-60.5,10.8l-2.8-6.7l-9.1,1.9l0.4,6.6l-22,1.2l-4.7-6.4l-7.4,0.1l1.1,5.7c0,0-13.7-0.2-21.2-4.7
				c-1.4-2.1-4.2-5.7-4.2-5.7l-5.2-2.9l0.7,5.4l-19-6.8l-0.9-7.4l-5.5-3.2l-0.2,5.3l-13.5-10.5l-1.5-6.4l-33.7-23.8l-5.3,12.4
				l-23.7-5.2l-0.8-5.1l-6-2.5l-4.2,3.9l-15.9-6.6l-0.3-4.8l-5.2-1.8l-0.6,3.4l-15.1-10.4l-2.9-20.8l-0.7-22.6L871.8,2400.3
				L871.8,2400.3"/>
		</g>
		<g id="Top_Gunslinger-Boot_F">
			<path class="st0" d="M276.4,2388.4c20.2-29,33.8-64.6,38.6-95.9l0,0l-5.6-0.5l-0.2,0l-0.7-0.1l-1.9-0.2l-2.8-0.3l-1.2-0.2
				c-3.3-0.4-6.5-0.9-9.7-1.3l-5-0.9l-1.1-0.2l-0.4-0.1l-0.8-0.2l-3.5-0.8l-3.1-0.8l-0.5-0.1c-10.7-2.7-9.3-5-9.3-5
				c-2.9,13.8-9.4,28.6-15.2,41.5c-9.1,20.3-27.8,37.9-43.4,53.4c-10.7,10.6-26.2,20.8-39,28.9c-5.4,3.5-11.2,6.1-17.1,8.4
				c4.5,6.3,14.2,12.8,23.4,17.2c8.6,4.1,20.1,8.2,30.4,9.7c10.9,1.6,21.8-7.2,30-13c14.2-10,26.8-23.6,37.6-39.1L276.4,2388.4"/>
			<path class="st0" d="M1003.7,2388.4c-20.2-29-33.8-64.6-38.6-95.9l0,0l5.6-0.5l0.2,0l0.7-0.1l1.9-0.2l2.8-0.3l1.2-0.2
				c3.3-0.4,6.5-0.9,9.7-1.3l5-0.9l1.1-0.2l0.4-0.1l0.8-0.2l3.5-0.8l3.1-0.8l0.5-0.1c10.7-2.7,9.3-5,9.3-5
				c2.9,13.8,9.4,28.6,15.2,41.5c9.1,20.3,27.8,37.9,43.4,53.4c10.7,10.6,26.2,20.8,39,28.9c5.4,3.5,11.2,6.1,17.1,8.4
				c-4.5,6.3-14.2,12.8-23.4,17.2c-8.6,4.1-20.1,8.2-30.4,9.7c-10.9,1.6-21.8-7.2-30-13c-14.2-10-26.8-23.6-37.6-39.1L1003.7,2388.4
				"/>
		</g>
		<g id="Side_Gunslinger-Boot_F">
			<path class="st0" d="M276.1,2388.8c17.3,5.1,34.3,11.5,50.4,19.8c11.8,6,30.6,11.8,41.5,9.1c33.9-8.5,39.6-40.1,39.6-40.1
				c-1-6.9-8.6-33.3-10.8-40.5c-4.9-15.8-4.4-56-5.6-55.3c-27.2,14.5-62.4,11.9-76.3,10.8l0,0C310.1,2324,296.4,2359.7,276.1,2388.8
				"/>
			<path class="st0" d="M1004,2388.8c-17.3,5.1-34.3,11.5-50.4,19.8c-11.8,6-30.6,11.8-41.5,9.1c-33.9-8.5-39.6-40.1-39.6-40.1
				c1-6.9,8.6-33.3,10.8-40.5c4.9-15.8,4.4-56,5.6-55.3c27.2,14.5,62.4,11.9,76.3,10.8l0,0C970,2324,983.7,2359.7,1004,2388.8"/>
		</g>
	</g>
	<g id="Basic_Boots_F_Option">
		<g id="Main_Basic-Boot_F">
			<path class="st0" d="M391.9,2279.1c-1.9-0.7-23.6,13.1-36,15.2c-13.2,2.2-27.6,2-41.6,0.6l-5.7-0.6l-0.2,0l-0.7-0.1l-1.9-0.3
				l-2.9-0.4l-1.2-0.2c-3.3-0.4-6.5-1-9.7-1.5l-5-1l-1.1-0.3l-0.4-0.1l-0.8-0.2l-3.5-0.9l-3.1-0.9l-0.5-0.1c-10.7-2.9-8.7-8-8.7-8
				c0,14.9-15.5,61.4-53.8,99.4c-11.7,11.6-40,25.2-64.6,36c-22.5,9.9-49.7,12.3-62.8,38.8c-2.8,5.8-5.3,12.7-4.8,19.3
				c0.6,8.4,9.7,9.6,16.8,11.6c17.6,5,32.8,8.8,53.2,13.4c23.3,5.2,44.3,8.4,67.9,7.8c17.7-0.5,32.6-1.2,48.1-10.6
				c6.2-3.8,12.7-7.6,18.1-12.5c12.1-11.1,20-22.7,35.6-29.3c11.3-4.8,22.9-8.7,34.8-11.6c16.9-4,41.5-9.7,50.5-26.4
				c3.5-12.5-11.7-39.3-12.8-57.4C394.6,2344.5,393.2,2279.6,391.9,2279.1z"/>
			<path class="st0" d="M888.1,2279.1c1.9-0.7,23.6,13.1,36,15.2c13.2,2.2,27.6,2,41.6,0.6l5.7-0.6l0.2,0l0.7-0.1l1.9-0.3l2.9-0.4
				l1.2-0.2c3.3-0.4,6.5-1,9.7-1.5l5-1l1.1-0.3l0.4-0.1l0.8-0.2l3.5-0.9l3.1-0.9l0.5-0.1c10.7-2.9,8.7-8,8.7-8
				c0,14.9,15.5,61.4,53.8,99.4c11.7,11.6,40,25.2,64.6,36c22.5,9.9,49.7,12.3,62.8,38.8c2.8,5.8,5.3,12.7,4.8,19.3
				c-0.6,8.4-9.7,9.6-16.8,11.6c-17.6,5-32.8,8.8-53.2,13.4c-23.3,5.2-44.3,8.4-67.9,7.8c-17.6-0.5-32.6-1.2-48.1-10.6
				c-6.3-3.8-12.7-7.6-18.1-12.5c-12.1-11.1-20-22.7-35.6-29.3c-11.3-4.8-22.9-8.7-34.8-11.6c-16.9-4-41.5-9.7-50.6-26.4
				c-3.5-12.5,11.7-39.3,12.8-57.4C885.4,2344.5,886.8,2279.6,888.1,2279.1z"/>
		</g>
		<g id="Bottom_Basic-Boot_F">
			<path class="st0" d="M408.4,2416.4c-4.5,8.3-12.9,13.9-22.3,17.9c-8.5,4.3-18.6,6.1-28.3,8.4c-1.3,0.3-2.6,0.6-3.9,1
				c-1.9,0.5-3.8,1-5.8,1.6c-0.6,0.2-1.2,0.3-1.7,0.5l-1,0.3c-0.6,0.2-1.2,0.4-1.9,0.6c-0.3,0.1-0.5,0.2-0.8,0.3
				c-1,0.3-2.1,0.7-3.1,1c-0.4,0.1-0.7,0.3-1.1,0.4l-0.5,0.2c-1.6,0.5-3.2,1.1-4.8,1.7c-0.3,0.1-0.7,0.3-1,0.4
				c-1.4,0.6-2.9,1.1-4.3,1.7l-1.1,0.4c-0.9,0.3-1.7,0.7-2.6,1.1c-0.4,0.2-0.7,0.3-1.1,0.5c-2.6,1.1-4.9,2.3-7.1,3.6l-0.3,0.2
				c-0.2,0.1-0.3,0.2-0.5,0.3c-0.7,0.4-1.3,0.9-2,1.3l-0.4,0.3c-0.1,0.1-0.3,0.2-0.4,0.3c-0.7,0.5-1.3,1-1.9,1.4l-0.5,0.4l-0.9,0.7
				c-2.7,2.2-5.2,4.5-7.7,7l-0.7,0.7c-1.3,1.4-2.7,2.7-4,4.1c-1.4,1.4-2.8,2.9-4.3,4.4c-1.5,1.5-3,2.9-4.6,4.4l-0.5,0.5
				c-0.5,0.4-1,0.9-1.5,1.3c-0.1,0.1-0.2,0.1-0.3,0.2c-0.8,0.7-1.6,1.3-2.4,1.9c-0.5,0.4-1.1,0.8-1.7,1.2l-0.3,0.2
				c-0.7,0.5-1.4,1-2.1,1.4c-0.3,0.2-0.6,0.4-0.9,0.6c-1,0.7-2.1,1.3-3.2,2c-0.7,0.4-1.5,0.9-2.2,1.3l-0.9,0.6l-2.3,1.4l-1.1,0.7
				l-0.7,0.4l-0.7,0.4c-1.1,0.6-2.1,1.1-3.2,1.7c-0.5,0.2-1,0.5-1.5,0.7l-0.5,0.2c-3.2,1.4-6.5,2.5-9.7,3.3l-0.6,0.1l-0.7,0.2
				c-0.2,0-0.5,0.1-0.7,0.2c-0.7,0.2-1.3,0.3-2,0.4c-0.5,0.1-1,0.2-1.6,0.3l-1.2,0.2l-0.4,0.1c-0.3,0.1-0.7,0.1-1,0.2
				c-0.6,0.1-1.2,0.2-1.7,0.2c-0.8,0.1-1.6,0.2-2.5,0.3c-0.2,0-0.4,0-0.7,0.1c-2.1,0.2-4.1,0.4-6.3,0.5c-1.2,0.1-2.3,0.1-3.5,0.2
				l-1,0c-2.2,0.1-4.5,0.2-6.7,0.2c-1.5,0.1-2.9,0.1-4.4,0.1c-0.5,0-1.1,0-1.6,0c-0.8,0-1.5,0-2.2,0c-0.5,0-1.1,0-1.6,0l-0.5,0
				c-2.7-0.1-5.3-0.2-8-0.3c-0.4,0-0.7,0-1.1-0.1l-1.1-0.1c-0.3,0-0.7,0-1-0.1c-3.9-0.3-7.7-0.6-11.6-1.1l-1-0.1
				c-1-0.1-1.9-0.2-2.9-0.4c-0.4-0.1-0.8-0.1-1.3-0.2l-1-0.1c-0.8-0.1-1.6-0.2-2.4-0.4c-3.3-0.5-6.7-1.1-10.1-1.7
				c-0.8-0.1-1.5-0.3-2.3-0.4l-1-0.2c-0.4-0.1-0.7-0.1-1.1-0.2l-1.1-0.2c-0.4-0.1-0.7-0.1-1.1-0.2l-0.7-0.2
				c-0.8-0.2-1.6-0.3-2.5-0.5l-1.1-0.2c-1-0.2-1.9-0.4-2.9-0.6c-0.8-0.2-1.7-0.4-2.5-0.6l-0.2-0.1c-5.3-1.2-10.3-2.3-15.1-3.5
				l-1.8-0.4c-1.4-0.3-2.7-0.6-4-1l-1.6-0.4l-0.7-0.2c-1.9-0.5-3.7-0.9-5.6-1.4c-1.1-0.3-2.2-0.6-3.3-0.9c-3.2-0.8-6.4-1.7-9.6-2.5
				l-1.5-0.4c-0.5-0.1-1.1-0.3-1.6-0.4l-0.6-0.2c-2.5-0.7-5-1.4-7.5-2.1l-0.6-0.2l-0.9-0.2l-2.6-0.7l-0.9-0.2l-1.3-0.4l-0.6-0.2
				l-1.1-0.3l-0.9-0.3l-0.4-0.2l-0.5-0.2l-0.3-0.1l-0.5-0.2l-0.5-0.2l-0.2-0.1l-0.5-0.3l-0.6-0.3l-0.5-0.4l-0.5-0.4
				c-0.8-0.7-1.5-1.4-2.1-2.4l0,0c0,0-4.7,7-5.1,19.1c10.6,15.3,44,20.4,90.2,26.6c45.9,6.1,74.3,4.9,93.5-3.3
				c19.2-8.3,52.9-47.5,77-49.6c24.1-2.1,52.6-14.9,64.3-21.7c6.1-3.6,4.3-28.9,4.3-28.9L408.4,2416.4z"/>
			<path class="st0" d="M871.6,2416.4c4.5,8.3,12.9,13.9,22.3,17.9c8.5,4.3,18.6,6.1,28.3,8.4c1.3,0.3,2.6,0.6,3.9,1
				c1.9,0.5,3.8,1,5.8,1.6c0.6,0.2,1.2,0.3,1.7,0.5l1,0.3c0.6,0.2,1.2,0.4,1.9,0.6c0.3,0.1,0.5,0.2,0.8,0.3c1,0.3,2.1,0.7,3.1,1
				c0.4,0.1,0.7,0.3,1.1,0.4l0.5,0.2c1.6,0.5,3.2,1.1,4.8,1.7c0.3,0.1,0.7,0.3,1,0.4c1.4,0.6,2.9,1.1,4.3,1.7l1.1,0.4
				c0.9,0.3,1.7,0.7,2.6,1.1c0.4,0.2,0.7,0.3,1.1,0.5c2.6,1.1,4.9,2.3,7.1,3.6l0.3,0.2c0.2,0.1,0.3,0.2,0.5,0.3
				c0.7,0.4,1.3,0.9,2,1.3l0.4,0.3c0.1,0.1,0.3,0.2,0.4,0.3c0.7,0.5,1.3,1,1.9,1.4l0.5,0.4l0.9,0.7c2.7,2.2,5.2,4.5,7.7,7l0.7,0.7
				c1.3,1.4,2.7,2.7,4,4.1c1.4,1.4,2.8,2.9,4.3,4.4c1.5,1.5,3,2.9,4.6,4.4l0.5,0.5c0.5,0.4,1,0.9,1.5,1.3c0.1,0.1,0.2,0.1,0.3,0.2
				c0.8,0.7,1.6,1.3,2.4,1.9c0.5,0.4,1.1,0.8,1.7,1.2l0.3,0.2c0.7,0.5,1.4,1,2.1,1.4c0.3,0.2,0.6,0.4,0.9,0.6c1,0.7,2.1,1.3,3.1,2
				c0.7,0.4,1.5,0.9,2.2,1.3l0.9,0.6l2.3,1.4l1.1,0.7l0.7,0.4l0.7,0.4c1.1,0.6,2.2,1.1,3.2,1.7c0.5,0.2,1,0.5,1.5,0.7l0.5,0.2
				c3.2,1.4,6.5,2.5,9.7,3.3l0.6,0.1l0.7,0.2c0.2,0,0.5,0.1,0.7,0.2c0.7,0.2,1.3,0.3,2,0.4c0.5,0.1,1,0.2,1.6,0.3l1.2,0.2l0.4,0.1
				c0.3,0.1,0.7,0.1,1,0.2c0.6,0.1,1.2,0.2,1.7,0.2c0.8,0.1,1.7,0.2,2.5,0.3c0.2,0,0.4,0,0.7,0.1c2.1,0.2,4.1,0.4,6.3,0.5
				c1.2,0.1,2.3,0.1,3.5,0.2l1,0c2.2,0.1,4.5,0.2,6.7,0.2c1.5,0.1,2.9,0.1,4.4,0.1c0.5,0,1.1,0,1.6,0c0.8,0,1.5,0,2.2,0
				c0.5,0,1.1,0,1.6,0l0.5,0c2.7-0.1,5.3-0.2,8-0.3c0.4,0,0.7,0,1.1-0.1l1.1-0.1c0.3,0,0.7,0,1-0.1c3.9-0.3,7.7-0.6,11.6-1.1l1-0.1
				c1-0.1,1.9-0.2,2.9-0.4c0.4-0.1,0.8-0.1,1.3-0.2l1-0.1c0.8-0.1,1.6-0.2,2.4-0.4c3.3-0.5,6.7-1.1,10.1-1.7
				c0.8-0.1,1.5-0.3,2.3-0.4l1-0.2c0.3-0.1,0.7-0.1,1.1-0.2l1.1-0.2c0.3-0.1,0.7-0.1,1.1-0.2l0.7-0.2c0.8-0.2,1.7-0.3,2.5-0.5
				l1.1-0.2c1-0.2,1.9-0.4,2.9-0.6c0.8-0.2,1.7-0.4,2.5-0.6l0.2-0.1c5.3-1.2,10.3-2.3,15.1-3.5l1.8-0.4c1.4-0.3,2.7-0.6,4-1l1.6-0.4
				l0.7-0.2c1.9-0.5,3.7-0.9,5.6-1.4c1.1-0.3,2.2-0.6,3.3-0.9c3.2-0.8,6.4-1.7,9.6-2.5l1.5-0.4c0.5-0.1,1.1-0.3,1.6-0.4l0.6-0.2
				c2.5-0.7,5-1.4,7.5-2.1l0.6-0.2l0.9-0.2l2.6-0.7l0.9-0.2l1.3-0.4l0.6-0.2l1.1-0.3l0.9-0.3l0.4-0.2l0.5-0.2l0.3-0.1l0.5-0.2
				l0.5-0.2l0.2-0.1l0.5-0.3l0.6-0.3l0.5-0.4l0.5-0.4c0.8-0.7,1.6-1.4,2.1-2.4l0,0c0,0,4.7,7,5.1,19.1c-10.6,15.3-44,20.4-90.3,26.6
				c-45.9,6.1-74.3,4.9-93.5-3.3c-19.2-8.3-52.9-47.5-77-49.6c-24.1-2.1-52.6-14.9-64.3-21.7c-6.1-3.6-4.3-28.9-4.3-28.9
				L871.6,2416.4z"/>
		</g>
		<g id="Top_Basic-Boot_F">
			<path class="st0" d="M275.8,2287.9c-6.4,31.4-16.3,58.7-37.2,85.1c-32.5,41.1-88,44.5-126.4,77.9c-9.8,8.6-9.4,22.3-11,35
				c15.9,4.5,29.9,8,47.7,12.1c1.2-12.6-1-26.7,9.5-35.9c38.4-33.4,98.8-32.1,131.3-73.2c21.2-26.9,21.3-61.5,27.5-93.7
				c-1-0.1-1.9-0.2-2.9-0.3l-5.7-0.6l-0.2,0l-0.7-0.1l-1.9-0.3l-2.9-0.4l-1.2-0.2c-3.3-0.4-6.5-1-9.7-1.5l-5-1l-1.1-0.3l-0.4-0.1
				l-0.8-0.2l-3.5-0.9l-3.1-0.9l-0.5-0.1C277.3,2288.3,276.5,2288.1,275.8,2287.9z"/>
			<path class="st0" d="M1004.2,2287.9c6.4,31.4,16.3,58.7,37.2,85.1c32.5,41.1,88,44.5,126.4,77.9c9.8,8.6,9.4,22.3,11,35
				c-15.9,4.5-29.9,8-47.7,12.1c-1.2-12.6,1-26.7-9.5-35.9c-38.4-33.4-98.8-32.1-131.2-73.2c-21.2-26.9-21.3-61.5-27.5-93.7
				c1-0.1,1.9-0.2,2.9-0.3l5.7-0.6l0.2,0l0.7-0.1l1.9-0.3l2.9-0.4l1.2-0.2c3.3-0.4,6.5-1,9.7-1.5l5-1l1.1-0.3l0.4-0.1l0.8-0.2
				l3.5-0.9l3.1-0.9l0.5-0.1C1002.7,2288.3,1003.5,2288.1,1004.2,2287.9z"/>
		</g>
		<g id="Side_Basic-Boot_F">
			<path class="st0" d="M386,2281.4c-12.3,5.4-18.8,10.9-30.1,12.8c-0.6,0.1-1.2,0.2-1.8,0.3c-0.2,3.9-0.1,7.9-0.2,11.3
				c-0.4,19.7,2,103.6,5.9,103.5c3.9-0.2,15.1-2.2,18-5.3c1.9-2,2.3-6.8,2.9-9.5c2-8.3,3.8-16.7,5.1-25.2
				C387.5,2358.1,385.7,2298.5,386,2281.4z"/>
			<path class="st0" d="M894,2281.4c12.3,5.4,18.8,10.9,30.1,12.8c0.6,0.1,1.2,0.2,1.8,0.3c0.2,3.9,0.1,7.9,0.2,11.3
				c0.4,19.7-2,103.6-5.9,103.5c-3.9-0.2-15.1-2.2-18-5.3c-1.9-2-2.3-6.8-2.9-9.5c-2-8.3-3.8-16.7-5.1-25.2
				C892.5,2358.1,894.3,2298.5,894,2281.4z"/>
		</g>
	</g>
</g>
<g id="Gloves_F">
	<g id="Left_Gloves_F">
		<g id="Fingerless_Left_Glove_F_Option">
			<g id="Fingers_Fingerless_Left_Glove_F">
				<path class="st0" d="M1131.3,1278.8c-4.7-0.3-9.2-0.2-13.9,1c-3.2,0.8-6.3,1.6-9.2,3.5c-8.7,5.7-6.3,18,1.4,22.7
					c9,5.5,23.3,0.1,27.5-10.5C1138.8,1291.1,1133.5,1282.9,1131.3,1278.8"/>
				<path class="st0" d="M1115.3,1289.5c-4.7-0.3-9.2-0.2-13.9,1c-3.2,0.8-6.3,1.6-9.2,3.5c-8.7,5.7-6.3,18,1.4,22.7
					c9,5.5,23.3,0.1,27.5-10.5C1122.9,1301.8,1117.6,1293.7,1115.3,1289.5"/>
				<path class="st0" d="M1104.1,1303.7c-4.7,0.5-10.6,1.6-15.1,3.4c-3.1,1.2-6.1,2.6-8.7,4.8c-7.9,6.9-4.1,18.8,4.1,22.3
					c9.6,4.1,23.2-3.5,26-14.6C1111.6,1315.2,1104.1,1303.7,1104.1,1303.7z"/>
				<path class="st0" d="M1055.4,1235.9c-2.7,13.3-4.8,20.6-4.8,20.6s-12.1,27.9-10,34.3c2.1,6.4,12.7,12.1,18.8,8.7
					c7.6-4.2,17-23.8,22.9-37.7c2.2-5.1,4.2-10.9,5.9-16.3C1064,1249.5,1055.4,1235.9,1055.4,1235.9L1055.4,1235.9z"/>
				<path class="st0" d="M1105.2,1301.7c-1.8,3.4-3.8,7-6,10.8c-12,20.4-30.3,38-18.2,53.6c11.3,14.6,37-23.7,37-23.7l11.9-17.6
					C1110.2,1319.4,1105.3,1301.8,1105.2,1301.7z"/>
			</g>
			<path id="Glove_Fingerless_Left_Glove_F" class="st0" d="M1130,1324.7l13.3-19.6c0,0,28.9-54,30.4-64.5c1.1-8,0.1-34.7,0.1-34.7
				l-9-103.5l-45.9,4.3l-37.8,13.9l-2.8,17.7c0,0-13.7,21.4-17.3,36.8c-2.5,10.8-1.2,36.8-4.3,54.2c-0.4,2.3-0.8,4.4-1.2,6.4l0,0
				c0,0,8.6,13.6,32.8,9.5c3-9.6,5.1-17.7,5.1-17.7s8.3,3.2,12.5,7c14.1,12.3,8,49.5,8,49.5s-3.3,7.4-8.6,17.5
				C1105.3,1301.8,1110.2,1319.4,1130,1324.7z"/>
		</g>
		<g id="Basic_Left_Glove_F_Option">
			<path class="st0" d="M1131.3,1278.8c-4.7-0.3-9.2-0.2-13.9,1c-3.2,0.8-6.3,1.6-9.2,3.5c-8.7,5.7-6.3,18,1.4,22.7
				c9,5.5,23.3,0.1,27.5-10.5C1138.8,1291.1,1133.5,1282.9,1131.3,1278.8"/>
			<path class="st0" d="M1115.3,1289.5c-4.7-0.3-9.2-0.2-13.9,1c-3.2,0.8-6.3,1.6-9.2,3.5c-8.7,5.7-6.3,18,1.4,22.7
				c9,5.5,23.3,0.1,27.5-10.5C1122.9,1301.8,1117.6,1293.7,1115.3,1289.5"/>
			<path class="st0" d="M1103.9,1304.1c-4.7,0.5-10.4,1.3-14.9,3.1c-3.1,1.2-6.1,2.6-8.7,4.8c-7.9,6.9-4.1,18.8,4.1,22.3
				c9.6,4.1,23.2-3.5,26-14.6C1111.6,1315.2,1103.9,1304.1,1103.9,1304.1z"/>
			<path class="st0" d="M1078.2,1138.4c0,0-13.7,21.4-17.3,36.8c-2.5,10.8-1.2,36.8-4.3,54.2c-3.2,17.4-6.1,27.1-6.1,27.1
				s-12.1,27.9-10,34.3c2.1,6.4,12.7,12.1,18.8,8.7c7.6-4.2,17-23.8,22.9-37.7c6-14.1,11-34.1,11-34.1s8.3,3.2,12.5,7
				c14.1,12.3,8,49.5,8,49.5s-5.8,13.3-14.6,28.2c-12,20.4-30.3,38-18.2,53.6c11.3,14.6,37-23.7,37-23.7l25.2-37.2
				c0,0,28.9-54,30.4-64.5c1.1-8,0.1-34.7,0.1-34.7l-9-103.5l-45.9,4.3l-37.8,13.9L1078.2,1138.4"/>
		</g>
	</g>
	<g id="Right_Gloves_F">
		<g id="Fingerless_Right_Glove_F_Option">
			<g id="Fingers_Fingerless_Right_Glove_F">
				<path class="st0" d="M148.3,1278.8c4.7-0.3,9.2-0.2,13.9,1c3.2,0.8,6.3,1.6,9.2,3.5c8.7,5.7,6.3,18-1.4,22.7
					c-9,5.5-23.4,0.1-27.5-10.5C140.8,1291.1,146.1,1282.9,148.3,1278.8"/>
				<path class="st0" d="M164.3,1289.5c4.7-0.3,9.2-0.2,13.9,1c3.2,0.8,6.3,1.6,9.2,3.5c8.7,5.7,6.3,18-1.4,22.7
					c-9,5.5-23.4,0.1-27.5-10.5C156.7,1301.8,162,1293.7,164.3,1289.5"/>
				<path class="st0" d="M175.5,1303.7c4.7,0.5,10.6,1.6,15.1,3.4c3.1,1.2,6.1,2.6,8.7,4.8c7.9,6.9,4.1,18.8-4.1,22.3
					c-9.6,4.1-23.2-3.5-26-14.6C168,1315.2,175.5,1303.7,175.5,1303.7z"/>
				<path class="st0" d="M224.2,1235.9c2.7,13.3,4.8,20.6,4.8,20.6s12.1,27.9,10,34.3c-2.1,6.4-12.7,12.1-18.8,8.7
					c-7.6-4.2-17-23.8-22.9-37.7c-2.2-5.1-4.2-10.9-5.9-16.3C215.6,1249.5,224.2,1235.9,224.2,1235.9L224.2,1235.9z"/>
				<path class="st0" d="M174.4,1301.7c1.8,3.4,3.8,7,6,10.8c12,20.4,30.3,38,18.2,53.6c-11.3,14.6-37-23.7-37-23.7l-11.9-17.6
					C169.4,1319.4,174.3,1301.8,174.4,1301.7z"/>
			</g>
			<path id="Glove_Fingerless_Right_Glove_F" class="st0" d="M149.6,1324.7l-13.3-19.6c0,0-28.9-54-30.4-64.5
				c-1.1-8-0.1-34.7-0.1-34.7l9-103.5l45.9,4.3l37.8,13.9l2.8,17.7c0,0,13.7,21.4,17.2,36.8c2.5,10.8,1.2,36.8,4.3,54.2
				c0.4,2.3,0.8,4.4,1.2,6.4l0,0c0,0-8.6,13.6-32.8,9.5c-3-9.6-5.1-17.7-5.1-17.7s-8.3,3.2-12.5,7c-14.1,12.3-8,49.5-8,49.5
				s3.3,7.4,8.6,17.5C174.3,1301.8,169.4,1319.4,149.6,1324.7z"/>
		</g>
		<g id="Basic_Right_Glove_F_Option">
			<path class="st0" d="M148.3,1278.8c4.7-0.3,9.2-0.2,13.9,1c3.2,0.8,6.3,1.6,9.2,3.5c8.7,5.7,6.3,18-1.4,22.7
				c-9,5.5-23.4,0.1-27.5-10.5C140.8,1291.1,146.1,1282.9,148.3,1278.8"/>
			<path class="st0" d="M164.3,1289.5c4.7-0.3,9.2-0.2,13.9,1c3.2,0.8,6.3,1.6,9.2,3.5c8.7,5.7,6.3,18-1.4,22.7
				c-9,5.5-23.4,0.1-27.5-10.5C156.7,1301.8,162,1293.7,164.3,1289.5"/>
			<path class="st0" d="M175.7,1304.1c4.7,0.5,10.4,1.3,14.9,3.1c3.1,1.2,6.1,2.6,8.7,4.8c7.9,6.9,4.1,18.8-4.1,22.3
				c-9.6,4.1-23.2-3.5-26-14.6C168,1315.2,175.7,1304.1,175.7,1304.1z"/>
			<path class="st0" d="M201.4,1138.4c0,0,13.7,21.4,17.2,36.8c2.5,10.8,1.2,36.8,4.3,54.2c3.2,17.4,6.1,27.1,6.1,27.1
				s12.1,27.9,10,34.3c-2.1,6.4-12.7,12.1-18.8,8.7c-7.6-4.2-17-23.8-22.9-37.7c-6-14.1-11-34.1-11-34.1s-8.3,3.2-12.5,7
				c-14.1,12.3-8,49.5-8,49.5s5.8,13.3,14.6,28.2c12,20.4,30.3,38,18.2,53.6c-11.3,14.6-37-23.7-37-23.7l-25.2-37.2
				c0,0-28.9-54-30.4-64.5c-1.1-8-0.1-34.7-0.1-34.7l9-103.5l45.9,4.3l37.8,13.9L201.4,1138.4"/>
		</g>
	</g>
</g>
<g id="Sleeves_F_Toggle">
	<path class="st0" d="M200,467.2l8.2,3.5l129.9-87.4c0,0,3.7,92.2,14.5,147.6c1.5,7.7,3.7,17.4,6.6,28.6l-17.3,56
		c0,0-58.7-23.1-84.5-38.2c-25-14.7-69.9-52.7-69.9-52.7L200,467.2z"/>
	<path class="st0" d="M920.9,559.5c2.8-11.2,5.1-21,6.6-28.6c10.8-55.4,14.5-147.6,14.5-147.6l129.9,87.4l8.2-3.5l12.5,57.3
		c0,0-44.9,38-69.9,52.7c-25.7,15.2-84.5,38.2-84.5,38.2L920.9,559.5z"/>
</g>
<path id="Vest_F" class="st0" d="M707.1,893.8c-43.9,9-90.3,9-134.1,0c-44.2-9.1-131-54.4-131-54.4s-75.8-238.9-89.4-308.6
	c-10.8-55.4-14.5-147.6-14.5-147.6l-129.9,87.4l-27.7-11.8c0,0,77.7-171.7,128.8-221.5c46.3-45,177.8-77,177.8-77
	s58,63.7,152.8,64.2c90.2,0.4,152.8-64.2,152.8-64.2s131.6,32,177.8,77c51.1,49.8,128.8,221.5,128.8,221.5l-27.7,11.8l-129.9-87.4
	c0,0-3.7,92.2-14.5,147.6c-13.6,69.7-89.4,308.6-89.4,308.6S751.3,884.7,707.1,893.8z"/>
		</g>
	</g>
	<g id="Lower-Body_F_Wrapper" transform="translate(289,1285)">
		<title>Lower Body</title>
		<g id="Ankles_Current">
			<g id="LeftAnkle_Current"></g>
			<g id="RightAnkle_Current"></g>
		</g>
		<g id="Shins_Current">
			<g id="LeftShin_Current"></g>
			<g id="RightShin_Current"></g>
		</g>
		<g id="Knees_Current">
			<g id="LeftKnee_Current"></g>
			<g id="RightKnee_Current"></g>
		</g>
		<g id="Thighs_Current">
			<g id="LeftThigh_Current"></g>
			<g id="RightThigh_Current"></g>
		</g>
		<g id="Groin_Current"></g>
		<g id="Waist_Current"></g>
	</g>
	<g id="Upper-Body_F_Wrapper" transform="translate(190,557)">
		<title>Upper Body</title>
		<g id="Chest_Current"></g>
		<g id="Biceps_Current">
			<g id="LeftBiceps_Current"></g>
			<g id="RightBiceps_Current"></g>
		</g>
		<g id="Shoulders_Current">
			<g id="LeftShoulder_Current"></g>
			<g id="RightShoulder_Current"></g>
		</g>
		<g id="Gauntlets_Current">
			<g id="LeftGauntlets_Current"></g>
			<g id="RightGauntlets_Current"></g>
		</g>
	</g>
	<g id="Helmet_F_Wrapper" transform="translate(540,35)">
		<title>Helmet (Buy'ce)</title>
		<g id="Helmet_Current"></g>
	</g>
</svg>
