<?xml version="1.0" encoding="UTF-8" standalone="no"?>
<!DOCTYPE svg PUBLIC "-//W3C//DTD SVG 1.1//EN" "http://www.w3.org/Graphics/SVG/1.1/DTD/svg11.dtd">
<svg id="Mando" width="100%" height="100%" viewBox="0 0 1800 3200" xmlns="http://www.w3.org/2000/svg" style="stroke:black;">
	<style>
		.overrideFill [style] {
			fill: inherit !important;
		}
	</style>
	<g id="Artboard1" transform="matrix(1.00223,0,0,1.14613,-437.879,1182.3)">
		<g id="Accessories-wrapper">
			<title>Accessories</title>
			<g id="Back" transform="matrix(0.997778,0,0,0.8725,92.5249,-1031.55)">
				<defs>
					<path id="Full-Cape" transform="matrix(4.16667,0,0,4.16667,-97.7975,0)" d="M282.382,188.133C252.498,199.416 219.224,253.787 215.107,295.138C212.51,321.231 199.786,347.741 200.978,373.719C202.186,400.062 188.897,427.382 187.92,453.706C187.04,477.422 180.043,488.257 175.981,511.709C169.904,546.803 163.185,569.926 157.733,605.049C153.4,632.967 140.299,656.04 134.145,664.751C133.582,665.547 172.258,664.613 180.066,663.35C205.284,659.269 224.613,658.09 249.639,664.229C276.827,670.898 303.539,674.986 331.343,668.837C358.129,662.913 383.311,648.755 410.783,646.225C432.127,644.259 452.952,651.144 473.474,655.924C478.676,657.136 485.884,660.234 491.268,659.892C491.404,659.884 489.545,647.386 489.273,646.04C486.62,632.918 480.568,620.393 473.47,609.161C455.416,580.592 461.642,549.247 458.342,515.481C455.143,482.746 458.488,449.941 452.986,417.265C448.119,388.362 431.018,361.468 426.736,332.303C421.711,298.087 410.04,261.437 399.709,228.191C387.039,187.419 312.266,176.85 282.382,188.133Z" style="stroke-width:0.97px;"/>
					<path id="Shoulder-Cape" transform="matrix(0.871254,0,0,1.0528,126.868,-16.9251)" d="M1552.7,783.806C1536.45,746.35 1522.52,708.924 1522.52,708.924C1528.19,698.577 1571.95,698.914 1584.23,699.549C1612.85,701.028 1653.09,711.751 1670.56,729.276C1680.53,739.27 1700.88,739.819 1707.64,751.967C1708.17,752.916 1714.34,763.088 1713.75,763.539C1713.67,763.599 1717.21,784.138 1721.36,808.087C1750.4,827.225 1776.49,852.445 1794.03,881.876C1838.26,956.076 1882.39,1039.73 1916.55,1119.39C1945.68,1187.3 1994.99,1253.64 2025.12,1320.56C2059.17,1396.22 2075.4,1449.28 2104.84,1526.43C2135.2,1606.03 2172.7,1677.06 2229.28,1735.43C2251.53,1758.38 2288.19,1777.74 2302.77,1807.86C2304.26,1810.95 2316.79,1840.04 2316.52,1840.14C2305.86,1844.13 2289.09,1840.88 2277.71,1841.02C2232.81,1841.54 2138.94,1798.1 2097.11,1815.4C2043.26,1837.66 2049.08,1925.72 1999,1955.77C1947.02,1986.97 1858.82,1909.99 1799.1,1909.88C1744.13,1909.77 1757.38,2030.24 1709.18,2054.92C1694.26,2062.56 1596.3,2064.12 1596.88,2061.87C1603.23,2037.21 1613.58,1973.8 1602.77,1903.84C1589.18,1815.83 1586.57,1756.05 1574.26,1667.74C1566.04,1608.72 1572.61,1578.45 1557.76,1520.67C1541.28,1456.53 1549.02,1382.75 1528.1,1319.86C1507.47,1257.83 1514.64,1186.34 1501.6,1121.81C1480.94,1019.54 1498.72,829.766 1551.31,784.951C1551.77,784.562 1552.23,784.181 1552.7,783.806Z" style="stroke-width:4.18px;"/>
				</defs>
				<g id="Cape" class="optional">
					<metadata>Full-Cape</metadata>
					<metadata>Shoulder-Cape</metadata>
				</g>
			</g>
		</g>
		<g id="Body-wrapper">
			<title>Flight Suit</title>
			<g id="Body" transform="matrix(1,0,0,1,-11.9734,0)">
				<g id="Boots" transform="matrix(1.32517,0,0,1.49961,729.581,-966.59)">
					<path transform="matrix(1.31718,0,0,1.08136,-758.572,-124.051)" d="M726.29,1716.4L726.29,1733.18C726.29,1733.18 686.583,1760.92 668.24,1763.71C650.512,1766.41 626.465,1754.43 616.231,1749.95C611.31,1747.8 606.835,1736.87 606.835,1736.87L606.835,1716.07L618.244,1729.82L668.576,1744.25L726.29,1716.4Z" style="stroke-width:2.24px;"/>
					<path transform="matrix(-1.31718,0,0,1.08136,1689.97,-124.051)" d="M726.29,1716.4L726.29,1733.18C726.29,1733.18 686.583,1760.92 668.24,1763.71C650.512,1766.41 626.465,1754.43 616.231,1749.95C611.31,1747.8 606.835,1736.87 606.835,1736.87L606.835,1716.07C606.835,1716.07 612.824,1727.35 618.244,1729.82C628.534,1734.52 668.576,1744.25 668.576,1744.25L726.29,1716.4Z" style="stroke-width:2.24px;"/>
					<path transform="matrix(1.31718,0,0,1.08136,-758.572,-122.969)" d="M649.785,1676.13C649.785,1676.13 619.698,1696.21 612.54,1702.64C609.227,1705.62 605.942,1710.36 606.835,1714.72C607.786,1719.37 612.409,1727.66 618.244,1730.49C628.366,1735.41 650.646,1746.48 667.569,1744.25C685.409,1741.9 725.283,1716.4 725.283,1716.4L756.196,1678.15L756.083,1711.37L795.299,1689.89C795.299,1689.89 797.784,1660.65 795.748,1652.65C793.795,1644.97 783.196,1632.47 783.196,1632.47L728.303,1626.14L649.785,1676.13Z" style="stroke-width:2.24px;"/>
					<path transform="matrix(-1.31718,0,0,1.08136,1689.97,-122.969)" d="M649.785,1676.13C649.785,1676.13 619.698,1696.21 612.54,1702.64C609.227,1705.62 605.942,1710.36 606.835,1714.72C607.786,1719.37 612.409,1727.66 618.244,1730.49C628.366,1735.41 650.646,1746.48 667.569,1744.25C685.409,1741.9 725.283,1716.4 725.283,1716.4L756.196,1678.15L756.196,1711.31L795.412,1689.83C795.412,1689.83 797.784,1660.65 795.748,1652.65C793.795,1644.97 783.196,1632.47 783.196,1632.47L728.303,1626.14L649.785,1676.13Z" style="stroke-width:2.24px;"/>
					<path transform="matrix(1.31718,0,0,1.08136,-758.572,-122.969)" d="M730.205,1710.31L756.196,1711.31L756.196,1677.81L730.205,1710.31Z" style="stroke-width:2.24px;"/>
					<path transform="matrix(-1.31718,0,0,1.08136,1689.97,-122.969)" d="M729.401,1711.31L756.196,1711.31L756.196,1677.81L729.401,1711.31Z" style="stroke-width:2.24px;"/>
				</g>
				<g id="Suit" transform="matrix(0.997778,0,0,1.0475,73.6392,34.784)">
					<path id="Pants" transform="matrix(1.74938,0,0,1.54809,-350.077,-1132.01)" d="M859.029,1277.8L850.029,1327.8L783.196,1632.47C783.196,1632.47 753.306,1649.43 737.963,1652.32C722.619,1655.21 691.136,1649.81 691.136,1649.81L714.446,1403.13L732.029,1297.8L736.029,1252.97C736.029,1252.97 720.696,1122.29 725.696,1057.13C730.696,991.977 766.029,862.023 766.029,862.023L929.463,865.356L1092.9,862.023C1092.9,862.023 1128.23,991.977 1133.23,1057.13C1138.23,1122.29 1122.9,1252.97 1122.9,1252.97L1126.9,1297.8L1144.48,1403.13L1167.79,1649.81C1167.79,1649.81 1135.54,1656.64 1120.2,1653.76C1104.86,1650.87 1075.73,1632.47 1075.73,1632.47L1008.9,1327.8L999.897,1277.8L929.463,1103.8L859.029,1277.8Z" style="stroke-width:2.24px;"/>
					<g id="Neck" transform="matrix(2.03538,0,0,1.63063,328.037,-1007.92)">
						<path transform="matrix(1.29579,0,0,0.929431,-738.62,-84.9653)" d="M984.737,430.319C984.737,425.068 981.013,420.806 976.426,420.806C976.426,420.806 945.078,425.806 929.404,425.806C913.73,425.806 882.382,420.806 882.382,420.806C877.795,420.806 874.071,425.068 874.071,430.319C874.071,435.569 877.795,439.832 882.382,439.832C882.382,439.832 913.73,444.832 929.404,444.832C945.078,444.832 976.426,439.832 976.426,439.832C981.013,439.832 984.737,435.569 984.737,430.319Z" style="stroke-width:1.78px;"/>
						<path transform="matrix(1.36143,0,0,0.976507,-799.619,-94.8875)" d="M984.737,430.319C984.737,425.068 981.013,420.806 976.426,420.806C976.426,420.806 945.078,425.806 929.404,425.806C913.73,425.806 882.382,420.806 882.382,420.806C877.795,420.806 874.071,425.068 874.071,430.319C874.071,435.569 877.795,439.832 882.382,439.832C882.382,439.832 913.73,444.832 929.404,444.832C945.078,444.832 976.426,439.832 976.426,439.832C981.013,439.832 984.737,435.569 984.737,430.319Z" style="stroke-width:1.7px;"/>
						<path transform="matrix(1.43578,0,0,1.02984,-868.719,-104.993)" d="M984.737,430.319C984.737,425.068 981.013,420.806 976.426,420.806C976.426,420.806 945.078,425.806 929.404,425.806C913.73,425.806 882.382,420.806 882.382,420.806C877.795,420.806 874.071,425.068 874.071,430.319C874.071,435.569 877.795,439.832 882.382,439.832C882.382,439.832 913.73,444.832 929.404,444.832C945.078,444.832 976.426,439.832 976.426,439.832C981.013,439.832 984.737,435.569 984.737,430.319Z" style="stroke-width:1.61px;"/>
						<path transform="matrix(1.50761,0,0,1.08136,-935.486,-115.4)" d="M984.737,430.319C984.737,425.068 981.013,420.806 976.426,420.806C976.426,420.806 945.078,425.806 929.404,425.806C913.73,425.806 882.382,420.806 882.382,420.806C877.795,420.806 874.071,425.068 874.071,430.319C874.071,435.569 877.795,439.832 882.382,439.832C882.382,439.832 913.73,444.832 929.404,444.832C945.078,444.832 976.426,439.832 976.426,439.832C981.013,439.832 984.737,435.569 984.737,430.319Z" style="stroke-width:1.53px;"/>
						<path transform="matrix(1.57903,0,0,0.816557,-1001.86,10.0899)" d="M984.737,430.319C984.737,425.068 981.013,420.806 976.426,420.806C976.426,420.806 945.078,425.806 929.404,425.806C913.73,425.806 882.382,420.806 882.382,420.806C877.795,420.806 874.071,425.068 874.071,430.319C874.071,435.569 877.795,439.832 882.382,439.832C882.382,439.832 913.73,444.832 929.404,444.832C945.078,444.832 976.426,439.832 976.426,439.832C981.013,439.832 984.737,435.569 984.737,430.319Z" style="stroke-width:1.59px;"/>
						<path transform="matrix(1.57903,0,0,0.816557,-1001.86,23.0506)" d="M984.737,430.319C984.737,425.068 981.013,420.806 976.426,420.806C976.426,420.806 945.078,425.806 929.404,425.806C913.73,425.806 882.382,420.806 882.382,420.806C877.795,420.806 874.071,425.068 874.071,430.319C874.071,435.569 877.795,439.832 882.382,439.832C882.382,439.832 913.73,449.461 929.404,449.461C945.078,449.461 976.426,439.832 976.426,439.832C981.013,439.832 984.737,435.569 984.737,430.319Z" style="stroke-width:1.59px;"/>
					</g>
					<g id="Jacket">
						<path transform="matrix(1,0,0,0.832936,436.906,-1031.55)" d="M1309.9,1026.97L1436.93,1470.97L1447.89,1699.91L1346.67,1719.43L1282.52,1503.94L1137.87,1142L1145.14,976.225L1169.63,936.575L1309.9,1026.97Z" style="stroke-width:4.04px;"/>
						<path transform="matrix(1,0,0,0.832936,436.906,-1031.55)" d="M368.514,1026.7L508.368,936.575L532.859,976.225L538.38,1147.23L395.824,1503.94L331.668,1719.43L230.445,1699.91L241.412,1470.97L368.514,1026.7Z" style="stroke-width:4.04px;"/>
					</g>
				</g>
				<g id="Gloves" transform="matrix(0.997778,0,0,1.0475,73.6392,34.784)">
					<path transform="matrix(-1.74938,0,0,1.54809,2902.23,-1132.01)" d="M641.796,1004.6L655.339,1020.01L658.339,1040.01L656.339,1052.51L666.53,1081.51L670.839,1098.51L657.839,1103.51L639.456,1084.01L632.839,1055.01L622.339,1055.51L622.339,1089.01L644.523,1115.01L644.523,1121.51L639.456,1131.01L628.339,1134.01L612.339,1119.01L596.456,1096.01L578.839,1066.67L573.339,1057.51L575.339,1039.01L581.594,979.514L613.339,982.014L639.456,990.014L641.796,1004.6Z" style="stroke-width:2.24px;"/>
					<path transform="matrix(1.74938,0,0,1.54809,-350.077,-1132.01)" d="M641.796,1004.6L655.339,1020.01L658.339,1040.01L656.339,1052.51L666.53,1081.51L670.839,1098.51L657.839,1103.51L639.456,1084.01L632.839,1055.01L622.339,1055.51L622.339,1089.01L644.523,1115.01L644.523,1121.51L639.456,1131.01L628.339,1134.01L612.339,1119.01L596.456,1096.01L578.839,1066.67L573.339,1057.51L575.339,1039.01L581.594,979.514L613.339,982.014L639.456,990.014L641.796,1004.6Z" style="stroke-width:2.24px;"/>
				</g>
				<g id="Sleeves" transform="matrix(0.997778,0,0,1.0475,73.6392,34.784)">
					<path transform="matrix(-1.74938,0,0,1.54809,2902.23,-1132.01)" d="M659.13,617.472L641.796,654.806C641.796,654.806 686.894,674.153 704.463,685.472C720.352,695.709 747.213,722.722 747.213,722.722L759.88,697.022L754.68,589.822L740.88,568.822L659.13,617.472Z" style="stroke-width:2.24px;"/>
					<path transform="matrix(1.74938,0,0,1.54809,-350.077,-1132.01)" d="M659.13,617.472L641.796,654.806C641.796,654.806 686.894,674.153 704.463,685.472C720.352,695.709 747.213,722.722 747.213,722.722L759.88,697.022L754.68,589.822L740.88,568.822L659.13,617.472Z" style="stroke-width:2.24px;"/>
				</g>
				<path id="Vest" transform="matrix(0.997778,0,0,0.8725,509.574,-557.169)" d="M673.214,142.643C675.327,182.234 748.818,214.084 839.037,214.084C929.255,214.084 1002.75,182.234 1004.86,142.653L1006.36,142.857L1201.12,200.628L1342.24,455.875L1311.91,468.266L1169.63,376.575L1145.14,416.225L1122.97,921.589C1122.97,921.589 1030.53,971.83 979.521,978.586C907.797,988.085 764.348,988.085 692.623,978.586C641.616,971.83 549.174,921.589 549.174,921.589L532.859,416.225L508.368,376.575L366.085,468.266L335.762,455.875L476.879,200.628L671.643,142.857L673.214,142.643Z" style="stroke-width:4.04px;"/>
			</g>
		</g>
		<g id="Thighs-wrapper">
			<title>Lower Body</title>
			<g id="Lower-Body" transform="matrix(1,0,0,1,-374.167,-17.45)">
				<g id="Boots_Armor" data-mandoa="Cetar'bur" transform="matrix(1.32517,0,0,1.49961,1091.94,-947.081)">
					<path id="Left_Boot" transform="matrix(-1.31718,0,0,1.08136,1689.97,-122.969)" d="M645.696,1674.97L693.196,1590.97L775.696,1607.47L783.196,1631.47L716.529,1683.97L688.196,1692.47L645.696,1674.97Z" style="stroke-width:2.24px;"/>
					<path id="Right_Boot" transform="matrix(1.31718,0,0,1.08136,-758.572,-122.969)" d="M645.696,1674.97L693.196,1590.97L775.696,1607.47L783.196,1631.47L716.529,1683.97L688.196,1692.47L645.696,1674.97Z" style="stroke-width:2.24px;"/>
				</g>
				<g id="Shins" data-mandoa="Tadun'bur" transform="matrix(1.32517,0,0,1.49961,1091.94,-947.081)">
					<path id="Left_Shin" transform="matrix(-1.31718,0,0,1.08136,1689.97,-122.969)" d="M705.196,1410.47L731.196,1375.97L775.696,1380.47L815.696,1447.47L762.196,1590.97L696.696,1582.47L705.196,1410.47Z" style="stroke-width:2.24px;"/>
					<path id="Right_Shin" transform="matrix(1.31718,0,0,1.08136,-758.572,-122.969)" d="M705.196,1410.47L731.196,1375.97L775.696,1380.47L815.696,1447.47L762.196,1590.97L696.696,1582.47L705.196,1410.47Z" style="stroke-width:2.24px;"/>
				</g>
				<g id="Knees" data-mandoa="Bes'lovik" transform="matrix(1.32517,0,0,1.49961,1091.94,-947.081)">
					<path id="Left_Knee" transform="matrix(1.24028,-0.342686,0.471162,1.01823,-945.298,235.299)" d="M729.696,1252.97L725.696,1296.97L751.696,1304.3L755.696,1345.97L819.029,1363.3L853.029,1325.63L862.029,1283.3L841.363,1285.97L729.696,1252.97Z" style="stroke-width:2.24px;"/>
					<path id="Right_Knee" transform="matrix(-1.24028,-0.342686,-0.471162,1.01823,1877.14,235.299)" d="M729.696,1252.97L725.696,1296.97L751.696,1304.3L755.696,1345.97L819.029,1363.3L853.029,1325.63L862.029,1283.3L841.363,1285.97L729.696,1252.97Z" style="stroke-width:2.24px;"/>
				</g>
				<g id="Thighs" data-mandoa="Motun'bur" transform="matrix(1.32517,0,0,1.49961,1091.94,-947.081)">
					<path id="Left_Thigh" transform="matrix(-1.49662,0,0,1.22868,1819.1,-304.958)" d="M716.529,1061.97L757.029,1024.13L798.529,1029.63L859.029,1101.13L828.196,1236.63L804.529,1249.13L729.029,1240.13L716.529,1061.97Z" style="stroke-width:1.97px;"/>
					<path id="Right_Thigh" transform="matrix(1.49662,0,0,1.22868,-887.709,-304.958)" d="M716.529,1061.97L757.029,1024.13L798.529,1029.63L859.029,1101.13L828.196,1236.63L804.529,1249.13L729.029,1240.13L716.529,1061.97Z" style="stroke-width:1.97px;"/>
				</g>
				<g id="Groin" data-mandoa="Ven'cabur">
					<path id="Plate" transform="matrix(1.74549,0,0,1.62162,86.7033,-1131.49)" d="M891.529,1073.97L828.196,942.634L1030.73,942.634L967.397,1073.97L929.463,1105.26L891.529,1073.97Z" style="stroke-width:2.24px;"/>
					<g id="Belt" transform="matrix(1.32517,0,0,1.49961,1091.94,-947.081)">
						<path transform="matrix(1.31718,0,0,1.08136,-758.572,-122.969)" d="M883.439,878.991C865.546,877.935 840.106,876.688 822.106,872.991C805.978,869.678 787.994,862.75 775.439,856.806C764.997,851.862 746.772,837.324 746.772,837.324L766.106,823.324C766.106,823.324 806.111,841.129 828.196,845.655C855.422,851.236 895.707,852.322 929.463,852.322C963.219,852.322 1003.5,851.236 1030.73,845.655C1052.82,841.129 1092.82,823.324 1092.82,823.324L1112.15,837.324C1112.15,837.324 1093.93,851.862 1083.49,856.806C1070.93,862.75 1052.95,869.678 1036.82,872.991C1018.82,876.688 993.38,877.935 975.487,878.991C960.172,879.894 944.804,879.324 929.463,879.324C914.122,879.324 898.754,879.894 883.439,878.991Z" style="stroke-width:2.24px;"/>
						<path transform="matrix(1.31718,0,0,1.08136,-758.572,-122.969)" d="M878.83,949.324C860.937,948.076 840.671,947.944 822.106,944.5C803.541,941.056 779.994,932.996 767.439,928.657C760.179,926.149 746.772,918.468 746.772,918.468L746.772,837.324C746.772,837.324 765.503,851.685 776.106,856.657C788.661,862.546 806.221,869.307 822.106,872.657C839.226,876.269 860.937,877.213 878.83,878.324C895.678,879.37 912.585,879.324 929.463,879.324C946.341,879.324 963.248,879.37 980.097,878.324C997.989,877.213 1019.7,876.269 1036.82,872.657C1052.7,869.307 1070.27,862.546 1082.82,856.657C1093.42,851.685 1112.15,837.324 1112.15,837.324L1112.15,918.468C1112.15,918.468 1098.75,926.149 1091.49,928.657C1078.93,932.996 1055.39,941.056 1036.82,944.5C1018.25,947.944 997.989,948.076 980.097,949.324C963.236,950.5 946.341,951.991 929.463,951.991C912.585,951.991 895.69,950.5 878.83,949.324Z" style="stroke-width:2.24px;"/>
					</g>
				</g>
			</g>
		</g>
		<g id="Chest-wrapper">
			<title>Upper Body</title>
			<g id="Upper-Body" transform="matrix(1,0,0,1,-11.8038,-27.92)">
				<g id="Gauntlets" data-mandoa="Kom'rk" transform="matrix(1.32517,0,0,1.49961,729.581,-947.081)">
					<g id="Left_Gauntlet">
						<path transform="matrix(1.31718,0,0,1.08136,-756.697,-107.226)" d="M1219.98,849.641L1177.58,856.806L1173.78,873.241L1216.18,990.041L1252.18,971.441L1219.98,849.641Z" style="stroke-width:2.24px;"/>
						<path transform="matrix(1.31718,0,0,1.08136,-756.697,-107.226)" d="M1272.05,838.775L1218.05,844.108L1251.38,970.775L1266.05,1011.44L1295.38,1052.11L1304.05,1043.44L1300.05,1025.44L1293.38,994.108L1262.05,886.108L1279.38,871.441L1272.05,838.775Z" style="stroke-width:2.24px;"/>
						<path transform="matrix(1.31718,0,0,1.08136,-756.697,-107.226)" d="M1262.09,886.284L1293.06,1006.22L1309.72,1013.07L1282.56,869.241L1262.09,886.284Z" style="stroke-width:2.24px;"/>
					</g>
					<g id="Right_Gauntlet">
						<path transform="matrix(-1.31718,0,0,1.08136,1688.09,-107.226)" d="M1219.98,849.641L1177.58,856.806L1173.78,873.241L1216.18,990.041L1252.18,971.441L1219.98,849.641Z" style="stroke-width:2.24px;"/>
						<path transform="matrix(-1.31718,0,0,1.08136,1688.09,-107.226)" d="M1272.05,838.775L1218.05,844.108L1251.38,970.775L1266.05,1011.44L1295.38,1052.11L1304.05,1043.44L1300.05,1025.44L1293.38,994.108L1262.05,886.108L1279.38,871.441L1272.05,838.775Z" style="stroke-width:2.24px;"/>
						<path transform="matrix(-1.31718,0,0,1.08136,1688.09,-107.226)" d="M1262.09,886.284L1293.06,1006.22L1309.72,1013.07L1282.56,869.241L1262.09,886.284Z" style="stroke-width:2.24px;"/>
					</g>
				</g>
				<g id="Shoulder" data-mandoa="Bes'marbur" transform="matrix(1.32517,0,0,1.49961,729.581,-947.081)">
					<path id="Left_Shoulder" transform="matrix(-1.509,0,0,1.23884,1810.67,-218.529)" d="M710.463,483.389L723.796,540.139L713.13,572.806L641.796,606.806L629.796,589.472L710.463,483.389Z" style="stroke-width:1.95px;"/>
					<path id="Right_Shoulder" transform="matrix(1.509,0,0,1.23884,-879.381,-218.529)" d="M710.463,483.389L723.796,540.139L713.13,572.806L641.796,606.806L629.796,589.472L710.463,483.389Z" style="stroke-width:1.95px;"/>
				</g>
				<g id="Chest" transform="matrix(0.997778,0,0,0.8725,74.5427,-1031.55)">
					<g id="Chest" data-mandoa="Hal'cabur" transform="matrix(1.32813,0,0,1.71875,656.497,96.8176)">
						<path id="Left_Chest" transform="matrix(-1.31718,0,0,1.08136,1689.97,-122.969)" d="M780.796,523.722L916.796,539.056L918.13,551.056L900.796,566.389L902.13,631.056L917.463,645.056L917.463,666.389L858.796,681.722L835.463,731.722L809.463,751.722L780.796,614.389L765.463,607.056L780.796,523.722Z" style="stroke-width:2.24px;"/>
						<path id="Right_Chest" transform="matrix(1.31718,0,0,1.08136,-758.572,-122.969)" d="M780.796,523.722L916.796,539.056L918.13,551.056L900.796,566.389L902.13,631.056L917.463,645.056L917.463,666.389L858.796,681.722L835.463,731.722L809.463,751.722L780.796,614.389L765.463,607.056L780.796,523.722Z" style="stroke-width:2.24px;"/>
					</g>
					<g id="Iron-Heart" data-mandoa="Ka'rta Beskar">
						<path id="Outer_Heart" transform="matrix(1.74938,0,0,1.85859,-350.982,-114.536)" d="M913.13,622.189L913.13,569.789L929.463,557.722L945.796,569.789L945.796,622.189L929.463,637.722L913.13,622.189Z" style="stroke-width:2.24px;"/>
						<rect id="Center_Heart" transform="matrix(1,0,0,1,384.913,32)" x="880.174" y="927.445" width="19.826" height="66.667" style="stroke-width:4px;"/>
					</g>
				</g>
				<g id="Abdomen" data-mandoa="Shar'tas" transform="matrix(0.997778,0,0,0.8725,74.5427,-1031.55)">
					<path id="Plate" data-mandoa="Shar'tas" transform="matrix(1.74938,0,0,1.85859,-351.211,-114.536)" d="M847.463,833.472L803.13,816.139L799.13,777.472L833.796,766.806L863.13,711.472L929.463,691.472L995.796,711.472L1025.13,766.806L1059.8,777.472L1055.8,816.139L1011.46,833.472L929.463,831.472L847.463,833.472Z" style="stroke-width:2.24px;"/>
				</g>
				<g id="Neck_Plate" data-mandoa="Ghet'bur" transform="matrix(1.74549,0,0,1.62162,-275.66,-1131.49)">
					<path id="Plate_Neck" d="M865.463,515.722L780.796,507.056L765.463,462.809L835.463,443.056C835.463,443.056 844.712,457.829 851.463,463.056C858.352,468.389 867.561,474.664 876.201,478.221C885.645,482.11 897.151,484.708 908.13,486.389C920.463,488.278 938.463,488.278 950.796,486.389C961.775,484.708 974.472,482.11 983.916,478.221C992.556,474.664 1000.57,468.389 1007.46,463.056C1014.21,457.829 1023.46,443.056 1023.46,443.056L1093.46,462.809L1078.13,507.056L993.463,515.722L929.463,523.722L865.463,515.722Z" style="stroke-width:2.24px;"/>
				</g>
			</g>
		</g>
		<g id="Helmet-wrapper" transform="matrix(1,0,0,0.91,985,-1015)">
			<title>Helmet</title>
			<g id="Helmet" transform="matrix(0.9375,0,0,0.819242,-10.0757,0)">
				<defs>
					<path id="Antenna_LeftClassic" transform="matrix(-4.44444,0,0,5.086,1791.16,-40.6465)" d="M266.3,95.575L271.494,17.306C271.494,14.696 273.368,14.884 273.312,17.494L269.13,95.575L266.3,95.575Z" style="stroke-width:0.97px;"/>
					<path id="Antenna_RightClassic" transform="matrix(4.44444,0,0,5.086,-1023,-40.6465)" d="M266.3,95.575L271.494,17.306C271.494,14.696 273.368,14.884 273.312,17.494L269.13,95.575L266.3,95.575Z" style="stroke-width:0.97px;"/>
				</defs>
				<defs>
					<g id="Sensor-Stalk_LeftClassic" transform="matrix(-0.276044,0,0,0.315891,729.949,-85.5922)">
						<g id="Sensor_LeftClassic">
							<path d="M294.824,1985.62L101.341,1654.63L339.466,1656.53L339.466,1985.62L294.824,1985.62Z"/>
							<path d="M285.956,2001.08L74.275,1638.96L354.923,1641.2L354.923,2001.08L285.956,2001.08ZM294.824,1985.62L101.341,1654.63L339.466,1656.53L339.466,1985.62L294.824,1985.62Z"/>
							<path d="M345.97,686.244L101.341,1443.38L339.466,1443.38L345.97,686.244Z"/>
							<path d="M362.293,585.45L354.791,1458.84L80.104,1458.84L362.293,585.45ZM345.97,686.244L101.341,1443.38L339.466,1443.38L345.97,686.244Z"/>
						</g>
						<g id="Shaft_LeftClassicSensor">
							<path d="M58.549,1443.38L346.52,555.253L345.97,686.244L101.341,1443.38L304.624,1443.38L304.624,1490.75L58.549,1490.75L58.549,1443.38Z"/>
							<path d="M122.578,1427.92L361.416,688.711L362.393,456.188L43.092,1440.94L43.092,1506.2L320.08,1506.2L320.08,1427.92L122.578,1427.92ZM58.549,1443.38L346.52,555.253L345.97,686.244L101.341,1443.38L304.624,1443.38L304.624,1490.75L58.549,1490.75L58.549,1443.38Z"/>
							<path d="M58.549,1654.07L58.549,1606.71L304.624,1606.71L304.624,1654.07L101.013,1654.07L294.824,1985.62L252.36,1985.62L58.549,1654.07Z"/>
							<path d="M127.952,1669.53L320.08,1669.53L320.08,1591.25L43.092,1591.25L43.092,1658.26L243.492,2001.08L321.763,2001.08L127.952,1669.53ZM58.549,1654.07L58.549,1606.71L304.624,1606.71L304.624,1654.07L101.013,1654.07L294.824,1985.62L252.36,1985.62L58.549,1654.07Z"/>
							<path d="M374.309,1338.85L304.624,1289.86L304.624,1723.21L374.309,1723.21L374.309,1338.85Z"/>
							<path d="M389.765,1330.83L389.765,1738.67L289.167,1738.67L289.167,1260.09L389.765,1330.83ZM374.309,1338.85L304.624,1289.86L304.624,1723.21L374.309,1723.21L374.309,1338.85Z"/>
							<rect x="294.824" y="1723.21" width="101.261" height="94.728"/>
							<path d="M411.542,1707.75L411.542,1833.4L279.368,1833.4L279.368,1707.75L411.542,1707.75ZM396.085,1723.21L294.824,1723.21L294.824,1817.94L396.085,1817.94L396.085,1723.21Z"/>
							<rect x="396.085" y="1706.88" width="16.282" height="137.192"/>
							<path d="M427.824,1691.42L427.824,1859.53L380.629,1859.53L380.629,1691.42L427.824,1691.42ZM412.368,1706.88L396.085,1706.88L396.085,1844.07L412.368,1844.07L412.368,1706.88Z"/>
						</g>
					</g>
					<g id="Sensor-Stalk_RightClassic" transform="matrix(0.276044,0,0,0.315891,38.2122,-85.5922)">
						<g id="Sensor_RightClassic">
							<path d="M294.824,1985.62L101.341,1654.63L339.466,1656.53L339.466,1985.62L294.824,1985.62Z"/>
							<path d="M285.956,2001.08L354.923,2001.08L354.923,1641.2L74.275,1638.96L285.956,2001.08ZM294.824,1985.62L101.341,1654.63L339.466,1656.53L339.466,1985.62L294.824,1985.62Z"/>
							<path d="M345.97,686.244L101.341,1443.38L339.466,1443.38L345.97,686.244Z"/>
							<path d="M362.293,585.45L80.104,1458.84L354.791,1458.84L362.293,585.45ZM345.97,686.244L101.341,1443.38L339.466,1443.38L345.97,686.244Z"/>
						</g>
						<g id="Shaft_RightClassicSensor">
							<path d="M58.549,1443.38L346.52,555.253L345.97,686.244L101.341,1443.38L304.624,1443.38L304.624,1490.75L58.549,1490.75L58.549,1443.38Z"/>
							<path d="M122.578,1427.92L320.08,1427.92L320.08,1506.2L43.092,1506.2L43.092,1440.94L362.393,456.188L361.416,688.711L122.578,1427.92ZM58.549,1443.38L346.52,555.253L345.97,686.244L101.341,1443.38L304.624,1443.38L304.624,1490.75L58.549,1490.75L58.549,1443.38Z"/>
							<path d="M58.549,1654.07L58.549,1606.71L304.624,1606.71L304.624,1654.07L101.013,1654.07L294.824,1985.62L252.36,1985.62L58.549,1654.07Z"/>
							<path d="M127.952,1669.53L321.763,2001.08L243.492,2001.08L43.092,1658.26L43.092,1591.25L320.08,1591.25L320.08,1669.53L127.952,1669.53ZM58.549,1654.07L58.549,1606.71L304.624,1606.71L304.624,1654.07L101.013,1654.07L294.824,1985.62L252.36,1985.62L58.549,1654.07Z"/>
							<path d="M374.309,1338.85L304.624,1289.86L304.624,1723.21L374.309,1723.21L374.309,1338.85Z"/>
							<path d="M389.765,1330.83L289.167,1260.09L289.167,1738.67L389.765,1738.67L389.765,1330.83ZM374.309,1338.85L304.624,1289.86L304.624,1723.21L374.309,1723.21L374.309,1338.85Z"/>
							<rect x="294.824" y="1723.21" width="101.261" height="94.728"/>
							<path d="M411.542,1707.75L279.368,1707.75L279.368,1833.4L411.542,1833.4L411.542,1707.75ZM396.085,1723.21L294.824,1723.21L294.824,1817.94L396.085,1817.94L396.085,1723.21Z"/>
							<rect x="396.085" y="1706.88" width="16.282" height="137.192"/>
							<path d="M427.824,1691.42L380.629,1691.42L380.629,1859.53L427.824,1859.53L427.824,1691.42ZM412.368,1706.88L396.085,1706.88L396.085,1844.07L412.368,1844.07L412.368,1706.88Z"/>
						</g>
					</g>
				</defs>
				<defs>
					<g id="Range-Finder_LeftClassic">
						<path id="Shaft_LeftClassic" transform="matrix(-4.44444,0,0,5.086,1791.16,-40.6465)" d="M266.3,95.575L270.666,23.806L273.444,23.994L269.13,95.575L266.3,95.575Z" style="stroke-width:0.97px;"/>
						<path id="Finder_LeftClassic" transform="matrix(-4.44444,0,0,5.086,1787.79,-40.6465)" d="M266.836,23.806L275.103,23.806L277.541,20.056L295.541,19.119L295.916,14.994L264.836,13.744L266.836,23.806Z" style="stroke-width:0.97px;"/>
					</g>
					<g id="Range-Finder_RightClassic">
						<path id="Shaft_RightClassic" transform="matrix(4.44444,0,0,5.086,-1023,-40.6465)" d="M266.3,95.575L270.666,23.806L273.444,23.994L269.13,95.575L266.3,95.575Z" style="stroke-width:0.97px;"/>
						<path id="Finder_RightClassic" transform="matrix(4.44444,0,0,5.086,-1018.56,-40.6465)" d="M266.836,23.806L275.103,23.806L277.541,20.056L295.541,19.119L295.916,14.994L264.836,13.744L266.836,23.806Z" style="stroke-width:0.97px;"/>
					</g>
				</defs>
				<g id="Left-Earcap_Classic" class="optional">
					<path id="Ear-Cap_LeftClassic" transform="matrix(4.44444,0,0,5.086,-977.736,-80.3809)" d="M358.056,156.056L362.541,149.431L358.056,103.556L351.791,99.619L358.056,156.056Z" style="stroke-width:0.97px;"/>
					<metadata>Antenna_LeftClassic</metadata>
					<metadata>Range-Finder_LeftClassic</metadata>
					<metadata>Sensor-Stalk_LeftClassic</metadata>
				</g>
				<g id="Right-Earcap_Classic" class="optional">
					<path id="Ear-Cap_RightClassic" transform="matrix(-4.44444,0,0,5.086,1745.9,-80.3809)" d="M358.056,156.056L362.541,149.431L358.056,103.556L351.791,99.619L358.056,156.056Z" style="stroke-width:0.97px;"/>
					<metadata>Antenna_RightClassic</metadata>
					<metadata>Range-Finder_RightClassic</metadata>
					<metadata>Sensor-Stalk_RightClassic</metadata>
				</g>
				<path id="Dome_Classic" transform="matrix(4.76481,0,0,5.086,-1113.44,-31.4488)" d="M314.702,47.941C338.002,48.423 356.79,67.824 356.938,91.709L356.939,91.994L362.814,150.182L356.939,150.682L330.064,167.682L314.702,168.391L314.702,168.432L314.258,168.411L313.814,168.432L313.814,168.391L298.452,167.682L271.577,150.682L265.702,150.182L271.577,91.994L271.578,91.709C271.727,67.824 290.515,48.423 313.814,47.941L313.814,47.932L314.093,47.933L314.258,47.934L314.424,47.933L314.702,47.932L314.702,47.941Z" style="stroke-width:0.94px;"/>
				<path id="Eyes_Classic" transform="matrix(4.76481,0,0,5.086,-1113.44,-31.4488)" d="M329.627,168.432L298.89,168.432C298.89,168.432 298.14,142.9 296.265,134.307C294.883,127.971 292.015,121.223 287.64,116.869C283.265,112.515 270.015,108.182 270.015,108.182L271.577,91.994C271.577,91.994 285.256,93.9 292.14,94.369C298.603,94.809 311.687,94.913 314.258,94.929C316.83,94.913 329.913,94.809 336.377,94.369C343.26,93.9 356.939,91.994 356.939,91.994L358.502,108.182C358.502,108.182 345.252,112.515 340.877,116.869C336.502,121.223 333.634,127.971 332.252,134.307C330.379,142.891 329.628,168.378 329.627,168.432Z" style="stroke-width:0.94px;"/>
				<path id="Visor_Classic" transform="matrix(4.76481,0,0,5.086,-1113.44,-31.4488)" d="M322.516,168.432L306,168.432L306,108.182C306,108.182 296.822,107.277 292.359,106.182C286.924,104.848 273.39,100.182 273.39,100.182L273.577,96.807C273.577,96.807 286.06,99.089 292.359,99.807C298.525,100.51 306.958,101.468 314.258,101.468C321.558,101.468 329.992,100.51 336.158,99.807C342.457,99.089 354.939,96.807 354.939,96.807L355.127,100.182C355.127,100.182 341.593,104.848 336.158,106.182C331.694,107.277 322.516,108.182 322.516,108.182L322.516,168.432Z" style="stroke-width:0.94px;"/>
				<g id="Cheeks_Classic" transform="matrix(1.06667,0,0,1.22064,-45.2839,-80.3809)">
					<path transform="translate(-713.253,0)" d="M1313.64,491.139L1332.55,665.844L1306.31,667.928L1186.26,738.761L1184.41,738.841C1185.03,721.206 1188.5,631.905 1196.03,599.698C1202.2,573.3 1215.01,545.185 1234.56,527.042C1252.64,510.253 1305.81,493.539 1313.64,491.139Z" style="stroke-width:4.04px;"/>
					<path transform="translate(-713.253,0)" d="M917.674,491.044C924.255,493.062 978.405,510.014 996.748,527.042C1016.29,545.185 1029.1,573.3 1035.28,599.698C1042.81,631.907 1046.28,721.216 1046.9,738.841L1045.05,738.761L924.996,667.928L898.753,665.844L917.674,491.044Z" style="stroke-width:4.04px;"/>
				</g>
				<g id="Face_Classic" transform="matrix(1.06667,0,0,1.22064,-45.2839,-80.3809)">
					<path transform="matrix(4.46701,0,0,4.16667,-1001.39,40.0872)" d="M271.577,150.432C271.577,150.432 273.051,139.658 275.265,134.307C277.515,128.869 281.827,122.869 286.702,123.807C290.604,124.557 298.327,144.244 298.89,168.432C298.515,168.057 271.577,150.432 271.577,150.432Z" style="stroke-width:0.94px;"/>
					<path transform="matrix(-4.46701,0,0,4.16667,1806.19,40.0872)" d="M271.577,150.432C271.577,150.432 273.051,139.658 275.265,134.307C277.515,128.869 281.827,122.869 286.702,123.807C290.604,124.557 298.327,144.244 298.89,168.432C298.515,168.057 271.577,150.432 271.577,150.432Z" style="stroke-width:0.94px;"/>
				</g>
			</g>
		</g>
	</g>
</svg>
