<?xml version="1.0" encoding="UTF-8" standalone="no"?>
<!DOCTYPE svg PUBLIC "-//W3C//DTD SVG 1.1//EN" "http://www.w3.org/Graphics/SVG/1.1/DTD/svg11.dtd">
<svg viewBox="0 0 700 700" version="1.1" xmlns="http://www.w3.org/2000/svg" style="display:none;">
	<g id="Classic-Helmet" transform="matrix(0.9375,0,0,0.819242,-10.0757,0)">
		<title>Helmet (Buy'ce)</title>
		<defs>
			<path id="Antenna_LeftClassic" transform="matrix(-4.44444,0,0,5.086,1791.16,-40.6465)" d="M266.3,95.575L271.494,17.306C271.494,14.696 273.368,14.884 273.312,17.494L269.13,95.575L266.3,95.575Z" style="stroke-width:0.97px;"/>
			<path id="Antenna_RightClassic" transform="matrix(4.44444,0,0,5.086,-1023,-40.6465)" d="M266.3,95.575L271.494,17.306C271.494,14.696 273.368,14.884 273.312,17.494L269.13,95.575L266.3,95.575Z" style="stroke-width:0.97px;"/>
		</defs>
		<defs>
			<g id="Sensor-Stalk_LeftClassic" transform="matrix(-0.276044,0,0,0.315891,729.949,-85.5922)">
				<g id="Sensor_LeftClassic">
					<path d="M294.824,1985.62L101.341,1654.63L339.466,1656.53L339.466,1985.62L294.824,1985.62Z"/>
					<path d="M285.956,2001.08L74.275,1638.96L354.923,1641.2L354.923,2001.08L285.956,2001.08ZM294.824,1985.62L101.341,1654.63L339.466,1656.53L339.466,1985.62L294.824,1985.62Z"/>
					<path d="M345.97,686.244L101.341,1443.38L339.466,1443.38L345.97,686.244Z"/>
					<path d="M362.293,585.45L354.791,1458.84L80.104,1458.84L362.293,585.45ZM345.97,686.244L101.341,1443.38L339.466,1443.38L345.97,686.244Z"/>
				</g>
				<g id="Shaft_LeftClassicSensor">
					<path d="M58.549,1443.38L346.52,555.253L345.97,686.244L101.341,1443.38L304.624,1443.38L304.624,1490.75L58.549,1490.75L58.549,1443.38Z"/>
					<path d="M122.578,1427.92L361.416,688.711L362.393,456.188L43.092,1440.94L43.092,1506.2L320.08,1506.2L320.08,1427.92L122.578,1427.92ZM58.549,1443.38L346.52,555.253L345.97,686.244L101.341,1443.38L304.624,1443.38L304.624,1490.75L58.549,1490.75L58.549,1443.38Z"/>
					<path d="M58.549,1654.07L58.549,1606.71L304.624,1606.71L304.624,1654.07L101.013,1654.07L294.824,1985.62L252.36,1985.62L58.549,1654.07Z"/>
					<path d="M127.952,1669.53L320.08,1669.53L320.08,1591.25L43.092,1591.25L43.092,1658.26L243.492,2001.08L321.763,2001.08L127.952,1669.53ZM58.549,1654.07L58.549,1606.71L304.624,1606.71L304.624,1654.07L101.013,1654.07L294.824,1985.62L252.36,1985.62L58.549,1654.07Z"/>
					<path d="M374.309,1338.85L304.624,1289.86L304.624,1723.21L374.309,1723.21L374.309,1338.85Z"/>
					<path d="M389.765,1330.83L389.765,1738.67L289.167,1738.67L289.167,1260.09L389.765,1330.83ZM374.309,1338.85L304.624,1289.86L304.624,1723.21L374.309,1723.21L374.309,1338.85Z"/>
					<rect x="294.824" y="1723.21" width="101.261" height="94.728"/>
					<path d="M411.542,1707.75L411.542,1833.4L279.368,1833.4L279.368,1707.75L411.542,1707.75ZM396.085,1723.21L294.824,1723.21L294.824,1817.94L396.085,1817.94L396.085,1723.21Z"/>
					<rect x="396.085" y="1706.88" width="16.282" height="137.192"/>
					<path d="M427.824,1691.42L427.824,1859.53L380.629,1859.53L380.629,1691.42L427.824,1691.42ZM412.368,1706.88L396.085,1706.88L396.085,1844.07L412.368,1844.07L412.368,1706.88Z"/>
				</g>
			</g>
			<g id="Sensor-Stalk_RightClassic" transform="matrix(0.276044,0,0,0.315891,38.2122,-85.5922)">
				<g id="Sensor_RightClassic">
					<path d="M294.824,1985.62L101.341,1654.63L339.466,1656.53L339.466,1985.62L294.824,1985.62Z"/>
					<path d="M285.956,2001.08L354.923,2001.08L354.923,1641.2L74.275,1638.96L285.956,2001.08ZM294.824,1985.62L101.341,1654.63L339.466,1656.53L339.466,1985.62L294.824,1985.62Z"/>
					<path d="M345.97,686.244L101.341,1443.38L339.466,1443.38L345.97,686.244Z"/>
					<path d="M362.293,585.45L80.104,1458.84L354.791,1458.84L362.293,585.45ZM345.97,686.244L101.341,1443.38L339.466,1443.38L345.97,686.244Z"/>
				</g>
				<g id="Shaft_RightClassicSensor">
					<path d="M58.549,1443.38L346.52,555.253L345.97,686.244L101.341,1443.38L304.624,1443.38L304.624,1490.75L58.549,1490.75L58.549,1443.38Z"/>
					<path d="M122.578,1427.92L320.08,1427.92L320.08,1506.2L43.092,1506.2L43.092,1440.94L362.393,456.188L361.416,688.711L122.578,1427.92ZM58.549,1443.38L346.52,555.253L345.97,686.244L101.341,1443.38L304.624,1443.38L304.624,1490.75L58.549,1490.75L58.549,1443.38Z"/>
					<path d="M58.549,1654.07L58.549,1606.71L304.624,1606.71L304.624,1654.07L101.013,1654.07L294.824,1985.62L252.36,1985.62L58.549,1654.07Z"/>
					<path d="M127.952,1669.53L321.763,2001.08L243.492,2001.08L43.092,1658.26L43.092,1591.25L320.08,1591.25L320.08,1669.53L127.952,1669.53ZM58.549,1654.07L58.549,1606.71L304.624,1606.71L304.624,1654.07L101.013,1654.07L294.824,1985.62L252.36,1985.62L58.549,1654.07Z"/>
					<path d="M374.309,1338.85L304.624,1289.86L304.624,1723.21L374.309,1723.21L374.309,1338.85Z"/>
					<path d="M389.765,1330.83L289.167,1260.09L289.167,1738.67L389.765,1738.67L389.765,1330.83ZM374.309,1338.85L304.624,1289.86L304.624,1723.21L374.309,1723.21L374.309,1338.85Z"/>
					<rect x="294.824" y="1723.21" width="101.261" height="94.728"/>
					<path d="M411.542,1707.75L279.368,1707.75L279.368,1833.4L411.542,1833.4L411.542,1707.75ZM396.085,1723.21L294.824,1723.21L294.824,1817.94L396.085,1817.94L396.085,1723.21Z"/>
					<rect x="396.085" y="1706.88" width="16.282" height="137.192"/>
					<path d="M427.824,1691.42L380.629,1691.42L380.629,1859.53L427.824,1859.53L427.824,1691.42ZM412.368,1706.88L396.085,1706.88L396.085,1844.07L412.368,1844.07L412.368,1706.88Z"/>
				</g>
			</g>
		</defs>
		<defs>
			<g id="Range-Finder_LeftClassic">
				<path id="Shaft_LeftClassic" transform="matrix(-4.44444,0,0,5.086,1791.16,-40.6465)" d="M266.3,95.575L270.666,23.806L273.444,23.994L269.13,95.575L266.3,95.575Z" style="stroke-width:0.97px;"/>
				<path id="Finder_LeftClassic" transform="matrix(-4.44444,0,0,5.086,1787.79,-40.6465)" d="M266.836,23.806L275.103,23.806L277.541,20.056L295.541,19.119L295.916,14.994L264.836,13.744L266.836,23.806Z" style="stroke-width:0.97px;"/>
			</g>
			<g id="Range-Finder_RightClassic">
				<path id="Shaft_RightClassic" transform="matrix(4.44444,0,0,5.086,-1023,-40.6465)" d="M266.3,95.575L270.666,23.806L273.444,23.994L269.13,95.575L266.3,95.575Z" style="stroke-width:0.97px;"/>
				<path id="Finder_RightClassic" transform="matrix(4.44444,0,0,5.086,-1018.56,-40.6465)" d="M266.836,23.806L275.103,23.806L277.541,20.056L295.541,19.119L295.916,14.994L264.836,13.744L266.836,23.806Z" style="stroke-width:0.97px;"/>
			</g>
		</defs>
		<g id="Left-Earcap_Classic" class="optional">
			<path id="Ear-Cap_Classic" transform="matrix(4.44444,0,0,5.086,-977.736,-80.3809)" d="M358.056,156.056L362.541,149.431L358.056,103.556L351.791,99.619L358.056,156.056Z" style="stroke-width:0.97px;"/>
			<metadata>Antenna_LeftClassic</metadata>
			<metadata>Range-Finder_LeftClassic</metadata>
			<metadata>Sensor-Stalk_LeftClassic</metadata>
		</g>
		<g id="Right-Earcap_Classic" class="optional">
			<path id="Ear-Cap_Classic" transform="matrix(-4.44444,0,0,5.086,1745.9,-80.3809)" d="M358.056,156.056L362.541,149.431L358.056,103.556L351.791,99.619L358.056,156.056Z" style="stroke-width:0.97px;"/>
			<metadata>Antenna_RightClassic</metadata>
			<metadata>Range-Finder_RightClassic</metadata>
			<metadata>Sensor-Stalk_RightClassic</metadata>
		</g>
		<path id="Dome_Classic" transform="matrix(4.76481,0,0,5.086,-1113.44,-31.4488)" d="M314.702,47.941C338.002,48.423 356.79,67.824 356.938,91.709L356.939,91.994L362.814,150.182L356.939,150.682L330.064,167.682L314.702,168.391L314.702,168.432L314.258,168.411L313.814,168.432L313.814,168.391L298.452,167.682L271.577,150.682L265.702,150.182L271.577,91.994L271.578,91.709C271.727,67.824 290.515,48.423 313.814,47.941L313.814,47.932L314.093,47.933L314.258,47.934L314.424,47.933L314.702,47.932L314.702,47.941Z" style="stroke-width:0.94px;"/>
		<path id="Eyes_Classic" transform="matrix(4.76481,0,0,5.086,-1113.44,-31.4488)" d="M329.627,168.432L298.89,168.432C298.89,168.432 298.14,142.9 296.265,134.307C294.883,127.971 292.015,121.223 287.64,116.869C283.265,112.515 270.015,108.182 270.015,108.182L271.577,91.994C271.577,91.994 285.256,93.9 292.14,94.369C298.603,94.809 311.687,94.913 314.258,94.929C316.83,94.913 329.913,94.809 336.377,94.369C343.26,93.9 356.939,91.994 356.939,91.994L358.502,108.182C358.502,108.182 345.252,112.515 340.877,116.869C336.502,121.223 333.634,127.971 332.252,134.307C330.379,142.891 329.628,168.378 329.627,168.432Z" style="stroke-width:0.94px;"/>
		<path id="Visor_Classic" transform="matrix(4.76481,0,0,5.086,-1113.44,-31.4488)" d="M322.516,168.432L306,168.432L306,108.182C306,108.182 296.822,107.277 292.359,106.182C286.924,104.848 273.39,100.182 273.39,100.182L273.577,96.807C273.577,96.807 286.06,99.089 292.359,99.807C298.525,100.51 306.958,101.468 314.258,101.468C321.558,101.468 329.992,100.51 336.158,99.807C342.457,99.089 354.939,96.807 354.939,96.807L355.127,100.182C355.127,100.182 341.593,104.848 336.158,106.182C331.694,107.277 322.516,108.182 322.516,108.182L322.516,168.432Z" style="stroke-width:0.94px;"/>
		<g id="Cheeks_Classic" transform="matrix(1.06667,0,0,1.22064,-45.2839,-80.3809)">
			<path transform="translate(-713.253,0)" d="M1313.64,491.139L1332.55,665.844L1306.31,667.928L1186.26,738.761L1184.41,738.841C1185.03,721.206 1188.5,631.905 1196.03,599.698C1202.2,573.3 1215.01,545.185 1234.56,527.042C1252.64,510.253 1305.81,493.539 1313.64,491.139Z" style="stroke-width:4.04px;"/>
			<path transform="translate(-713.253,0)" d="M917.674,491.044C924.255,493.062 978.405,510.014 996.748,527.042C1016.29,545.185 1029.1,573.3 1035.28,599.698C1042.81,631.907 1046.28,721.216 1046.9,738.841L1045.05,738.761L924.996,667.928L898.753,665.844L917.674,491.044Z" style="stroke-width:4.04px;"/>
		</g>
		<g id="Face_Classic" transform="matrix(1.06667,0,0,1.22064,-45.2839,-80.3809)">
			<path transform="matrix(4.46701,0,0,4.16667,-1001.39,40.0872)" d="M271.577,150.432C271.577,150.432 273.051,139.658 275.265,134.307C277.515,128.869 281.827,122.869 286.702,123.807C290.604,124.557 298.327,144.244 298.89,168.432C298.515,168.057 271.577,150.432 271.577,150.432Z" style="stroke-width:0.94px;"/>
			<path transform="matrix(-4.46701,0,0,4.16667,1806.19,40.0872)" d="M271.577,150.432C271.577,150.432 273.051,139.658 275.265,134.307C277.515,128.869 281.827,122.869 286.702,123.807C290.604,124.557 298.327,144.244 298.89,168.432C298.515,168.057 271.577,150.432 271.577,150.432Z" style="stroke-width:0.94px;"/>
		</g>
	</g>
	<g id="Nite-Owl-Helmet" transform="translate(110.736,15.0685)">
		<title>Helmet (Buy'ce)</title>
		<defs>
			<path id="Antenna_LeftNite" d="M433.832,337.621L417.006,23.482C416.773,12.608 424.581,11.824 424.581,22.701L445.986,345.26L433.832,337.621Z" style="stroke-width:4.04px;"/>
			<path id="Antenna_RightNite" d="M31.296,346.043L52.752,22.701C52.752,11.824 60.561,12.608 60.328,23.482L43.46,338.398L31.296,346.043Z" style="stroke-width:4.04px;"/>
		</defs>
		<defs>
			<g id="Range-Finder_LeftNite" transform="matrix(0.639286,0,0,0.781536,-6.87063,0)">
				<path id="Shaft_LeftNite" transform="matrix(-6.50989,0,0,5.325,2444.58,-60.3018)" d="M266.836,86.244L270.666,23.806L273.444,23.994L269.666,86.244L266.836,86.244Z" style="stroke-width:0.97px;"/>
				<path id="Finder_LeftNite" transform="matrix(-6.50989,0,0,5.325,2438.07,-60.3018)" d="M266.836,23.806L275.103,23.806L277.541,20.056L295.541,19.119L295.916,14.994L264.836,13.744L266.836,23.806Z" style="stroke-width:0.97px;"/>
				<path id="Base_LeftNite" transform="matrix(1.56425,0,0,1.27953,10.7474,0)" d="M434.34,401.852L427.671,334.939L417.93,334.159L417.93,292.022L430.792,292.802L434.954,311.53L450.04,310.749L456.516,379.04L434.34,401.852Z" style="stroke-width:4.04px;"/>
			</g>
			<g id="Range-Finder_RightNite" transform="matrix(-0.639286,0,0,0.781536,484.634,0)">
				<path id="Shaft_RightNite" transform="matrix(-6.50989,0,0,5.325,2444.58,-60.3018)" d="M266.836,86.244L270.666,23.806L273.444,23.994L269.666,86.244L266.836,86.244Z" style="stroke-width:0.97px;"/>
				<path id="Finder_RightNite" transform="matrix(-6.50989,0,0,5.325,2438.07,-60.3018)" d="M266.836,23.806L275.103,23.806L277.541,20.056L295.541,19.119L295.916,14.994L264.836,13.744L266.836,23.806Z" style="stroke-width:0.97px;"/>
				<path id="Base_RightNite" transform="matrix(1.56425,0,0,1.27953,10.7474,0)" d="M434.34,401.852L427.671,334.939L417.93,334.159L417.93,292.022L430.792,292.802L434.954,311.53L450.04,310.749L456.516,379.04L434.34,401.852Z" style="stroke-width:4.04px;"/>
			</g>
		</defs>
		<g id="Earcap_LeftNite" class="optional">
			<metadata>Antenna_LeftNite</metadata>
			<g transform="matrix(0.631421,0,0,0.771921,-4.31847,4.10746)">
				<path transform="matrix(6.59097,0,0,5.39132,-1636.73,-111.189)" d="M358.056,156.056L362.541,149.431L358.056,103.556L351.791,99.619L358.056,156.056Z" style="stroke-width:0.97px;"/>
				<path transform="matrix(-0.382536,0,0,0.31291,873.154,-47.1754)" d="M470.837,1789.41L381.323,1696.77" style="stroke-width:16.73px;"/>
			</g>
			<metadata>Range-Finder_LeftNite</metadata>
		</g>
		<g id="Earcap_RightNite" class="optional">
			<metadata>Antenna_RightNite</metadata>
			<g transform="matrix(-0.631421,0,0,0.771921,482.846,4.10746)">
				<path transform="matrix(6.59097,0,0,5.39132,-1636.73,-111.189)" d="M358.056,156.056L362.541,149.431L358.056,103.556L351.791,99.619L358.056,156.056Z" style="stroke-width:0.97px;"/>
				<path transform="matrix(-0.382536,0,0,0.31291,873.154,-47.1754)" d="M470.837,1789.41L381.323,1696.77" style="stroke-width:16.73px;"/>
			</g>
			<metadata>Range-Finder_RightNite</metadata>
		</g>
		<path id="Visor_Nite" transform="matrix(4.46166,0,0,4.16168,-1163.45,-41.6827)" d="M321.506,168.432L307.01,168.432C307.01,168.432 301.388,142.9 299.513,134.307C298.131,127.971 292.015,121.223 287.64,116.869C283.265,112.515 270.353,104.191 270.353,104.191L271.577,91.994C271.577,91.994 285.256,92.74 292.14,93.208C298.603,93.649 311.687,93.752 314.258,93.768C316.83,93.752 329.913,93.649 336.377,93.208C343.26,92.74 356.939,91.994 356.939,91.994L358.163,103.647C358.163,103.647 345.252,112.515 340.877,116.869C336.502,121.223 330.386,127.971 329.003,134.307C327.13,142.891 321.508,168.378 321.506,168.432Z" style="stroke-width:0.94px;"/>
		<path id="Eyes_Nite" transform="matrix(4.46166,0,0,4.16168,-1163.45,-41.6827)" d="M317.103,168.432L311.414,168.432L306,111.664C306,111.664 296.18,110.724 291.682,109.809C280.664,107.569 273.577,97.967 273.577,97.967C273.577,97.967 286.06,96.767 292.359,97.485C309.355,99.422 311.37,107.805 314.258,110.902C317.147,107.805 319.179,99.42 336.158,97.485C342.457,96.767 354.939,97.967 354.939,97.967C354.939,97.967 346.161,108.113 335.481,109.809C330.952,110.528 322.516,111.664 322.516,111.664L317.103,168.432Z" style="stroke-width:0.94px;"/>
		<g id="Cheeks_Nite" transform="translate(-641.51,386)">
			<path transform="matrix(0.241542,0,0,0.241542,570.225,-423.555)" d="M2117.37,1963.4C2117.37,1963.4 1885.7,2081.34 1765.81,2240.63C1543.13,2536.46 1415.63,2883.34 1415.63,2883.34C1415.63,2883.34 1506.59,2325.92 1617.37,2138.4C1719.55,1965.45 2092.83,1768.09 2092.83,1768.09L2117.37,1963.4Z" style="stroke-width:16.73px;"/>
			<path transform="matrix(-0.241542,0,0,0.241542,1188.62,-423.555)" d="M2111.12,1969.65C2111.12,1969.65 1885.7,2081.34 1765.81,2240.63C1543.13,2536.46 1412.52,2887.08 1412.52,2887.08C1412.52,2887.08 1506.59,2325.92 1617.37,2138.4C1719.55,1965.45 2093.5,1781.89 2093.5,1781.89L2111.12,1969.65Z" style="stroke-width:16.73px;"/>
		</g>
		<g id="Face_Nite" transform="matrix(0.639286,0,0,0.781536,-6.87063,0)">
			<path transform="matrix(1.56425,0,0,1.27953,-993.514,0)" d="M678.758,438.23C680.841,439.271 733.716,465.938 762.102,503.65C812.813,571.019 843.755,650.15 847.128,658.981C829.654,658.029 815.041,656.24 808.328,653.615C776.921,641.332 688.421,585.406 688.421,585.406L665.866,567.733L678.758,438.23Z" style="stroke-width:4.04px;"/>
			<path transform="matrix(1.56425,0,0,1.27953,-993.514,0)" d="M1080.47,437.308L1095.49,566.216L1069.28,585.406C1069.28,585.406 980.776,641.332 949.369,653.615C942.86,656.16 928.925,657.919 912.157,658.891C912.244,658.657 943.03,575.007 996.742,503.65C1023.21,468.481 1072.24,441.657 1080.47,437.308Z" style="stroke-width:4.04px;"/>
		</g>
		<path id="Dome_Nite" transform="translate(-641.074,0)" d="M689.572,341.168L689.312,341.168L689.316,339.982C689.978,240.58 773.804,159.838 877.758,157.832L877.758,157.794L879.001,157.797L879.74,157.804L880.478,157.797L881.721,157.794L881.721,157.832C985.676,159.838 1069.5,240.58 1070.16,339.982L1070.17,341.168L1070.17,341.181C1065.84,341.401 1008.23,344.343 978.684,346.221C949.847,348.053 891.473,348.483 879.999,348.55C868.526,348.483 810.151,348.053 781.315,346.221C750.602,344.269 689.572,341.168 689.572,341.168Z" style="stroke-width:4.04px;"/>
	</g>
</svg>
