<?xml version="1.0" encoding="UTF-8" standalone="no"?>
<!DOCTYPE svg PUBLIC "-//W3C//DTD SVG 1.1//EN" "http://www.w3.org/Graphics/SVG/1.1/DTD/svg11.dtd">
<svg width="100%" height="100%" viewBox="0 0 700 700" version="1.1" xmlns="http://www.w3.org/2000/svg">
	<g id="Face_Male" transform="matrix(1,0,0,1.20057,-926.107,1177.16)">
		<g>
			<g transform="matrix(1,0,0,0.832936,431.219,-1031.55)">
				<ellipse cx="684.888" cy="490.868" rx="12.684" ry="41.91" style="stroke-width:4px;"/>
			</g>
			<g transform="matrix(1,0,0,0.832936,751.219,-1031.55)">
				<ellipse cx="684.888" cy="490.868" rx="12.684" ry="41.91" style="stroke-width:4px;"/>
			</g>
		</g>
		<g transform="matrix(0.699066,0,0,0.582277,410.698,-875.186)">
			<path d="M1237.49,771.778C1158.49,771.502 1103.8,702.383 1077.19,671.425C1056.67,647.561 1045.19,578.445 1042.52,549.112C1039.86,519.779 1017.19,490.445 1017.19,448.958C1017.19,422.005 1026.12,375.712 1027.86,353.112C1030.52,318.445 1023.86,289.112 1027.86,258.747C1031.86,228.382 1097.25,107.779 1237.95,107.779C1390.65,107.779 1444.05,228.443 1448.05,258.747C1452.05,289.112 1445.38,318.445 1448.05,353.112C1449.78,375.712 1458.71,422.005 1458.71,448.958C1458.71,490.445 1436.05,519.779 1433.38,549.112C1430.71,578.445 1419.23,647.561 1398.71,671.425C1372.05,702.445 1317.19,771.779 1237.95,771.779L1237.49,771.778Z" style="stroke-width:5.72px;"/>
		</g>
	</g>
	<g id="Face_Female" transform="matrix(0.912552,0,0,1.09558,-814.513,1132.53)">
		<g>
			<g transform="matrix(1,0,0,0.832936,431.219,-1031.55)">
				<ellipse cx="684.888" cy="490.868" rx="12.684" ry="41.91" style="stroke-width:4.38px;"/>
			</g>
			<g transform="matrix(1,0,0,0.832936,751.219,-1031.55)">
				<ellipse cx="684.888" cy="490.868" rx="12.684" ry="41.91" style="stroke-width:4.38px;"/>
			</g>
		</g>
		<g transform="matrix(0.699066,0,0,0.582277,410.698,-875.186)">
			<path d="M1237.49,771.778C1158.49,771.502 1017.19,548.968 1017.19,448.958C1017.19,422.005 1023.86,289.112 1027.86,258.747C1031.86,228.382 1097.25,107.779 1237.95,107.779C1390.65,107.779 1444.05,228.443 1448.05,258.747C1452.05,289.112 1458.71,422.005 1458.71,448.958C1458.71,550.013 1317.19,771.779 1237.95,771.779L1237.49,771.778Z" style="stroke-width:6.27px;"/>
		</g>
	</g>
	<g id="Helmet_Classic" transform="matrix(0.9375,0,0,0.819242,-10.0757,0)">
		<g id="Left-Earcap_Classic" class="optional">
			<g id="No-Device_Left_Classic" class="option"> </g>
			<g id="Sensor-Stalk_Left_Classic" class="option" transform="matrix(-0.276044,0,0,0.315891,729.949,-85.5922)">
				<g id="Sensor_Left_Sensor-Stalk_Classic">
					<path d="M294.824,1985.62L101.341,1654.63L339.466,1656.53L339.466,1985.62L294.824,1985.62Z" style="stroke-width:15.46px;"/>
					<path d="M345.97,686.244L101.341,1443.38L339.466,1443.38L345.97,686.244Z" style="stroke-width:15.46px;"/>
				</g>
				<g id="Shaft_Left_Sensor-Stalk_Classic">
					<path d="M58.549,1443.38L346.52,555.253L345.97,686.244L101.341,1443.38L304.624,1443.38L304.624,1490.75L58.549,1490.75L58.549,1443.38Z" style="stroke-width:15.46px;"/>
					<path d="M58.549,1654.07L58.549,1606.71L304.624,1606.71L304.624,1654.07L101.013,1654.07L294.824,1985.62L252.36,1985.62L58.549,1654.07Z" style="stroke-width:15.46px;"/>
					<path d="M374.309,1338.85L304.624,1289.86L304.624,1723.21L374.309,1723.21L374.309,1338.85Z" style="stroke-width:15.46px;"/>
					<rect x="294.824" y="1723.21" width="101.261" height="94.728" style="stroke-width:15.46px;"/>
					<rect x="396.085" y="1706.88" width="16.282" height="137.192" style="stroke-width:15.46px;"/>
				</g>
			</g>
			<g id="Ear-Cap_Left_Classic" transform="matrix(4.44444,0,0,5.086,-977.736,-80.3809)">
				<path d="M358.056,156.056L362.541,149.431L358.056,103.556L351.791,99.619L358.056,156.056Z" style="stroke-width:0.96px;"/>
			</g>
			<g id="Antenna_Left_Classic" class="option" transform="matrix(-4.44444,0,0,5.086,1791.16,-40.6465)">
				<path id="Antenna_Left_Antenna_Classic" d="M266.3,95.575L271.494,17.306C271.494,14.696 273.368,14.884 273.312,17.494L269.13,95.575L266.3,95.575Z" style="stroke-width:0.96px;"/>
			</g>
			<g id="Range-Finder_Left_Classic" class="option">
				<g id="Shaft_Left_Range-Finder_Classic" transform="matrix(-4.44444,0,0,5.086,1791.16,-40.6465)">
					<path d="M266.3,95.575L270.666,23.806L273.444,23.994L269.13,95.575L266.3,95.575Z" style="stroke-width:0.96px;"/>
				</g>
				<g id="Finder_Left_Range-Finder_Classic" transform="matrix(-4.44444,0,0,5.086,1787.79,-40.6465)">
					<path d="M266.836,23.806L275.103,23.806L277.541,20.056L295.541,19.119L295.916,14.994L264.836,13.744L266.836,23.806Z" style="stroke-width:0.96px;"/>
				</g>
			</g>
		</g>
		<g id="Right-Earcap_Classic" class="optional">
			<g id="No-Device_Right_Classic" class="option"> </g>
			<g id="Sensor-Stalk_Right_Classic" class="option" transform="matrix(0.276044,0,0,0.315891,38.2122,-85.5922)">
				<g id="Sensor_Right_Sensor-Stalk_Classic">
					<path d="M294.824,1985.62L101.341,1654.63L339.466,1656.53L339.466,1985.62L294.824,1985.62Z" style="stroke-width:15.46px;"/>
					<path d="M345.97,686.244L101.341,1443.38L339.466,1443.38L345.97,686.244Z" style="stroke-width:15.46px;"/>
				</g>
				<g id="Shaft_Right_Sensor-Stalk_Classic">
					<path d="M58.549,1443.38L346.52,555.253L345.97,686.244L101.341,1443.38L304.624,1443.38L304.624,1490.75L58.549,1490.75L58.549,1443.38Z" style="stroke-width:15.46px;"/>
					<path d="M58.549,1654.07L58.549,1606.71L304.624,1606.71L304.624,1654.07L101.013,1654.07L294.824,1985.62L252.36,1985.62L58.549,1654.07Z" style="stroke-width:15.46px;"/>
					<path d="M374.309,1338.85L304.624,1289.86L304.624,1723.21L374.309,1723.21L374.309,1338.85Z" style="stroke-width:15.46px;"/>
					<rect x="294.824" y="1723.21" width="101.261" height="94.728" style="stroke-width:15.46px;"/>
					<rect x="396.085" y="1706.88" width="16.282" height="137.192" style="stroke-width:15.46px;"/>
				</g>
			</g>
			<g id="Ear-Cap_Right_Classic" transform="matrix(-4.44444,0,0,5.086,1745.9,-80.3809)">
				<path d="M358.056,156.056L362.541,149.431L358.056,103.556L351.791,99.619L358.056,156.056Z" style="stroke-width:0.96px;"/>
			</g>
			<g id="Antenna_Right_Classic" class="option" transform="matrix(4.44444,0,0,5.086,-1023,-40.6465)">
				<path id="Antenna_Right_Antenna_Classic" d="M266.3,95.575L271.494,17.306C271.494,14.696 273.368,14.884 273.312,17.494L269.13,95.575L266.3,95.575Z" style="stroke-width:0.96px;"/>
			</g>
			<g id="Range-Finder_Right_Classic" class="option">
				<g id="Shaft_Right_Range-Finder_Classic" transform="matrix(4.44444,0,0,5.086,-1023,-40.6465)">
					<path d="M266.3,95.575L270.666,23.806L273.444,23.994L269.13,95.575L266.3,95.575Z" style="stroke-width:0.96px;"/>
				</g>
				<g id="Finder_Right_Range-Finder_Classic" transform="matrix(4.44444,0,0,5.086,-1018.56,-40.6465)">
					<path d="M266.836,23.806L275.103,23.806L277.541,20.056L295.541,19.119L295.916,14.994L264.836,13.744L266.836,23.806Z" style="stroke-width:0.96px;"/>
				</g>
			</g>
		</g>
		<g id="Helmet_Parts_Classic">
			<g id="Dome_Classic" transform="matrix(1.06667,0,0,1.22064,10.7474,0)">
				<path d="M159.201,357.67L159.215,357.545L159.219,356.358C159.881,256.837 243.807,175.998 347.886,173.99L347.886,173.951L349.131,173.955L349.87,173.962L350.609,173.955L351.854,173.951L351.854,173.99C455.933,175.998 539.86,256.837 540.522,356.358L540.526,357.545L540.539,357.67C532.482,358.691 477.141,365.632 448.673,367.441C419.802,369.275 361.358,369.706 349.87,369.773C338.383,369.706 279.938,369.275 251.067,367.441C222.599,365.632 167.258,358.691 159.201,357.67Z" style="stroke-width:4px;"/>
			</g>
			<g id="Eyes_Classic" transform="matrix(4.76481,0,0,5.086,-1113.44,-31.4488)">
				<path d="M329.627,168.432L298.89,168.432C298.89,168.432 298.14,142.9 296.265,134.307C294.883,127.971 292.015,121.223 287.64,116.869C283.265,112.515 270.015,108.182 270.015,108.182L271.577,91.994C271.577,91.994 285.256,93.9 292.14,94.369C298.603,94.809 311.687,94.913 314.258,94.929C316.83,94.913 329.913,94.809 336.377,94.369C343.26,93.9 356.939,91.994 356.939,91.994L358.502,108.182C358.502,108.182 345.252,112.515 340.877,116.869C336.502,121.223 333.634,127.971 332.252,134.307C330.379,142.891 329.628,168.378 329.627,168.432Z" style="stroke-width:0.93px;"/>
			</g>
			<g id="Visor_Classic" transform="matrix(4.76481,0,0,5.086,-1113.44,-31.4488)">
				<path d="M322.516,168.432L306,168.432L306,108.182C306,108.182 296.822,107.277 292.359,106.182C286.924,104.848 273.39,100.182 273.39,100.182L273.577,96.807C273.577,96.807 286.06,99.089 292.359,99.807C298.525,100.51 306.958,101.468 314.258,101.468C321.558,101.468 329.992,100.51 336.158,99.807C342.457,99.089 354.939,96.807 354.939,96.807L355.127,100.182C355.127,100.182 341.593,104.848 336.158,106.182C331.694,107.277 322.516,108.182 322.516,108.182L322.516,168.432Z" style="stroke-width:0.93px;"/>
			</g>
			<g id="Cheeks_Classic" transform="matrix(1.06667,0,0,1.22064,-45.2839,-80.3809)">
				<g transform="matrix(1,0,0,1,-713.253,0)">
					<path d="M1313.64,491.139L1332.55,665.844L1306.31,667.928L1186.26,738.761L1184.41,738.841C1185.03,721.206 1188.5,631.905 1196.03,599.698C1202.2,573.3 1215.01,545.185 1234.56,527.042C1252.64,510.253 1305.81,493.539 1313.64,491.139Z" style="stroke-width:4px;"/>
				</g>
				<g transform="matrix(1,0,0,1,-713.253,0)">
					<path d="M917.674,491.044C924.255,493.062 978.405,510.014 996.748,527.042C1016.29,545.185 1029.1,573.3 1035.28,599.698C1042.81,631.907 1046.28,721.216 1046.9,738.841L1045.05,738.761L924.996,667.928L898.753,665.844L917.674,491.044Z" style="stroke-width:4px;"/>
				</g>
			</g>
			<g id="Face_Classic" transform="matrix(1.06667,0,0,1.22064,-45.2839,-80.3809)">
				<g transform="matrix(4.46701,0,0,4.16667,-1001.39,40.0872)">
					<path d="M271.577,150.432C271.577,150.432 273.051,139.658 275.265,134.307C277.515,128.869 281.827,122.869 286.702,123.807C290.604,124.557 298.327,144.244 298.89,168.432C298.515,168.057 271.577,150.432 271.577,150.432Z" style="stroke-width:0.93px;"/>
				</g>
				<g transform="matrix(-4.46701,0,0,4.16667,1806.19,40.0872)">
					<path d="M271.577,150.432C271.577,150.432 273.051,139.658 275.265,134.307C277.515,128.869 281.827,122.869 286.702,123.807C290.604,124.557 298.327,144.244 298.89,168.432C298.515,168.057 271.577,150.432 271.577,150.432Z" style="stroke-width:0.93px;"/>
				</g>
			</g>
		</g>
	</g>
	<g id="Helmet_Nite-Owl" transform="matrix(1,0,0,1,110.736,15.0685)">
		<g id="Left-Earcap_Nite" class="optional">
			<g id="No-Device_Left_Nite" class="option"></g>
			<g id="Sensor-Stalk_Left_Nite" class="option" transform="matrix(-0.258791,0,0,0.258791,561.515,-90.1892)">
				<g id="Sensor_Left_Sensor-Stalk_Nite">
					<path d="M294.824,1985.62L101.341,1654.63L339.466,1656.53L339.466,1985.62L294.824,1985.62Z" style="stroke-width:15.46px;"/>
					<path d="M345.97,686.244L101.341,1443.38L339.466,1443.38L345.97,686.244Z" style="stroke-width:15.46px;"/>
				</g>
				<g id="Shaft_Left_Sensor-Stalk_Nite">
					<path d="M58.549,1443.38L346.52,555.253L345.97,686.244L101.341,1443.38L304.624,1443.38L304.624,1490.75L58.549,1490.75L58.549,1443.38Z" style="stroke-width:15.46px;"/>
					<path d="M58.549,1654.07L58.549,1606.71L304.624,1606.71L304.624,1654.07L101.013,1654.07L294.824,1985.62L252.36,1985.62L58.549,1654.07Z" style="stroke-width:15.46px;"/>
					<path d="M374.309,1338.85L304.624,1289.86L304.624,1723.21L374.309,1723.21L374.309,1338.85Z" style="stroke-width:15.46px;"/>
					<rect x="294.824" y="1723.21" width="101.261" height="94.728" style="stroke-width:15.46px;"/>
					<rect x="396.085" y="1706.88" width="16.282" height="137.192" style="stroke-width:15.46px;"/>
				</g>
			</g>
			<path id="Antenna_Left_Nite" class="option" d="M433.832,337.621L417.006,23.482C416.773,12.608 424.581,11.824 424.581,22.701L445.986,345.26L433.832,337.621Z" style="stroke-width:4px;"/>
			<g id="Ear-Cap_Left_Nite" transform="matrix(0.631421,0,0,0.771921,-4.31847,4.10746)">
				<g transform="matrix(6.59097,0,0,5.39132,-1636.73,-111.189)">
					<path d="M358.056,156.056L362.541,149.431L358.056,103.556L351.791,99.619L358.056,156.056Z" style="stroke-width:0.96px;"/>
				</g>
				<g transform="matrix(-0.382536,0,0,0.31291,873.154,-47.1754)">
					<path d="M470.837,1789.41L381.323,1696.77" style="stroke-width:16.56px;"/>
				</g>
			</g>
			<g id="Range-Finder_Left_Nite" class="option" transform="matrix(0.639286,0,0,0.781536,-6.87063,0)">
				<g id="Shaft_Left_Range-Finder_Nite" transform="matrix(-6.50989,0,0,5.325,2444.58,-60.3018)">
					<path d="M266.836,86.244L270.666,23.806L273.444,23.994L269.666,86.244L266.836,86.244Z" style="stroke-width:0.96px;"/>
				</g>
				<g id="Finder_Left_Range-Finder_Nite" transform="matrix(-6.50989,0,0,5.325,2438.07,-60.3018)">
					<path d="M266.836,23.806L275.103,23.806L277.541,20.056L295.541,19.119L295.916,14.994L264.836,13.744L266.836,23.806Z" style="stroke-width:0.96px;"/>
				</g>
				<g id="Base_Left_Range-Finder_Nite" transform="matrix(1.56425,0,0,1.27953,10.7474,0)">
					<path d="M434.34,401.852L427.671,334.939L417.93,334.159L417.93,292.022L430.792,292.802L434.954,311.53L450.04,310.749L456.516,379.04L434.34,401.852Z" style="stroke-width:4px;"/>
				</g>
			</g>
		</g>
		<g id="Right-Earcap_Nite" class="optional">
			<g id="No-Device_Right_Nite" class="option"></g>
			<g id="Sensor-Stalk_Right_Nite" class="option" transform="matrix(0.258791,0,0,0.258791,-82.9881,-90.1892)">
				<g id="Sensor_Right_Sensor-Stalk_Nite">
					<path d="M294.824,1985.62L101.341,1654.63L339.466,1656.53L339.466,1985.62L294.824,1985.62Z" style="stroke-width:15.46px;"/>
					<path d="M345.97,686.244L101.341,1443.38L339.466,1443.38L345.97,686.244Z" style="stroke-width:15.46px;"/>
				</g>
				<g id="Shaft_Right_Sensor-Stalk_Nite">
					<path d="M58.549,1443.38L346.52,555.253L345.97,686.244L101.341,1443.38L304.624,1443.38L304.624,1490.75L58.549,1490.75L58.549,1443.38Z" style="stroke-width:15.46px;"/>
					<path d="M58.549,1654.07L58.549,1606.71L304.624,1606.71L304.624,1654.07L101.013,1654.07L294.824,1985.62L252.36,1985.62L58.549,1654.07Z" style="stroke-width:15.46px;"/>
					<path d="M374.309,1338.85L304.624,1289.86L304.624,1723.21L374.309,1723.21L374.309,1338.85Z" style="stroke-width:15.46px;"/>
					<rect x="294.824" y="1723.21" width="101.261" height="94.728" style="stroke-width:15.46px;"/>
					<rect x="396.085" y="1706.88" width="16.282" height="137.192" style="stroke-width:15.46px;"/>
				</g>
			</g>
			<path id="Antenna_Right_Nite" class="option" d="M31.296,346.043L52.752,22.701C52.752,11.824 60.561,12.608 60.328,23.482L43.46,338.398L31.296,346.043Z" style="stroke-width:4px;"/>
			<g id="Ear-Cap_Right_Nite" transform="matrix(-0.631421,0,0,0.771921,482.846,4.10746)">
				<g transform="matrix(6.59097,0,0,5.39132,-1636.73,-111.189)">
					<path d="M358.056,156.056L362.541,149.431L358.056,103.556L351.791,99.619L358.056,156.056Z" style="stroke-width:0.96px;"/>
				</g>
				<g transform="matrix(-0.382536,0,0,0.31291,873.154,-47.1754)">
					<path d="M470.837,1789.41L381.323,1696.77" style="stroke-width:16.56px;"/>
				</g>
			</g>
			<g id="Range-Finder_Right_Nite" class="option" transform="matrix(-0.639286,0,0,0.781536,484.634,0)">
				<g id="Shaft_Right_Range-Finder_Nite" transform="matrix(-6.50989,0,0,5.325,2444.58,-60.3018)">
					<path d="M266.836,86.244L270.666,23.806L273.444,23.994L269.666,86.244L266.836,86.244Z" style="stroke-width:0.96px;"/>
				</g>
				<g id="Finder_Right_Range-Finder_Nite" transform="matrix(-6.50989,0,0,5.325,2438.07,-60.3018)">
					<path d="M266.836,23.806L275.103,23.806L277.541,20.056L295.541,19.119L295.916,14.994L264.836,13.744L266.836,23.806Z" style="stroke-width:0.96px;"/>
				</g>
				<g id="Base_Right_Range-Finder_Nite" transform="matrix(1.56425,0,0,1.27953,10.7474,0)">
					<path d="M434.34,401.852L427.671,334.939L417.93,334.159L417.93,292.022L430.792,292.802L434.954,311.53L450.04,310.749L456.516,379.04L434.34,401.852Z" style="stroke-width:4px;"/>
				</g>
			</g>
		</g>
		<g id="Helmet_Pieces_Nite">
			<g id="Dome_Nite" transform="matrix(1,0,0,1,-641.074,-7.10543e-15)">
				<path d="M689.572,341.168L689.312,341.168L689.316,339.982C689.978,240.58 773.804,159.838 877.758,157.832L877.758,157.794L879.001,157.797L879.74,157.804L880.478,157.797L881.721,157.794L881.721,157.832C985.676,159.838 1069.5,240.58 1070.16,339.982L1070.17,341.168L1070.17,341.181C1065.84,341.401 1008.23,344.343 978.684,346.221C949.847,348.053 891.473,348.483 879.999,348.55C868.526,348.483 810.151,348.053 781.315,346.221C750.602,344.269 689.572,341.168 689.572,341.168Z" style="stroke-width:4px;"/>
			</g>
			<g id="Eyes_Nite" transform="matrix(4.46166,0,0,4.16168,-1163.45,-41.6827)">
				<path d="M321.506,168.432L307.01,168.432C307.01,168.432 301.388,142.9 299.513,134.307C298.131,127.971 292.015,121.223 287.64,116.869C283.265,112.515 270.353,104.191 270.353,104.191L271.577,91.994C271.577,91.994 285.256,92.74 292.14,93.208C298.603,93.649 311.687,93.752 314.258,93.768C316.83,93.752 329.913,93.649 336.377,93.208C343.26,92.74 356.939,91.994 356.939,91.994L358.163,103.647C358.163,103.647 345.252,112.515 340.877,116.869C336.502,121.223 330.386,127.971 329.003,134.307C327.13,142.891 321.508,168.378 321.506,168.432Z" style="stroke-width:0.93px;"/>
			</g>
			<g id="Visor_Nite" transform="matrix(4.46166,0,0,4.16168,-1163.45,-41.6827)">
				<path d="M317.103,168.432L311.414,168.432L306,111.664C306,111.664 296.18,110.724 291.682,109.809C280.664,107.569 273.577,97.967 273.577,97.967C273.577,97.967 286.06,96.767 292.359,97.485C309.355,99.422 311.37,107.805 314.258,110.902C317.147,107.805 319.179,99.42 336.158,97.485C342.457,96.767 354.939,97.967 354.939,97.967C354.939,97.967 346.161,108.113 335.481,109.809C330.952,110.528 322.516,111.664 322.516,111.664L317.103,168.432Z" style="stroke-width:0.93px;"/>
			</g>
			<g id="Cheeks_Nite" transform="matrix(1,0,0,1,-641.51,386)">
				<g transform="matrix(0.241542,0,0,0.241542,570.225,-423.555)">
					<path d="M2117.37,1963.4C2117.37,1963.4 1885.7,2081.34 1765.81,2240.63C1543.13,2536.46 1415.63,2883.34 1415.63,2883.34C1415.63,2883.34 1506.59,2325.92 1617.37,2138.4C1719.55,1965.45 2092.83,1768.09 2092.83,1768.09L2117.37,1963.4Z" style="stroke-width:16.56px;"/>
				</g>
				<g transform="matrix(-0.241542,0,0,0.241542,1188.62,-423.555)">
					<path d="M2111.12,1969.65C2111.12,1969.65 1885.7,2081.34 1765.81,2240.63C1543.13,2536.46 1412.52,2887.08 1412.52,2887.08C1412.52,2887.08 1506.59,2325.92 1617.37,2138.4C1719.55,1965.45 2093.5,1781.89 2093.5,1781.89L2111.12,1969.65Z" style="stroke-width:16.56px;"/>
				</g>
			</g>
			<g id="Face_Nite" transform="matrix(0.639286,0,0,0.781536,-6.87063,0)">
				<g transform="matrix(1.56425,0,0,1.27953,-993.514,0)">
					<path d="M678.758,438.23C680.841,439.271 733.716,465.938 762.102,503.65C812.813,571.019 843.755,650.15 847.128,658.981C829.654,658.029 815.041,656.24 808.328,653.615C776.921,641.332 688.421,585.406 688.421,585.406L665.866,567.733L678.758,438.23Z" style="stroke-width:4px;"/>
				</g>
				<g transform="matrix(1.56425,0,0,1.27953,-993.514,0)">
					<path d="M1080.47,437.308L1095.49,566.216L1069.28,585.406C1069.28,585.406 980.776,641.332 949.369,653.615C942.86,656.16 928.925,657.919 912.157,658.891C912.244,658.657 943.03,575.007 996.742,503.65C1023.21,468.481 1072.24,441.657 1080.47,437.308Z" style="stroke-width:4px;"/>
				</g>
			</g>
		</g>
	</g>
</svg>
