<?xml version="1.0" encoding="utf-8"?>
<!-- Generator: Adobe Illustrator 25.0.0, SVG Export Plug-In . SVG Version: 6.00 Build 0)  -->
<svg version="1.1" id="Layer_1" xmlns:serif="http://www.serif.com/"
	 xmlns="http://www.w3.org/2000/svg" xmlns:xlink="http://www.w3.org/1999/xlink" x="0px" y="0px" viewBox="0 0 700 700"
	 style="enable-background:new 0 0 700 700;" xml:space="preserve">
<g id="Helmet_Classic">
	<g id="Left-Earcap_Classic_Toggle">
		<path id="Antenna_Left_Classic_Option" class="st0" d="M559.6,364.9L537.9,38.8c0-10.9-7.8-10.1-7.6,0.8l17.4,325.3H559.6z"/>
		<g id="Sensor-Stalk_Left_Classic_Option">
			<g id="Sensor_Left_Sensor-Stalk_Classic">
				<path class="st0" d="M596,443.7l50.1-85.7l-61.6,0.5v85.2H596z"/>
				<path class="st0" d="M582.7,107.5L646,303.4h-61.6L582.7,107.5z"/>
			</g>
			<g id="Shaft_Left_Sensor-Stalk_Classic">
				<path class="st0" d="M657.1,303.4L582.6,73.6l0.1,33.9L646,303.4h-52.6v12.3h63.7L657.1,303.4L657.1,303.4z"/>
				<path class="st0" d="M657.1,357.9v-12.3h-63.7v12.3h52.7L596,443.7h11L657.1,357.9z"/>
				<path class="st0" d="M575.4,276.4l18-12.7v112.1h-18V276.4z"/>
				<rect x="569.7" y="375.8" class="st0" width="26.2" height="24.5"/>
				<rect x="565.5" y="371.6" class="st0" width="4.2" height="35.5"/>
			</g>
		</g>
		<g id="Range-Finder_Left_Classic_Option">
			<path id="Shaft_Left_Range-Finder_Classic" class="st0" d="M559.6,364.9l-18.2-299l-11.6,0.8l18,298.3h11.8V364.9z"/>
			<path id="Finder_Left_Range-Finder_Classic" class="st0" d="M554.2,65.9h-34.4l-10.2-15.6l-75-3.9L433,29.2L562.5,24L554.2,65.9z
				"/>
		</g>
		<path id="Ear-Cap_Left_Classic" class="st0" d="M565.2,584.4l18.7-27.6l-18.7-191.1l-26.1-16.4L565.2,584.4z"/>
		<g id="No-Device_Left_Classic_Option">
		</g>
	</g>
	<g id="Right-Earcap_Classic_Toggle">
		<path id="Antenna_Right_Classic_Option" class="st0" d="M140.4,364.9L162,38.8c0-10.9,7.8-10.1,7.6,0.8l-17.4,325.3L140.4,364.9
			L140.4,364.9z"/>
		<g id="Sensor-Stalk_Right_Classic_Option">
			<g id="Sensor_Right_Sensor-Stalk_Classic">
				<path class="st0" d="M104,443.7l-50-85.6l61.6,0.5v85.2L104,443.7L104,443.7z"/>
				<path class="st0" d="M117.3,107.5L54,303.4h61.6L117.3,107.5z"/>
			</g>
			<g id="Shaft_Right_Sensor-Stalk_Classic">
				<path class="st0" d="M42.9,303.4l74.5-229.8l-0.1,33.9L54,303.4h52.6v12.3H42.9V303.4z"/>
				<path class="st0" d="M42.9,357.9v-12.3h63.7v12.3H53.9l50.2,85.8h-11L42.9,357.9z"/>
				<path class="st0" d="M124.6,276.4l-18-12.7v112.1h18V276.4z"/>
				<rect x="104" y="375.8" class="st0" width="26.2" height="24.5"/>
				<rect x="130.3" y="371.6" class="st0" width="4.2" height="35.5"/>
			</g>
		</g>
		<g id="Range-Finder_Right_Classic_Option">
			<path id="Shaft_Right_Range-Finder_Classic" class="st0" d="M140.4,364.9l18.2-299l11.6,0.8l-18,298.3h-11.8V364.9z"/>
			<path id="Finder_Right_Range-Finder_Classic" class="st0" d="M146.8,65.9h34.4l10.2-15.6l75-3.9l1.6-17.2L138.5,24L146.8,65.9z"
				/>
		</g>
		<path id="Ear-Cap_Right_Classic" class="st0" d="M134.8,584.4l-18.7-27.6l18.7-191.1l26.1-16.4L134.8,584.4z"/>
		<g id="No-Device_Right_Classic_Option">
		</g>
	</g>
	<g id="Helmet_Pieces_Classic">
		<path id="Dome_Classic" class="st0" d="M159.2,357.7v-0.1v-1.2c0.7-99.5,84.6-180.4,188.7-182.4l0,0h1.2h0.7h0.7h1.2l0,0
			c104.1,2,188,82.8,188.7,182.4v1.2v0.1c-8.1,1-63.4,8-91.9,9.8c-28.9,1.8-87.3,2.3-98.8,2.3c-11.5-0.1-69.9-0.5-98.8-2.3
			C222.6,365.6,167.3,358.7,159.2,357.7z"/>
		<path id="Eyes_Classic" class="st0" d="M418.5,676H281.2c0,0-3.4-106.4-11.7-142.2c-6.2-26.4-19-54.5-38.5-72.7
			C211.4,443,152.2,425,152.2,425l7-67.4c0,0,61.1,7.9,91.9,9.9c28.9,1.8,87.3,2.3,98.8,2.3c11.5-0.1,69.9-0.5,98.8-2.3
			c30.8-2,91.9-9.9,91.9-9.9l7,67.4c0,0-59.2,18.1-78.7,36.2s-32.4,46.3-38.5,72.7C421.9,569.6,418.5,675.8,418.5,676z"/>
		<path id="Visor_Classic" class="st0" d="M386.8,676H313V425c0,0-41-3.8-60.9-8.3c-24.3-5.6-84.7-25-84.7-25l0.8-14.1
			c0,0,55.8,9.5,83.9,12.5c27.5,2.9,65.2,6.9,97.8,6.9s70.3-4,97.8-6.9c28.1-3,83.9-12.5,83.9-12.5l0.8,14.1c0,0-60.5,19.4-84.7,25
			c-19.9,4.6-60.9,8.3-60.9,8.3L386.8,676L386.8,676z"/>
		<g id="Cheeks_Classic">
			<path class="st0" d="M547.9,425.3L566.8,600l-26.2,2.1l-120.1,70.8l-1.9,0.1c0.6-17.6,4.1-106.9,11.6-139.1
				c6.2-26.4,19-54.5,38.5-72.7C486.9,444.4,540,427.7,547.9,425.3z"/>
			<path class="st0" d="M151.9,425.2c6.6,2,60.7,19,79.1,36c19.5,18.1,32.4,46.3,38.5,72.7c7.5,32.2,11,121.5,11.6,139.1l-1.9-0.1
				l-120.1-70.8L133,600L151.9,425.2z"/>
		</g>
		<g id="Face_Classic">
			<path class="st0" d="M159.2,601c0,0,6.6-44.9,16.5-67.2c10.1-22.7,29.3-47.7,51.1-43.8c17.4,3.1,51.9,85.2,54.4,185.9
				C279.5,674.5,159.2,601,159.2,601z"/>
			<path class="st0" d="M540.5,601c0,0-6.6-44.9-16.5-67.2c-10.1-22.7-29.3-47.7-51.1-43.8c-17.4,3.1-51.9,85.2-54.4,185.9
				C420.2,674.5,540.5,601,540.5,601z"/>
		</g>
	</g>
</g>
<g id="Helmet_Nite">
	<g id="Left-Earcap_Nite_Toggle">
		<path id="Antenna_Left_Nite_Option" class="st0" d="M544.6,352.7L527.7,38.5c-0.2-10.9,7.6-11.7,7.6-0.8l21.4,322.6L544.6,352.7z"
			/>
		<g id="Sensor-Stalk_Left_Nite_Option">
			<g id="Sensor_Left_Sensor-Stalk_Nite">
				<path class="st0" d="M596,438.7l50.1-85.7l-61.6,0.5v85.2H596z"/>
				<path class="st0" d="M582.7,102.5L646,298.4h-61.6L582.7,102.5z"/>
			</g>
			<g id="Shaft_Left_Sensor-Stalk_Nite">
				<path class="st0" d="M657.1,298.4L582.6,68.6l0.1,33.9L646,298.4h-52.6v12.3h63.7L657.1,298.4L657.1,298.4z"/>
				<path class="st0" d="M657.1,352.9v-12.3h-63.7v12.3h52.7L596,438.7h11L657.1,352.9z"/>
				<path class="st0" d="M575.4,271.4l18-12.7v112.1h-18V271.4z"/>
				<rect x="569.7" y="370.8" class="st0" width="26.2" height="24.5"/>
				<rect x="565.5" y="366.6" class="st0" width="4.2" height="35.5"/>
			</g>
		</g>
		<g id="Ear-Cap_Left_Nite">
			<path class="st0" d="M563.1,582.8l18.7-27.6l-18.7-190.9L537,347.9L563.1,582.8z"/>
			<path class="st0" d="M544,415l21.6-22.4"/>
		</g>
		<g id="Range-Finder_Left_Nite_Option">
			<path id="Shaft_Left_Range-Finder_Nite" class="st0" d="M556.2,326.9L540.2,67l-11.6,0.8l15.7,259.1L556.2,326.9L556.2,326.9z"/>
			<path id="Finder_Left_Range-Finder_Nite" class="st0" d="M552,67h-34.4l-10.1-15.6l-74.9-3.9L431,30.3l129.3-5.2L552,67z"/>
			<path id="Base_Left_Range-Finder_Nite" class="st0" d="M545.1,416.9l-6.7-66.9l-9.7-0.8v-42.1l12.9,0.8l4.2,18.7l15.1-0.8
				l6.5,68.3L545.1,416.9z"/>
		</g>
		<g id="No-Device_Left_Nite_Option">
		</g>
	</g>
	<g id="Right-Earcap_Nite_Toggle">
		<path id="Antenna_Right_Nite_Option" class="st0" d="M142,361.1l21.5-323.3c0-10.9,7.8-10.1,7.6,0.8l-16.9,314.9L142,361.1z"/>
		<g id="Sensor-Stalk_Right_Nite_Option">
			<g id="Sensor_Right_Sensor-Stalk_Nite">
				<path class="st0" d="M104,438.7l-50-85.6l61.6,0.5v85.2L104,438.7L104,438.7z"/>
				<path class="st0" d="M117.3,102.5L54,298.4h61.6L117.3,102.5z"/>
			</g>
			<g id="Shaft_Right_Sensor-Stalk_Nite">
				<path class="st0" d="M42.9,298.4l74.5-229.8l-0.1,33.9L54,298.4h52.6v12.3H42.9V298.4z"/>
				<path class="st0" d="M42.9,352.9v-12.3h63.7v12.3H53.9l50.2,85.8h-11L42.9,352.9z"/>
				<path class="st0" d="M124.6,271.4l-18-12.7v112.1h18V271.4z"/>
				<rect x="104" y="370.8" class="st0" width="26.2" height="24.5"/>
				<rect x="130.3" y="366.6" class="st0" width="4.2" height="35.5"/>
			</g>
		</g>
		<g id="Ear-Cap_Right_Nite">
			<path class="st0" d="M136.9,582.8l-18.7-27.6l18.7-190.9l26.1-16.4L136.9,582.8z"/>
			<path class="st0" d="M156,415l-21.6-22.4"/>
		</g>
		<g id="Range-Finder_Right_Nite_Option">
			<path id="Shaft_Right_Range-Finder_Nite" class="st0" d="M143.1,326.9L159,67l11.6,0.8l-15.7,259.1L143.1,326.9L143.1,326.9z"/>
			<path id="Finder_Right_Range-Finder_Nite" class="st0" d="M147.2,67h34.4l10.1-15.6l74.9-3.9l1.6-17.2l-129.3-5.2L147.2,67z"/>
			<path id="Base_Right_Range-Finder_Nite" class="st0" d="M154.2,416.9l6.7-66.9l9.7-0.8v-42.1l-12.9,0.8l-4.2,18.7l-15.1-0.8
				l-6.5,68.3L154.2,416.9z"/>
		</g>
		<g id="No-Device_Right_Nite_Option">
		</g>
	</g>
	<g id="Helmet_Pieces_Nite">
		<path id="Dome_Nite" class="st0" d="M159.2,356.2H159V355c0.7-99.4,84.5-180.1,188.4-182.1l0,0h1.2h0.7h0.7h1.2l0,0
			c104,2,187.8,82.7,188.4,182.1v1.2l0,0c-4.3,0.2-61.9,3.2-91.5,5c-28.8,1.8-87.2,2.3-98.7,2.3c-11.5-0.1-69.8-0.5-98.7-2.3
			C220.3,359.3,159.2,356.2,159.2,356.2z"/>
		<path id="Eyes_Nite" class="st0" d="M381.7,674.3H317c0,0-25.1-106.3-33.5-142c-6.2-26.4-33.5-54.4-53-72.6s-77-52.7-77-52.7
			l5.5-50.8c0,0,61,3.1,91.7,5.1c28.8,1.8,87.2,2.3,98.7,2.3c11.5-0.1,69.8-0.5,98.7-2.3c30.7-2,91.7-5.1,91.7-5.1l5.5,48.5
			c0,0-57.6,36.9-77.1,55s-46.8,46.2-53,72.6C406.8,568.1,381.7,674.1,381.7,674.3z"/>
		<path id="Visor_Nite" class="st0" d="M362.1,674.3h-25.4l-24.2-236.2c0,0-43.8-3.9-63.9-7.7c-49.2-9.3-80.8-49.3-80.8-49.3
			s55.7-5,83.8-2c75.8,8.1,84.8,42.9,97.7,55.8c12.9-12.9,22-47.8,97.7-55.8c28.1-3,83.8,2,83.8,2s-39.2,42.2-86.8,49.3
			c-20.2,3-57.8,7.7-57.8,7.7L362.1,674.3z"/>
		<g id="Cheeks_Nite">
			<path class="st0" d="M550.9,451.8c0,0-56,28.5-84.9,67C412.2,590.2,381.4,674,381.4,674s22-134.6,48.7-179.9
				c24.7-41.8,114.8-89.4,114.8-89.4L550.9,451.8z"/>
			<path class="st0" d="M147.9,453.3c0,0,54.4,27,83.4,65.5c53.8,71.5,85.3,156.1,85.3,156.1S293.9,539.3,267.2,494
				c-24.7-41.8-115-86.1-115-86.1L147.9,453.3z"/>
		</g>
		<g id="Face_Nite">
			<path class="st0" d="M147.5,453.3c2.1,1,55,27.7,83.3,65.4c50.7,67.4,81.7,146.5,85,155.3c-17.5-1-32.1-2.7-38.8-5.4
				c-31.4-12.3-119.9-68.2-119.9-68.2l-22.6-17.7L147.5,453.3z"/>
			<path class="st0" d="M549.2,452.4l15,128.9L538,600.5c0,0-88.5,55.9-119.9,68.2c-6.5,2.5-20.4,4.3-37.2,5.3
				c0.1-0.2,30.9-83.9,84.6-155.2C491.9,483.5,541,456.7,549.2,452.4z"/>
		</g>
	</g>
</g>
<g id="Helmet_Stalker-Large">
	<g id="Left-Earcap_Stalker-Large_Toggle">
		<path id="Antenna_Left_Stalker-Large_Option" class="st0" d="M562,361.1L540.6,37.8c0-10.9-7.8-10.1-7.6,0.8l16.9,314.9L562,361.1
			z"/>
		<g id="Sensor-Stalk_Left_Stalker-Large_Option">
			<g id="Sensor_Left_Sensor-Stalk_Stalker-Large">
				<path class="st0" d="M606,429.4l43-89.4l-61.4,5.5l6.9,84.9L606,429.4z"/>
				<path class="st0" d="M565.6,95.3l78.9,190.2l-61.4,5L565.6,95.3z"/>
			</g>
			<g id="Shaft_Left_Sensor-Stalk_Stalker-Large">
				<path class="st0" d="M655.6,284.6L562.8,61.5l2.9,33.8l78.9,190.2l-52.4,4.3l1,12.2l63.5-5.1L655.6,284.6z"/>
				<path class="st0" d="M660,338.9l-1-12.2l-63.5,5.1l1,12.2l52.5-4.3l-43,89.7l11-0.9L660,338.9z"/>
				<path class="st0" d="M572,264.2l17-14.1l9.1,111.8l-18,1.5L572,264.2z"/>
				<path class="st0" d="M574.4,363.8l26.1-2.1l2,24.4l-26.1,2.1L574.4,363.8z"/>
				<path class="st0" d="M569.9,359.9l4.2-0.3L577,395l-4.2,0.3L569.9,359.9z"/>
			</g>
		</g>
		<g id="Range-Finder_Left_Stalker-Large_Option">
			<path id="Shaft_Left_Range-Finder_Stalker-Large" class="st0" d="M550.5,332.6l10.8-1L538.1,78.8l-10.8,1L550.5,332.6z"/>
			<g id="Finder_Left_Range-Finder_Stalker-Large">
				<path id="Bottom_Left_Range-Finder_Stalker-Large" class="st0" d="M557.9,55.2L546.8,78l-26.6,2.4L503.8,71l-55.2,5.1L439.8,66
					L557.9,55.2z"/>
				<path id="Top_Left_Range-Finder_Stalker-Large" class="st0" d="M568.3,54.2L430.2,66.9l-0.7-7.2l143.7-13.2L568.3,54.2z"/>
			</g>
		</g>
		<g id="Ear-Cap_Left_Stalker-Large">
			<path class="st0" d="M540.9,303l25.8,17.8l10.1,111.7l-22.2,22.1L540.9,303z"/>
			<path class="st0" d="M552.2,375.4c-0.1-1.2,0.8-2.2,2-2.3l10.4-0.9c1.2-0.1,2.2,0.8,2.3,2s-0.8,2.2-2,2.3l-10.4,0.9
				C553.3,377.4,552.3,376.6,552.2,375.4z"/>
		</g>
		<g id="No-Device_Left_Stalker-Large_Option">
		</g>
	</g>
	<g id="Right-Earcap_Stalker-Large_Toggle">
		<path id="Antenna_Right_Stalker-Large_Option" class="st0" d="M142,361.1l21.5-323.3c0-10.9,7.8-10.1,7.6,0.8l-16.9,314.9
			L142,361.1z"/>
		<g id="Sensor-Stalk_Right_Stalker-Large_Option">
			<g id="Sensor_Right_Sensor-Stalk_Stalker-Large">
				<path class="st0" d="M98,429.4L55,340l61.4,5.5l-6.9,84.9L98,429.4z"/>
				<path class="st0" d="M138.4,95.3L59.5,285.5l61.4,5L138.4,95.3z"/>
			</g>
			<g id="Shaft_Right_Sensor-Stalk_Stalker-Large">
				<path class="st0" d="M48.4,284.6l92.9-223.1l-2.9,33.8L59.5,285.5l52.4,4.3l-1,12.2l-63.5-5.1L48.4,284.6z"/>
				<path class="st0" d="M44,338.9l1-12.2l63.5,5.1l-1,12.2L55,339.8l43,89.6l-11-0.9L44,338.9z"/>
				<path class="st0" d="M132.1,264.2l-17-14.1L106,361.9l18,1.5L132.1,264.2z"/>
				<path class="st0" d="M129.6,363.8l-26.1-2.1l-2,24.4l26.1,2.1L129.6,363.8z"/>
				<path class="st0" d="M134.2,359.9l-4.2-0.3l-2.9,35.4l4.2,0.3L134.2,359.9z"/>
			</g>
		</g>
		<g id="Range-Finder_Right_Stalker-Large_Option">
			<path id="Shaft_Right_Range-Finder_Stalker-Large" class="st0" d="M153.2,332.6l-10.8-1l23.2-252.8l10.8,1L153.2,332.6z"/>
			<g id="Finder_Right_Range-Finder_Stalker-Large">
				<path id="Bottom_Right_Range-Finder_Stalker-Large" class="st0" d="M145.9,55.2l11,22.8l26.6,2.4l16.3-9.4l55.2,5.1l9-10.1
					L145.9,55.2z"/>
				<path id="Top_Right_Range-Finder_Stalker-Large" class="st0" d="M135.5,54.2l138.1,12.7l0.7-7.2L130.5,46.5L135.5,54.2z"/>
			</g>
		</g>
		<g id="Ear-Cap_Right_Stalker-Large">
			<path class="st0" d="M162.8,303L137,320.8l-10.1,111.7l22.2,22.1L162.8,303z"/>
			<path class="st0" d="M151.5,375.4c0.1-1.2-0.8-2.2-2-2.3l-10.4-0.9c-1.2-0.1-2.2,0.8-2.3,2s0.8,2.2,2,2.3l10.4,0.9
				C150.4,377.4,151.4,376.6,151.5,375.4z"/>
		</g>
		<g id="No-Device_Right_Stalker-Large_Option">
		</g>
	</g>
	<g id="Helmet_Pieces_Stalker-Large">
		<g id="Dome_Stalker-Large">
			<path class="st0" d="M276.7,188.9l-0.2-0.7c0,0-69.3,16.3-95.4,85.2c-4.6,12.2-8.7,34.7-10.4,45c1.2-2,2.5-4,3.6-5.4
				c5-6.5,12.9-15.9,20.3-23.1c10.5-10.2,30.2-24.4,42.9-38.3c12.6-13.9,26.6-34.3,33.3-45.4C273.7,201.4,275.6,193.9,276.7,188.9z"
				/>
			<path class="st0" d="M427.3,188.9l0.2-0.7c0,0,69.3,16.3,95.4,85.2c4.6,12.2,8.7,34.7,10.4,45c-1.3-2-2.5-4-3.6-5.4
				c-5-6.5-12.9-15.9-20.3-23.1c-10.5-10.2-30.2-24.4-42.9-38.3c-12.6-13.9-26.6-34.3-33.3-45.4
				C430.3,201.4,428.4,193.9,427.3,188.9z"/>
			<g>
				<path class="st0" d="M532.4,289.4l9,9.2l14.4,160.2l-7.2,10.7L532.4,289.4z"/>
				<path class="st0" d="M523.7,277.1l8.6,9.3l16.8,186.1l-6.8,10.7L523.7,277.1z"/>
			</g>
			<g>
				<path class="st0" d="M171.4,289.4l-9,9.2L148,458.8l7.2,10.7L171.4,289.4z"/>
				<path class="st0" d="M180,277.1l-8.6,9.3l-16.8,186.1l6.8,10.7L180,277.1z"/>
			</g>
		</g>
		<path id="Dome-Center_Stalker-Large" class="st0" d="M342,167.7c3.1-0.2,6.5-0.3,10-0.3c4,0,7.8,0.1,11.4,0.4l-1,103.5l13,41.8
			l0.4,13.2l-23.9,0.4l-23.9-0.4l0.4-13.2l13-41.8L342,167.7z"/>
		<g id="Dome-Stripes_Stalker-Large">
			<g>
				<path class="st0" d="M276.8,187.8c-1.1,5-3,13.2-6.2,18.5c-0.7,1.1-1.4,2.3-2.2,3.5c-4.2,0.8-9.1,2.1-13.1,4
					c-8.9,4.1-22.1,13.2-22.1,13.2v-19.9c0,0,10.4-5.8,20.8-10.7C261.2,193,271.2,189.6,276.8,187.8z"/>
				<path class="st0" d="M269.2,208.6c-7.1,11.5-20.1,30.1-31.9,43c-1.3,1.4-2.7,2.8-4.1,4.3V227c0,0,9.3-8.2,20.6-12.6
					C259.3,212.2,264.9,210.2,269.2,208.6z"/>
			</g>
			<g>
				<path class="st0" d="M427.3,187.8c1.1,5,3,13.2,6.2,18.5c0.7,1.1,1.4,2.3,2.2,3.5c4.2,0.8,9.1,2.1,13.1,4
					c8.9,4.1,22.1,13.2,22.1,13.2v-19.9c0,0-10.4-5.8-20.8-10.7C443,193,432.9,189.6,427.3,187.8z"/>
				<path class="st0" d="M434.9,208.6c7.1,11.5,20.1,30.1,31.9,43c1.3,1.4,2.7,2.8,4.1,4.3V227c0,0-9.3-8.2-20.6-12.6
					C444.9,212.2,439.3,210.2,434.9,208.6z"/>
			</g>
		</g>
		<g id="Face-1_Stalker-Large">
			<g>
				<path class="st0" d="M176,519.4v2.7l8.8,12.6l18.2,20.7l23.2,22.8l22.1,17.3l17.3,8.5l19.8-7.8l-2.7-11.7l-38.5-93.7l-49-37.3
					l-20.7,29.3L176,519.4z"/>
				<g>
					<path class="st0" d="M242.6,566.3c-0.8-1-0.6-2.4,0.4-3.1l14.1-11c1-0.8,2.4-0.6,3.1,0.4c0.8,1,0.6,2.4-0.4,3.1l-14.1,11
						C244.8,567.5,243.4,567.3,242.6,566.3"/>
					<path class="st0" d="M251.3,580.7c-0.8-1-0.6-2.4,0.4-3.1l11.9-9.4c1-0.8,2.4-0.6,3.1,0.4s0.6,2.4-0.4,3.1l-11.9,9.4
						C253.5,581.9,252.1,581.7,251.3,580.7"/>
				</g>
			</g>
			<g>
				<path class="st0" d="M528,519.4v2.7l-8.8,12.6L501,555.4l-23.2,22.8l-22.1,17.3l-17.3,8.5l-19.8-7.8l2.7-11.7l38.5-93.7l49-37.3
					l20.7,29.3L528,519.4z"/>
				<g>
					<path class="st0" d="M461.3,566.3c0.8-1,0.6-2.4-0.4-3.1l-14.1-11c-1-0.8-2.4-0.6-3.1,0.4c-0.8,1-0.6,2.4,0.4,3.1l14.1,11
						C459.1,567.5,460.5,567.3,461.3,566.3"/>
					<path class="st0" d="M452.6,580.7c0.8-1,0.6-2.4-0.4-3.1l-11.9-9.4c-1-0.8-2.4-0.6-3.1,0.4c-0.8,1-0.6,2.4,0.4,3.1l11.9,9.4
						C450.5,581.9,451.9,581.7,452.6,580.7"/>
				</g>
			</g>
		</g>
		<g id="Face-2_Stalker-Large">
			<path class="st0" d="M176,519.4l-1.4-36.6l-24.8,35c0,0-1.3,30.7,3.1,43.3c4.3,12.6,14.1,22.8,23.1,32.6
				c10.2,11.1,130.2,91.1,130.2,91.1l-20.7-88.6l-19.8,7.8l-17.3-8.5l-22.1-17.3L203,555.4l-18.2-20.7l-8.8-12.6V519.4z"/>
			<path class="st0" d="M528,519.4l1.4-36.6l24.8,35c0,0,1.3,30.7-3.1,43.3c-4.3,12.6-14.1,22.8-23.1,32.6
				c-10.2,11.1-130.2,91.1-130.2,91.1l20.7-88.6l19.8,7.8l17.3-8.5l22.1-17.3l23.2-22.8l18.2-20.7l8.8-12.6L528,519.4L528,519.4z"/>
		</g>
		<g id="Cheeks_Stalker-Large">
			<g>
				<path class="st0" d="M421.2,584.5l-9.3-2.5l45.9-131.7l1.8,6.1v34.4L421.2,584.5z"/>
				<path class="st0" d="M459.7,490.7l-1.8-40.5l18.6-10l31.4-21.3l27.8-24.6l2.9-3.4l-29.7,62.5L459.7,490.7z"/>
				<path class="st0" d="M554.1,517.8l-45.5-64.3l29.7-62.5l5.3-6.2L554.1,517.8z"/>
				<path class="st0" d="M397.8,684.8l-1.7,0.5L411.9,582l9.3,2.5L397.8,684.8z"/>
			</g>
			<g>
				<path class="st0" d="M149.8,517.8l45.5-64.3L165.6,391l-5.3-6.2L149.8,517.8z"/>
				<path class="st0" d="M282.7,584.5l9.3-2.5l-45.9-131.7l-1.8,40.5L282.7,584.5z"/>
				<path class="st0" d="M244.3,490.7l1.8-40.5l-18.6-10l-31.4-21.3l-27.8-24.6l-2.9-3.4l29.7,62.5L244.3,490.7z"/>
				<path class="st0" d="M306.1,684.8l1.7,0.5L292,582l-9.3,2.5L306.1,684.8z"/>
			</g>
		</g>
		<g id="Eyes_Stalker-Large">
			<path class="st0" d="M539.4,328.8c0,0-5.8-10.9-9.6-15.8c-5-6.5-12.9-15.9-20.3-23.1c-10.5-10.2-30.2-24.4-42.9-38.3
				c-12.6-13.9-26.6-34.3-33.3-45.4c-3.8-6.4-5.9-17.3-6.8-21.4c-0.2-1.1,1.9-2.8,1.9-2.8s-22.5-9.3-30.3-11.1
				c-9.5-2.2-34.6-5.1-34.6-5.1l-1,105.4l13,41.8l0.4,13.2l-23.9,0.4l-23.9-0.4l0.4-13.2l13-41.8l0.5-105.5c0,0-26.3,3-36.1,5.1
				c-7.8,1.7-30.3,11.1-30.3,11.1s2.1,1.7,1.9,2.8c-0.8,4-2.9,15-6.8,21.4c-6.7,11.1-20.7,31.5-33.3,45.4
				c-12.7,13.9-32.4,28.1-42.9,38.3c-7.3,7.1-15.3,16.6-20.3,23.1c-3.8,4.9-9.6,15.8-9.6,15.8l-6.4,51.9l2.1,4.1l8.1,9.6l27.8,24.6
				l31.4,21.3l18.6,10L292,582l15.8,103.3l6.8,2.1h74.6l6.8-2.1L411.9,582l45.9-131.7l18.6-10l31.4-21.3l27.8-24.6l8.1-9.6l2.1-4.1
				L539.4,328.8z"/>
			<path class="st0" d="M387.4,343.7h-70.8l26.9,8.1v-4.1h17v4.1L387.4,343.7z"/>
			<path class="st0" d="M270.7,189.9l3.4-6.7l1.5-1.1l1.9,2.8l-0.6,2.9L270.7,189.9z"/>
			<path class="st0" d="M433.2,189.9l-3.4-6.7l-1.5-1.1c0,0-1.7,1.8-1.9,2.8c-0.1,1,1,3.3,1,3.3L433.2,189.9z"/>
		</g>
		<path id="Visor_Stalker-Large" class="st0" d="M370.9,687.5H333l-4.1-273.1c0,0-39.7-8.3-40.8-8.3c-1.1,0-55.5-12.6-55.5-12.6
			l-48-16.4l-16-8.1l1.1-14.5L216,362l57.4,7.3l53.8,3.4l22,1.5h5.5l22-1.5l53.8-3.4l57.4-7.3l46.3-7.5l1.1,14.5l-16,8.1l-48,16.4
			c0,0-54.4,12.6-55.5,12.6s-40.8,8.3-40.8,8.3L370.9,687.5z"/>
		<g id="Accents_Stalker-Large_Toggle">
			<g id="Accent-2_Stalker-Large">
				<path class="st0" d="M325.5,237.2c-0.2-0.6,0-5.6,0-5.6h16.2v9L325.5,237.2z"/>
				<path class="st0" d="M324,219.5v-3.6l17.8-1.3v8.5L324,219.5z"/>
				<path class="st0" d="M323,203.9v-3.2l18.9-1.6v7.5L323,203.9z"/>
				<path class="st0" d="M378.4,237.2c0.2-0.6,0-5.6,0-5.6h-15.5v8.9L378.4,237.2z"/>
				<path class="st0" d="M379.9,219.5v-3.6l-17-1.1l-0.1,8.1L379.9,219.5z"/>
				<path class="st0" d="M380.9,203.9v-3.2l-17.8-1.5l-0.1,7.2L380.9,203.9z"/>
			</g>
			<g id="Accent-1_Stalker-Large">
				<path class="st0" d="M444.9,333.9l-12.3-5.1v40.1l13-1.6L444.9,333.9z"/>
				<path class="st0" d="M467,343.9l-9.2-3.2v25l9.7-1.2L467,343.9z"/>
			</g>
		</g>
	</g>
</g>
<g id="Helmet_Stalker-Medium">
	<g id="Left-Earcap_Stalker-Medium_Toggle">
		<path id="Antenna_Left_Stalker-Medium_Option" class="st0" d="M562,361.1L540.6,37.8c0-10.9-7.8-10.1-7.6,0.8l16.9,314.9
			L562,361.1z"/>
		<g id="Sensor-Stalk_Left_Stalker-Medium_Option">
			<g id="Sensor_Left_Sensor-Stalk_Stalker-Medium">
				<path class="st0" d="M606,429.4l43-89.4l-61.4,5.5l6.9,84.9L606,429.4z"/>
				<path class="st0" d="M565.6,95.3l78.9,190.2l-61.4,5L565.6,95.3z"/>
			</g>
			<g id="Shaft_Left_Sensor-Stalk_Stalker-Medium">
				<path class="st0" d="M655.6,284.6L562.8,61.5l2.9,33.8l78.9,190.2l-52.4,4.3l1,12.2l63.5-5.1L655.6,284.6z"/>
				<path class="st0" d="M660,338.9l-1-12.2l-63.5,5.1l1,12.2l52.5-4.3l-43,89.7l11-0.9L660,338.9z"/>
				<path class="st0" d="M572,264.2l17-14.1l9.1,111.8l-18,1.5L572,264.2z"/>
				<path class="st0" d="M574.4,363.8l26.1-2.1l2,24.4l-26.1,2.1L574.4,363.8z"/>
				<path class="st0" d="M569.9,359.9l4.2-0.3L577,395l-4.2,0.3L569.9,359.9z"/>
			</g>
		</g>
		<g id="Range-Finder_Left_Stalker-Medium_Option">
			<path id="Shaft_Left_Range-Finder_Stalker-Medium" class="st0" d="M550.5,332.6l10.8-1L538.1,78.8l-10.8,1L550.5,332.6z"/>
			<g id="Finder_Left_Range-Finder_Stalker-Medium">
				<path id="Bottom_Left_Range-Finder_Stalker-Medium" class="st0" d="M557.9,55.2L546.8,78l-26.6,2.4L503.8,71l-55.2,5.1L439.8,66
					L557.9,55.2z"/>
				<path id="Top_Left_Range-Finder_Stalker-Medium" class="st0" d="M568.3,54.2L430.2,66.9l-0.7-7.2l143.7-13.2L568.3,54.2z"/>
			</g>
		</g>
		<g id="Ear-Cap_Left_Stalker-Medium">
			<path class="st0" d="M540.9,303l25.8,17.8l10.1,111.7l-22.2,22.1L540.9,303z"/>
			<path class="st0" d="M552.2,375.4c-0.1-1.2,0.8-2.2,2-2.3l10.4-0.9c1.2-0.1,2.2,0.8,2.3,2s-0.8,2.2-2,2.3l-10.4,0.9
				C553.3,377.4,552.3,376.6,552.2,375.4z"/>
		</g>
		<g id="No-Device_Left_Stalker-Medium_Option">
		</g>
	</g>
	<g id="Right-Earcap_Stalker-Medium_Toggle">
		<path id="Antenna_Right_Stalker-Medium_Option" class="st0" d="M142,361.1l21.5-323.3c0-10.9,7.8-10.1,7.6,0.8l-16.9,314.9
			L142,361.1z"/>
		<g id="Sensor-Stalk_Right_Stalker-Medium_Option">
			<g id="Sensor_Right_Sensor-Stalk_Stalker-Medium">
				<path class="st0" d="M98,429.4L55,340l61.4,5.5l-6.9,84.9L98,429.4z"/>
				<path class="st0" d="M138.4,95.3L59.5,285.5l61.4,5L138.4,95.3z"/>
			</g>
			<g id="Shaft_Right_Sensor-Stalk_Stalker-Medium">
				<path class="st0" d="M48.4,284.6l92.9-223.1l-2.9,33.8L59.5,285.5l52.4,4.3l-1,12.2l-63.5-5.1L48.4,284.6z"/>
				<path class="st0" d="M44,338.9l1-12.2l63.5,5.1l-1,12.2L55,339.8l43,89.6l-11-0.9L44,338.9z"/>
				<path class="st0" d="M132.1,264.2l-17-14.1L106,361.9l18,1.5L132.1,264.2z"/>
				<path class="st0" d="M129.6,363.8l-26.1-2.1l-2,24.4l26.1,2.1L129.6,363.8z"/>
				<path class="st0" d="M134.2,359.9l-4.2-0.3l-2.9,35.4l4.2,0.3L134.2,359.9z"/>
			</g>
		</g>
		<g id="Range-Finder_Right_Stalker-Medium_Option">
			<path id="Shaft_Right_Range-Finder_Stalker-Medium" class="st0" d="M153.2,332.6l-10.8-1l23.2-252.8l10.8,1L153.2,332.6z"/>
			<g id="Finder_Right_Range-Finder_Stalker-Medium">
				<path id="Bottom_Right_Range-Finder_Stalker-Medium" class="st0" d="M145.9,55.2l11,22.8l26.6,2.4l16.3-9.4l55.2,5.1l9-10.1
					L145.9,55.2z"/>
				<path id="Top_Right_Range-Finder_Stalker-Medium" class="st0" d="M135.5,54.2l138.1,12.7l0.7-7.2L130.5,46.5L135.5,54.2z"/>
			</g>
		</g>
		<g id="Ear-Cap_Right_Stalker-Medium">
			<path class="st0" d="M162.8,303L137,320.8l-10.1,111.7l22.2,22.1L162.8,303z"/>
			<path class="st0" d="M151.5,375.4c0.1-1.2-0.8-2.2-2-2.3l-10.4-0.9c-1.2-0.1-2.2,0.8-2.3,2s0.8,2.2,2,2.3l10.4,0.9
				C150.4,377.4,151.4,376.6,151.5,375.4z"/>
		</g>
		<g id="No-Device_Right_Stalker-Medium_Option">
		</g>
	</g>
	<g id="Helmet_Pieces_Stalker-Medium">
		<g id="Dome_Stalker-Medium">
			<path class="st0" d="M276.7,188.9l-0.2-0.7c0,0-69.3,16.3-95.4,85.2c-4.6,12.2-8.7,34.7-10.4,45c1.2-2,2.5-4,3.6-5.4
				c5-6.5,12.9-15.9,20.3-23.1c10.5-10.2,30.2-24.4,42.9-38.3c12.6-13.9,26.6-34.3,33.3-45.4C273.7,201.4,275.6,193.9,276.7,188.9z"
				/>
			<path class="st0" d="M427.3,188.9l0.2-0.7c0,0,69.3,16.3,95.4,85.2c4.6,12.2,8.7,34.7,10.4,45c-1.3-2-2.5-4-3.6-5.4
				c-5-6.5-12.9-15.9-20.3-23.1c-10.5-10.2-30.2-24.4-42.9-38.3c-12.6-13.9-26.6-34.3-33.3-45.4
				C430.3,201.4,428.4,193.9,427.3,188.9z"/>
			<g>
				<path class="st0" d="M532.4,289.4l9,9.2l14.4,160.2l-7.2,10.7L532.4,289.4z"/>
				<path class="st0" d="M523.7,277.1l8.6,9.3l16.8,186.1l-6.8,10.7L523.7,277.1z"/>
			</g>
			<g>
				<path class="st0" d="M171.4,289.4l-9,9.2L148,458.8l7.2,10.7L171.4,289.4z"/>
				<path class="st0" d="M180,277.1l-8.6,9.3l-16.8,186.1l6.8,10.7L180,277.1z"/>
			</g>
		</g>
		<g id="Dome-Stripes_Stalker-Medium">
			<g>
				<path class="st0" d="M276.8,187.8c-1.1,5-3,13.2-6.2,18.5c-0.7,1.1-1.4,2.3-2.2,3.5c-4.2,0.8-9.1,2.1-13.1,4
					c-8.9,4.1-22.1,13.2-22.1,13.2v-19.9c0,0,10.4-5.8,20.8-10.7C261.2,193,271.2,189.6,276.8,187.8z"/>
				<path class="st0" d="M269.2,208.6c-7.1,11.5-20.1,30.1-31.9,43c-1.3,1.4-2.7,2.8-4.1,4.3V227c0,0,9.3-8.2,20.6-12.6
					C259.3,212.2,264.9,210.2,269.2,208.6z"/>
			</g>
			<g>
				<path class="st0" d="M427.3,187.8c1.1,5,3,13.2,6.2,18.5c0.7,1.1,1.4,2.3,2.2,3.5c4.2,0.8,9.1,2.1,13.1,4
					c8.9,4.1,22.1,13.2,22.1,13.2v-19.9c0,0-10.4-5.8-20.8-10.7C443,193,432.9,189.6,427.3,187.8z"/>
				<path class="st0" d="M434.9,208.6c7.1,11.5,20.1,30.1,31.9,43c1.3,1.4,2.7,2.8,4.1,4.3V227c0,0-9.3-8.2-20.6-12.6
					C444.9,212.2,439.3,210.2,434.9,208.6z"/>
			</g>
		</g>
		<g id="Face-1_Stalker-Medium">
			<g>
				<path class="st0" d="M176,519.4v2.7l8.8,12.6l18.2,20.7l23.2,22.8l22.1,17.3l17.3,8.5l19.8-7.8l-2.7-11.7l-38.5-93.7l-49-37.3
					l-20.7,29.3L176,519.4z"/>
				<g>
					<path class="st0" d="M242.6,566.3c-0.8-1-0.6-2.4,0.4-3.1l14.1-11c1-0.8,2.4-0.6,3.1,0.4c0.8,1,0.6,2.4-0.4,3.1l-14.1,11
						C244.8,567.5,243.4,567.3,242.6,566.3"/>
					<path class="st0" d="M251.3,580.7c-0.8-1-0.6-2.4,0.4-3.1l11.9-9.4c1-0.8,2.4-0.6,3.1,0.4s0.6,2.4-0.4,3.1l-11.9,9.4
						C253.5,581.9,252.1,581.7,251.3,580.7"/>
				</g>
			</g>
			<g>
				<path class="st0" d="M528,519.4v2.7l-8.8,12.6L501,555.4l-23.2,22.8l-22.1,17.3l-17.3,8.5l-19.8-7.8l2.7-11.7l38.5-93.7l49-37.3
					l20.7,29.3L528,519.4z"/>
				<g>
					<path class="st0" d="M461.3,566.3c0.8-1,0.6-2.4-0.4-3.1l-14.1-11c-1-0.8-2.4-0.6-3.1,0.4c-0.8,1-0.6,2.4,0.4,3.1l14.1,11
						C459.1,567.5,460.5,567.3,461.3,566.3"/>
					<path class="st0" d="M452.6,580.7c0.8-1,0.6-2.4-0.4-3.1l-11.9-9.4c-1-0.8-2.4-0.6-3.1,0.4c-0.8,1-0.6,2.4,0.4,3.1l11.9,9.4
						C450.5,581.9,451.9,581.7,452.6,580.7"/>
				</g>
			</g>
		</g>
		<g id="Face-2_Stalker-Medium">
			<path class="st0" d="M176,519.4l-1.4-36.6l-24.8,35c0,0-1.3,30.7,3.1,43.3c4.3,12.6,14.1,22.8,23.1,32.6
				c10.2,11.1,130.2,91.1,130.2,91.1l-20.7-88.6l-19.8,7.8l-17.3-8.5l-22.1-17.3L203,555.4l-18.2-20.7l-8.8-12.6V519.4z"/>
			<path class="st0" d="M528,519.4l1.4-36.6l24.8,35c0,0,1.3,30.7-3.1,43.3c-4.3,12.6-14.1,22.8-23.1,32.6
				c-10.2,11.1-130.2,91.1-130.2,91.1l20.7-88.6l19.8,7.8l17.3-8.5l22.1-17.3l23.2-22.8l18.2-20.7l8.8-12.6L528,519.4L528,519.4z"/>
		</g>
		<g id="Cheeks_Stalker-Medium">
			<g>
				<path class="st0" d="M421.2,584.5l-9.3-2.5l45.9-131.7l1.8,6.1v34.4L421.2,584.5z"/>
				<path class="st0" d="M459.7,490.7l-1.8-40.5l18.6-10l31.4-21.3l27.8-24.6l2.9-3.4l-29.7,62.5L459.7,490.7z"/>
				<path class="st0" d="M554.1,517.8l-45.5-64.3l29.7-62.5l5.3-6.2L554.1,517.8z"/>
				<path class="st0" d="M397.8,684.8l-1.7,0.5L411.9,582l9.3,2.5L397.8,684.8z"/>
			</g>
			<g>
				<path class="st0" d="M149.8,517.8l45.5-64.3L165.6,391l-5.3-6.2L149.8,517.8z"/>
				<path class="st0" d="M282.7,584.5l9.3-2.5l-45.9-131.7l-1.8,40.5L282.7,584.5z"/>
				<path class="st0" d="M244.3,490.7l1.8-40.5l-18.6-10l-31.4-21.3l-27.8-24.6l-2.9-3.4l29.7,62.5L244.3,490.7z"/>
				<path class="st0" d="M306.1,684.8l1.7,0.5L292,582l-9.3,2.5L306.1,684.8z"/>
			</g>
		</g>
		<g id="Eyes_Stalker-Medium">
			<g id="Main_Eyes_Stalker-2">
				<path class="st0" d="M539.4,328.8c0,0-5.8-10.9-9.6-15.8c-5-6.5-12.9-15.9-20.3-23.1c-10.5-10.2-30.2-24.4-42.9-38.3
					c-12.6-13.9-26.6-34.3-33.3-45.4c-3.8-6.4-5.9-17.3-6.8-21.4c-0.2-1.1,1.9-2.8,1.9-2.8s-22.5-9.3-30.3-11.1
					c-9.5-2.2-34.6-5.1-34.6-5.1l-21.4-0.1c0,0-26.3,3-36.1,5.1c-7.8,1.7-30.3,11.1-30.3,11.1s2.1,1.7,1.9,2.8
					c-0.8,4-2.9,15-6.8,21.4c-6.7,11.1-20.7,31.5-33.3,45.4c-12.7,13.9-32.4,28.1-42.9,38.3c-7.3,7.1-15.3,16.6-20.3,23.1
					c-3.8,4.9-9.6,15.8-9.6,15.8l-6.4,51.9l2.1,4.1l8.1,9.6l27.8,24.6l31.4,21.3l18.6,10L292,582l15.8,103.3l6.8,2.1h74.6l6.8-2.1
					L411.9,582l45.9-131.7l18.6-10l31.4-21.3l27.8-24.6l8.1-9.6l2.1-4.1L539.4,328.8z"/>
				<path class="st0" d="M270.7,189.9l3.4-6.7l1.5-1.1l1.9,2.8l-0.6,2.9L270.7,189.9z"/>
				<path class="st0" d="M433.2,189.9l-3.4-6.7l-1.5-1.1c0,0-1.7,1.8-1.9,2.8c-0.1,1,1,3.3,1,3.3L433.2,189.9z"/>
			</g>
			<g id="Trim_Eyes_Stalker-2">
				<path class="st0" d="M297.8,370.7l-4-9.7l-28.2-5.6l11.3-167.6l0.6-2.9l-1.8-2.7l29.3-10.9l11.7-2.1v174.6h70.8V169.1l12.7,2.4
					l28.2,10.5l-1.9,2.8l11.9,170.5L410,361l-4,9.7l-54,3.4L297.8,370.7z"/>
				<path class="st0" d="M387.4,343.7h-70.8l26.9,8.1v-4.1h17v4.1L387.4,343.7z"/>
				<g>
					<path class="st0" d="M404.4,408.3l-29.4,6.1l-4.1,273.1h18.4l6.8-2.1L411.9,582l11.9-34.1l-24.2-25.2L404.4,408.3z"/>
					<path class="st0" d="M299.3,408.3l29.4,6.1l4.1,273.1h-18.4l-6.8-2.1L291.8,582l-11.9-34.1l24.2-25.2L299.3,408.3z"/>
				</g>
			</g>
			<path id="Center_Eyes_Stalker-2" class="st0" d="M387.4,169.1c0,0-17.1-3.2-35.4-3.2s-35.4,3.2-35.4,3.2v174.6h70.8L387.4,169.1
				L387.4,169.1z"/>
		</g>
		<path id="Visor_Stalker-Medium" class="st0" d="M370.9,687.5H333l-4.1-273.1c0,0-39.7-8.3-40.8-8.3c-1.1,0-55.5-12.6-55.5-12.6
			l-48-16.4l-16-8.1l1.1-14.5L216,362l57.4,7.3l53.8,3.4l22,1.5h5.5l22-1.5l53.8-3.4l57.4-7.3l46.3-7.5l1.1,14.5l-16,8.1l-48,16.4
			c0,0-54.4,12.6-55.5,12.6s-40.8,8.3-40.8,8.3L370.9,687.5z"/>
	</g>
</g>
<g id="Helmet_Gunslinger">
	<g id="Left-Earcap_Gunslinger_Toggle">
		<path class="st0" d="M563.9,409.5l-7,3l-1.5,7.3h13.5L563.9,409.5z"/>
		<path class="st0" d="M567.9,350l-4.4-9.5l-12.9-3.5v31h17.3L567.9,350L567.9,350z"/>
		<path class="st0" d="M545.8,430.2l21.3-1.7l0.7,31l-17.3,7.7l4.7,123.3l-4.7,3.3L545.8,430.2z"/>
		<path class="st0" d="M562.9,461.7l1,104.5l-8.6,24.3l-4.7-123.3L562.9,461.7z"/>
		<path class="st0" d="M573.1,428.5l-9.2-19l-7,3l-2.7,12.8l-3.6,0.5V411l17.3-7l8.5,24.5H573.1z"/>
		<path class="st0" d="M567.9,404v-36h-17.3v43L567.9,404z"/>
		<path class="st0" d="M567.9,350l6.6,18l1.9,60.5l-8.5-24.5V350z"/>
		<rect x="550.6" y="357.3" class="st0" width="12.9" height="10.7"/>
		<path class="st0" d="M554.2,425.3h17.3l-2.7-5.5h-13.5L554.2,425.3z"/>
		<path class="st0" d="M567.1,428.5l-3.7-3.3h-9.3l-3.6,0.5l-4.7,4.4L567.1,428.5z"/>
		<path class="st0" d="M550.6,342.5l-10.1-0.8l0.2,8.2l5,80.2l4.9-4.4L550.6,342.5L550.6,342.5z"/>
	</g>
	<g id="Right-Earcap_Gunslinger_Toggle">
		<path class="st0" d="M136.1,409.5l7,3l1.5,7.3h-13.5L136.1,409.5z"/>
		<path class="st0" d="M132.1,350l4.4-9.5l12.9-3.5v31h-17.3L132.1,350L132.1,350z"/>
		<path class="st0" d="M154.2,430.2l-21.3-1.7l-0.7,31l17.3,7.7l-4.7,123.3l4.7,3.3L154.2,430.2z"/>
		<path class="st0" d="M137.1,461.7l-1,104.5l8.7,24.3l4.7-123.3L137.1,461.7z"/>
		<path class="st0" d="M126.9,428.5l9.2-19l7,3l2.7,12.8l3.6,0.5V411l-17.3-7l-8.5,24.5H126.9z"/>
		<path class="st0" d="M132.1,404v-36h17.3v43L132.1,404z"/>
		<path class="st0" d="M132.1,350l-6.6,18l-1.9,60.5l8.5-24.5V350z"/>
		<rect x="136.6" y="357.3" class="st0" width="12.9" height="10.7"/>
		<path class="st0" d="M145.8,425.3h-17.3l2.7-5.5h13.5L145.8,425.3z"/>
		<path class="st0" d="M132.9,428.5l3.7-3.3h9.3l3.6,0.5l4.7,4.4L132.9,428.5z"/>
		<path class="st0" d="M149.4,342.5l10.1-0.8l-0.2,8.2l-5,80.2l-4.9-4.4L149.4,342.5L149.4,342.5z"/>
	</g>
	<g id="Helmet_Pieces_Gunslinger">
		<path id="Dome_Gunslinger" class="st0" d="M540.7,350H159.3c0-97.3,85.4-176.3,190.7-176.3S540.7,252.7,540.7,350z"/>
		<g id="Eyes_Gunslinger">
			<path class="st0" d="M164.5,376.2v15.3l144.8,33.8l10.1,232.9L296.1,680c0,0-14.2-130.5-48.9-186.1s-92.9-68.6-92.9-68.6l5-75.3
				h381.3l5,75.3c0,0-58.3,13-92.9,68.6S403.9,680,403.9,680l-23.2-21.8l10.1-232.9l144.8-33.8v-15.3l-185.5,10L164.5,376.2z"/>
			<rect x="159" y="354.8" class="st0" width="382" height="5"/>
		</g>
		<g id="Ridge_Gunslinger">
			<path id="Outer-Ridge_Gunslinger" class="st0" d="M328,369.4L311.3,350V177.3c0,0,11.8-6.2,38.7-5.6h0.3
				c26.7-0.5,38.4,5.7,38.4,5.7V350L372,369.4H328z"/>
			<path id="Inner-Ridge_Gunslinger" class="st0" d="M333.6,345.7l-3-3.1V172.5c0,0,5.9-1.5,19.4-0.9h0.3c13.2-0.5,19,0.9,19,0.9
				v170.1l-3,3.1H333.6z"/>
		</g>
		<path id="Visor_Gunslinger" class="st0" d="M164.5,376.2l185.5,10l185.5-10v15.3l-144.8,33.8l-10.1,232.9h-61.2l-10.1-232.9
			l-144.8-33.8L164.5,376.2L164.5,376.2z"/>
		<g id="Cheeks_Gunslinger">
			<path class="st0" d="M154.3,425.3l-4.9,170.9l20,14l25.9-102.5L154.3,425.3z"/>
			<path class="st0" d="M545.7,425.3l4.9,170.9l-20,14l-25.9-102.5L545.7,425.3z"/>
			<path class="st0" d="M154.5,425.3c3.4,0.8,59.2,14.7,92.8,68.6s48,178.1,48.8,185.7v0.4h-8.8c0,0-6-90.8-27.6-122.8
				c-31.9-47.5-64.3-49.5-64.3-49.5l-41.1-82.4L154.5,425.3z"/>
			<path class="st0" d="M545.5,425.3c-3.4,0.8-59.2,14.7-92.8,68.6s-48,178.1-48.8,185.7v0.4h8.8c0,0,6-90.8,27.6-122.8
				c31.9-47.5,64.3-49.5,64.3-49.5l41.1-82.4L545.5,425.3z"/>
		</g>
		<g id="Face_Gunslinger">
			<path class="st0" d="M169.5,610.2l25.9-102.5h0.1c1.9,0.2,33.3,3.5,64.2,49.5c21.5,32.1,27.6,122.8,27.6,122.8L169.5,610.2z"/>
			<path class="st0" d="M530.5,610.2l-25.9-102.5h-0.1c-1.9,0.2-33.3,3.5-64.2,49.5C418.7,589.3,412.7,680,412.7,680L530.5,610.2z"
				/>
		</g>
	</g>
</g>
<g id="Helmet_Heavy">
	<g id="Left-Earcap_Heavy_Toggle">
		<g id="Ear-Cap_Left_Heavy">
			<path class="st0" d="M510.8,239.2c17.9,24,30.2,52.1,35.3,82.6l0,0h38.5l-5.5-82.6L510.8,239.2L510.8,239.2z"/>
			<path class="st0" d="M579.2,239.2l19.8,11l3.7,59.2l-17.9,12.3L579.2,239.2z"/>
			<path class="st0" d="M565.5,321.8l3.6,98.5l7,11.6l-2.7-110h-7.9V321.8z"/>
			<path class="st0" d="M575.9,422.7l5.4-8l-2.1-92.9h-5.8L575.9,422.7z"/>
			<path class="st0" d="M579.9,356l4.7-4v-26.4l-5.5-3.9L579.9,356z"/>
			<path class="st0" d="M553.7,498.1l17-0.2v-66.2h5.3l-7-11.6l-3.6-98.5H546c1.7,10.2,2.6,20.6,2.6,31.2L553.7,498.1z"/>
			<rect x="550.1" y="390.1" class="st0" width="15.4" height="2.3"/>
			<rect x="550.1" y="371.2" class="st0" width="15.4" height="2.3"/>
			<rect x="549.2" y="364.8" class="st0" width="15.4" height="2.3"/>
			<rect x="549.2" y="358.3" class="st0" width="15.4" height="2.3"/>
			<rect x="548.7" y="351.9" class="st0" width="15.4" height="2.3"/>
			<rect x="548.7" y="345.5" class="st0" width="15.4" height="2.3"/>
		</g>
		<g id="Antenna_Left_Heavy_Option">
			<rect x="515.3" y="228.7" class="st0" width="55.2" height="10.4"/>
			<rect x="512.8" y="202.4" class="st0" width="60.1" height="10.1"/>
			<path class="st0" d="M572.9,212.4h-60.1l4.9,10.4h50.4L572.9,212.4z"/>
			<rect x="535.7" y="222.9" class="st0" width="14.3" height="5.9"/>
			<path class="st0" d="M605.7,165.6h-65.5v12.9h65.5v19.9c0,2.2-1.8,4-4,4c-17.8,0-88.9,0-88.9,0v-57.6c0-1.1,0.4-2.1,1.2-2.8
				c0.8-0.8,1.8-1.2,2.8-1.2h84.9c2.2,0,4,1.8,4,4V165.6z"/>
			<rect x="540.2" y="165.6" class="st0" width="60.1" height="12.9"/>
		</g>
		<g id="No-Device_Left_Heavy_Option">
		</g>
	</g>
	<g id="Right-Earcap_Heavy_Toggle">
		<g id="Ear-Cap_Right_Heavy">
			<path class="st0" d="M189.7,239.2c-17.8,24-30.2,52.1-35.3,82.6l0,0h-38.5l5.5-82.6L189.7,239.2L189.7,239.2z"/>
			<path class="st0" d="M121.3,239.2l-19.8,11l-3.7,59.2l17.9,12.3L121.3,239.2z"/>
			<path class="st0" d="M135,321.8l-3.7,98.5l-7,11.6l2.7-110h8V321.8z"/>
			<path class="st0" d="M124.6,422.7l-5.4-8l2.1-92.9h5.8L124.6,422.7z"/>
			<path class="st0" d="M120.5,356l-4.7-4v-26.4l5.5-3.9L120.5,356z"/>
			<path class="st0" d="M146.7,498.1l-17-0.2v-66.2h-5.3l7-11.6l3.7-98.5h19.4c-1.7,10.2-2.6,20.6-2.6,31.2L146.7,498.1z"/>
			<rect x="135" y="390.1" class="st0" width="15.4" height="2.3"/>
			<rect x="135" y="371.2" class="st0" width="15.4" height="2.3"/>
			<rect x="135.9" y="364.8" class="st0" width="15.4" height="2.3"/>
			<rect x="135.9" y="358.3" class="st0" width="15.4" height="2.3"/>
			<rect x="136.4" y="351.9" class="st0" width="15.4" height="2.3"/>
			<rect x="136.4" y="345.5" class="st0" width="15.4" height="2.3"/>
		</g>
		<g id="Antenna_Right_Heavy_Option">
			<rect x="129.5" y="228.7" class="st0" width="55.2" height="10.4"/>
			<rect x="127.1" y="202.4" class="st0" width="60.1" height="10.1"/>
			<path class="st0" d="M127.1,212.4h60.1l-4.9,10.4h-50.4L127.1,212.4z"/>
			<rect x="150" y="222.9" class="st0" width="14.3" height="5.9"/>
			<path class="st0" d="M94.3,165.6h65.5v12.9H94.3v19.9c0,2.2,1.8,4,4,4c17.8,0,88.9,0,88.9,0v-57.6c0-1.1-0.4-2.1-1.2-2.8
				c-0.8-0.8-1.8-1.2-2.8-1.2H98.3c-2.2,0-4,1.8-4,4V165.6z"/>
			<rect x="99.7" y="165.6" class="st0" width="60.1" height="12.9"/>
		</g>
		<g id="No-Device_Right_Heavy_Option">
		</g>
	</g>
	<g id="Helmet_Pieces_Heavy">
		<path id="Dome_Heavy" class="st0" d="M548.7,352.9H151.8c0-106.9,88.9-193.7,198.4-193.7C459.8,159.2,548.7,246,548.7,352.9z"/>
		<rect id="Ridge_Heavy_Toggle" x="343.5" y="152.8" class="st0" width="13.6" height="200.1"/>
		<g id="Eyes_Heavy">
			<path class="st0" d="M548.7,352.9l6.2,176.7l-13.8-99.9c0,0-85.2,53.6-103.4,72C419.4,520,389,686.9,389,686.9l-14.6-36
				l13.8-179.7c0,0,65.3-27.6,79.9-35.6c14.6-8.1,66.1-37.5,66.1-37.5l-0.8-16.2L350.2,390l-183.1-8.1l-0.8,16.2
				c0,0,51.5,29.4,66.1,37.5c14.6,8.1,79.9,35.6,79.9,35.6l13.8,179.7l-14.6,36c0,0-30.4-166.8-48.7-185.2
				c-18.3-18.4-103.4-72-103.4-72l-13.8,99.9l6.2-176.7L548.7,352.9L548.7,352.9z"/>
			<path class="st0" d="M166.3,398.1l11-0.6c0,0,47.5,15.7,66.9,21.2c19.5,5.5,71,14.7,71,14.7l-2.8,37.8c0,0-65.3-27.6-79.9-35.6
				C217.8,427.5,166.3,398.1,166.3,398.1z"/>
			<path class="st0" d="M534.2,398.1l-11-0.6c0,0-47.5,15.7-66.9,21.2c-19.5,5.5-71,14.7-71,14.7l2.8,37.8c0,0,65.3-27.6,79.9-35.6
				C482.7,427.5,534.2,398.1,534.2,398.1z"/>
			<path class="st0" d="M177.3,397.5v-15.1l-10.1-0.4l-0.8,16.2L177.3,397.5z"/>
			<path class="st0" d="M523.2,397.5v-15.1l10.1-0.4l0.8,16.2L523.2,397.5z"/>
		</g>
		<g id="Accents_Heavy_Toggle">
			<path class="st0" d="M266.4,337.2l-10.7-19.3h21.4L266.4,337.2z"/>
			<path class="st0" d="M303.1,337.2l-10.7-19.3h21.4L303.1,337.2z"/>
		</g>
		<path id="Visor_Heavy" class="st0" d="M374.4,650.8l14.6,36h-77.4l14.6-36l-13.8-179.7l2.8-37.8c0,0-51.5-9.2-71-14.7
			c-19.3-5.5-66.2-21-66.9-21.2l0.2-15.1l172.8,7.6l173-7.6v15.1c0,0-47.5,15.7-66.9,21.2c-19.5,5.5-71,14.7-71,14.7l2.8,37.8
			L374.4,650.8z"/>
		<g id="Cheeks_Heavy">
			<path class="st0" d="M196.7,453.7L177.3,505l-31.6,24.6l13.8-99.9L196.7,453.7z"/>
			<g>
				<path class="st0" d="M503.8,453.7l19.4,51.3l31.6,24.6L541,429.7L503.8,453.7z"/>
				<path class="st0" d="M554.9,529.6L448.4,683.5l-29.6-43L523.2,505L554.9,529.6z"/>
				<path class="st0" d="M418.8,640.5l-22,5.8l-7.9,40.5l59.5-3.3L418.8,640.5z"/>
			</g>
			<path class="st0" d="M145.6,529.6L252,683.5l29.6-43L177.3,505L145.6,529.6z"/>
			<path class="st0" d="M281.7,640.5l22,5.8l7.9,40.5l-59.5-3.3L281.7,640.5z"/>
		</g>
		<g id="Face_Heavy">
			<path class="st0" d="M196.7,453.7c25.4,16.7,56.1,37.8,66.2,48c12.4,12.5,30.5,94,40.8,144.7l-21.9-5.8L177.3,505L196.7,453.7z"
				/>
			<path class="st0" d="M503.8,453.7c-25.4,16.7-56.1,37.8-66.2,48c-12.4,12.5-30.5,94-40.8,144.7l21.9-5.8L523.2,505L503.8,453.7z"
				/>
		</g>
	</g>
</g>
<g id="Helmet_Budget-Bucket">
	<g id="Bucket_Budget-Bucket" fill="#F74416" style="fill:white">
		<path class="st0" d="M576.7,133.1c-0.7-11.4-5.2-22.2-12.9-30.6C541,77.7,481.8,32.6,352,32.6c-129.7,0-191,44.9-214.9,69.8
			c-8.2,8.5-13.1,19.7-13.8,31.5c-5.1,83.9-29.1,481.4-29.1,481.4S210,686.2,352,686.2c86.8,0,162.4-26.5,208-47.1
			c29-13.1,45.9-23.8,45.9-23.8S581.7,215.2,576.7,133.1z"/>
		<path class="st0" d="M91.3,536.8c17.4,10.1,127.8,71,260.7,71c132.7,0,239.6-60.7,256.7-70.9l2.4,39.3c0,0-114.2,72.4-259.1,72.4
			S88.9,576.1,88.9,576.1L91.3,536.8z"/>
		<path class="st0" d="M89.6,606.9c9.6,5.7,123.8,72,262.4,72c138.5,0,249-66.1,258.4-72l0.7,10.9c0,0-114.2,72.4-259.1,72.4
			S88.9,617.8,88.9,617.8L89.6,606.9z"/>
		<path class="st0" d="M96.5,471c17,9.9,125.2,69.5,255.5,69.5c130.1,0,234.9-59.5,251.6-69.5l2.3,38.5c0,0-111.9,70.9-253.9,70.9
			S94.2,509.6,94.2,509.6L96.5,471z"/>
		<rect x="326.4" y="605.4" class="st0" width="47.3" height="45.1"/>
		<circle class="st0" cx="350" cy="628" r="7"/>
	</g>
	<path id="Visor_Budget-Bucket" class="st0" style="fill:white" fill="black" d="M369,605.4h-38l-4-218.5c0,0-39.7-8.4-40.8-8.4c-1.1,0-55.5-12.7-55.5-12.7l-48-16.5
		l-16-8.2l1.1-14.6L214,334l57.4,7.3l53.8,3.4l22,1.5h5.5l22-1.5l53.8-3.4L486,334l46.3-7.5l1.1,14.6l-16,8.2l-48,16.5
		c0,0-54.4,12.7-55.5,12.7s-40.8,8.4-40.8,8.4L369,605.4z"/>
	<g id="Handle-Left_Budget-Bucket_Option">
		<g>
			<circle class="st0" cx="600.6" cy="306.6" r="12.4"/>
			<circle class="st0" cx="600.6" cy="306.6" r="6.5"/>
		</g>
		<path class="st0" d="M352.9,629.4c0,0,89.9-46.2,167-143.4c77.2-97.3,82.8-178.3,82.8-178.3c0.1-1.1-0.8-2.1-1.9-2.1
			c-1.1-0.1-2.1,0.8-2.1,1.9c0,0-5.6,79.9-81.9,176.1C440.2,579.9,351,625.8,351,625.8c-1,0.5-1.4,1.7-0.9,2.7
			C350.7,629.5,351.9,629.9,352.9,629.4z"/>
	</g>
	<g id="Handle-Right_Budget-Bucket_Option">
		<g>
			<circle class="st0" cx="99.3" cy="306.6" r="12.4"/>
			<circle class="st0" cx="99.3" cy="306.6" r="6.5"/>
		</g>
		<path class="st0" d="M347.1,629.4c0,0-89.9-46.2-167-143.4c-77.2-97.3-82.8-178.3-82.8-178.3c-0.1-1.1,0.8-2.1,1.9-2.1
			c1.1-0.1,2.1,0.8,2.1,1.9c0,0,5.6,79.9,81.9,176.1c76.5,96.4,165.7,142.3,165.7,142.3c1,0.5,1.4,1.7,0.9,2.7
			C349.3,629.5,348.1,629.9,347.1,629.4z"/>
	</g>
</g>
</svg>
