<?xml version="1.0" encoding="UTF-8" standalone="no"?>
<!DOCTYPE svg PUBLIC "-//W3C//DTD SVG 1.1//EN" "http://www.w3.org/Graphics/SVG/1.1/DTD/svg11.dtd">
<svg version="1.1" viewBox="0 0 420 70" xmlns="http://www.w3.org/2000/svg">
<g id="titleDark">
	<polygon fill="#222" points="359.21,60 0,60 0,0 398.11,0"/>
	<polygon fill="#AB1F1F" points="402.87,0 361.38,64 0,64 0,70 374.62,70 420,0"/>
	<path fill="#AB1F1F" d="M55.03,42.15l1.3-1.92L54.87,25.2l-1.76-1.1c-0.26-7.65-6.76-13.81-14.81-13.96v0l-0.1,0l-0.06,0
		l-0.06,0l-0.1,0v0c-8,0.15-14.47,6.24-14.8,13.82L21.2,25.2l-1.47,15.03l1.47,2.17l-0.11,1.23L22,43.7l10.48,6.1l0.12,0.07h11.09
		l10.6-6.17l0.91-0.07L55.03,42.15z M23.23,43.25c0.17-1.01,0.61-3.46,1.22-4.83c0.79-1.78,2.3-3.75,4.02-3.44
		c1.32,0.24,3.88,6.25,4.24,13.78L23.23,43.25z M41.04,48.87v-19c0,0,3.22-0.3,4.79-0.66c1.91-0.44,6.66-1.97,6.66-1.97l-0.07-1.11
		c0,0-4.38,0.75-6.6,0.98c-2.17,0.23-5.13,0.54-7.69,0.54c-2.56,0-5.53-0.31-7.69-0.54c-2.21-0.24-6.6-0.98-6.6-0.98l-0.07,1.11
		c0,0,4.75,1.53,6.66,1.97c1.57,0.36,4.79,0.66,4.79,0.66v19h-2.37l-0.15-0.09c-0.01-0.16-0.01-0.34-0.02-0.53
		c0-0.06,0-0.11-0.01-0.18c0-0.03,0-0.07,0-0.1c-0.09-2.17-0.3-6.02-0.65-8.4c0-0.02-0.01-0.04-0.01-0.06
		c-0.03-0.2-0.06-0.39-0.09-0.56c-0.03-0.19-0.07-0.37-0.11-0.53c-0.49-2.08-1.49-4.29-3.03-5.71c-0.09-0.09-0.2-0.17-0.31-0.26
		c-0.1-0.08-0.21-0.15-0.33-0.23c-0.01-0.01-0.02-0.01-0.03-0.02c-1.91-1.24-5.53-2.35-5.53-2.35l0.16-1.56l0.41-3.73
		c0.29,0.04,4.85,0.63,7.19,0.77c2.27,0.14,6.86,0.18,7.77,0.18c0.9-0.01,5.5-0.04,7.77-0.18c2.1-0.13,5.99-0.62,6.98-0.75
		l0.59,5.33c-0.84,0.27-4.15,1.37-5.69,2.53c-0.11,0.08-0.2,0.16-0.29,0.24c0,0-0.01,0.01-0.01,0.01c-0.77,0.71-1.4,1.62-1.91,2.61
		c-0.38,0.74-0.68,1.53-0.91,2.32c-0.08,0.26-0.15,0.52-0.21,0.78c-0.04,0.16-0.07,0.33-0.11,0.53c-0.03,0.15-0.05,0.32-0.08,0.49
		c-0.01,0.04-0.01,0.08-0.02,0.13c-0.38,2.59-0.59,6.94-0.67,8.95c0,0.03,0,0.07,0,0.1c0,0.04,0,0.06,0,0.09c0,0.03,0,0.05,0,0.07
		l-0.15,0.09H41.04z M43.58,48.77c0.36-7.53,2.92-13.54,4.24-13.78c1.71-0.31,3.23,1.66,4.02,3.44c0.61,1.37,1.06,3.82,1.22,4.83
		L43.58,48.77z"/>
	<g fill="#AAA">
		<path d="M66.6,15.12l7.96,0.06l-0.05,6.68l-4.85,10.47l-0.08,11.46l-2.39-0.02l0.08-11.78l4.85-10.47l0.03-3.66
			l-5.57-0.04L66.6,15.12z"/>
		<path d="M77.65,27.64l2.06-12.43l0.41,0l-0.16,21.99l-2.36-4.47L77.65,27.64z M80.98,29.54l1.06-14.32l0.32,0
			l1.01,14.33l-0.1,14.32l-2.39-0.02L80.98,29.54z"/>
		<path d="M86.54,30.25l2.41-2.85l-0.05,6.68l-2.38-0.97L86.54,30.25z M89.99,15.28l4.61,0.03l-0.02,2.39l-2.23-0.02
			l-0.19,26.26l-2.39-0.02L89.99,15.28z"/>
		<path d="M97.79,15.34l2.39,0.02l-0.19,26.26l1.59,0.01l0.17-23.87l-0.79-0.96l0.01-1.43l3.98,0.03l-0.01,1.43
			l-0.8,0.95l-0.17,23.87l2.23,0.02l-0.02,2.39l-8.59-0.06L97.79,15.34z"/>
		<path d="M116.52,44.12l-2.39-0.02l0.08-10.66l-2.39-0.02l-0.03,3.98l-2.39-0.02l0.15-20.37l3.66,0.03l-0.01,1.43
			l-1.28,0.95l-0.08,11.62l2.39,0.02l0.11-15.6l2.39,0.02L116.52,44.12z"/>
		<path d="M132.35,38.98l4.87-4.8l-0.03,4.84L132.35,38.98z M138.39,39.02l4.87-4.8l-0.03,4.84L138.39,39.02z
			 M142.19,41.6l5.57,0.04l0.03-3.66l-4.7-10.54l0.08-11.78l2.39,0.02l-0.08,11.46l4.7,10.54l-0.05,6.68l-7.96-0.06L142.19,41.6z"/>
		<path d="M160.47,44.43l-2.39-0.02l0.08-10.66l-2.39-0.02l-0.03,3.98l-2.39-0.02l0.15-20.37l3.66,0.03l-0.01,1.43
			l-1.28,0.95l-0.08,11.62l2.39,0.02l0.11-15.6l2.39,0.02L160.47,44.43z"/>
		<path d="M171.61,44.51l-7.96-0.06l0.05-6.68l4.85-10.47l0.08-11.46l2.39,0.02l-0.08,11.78l-4.85,10.47l-0.03,3.66
			l5.57,0.04L171.61,44.51z"/>
		<path d="M174.91,28.34l2.06-12.43l0.41,0l-0.16,21.99l-2.36-4.47L174.91,28.34z M178.24,30.24l1.06-14.32l0.32,0
			l1.01,14.33l-0.1,14.32l-2.39-0.02L178.24,30.24z"/>
		<path d="M188.41,23.28l-0.15,21.36l-2.39-0.02l0.04-5.73l-1.5-0.01l0.02-2.39l1.5,0.01l0.03-4.61l-1.5-0.01
			l0.02-2.39l1.5,0.01l0.04-5.19c-0.7,0.21-1.42,0.34-2.17,0.4l0.05-2.39c0.72-0.06,1.43-0.22,2.14-0.49l0.04-5.86l2.39,0.02
			l-0.03,4.52c1.39-1.05,2.7-2.53,3.95-4.43l2.39,0.02C192.92,19.48,190.8,21.87,188.41,23.28z"/>
		<path d="M202.78,16.47l-4.87,4.8l0.03-4.84L202.78,16.47z"/>
		<path d="M205.88,28.56l2.06-12.43l0.41,0l-0.16,21.99l-2.36-4.47L205.88,28.56z M209.21,30.46l1.06-14.32l0.32,0
			l1.01,14.33l-0.1,14.32l-2.39-0.02L209.21,30.46z"/>
		<path d="M214.88,16.18l2.39,0.02l-0.19,26.26l1.59,0.01l0.17-23.87l-0.79-0.96l0.01-1.43l3.98,0.03l-0.01,1.43
			l-0.8,0.95l-0.17,23.87l2.23,0.02l-0.02,2.39l-8.59-0.06L214.88,16.18z"/>
	</g>
	<g fill="#AAA">
		<path d="M243.85,34.96V26.8l-3.63,6.31h-0.57l-3.63-6.31v8.16h-0.98v-9.94h1.01l3.88,6.8l3.91-6.8h0.99v9.94H243.85
			z"/>
		<path d="M250.4,25.02h0.83l4.13,9.94h-1.04l-1.29-3.11h-4.47l-1.27,3.11h-1.05L250.4,25.02z M252.81,31.08l-2-4.91
			l-2.03,4.91H252.81z"/>
		<path d="M257.77,26.84v8.12h-0.98v-9.94h0.76l6.58,8.27v-8.26h0.98v9.93h-0.85L257.77,26.84z"/>
		<path d="M267.59,34.96v-9.94h3.37c0.79,0,1.49,0.13,2.08,0.39c0.59,0.26,1.09,0.62,1.48,1.06
			c0.4,0.45,0.7,0.97,0.9,1.57c0.2,0.6,0.3,1.24,0.3,1.93c0,0.76-0.11,1.44-0.34,2.05c-0.22,0.61-0.54,1.13-0.96,1.57
			c-0.42,0.43-0.91,0.77-1.5,1.01c-0.58,0.24-1.24,0.36-1.97,0.36H267.59z M274.75,29.98c0-0.6-0.08-1.15-0.25-1.65
			c-0.17-0.5-0.41-0.93-0.73-1.29c-0.32-0.36-0.72-0.65-1.18-0.85s-1-0.3-1.61-0.3h-2.39v8.2h2.39c0.62,0,1.16-0.1,1.63-0.31
			s0.87-0.5,1.18-0.87c0.32-0.37,0.56-0.8,0.72-1.3C274.67,31.11,274.75,30.57,274.75,29.98z"/>
		<path d="M281.61,35.03c-0.69,0-1.32-0.14-1.9-0.43c-0.57-0.28-1.07-0.66-1.48-1.13c-0.41-0.47-0.73-1.01-0.95-1.62
			c-0.22-0.61-0.34-1.23-0.34-1.86c0-0.66,0.12-1.3,0.36-1.9c0.24-0.61,0.57-1.14,0.99-1.61s0.91-0.84,1.48-1.11
			c0.57-0.27,1.19-0.41,1.85-0.41c0.69,0,1.32,0.15,1.9,0.44c0.57,0.29,1.06,0.68,1.47,1.15c0.41,0.48,0.72,1.02,0.95,1.62
			c0.22,0.6,0.34,1.22,0.34,1.84c0,0.66-0.12,1.3-0.36,1.9c-0.24,0.61-0.56,1.14-0.98,1.6c-0.42,0.46-0.91,0.83-1.48,1.11
			C282.89,34.9,282.27,35.03,281.61,35.03z M277.92,29.99c0,0.54,0.09,1.06,0.27,1.56c0.18,0.5,0.43,0.94,0.76,1.33
			c0.33,0.39,0.71,0.7,1.16,0.92c0.45,0.23,0.95,0.34,1.5,0.34c0.56,0,1.07-0.12,1.53-0.36s0.84-0.56,1.16-0.95
			s0.56-0.84,0.73-1.33c0.17-0.49,0.26-1,0.26-1.51c0-0.54-0.09-1.06-0.27-1.56c-0.18-0.5-0.44-0.94-0.76-1.32
			s-0.71-0.69-1.16-0.92c-0.45-0.23-0.94-0.34-1.48-0.34c-0.56,0-1.07,0.12-1.53,0.36c-0.46,0.24-0.84,0.55-1.16,0.94
			s-0.56,0.84-0.73,1.33C278.01,28.98,277.92,29.48,277.92,29.99z"/>
		<path d="M291.03,29.92c0-0.6,0.1-1.19,0.31-1.79c0.21-0.59,0.52-1.12,0.92-1.59c0.4-0.47,0.9-0.85,1.48-1.14
			c0.59-0.29,1.25-0.44,2-0.44c0.89,0,1.65,0.2,2.27,0.6s1.09,0.92,1.39,1.57l-0.77,0.48c-0.16-0.33-0.35-0.6-0.58-0.83
			c-0.23-0.22-0.47-0.41-0.73-0.55c-0.26-0.14-0.53-0.24-0.81-0.3c-0.28-0.06-0.56-0.09-0.83-0.09c-0.6,0-1.13,0.12-1.58,0.36
			c-0.46,0.24-0.84,0.56-1.15,0.95c-0.31,0.39-0.55,0.83-0.71,1.32c-0.16,0.49-0.24,0.99-0.24,1.49c0,0.55,0.1,1.08,0.29,1.58
			c0.19,0.5,0.45,0.95,0.78,1.34c0.33,0.39,0.72,0.7,1.18,0.92c0.45,0.23,0.94,0.34,1.48,0.34c0.28,0,0.57-0.04,0.86-0.1
			c0.29-0.07,0.58-0.18,0.85-0.34c0.28-0.15,0.53-0.35,0.76-0.57c0.23-0.23,0.43-0.51,0.59-0.83l0.81,0.42
			c-0.16,0.37-0.38,0.7-0.67,0.99c-0.29,0.28-0.61,0.52-0.97,0.72c-0.35,0.2-0.73,0.35-1.13,0.45c-0.4,0.1-0.79,0.15-1.17,0.15
			c-0.68,0-1.31-0.15-1.88-0.45c-0.57-0.3-1.06-0.69-1.47-1.17c-0.41-0.48-0.73-1.03-0.96-1.64
			C291.14,31.18,291.03,30.56,291.03,29.92z"/>
		<path d="M301.29,34.96v-9.94h4.2c0.43,0,0.82,0.09,1.18,0.27s0.67,0.42,0.93,0.71s0.46,0.63,0.61,1
			c0.14,0.37,0.22,0.75,0.22,1.13c0,0.36-0.05,0.71-0.16,1.04c-0.11,0.33-0.26,0.63-0.45,0.9s-0.42,0.49-0.69,0.67
			c-0.27,0.18-0.57,0.31-0.91,0.37l2.44,3.84h-1.11l-2.34-3.67h-2.94v3.67H301.29z M302.27,30.43h3.25c0.29,0,0.55-0.06,0.79-0.19
			c0.24-0.13,0.44-0.3,0.61-0.51s0.3-0.46,0.39-0.73c0.09-0.27,0.14-0.56,0.14-0.85c0-0.3-0.05-0.59-0.16-0.86
			c-0.11-0.27-0.25-0.52-0.43-0.72s-0.4-0.37-0.64-0.49c-0.25-0.12-0.51-0.18-0.78-0.18h-3.16V30.43z"/>
		<path d="M317.11,34.09v0.87h-6.68v-9.94h6.55v0.87h-5.57v3.58h4.86v0.83h-4.86v3.79H317.11z"/>
		<path d="M322.04,25.02h0.83l4.13,9.94h-1.04l-1.29-3.11h-4.47l-1.27,3.11h-1.05L322.04,25.02z M324.45,31.08
			l-2-4.91l-2.03,4.91H324.45z"/>
		<path d="M334.5,25.89h-3.54v9.07h-0.98v-9.07h-3.54v-0.87h8.06V25.89z"/>
		<path d="M339.52,35.03c-0.69,0-1.32-0.14-1.9-0.43c-0.57-0.28-1.07-0.66-1.48-1.13c-0.41-0.47-0.73-1.01-0.95-1.62
			c-0.22-0.61-0.34-1.23-0.34-1.86c0-0.66,0.12-1.3,0.36-1.9c0.24-0.61,0.57-1.14,0.99-1.61s0.91-0.84,1.48-1.11
			c0.57-0.27,1.19-0.41,1.85-0.41c0.69,0,1.32,0.15,1.9,0.44c0.57,0.29,1.06,0.68,1.47,1.15c0.41,0.48,0.72,1.02,0.95,1.62
			c0.22,0.6,0.34,1.22,0.34,1.84c0,0.66-0.12,1.3-0.36,1.9c-0.24,0.61-0.56,1.14-0.98,1.6c-0.42,0.46-0.91,0.83-1.48,1.11
			C340.8,34.9,340.19,35.03,339.52,35.03z M335.84,29.99c0,0.54,0.09,1.06,0.27,1.56c0.18,0.5,0.43,0.94,0.76,1.33
			c0.33,0.39,0.71,0.7,1.16,0.92c0.45,0.23,0.95,0.34,1.5,0.34c0.56,0,1.07-0.12,1.53-0.36s0.84-0.56,1.16-0.95
			s0.56-0.84,0.73-1.33c0.17-0.49,0.26-1,0.26-1.51c0-0.54-0.09-1.06-0.27-1.56c-0.18-0.5-0.44-0.94-0.76-1.32
			s-0.71-0.69-1.16-0.92c-0.45-0.23-0.94-0.34-1.48-0.34c-0.56,0-1.07,0.12-1.53,0.36c-0.46,0.24-0.84,0.55-1.16,0.94
			s-0.56,0.84-0.73,1.33C335.93,28.98,335.84,29.48,335.84,29.99z"/>
		<path d="M346.03,34.96v-9.94h4.2c0.43,0,0.82,0.09,1.18,0.27s0.67,0.42,0.93,0.71s0.46,0.63,0.61,1
			c0.14,0.37,0.22,0.75,0.22,1.13c0,0.36-0.05,0.71-0.16,1.04c-0.11,0.33-0.26,0.63-0.45,0.9s-0.42,0.49-0.69,0.67
			c-0.27,0.18-0.57,0.31-0.91,0.37l2.44,3.84h-1.11l-2.34-3.67h-2.94v3.67H346.03z M347.01,30.43h3.25c0.29,0,0.55-0.06,0.79-0.19
			c0.24-0.13,0.44-0.3,0.61-0.51s0.3-0.46,0.39-0.73c0.09-0.27,0.14-0.56,0.14-0.85c0-0.3-0.05-0.59-0.16-0.86
			c-0.11-0.27-0.25-0.52-0.43-0.72s-0.4-0.37-0.64-0.49c-0.25-0.12-0.51-0.18-0.78-0.18h-3.16V30.43z"/>
	</g>
</g>
</svg>
