<?xml version="1.0" encoding="utf-8"?>
<!-- Generator: Adobe Illustrator 25.0.0, SVG Export Plug-In . SVG Version: 6.00 Build 0)  -->
<svg version="1.1" id="Layer_1" xmlns:serif="http://www.serif.com/"
	 xmlns="http://www.w3.org/2000/svg" xmlns:xlink="http://www.w3.org/1999/xlink" x="0px" y="0px" viewBox="0 0 1200 1700"
	 style="enable-background:new 0 0 1200 1700;" xml:space="preserve">
<g id="Shins_F">
	<g id="Left-Shin_F">
		<g id="None_Shin_Left_F_Option">
		</g>
		<g id="Wraps_Shin_Left_F_Option">
			<path class="st0" d="M990.6,1531.5c-62.9,19.5-102.4,26-158.4,11.1l-20.5-110.4l168.7-6.2L990.6,1531.5z"/>
			<path class="st0" d="M986.1,1458.4c-61.7,25.1-104.2,31.7-167.4,27.4l-16.3-109.2l176.2-31.8L986.1,1458.4z"/>
			<path class="st0" d="M984.6,1396.6c-105.3,10.9-162.8,33.8-179.1,11l-12.9-110.8l190.4-1.1L984.6,1396.6z"/>
			<path class="st0" d="M985.8,1331.2c0,0-53.6,6.8-88.4,6.1c-35.1-0.7-106.8-12.3-106.8-12.3l-11.9-105.6l208.8-0.2L985.8,1331.2z"
				/>
			<path class="st0" d="M990.7,1233.5c0,0-66,15.7-101.7,19.2c-36,3.6-108.6,2.5-108.6,2.5l-12.4-98l218.2-34.6L990.7,1233.5z"/>
			<path class="st0" d="M985.9,1114.7l5.9,74.3c0,0-74.3-7.6-112.2-9.2c-37.4-1.6-108.8,9.4-108.8,9.4l-10.8-99.9
				c0,0,91-19.4,129.4-17.8c36.6,1.5,93.2,15.9,93.2,15.9L985.9,1114.7z"/>
		</g>
		<g id="Basic_Shin_Left_F_Option">
			<path id="Shin_Left_Basic_F" class="st0" d="M986,1142.4c-2.3-26.4-20.9-56-40.8-66.6c-19.8-10.7-57.1-13.6-78.2,2.6
				c-26.2,20.1-78.2,70.1-78.7,118c-0.7,64.7,42.6,226.4,74.3,270.3c23.2,32.2,101.1,30.4,115.4-7.3
				C998.5,1405.3,991.5,1206.4,986,1142.4z"/>
			<path id="Trauma-Plating_Left-Shin_F_ToggleOff" class="st0" d="M972.1,1143.6c-1.9-21.9-17-46.7-33.5-55.5
				c-16-8.6-46-11.7-63.1,1.4c-14.8,11.4-38.5,32.9-55.1,58.2c-10.2,15.4-17.9,32.2-18.1,48.9c-0.7,62.7,41,219.5,71.6,261.9
				c9.2,12.8,29.8,17.7,49,16.8c18.2-0.9,36.5-6.6,42-20.9c5.8-15.4,9.1-43.1,10.9-76C980.4,1298,975.8,1188,972.1,1143.6"/>
		</g>
	</g>
	<g id="Right-Shin_F">
		<g id="None_Shin_Right_F_Option">
		</g>
		<g id="Wraps_Shin_Right_F_Option">
			<path class="st0" d="M211,1531.5c62.9,19.5,102.4,26,158.4,11.1l20.5-110.4l-168.7-6.2L211,1531.5z"/>
			<path class="st0" d="M215.5,1458.4c61.7,25.1,104.2,31.7,167.4,27.4l16.3-109.2l-176.2-31.8L215.5,1458.4z"/>
			<path class="st0" d="M217,1396.6c105.3,10.9,162.8,33.8,179.1,11l12.9-110.8l-190.4-1.1L217,1396.6z"/>
			<path class="st0" d="M215.8,1331.2c0,0,53.6,6.8,88.4,6.1c35.1-0.7,106.8-12.3,106.8-12.3l11.9-105.6l-208.8-0.2L215.8,1331.2z"
				/>
			<path class="st0" d="M210.9,1233.5c0,0,66,15.7,101.7,19.2c36,3.6,108.6,2.5,108.6,2.5l12.4-98l-218.2-34.6L210.9,1233.5z"/>
			<path class="st0" d="M215.7,1114.7l-5.9,74.3c0,0,74.3-7.6,112.2-9.2c37.4-1.6,108.8,9.4,108.8,9.4l10.8-99.9
				c0,0-91-19.4-129.4-17.8c-36.6,1.5-93.2,15.9-93.2,15.9L215.7,1114.7z"/>
		</g>
		<g id="Basic_Shin_Right_F_Option">
			<path id="Shin_Right_Basic_F" class="st0" d="M214.1,1142.4c2.3-26.4,20.9-56,40.8-66.6c19.8-10.7,57.1-13.6,78.2,2.6
				c26.2,20.1,78.2,70.1,78.7,118c0.7,64.7-42.6,226.4-74.3,270.3c-23.2,32.2-101.1,30.4-115.4-7.3
				C201.6,1405.3,208.7,1206.4,214.1,1142.4z"/>
			<path id="Trauma-Plating_Right-Shin_F_ToggleOff" class="st0" d="M228.1,1143.6c1.9-21.9,17-46.7,33.5-55.5
				c16-8.6,46-11.7,63.1,1.4c14.8,11.4,38.5,32.9,55.1,58.2c10.2,15.4,17.9,32.2,18.1,48.9c0.7,62.7-41,219.5-71.6,261.9
				c-9.2,12.8-29.8,17.7-49,16.8c-18.2-0.9-36.5-6.6-42-20.9c-5.8-15.4-9.1-43.1-10.9-76C219.7,1298,224.3,1188,228.1,1143.6"/>
		</g>
	</g>
</g>
<g id="Ankles_F">
	<g id="Left-Ankle_F">
		<g id="None_Ankle_Left_F_Option">
		</g>
		<path id="Basic_Ankle_Left_F_Option" class="st0" d="M1095.9,1651.1c-3-6.8-106.2-73.8-111.5-140.2c-1.3-16.5-106.2-13.8-113.3,16
			c-1.9,8.1-1,39.1,2.2,53.9c7.3,33.9,108.4,106.3,128.1,110.4C1021.5,1695.5,1106.6,1675.3,1095.9,1651.1z"/>
	</g>
	<g id="Right-Ankle_F">
		<g id="None_Ankle_Right_F_Option">
		</g>
		<path id="Basic_Ankle_Right_F_Option" class="st0" d="M106.6,1651.1c3-6.8,106.2-73.8,111.5-140.2c1.3-16.5,106.2-13.8,113.3,16
			c1.9,8.1,1,39.1-2.2,53.9c-7.3,33.9-108.4,106.3-128.1,110.4C181.1,1695.5,95.9,1675.3,106.6,1651.1z"/>
	</g>
</g>
<g id="Knees_F">
	<g id="Left-Knee_F">
		<g id="None-(Nih-Plates)_Left_F_Option"></g>
		<g id="Legacy_Knee_Left_F_Option">
			<path class="st0" d="M943.2,935.7L900.7,906l-95,14.8l-37,42.1l30.5,102.7h75.2l71-22.7L943.2,935.7z"/>
			<path class="st0" d="M957.6,866.2l-54.5-38.1l-121.9,18.9L733.8,901l39.1,131.7l187.5-29.1L957.6,866.2z"/>
		</g>
		<path id="Basic_Knee_Left_F_Option" class="st0" d="M716.2,900.3l17.2,65.2l47.4-2.5c0,0,18.8,81.6,94.1,76.6
			c78.6-5.2,86.1-99,86.1-99l-11.7-79.4L716.2,900.3z"/>
	</g>
	<g id="Right-Knee_F">
		<g id="None-(Nih-Plates)_Right_F_Option"></g>
		<g id="Legacy_Knee_Right_F_Option">
			<path class="st0" d="M257.4,935.7l42.5-29.7l95,14.8l37,42.1l-30.5,102.7h-75.2l-71-22.7L257.4,935.7z"/>
			<path class="st0" d="M243,866.2l54.5-38.1l121.9,18.9l47.5,53.9l-39.1,131.7l-187.5-29.1L243,866.2z"/>
		</g>
		<path id="Basic_Knee_Right_F_Option" class="st0" d="M485.4,899.5l-17.4,66l-47.4-2.5c0,0-18.8,81.6-94.1,76.6
			c-78.6-5.2-86.1-99-86.1-99l11.7-79.4L485.4,899.5z"/>
	</g>
</g>
<g id="Thighs_F">
	<g id="Left-Thigh_F">
		<g id="None_Thigh_Left_F_Option">
		</g>
		<g id="Legacy_Thigh_Left_F_Option">
			<path id="Plate-3_Legacy_Thigh_Left_F" class="st0" d="M704.9,680.6l19.4,96.8l105.5,16.1l92.3-34.6l4.3-98.9l-100.6,40.5
				L704.9,680.6z"/>
			<path id="Plate-2_Legacy_Thigh_Left_F" class="st0" d="M682.6,600.6l16.5,79l126.5,20.8l106.4-42.9l5.2-112.5l-120.2,65.8
				L682.6,600.6z"/>
			<path id="Plate-1_Legacy_Thigh_Left_F" class="st0" d="M928.7,453.2c-12.4-28.1-53.3-68.5-80.5-79.9
				c-25.8-10.8-60.4-6.1-82.5,11.6c-33.8,27.1-72.5,75.1-90.3,111c-9.6,19.5,3.8,104.4,3.8,104.4l137.8,10.5L942.9,542
				C942.9,542,940.6,480.1,928.7,453.2z"/>
		</g>
		<g id="Basic_Thigh_Left_F_Option">
			<path id="Thigh_Left_Basic_F" class="st0" d="M938.6,448.3c-4.7-36.5-33.3-64.6-60.5-75.3c-25.8-10.2-60.4-5.8-82.5,11
				c-33.8,25.6-111.5,80.8-120.3,142.4c-9.8,68.7,43.2,220.7,61.3,269.8c6.1,16.7,29.3,24.3,47,24.9c32.9,1.2,128.6,27.8,150.1-17.9
				C962.9,741,947.9,520,938.6,448.3z"/>
			<path id="Trauma-Plating_Left-Thigh_F_ToggleOff" class="st0" d="M924.8,450.1c-4-31.1-28.6-55-51.8-64.1
				c-21.6-8.5-50.4-4.9-68.9,9.1c-19.7,14.9-54.9,40.2-81.7,71c-16.5,19-29.9,40-33.1,62.1c-3.7,26.2,2.4,65.1,11.9,105.3
				c14.7,62.7,37.9,128.5,48.7,157.7c1.8,5,6.7,8.2,11.9,10.6c7.1,3.3,15.3,4.9,22.5,5.1c19.4,0.7,61.2,10.5,96.1,8.5
				c17.9-1.1,34.3-4.5,40.8-18.3c8.2-17.6,12.3-48.6,14.4-85.3C940.4,621.9,931.2,499.8,924.8,450.1"/>
		</g>
	</g>
	<g id="Right-Thigh_F">
		<g id="None_Thigh_Right_F_Option">
		</g>
		<g id="Legacy_Thigh_Right_F_Option">
			<path id="Plate-3_Legacy_Thigh_Right_F" class="st0" d="M495.9,680.6l-19.4,96.8l-105.5,16.1l-92.3-34.6l-4.3-98.9l100.6,40.5
				L495.9,680.6z"/>
			<path id="Plate-2_Legacy_Thigh_Right_F" class="st0" d="M518.2,600.6l-16.5,79l-126.5,20.8l-106.4-42.9l-5.2-112.5l120.2,65.8
				L518.2,600.6z"/>
			<path id="Plate-1_Legacy_Thigh_Right_F" class="st0" d="M272,453.2c12.4-28.1,53.3-68.5,80.5-79.9c25.8-10.8,60.4-6.1,82.5,11.6
				c33.8,27.1,72.5,75.1,90.3,111c9.6,19.5-3.8,104.4-3.8,104.4l-137.8,10.5L257.9,542C257.9,542,260.2,480.1,272,453.2z"/>
		</g>
		<g id="Basic_Thigh_Right_F_Option">
			<path id="Thigh_Right_Basic_F" class="st0" d="M262.1,448.3c4.7-36.5,33.3-64.6,60.5-75.3c25.8-10.2,60.4-5.8,82.5,11
				c33.8,25.6,111.5,80.8,120.3,142.4c9.8,68.7-43.2,220.7-61.3,269.8c-6.1,16.7-29.3,24.3-47,24.9c-32.9,1.2-128.6,27.8-150.1-17.9
				C237.8,741,252.9,520,262.1,448.3z"/>
			<path id="Trauma-Plating_Right-Thigh_F_ToggleOff" class="st0" d="M276,450.1c4-31.1,28.6-55,51.8-64.1
				c21.6-8.5,50.4-4.9,68.9,9.1c19.7,14.9,54.9,40.2,81.7,71c16.5,19,29.9,40,33.1,62.1c3.7,26.2-2.4,65.1-11.9,105.3
				c-14.7,62.7-37.9,128.5-48.7,157.7c-1.8,5-6.7,8.2-11.9,10.6c-7.1,3.3-15.3,4.9-22.5,5.1c-19.4,0.7-61.2,10.5-96.1,8.5
				c-17.9-1.1-34.3-4.5-40.8-18.3c-8.2-17.6-12.3-48.6-14.4-85.3C260.4,621.9,269.6,499.8,276,450.1"/>
		</g>
	</g>
</g>
<g id="Groin_F">
	<g id="None_Groin_F_Option">
	</g>
	<g id="Basic_Groin_F_Option">
		<path id="Groin_Basic_F" class="st0" d="M534.4,360.2L423.6,137.6h354.3L667.1,360.2c0,0-44.2,53-66.4,53S534.4,360.2,534.4,360.2
			z"/>
		<path id="Trauma-Plating_Groin_F_ToggleOff" class="st0" d="M655.3,352.5l100-200.9H446.2l100,200.9c4.4,5.1,22,25.4,38.9,38.2
			c5.9,4.5,11.2,8.6,15.6,8.6c4.4,0,9.7-4.1,15.6-8.6C633.3,377.9,650.9,357.6,655.3,352.5"/>
	</g>
</g>
<g id="Waist_F">
	<g id="Accessories_Waist_F">
		<g id="Kama_F_ToggleOff">
			<g id="Clean_Kama_F_Option">
				<g id="Trim_Kama-Clean">
					<path class="st1" d="M738.9,151.9l79.6,605.9L1140,896.4L849.1,201.2l-9.9-85.4L738.9,151.9z"/>
					<path class="st1" d="M462,151.9l-79.6,605.9L60.9,896.4l290.9-695.2l9.3-85.4L462,151.9z"/>
				</g>
				<g id="Main_Kama-Clean">
					<path class="st1" d="M758.8,149.3l77,586l290.9,129.2L849.1,201.2l-9.5-82.5L758.8,149.3z"/>
					<path class="st1" d="M442.2,149.3l-77,586L74.3,864.5l277.5-663.3l9.3-85.4L442.2,149.3z"/>
				</g>
			</g>
			<g id="Tattered_Kama_F_Option">
				<g id="Main_Kama-Tattered">
					<path class="st0" d="M811.6,99.6c14.9-3.4,8.2,54.9,41.5,100.2c20.3,27.6,47.5,73.3,53,98.7c6.4,30.2,25.7,60.7,33.3,90.9
						c13.2,52.4,31.1,103.4,42.1,155c8.8,41.2,5.8,85,15.6,126.4c7.4,31.3,2.7,58.4,12.9,88.3c11.4,33.5-11.5,67-3.3,101.3
						c5,21,0.9,41.1,7.5,61.6c2.2,6.9,4.1,13.9,5.9,21c0.5,2.2,1,4.3,1.5,6.5c0.3,1.3,1.8,4.8,0.8,3.9c-6.9-6.3-10.6-18.1-17-25.4
						c-12.5-14.3-28.2-25-40-40c-4.6-5.8-8.1-12.2-11.3-18.9c-0.3-0.6-2.4-5.7-2.6-5.6c-24.2,5.2-48.3,14.7-68.9-6.5
						c-16.4-16.8-30.5-53-38.8-75.5c-3.5-9.4,1.2-64.9-5-70.1c-4.6-3.8-8.8,46.1-14.3,42.7c-34.8-21.2-84.2-33.8-84.2-33.8
						s-3.9-70.7-1-111.2c2.5-36.4-2.4-67.9-7.6-103.5c-6.7-46-5.9-93.4-2.9-139.5C733.2,290.8,677.4,130,811.6,99.6z M891.3,780
						c-4.3,18.7-4.7,40,5.6,56.9c3.4,5.6,12.1,14.6,19.6,12.2c31.7-10.1-7.1-60.4-17.3-71.6L891.3,780z M798.3,643.4
						c-5.7,3.6-10.7,7.9-14.8,13.3c-15,19.6,26.2,9.9,19.1-14L798.3,643.4z"/>
					<path class="st0" d="M389.2,99.6c-14.9-3.4-12,52.4-41.5,100.2c-19.5,31.5-47.5,73.3-53,98.7c-6.4,30.2-25.7,60.7-33.3,90.9
						c-13.2,52.4-31.1,103.4-42.1,155c-8.8,41.2-5.8,85-15.6,126.4c-7.4,31.3-2.7,58.4-12.9,88.3c-11.4,33.5,11.5,67,3.3,101.3
						c-5,21-0.9,41.1-7.5,61.6c-2.2,6.9-4.1,13.9-5.9,21c-0.5,2.2-1,4.3-1.5,6.5c-0.3,1.3-1.8,4.8-0.8,3.9
						c6.9-6.3,10.6-18.1,17-25.4c12.5-14.3,28.2-25,40-40c4.6-5.8,8.1-12.2,11.3-18.9c0.3-0.6,2.4-5.7,2.6-5.6
						c24.2,5.2,48.3,14.7,68.9-6.5c16.4-16.8,30.5-53,38.8-75.5c3.5-9.4-1.2-64.9,5-70.1c4.6-3.8,8.8,46.1,14.4,42.7
						c34.8-21.2,84.2-33.8,84.2-33.8s3.9-70.7,1-111.2c-2.5-36.4,2.4-67.9,7.6-103.5c6.7-46,5.9-93.4,2.9-139.5
						C467.6,290.8,523.4,130,389.2,99.6z M309.5,780c4.3,18.7,4.7,40-5.6,56.9c-3.4,5.6-12.1,14.6-19.6,12.2
						c-31.7-10.1,7.1-60.4,17.3-71.6L309.5,780z M402.5,643.4c5.7,3.6,10.7,7.9,14.8,13.3c15,19.6-26.2,9.9-19.1-14L402.5,643.4z"/>
				</g>
			</g>
		</g>
		<g id="Loin-Cloth_F_ToggleOff">
			<g id="Clean_Loin-Cloth_F_Option">
				<path id="Trim_Loin-Cloth-Clean_F" class="st1" d="M709.1,136.1H491.8v477.1l108.7,134l108.7-134V136.1z"/>
				<path id="Main_Loin-Cloth-Clean_F" class="st1" d="M695.2,186.3H505.7v415.9L600.5,719l94.7-116.8V186.3z"/>
			</g>
			<path id="Tattered_Loin-Cloth_F_Option" class="st0" d="M709.7,134.4c-0.6,28.1-1.7,56-0.1,84.1c1.4,24.6,5.5,49.9,5.3,74.6
				c-0.1,19.5-5,38.2-6.1,57.5c-1.8,31.8,0.9,65.9,3.8,97.5c5.8,62-16.4,270.4-16.4,270.4l-45-50.5L621,759.4l-25.4-58.7l-23,47.2
				l-24.3-9.6l-11.8,78.3l-23.7-62.3l-2.9-53.2c0,0-3.6-26-11.2-71.7c-3.3-19.6-11.3-39-11.9-59.2c-1.4-50.2,13.2-100.4,14.6-150.7
				c1.1-40.1-8-79.1-10.8-118.8c-2.5-34.6-6.9-89.7,12.6-118.3C523.3,153.1,709.7,134.4,709.7,134.4z M567.6,652.7
				c-1.2,6.3-2.4,12.6-3.2,19c-0.5,3.9-1,7.8-1.2,11.7c-0.2,5.3,0.2,11.2,2,16.1c0.2,0.4,2.9-1.4,3.2-1.6c3-2.4,5.1-6.1,6.2-10.3
				c2.6-9.9,4.1-28.1-3.5-35.6L567.6,652.7z M682.3,582.3c-5.4,3.7-12.6,8-16.5,14c-2.9,4.5-4.9,9.2-5.9,14.8
				c-0.6,3.8-1.1,7.5-1.3,11.4c-0.8,14.1,6.1,18.9,15,8.8C681.7,622.2,690.8,593.8,682.3,582.3z"/>
		</g>
		<g id="Left-Holster_F_ToggleOff">
			<g id="Weapon_Holster-Left_F">
				<g id="Main_Weapon_Holster-Left_F">
					<path class="st0" d="M941.8,472l1.8-38.4l6.6,0.3l1.1-24.1l-6.6-0.3l0.6-12.6c0.2-4.1,5.8-7.1,12.5-6.8
						c15.4,0.7,41.7,1.9,57,2.6c6.7,0.3,12,3.9,11.8,7.9l-0.6,12.6l-6.6-0.3l-1.1,24.1l6.6,0.3l-1.8,38.4l-15.5-0.7l-4.9,106.2
						l-50.2-2.3l4.9-106.2L941.8,472z"/>
					<path class="st0" d="M1016.8,469.8l-8.9-0.4l-5.9,127.7l-50.2-2.3l5.9-127.7l-8.9-0.4l1.3-29.1l68.1,3.1L1016.8,469.8z"/>
					<path class="st0" d="M1006,400.6l-40.3-1.9l-1.8,39.4l40.3,1.9L1006,400.6z"/>
					<path class="st0" d="M968.6,479.1l-6.6-0.3l-4.6,100.4l6.6,0.3L968.6,479.1z"/>
					<path class="st0" d="M986.6,456.9l-6.6-0.3L975.3,557l6.6,0.3L986.6,456.9z"/>
					<path class="st0" d="M1002.3,480.6l-6.6-0.3l-4.6,100.4l6.6,0.3L1002.3,480.6z"/>
				</g>
				<g id="Accent_Weapon_Holster-Left_F">
					<path class="st0" d="M969.7,442.4l-0.2,4l28.4,1.3l0.2-4L969.7,442.4z"/>
					<path class="st0" d="M969.5,446.5l-0.2,4l28.4,1.3l0.2-4L969.5,446.5z"/>
					<path class="st0" d="M969.9,438.4l-0.2,4l28.4,1.3l0.2-4L969.9,438.4z"/>
					<path class="st0" d="M972.1,389l-0.2,4l28.4,1.3l0.2-4L972.1,389z"/>
					<path class="st0" d="M972.3,399l-6.6-0.3l-1.8,39.4l6.6,0.3L972.3,399z"/>
					<path class="st0" d="M1006,400.6l-6.6-0.3l-1.8,39.4l6.6,0.3L1006,400.6z"/>
					<path class="st0" d="M995.7,480.3l-10-0.5l-4.6,100.4l10,0.5L995.7,480.3z"/>
					<path class="st0" d="M978.7,479.5l-10-0.5l-4.6,100.4l10,0.5L978.7,479.5z"/>
				</g>
			</g>
			<path id="Holster_Holster-Left_F" class="st0" d="M942.2,619.9l-8.1-161.7l74.7,121.7l-16.5,220c-17.4,18.3-34.6,18.4-51.4-2
				L942.2,619.9z"/>
			<g id="Straps_Holster-Left_F">
				<path class="st0" d="M656.4,197.3c81.7,117.2,164,216.5,277.7,260.9l1.4,27.7c-141.4-59.6-217.2-160.6-300.8-288.6H656.4z"/>
				<path class="st0" d="M941.8,652.8c-89.8,58.8-140.7,81.7-238,95.7l5,21.9c86.6-14.5,147.6-39.5,233-94.5V652.8z"/>
				<path class="st0" d="M941.8,675.9l0.2-23.1c19.9,8.8,43,9.5,61.2,3l-1.8,23.6C981.8,684.5,959.5,684.8,941.8,675.9z"/>
			</g>
			<g id="Buckle_Holster-Left_F">
				<path class="st0" d="M763.4,747.4l-10.7,1.6l0.5,3.5l10.7-1.6L763.4,747.4"/>
				<path class="st0" d="M734.2,315.8l-7.4-9.8l-2.8,2.1l7.4,9.8L734.2,315.8"/>
				<path class="st0" d="M731.3,317.9l-12.1,9.8l-28.6-35.3l27.6-22.3l28.6,35.3l-12.6,10.2l-6.1-8.1l6.2-5L718.4,283l-15.2,12.3
					l15.8,19.5l6.2-5.1L731.3,317.9"/>
				<path class="st0" d="M763,747.4l-8.5,1.3l-1.2-8.3l-20.6,4.4l2.9,19.3l20.6-4.4l-1.1-7.5l8.5-1.3l2.2,14.8l-37.3,8l-5.2-35
					l37.3-8L763,747.4"/>
			</g>
		</g>
		<g id="Right-Holster_F_ToggleOff">
			<g id="Weapon_Holster-Right_F">
				<g id="Main_Weapon_Holster-Right_F">
					<path class="st0" d="M259.1,472l-1.8-38.4l-6.6,0.3l-1.1-24.1l6.6-0.3l-0.6-12.6c-0.2-4.1-5.8-7.1-12.5-6.8
						c-15.4,0.7-41.7,1.9-57,2.6c-6.7,0.3-12,3.9-11.8,7.9l0.6,12.6l6.6-0.3l1.1,24.1l-6.6,0.3l1.8,38.4l15.5-0.7l4.9,106.2
						l50.2-2.3l-4.9-106.2L259.1,472z"/>
					<path class="st0" d="M184.2,469.8l8.9-0.4L199,597l50.2-2.3L243.3,467l8.9-0.4l-1.3-29.1l-68.1,3.1L184.2,469.8z"/>
					<path class="st0" d="M194.9,400.6l40.3-1.9l1.8,39.4l-40.3,1.9L194.9,400.6z"/>
					<path class="st0" d="M232.3,479.1l6.6-0.3l4.6,100.4l-6.6,0.3L232.3,479.1z"/>
					<path class="st0" d="M214.4,456.9l6.6-0.3l4.6,100.4l-6.6,0.3L214.4,456.9z"/>
					<path class="st0" d="M198.6,480.6l6.6-0.3l4.6,100.4l-6.6,0.3L198.6,480.6z"/>
				</g>
				<g id="Accent_Weapon_Holster-Right_F">
					<path class="st0" d="M231.3,442.4l0.2,4l-28.4,1.3l-0.2-4L231.3,442.4z"/>
					<path class="st0" d="M231.5,446.5l0.2,4l-28.4,1.3l-0.2-4L231.5,446.5z"/>
					<path class="st0" d="M231.1,438.4l0.2,4l-28.4,1.3l-0.2-4L231.1,438.4z"/>
					<path class="st0" d="M228.8,389l0.2,4l-28.4,1.3l-0.2-4L228.8,389z"/>
					<path class="st0" d="M228.6,399l6.6-0.3l1.8,39.4l-6.6,0.3L228.6,399z"/>
					<path class="st0" d="M194.9,400.6l6.6-0.3l1.8,39.4l-6.6,0.3L194.9,400.6z"/>
					<path class="st0" d="M205.2,480.3l10-0.5l4.6,100.4l-10,0.5L205.2,480.3z"/>
					<path class="st0" d="M222.2,479.5l10-0.5l4.6,100.4l-10,0.5L222.2,479.5z"/>
				</g>
			</g>
			<path id="Holster_Holster-Right_F" class="st0" d="M258.7,619.9l8.1-161.7L192.1,580l16.5,220c17.4,18.3,34.6,18.4,51.4-2
				L258.7,619.9z"/>
			<g id="Straps_Holster-Right_F">
				<path class="st0" d="M544.6,197.3c-81.7,117.2-164,216.5-277.7,260.9l-1.4,27.7c141.4-59.6,217.2-160.6,300.8-288.6H544.6z"/>
				<path class="st0" d="M259.2,652.8c81.5,53.5,141.6,81.9,238,95.7l-5,21.9c-87.1-14.3-147.6-39.5-233-94.5V652.8z"/>
				<path class="st0" d="M259.2,675.9l-0.2-23.1c-19.9,8.8-43,9.5-61.2,3l1.8,23.6C219.2,684.5,241.4,684.8,259.2,675.9z"/>
			</g>
			<g id="Buckle_Holster-Right_F">
				<path class="st0" d="M437.9,747.4l10.7,1.6l-0.5,3.5l-10.7-1.6L437.9,747.4"/>
				<path class="st0" d="M467.1,315.8l7.4-9.8l2.8,2.1l-7.4,9.8L467.1,315.8"/>
				<path class="st0" d="M469.9,317.9l12.1,9.8l28.6-35.3l-27.6-22.3l-28.6,35.3l12.6,10.2l6.1-8.1l-6.2-5l15.8-19.5l15.2,12.3
					l-15.8,19.5l-6.2-5.1L469.9,317.9"/>
				<path class="st0" d="M438.3,747.4l8.5,1.3l1.2-8.3l20.6,4.4l-2.9,19.3l-20.6-4.4l1.1-7.5l-8.5-1.3l-2.2,14.8l37.3,8l5.2-35
					l-37.3-8L438.3,747.4"/>
			</g>
		</g>
	</g>
	<g id="Under-Belt_F">
		<g id="Sash_F_Option">
			<path class="st0" d="M373.3,30.5c20.6-4.6,52.7,8.7,79.6,11c28.9,2.5,57.9,0.3,86.8,2.3c16.9,1.2,33.5,5.6,50.3,7.9
				c32.2,4.5,64.5,2.1,96.6-2.2c8.5-1.1,17.1-1.4,25.5-3.2c21.1-4.6,48.5-9.7,66.6-18.7c16-4.2,32.2-4.9,47.3-1
				c15.3,4,4.6,36.2,5.3,49.3c0.7,13.9,10.2,68.5,15.9,81.2c6.3,14.1,11.3,29.5-7.1,38.8c-15.4,7.8-31.7,0.8-47.4-1.4
				c-18.4-2.5-36.7-1.3-54.9,2.4c-22.3,4.6-44.3,13-67,15.3c-30.4,3-61-2.9-91.3-2.5c-17.4,0.3-34.2,6.2-51.7,4.7
				c-29.3-2.5-55.9-15-84.3-18c-14.3-1.5-28.5,2-42.8,2c-9.8,0-19-2.8-28.4-5.2c-9.4-2.4-18.2-1.4-23.4-10.8
				c-3.9-7,4.4-26.1,8.3-32.1c10.1-15.4,12.8-69.8,9.2-87.3C363.3,48.6,359,33.7,373.3,30.5z"/>
			<path class="st0" d="M352.5,159.8c32.3-0.1,60.6-0.7,89.7,11c98.6,40,96.4,34.5,138.3,39.1c61.7,6.7,86.3,4.2,111.9-1.9
				c10.3-2.5,20.6-5.9,29.9-10.9c16.4-8.8,32.4-17.8,47-30c17.8-14.8,48.8-24.9,73.7-23.6c0,0-4.8-17.2-11.7-67.9
				c-1.8-13.2,6.1-27.5-0.1-45.4c-2.7-7.7-27.2-5.6-43.8-4.1c-32.9,2.8-47.4,27.8-72.8,47.8c-14.8,11.6-32.3,25.4-54.2,32.8
				c-34.4,11.7-87.9,17.1-189.5-18.5C437.7,76.6,409.7,54.6,366,61.7c0,0,1.6,23.6,1.6,35.5C367.7,135.1,352.5,159.8,352.5,159.8z"
				/>
		</g>
		<g id="Girth-Belt_F_Option">
			<path class="st0" d="M600.4,73c-75.2,0-225.5-19.1-225.5-19.1l4.9-16.2c0,0,146.6,12.7,220.6,19.1C674,50.4,821,37.6,821,37.6
				l4.9,16.2C825.9,53.9,675.6,73,600.4,73z"/>
			<path class="st0" d="M600.4,89.2c-76.7,0-230.2-19.1-230.2-19.1l4.7-16.2c0,0,187.9,16,225.5,19.1
				c37.6-3.2,225.5-19.1,225.5-19.1l4.7,16.2C830.6,70.1,677.1,89.2,600.4,89.2z"/>
			<path class="st0" d="M600.4,105.4c-77.9,0-233.7-19.1-233.7-19.1l3.5-16.2c0,0,191.8,15.9,230.2,19.1
				c38.4-3.2,230.2-19.1,230.2-19.1l3.5,16.2C834.1,86.3,678.3,105.4,600.4,105.4z"/>
			<path class="st0" d="M600.4,121.6c-78.9,0-236.6-19.1-236.6-19.1l2.9-16.2c0,0,194.7,16,233.7,19.1
				c38.9-3.2,233.7-19.1,233.7-19.1l2.9,16.2C837,102.5,679.3,121.6,600.4,121.6z"/>
			<path class="st0" d="M600.4,137.8c-79.8,0-239.3-19.1-239.3-19.1l2.7-16.2c0,0,197.2,15.9,236.6,19.1
				c39.4-3.2,236.6-19.1,236.6-19.1l2.7,16.2C839.7,118.7,680.2,137.8,600.4,137.8z"/>
			<path class="st0" d="M600.4,154.1c-80.6,0-241.8-19.1-241.8-19.1l2.5-16.2c0,0,199.4,15.9,239.3,19.1
				c39.9-3.2,239.3-19.1,239.3-19.1l2.5,16.2C842.2,134.9,681,154.1,600.4,154.1z"/>
			<path class="st0" d="M600.4,170.3c-81.4,0-244.3-19.1-244.3-19.1l2.5-16.2c0,0,201.5,15.9,241.8,19.1
				c40.3-3.2,241.8-19.1,241.8-19.1l2.5,16.2C844.7,151.1,681.8,170.3,600.4,170.3z"/>
			<path class="st0" d="M600.4,186.5c-82.3,0-246.8-19.1-246.8-19.1l2.5-16.2c0,0,203.6,16,244.3,19.1
				c40.7-3.2,244.3-19.1,244.3-19.1l2.5,16.2C847.2,167.4,682.7,186.5,600.4,186.5z"/>
			<path class="st0" d="M600.4,202.7c-83.2,0-249.6-19.1-249.6-19.1l2.8-16.2c0,0,205.7,15.9,246.8,19.1
				c41.1-3.2,246.8-19.1,246.8-19.1l2.8,16.2C850,183.6,683.6,202.7,600.4,202.7z"/>
			<path class="st0" d="M600.4,218.9c-84.3,0-252.8-19.1-252.8-19.1l3.2-16.2c0,0,208,16,249.6,19.1C642,199.5,850,183.6,850,183.6
				l3.2,16.2C853.1,199.8,684.6,218.9,600.4,218.9z"/>
		</g>
	</g>
	<g id="Belt_F">
		<g id="Pouch-Belt-Full_F_Option">
			<path id="Main_Pouch-Belt-Full_F" class="st0" d="M848.8,151.4c-55.9,5-183.5,23.3-247.9,23.3c-65.1,0-192.7-18.4-247.8-23.2
				l8.2-65.4c45.3,4,176.6,22.6,239.6,22.6c61.2,0,189.7-18.4,238.1-22.8L848.8,151.4z"/>
			<g id="Pouches_Pouch-Belt-Full_F">
				<g>
					<g>
						<g>
							<path class="st0" d="M486.2,85.9c-3-0.2-6.1,0.3-8.9,1.4c-6,2.4-16.2,6.4-16.2,6.4l66.2,3.8l17.9-7.7
								C545.1,89.7,500.8,86.8,486.2,85.9z"/>
							<path class="st0" d="M547.3,92.9c0.1-0.9-0.3-1.8-1-2.3c-0.7-0.5-1.7-0.6-2.5-0.3c-6,2.6-16.6,7.1-16.6,7.1l-8.6,102.3
								c5.4-3.1,10.8-5.3,16.2-6.6c4.2-1,7.2-4.7,7.3-9C543,153.7,544.3,123.3,547.3,92.9z"/>
							<path class="st0" d="M527.2,97.4L461,93.6c-0.4,15.6-1.9,31-2.7,46.6c-0.8,16.7-1.2,33.5-2.7,50.3c-0.1,1.6,0.4,3.2,1.5,4.4
								c1.1,1.2,2.6,1.9,4.3,1.9c18.1,0,36.1,1.1,54,3.1c1.5,0.2,3.1-0.3,4.2-1.3c1.2-1,1.9-2.4,2-3.9c0.9-12.9,3-42.6,3-42.6
								L527.2,97.4z"/>
							<path class="st0" d="M527.2,97.4L461,93.6c0,0-1,8.7-2.3,18.8c-1,8,1.4,16.1,6.6,22.3c5.2,6.2,12.7,10,20.8,10.4
								c3.4,0.2,6.8,0.4,10.2,0.6c8.1,0.5,16-2.4,21.9-8c5.9-5.6,9.2-13.4,9.1-21.5C527.2,106.2,527.2,97.4,527.2,97.4z"/>
							<path class="st0" d="M492,133.4c2.3,0.1,4.1,2.2,4,4.5c-0.1,2.4-2.2,4.1-4.5,4c-2.4-0.1-4.1-2.2-4-4.5
								C487.6,135,489.6,133.2,492,133.4z"/>
						</g>
					</g>
					<g>
						<g>
							<path class="st0" d="M394.9,73.4c-3.3-0.2-6.6,0.4-9.6,1.7c-5.6,2.4-14.2,6.2-14.2,6.2l60.4,3.5l16.4-7.8
								C447.9,76.9,409,74.3,394.9,73.4z"/>
							<path class="st0" d="M449.9,80.3c0.1-0.9-0.3-1.8-1.1-2.4c-0.8-0.5-1.7-0.6-2.6-0.2c-5.5,2.6-14.7,7-14.7,7L423.1,187
								c4.9-3.1,9.7-5.2,14.5-6.6c4-1.1,6.9-4.7,7-8.9C445.7,141.1,447,110.6,449.9,80.3z"/>
							<path class="st0" d="M431.5,84.7l-60.4-3.5c-0.5,15.5-1.9,31-2.7,46.6c-0.9,16.7-1.3,33.4-2.7,50.3c-0.1,1.6,0.4,3.2,1.5,4.4
								c1.1,1.2,2.6,1.9,4.3,1.8c16.1-0.1,32.2,0.9,48.2,2.8c1.5,0.2,3.1-0.3,4.3-1.2c1.2-1,1.9-2.4,2-3.9c0.9-13,2.9-42.6,2.9-42.6
								L431.5,84.7z"/>
							<path class="st0" d="M431.5,84.7l-60.4-3.5c0,0-1,8.8-2.2,19c-0.9,8,1.5,16,6.7,22.2c5.2,6.2,12.7,9.9,20.7,10.4
								c1.4,0.1,2.8,0.2,4.2,0.2c8.1,0.5,16-2.4,21.8-8c5.9-5.6,9.2-13.3,9.2-21.3C431.5,93.5,431.5,84.7,431.5,84.7z"/>
							<path class="st0" d="M399.2,120.8c2.1,0.1,3.8,2.1,3.6,4.5c-0.1,2.3-2,4.2-4.1,4c-2.1-0.1-3.8-2.1-3.6-4.5
								C395.2,122.5,397,120.7,399.2,120.8z"/>
						</g>
					</g>
					<g>
						<path class="st0" d="M332.9,80.1l4.5-7l23.2,0.8l2.9,8.7L332.9,80.1z"/>
						<path class="st0" d="M363.2,84c0.1-0.7-0.1-1.4-0.6-2c-0.5-0.5-1.1-0.9-1.9-0.9c-7.5-0.3-27.9-1.1-27.9-1.1l-4.1,92
							c0.8,2.1,10.7,3.5,19.5,3.9c2.6,0.1,5.1-0.8,7-2.6c1.9-1.8,3-4.2,3.1-6.8C359,139.1,360.1,111.5,363.2,84z"/>
					</g>
				</g>
				<g>
					<g>
						<g>
							<path class="st0" d="M715.7,85.9c3-0.2,6.1,0.3,8.9,1.4c6,2.4,16.2,6.4,16.2,6.4l-66.2,3.8l-17.9-7.7
								C656.8,89.7,701,86.8,715.7,85.9z"/>
							<path class="st0" d="M654.5,92.9c-0.1-0.9,0.3-1.8,1-2.3c0.7-0.5,1.7-0.6,2.5-0.3c6,2.6,16.6,7.1,16.6,7.1l8.6,102.3
								c-5.4-3.1-10.8-5.3-16.2-6.6c-4.2-1-7.2-4.7-7.3-9C658.8,153.7,657.5,123.3,654.5,92.9z"/>
							<path class="st0" d="M674.7,97.4l66.2-3.8c0.4,15.6,1.9,31,2.7,46.6c0.8,16.7,1.2,33.5,2.7,50.3c0.1,1.6-0.4,3.2-1.5,4.4
								c-1.1,1.2-2.6,1.9-4.3,1.9c-18.1,0-36.1,1.1-54,3.1c-1.5,0.2-3.1-0.3-4.2-1.3c-1.2-1-1.9-2.4-2-3.9c-0.9-12.9-3-42.6-3-42.6
								L674.7,97.4z"/>
							<path class="st0" d="M674.7,97.4l66.2-3.8c0,0,1,8.7,2.3,18.8c1,8-1.4,16.1-6.6,22.3c-5.2,6.2-12.7,10-20.8,10.4
								c-3.4,0.2-6.8,0.4-10.2,0.6c-8.1,0.5-16-2.4-21.9-8c-5.9-5.6-9.2-13.4-9.1-21.5C674.6,106.2,674.7,97.4,674.7,97.4z"/>
							<path class="st0" d="M709.9,133.4c-2.4,0.1-4.1,2.2-4,4.5c0.1,2.4,2.2,4.1,4.5,4c2.3-0.1,4.1-2.2,4-4.5
								C714.2,135,712.2,133.2,709.9,133.4z"/>
						</g>
					</g>
					<g>
						<g>
							<path class="st0" d="M806.9,73.4c3.3-0.2,6.6,0.4,9.7,1.7c5.6,2.4,14.2,6.2,14.2,6.2l-60.4,3.5l-16.4-7.8
								C753.9,76.9,792.8,74.3,806.9,73.4z"/>
							<path class="st0" d="M751.9,80.3c-0.1-0.9,0.3-1.8,1.1-2.4c0.8-0.5,1.7-0.6,2.6-0.2c5.5,2.6,14.7,7,14.7,7l8.4,102.3
								c-4.9-3.1-9.7-5.2-14.5-6.6c-4-1.1-6.9-4.7-7-8.9C756.1,141.1,754.8,110.6,751.9,80.3z"/>
							<path class="st0" d="M770.3,84.7l60.4-3.5c0.5,15.5,1.9,31,2.7,46.6c0.9,16.7,1.3,33.4,2.7,50.3c0.1,1.6-0.4,3.2-1.5,4.4
								c-1.1,1.2-2.6,1.9-4.3,1.8c-16.1-0.1-32.2,0.9-48.2,2.8c-1.5,0.2-3.1-0.3-4.3-1.2c-1.2-1-1.9-2.4-2-3.9
								c-0.9-13-2.9-42.6-2.9-42.6L770.3,84.7z"/>
							<path class="st0" d="M770.3,84.7l60.4-3.5c0,0,1,8.8,2.2,19c0.9,8-1.5,16-6.7,22.2c-5.2,6.2-12.7,9.9-20.7,10.4
								c-1.4,0.1-2.8,0.2-4.2,0.2c-8.1,0.5-16-2.4-21.8-8c-5.9-5.6-9.2-13.3-9.2-21.3C770.3,93.5,770.3,84.7,770.3,84.7z"/>
							<path class="st0" d="M802.6,120.8c-2.1,0.1-3.8,2.1-3.6,4.5c0.1,2.3,2,4.2,4.1,4c2.1-0.1,3.8-2.1,3.6-4.5
								C806.6,122.5,804.8,120.7,802.6,120.8z"/>
						</g>
					</g>
					<g>
						<path class="st0" d="M868.9,80.1l-4.5-7l-23.2,0.8l-2.9,8.7L868.9,80.1z"/>
						<path class="st0" d="M838.6,84c-0.1-0.7,0.1-1.4,0.6-2c0.5-0.5,1.1-0.9,1.9-0.9c7.5-0.3,27.9-1.1,27.9-1.1l4.1,92
							c-0.8,2.1-10.7,3.5-19.5,3.9c-2.6,0.1-5.1-0.8-7-2.6c-1.9-1.8-3-4.2-3.1-6.8C842.8,139.1,841.7,111.5,838.6,84z"/>
					</g>
				</g>
				<path class="st0" d="M630.5,91.4l9.1,8.9l-74.9-1.4l5.8-8.2L630.5,91.4z"/>
				<path class="st0" d="M564.6,98.9l74.7,1.4c-0.8,16.2-0.5,32.4-0.9,48.6c-0.5,17.5-1.4,35-1.2,52.7c0,1.6-0.6,3.2-1.8,4.3
					c-1.2,1.1-2.8,1.7-4.4,1.5c-20.8-1.5-41.7-1.9-62.5-1.2c-1.5,0.1-3-0.5-4.1-1.6s-1.7-2.5-1.7-4.1c0.1-13.4,0.3-44.8,0.3-44.8
					L564.6,98.9z"/>
				<path class="st0" d="M564.6,98.9l74.7,1.4c0,0,0.5,9.8,1,20.9c0.4,8.1-2.6,16-8.3,21.8c-5.7,5.8-13.5,9-21.6,8.9
					c-6.3-0.1-12.8-0.2-19.1-0.4c-8.1-0.2-15.8-3.7-21.3-9.7c-5.4-6.1-8.1-14.1-7.4-22.2C563.8,108.6,564.6,98.9,564.6,98.9z"/>
				<path class="st0" d="M601.2,139c-2.7-0.1-4.8,1.9-4.9,4.4c0,2.5,2.1,4.5,4.7,4.5c2.7,0.1,4.8-1.9,4.9-4.4
					C605.9,141.1,603.8,139.1,601.2,139z"/>
			</g>
		</g>
		<g id="Pouch-Belt-6_F_Option">
			<path id="Main_Pouch-Belt-6_F" class="st0" d="M848.8,151.4c-55.9,5-183.5,23.3-247.9,23.3c-65.1,0-192.7-18.4-247.8-23.2
				l8.2-65.4c45.3,4,176.6,22.6,239.6,22.6c61.2,0,189.7-18.4,238.1-22.8L848.8,151.4z"/>
			<rect id="Buckle_Pouch-Belt-6_F" x="555.2" y="102.4" class="st0" width="92.4" height="75.8"/>
			<g id="Pouches_Pouch-Belt-6_F">
				<g>
					<g>
						<g>
							<path class="st0" d="M486.2,85.8c-3-0.2-6.1,0.3-8.9,1.4c-6,2.4-16.2,6.4-16.2,6.4l66.2,3.8l17.9-7.7
								C545.1,89.7,500.8,86.8,486.2,85.8z"/>
							<path class="st0" d="M547.3,92.9c0.1-0.9-0.3-1.8-1-2.3c-0.7-0.5-1.7-0.6-2.5-0.3c-6,2.6-16.6,7.1-16.6,7.1l-8.6,102.3
								c5.4-3.1,10.8-5.3,16.2-6.6c4.2-1,7.2-4.7,7.3-9C543,153.6,544.3,123.2,547.3,92.9z"/>
							<path class="st0" d="M527.2,97.4L461,93.6c-0.4,15.6-1.9,31-2.7,46.6c-0.8,16.7-1.2,33.5-2.7,50.3c-0.1,1.6,0.4,3.2,1.5,4.4
								c1.1,1.2,2.6,1.9,4.3,1.9c18.1,0,36.1,1.1,54,3.1c1.5,0.2,3.1-0.3,4.2-1.3c1.2-1,1.9-2.4,2-3.9c0.9-12.9,3-42.6,3-42.6
								L527.2,97.4z"/>
							<path class="st0" d="M527.2,97.4L461,93.6c0,0-1,8.7-2.3,18.8c-1,8,1.4,16.1,6.6,22.3c5.2,6.2,12.7,10,20.8,10.4
								c3.4,0.2,6.8,0.4,10.2,0.6c8.1,0.5,16-2.4,21.9-8c5.9-5.6,9.2-13.4,9.1-21.5C527.2,106.1,527.2,97.4,527.2,97.4z"/>
							<path class="st0" d="M492,133.3c2.3,0.1,4.1,2.2,4,4.5c-0.1,2.3-2.2,4.1-4.5,4c-2.4-0.1-4.1-2.2-4-4.5
								C487.6,134.9,489.6,133.1,492,133.3z"/>
						</g>
					</g>
					<g>
						<g>
							<path class="st0" d="M394.9,73.3c-3.3-0.2-6.6,0.4-9.6,1.7c-5.6,2.4-14.2,6.2-14.2,6.2l60.4,3.5l16.4-7.8
								C447.9,76.9,409,74.3,394.9,73.3z"/>
							<path class="st0" d="M449.9,80.2c0.1-0.9-0.3-1.8-1.1-2.4c-0.8-0.5-1.7-0.6-2.6-0.2c-5.5,2.6-14.7,7-14.7,7l-8.4,102.3
								c4.9-3.1,9.7-5.2,14.5-6.6c4-1.1,6.9-4.7,7-8.9C445.7,141,447,110.6,449.9,80.2z"/>
							<path class="st0" d="M431.5,84.7l-60.4-3.5c-0.5,15.5-1.9,31-2.7,46.6c-0.9,16.7-1.3,33.4-2.7,50.3c-0.1,1.6,0.4,3.2,1.5,4.4
								c1.1,1.2,2.6,1.9,4.3,1.8c16.1-0.1,32.2,0.9,48.2,2.8c1.5,0.2,3.1-0.3,4.3-1.2c1.2-1,1.9-2.4,2-3.9c0.9-13,2.9-42.6,2.9-42.6
								L431.5,84.7z"/>
							<path class="st0" d="M431.5,84.7l-60.4-3.5c0,0-1,8.8-2.2,19c-0.9,8,1.5,16,6.7,22.2c5.2,6.2,12.7,9.9,20.7,10.4
								c1.4,0.1,2.8,0.2,4.2,0.2c8.1,0.5,16-2.4,21.8-8c5.9-5.5,9.2-13.3,9.2-21.3C431.5,93.5,431.5,84.7,431.5,84.7z"/>
							<path class="st0" d="M399.2,120.7c2.1,0.1,3.8,2.1,3.6,4.5c-0.1,2.3-2,4.2-4.1,4c-2.1-0.1-3.8-2.1-3.6-4.5
								C395.2,122.4,397,120.6,399.2,120.7z"/>
						</g>
					</g>
					<g>
						<path class="st0" d="M332.9,80l4.5-7l23.2,0.8l2.9,8.7L332.9,80z"/>
						<path class="st0" d="M363.2,84c0.1-0.7-0.1-1.4-0.6-2c-0.5-0.5-1.1-0.9-1.9-0.9c-7.5-0.3-27.9-1.1-27.9-1.1l-4.1,92
							c0.8,2.1,10.7,3.5,19.5,3.9c2.6,0.1,5.1-0.8,7-2.6c1.9-1.8,3-4.2,3.1-6.8C359,139,360.1,111.4,363.2,84z"/>
					</g>
				</g>
				<g>
					<g>
						<g>
							<path class="st0" d="M715.7,85.8c3-0.2,6.1,0.3,8.9,1.4c6,2.4,16.2,6.4,16.2,6.4l-66.2,3.8l-17.9-7.7
								C656.8,89.7,701,86.8,715.7,85.8z"/>
							<path class="st0" d="M654.5,92.9c-0.1-0.9,0.3-1.8,1-2.3c0.7-0.5,1.7-0.6,2.5-0.3c6,2.6,16.6,7.1,16.6,7.1l8.6,102.3
								c-5.4-3.1-10.8-5.3-16.2-6.6c-4.2-1-7.2-4.7-7.3-9C658.8,153.6,657.5,123.2,654.5,92.9z"/>
							<path class="st0" d="M674.7,97.4l66.2-3.8c0.4,15.6,1.9,31,2.7,46.6c0.8,16.7,1.2,33.5,2.7,50.3c0.1,1.6-0.4,3.2-1.5,4.4
								c-1.1,1.2-2.6,1.9-4.3,1.9c-18.1,0-36.1,1.1-54,3.1c-1.5,0.2-3.1-0.3-4.2-1.3c-1.2-1-1.9-2.4-2-3.9c-0.9-12.9-3-42.6-3-42.6
								L674.7,97.4z"/>
							<path class="st0" d="M674.7,97.4l66.2-3.8c0,0,1,8.7,2.3,18.8c1,8-1.4,16.1-6.6,22.3c-5.2,6.2-12.7,10-20.8,10.4
								c-3.4,0.2-6.8,0.4-10.2,0.6c-8.1,0.5-16-2.4-21.9-8c-5.9-5.6-9.2-13.4-9.1-21.5C674.6,106.1,674.7,97.4,674.7,97.4z"/>
							<path class="st0" d="M709.9,133.3c-2.4,0.1-4.1,2.2-4,4.5c0.1,2.3,2.2,4.1,4.5,4c2.3-0.1,4.1-2.2,4-4.5
								C714.2,134.9,712.2,133.1,709.9,133.3z"/>
						</g>
					</g>
					<g>
						<g>
							<path class="st0" d="M806.9,73.3c3.3-0.2,6.6,0.4,9.7,1.7c5.6,2.4,14.2,6.2,14.2,6.2l-60.4,3.5l-16.4-7.8
								C753.9,76.9,792.8,74.3,806.9,73.3z"/>
							<path class="st0" d="M751.9,80.2c-0.1-0.9,0.3-1.8,1.1-2.4c0.8-0.5,1.7-0.6,2.6-0.2c5.5,2.6,14.7,7,14.7,7l8.4,102.3
								c-4.9-3.1-9.7-5.2-14.5-6.6c-4-1.1-6.9-4.7-7-8.9C756.1,141,754.8,110.6,751.9,80.2z"/>
							<path class="st0" d="M770.3,84.7l60.4-3.5c0.5,15.5,1.9,31,2.7,46.6c0.9,16.7,1.3,33.4,2.7,50.3c0.1,1.6-0.4,3.2-1.5,4.4
								c-1.1,1.2-2.6,1.9-4.3,1.8c-16.1-0.1-32.2,0.9-48.2,2.8c-1.5,0.2-3.1-0.3-4.3-1.2c-1.2-1-1.9-2.4-2-3.9
								c-0.9-13-2.9-42.6-2.9-42.6L770.3,84.7z"/>
							<path class="st0" d="M770.3,84.7l60.4-3.5c0,0,1,8.8,2.2,19c0.9,8-1.5,16-6.7,22.2c-5.2,6.2-12.7,9.9-20.7,10.4
								c-1.4,0.1-2.8,0.2-4.2,0.2c-8.1,0.5-16-2.4-21.8-8c-5.9-5.5-9.2-13.3-9.2-21.3C770.3,93.5,770.3,84.7,770.3,84.7z"/>
							<path class="st0" d="M802.6,120.7c-2.1,0.1-3.8,2.1-3.6,4.5c0.1,2.3,2,4.2,4.1,4c2.1-0.1,3.8-2.1,3.6-4.5
								C806.6,122.4,804.8,120.6,802.6,120.7z"/>
						</g>
					</g>
					<g>
						<path class="st0" d="M868.9,80l-4.5-7l-23.2,0.8l-2.9,8.7L868.9,80z"/>
						<path class="st0" d="M838.6,84c-0.1-0.7,0.1-1.4,0.6-2c0.5-0.5,1.1-0.9,1.9-0.9c7.5-0.3,27.9-1.1,27.9-1.1l4.1,92
							c-0.8,2.1-10.7,3.5-19.5,3.9c-2.6,0.1-5.1-0.8-7-2.6c-1.9-1.8-3-4.2-3.1-6.8C842.8,139,841.7,111.4,838.6,84z"/>
					</g>
				</g>
			</g>
		</g>
		<g id="Pouch-Belt-4_F_Option">
			<path id="Main_Pouch-Belt-4_F" class="st0" d="M848.8,151.4c-55.9,5-183.5,23.3-247.9,23.3c-65.1,0-192.7-18.4-247.8-23.2
				l8.2-65.4c45.3,4,176.6,22.6,239.6,22.6c61.2,0,189.7-18.4,238.1-22.8L848.8,151.4z"/>
			<rect id="Buckle_Pouch-Belt-4_F" x="555.2" y="102.4" class="st0" width="92.4" height="75.8"/>
			<g id="Pouches_Pouch-Belt-4_F">
				<g>
					<g>
						<path class="st0" d="M394.9,73.3c-3.3-0.2-6.6,0.4-9.6,1.7c-5.6,2.4-14.2,6.2-14.2,6.2l60.4,3.5l16.4-7.8
							C447.9,76.9,409,74.3,394.9,73.3z"/>
						<path class="st0" d="M449.9,80.2c0.1-0.9-0.3-1.8-1.1-2.4c-0.8-0.5-1.7-0.6-2.6-0.2c-5.5,2.6-14.7,7-14.7,7l-8.4,102.3
							c4.9-3.1,9.7-5.2,14.5-6.6c4-1.1,6.9-4.7,7-8.9C445.7,141,447,110.6,449.9,80.2z"/>
						<path class="st0" d="M431.5,84.7l-60.4-3.5c-0.5,15.5-1.9,31-2.7,46.6c-0.9,16.7-1.3,33.4-2.7,50.3c-0.1,1.6,0.4,3.2,1.5,4.4
							c1.1,1.2,2.6,1.9,4.3,1.8c16.1-0.1,32.2,0.9,48.2,2.8c1.5,0.2,3.1-0.3,4.3-1.2c1.2-1,1.9-2.4,2-3.9c0.9-13,2.9-42.6,2.9-42.6
							L431.5,84.7z"/>
						<path class="st0" d="M431.5,84.7l-60.4-3.5c0,0-1,8.8-2.2,19c-0.9,8,1.5,16,6.7,22.2c5.2,6.2,12.7,9.9,20.7,10.4
							c1.4,0.1,2.8,0.2,4.2,0.2c8.1,0.5,16-2.4,21.8-8c5.9-5.5,9.2-13.3,9.2-21.3C431.5,93.5,431.5,84.7,431.5,84.7z"/>
						<path class="st0" d="M399.2,120.7c2.1,0.1,3.8,2.1,3.6,4.5c-0.1,2.3-2,4.2-4.1,4c-2.1-0.1-3.8-2.1-3.6-4.5
							C395.2,122.4,397,120.6,399.2,120.7z"/>
					</g>
				</g>
				<g>
					<path class="st0" d="M332.9,80l4.5-7l23.2,0.8l2.9,8.7L332.9,80z"/>
					<path class="st0" d="M363.2,84c0.1-0.7-0.1-1.4-0.6-2c-0.5-0.5-1.1-0.9-1.9-0.9c-7.5-0.3-27.9-1.1-27.9-1.1l-4.1,92
						c0.8,2.1,10.7,3.5,19.5,3.9c2.6,0.1,5.1-0.8,7-2.6c1.9-1.8,3-4.2,3.1-6.8C359,139,360.1,111.4,363.2,84z"/>
				</g>
				<g>
					<g>
						<path class="st0" d="M806.9,73.3c3.3-0.2,6.6,0.4,9.7,1.7c5.6,2.4,14.2,6.2,14.2,6.2l-60.4,3.5l-16.4-7.8
							C753.9,76.9,792.8,74.3,806.9,73.3z"/>
						<path class="st0" d="M751.9,80.2c-0.1-0.9,0.3-1.8,1.1-2.4c0.8-0.5,1.7-0.6,2.6-0.2c5.5,2.6,14.7,7,14.7,7l8.4,102.3
							c-4.9-3.1-9.7-5.2-14.5-6.6c-4-1.1-6.9-4.7-7-8.9C756.1,141,754.8,110.6,751.9,80.2z"/>
						<path class="st0" d="M770.3,84.7l60.4-3.5c0.5,15.5,1.9,31,2.7,46.6c0.9,16.7,1.3,33.4,2.7,50.3c0.1,1.6-0.4,3.2-1.5,4.4
							c-1.1,1.2-2.6,1.9-4.3,1.8c-16.1-0.1-32.2,0.9-48.2,2.8c-1.5,0.2-3.1-0.3-4.3-1.2c-1.2-1-1.9-2.4-2-3.9
							c-0.9-13-2.9-42.6-2.9-42.6L770.3,84.7z"/>
						<path class="st0" d="M770.3,84.7l60.4-3.5c0,0,1,8.8,2.2,19c0.9,8-1.5,16-6.7,22.2c-5.2,6.2-12.7,9.9-20.7,10.4
							c-1.4,0.1-2.8,0.2-4.2,0.2c-8.1,0.5-16-2.4-21.8-8c-5.9-5.5-9.2-13.3-9.2-21.3C770.3,93.5,770.3,84.7,770.3,84.7z"/>
						<path class="st0" d="M802.6,120.7c-2.1,0.1-3.8,2.1-3.6,4.5c0.1,2.3,2,4.2,4.1,4c2.1-0.1,3.8-2.1,3.6-4.5
							C806.6,122.4,804.8,120.6,802.6,120.7z"/>
					</g>
				</g>
				<g>
					<path class="st0" d="M868.9,80l-4.5-7l-23.2,0.8l-2.9,8.7L868.9,80z"/>
					<path class="st0" d="M838.6,84c-0.1-0.7,0.1-1.4,0.6-2c0.5-0.5,1.1-0.9,1.9-0.9c7.5-0.3,27.9-1.1,27.9-1.1l4.1,92
						c-0.8,2.1-10.7,3.5-19.5,3.9c-2.6,0.1-5.1-0.8-7-2.6c-1.9-1.8-3-4.2-3.1-6.8C842.8,139,841.7,111.4,838.6,84z"/>
				</g>
			</g>
		</g>
		<g id="Pouch-Belt-2_F_Option">
			<path id="Main_Pouch-Belt-2_F" class="st0" d="M848.8,151.4c-55.9,5-183.5,23.3-247.9,23.3c-65.1,0-192.7-18.4-247.8-23.2
				l8.2-65.4c45.3,4,176.6,22.6,239.6,22.6c61.2,0,189.7-18.4,238.1-22.8L848.8,151.4z"/>
			<rect id="Buckle_Pouch-Belt-2_F" x="555.2" y="102.4" class="st0" width="92.4" height="75.8"/>
			<g id="Pouches_Pouch-Belt-2_F">
				<g>
					<path class="st0" d="M332.9,80l4.5-7l23.2,0.8l2.9,8.7L332.9,80z"/>
					<path class="st0" d="M363.2,84c0.1-0.7-0.1-1.4-0.6-2c-0.5-0.5-1.1-0.9-1.9-0.9c-7.5-0.3-27.9-1.1-27.9-1.1l-4.1,92
						c0.8,2.1,10.7,3.5,19.5,3.9c2.6,0.1,5.1-0.8,7-2.6c1.9-1.8,3-4.2,3.1-6.8C359,139,360.1,111.4,363.2,84z"/>
				</g>
				<g>
					<path class="st0" d="M868.9,80l-4.5-7l-23.2,0.8l-2.9,8.7L868.9,80z"/>
					<path class="st0" d="M838.6,84c-0.1-0.7,0.1-1.4,0.6-2c0.5-0.5,1.1-0.9,1.9-0.9c7.5-0.3,27.9-1.1,27.9-1.1l4.1,92
						c-0.8,2.1-10.7,3.5-19.5,3.9c-2.6,0.1-5.1-0.8-7-2.6c-1.9-1.8-3-4.2-3.1-6.8C842.8,139,841.7,111.4,838.6,84z"/>
				</g>
			</g>
		</g>
		<g id="Basic-Belt_F_Option">
			<path id="Main_Basic-Belt_F" class="st0" d="M848.8,151.4c-55.9,5-183.5,23.3-247.9,23.3c-65.1,0-192.7-18.4-247.8-23.2l8.2-65.4
				c45.3,4,176.6,22.6,239.6,22.6c61.2,0,189.7-18.4,238.1-22.8L848.8,151.4z"/>
			<rect id="Buckle_Basic-Belt_F" x="555.2" y="102.4" class="st0" width="92.4" height="75.8"/>
		</g>
	</g>
</g>
</svg>
