<?xml version="1.0" encoding="utf-8"?>
<!-- Generator: Adobe Illustrator 25.0.0, SVG Export Plug-In . SVG Version: 6.00 Build 0)  -->
<svg version="1.1" id="Layer_1" xmlns:serif="http://www.serif.com/"
	 xmlns="http://www.w3.org/2000/svg" xmlns:xlink="http://www.w3.org/1999/xlink" x="0px" y="0px" viewBox="0 0 1200 1700"
	 style="enable-background:new 0 0 1200 1700;" xml:space="preserve">
<g id="Ankles_F">
	<g id="Left-Ankle_F">
		<g id="None_Ankle_Left_M_Option">
		</g>
		<path id="Basic_Ankle_Left_M_Option" class="st0" d="M1096.4,1635.3l-83.1-156.1L869,1509.8l-13.1,44.6l116.6,97.6l49.6,15.8
			L1096.4,1635.3z"/>
	</g>
	<g id="Right-Ankle_F">
		<g id="None_Ankle_Right_M_Option">
		</g>
		<path id="Basic_Ankle_Right_M_Option" class="st0" d="M103.6,1635.3l83.1-156.1l144.3,30.7l13.1,44.6L227.5,1652l-49.6,15.8
			L103.6,1635.3z"/>
	</g>
</g>
<g id="Shins_F">
	<g id="Left-Shin_F">
		<g id="None_Shin_Left_F_Option">
		</g>
		<path id="Basic_Shin_Left_F_Option" class="st0" d="M992.3,1151c-4.2-26.2-24.9-54.3-45.5-63.5c-20.6-9.2-57.9-9.4-77.8,8.3
			c-24.6,21.9-72.9,75.6-70,123.3c3.9,64.6,58.9,222.8,93.6,264.2c25.5,30.4,103,23,114.6-15.6
			C1023.8,1412.3,1002.4,1214.4,992.3,1151z"/>
	</g>
	<g id="Right-Shin_F">
		<g id="None_Shin_Right_F_Option">
		</g>
		<path id="Basic_Shin_Right_F_Option" class="st0" d="M207.7,1151c4.2-26.2,24.9-54.3,45.5-63.5c20.6-9.2,57.9-9.4,77.8,8.3
			c24.6,21.9,72.9,75.6,70,123.3c-3.9,64.6-58.9,222.8-93.6,264.2c-25.5,30.4-103,23-114.6-15.6
			C176.2,1412.3,197.6,1214.4,207.7,1151z"/>
	</g>
</g>
<g id="Knees_F">
	<g id="Left-Knee_F">
		<g id="Legacy_Knee_Left_F_Option">
			<path class="st0" d="M942.8,950.5l-42.5-29.7l-95,14.8l-37,42l30.5,102.7H874l71-22.7L942.8,950.5z"/>
			<path class="st0" d="M957.2,881.1L902.7,843l-121.9,18.9l-47.5,53.9l39.1,131.7l187.5-29.1L957.2,881.1z"/>
		</g>
		<path id="Basic_Knee_Left_F_Option" class="st0" d="M715.8,915.1l17.2,65.2l47.4-2.5c0,0,18.8,81.6,94.1,76.6
			c78.6-5.2,86.1-99,86.1-99L949,876.1L715.8,915.1z"/>
	</g>
	<g id="Right-Knee_F">
		<g id="Legacy_Knee_Right_F_Option">
			<path class="st0" d="M257,950.5l42.5-29.7l95,14.8l37,42l-30.5,102.7h-75.2l-71-22.7L257,950.5z"/>
			<path class="st0" d="M242.6,881.1l54.5-38.1L419,861.9l47.5,53.9l-39.1,131.7l-187.5-29.1L242.6,881.1z"/>
		</g>
		<path id="Basic_Knee_Right_F_Option" class="st0" d="M485,914.4l-17.4,66l-47.4-2.5c0,0-18.8,81.6-94.1,76.6
			c-78.6-5.2-86.1-99-86.1-99l11.7-79.4L485,914.4z"/>
	</g>
</g>
<g id="Thighs_F">
	<g id="Left-Thigh_F">
		<g id="None_Thigh_Left_F_Option">
		</g>
		<g id="Legacy_Thigh_Left_F_Option">
			<path id="Plate-3_Legacy_Thigh_Left_M" class="st0" d="M704.5,679.4l19.4,96.8l105.5,16.1l92.3-34.6l4.3-98.9l-100.6,40.5
				L704.5,679.4z"/>
			<path id="Plate-2_Legacy_Thigh_Left_M" class="st0" d="M682.2,599.4l16.5,79l126.5,20.8l106.4-42.9l5.2-112.5l-120.2,65.8
				L682.2,599.4z"/>
			<path id="Plate-1_Legacy_Thigh_Left_M" class="st0" d="M928.3,452c-12.4-28.1-53.3-68.5-80.5-79.9c-25.8-10.8-60.4-6.1-82.5,11.6
				c-33.8,27.1-72.5,75.1-90.3,111c-9.6,19.5,3.8,104.4,3.8,104.4l137.8,10.5l125.8-68.8C942.5,540.9,940.2,478.9,928.3,452z"/>
		</g>
		<path id="Basic_Thigh_Left_F_Option" class="st0" d="M958.2,447.1c-4.7-36.5-53.3-64.6-80.5-75.3c-25.8-10.2-60.4-5.8-82.5,11
			c-33.8,25.6-111.5,80.8-120.3,142.4c-9.8,68.7,43.2,220.7,61.3,269.8c6.1,16.7,29.3,24.3,47,24.9c32.9,1.2,128.6,27.7,150.1-17.9
			C962.6,739.8,967.5,518.8,958.2,447.1z"/>
	</g>
	<g id="Right-Thigh_F">
		<g id="None_Thigh_Right_F_Option">
		</g>
		<g id="Legacy_Thigh_Right_F_Option">
			<path id="Plate-3_Legacy_Thigh_Left_M1" serif:id="Plate-3_Legacy_Thigh_Left_M" class="st0" d="M495.5,679.4l-19.4,96.8
				l-105.5,16.1l-92.3-34.6l-4.3-98.9l100.6,40.5L495.5,679.4z"/>
			<path id="Plate-2_Legacy_Thigh_Left_M1" serif:id="Plate-2_Legacy_Thigh_Left_M" class="st0" d="M517.8,599.4l-16.5,79
				l-126.5,20.8l-106.4-42.9l-5.2-112.5l120.2,65.8L517.8,599.4z"/>
			<path id="Plate-1_Legacy_Thigh_Left_M1" serif:id="Plate-1_Legacy_Thigh_Left_M" class="st0" d="M271.7,452
				c12.4-28.1,53.3-68.5,80.5-79.9c25.8-10.8,60.4-6.1,82.5,11.6c33.8,27.1,72.5,75.1,90.3,111c9.6,19.5-3.8,104.4-3.8,104.4
				l-137.8,10.5l-125.8-68.8C257.5,540.9,259.8,478.9,271.7,452z"/>
		</g>
		<path id="Basic_Thigh_Right_F_Option" class="st0" d="M241.8,447.1c4.7-36.5,53.3-64.6,80.5-75.3c25.8-10.2,60.4-5.8,82.5,11
			c33.8,25.6,111.5,80.8,120.3,142.4c9.8,68.7-43.2,220.7-61.3,269.8c-6.1,16.7-29.3,24.3-47,24.9c-32.9,1.2-128.6,27.7-150.1-17.9
			C237.4,739.8,232.5,518.8,241.8,447.1z"/>
	</g>
</g>
<g id="Groin_F">
	<g id="None_Groin_F_Option">
	</g>
	<path id="Basic_Groin_F_Option" class="st0" d="M534,359.1L423.2,136.4h354.3L666.7,359.1c0,0-44.2,53-66.4,53S534,359.1,534,359.1
		z"/>
</g>
<g id="Waist_F">
	<g id="Accessories_Waist_F">
		<g id="Kama_F_ToggleOff">
			<g id="Clean_Kama_F_Option">
				<g id="Trim_Kama-Clean">
					<path class="st1" d="M738.5,150.7l79.6,605.9l321.5,138.7L848.8,200.1l-6.7-85.4L738.5,150.7z"/>
					<path class="st1" d="M461.6,150.7L382,756.6L60.5,895.3l290.9-695.2l6.7-85.4L461.6,150.7z"/>
				</g>
				<g id="Main_Kama-Clean">
					<path class="st1" d="M758.4,148.1l77,586l290.9,129.2L848.8,200.1l-6.7-85.4L758.4,148.1z"/>
					<path class="st1" d="M441.8,148.1l-77,586L73.9,863.3l277.5-663.3l6.7-85.4L441.8,148.1z"/>
				</g>
			</g>
			<g id="Tattered_Kama_F_Option">
				<g id="Main_Kama-Tattered">
					<path class="st0" d="M811.2,98.4c14.9-3.4,29,48.1,37.9,103.7c5.5,34.2,51.2,69.9,56.6,95.2c6.4,30.2,25.7,60.7,33.3,90.9
						c13.2,52.4,31.1,103.4,42.1,155c8.8,41.2,5.8,85,15.6,126.4c7.4,31.3,2.7,58.4,12.9,88.3c11.4,33.5-11.5,67-3.3,101.3
						c5,21,0.9,41.1,7.5,61.6c2.2,6.9,4.1,13.9,5.9,21c0.5,2.2,1,4.3,1.5,6.5c0.3,1.3,1.8,4.8,0.8,3.9c-6.9-6.3-10.6-18.1-17-25.4
						c-12.5-14.3-28.2-25-40-40c-4.6-5.8-8.1-12.2-11.3-18.9c-0.3-0.6-2.4-5.7-2.6-5.6c-24.2,5.2-48.3,14.7-68.9-6.5
						c-16.4-16.8-30.5-53-38.8-75.5c-3.5-9.4,1.2-64.9-5-70.1c-4.6-3.8-8.8,46.1-14.4,42.7C789,731.6,739.5,719,739.5,719
						s-3.9-70.7-1-111.2c2.5-36.4-2.4-67.9-7.6-103.5c-6.7-46-5.9-93.4-2.9-139.5C732.8,289.7,677,128.9,811.2,98.4z M890.9,778.8
						c-4.3,18.7-4.7,40,5.6,56.9c3.4,5.6,12.1,14.6,19.6,12.2c31.7-10.1-7.1-60.4-17.3-71.6L890.9,778.8z M797.9,642.2
						c-5.7,3.6-10.7,7.9-14.8,13.3c-15,19.6,26.2,9.9,19.1-14L797.9,642.2z"/>
					<path class="st0" d="M388.8,98.4c-14.9-3.4-29,48.1-37.9,103.7c-5.5,34.2-51.2,69.9-56.6,95.2c-6.4,30.2-25.7,60.7-33.3,90.9
						c-13.2,52.4-31.1,103.4-42.1,155c-8.8,41.2-5.8,85-15.6,126.4c-7.4,31.3-2.7,58.4-12.9,88.3c-11.4,33.5,11.5,67,3.3,101.3
						c-5,21-0.9,41.1-7.5,61.6c-2.2,6.9-4.1,13.9-5.9,21c-0.5,2.2-1,4.3-1.5,6.5c-0.3,1.3-1.8,4.8-0.8,3.9
						c6.9-6.3,10.6-18.1,17-25.4c12.5-14.3,28.2-25,40-40c4.6-5.8,8.1-12.2,11.3-18.9c0.3-0.6,2.4-5.7,2.6-5.6
						c24.2,5.2,48.3,14.7,68.9-6.5c16.4-16.8,30.5-53,38.8-75.5c3.5-9.4-1.2-64.9,5-70.1c4.6-3.8,8.8,46.1,14.4,42.7
						c34.8-21.2,84.2-33.8,84.2-33.8s3.9-70.7,1-111.2c-2.5-36.4,2.4-67.9,7.6-103.5c6.7-46,5.9-93.4,2.9-139.5
						C467.2,289.7,523,128.9,388.8,98.4z M309.1,778.8c4.3,18.7,4.7,40-5.6,56.9c-3.4,5.6-12.1,14.6-19.6,12.2
						c-31.7-10.1,7.1-60.4,17.3-71.6L309.1,778.8z M402.1,642.2c5.7,3.6,10.7,7.9,14.8,13.3c15,19.6-26.2,9.9-19.1-14L402.1,642.2z"
						/>
				</g>
			</g>
		</g>
		<g id="Loin-Cloth_F_ToggleOff">
			<g id="Clean_Loin-Cloth_F_Option">
				<path id="Trim_Loin-Cloth-Clean_F" class="st1" d="M708.7,134.9H491.4V612l108.7,134l108.7-134V134.9z"/>
				<path id="Main_Loin-Cloth-Clean_F" class="st1" d="M694.8,185.1H505.3V601l94.7,116.8L694.8,601V185.1z"/>
			</g>
			<path id="Tattered_Loin-Cloth_F_Option" class="st0" d="M709.3,133.2c-0.6,28.1-1.7,56-0.1,84.1c1.4,24.6,5.5,49.9,5.3,74.6
				c-0.1,19.5-5,38.2-6.1,57.5c-1.8,31.8,0.9,65.9,3.8,97.5c5.8,62-16.4,270.4-16.4,270.4l-45-50.5l-30.4,91.5l-25.4-58.7l-23,47.2
				l-24.3-9.6L536,815.4l-23.7-62.3l-2.9-53.2c0,0-3.6-26-11.2-71.7c-3.3-19.6-11.3-39-11.9-59.2c-1.4-50.2,13.2-100.4,14.6-150.7
				c1.1-40.1-8-79.1-10.8-118.8c-2.5-34.6-6.9-89.7,12.6-118.3C522.9,151.9,709.3,133.2,709.3,133.2z M567.2,651.5
				c-1.2,6.3-2.4,12.6-3.2,19c-0.5,3.9-1,7.8-1.2,11.7c-0.2,5.3,0.2,11.2,2,16.1c0.2,0.4,2.9-1.4,3.2-1.6c3-2.4,5.1-6.1,6.2-10.3
				c2.6-9.9,4.1-28.1-3.5-35.6L567.2,651.5z M681.9,581.1c-5.4,3.7-12.6,8-16.5,14c-2.9,4.5-4.9,9.2-5.9,14.8
				c-0.6,3.8-1.1,7.5-1.3,11.4c-0.8,14.1,6.1,18.9,15,8.8C681.3,621,690.4,592.7,681.9,581.1z"/>
		</g>
	</g>
	<g id="Under-Belt_F">
		<g id="Sash_F_Option">
			<path class="st0" d="M373,29.4c20.6-4.6,52.7,8.7,79.6,11c28.9,2.5,57.9,0.3,86.8,2.3c16.9,1.2,33.5,5.6,50.3,7.9
				c32.2,4.5,64.5,2.1,96.6-2.2c8.5-1.1,17.1-1.4,25.5-3.2c21-4.6,48.5-9.7,66.6-18.7c16-4.2,32.2-4.9,47.3-1
				c15.3,4,4.6,36.2,5.3,49.3c0.7,13.9,10.2,68.5,15.9,81.2c6.3,14.1,11.3,29.5-7.1,38.8c-15.4,7.8-31.7,0.8-47.4-1.4
				c-18.4-2.5-36.7-1.3-54.9,2.4c-22.3,4.6-44.3,13-67,15.3c-30.4,3-61-2.9-91.3-2.5c-17.4,0.3-34.2,6.2-51.7,4.7
				c-29.3-2.5-55.9-15-84.3-18c-14.3-1.5-28.5,2-42.8,2c-9.8,0-19-2.8-28.4-5.2c-9.4-2.4-18.2-1.4-23.4-10.8
				c-3.9-7,4.4-26.1,8.3-32.1c10.1-15.4,12.8-69.8,9.2-87.3C362.9,47.5,358.6,32.6,373,29.4z"/>
			<path class="st0" d="M352.1,158.7c32.3-0.1,60.6-0.7,89.7,11c98.6,40,96.4,34.5,138.3,39c61.7,6.7,86.3,4.2,111.9-1.9
				c10.3-2.5,20.6-5.9,29.9-10.9c16.4-8.8,32.4-17.8,47-30c17.8-14.8,48.8-24.9,73.7-23.6c0,0-4.8-17.2-11.7-67.9
				c-1.8-13.2,6.2-27.5-0.1-45.4c-2.7-7.7-27.2-5.6-43.8-4.1c-32.9,2.8-47.4,27.8-72.8,47.8c-14.8,11.6-32.3,25.4-54.2,32.8
				c-34.4,11.7-87.9,17.1-189.5-18.5c-33.2-11.6-61.2-33.6-104.9-26.5c0,0,1.6,23.6,1.6,35.5C367.3,133.9,352.1,158.7,352.1,158.7z"
				/>
		</g>
		<g id="Girth-Belt_F_Option">
			<path class="st0" d="M600,71.8c-75.2,0-225.5-19.1-225.5-19.1l4.9-16.2c0,0,146.6,12.7,220.6,19.1
				c73.6-6.4,220.6-19.1,220.6-19.1l4.9,16.2C825.5,52.7,675.2,71.8,600,71.8z"/>
			<path class="st0" d="M600,88c-76.7,0-230.2-19.1-230.2-19.1l4.7-16.2c0,0,187.9,15.9,225.5,19.1c37.6-3.2,225.5-19.1,225.5-19.1
				l4.7,16.2C830.2,68.9,676.7,88,600,88z"/>
			<path class="st0" d="M600,104.3c-77.9,0-233.7-19.1-233.7-19.1l3.5-16.2c0,0,191.8,15.9,230.2,19.1
				c38.4-3.2,230.2-19.1,230.2-19.1l3.5,16.2C833.7,85.1,677.9,104.3,600,104.3z"/>
			<path class="st0" d="M600,120.5c-78.9,0-236.6-19.1-236.6-19.1l2.9-16.2c0,0,194.7,16,233.7,19.1c38.9-3.2,233.7-19.1,233.7-19.1
				l2.9,16.2C836.6,101.3,678.9,120.5,600,120.5z"/>
			<path class="st0" d="M600,136.7c-79.8,0-239.3-19.1-239.3-19.1l2.7-16.2c0,0,197.2,15.9,236.6,19.1
				c39.4-3.2,236.6-19.1,236.6-19.1l2.7,16.2C839.3,117.5,679.8,136.7,600,136.7z"/>
			<path class="st0" d="M600,152.9c-80.6,0-241.8-19.1-241.8-19.1l2.5-16.2c0,0,199.4,15.9,239.3,19.1
				c39.9-3.2,239.3-19.1,239.3-19.1l2.5,16.2C841.8,133.8,680.6,152.9,600,152.9z"/>
			<path class="st0" d="M600,169.1c-81.4,0-244.3-19.1-244.3-19.1l2.5-16.2c0,0,201.5,15.9,241.8,19.1
				c40.3-3.2,241.8-19.1,241.8-19.1l2.5,16.2C844.3,150,681.4,169.1,600,169.1z"/>
			<path class="st0" d="M600,185.3c-82.3,0-246.8-19.1-246.8-19.1l2.5-16.2c0,0,203.6,15.9,244.3,19.1
				c40.7-3.2,244.3-19.1,244.3-19.1l2.5,16.2C846.8,166.2,682.3,185.3,600,185.3z"/>
			<path class="st0" d="M600,201.5c-83.2,0-249.6-19.1-249.6-19.1l2.8-16.2c0,0,205.7,15.9,246.8,19.1
				c41.1-3.2,246.8-19.1,246.8-19.1l2.8,16.2C849.6,182.4,683.2,201.5,600,201.5z"/>
			<path class="st0" d="M600,217.8c-84.3,0-252.8-19.1-252.8-19.1l3.2-16.2c0,0,208,16,249.6,19.1c41.6-3.2,249.6-19.1,249.6-19.1
				l3.2,16.2C852.8,198.6,684.3,217.8,600,217.8z"/>
		</g>
	</g>
	<g id="Belt_F">
		<g id="Pouch-Belt_F_Option">
			<path id="Main-Belt_Pouch-Belt_F" class="st0" d="M826.4,153.3c-51.1,6.5-167.9,30.1-226.9,30.1c-59.5,0-176.3-23.8-226.8-30.1
				l7.5-84.6C421.7,74,541.9,98,599.5,98c56,0,173.6-23.8,217.9-29.5L826.4,153.3z"/>
			<g id="Pouches_Pouch-Belt_F">
				<g>
					<path id="Buckle_Simple-Belt_Classic" class="st0" d="M588,90l-70.9-7.9l-7.4,127.7l70.9,7.9L588,90z"/>
					<path id="Buckle_Simple-Belt_Classic1" serif:id="Buckle_Simple-Belt_Classic" class="st0" d="M591.6,73l-75.7-8.5l-3.9,68
						l75.7,8.5L591.6,73z"/>
				</g>
				<g>
					<g>
						<path id="Buckle_Simple-Belt_Classic2" serif:id="Buckle_Simple-Belt_Classic" class="st0" d="M612,90l70.9-7.9l7.4,127.7
							l-70.9,7.9L612,90z"/>
						<path id="Buckle_Simple-Belt_Classic3" serif:id="Buckle_Simple-Belt_Classic" class="st0" d="M608.4,73l75.7-8.5l3.9,68
							l-75.7,8.5L608.4,73z"/>
					</g>
					<g>
						<path id="Buckle_Simple-Belt_Classic4" serif:id="Buckle_Simple-Belt_Classic" class="st0" d="M705.4,77.4l70.9-7.9l7.4,127.7
							l-70.9,7.9L705.4,77.4z"/>
						<path id="Buckle_Simple-Belt_Classic5" serif:id="Buckle_Simple-Belt_Classic" class="st0" d="M701.8,60.4l75.7-8.5l3.9,68
							l-75.7,8.5L701.8,60.4z"/>
					</g>
					<g>
						<path id="Buckle_Simple-Belt_Classic6" serif:id="Buckle_Simple-Belt_Classic" class="st0" d="M795.9,55.7l46.2-5.2l7.4,127.7
							l-46.2,5.2L795.9,55.7z"/>
						<path id="Buckle_Simple-Belt_Classic7" serif:id="Buckle_Simple-Belt_Classic" class="st0" d="M794.9,38.3l50.7-5.7l3.9,68
							l-50.7,5.7L794.9,38.3z"/>
					</g>
				</g>
				<g>
					<path id="Buckle_Simple-Belt_Classic8" serif:id="Buckle_Simple-Belt_Classic" class="st0" d="M494.6,77.4l-70.9-7.9
						l-7.4,127.7l70.9,7.9L494.6,77.4z"/>
					<path id="Buckle_Simple-Belt_Classic9" serif:id="Buckle_Simple-Belt_Classic" class="st0" d="M498.2,60.4l-75.7-8.5l-3.9,68
						l75.7,8.5L498.2,60.4z"/>
				</g>
				<g>
					<path id="Buckle_Simple-Belt_Classic10" serif:id="Buckle_Simple-Belt_Classic" class="st0" d="M404.1,55.7l-46.2-5.2
						l-7.4,127.7l46.2,5.2L404.1,55.7z"/>
					<path id="Buckle_Simple-Belt_Classic11" serif:id="Buckle_Simple-Belt_Classic" class="st0" d="M405.1,38.3l-50.7-5.7l-3.9,68
						l50.7,5.7L405.1,38.3z"/>
				</g>
			</g>
		</g>
		<g id="Basic-Belt_F_Option">
			<path id="Main-Belt_Basic-Belt_F" class="st0" d="M848.6,153.3c-56,6.5-184,30.1-248.6,30.1c-65.3,0-193.2-23.8-248.5-30.1
				l8.3-84.6C405.1,74,536.8,98,600,98c61.3,0,190.3-23.8,238.8-29.5L848.6,153.3z"/>
			<rect id="Buckle_Basic-Belt_F" x="554.2" y="90" class="st0" width="92.6" height="98.1"/>
		</g>
	</g>
</g>
</svg>
