<?xml version="1.0" encoding="utf-8"?>
<!-- Generator: Adobe Illustrator 25.0.0, SVG Export Plug-In . SVG Version: 6.00 Build 0)  -->
<svg version="1.1" id="Layer_1" xmlns:serif="http://www.serif.com/"
	 xmlns="http://www.w3.org/2000/svg" xmlns:xlink="http://www.w3.org/1999/xlink" x="0px" y="0px" viewBox="0 0 1200 1700"
	 style="enable-background:new 0 0 1200 1700;" xml:space="preserve">
<g id="Shins_M">
	<g id="Left-Shin_M">
		<g id="None_Shin_Left_M_Option">
		</g>
		<g id="Wraps_Shin_Left_M_Option">
			<path class="st0" d="M1029.7,1558.2c-66.7,22-130.3,26-191.1,13.4l-24.8-109.5l203.5-11.4L1029.7,1558.2z"/>
			<path class="st0" d="M1023.6,1476.2c-65.2,27.6-131.8,40.9-199.8,39.2L801.4,1407l207.5-43.2L1023.6,1476.2z"/>
			<path class="st0" d="M1018.6,1415.3c-112.6,15.2-194,44.7-212.4,22.6l-18.8-110.2l217.5-4.8L1018.6,1415.3z"/>
			<path class="st0" d="M1013.2,1351.2c0,0-74,11.9-111.4,12.7c-37.8,0.8-115.2-7.9-115.2-7.9l-9.9-105.3l220.3-10L1013.2,1351.2z"
				/>
			<path class="st0" d="M1001.7,1256.1c0,0-74.5,18.5-112.7,23.5c-38.5,5.1-112.2,6.8-112.2,6.8L764,1182.3l223.6-36.7
				L1001.7,1256.1z"/>
			<path class="st0" d="M986.9,1137.7l12.5,83.5c0,0-83-14-123.8-14c-40.2,0-111.6,13-111.6,13l-10.2-103.7c0,0,86.3-18,127.6-18
				c39.4,0,100.8,12,100.8,12L986.9,1137.7z"/>
		</g>
		<g id="Basic_Shin_Left_M_Option">
			<path id="Shin_Left_Basic_M" class="st0" d="M992.3,1143.8l-45.5-64.1L869,1088l-70,124.5l93.6,266.7l114.6-15.8L992.3,1143.8z"
				/>
			<path id="Trauma-Plating_Left-Shin_M_ToggleOff" class="st0" d="M978.5,1148.5l14.1,302.8l-90.6,12.5l-87.7-249.9l63.3-112.7
				l62.5-6.7L978.5,1148.5"/>
		</g>
	</g>
	<g id="Right-Shin_M">
		<g id="None_Shin_Right_M_Option">
		</g>
		<g id="Wraps_Shin_Right_M_Option">
			<path class="st0" d="M170.8,1558.2c66.7,22,130.3,26,191.1,13.4l24.8-109.5l-203.5-11.4L170.8,1558.2z"/>
			<path class="st0" d="M176.9,1476.2c65.2,27.6,131.8,40.9,199.8,39.2l22.4-108.4l-207.5-43.2L176.9,1476.2z"/>
			<path class="st0" d="M181.9,1415.3c112.6,15.2,194,44.7,212.4,22.6l18.8-110.2l-217.5-4.8L181.9,1415.3z"/>
			<path class="st0" d="M187.3,1351.2c0,0,74,11.9,111.4,12.7c37.8,0.8,115.2-7.9,115.2-7.9l9.9-105.3l-220.3-10L187.3,1351.2z"/>
			<path class="st0" d="M198.8,1256.1c0,0,74.5,18.5,112.7,23.5c38.5,5.1,112.2,6.8,112.2,6.8l12.8-104.1l-223.6-36.7L198.8,1256.1z
				"/>
			<path class="st0" d="M213.6,1137.7l-12.5,83.5c0,0,83-14,123.8-14c40.2,0,111.6,13,111.6,13l10.2-103.7c0,0-86.3-18-127.6-18
				c-39.4,0-100.8,12-100.8,12L213.6,1137.7z"/>
		</g>
		<g id="Basic_Shin_Right_M_Option">
			<path id="Shin_Right_Basic_M" class="st0" d="M207.7,1143.8l45.5-64.1l77.8,8.4l70,124.5l-93.6,266.7l-114.6-15.8L207.7,1143.8z"
				/>
			<path id="Trauma-Plating_Right-Shin_M_ToggleOff" class="st0" d="M221.5,1148.5l-14.1,302.8l90.6,12.5l87.7-249.9l-63.3-112.7
				l-62.5-6.7L221.5,1148.5"/>
		</g>
	</g>
</g>
<g id="Ankles_M">
	<g id="Left-Ankle_M">
		<g id="None_Ankle_Left_M_Option">
		</g>
		<path id="Basic_Ankle_Left_M_Option" class="st0" d="M1096.4,1647.4l-83.1-156.1L869,1521.9l-13.1,44.6l116.6,97.6l49.6,15.8
			L1096.4,1647.4z"/>
	</g>
	<g id="Right-Ankle_M">
		<g id="None_Ankle_Right_M_Option">
		</g>
		<path id="Basic_Ankle_Right_M_Option" class="st0" d="M103.6,1647.4l83.1-156.1l144.3,30.7l13.1,44.6l-116.6,97.6l-49.6,15.8
			L103.6,1647.4z"/>
	</g>
</g>
<g id="Knees_M">
	<g id="Left-Knee_M">
		<g id="None-(Nih-Plates)_Left_M_Option"></g>
		<g id="Legacy_Knee_Left_M_Option">
			<path class="st0" d="M942.8,950.6l-42.5-29.7l-95,14.8l-37,42l30.5,102.7H874l71-22.7L942.8,950.6z"/>
			<path class="st0" d="M957.2,881.2l-54.5-38.1L780.9,862L733.4,916l39.1,131.7l187.5-29.1L957.2,881.2z"/>
		</g>
		<path id="Basic_Knee_Left_M_Option" class="st0" d="M715.8,915.3l17.2,65.2l47.4-2.5c0,0,18.8,81.6,94.1,76.6
			c78.6-5.2,86.1-99,86.1-99L949,876.2L715.8,915.3z"/>
	</g>
	<g id="Right-Knee_M">
		<g id="None-(Nih-Plates)_Right_M_Option"></g>
		<g id="Legacy_Knee_Right_M_Option">
			<path class="st0" d="M257,950.6l42.5-29.7l95,14.8l37,42l-30.5,102.7h-75.2l-71-22.7L257,950.6z"/>
			<path class="st0" d="M242.6,881.2l54.5-38.1L419,862l47.5,53.9l-39.1,131.7l-187.5-29.1L242.6,881.2z"/>
		</g>
		<path id="Basic_Knee_Right_M_Option" class="st0" d="M485,914.5l-17.4,66l-47.4-2.5c0,0-18.8,81.6-94.1,76.6
			c-78.6-5.2-86.1-99-86.1-99l11.7-79.4L485,914.5z"/>
	</g>
</g>
<g id="Thighs_M">
	<g id="Left-Thigh_M">
		<g id="None_Thigh_Left_M_Option">
		</g>
		<g id="Legacy_Thigh_Left_M_Option">
			<path id="Plate-3_Legacy_Thigh_Left_M" class="st0" d="M729.4,679.5l19.4,96.8l105.5,16.1l92.3-34.6l4.3-98.9l-100.6,40.5
				L729.4,679.5z"/>
			<path id="Plate-2_Legacy_Thigh_Left_M" class="st0" d="M707.1,599.6l16.5,79l126.5,20.8l106.4-42.9l5.2-112.5l-120.2,65.8
				L707.1,599.6z"/>
			<path id="Plate-1_Legacy_Thigh_Left_M" class="st0" d="M973.2,452.2l-80.5-79.9l-82.5,11.6L690,534.9l13.8,64.4l137.8,10.5
				L967.4,541L973.2,452.2z"/>
		</g>
		<g id="Basic_Thigh_Left_M_Option">
			<path id="Thigh_Left_Basic_M" class="st0" d="M973.2,452.2l-80.5-79.9l-82.5,11.6L690,534.9L751.3,821l47,26.4l150.1-19
				L973.2,452.2z"/>
			<path id="Trauma-Plating_Left-Thigh_M_ToggleOff" class="st0" d="M958.9,457.6L935.2,816l-134,17l-37.5-21l-58.6-273.5L817.7,397
				l70.1-9.9L958.9,457.6"/>
		</g>
	</g>
	<g id="Right-Thigh_M">
		<g id="None_Thigh_Right_M_Option">
		</g>
		<g id="Legacy_Thigh_Right_M_Option">
			<path id="Plate-3_Legacy_Thigh_Right_M" class="st0" d="M470.6,679.5l-19.4,96.8l-105.5,16.1l-92.3-34.6l-4.3-98.9l100.6,40.5
				L470.6,679.5z"/>
			<path id="Plate-2_Legacy_Thigh_Right_M" class="st0" d="M492.9,599.6l-16.5,79l-126.5,20.8l-106.4-42.9L238.2,544l120.2,65.8
				L492.9,599.6z"/>
			<path id="Plate-1_Legacy_Thigh_Right_M" class="st0" d="M226.8,452.2l80.5-79.9l82.5,11.6l120.3,151l-13.8,64.4l-137.8,10.5
				L232.6,541L226.8,452.2z"/>
		</g>
		<g id="Basic_Thigh_Right_M_Option">
			<path id="Thigh_Right_Basic_M" class="st0" d="M226.8,452.2l80.5-79.9l82.5,11.6l120.3,151L448.7,821l-47,26.4l-150.1-19
				L226.8,452.2z"/>
			<path id="Trauma-Plating_Right-Thigh_M_ToggleOff" class="st0" d="M241.1,457.6L264.8,816l134,17l37.5-21l58.6-273.5L382.3,397
				l-70.1-9.9L241.1,457.6"/>
		</g>
	</g>
</g>
<g id="Groin_M">
	<g id="None_Groin_M_Option">
	</g>
	<g id="Basic_Groin_M_Option">
		<path id="Groin_Basic_M" class="st0" d="M533.6,518.4L422.8,274.3h354.3L666.4,518.4L600,576.5L533.6,518.4z"/>
		<path id="Trauma-Plating_Groin_M_ToggleOff" class="st0" d="M545.3,498L454,296.9H746L654.7,498L600,545.9L545.3,498z"/>
	</g>
</g>
<g id="Waist_M">
	<g id="Accessories_Waist_M">
		<g id="Kama_M_ToggleOff">
			<g id="Clean_Kama_M_Option">
				<g id="Trim_Kama-Clean">
					<path class="st1" d="M773.9,105.8L812,715.7l280.1,186.2l-212.4-825L773.9,105.8z"/>
					<path class="st1" d="M426.1,105.8L388,715.7L107.9,901.9l212.4-825L426.1,105.8z"/>
				</g>
				<g id="Main_Kama-Clean">
					<path class="st1" d="M793.9,104.5l36.8,589.9l252.7,173.6L879.6,76.9L793.9,104.5z"/>
					<path class="st1" d="M406.1,104.5l-36.8,589.9L116.6,868.1L320.4,76.9L406.1,104.5z"/>
				</g>
			</g>
			<g id="Tattered_Kama_M_Option">
				<g id="Main_Kama-Tattered">
					<path class="st0" d="M881.1,78.5c24.1-5.3,35.6,128.5,49.8,193.1c6.4,29.3,7.4,58.9,15,88.2c13.2,50.9,36.7,101.7,47.7,151.7
						c8.8,40,3.2,81.3,12.9,121.4c7.4,30.4,22.7,56.7,32.9,85.7c11.4,32.5,18.5,65,26.7,98.4c5,20.4,10.9,39.9,17.5,59.8
						c2.2,6.7,4.1,13.5,5.8,20.4c0.5,2.1,1,4.2,1.5,6.3c0.3,1.3,1.8,4.7,0.8,3.8c-6.9-6.1-10.6-17.6-17-24.7
						c-12.5-13.9-28.2-24.3-40-38.9c-4.6-5.6-8.1-11.9-11.3-18.4c-0.3-0.6-2.4-5.5-2.6-5.5c-24.2,5.1-48.3,14.3-68.9-6.3
						c-16.4-16.3-30.5-51.5-38.8-73.3c-3.5-9.1,1.2-63-5-68.1c-4.6-3.7-8.8,44.8-14.3,41.5c-34.8-20.5-84.2-32.8-84.2-32.8
						s-3.9-68.7-1-108c2.5-35.3-2.4-66-7.6-100.5c-6.7-44.7-5.9-90.6-2.9-135.5C802.6,264.2,746.9,108.1,881.1,78.5z M960.8,739.2
						c-4.3,18.1-4.7,38.9,5.6,55.2c3.4,5.5,12.1,14.2,19.6,11.8c31.7-9.8-7.1-58.6-17.3-69.5L960.8,739.2z M867.8,606.5
						c-5.7,3.5-10.7,7.6-14.8,12.9c-15,19.1,26.2,9.6,19.1-13.6L867.8,606.5z"/>
					<path class="st0" d="M318.9,78.5c-24.1-5.3-35.6,128.5-49.8,193.1c-6.4,29.3-7.4,58.9-15,88.2
						c-13.2,50.9-36.7,101.7-47.7,151.7c-8.8,40-3.2,81.3-12.9,121.4c-7.4,30.4-22.7,56.7-32.9,85.7c-11.4,32.5-18.5,65-26.7,98.4
						c-5,20.4-10.9,39.9-17.5,59.8c-2.2,6.7-4.1,13.5-5.9,20.4c-0.5,2.1-1,4.2-1.5,6.3c-0.3,1.3-1.8,4.7-0.8,3.8
						c6.9-6.1,10.6-17.6,17-24.7c12.5-13.9,31.9-2.5,43.8-17.1c4.6-5.6,10.6-18.9,13.8-25.4c0.3-0.6,8.6-16.5,8.9-16.5
						c24.2,5.1,9.1,23.3,29.7,2.7c16.4-16.3,57.2-64.3,65.6-86.1c3.5-9.1-3.2-28.2,3-33.3c4.6-3.7,10.8,10,16.4,6.7
						c34.8-20.5,78-59.1,78-59.1s10.1-42.4,7.3-81.7c-2.5-35.3,2.4-66,7.6-100.5c6.7-44.7,5.9-90.6,2.9-135.5
						C397.4,264.2,453.1,108.1,318.9,78.5z M230.5,751.4c4.3,18.1,3.7,14.9-6.6,31.2c-3.4,5.5-2.3,25.9-9.9,23.6
						c-31.7-9.8,7.1-58.6,17.3-69.5L230.5,751.4z M305.6,667.2c5.7,3.5,24-1,28.2,4.2c15,19.1-41.5,35.6-34.4,12.4L305.6,667.2z"/>
				</g>
			</g>
		</g>
		<g id="Loin-Cloth_M_ToggleOff">
			<g id="Clean_Loin-Cloth_M_Option">
				<path id="Trim_Loin-Cloth-Clean" class="st1" d="M734,145.1H466v477.1l134,134l134-134V145.1z"/>
				<path id="Main_Loin-Cloth-Clean" class="st1" d="M716.8,195.2H483.2v415.9L600,727.9l116.8-116.8V195.2z"/>
			</g>
			<path id="Tattered_Loin-Cloth_M_Option" class="st0" d="M734.7,143.3c-0.8,28.1-2.1,56-0.1,84.1c1.8,24.6,6.7,49.9,6.5,74.6
				c-0.2,19.5-6.1,38.2-7.5,57.5c-2.2,31.8,1.1,65.9,4.7,97.5c7.2,62-20.2,270.4-20.2,270.4l-55.5-50.5l-37.5,91.5l-31.3-58.7
				l-28.4,47.2l-21.6-8.3L529,812.2l-24.9-48.9l-15.9-53.2c0,0-4.4-26-13.8-71.7c-4-19.6-14-39-14.7-59.2
				C458,529,476,478.9,477.8,428.6c1.4-40.1-9.8-79.1-13.4-118.8c-3.1-34.6-8.5-89.7,15.6-118.3
				C504.8,162.1,734.7,143.3,734.7,143.3z M559.4,661.6c-1.4,6.3-2.9,12.6-4,19c-0.7,3.9-1.2,7.8-1.5,11.7
				c-0.3,5.3,0.2,11.2,2.5,16.1c0.2,0.4,3.6-1.4,3.9-1.6c3.8-2.4,6.3-6.1,7.7-10.3c3.2-9.9,5.1-28.1-4.4-35.6L559.4,661.6z
				 M700.9,591.2c-6.6,3.7-15.6,8-20.4,14c-3.6,4.5-6.1,9.2-7.2,14.8c-0.8,3.8-1.3,7.5-1.6,11.4c-0.9,14.1,7.5,18.9,18.5,8.8
				C700.1,631.2,711.4,602.8,700.9,591.2z"/>
		</g>
		<g id="Left-Holster_M_ToggleOff">
			<g id="Weapon_Holster-Left_M">
				<g id="Main_Weapon_Holster-Left_M">
					<path class="st0" d="M941.5,522.2l1.8-38.4l6.6,0.3L951,460l-6.6-0.3l0.6-12.6c0.2-4.1,5.8-7.1,12.5-6.8
						c15.4,0.7,41.7,1.9,57,2.6c6.7,0.3,12,3.9,11.8,7.9l-0.6,12.6l-6.6-0.3l-1.1,24.1l6.6,0.3l-1.8,38.4l-15.5-0.7l-4.9,106.2
						l-50.2-2.3l4.9-106.2L941.5,522.2z"/>
					<path class="st0" d="M1016.5,520l-8.9-0.4l-5.9,127.7l-50.2-2.3l5.9-127.7l-8.9-0.4l1.3-29.1l68.1,3.1L1016.5,520z"/>
					<path class="st0" d="M1005.7,450.9l-40.3-1.9l-1.8,39.4l40.3,1.9L1005.7,450.9z"/>
					<path class="st0" d="M968.3,529.3l-6.6-0.3l-4.6,100.4l6.6,0.3L968.3,529.3z"/>
					<path class="st0" d="M986.2,507.2l-6.6-0.3L975,607.3l6.6,0.3L986.2,507.2z"/>
					<path class="st0" d="M1002,530.9l-6.6-0.3l-4.6,100.4l6.6,0.3L1002,530.9z"/>
				</g>
				<g id="Accent_Weapon_Holster-Left_M">
					<path class="st0" d="M969.4,492.7l-0.2,4l28.4,1.3l0.2-4L969.4,492.7z"/>
					<path class="st0" d="M969.2,496.7l-0.2,4l28.4,1.3l0.2-4L969.2,496.7z"/>
					<path class="st0" d="M969.6,488.7l-0.2,4l28.4,1.3l0.2-4L969.6,488.7z"/>
					<path class="st0" d="M971.8,439.2l-0.2,4l28.4,1.3l0.2-4L971.8,439.2z"/>
					<path class="st0" d="M972,449.3l-6.6-0.3l-1.8,39.4l6.6,0.3L972,449.3z"/>
					<path class="st0" d="M1005.7,450.9l-6.6-0.3l-1.8,39.4l6.6,0.3L1005.7,450.9z"/>
					<path class="st0" d="M995.4,530.6l-10-0.5l-4.6,100.4l10,0.5L995.4,530.6z"/>
					<path class="st0" d="M978.4,529.8l-10-0.5l-4.6,100.4l10,0.5L978.4,529.8z"/>
				</g>
			</g>
			<path id="Holster_Holster-Left_M" class="st0" d="M941.9,670.2l-8.1-161.7l74.7,121.7l-16.5,220c-17.4,18.3-34.6,18.4-51.4-2
				L941.9,670.2z"/>
			<g id="Straps_Holster-Left_M">
				<path class="st0" d="M656.1,247.6c81.7,117.2,164,216.5,277.7,260.9l1.4,27.7C793.8,476.6,718,375.6,634.4,247.6H656.1z"/>
				<path class="st0" d="M941.5,703.1c-76.5,58.5-159.1,90.4-258,95.7l7,21.9c85.6-7.8,165.6-39.5,251-94.5V703.1z"/>
				<path class="st0" d="M941.5,726.2l0.2-23.1c19.9,8.8,43,9.5,61.2,3l-1.8,23.6C981.5,734.7,959.2,735,941.5,726.2z"/>
			</g>
			<g id="Buckle_Holster-Left_M">
				<path class="st0" d="M763.1,797.6l-10.7,1.6l0.5,3.5l10.7-1.6L763.1,797.6"/>
				<path class="st0" d="M733.9,366l-7.4-9.8l-2.8,2.1l7.4,9.8L733.9,366"/>
				<path class="st0" d="M731,368.2l-12.1,9.8l-28.6-35.3l27.6-22.3l28.6,35.3l-12.6,10.2l-6.1-8.1l6.2-5L718,333.3l-15.2,12.3
					l15.8,19.5l6.2-5.1L731,368.2"/>
				<path class="st0" d="M762.7,797.7l-8.5,1.3l-1.2-8.3l-20.6,4.4l2.9,19.3l20.6-4.4l-1.1-7.5l8.5-1.3l2.2,14.8l-37.3,8l-5.2-35
					l37.3-8L762.7,797.7"/>
			</g>
		</g>
		<g id="Right-Holster_M_ToggleOff">
			<g id="Weapon_Holster-Right_M">
				<g id="Main_Weapon_Holster-Right_M">
					<path class="st0" d="M258.8,522.2l-1.8-38.4l-6.6,0.3l-1.1-24.1l6.6-0.3l-0.6-12.6c-0.2-4.1-5.8-7.1-12.5-6.8
						c-15.4,0.7-41.7,1.9-57,2.6c-6.7,0.3-12,3.9-11.8,7.9l0.6,12.6l6.6-0.3l1.1,24.1l-6.6,0.3l1.8,38.4l15.5-0.7l4.9,106.2
						l50.2-2.3l-4.9-106.2L258.8,522.2z"/>
					<path class="st0" d="M183.9,520l8.9-0.4l5.9,127.7l50.2-2.3L243,517.3l8.9-0.4l-1.3-29.1l-68.1,3.1L183.9,520z"/>
					<path class="st0" d="M194.6,450.9l40.3-1.9l1.8,39.4l-40.3,1.9L194.6,450.9z"/>
					<path class="st0" d="M232,529.3l6.6-0.3l4.6,100.4l-6.6,0.3L232,529.3z"/>
					<path class="st0" d="M214.1,507.2l6.6-0.3l4.6,100.4l-6.6,0.3L214.1,507.2z"/>
					<path class="st0" d="M198.3,530.9l6.6-0.3l4.6,100.4l-6.6,0.3L198.3,530.9z"/>
				</g>
				<g id="Accent_Weapon_Holster-Right_M">
					<path class="st0" d="M231,492.7l0.2,4l-28.4,1.3l-0.2-4L231,492.7z"/>
					<path class="st0" d="M231.2,496.7l0.2,4l-28.4,1.3l-0.2-4L231.2,496.7z"/>
					<path class="st0" d="M230.8,488.7l0.2,4l-28.4,1.3l-0.2-4L230.8,488.7z"/>
					<path class="st0" d="M228.5,439.2l0.2,4l-28.4,1.3l-0.2-4L228.5,439.2z"/>
					<path class="st0" d="M228.3,449.3l6.6-0.3l1.8,39.4l-6.6,0.3L228.3,449.3z"/>
					<path class="st0" d="M194.6,450.9l6.6-0.3L203,490l-6.6,0.3L194.6,450.9z"/>
					<path class="st0" d="M204.9,530.6l10-0.5l4.6,100.4l-10,0.5L204.9,530.6z"/>
					<path class="st0" d="M221.9,529.8l10-0.5l4.6,100.4l-10,0.5L221.9,529.8z"/>
				</g>
			</g>
			<path id="Holster_Holster-Right_M" class="st0" d="M258.4,670.2l8.1-161.7l-74.7,121.7l16.5,220c17.4,18.3,34.6,18.4,51.4-2
				L258.4,670.2z"/>
			<g id="Straps_Holster-Right_M">
				<path class="st0" d="M544.2,247.6c-81.7,117.2-164,216.5-277.7,260.9l-1.4,27.7c141.4-59.6,217.2-160.6,300.8-288.6H544.2z"/>
				<path class="st0" d="M258.9,703.1c76.5,58.5,159.1,90.4,258,95.7l-7,21.9c-85.6-7.8-165.6-39.5-251-94.5V703.1z"/>
				<path class="st0" d="M258.9,726.2l-0.2-23.1c-19.9,8.8-43,9.5-61.2,3l1.8,23.6C218.8,734.7,241.1,735,258.9,726.2z"/>
			</g>
			<g id="Buckle_Holster-Right_M">
				<path class="st0" d="M437.6,797.6l10.7,1.6l-0.5,3.5l-10.7-1.6L437.6,797.6"/>
				<path class="st0" d="M466.8,366l7.4-9.8l2.8,2.1l-7.4,9.8L466.8,366"/>
				<path class="st0" d="M469.6,368.2l12.1,9.8l28.6-35.3l-27.6-22.3l-28.6,35.3l12.6,10.2l6.1-8.1l-6.2-5l15.8-19.5l15.2,12.3
					L482,365.1l-6.2-5.1L469.6,368.2"/>
				<path class="st0" d="M438,797.7l8.5,1.3l1.2-8.3l20.6,4.4l-2.9,19.3l-20.6-4.4l1.1-7.5l-8.5-1.3l-2.2,14.8l37.3,8l5.2-35
					l-37.3-8L438,797.7"/>
			</g>
		</g>
	</g>
	<g id="Under-Belt_M">
		<g id="Sash_M_Option">
			<path class="st0" d="M300.6,64.3c27.2-5.8,69.4,11,105,13.9C443.7,81.2,482,78.5,520,81c22.3,1.5,44.2,7,66.3,10
				c42.5,5.7,85,2.7,127.4-2.8c11.2-1.4,22.6-1.7,33.6-4c27.8-5.8,63.9-12.2,87.8-23.4c21.2-5.3,42.5-6.2,62.4-1.3
				c20.2,5,6.1,45.4,7,61.9c1,17.4,13.5,85.9,21,101.9c8.3,17.7,14.8,37-9.4,48.7c-20.3,9.7-41.9,0.9-62.5-1.8
				c-24.3-3.2-48.4-1.6-72.4,3.1c-29.4,5.7-58.4,16.3-88.3,19.1c-40.1,3.7-80.4-3.7-120.5-3.1c-23,0.3-45.1,7.8-68.2,5.9
				c-38.6-3.1-73.7-18.8-111.1-22.5c-18.8-1.9-37.6,2.5-56.4,2.5c-13,0.1-25-3.5-37.5-6.6c-12.4-3-24-1.8-30.9-13.5
				c-5.1-8.8,5.7-32.8,10.9-40.3c13.3-19.3,16.9-87.5,12.1-109.4C287.3,87,281.7,68.3,300.6,64.3z"/>
			<path class="st0" d="M273.1,226.4c42.6-0.1,79.9-0.9,118.3,13.9c130.1,50.1,127.1,43.3,182.4,49c81.4,8.4,113.8,5.3,147.5-2.4
				c13.6-3.1,27.2-7.4,39.4-13.6c21.7-11,42.7-22.3,62-37.6c23.4-18.6,64.3-31.2,97.2-29.6c0,0-6.4-21.5-15.4-85.2
				c-2.3-16.5,8.1-34.5-0.1-56.9c-3.5-9.6-35.8-7-57.8-5.2c-43.3,3.5-62.5,34.9-96,59.9c-19.5,14.6-42.6,31.9-71.4,41.2
				c-45.4,14.7-116,21.4-249.9-23.2c-43.7-14.6-80.7-42.1-138.4-33.2c0,0,2.1,29.6,2.1,44.5C293.1,195.3,273.1,226.4,273.1,226.4z"
				/>
		</g>
		<g id="Girth-Belt_M_Option">
			<path class="st0" d="M600,120c-98.9,0-296.6-24-296.6-24l6.4-20.3c0,0,192.9,16,290.1,24c96.8-8,290.1-24,290.1-24l6.4,20.3
				C896.6,96,698.9,120,600,120z"/>
			<path class="st0" d="M600,140.4c-100.9,0-302.7-24-302.7-24l6.2-20.3c0,0,247.1,20,296.6,24c49.4-4,296.6-24,296.6-24l6.2,20.3
				C902.7,116.3,700.9,140.4,600,140.4z"/>
			<path class="st0" d="M600,160.7c-102.4,0-307.3-24-307.3-24l4.6-20.3c0,0,252.3,20,302.7,24c50.5-4,302.7-24,302.7-24l4.6,20.3
				C907.3,136.7,702.4,160.7,600,160.7z"/>
			<path class="st0" d="M600,181c-103.7,0-311.2-24-311.2-24l3.9-20.3c0,0,256.1,20,307.3,24c51.2-4,307.3-24,307.3-24l3.9,20.3
				C911.2,157,703.7,181,600,181z"/>
			<path class="st0" d="M600,201.3c-104.9,0-314.7-24-314.7-24l3.5-20.3c0,0,259.3,20,311.2,24c51.9-4,311.2-24,311.2-24l3.5,20.3
				C914.7,177.3,704.9,201.3,600,201.3z"/>
			<path class="st0" d="M600,221.7c-106,0-318-24-318-24l3.3-20.3c0,0,262.3,20,314.7,24c52.5-4,314.7-24,314.7-24l3.3,20.3
				C918,197.7,706,221.7,600,221.7z"/>
			<path class="st0" d="M600,242c-107.1,0-321.3-24-321.3-24l3.3-20.3c0,0,265,20,318,24c53-4,318-24,318-24l3.3,20.3
				C921.3,218,707.1,242,600,242z"/>
			<path class="st0" d="M600,262.3c-108.2,0-324.6-24-324.6-24l3.4-20.3c0,0,267.7,20,321.3,24c53.5-4,321.3-24,321.3-24l3.3,20.3
				C924.6,238.3,708.2,262.3,600,262.3z"/>
			<path class="st0" d="M600,282.7c-109.4,0-328.3-24-328.3-24l3.7-20.3c0,0,270.5,20,324.6,24c54.1-4,324.6-24,324.6-24l3.7,20.3
				C928.3,258.7,709.4,282.7,600,282.7z"/>
			<path class="st0" d="M600,303c-110.8,0-332.4-24-332.4-24l4.2-20.3c0,0,273.6,20,328.3,24c54.7-4,328.3-24,328.3-24l4.2,20.3
				C932.4,279,710.8,303,600,303z"/>
		</g>
	</g>
	<g id="Belt_M">
		<g id="Pouch-Belt-Full_M_Option">
			<path id="Main_Pouch-Belt-Full_M" class="st0" d="M921,205.6c-72.3,6.5-237.5,30.1-320.9,30.1c-84.2,0-249.4-23.8-320.7-30.1
				l10.7-84.6c58.7,5.2,228.6,29.2,310.1,29.2c79.2,0,245.6-23.8,308.1-29.5L921,205.6z"/>
			<g id="Pouches_Pouch-Belt-Full_M">
				<g>
					<g>
						<g>
							<path class="st0" d="M450.3,120.6c-3-0.2-6.1,0.3-8.9,1.4c-7.5,3-22.3,8.8-22.3,8.8l85.7,4.9l23.2-10
								C527.9,125.8,467.7,121.8,450.3,120.6z"/>
							<path class="st0" d="M530.9,128.6c0.1-0.9-0.3-1.8-1-2.3c-0.7-0.5-1.7-0.7-2.5-0.3c-7.5,3.2-22.6,9.7-22.6,9.7l-11.2,132.3
								c7.7-4.4,15.3-7.3,22.8-9c4.3-0.9,7.4-4.6,7.6-9C525.2,209.5,526.8,169,530.9,128.6z"/>
							<path class="st0" d="M504.7,135.7l-85.7-4.9c-0.5,20.1-2.4,40.2-3.5,60.3c-1.1,22.2-1.6,44.5-3.6,66.9
								c-0.1,1.6,0.4,3.2,1.5,4.4c1.1,1.2,2.6,1.9,4.3,1.9c24.6-0.1,49.1,1.4,73.5,4.2c1.5,0.2,3.1-0.3,4.2-1.2c1.2-1,1.9-2.4,2-3.9
								c1.1-15.6,3.9-56.9,3.9-56.9L504.7,135.7z"/>
							<path class="st0" d="M504.7,135.7l-85.7-4.9c0,0-2,16.9-4,33.4c-1,8,1.4,16.1,6.6,22.3c5.2,6.2,12.7,10,20.8,10.4
								c10.1,0.6,21.4,1.2,31.5,1.8c8.1,0.5,16-2.4,21.9-8c5.9-5.6,9.2-13.4,9.1-21.5C504.8,152.7,504.7,135.7,504.7,135.7z"/>
							<path class="st0" d="M459.2,182.2c3,0.2,5.4,2.8,5.2,5.8c-0.2,3-2.8,5.4-5.8,5.2c-3-0.2-5.4-2.8-5.2-5.8
								C453.5,184.4,456.1,182,459.2,182.2z"/>
						</g>
					</g>
					<g>
						<g>
							<path class="st0" d="M332.1,104.5c-3.3-0.2-6.6,0.4-9.6,1.7c-7.1,3.1-19.7,8.6-19.7,8.6l78.2,4.5l21.2-10.1
								C402.1,109.2,348.9,105.6,332.1,104.5z"/>
							<path class="st0" d="M404.9,112.2c0.1-0.9-0.3-1.8-1.1-2.4c-0.8-0.5-1.7-0.6-2.6-0.2c-7,3.3-20.3,9.7-20.3,9.7L370,251.6
								c6.9-4.4,13.7-7.3,20.5-9c4.2-1,7.2-4.7,7.3-8.9C399.3,193.1,400.9,152.6,404.9,112.2z"/>
							<path class="st0" d="M380.9,119.3l-78.2-4.5c-0.6,20.1-2.4,40.2-3.5,60.3c-1.1,22.2-1.7,44.5-3.6,66.9
								c-0.1,1.6,0.4,3.2,1.5,4.4c1.1,1.2,2.7,1.9,4.3,1.8c22.1-0.2,44,1.1,65.9,3.8c1.5,0.2,3.1-0.3,4.3-1.2c1.2-1,1.9-2.4,2-3.9
								c1.1-15.7,3.9-56.9,3.9-56.9L380.9,119.3z"/>
							<path class="st0" d="M380.9,119.3l-78.2-4.5c0,0-2,17.1-3.8,33.6c-0.9,8,1.5,16,6.7,22.2c5.2,6.2,12.7,9.9,20.7,10.4
								c7.7,0.4,15.9,0.9,23.6,1.4c8.1,0.5,16-2.4,21.8-8c5.9-5.5,9.2-13.3,9.2-21.3C380.9,136.4,380.9,119.3,380.9,119.3z"/>
							<path class="st0" d="M339.1,166c2.8,0.2,4.9,2.8,4.7,5.8c-0.2,3-2.6,5.4-5.3,5.2c-2.8-0.2-4.9-2.8-4.7-5.8
								C333.9,168.1,336.3,165.8,339.1,166z"/>
						</g>
					</g>
					<g>
						<path class="st0" d="M253.3,113.3l5.8-9.1l30,1l3.7,11.3L253.3,113.3z"/>
						<path class="st0" d="M292.6,117.6c0.1-0.7-0.1-1.4-0.6-2c-0.5-0.5-1.1-0.9-1.9-0.9c-9-0.3-36.9-1.4-36.9-1.4L248,232.4
							c1.2,3,16.3,4.9,28.4,5.2c5.3,0.1,9.7-4.1,9.8-9.3C287,191.3,288.4,154.3,292.6,117.6z"/>
					</g>
				</g>
				<g>
					<g>
						<g>
							<path class="st0" d="M750,120.6c3.1-0.2,6.1,0.3,8.9,1.4c7.5,3,22.3,8.8,22.3,8.8l-85.7,4.9l-23.2-10
								C672.4,125.8,732.7,121.8,750,120.6z"/>
							<path class="st0" d="M669.4,128.6c-0.1-0.9,0.3-1.8,1-2.3c0.7-0.5,1.7-0.7,2.5-0.3c7.5,3.2,22.6,9.7,22.6,9.7l11.2,132.3
								c-7.7-4.4-15.3-7.3-22.8-9c-4.3-0.9-7.4-4.6-7.6-9C675.1,209.5,673.5,169,669.4,128.6z"/>
							<path class="st0" d="M695.6,135.7l85.7-4.9c0.5,20.1,2.4,40.2,3.5,60.3c1.1,22.2,1.6,44.5,3.6,66.9c0.1,1.6-0.4,3.2-1.5,4.4
								c-1.1,1.2-2.6,1.9-4.3,1.9c-24.6-0.1-49.1,1.4-73.5,4.2c-1.5,0.2-3.1-0.3-4.2-1.2c-1.2-1-1.9-2.4-2-3.9
								c-1.1-15.6-3.9-56.9-3.9-56.9L695.6,135.7z"/>
							<path class="st0" d="M695.6,135.7l85.7-4.9c0,0,2,16.9,4,33.4c1,8-1.4,16.1-6.6,22.3c-5.2,6.2-12.7,10-20.8,10.4
								c-10.1,0.6-21.4,1.2-31.5,1.8c-8.1,0.5-16-2.4-21.9-8c-5.9-5.6-9.2-13.4-9.1-21.5C695.5,152.7,695.6,135.7,695.6,135.7z"/>
							<path class="st0" d="M741.2,182.2c-3,0.2-5.4,2.8-5.2,5.8c0.2,3,2.8,5.4,5.8,5.2c3-0.2,5.4-2.8,5.2-5.8
								C746.8,184.4,744.2,182,741.2,182.2z"/>
						</g>
					</g>
					<g>
						<g>
							<path class="st0" d="M868.3,104.5c3.3-0.2,6.6,0.4,9.7,1.7c7.1,3.1,19.7,8.6,19.7,8.6l-78.2,4.5l-21.2-10.1
								C798.2,109.2,851.4,105.6,868.3,104.5z"/>
							<path class="st0" d="M795.5,112.2c-0.1-0.9,0.3-1.8,1.1-2.4c0.8-0.5,1.7-0.6,2.6-0.2c7,3.3,20.3,9.7,20.3,9.7l10.8,132.4
								c-6.9-4.4-13.7-7.3-20.5-9c-4.2-1-7.2-4.7-7.3-8.9C801.1,193.1,799.4,152.6,795.5,112.2z"/>
							<path class="st0" d="M819.4,119.3l78.2-4.5c0.6,20.1,2.4,40.2,3.5,60.3c1.1,22.2,1.7,44.5,3.6,66.9c0.1,1.6-0.4,3.2-1.5,4.4
								c-1.1,1.2-2.7,1.9-4.3,1.8c-22.1-0.2-44,1.1-65.9,3.8c-1.5,0.2-3.1-0.3-4.3-1.2c-1.2-1-1.9-2.4-2-3.9
								c-1.1-15.7-3.9-56.9-3.9-56.9L819.4,119.3z"/>
							<path class="st0" d="M819.4,119.3l78.2-4.5c0,0,2,17.1,3.8,33.6c0.9,8-1.5,16-6.7,22.2c-5.2,6.2-12.7,9.9-20.7,10.4
								c-7.7,0.4-15.9,0.9-23.6,1.4c-8.1,0.5-16-2.4-21.8-8c-5.9-5.5-9.2-13.3-9.2-21.3C819.4,136.4,819.4,119.3,819.4,119.3z"/>
							<path class="st0" d="M861.3,166c-2.8,0.2-4.9,2.8-4.7,5.8c0.2,3,2.6,5.4,5.3,5.2c2.8-0.2,4.9-2.8,4.7-5.8
								C866.4,168.1,864,165.8,861.3,166z"/>
						</g>
					</g>
					<g>
						<path class="st0" d="M947.1,113.3l-5.8-9.1l-30,1l-3.7,11.3L947.1,113.3z"/>
						<path class="st0" d="M907.7,117.6c-0.1-0.7,0.1-1.4,0.6-2c0.5-0.5,1.1-0.9,1.9-0.9c9-0.3,36.9-1.4,36.9-1.4l5.3,119.1
							c-1.2,3-16.3,4.9-28.4,5.2c-5.3,0.1-9.7-4.1-9.8-9.3C913.3,191.3,912,154.3,907.7,117.6z"/>
					</g>
				</g>
				<path class="st0" d="M638.4,127.9l11.8,11.6l-97-1.8l7.5-10.6L638.4,127.9z"/>
				<path class="st0" d="M553.2,137.6l96.7,1.8c-1.1,21-0.6,41.9-1.2,62.9c-0.6,23.2-1.9,46.6-1.6,70.1c0,1.6-0.6,3.2-1.8,4.3
					c-1.2,1.1-2.8,1.7-4.4,1.5c-28.1-2.1-56.3-2.6-84.5-1.6c-1.5,0.1-3-0.5-4.1-1.6c-1.1-1.1-1.7-2.5-1.7-4.1
					c0.1-16.1,0.4-59.7,0.4-59.7L553.2,137.6z"/>
				<path class="st0" d="M553.2,137.6l96.7,1.8c0,0,0.9,18.6,1.7,36.2c0.4,8.1-2.6,16-8.3,21.8c-5.7,5.8-13.5,9-21.6,8.9
					c-13.6-0.3-29.5-0.6-43.2-0.8c-8.1-0.2-15.8-3.7-21.3-9.7c-5.4-6.1-8.1-14.1-7.4-22.2C551.6,156,553.2,137.6,553.2,137.6z"/>
				<path class="st0" d="M600.5,189.5c-3.4-0.1-6.3,2.5-6.3,5.6c-0.1,3.2,2.7,5.8,6.1,5.9c3.4,0.1,6.3-2.5,6.3-5.6
					C606.7,192.2,603.9,189.6,600.5,189.5z"/>
			</g>
		</g>
		<g id="Pouch-Belt-6_M_Option">
			<path id="Main_Pouch-Belt-6_M" class="st0" d="M921,205.5c-72.3,6.5-237.5,30.1-320.9,30.1c-84.2,0-249.4-23.8-320.7-30.1
				L290,121c58.7,5.2,228.6,29.2,310.1,29.2c79.2,0,245.6-23.8,308.1-29.5L921,205.5z"/>
			<rect id="Buckle_Pouch-Belt-6_M" x="541.1" y="142.2" class="st0" width="119.6" height="98.1"/>
			<g id="Pouches_Pouch-Belt-6_M">
				<g>
					<g>
						<g>
							<path class="st0" d="M450.3,120.6c-3-0.2-6.1,0.3-8.9,1.4c-7.5,3-22.3,8.8-22.3,8.8l85.7,4.9l23.2-10
								C527.9,125.7,467.7,121.7,450.3,120.6z"/>
							<path class="st0" d="M530.9,128.5c0.1-0.9-0.3-1.8-1-2.3c-0.7-0.5-1.7-0.7-2.5-0.3c-7.5,3.2-22.6,9.7-22.6,9.7L493.6,268
								c7.7-4.4,15.3-7.3,22.8-9c4.3-0.9,7.4-4.6,7.6-9C525.2,209.4,526.8,168.9,530.9,128.5z"/>
							<path class="st0" d="M504.7,135.6l-85.7-4.9c-0.5,20.1-2.4,40.2-3.5,60.3c-1.1,22.2-1.6,44.5-3.6,66.9
								c-0.1,1.6,0.4,3.2,1.5,4.4c1.1,1.2,2.6,1.9,4.3,1.9c24.6-0.1,49.1,1.4,73.5,4.2c1.5,0.2,3.1-0.3,4.2-1.2c1.2-1,1.9-2.4,2-3.9
								c1.1-15.6,3.9-56.9,3.9-56.9L504.7,135.6z"/>
							<path class="st0" d="M504.7,135.6l-85.7-4.9c0,0-2,16.9-4,33.4c-1,8,1.4,16.1,6.6,22.3c5.2,6.2,12.7,10,20.8,10.4
								c10.1,0.6,21.4,1.2,31.5,1.8c8.1,0.5,16-2.4,21.9-8c5.9-5.6,9.2-13.4,9.1-21.5C504.8,152.7,504.7,135.6,504.7,135.6z"/>
							<path class="st0" d="M459.2,182.1c3,0.2,5.4,2.8,5.2,5.8c-0.2,3-2.8,5.4-5.8,5.2c-3-0.2-5.4-2.8-5.2-5.8
								C453.5,184.3,456.1,181.9,459.2,182.1z"/>
						</g>
					</g>
					<g>
						<g>
							<path class="st0" d="M332.1,104.4c-3.3-0.2-6.6,0.4-9.6,1.7c-7.1,3.1-19.7,8.6-19.7,8.6l78.2,4.5l21.2-10.1
								C402.1,109.1,348.9,105.6,332.1,104.4z"/>
							<path class="st0" d="M404.9,112.1c0.1-0.9-0.3-1.8-1.1-2.4c-0.8-0.5-1.7-0.6-2.6-0.2c-7,3.3-20.3,9.7-20.3,9.7L370,251.6
								c6.9-4.4,13.7-7.3,20.5-9c4.2-1,7.2-4.7,7.3-8.9C399.3,193,400.9,152.5,404.9,112.1z"/>
							<path class="st0" d="M380.9,119.2l-78.2-4.5c-0.6,20.1-2.4,40.2-3.5,60.3c-1.1,22.2-1.7,44.5-3.6,66.9
								c-0.1,1.6,0.4,3.2,1.5,4.4c1.1,1.2,2.7,1.9,4.3,1.8c22.1-0.2,44,1.1,65.9,3.8c1.5,0.2,3.1-0.3,4.3-1.2c1.2-1,1.9-2.4,2-3.9
								c1.1-15.7,3.9-56.9,3.9-56.9L380.9,119.2z"/>
							<path class="st0" d="M380.9,119.2l-78.2-4.5c0,0-2,17.1-3.8,33.6c-0.9,8,1.5,16,6.7,22.2c5.2,6.2,12.7,9.9,20.7,10.4
								c7.7,0.4,15.9,0.9,23.6,1.4c8.1,0.5,16-2.4,21.8-8c5.9-5.6,9.2-13.3,9.2-21.3C380.9,136.3,380.9,119.2,380.9,119.2z"/>
							<path class="st0" d="M339.1,165.9c2.8,0.2,4.9,2.8,4.7,5.8c-0.2,3-2.6,5.4-5.3,5.2c-2.8-0.2-4.9-2.8-4.7-5.8
								C333.9,168.1,336.3,165.7,339.1,165.9z"/>
						</g>
					</g>
					<g>
						<path class="st0" d="M253.3,113.2l5.8-9.1l30,1l3.7,11.3L253.3,113.2z"/>
						<path class="st0" d="M292.6,117.5c0.1-0.7-0.1-1.4-0.6-2c-0.5-0.5-1.1-0.9-1.9-0.9c-9-0.3-36.9-1.4-36.9-1.4L248,232.3
							c1.2,3,16.3,4.9,28.4,5.2c5.3,0.1,9.7-4.1,9.8-9.3C287,191.2,288.4,154.2,292.6,117.5z"/>
					</g>
				</g>
				<g>
					<g>
						<g>
							<path class="st0" d="M750,120.6c3.1-0.2,6.1,0.3,8.9,1.4c7.5,3,22.3,8.8,22.3,8.8l-85.7,4.9l-23.2-10
								C672.4,125.7,732.7,121.7,750,120.6z"/>
							<path class="st0" d="M669.4,128.5c-0.1-0.9,0.3-1.8,1-2.3c0.7-0.5,1.7-0.7,2.5-0.3c7.5,3.2,22.6,9.7,22.6,9.7L706.8,268
								c-7.7-4.4-15.3-7.3-22.8-9c-4.3-0.9-7.4-4.6-7.6-9C675.1,209.4,673.5,168.9,669.4,128.5z"/>
							<path class="st0" d="M695.6,135.6l85.7-4.9c0.5,20.1,2.4,40.2,3.5,60.3c1.1,22.2,1.6,44.5,3.6,66.9c0.1,1.6-0.4,3.2-1.5,4.4
								c-1.1,1.2-2.6,1.9-4.3,1.9c-24.6-0.1-49.1,1.4-73.5,4.2c-1.5,0.2-3.1-0.3-4.2-1.2c-1.2-1-1.9-2.4-2-3.9
								c-1.1-15.6-3.9-56.9-3.9-56.9L695.6,135.6z"/>
							<path class="st0" d="M695.6,135.6l85.7-4.9c0,0,2,16.9,4,33.4c1,8-1.4,16.1-6.6,22.3c-5.2,6.2-12.7,10-20.8,10.4
								c-10.1,0.6-21.4,1.2-31.5,1.8c-8.1,0.5-16-2.4-21.9-8c-5.9-5.6-9.2-13.4-9.1-21.5C695.5,152.7,695.6,135.6,695.6,135.6z"/>
							<path class="st0" d="M741.2,182.1c-3,0.2-5.4,2.8-5.2,5.8c0.2,3,2.8,5.4,5.8,5.2c3-0.2,5.4-2.8,5.2-5.8
								C746.8,184.3,744.2,181.9,741.2,182.1z"/>
						</g>
					</g>
					<g>
						<g>
							<path class="st0" d="M868.3,104.4c3.3-0.2,6.6,0.4,9.7,1.7c7.1,3.1,19.7,8.6,19.7,8.6l-78.2,4.5l-21.2-10.1
								C798.2,109.1,851.4,105.6,868.3,104.4z"/>
							<path class="st0" d="M795.5,112.1c-0.1-0.9,0.3-1.8,1.1-2.4c0.8-0.5,1.7-0.6,2.6-0.2c7,3.3,20.3,9.7,20.3,9.7l10.8,132.4
								c-6.9-4.4-13.7-7.3-20.5-9c-4.2-1-7.2-4.7-7.3-8.9C801.1,193,799.4,152.5,795.5,112.1z"/>
							<path class="st0" d="M819.4,119.2l78.2-4.5c0.6,20.1,2.4,40.2,3.5,60.3c1.1,22.2,1.7,44.5,3.6,66.9c0.1,1.6-0.4,3.2-1.5,4.4
								c-1.1,1.2-2.7,1.9-4.3,1.8c-22.1-0.2-44,1.1-65.9,3.8c-1.5,0.2-3.1-0.3-4.3-1.2c-1.2-1-1.9-2.4-2-3.9
								c-1.1-15.7-3.9-56.9-3.9-56.9L819.4,119.2z"/>
							<path class="st0" d="M819.4,119.2l78.2-4.5c0,0,2,17.1,3.8,33.6c0.9,8-1.5,16-6.7,22.2c-5.2,6.2-12.7,9.9-20.7,10.4
								c-7.7,0.4-15.9,0.9-23.6,1.4c-8.1,0.5-16-2.4-21.8-8c-5.9-5.6-9.2-13.3-9.2-21.3C819.4,136.3,819.4,119.2,819.4,119.2z"/>
							<path class="st0" d="M861.3,165.9c-2.8,0.2-4.9,2.8-4.7,5.8c0.2,3,2.6,5.4,5.3,5.2c2.8-0.2,4.9-2.8,4.7-5.8
								C866.4,168.1,864,165.7,861.3,165.9z"/>
						</g>
					</g>
					<g>
						<path class="st0" d="M947.1,113.2l-5.8-9.1l-30,1l-3.7,11.3L947.1,113.2z"/>
						<path class="st0" d="M907.7,117.5c-0.1-0.7,0.1-1.4,0.6-2c0.5-0.5,1.1-0.9,1.9-0.9c9-0.3,36.9-1.4,36.9-1.4l5.3,119.1
							c-1.2,3-16.3,4.9-28.4,5.2c-5.3,0.1-9.7-4.1-9.8-9.3C913.3,191.2,912,154.2,907.7,117.5z"/>
					</g>
				</g>
			</g>
		</g>
		<g id="Pouch-Belt-4_M_Option">
			<path id="Main_Pouch-Belt-4_M" class="st0" d="M921,205.5c-72.3,6.5-237.5,30.1-320.9,30.1c-84.2,0-249.4-23.8-320.7-30.1
				L290,121c58.7,5.2,228.6,29.2,310.1,29.2c79.2,0,245.6-23.8,308.1-29.5L921,205.5z"/>
			<rect id="Buckle_Pouch-Belt-4_M" x="541.1" y="142.2" class="st0" width="119.6" height="98.1"/>
			<g id="Pouches_Pouch-Belt-4_M">
				<g>
					<g>
						<path class="st0" d="M332.1,104.4c-3.3-0.2-6.6,0.4-9.6,1.7c-7.1,3.1-19.7,8.6-19.7,8.6l78.2,4.5l21.2-10.1
							C402.1,109.1,348.9,105.6,332.1,104.4z"/>
						<path class="st0" d="M404.9,112.1c0.1-0.9-0.3-1.8-1.1-2.4c-0.8-0.5-1.7-0.6-2.6-0.2c-7,3.3-20.3,9.7-20.3,9.7L370,251.6
							c6.9-4.4,13.7-7.3,20.5-9c4.2-1,7.2-4.7,7.3-8.9C399.3,193,400.9,152.5,404.9,112.1z"/>
						<path class="st0" d="M380.9,119.2l-78.2-4.5c-0.6,20.1-2.4,40.2-3.5,60.3c-1.1,22.2-1.7,44.5-3.6,66.9
							c-0.1,1.6,0.4,3.2,1.5,4.4c1.1,1.2,2.7,1.9,4.3,1.8c22.1-0.2,44,1.1,65.9,3.8c1.5,0.2,3.1-0.3,4.3-1.2c1.2-1,1.9-2.4,2-3.9
							c1.1-15.7,3.9-56.9,3.9-56.9L380.9,119.2z"/>
						<path class="st0" d="M380.9,119.2l-78.2-4.5c0,0-2,17.1-3.8,33.6c-0.9,8,1.5,16,6.7,22.2c5.2,6.2,12.7,9.9,20.7,10.4
							c7.7,0.4,15.9,0.9,23.6,1.4c8.1,0.5,16-2.4,21.8-8c5.9-5.6,9.2-13.3,9.2-21.3C380.9,136.3,380.9,119.2,380.9,119.2z"/>
						<path class="st0" d="M339.1,165.9c2.8,0.2,4.9,2.8,4.7,5.8c-0.2,3-2.6,5.4-5.3,5.2c-2.8-0.2-4.9-2.8-4.7-5.8
							C333.9,168.1,336.3,165.7,339.1,165.9z"/>
					</g>
				</g>
				<g>
					<path class="st0" d="M253.3,113.2l5.8-9.1l30,1l3.7,11.3L253.3,113.2z"/>
					<path class="st0" d="M292.6,117.5c0.1-0.7-0.1-1.4-0.6-2c-0.5-0.5-1.1-0.9-1.9-0.9c-9-0.3-36.9-1.4-36.9-1.4L248,232.3
						c1.2,3,16.3,4.9,28.4,5.2c5.3,0.1,9.7-4.1,9.8-9.3C287,191.2,288.4,154.2,292.6,117.5z"/>
				</g>
				<g>
					<g>
						<path class="st0" d="M868.3,104.4c3.3-0.2,6.6,0.4,9.7,1.7c7.1,3.1,19.7,8.6,19.7,8.6l-78.2,4.5l-21.2-10.1
							C798.2,109.1,851.4,105.6,868.3,104.4z"/>
						<path class="st0" d="M795.5,112.1c-0.1-0.9,0.3-1.8,1.1-2.4c0.8-0.5,1.7-0.6,2.6-0.2c7,3.3,20.3,9.7,20.3,9.7l10.8,132.4
							c-6.9-4.4-13.7-7.3-20.5-9c-4.2-1-7.2-4.7-7.3-8.9C801.1,193,799.4,152.5,795.5,112.1z"/>
						<path class="st0" d="M819.4,119.2l78.2-4.5c0.6,20.1,2.4,40.2,3.5,60.3c1.1,22.2,1.7,44.5,3.6,66.9c0.1,1.6-0.4,3.2-1.5,4.4
							c-1.1,1.2-2.7,1.9-4.3,1.8c-22.1-0.2-44,1.1-65.9,3.8c-1.5,0.2-3.1-0.3-4.3-1.2c-1.2-1-1.9-2.4-2-3.9
							c-1.1-15.7-3.9-56.9-3.9-56.9L819.4,119.2z"/>
						<path class="st0" d="M819.4,119.2l78.2-4.5c0,0,2,17.1,3.8,33.6c0.9,8-1.5,16-6.7,22.2c-5.2,6.2-12.7,9.9-20.7,10.4
							c-7.7,0.4-15.9,0.9-23.6,1.4c-8.1,0.5-16-2.4-21.8-8c-5.9-5.6-9.2-13.3-9.2-21.3C819.4,136.3,819.4,119.2,819.4,119.2z"/>
						<path class="st0" d="M861.3,165.9c-2.8,0.2-4.9,2.8-4.7,5.8c0.2,3,2.6,5.4,5.3,5.2c2.8-0.2,4.9-2.8,4.7-5.8
							C866.4,168.1,864,165.7,861.3,165.9z"/>
					</g>
				</g>
				<g>
					<path class="st0" d="M947.1,113.2l-5.8-9.1l-30,1l-3.7,11.3L947.1,113.2z"/>
					<path class="st0" d="M907.7,117.5c-0.1-0.7,0.1-1.4,0.6-2c0.5-0.5,1.1-0.9,1.9-0.9c9-0.3,36.9-1.4,36.9-1.4l5.3,119.1
						c-1.2,3-16.3,4.9-28.4,5.2c-5.3,0.1-9.7-4.1-9.8-9.3C913.3,191.2,912,154.2,907.7,117.5z"/>
				</g>
			</g>
		</g>
		<g id="Pouch-Belt-2_M_Option">
			<path id="Main_Pouch-Belt-2_M" class="st0" d="M921,205.5c-72.3,6.5-237.5,30.1-320.9,30.1c-84.2,0-249.4-23.8-320.7-30.1
				L290,121c58.7,5.2,228.6,29.2,310.1,29.2c79.2,0,245.6-23.8,308.1-29.5L921,205.5z"/>
			<rect id="Buckle_Pouch-Belt-2_M" x="541.1" y="142.2" class="st0" width="119.6" height="98.1"/>
			<g id="Pouches_Pouch-Belt-2_M">
				<g>
					<path class="st0" d="M253.3,113.2l5.8-9.1l30,1l3.7,11.3L253.3,113.2z"/>
					<path class="st0" d="M292.6,117.5c0.1-0.7-0.1-1.4-0.6-2c-0.5-0.5-1.1-0.9-1.9-0.9c-9-0.3-36.9-1.4-36.9-1.4L248,232.3
						c1.2,3,16.3,4.9,28.4,5.2c5.3,0.1,9.7-4.1,9.8-9.3C287,191.2,288.4,154.2,292.6,117.5z"/>
				</g>
				<g>
					<path class="st0" d="M947.1,113.2l-5.8-9.1l-30,1l-3.7,11.3L947.1,113.2z"/>
					<path class="st0" d="M907.7,117.5c-0.1-0.7,0.1-1.4,0.6-2c0.5-0.5,1.1-0.9,1.9-0.9c9-0.3,36.9-1.4,36.9-1.4l5.3,119.1
						c-1.2,3-16.3,4.9-28.4,5.2c-5.3,0.1-9.7-4.1-9.8-9.3C913.3,191.2,912,154.2,907.7,117.5z"/>
				</g>
			</g>
		</g>
		<g id="Basic-Belt_M_Option">
			<path id="Main_Basic-Belt_M" class="st0" d="M921,205.5c-72.3,6.5-237.5,30.1-320.9,30.1c-84.2,0-249.4-23.8-320.7-30.1L290,121
				c58.7,5.2,228.6,29.2,310.1,29.2c79.2,0,245.6-23.8,308.1-29.5L921,205.5z"/>
			<rect id="Buckle_Basic-Belt_M" x="541.1" y="142.2" class="st0" width="119.6" height="98.1"/>
		</g>
	</g>
</g>
</svg>
