<?xml version="1.0" encoding="utf-8"?>
<!-- Generator: Adobe Illustrator 25.1.0, SVG Export Plug-In . SVG Version: 6.00 Build 0)  -->
<svg version="1.1" id="Layer_1" xmlns:serif="http://www.serif.com/"
	 xmlns="http://www.w3.org/2000/svg" xmlns:xlink="http://www.w3.org/1999/xlink" x="0px" y="0px" viewBox="0 0 1265 1840"
	 xml:space="preserve">
<g id="Shins_M">
	<g id="Left-Shin_M">
		<g id="None_Shin_Left_M_Option">
		</g>
		<g id="Pockets_Shin_Left_M_Option">
			<g id="Accent-2_Pockets-Shin_Left_M">
				<path d="M964.3,1164.6c3.4-6.2,7.5-6.1,12-1.1l10.3,115.5l-12,1.1L964.3,1164.6"/>
				<path d="M894.4,1183.6c4.6-5.8,9.5-6.2,14.7-1.3l11.9,133.8l-14.7,1.3L894.4,1183.6"/>
			</g>
			<g id="Accent-1_Pockets-Shin_Left_M">
				<path d="M942.9,1144.6c4.1-6.8,9-6.8,14.7-1.3l11.9,133.8l-14.7,1.3L942.9,1144.6"/>
				<path d="M876.4,1192.6c4.4-7.3,9.2-7.9,14.7-1.3l11.9,133.8l-14.7,1.3L876.4,1192.6"/>
			</g>
			<g id="Shin_Pockets-Shin_Left_M">
				<path d="M923.8,1199c24.9,3.5,48.9,1.5,72-5.8l19.1,238c-24,8.9-38,11.1-62,5.8L923.8,1199"/>
				<path d="M858.5,1204.2c22.7,4.6,44.4,2.6,65.4-5.2l29.1,238c-20.9,9.1-39.7,10.4-62.4,5.2L858.5,1204.2"/>
			</g>
		</g>
		<g id="Wraps_Shin_Left_M_Option">
			<path d="M1061.7,1554c-66.6,22-130.2,26.1-191,13.4l-24.8-109.5l203.5-11.5L1061.7,1554"/>
			<path d="M1055.5,1472c-65.2,27.6-131.7,40.9-199.8,39.2l-22.4-108.4l207.5-43.2L1055.5,1472"/>
			<path d="M1050.6,1411.1c-112.6,15.3-193.9,44.7-212.4,22.6l-18.8-110.2l217.5-4.8L1050.6,1411.1"/>
			<path d="M1045.1,1347c0,0-74,11.9-111.4,12.7c-37.8,0.8-115.2-7.9-115.2-7.9l-9.9-105.3l220.3-10L1045.1,1347"/>
			<path d="M1033.6,1251.8c0,0-74.5,18.5-112.6,23.6c-38.5,5.1-112.2,6.8-112.2,6.8L796,1178.1l223.6-36.7
				L1033.6,1251.8"/>
			<path d="M1018.8,1133.5l12.5,83.5c0,0-83-14-123.8-14c-40.2,0-111.6,13-111.6,13l-10.2-103.7c0,0,86.3-18,127.6-18
				c39.4,0,100.8,12,100.8,12L1018.8,1133.5"/>
		</g>
		<g id="Heavy-Shnees_Shin_Left_M_Option">
			<g id="Shin_Heavy-Shnees-Shin_Left_M">
				<path d="M920.1,1601.8l49.6-65l90.3-10.8l-64.6-592.6l-257.5,32.2l130.7,548.9l1,60.1L920.1,1601.8"/>
				<path d="M778.1,952.5l-27.8-22.8h-18.4c0,0-8.5,52.7-6.7,79c3,42.5,46,96.6,46,96.6l28.5,13.5l31.9-73.9
					L778.1,952.5"/>
				<path d="M970.5,1011.8l17.4-88.9c0,0,25.6,50.2,28,76.4c4.3,46.4-4.9,77.1-4.9,77.1L970.5,1011.8"/>
				<path d="M969.7,1536.7l90.3-10.8l-22.3-45.5L976,1486L969.7,1536.7"/>
				<path d="M1005.7,1483.3l-72.4-389.4"/>
			</g>
			<g id="Knee_Heavy-Shnees-Shin_Left_M">
				<path d="M940.4,843.7l-144.9,24.4l-21.6,105.4l106.6,129.2l95.9-13.7l30.7-159.4L940.4,843.7"/>
				<path d="M795.5,868.1l31.1,37.9l112.2-17.7l1.7-44.6L795.5,868.1"/>
				<path d="M826.5,905.9l-52.6,67.2l21.6-105.1L826.5,905.9"/>
				<path d="M938.7,888.3l68.3,41.4l-66.6-86L938.7,888.3"/>
				<path d="M938.7,888.3l37.6,200.7l30.7-159.4L938.7,888.3"/>
				<path d="M826.5,905.9l-52.7,67.2l106.6,129.5L826.5,905.9"/>
			</g>
			<g id="Straps_Heavy-Shnees-Shin_Left_M_Toggle">
				<path d="M789.2,1197.1l55.4-9.2l5.8,25l-55.4,9.2L789.2,1197.1"/>
				<path d="M792.9,1194.5l11.7-1.9l6.8,29.6l-11.7,1.9L792.9,1194.5"/>
				<path d="M846.2,1439.1l55.4-9.2l5.8,25l-55.4,9.2L846.2,1439.1"/>
				<path d="M849.8,1436.5l11.7-1.9l6.8,29.6l-11.7,1.9L849.8,1436.5"/>
			</g>
		</g>
		<g id="Basic-Shnees_Shin_Left_M_Option">
			<path id="Shin_Basic-Shnees-Shin_Left_M" d="M791.2,948.4c-2.2-22.9,14.2-43.5,37.1-46.4c28.5-3.7,66-8.5,94.2-12.2
				c22.5-2.9,43.3,12.2,47.5,34.5c9.3,49.3,26,126.9,38.7,124.9l52.7,491.3L956,1553.7l-32.5,37.4l-49-10l-100.9-501.4
				C799.2,1077,795.9,998.5,791.2,948.4"/>
			<g id="Straps_Basic-Shnees-Shin_Left_M_Toggle">
				<path d="M784.7,1156.5l54.6-9.2l5.7,25l-54.6,9.2L784.7,1156.5"/>
				<path d="M788.3,1153.9l11.6-1.9l6.7,29.6l-11.6,1.9L788.3,1153.9"/>
				<path d="M833.7,1398.5l54.6-9.2l5.7,25l-54.6,9.2L833.7,1398.5"/>
				<path d="M837.3,1395.9l11.6-1.9l6.7,29.6l-11.6,1.9L837.3,1395.9"/>
			</g>
			<g id="Accent_Basic-Shnees-Shin_Left_M_Toggle">
				<path d="M921.3,887.3l-40.3-2.7L840.6,896l122.7,656.9l48.9-6.1L921.3,887.3"/>
				<path d="M880.9,884.6l108.4,664.9"/>
			</g>
		</g>
		<g id="Full_Shin_Left_M_Option">
			<path id="Shin_Full-Shin_Left_M" d="M818.5,1084.6c116.3-31.8,193.9-11.8,193.9-11.8l46.1,451.5
				c0,0-45.7,12.5-95.5,14c-36.5,1.1-95-10.3-95-10.3l-83.7-383.8C784.4,1144.2,822.8,1135.5,818.5,1084.6"/>
			<g id="Accent_Full-Shin_Left_M_Toggle">
				<path d="M793.9,1186.2l64.4-8l4.3,16.9l-64.9,8.1L793.9,1186.2"/>
				<path d="M799.2,1209.7l44-5.6l4.3,16.9l-44.5,5.7L799.2,1209.7"/>
			</g>
			<g id="Ridge_Full-Shin_Left_M_Toggle">
				<path d="M972,1063.2l-41.6-3.1l-42.7,5.9l86.8,471.8c20.7-0.2,36-3,59.6-7.9L972,1063.2"/>
				<path d="M930.4,1060.1l77.1,474.8"/>
			</g>
		</g>
		<g id="Legacy_Shin_Left_M_Option">
			<path id="Plate-3_Legacy-Shin_Left_M" d="M858.7,1317.1l43.6,164c0,0,52.2,10.3,80.3,7c28.1-3.3,65.7-18.4,65.7-18.4
				l-16.4-176.4l-75.2,46.7L858.7,1317.1"/>
			<path id="Plate-2_Legacy-Shin_Left_M" d="M826.2,1215.9l25.4,99.5l105.2,24.5l81.7-50.7l-8.1-100.4l-91.7,47.2
				L826.2,1215.9"/>
			<path id="Plate-1_Legacy-Shin_Left_M" d="M864.4,1075.9l-63.4,69.6l18,69.1l119.7,21.3l98.1-50.5l-6.5-85l-77.2-37.3
				L864.4,1075.9"/>
			<path id="Trauma-Plate-3_Legacy-Shin_Left_M_ToggleOff" d="M1016.7,1323.9l-50.4,31.3c-4,2.5-8.9,3.3-13.6,2.2
				l-68.9-16l33,124c15.9,2.7,45.3,6.9,63.7,4.7c16.3-1.9,36.1-8.2,48.7-12.6L1016.7,1323.9"/>
			<path id="Trauma-Plate-2_Legacy-Shin_Left_M_ToggleOff" d="M1014.6,1217.1l-67.8,34.9c-3.5,1.8-7.5,2.4-11.4,1.7
				l-84.9-15.1l15.8,61.8l87.3,20.3l66-41L1014.6,1217.1"/>
			<path id="Trauma-Plate-1_Legacy-Shin_Left_M_ToggleOff" d="M873.3,1092.8l-52.5,57.6l12.6,48.4l102.3,18.3l82.1-42.3
				l-4.8-62.8l-63-30.4L873.3,1092.8"/>
			<g id="Ridge_Legacy-Shin_Left_M_ToggleOff">
				<path d="M958.2,1488.9l6.3,0.3c-3.4,0-6.7-0.1-9.9-0.5L958.2,1488.9"/>
				<path d="M971.2,1219.8l12.1,104.2l-26.5,16.5l-38-8.8L897,1229.1l41.6,7.4L971.2,1219.8"/>
				<path d="M983.3,1324l18.7,160.4c-12,2.5-25.1,4.7-37.6,4.8l-6.3-0.3l-3.6-0.3l-2.4-0.2l-33.4-156.8l38,8.8
					L983.3,1324"/>
				<path d="M864.5,1076.5l-0.1-0.6l42.6-17.1l46,4.3l0.1,0.6l-0.1,0l-0.2,0l0.2,0l0.1,0l18.2,156l-32.6,16.8l-41.6-7.4
					L864.5,1076.5"/>
				<path d="M906.9,1058.9l31.6,177.7"/>
				<path d="M938.6,1236.6l18.2,103.9"/>
				<path d="M956.8,1340.5l24.1,147.6"/>
			</g>
		</g>
		<g id="Basic-Round_Shin_Left_M_Option">
			<path id="Shin_Basic-Round-Shin_Left_M" d="M1028.4,1142.5c-1.6-22.1-25.1-87.6-111.3-73.3
				c-103.5,17.1-89.6,103.3-88.2,110.9c10.6,54.6,58.8,301.8,58.8,301.8c46.6,21.3,115.1,13.8,153.1-18.6
				C1040.7,1463.3,1033.1,1206.3,1028.4,1142.5"/>
			<path id="Trauma-Plating_Basic-Round-Shin_Left_M_ToggleOff" d="M1020.4,1453.6c-1.5-48.3-7.8-253.6-12-309.6
				c-0.7-10-7.6-31.6-26.9-45.1c-13.7-9.6-33.5-14.5-61.2-9.9c-33.7,5.6-52.6,19.2-62.5,35.1c-14.3,22.9-10,48.7-9.3,52.2
				l56.7,291.1C941.6,1479.9,989.5,1474.8,1020.4,1453.6"/>
			<g id="Ridge_Basic-Round-Shin_Left_M_ToggleOff">
				<path d="M962.9,1067.3l-37.7-5.1l-37.5,14.4l59.4,417.4c25.8,1.9,26.3,2.8,47.7-6.4L962.9,1067.3"/>
				<path d="M925.2,1062.2l47.3,432.8"/>
			</g>
		</g>
		<g id="Basic_Shin_Left_M_Option">
			<path id="Shin_Basic-Shin_Left_M" d="M1021.3,1126.1l-53.7-58.4L861,1082.2l-38.9,92.9l72.9,309.8
				c47.4,19.4,115.6,9.3,152.3-24.5L1021.3,1126.1"/>
			<path id="Trauma-Plating_Basic-Shin_Left_M_ToggleOff" d="M1028.6,1452.5l-24.7-318.8l-43.1-46.9l-87.1,11.8
				l-32.7,78l69.3,294.6C948.2,1483.1,997.7,1475.9,1028.6,1452.5"/>
			<g id="Ridge_Basic-Shin_Left_M_ToggleOff">
				<path d="M952.8,1067.7l-37.9-3.6l-36.9,15.8l75.6,414.8c25.9,0.9,26.4,1.8,47.4-8.3L952.8,1067.7"/>
				<path d="M914.9,1064.1l64.1,430.6"/>
			</g>
		</g>
	</g>
	<g id="Right-Shin_M">
		<g id="None_Shin_Right_M_Option">
		</g>
		<g id="Pockets_Shin_Right_M_Option">
			<g id="Accent-2_Pockets-Shin_Right_M">
				<path d="M300.9,1164.6c-3.4-6.2-7.5-6.1-12-1.1l-10.3,115.5l12,1.1L300.9,1164.6"/>
				<path d="M370.8,1183.6c-4.6-5.8-9.5-6.2-14.7-1.3l-11.9,133.8l14.7,1.3L370.8,1183.6"/>
			</g>
			<g id="Accent-1_Pockets-Shin_Right_M">
				<path d="M322.3,1144.6c-4.1-6.8-9-6.8-14.7-1.3l-11.9,133.8l14.7,1.3L322.3,1144.6"/>
				<path d="M388.8,1192.6c-4.4-7.3-9.2-7.9-14.7-1.3l-11.9,133.8l14.7,1.3L388.8,1192.6"/>
			</g>
			<g id="Shin_Pockets-Shin_Right_M">
				<path d="M341.4,1199c-24.9,3.5-48.9,1.5-72-5.8l-19.1,238c24,8.9,38,11.1,62,5.8L341.4,1199"/>
				<path d="M406.7,1204.2c-22.7,4.6-44.4,2.6-65.4-5.2l-29.1,238c20.9,9.1,39.7,10.4,62.4,5.2L406.7,1204.2"/>
			</g>
		</g>
		<g id="Wraps_Shin_Right_M_Option">
			<path d="M203.5,1554c66.6,22,130.2,26.1,191,13.4l24.8-109.5l-203.5-11.5L203.5,1554"/>
			<path d="M209.7,1472c65.2,27.6,131.7,40.9,199.8,39.2l22.4-108.4l-207.5-43.2L209.7,1472"/>
			<path d="M214.6,1411.1c112.6,15.3,193.9,44.7,212.4,22.6l18.8-110.2l-217.4-4.8L214.6,1411.1"/>
			<path d="M220.1,1347c0,0,74,11.9,111.4,12.7c37.8,0.8,115.2-7.9,115.2-7.9l9.9-105.3l-220.3-10L220.1,1347"/>
			<path d="M231.6,1251.8c0,0,74.5,18.5,112.6,23.6c38.5,5.1,112.2,6.8,112.2,6.8l12.8-104.1l-223.6-36.7L231.6,1251.8"
				/>
			<path d="M246.4,1133.5l-12.5,83.5c0,0,83-14,123.8-14c40.2,0,111.6,13,111.6,13l10.2-103.7c0,0-86.3-18-127.6-18
				c-39.4,0-100.8,12-100.8,12L246.4,1133.5"/>
		</g>
		<g id="Heavy-Shnees_Shin_Right_M_Option">
			<g id="Shin_Heavy-Shnees-Shin_Right_M">
				<path d="M345.1,1601.8l-49.6-65l-90.3-10.8l64.6-592.6l257.5,32.2l-130.7,548.9l-1,60.1L345.1,1601.8"/>
				<path d="M487.1,952.5l27.8-22.8h18.4c0,0,8.5,52.7,6.7,79c-3,42.5-46,96.6-46,96.6l-28.5,13.5l-31.9-73.9
					L487.1,952.5"/>
				<path d="M294.7,1011.8l-17.4-88.9c0,0-25.6,50.2-28,76.4c-4.3,46.4,4.9,77.1,4.9,77.1L294.7,1011.8"/>
				<path d="M295.5,1536.7l-90.3-10.8l22.3-45.5l61.7,5.6L295.5,1536.7"/>
				<path d="M259.5,1483.3l72.4-389.4"/>
			</g>
			<g id="Knee_Heavy-Shnees-Shin_Right_M">
				<path d="M324.8,843.7l144.9,24.4l21.6,105.4l-106.6,129.2l-95.9-13.7l-30.7-159.4L324.8,843.7"/>
				<path d="M469.7,868.1l-31.1,37.9l-112.2-17.7l-1.7-44.6L469.7,868.1"/>
				<path d="M438.7,905.9l52.6,67.2l-21.6-105.1L438.7,905.9"/>
				<path d="M326.5,888.3l-68.3,41.4l66.6-86L326.5,888.3"/>
				<path d="M326.5,888.3L288.9,1089l-30.7-159.4L326.5,888.3"/>
				<path d="M438.7,905.9l52.7,67.2l-106.6,129.5L438.7,905.9"/>
			</g>
			<g id="Straps_Heavy-Shnees-Shin_Right_M_Toggle">
				<path d="M476,1197.1l-55.4-9.2l-5.8,25l55.4,9.2L476,1197.1"/>
				<path d="M472.3,1194.5l-11.7-1.9l-6.8,29.6l11.7,1.9L472.3,1194.5"/>
				<path d="M419,1439.1l-55.4-9.2l-5.8,25l55.4,9.2L419,1439.1"/>
				<path d="M415.4,1436.5l-11.7-1.9l-6.8,29.6l11.7,1.9L415.4,1436.5"/>
			</g>
		</g>
		<g id="Basic-Shnees_Shin_Right_M_Option">
			<path id="Shin_Basic-Shnees-Shin_Right_M" d="M474,948.4c2.2-22.9-14.2-43.5-37.1-46.4c-28.5-3.7-66-8.5-94.2-12.2
				c-22.5-2.9-43.3,12.2-47.5,34.5c-9.3,49.3-26,126.9-38.7,124.9l-52.6,491.3l105.3,13.2l32.5,37.4l49-10l100.9-501.4
				C466,1077,469.3,998.5,474,948.4"/>
			<g id="Straps_Basic-Shnees-Shin_Right_M_Toggle">
				<path d="M480.5,1156.5l-54.6-9.2l-5.7,25l54.6,9.2L480.5,1156.5"/>
				<path d="M476.9,1153.9l-11.6-1.9l-6.7,29.6l11.6,1.9L476.9,1153.9"/>
				<path d="M431.5,1398.5l-54.6-9.2l-5.7,25l54.6,9.2L431.5,1398.5"/>
				<path d="M427.9,1395.9l-11.6-1.9l-6.7,29.6l11.6,1.9L427.9,1395.9"/>
			</g>
			<g id="Accent_Basic-Shnees-Shin_Right_M_Toggle">
				<path d="M343.9,887.3l40.3-2.7l40.4,11.3L302,1552.8l-48.9-6.1L343.9,887.3"/>
				<path d="M384.3,884.6l-108.4,664.9"/>
			</g>
		</g>
		<g id="Full_Shin_Right_M_Option">
			<path id="Shin_Full-Shin_Right_M" d="M446.7,1084.6c-116.3-31.8-193.9-11.8-193.9-11.8l-46.1,451.5
				c0,0,45.7,12.5,95.5,14c36.5,1.1,95-10.3,95-10.3l83.7-383.8C480.8,1144.2,442.4,1135.5,446.7,1084.6"/>
			<g id="Accent_Full-Shin_Right_M_Toggle">
				<path d="M471.3,1186.2l-64.4-8l-4.3,16.9l64.9,8.1L471.3,1186.2"/>
				<path d="M466,1209.7l-44-5.6l-4.3,16.9l44.5,5.7L466,1209.7"/>
			</g>
			<g id="Ridge_Full-Shin_Right_M_Toggle">
				<path d="M293.2,1063.2l41.6-3.1l42.7,5.9l-86.8,471.8c-20.7-0.2-36-3-59.6-7.9L293.2,1063.2"/>
				<path d="M334.8,1060.1l-77.1,474.8"/>
			</g>
		</g>
		<g id="Legacy_Shin_Right_M_Option">
			<path id="Plate-3_Legacy-Shin_Right_M" d="M406.5,1317.1l-43.6,164c0,0-52.2,10.3-80.3,7
				c-28.1-3.3-65.7-18.4-65.7-18.4l16.4-176.4l75.2,46.7L406.5,1317.1"/>
			<path id="Plate-2_Legacy-Shin_Right_M" d="M439,1215.9l-25.4,99.5l-105.2,24.5l-81.7-50.7l8.1-100.4l91.8,47.2
				L439,1215.9"/>
			<path id="Plate-1_Legacy-Shin_Right_M" d="M400.8,1075.9l63.4,69.6l-18,69.1L326.6,1236l-98.1-50.5l6.5-85l77.2-37.3
				L400.8,1075.9"/>
			<path id="Trauma-Plate-3_Legacy-Shin_Right_M_ToggleOff" d="M248.5,1323.9l50.4,31.3c4,2.5,8.9,3.3,13.6,2.2l68.9-16
				l-33,124c-15.9,2.7-45.3,6.9-63.7,4.7c-16.3-1.9-36.1-8.2-48.7-12.6L248.5,1323.9"/>
			<path id="Trauma-Plate-2_Legacy-Shin_Right_M_ToggleOff" d="M250.6,1217.1l67.8,34.9c3.5,1.8,7.5,2.4,11.4,1.7
				l84.9-15.1l-15.8,61.8l-87.3,20.3l-66-41L250.6,1217.1"/>
			<path id="Trauma-Plate-1_Legacy-Shin_Right_M_ToggleOff" d="M391.9,1092.8l52.5,57.6l-12.6,48.4l-102.3,18.3
				l-82.1-42.3l4.8-62.8l63-30.4L391.9,1092.8"/>
			<g id="Ridge_Legacy-Shin_Right_M_ToggleOff">
				<path d="M307,1488.9l-6.3,0.3c3.4,0,6.7-0.1,9.9-0.5L307,1488.9"/>
				<path d="M294,1219.8L281.9,1324l26.5,16.5l38-8.8l21.8-102.5l-41.6,7.4L294,1219.8"/>
				<path d="M281.9,1324l-18.7,160.4c12,2.5,25.1,4.7,37.6,4.8l6.3-0.3l3.6-0.3l2.4-0.2l33.4-156.8l-38,8.8L281.9,1324"
					/>
				<path d="M400.7,1076.5l0.1-0.6l-42.6-17.1l-46,4.3l-0.1,0.6l0.1,0l0.2,0l-0.2,0l-0.1,0l-18.2,156l32.6,16.8
					l41.6-7.4L400.7,1076.5"/>
				<path d="M358.3,1058.9l-31.6,177.7"/>
				<path d="M326.6,1236.6l-18.2,103.9"/>
				<path d="M308.4,1340.5L284.3,1488"/>
			</g>
		</g>
		<g id="Basic-Round_Shin_Right_M_Option">
			<path id="Shin_Basic-Round-Shin_Right_M" d="M236.8,1142.5c1.6-22.1,25.1-87.6,111.3-73.3
				c103.5,17.1,89.6,103.3,88.2,110.9c-10.6,54.6-58.8,301.8-58.8,301.8c-46.6,21.3-115.1,13.8-153.1-18.6
				C224.5,1463.3,232.1,1206.3,236.8,1142.5"/>
			<path id="Trauma-Plating_Basic-Round-Shin_Right_M_ToggleOff" d="M244.8,1453.6c1.5-48.3,7.8-253.6,12-309.6
				c0.7-10,7.6-31.6,26.9-45.1c13.7-9.6,33.5-14.5,61.2-9.9c33.7,5.6,52.6,19.2,62.5,35.1c14.3,22.9,10,48.7,9.3,52.2L360,1467.3
				C323.6,1479.9,275.8,1474.8,244.8,1453.6"/>
			<g id="Ridge_Basic-Round-Shin_Right_M_ToggleOff">
				<path d="M302.3,1067.3l37.7-5.1l37.5,14.4L318,1493.9c-25.8,1.9-26.3,2.8-47.7-6.4L302.3,1067.3"/>
				<path d="M340,1062.2l-47.3,432.8"/>
			</g>
		</g>
		<g id="Basic_Shin_Right_M_Option">
			<path id="Shin_Basic-Shin_Right_M" d="M244.2,1126.1l53.7-58.4l106.6,14.5l38.9,92.9l-72.9,309.8
				c-47.4,19.4-115.5,9.3-152.3-24.5L244.2,1126.1"/>
			<path id="Trauma-Plating_Basic-Shin_Right_M_ToggleOff" d="M237,1452.5l24.7-318.8l43.1-46.9l87.1,11.8l32.7,78
				l-69.3,294.6C317.3,1483.1,267.8,1475.9,237,1452.5"/>
			<g id="Ridge_Basic-Shin_Right_M_ToggleOff">
				<path d="M312.7,1067.7l37.9-3.6l36.9,15.8l-75.6,414.8c-25.9,0.9-26.4,1.8-47.4-8.3L312.7,1067.7"/>
				<path d="M350.6,1064.1l-64.1,430.6"/>
			</g>
		</g>
	</g>
</g>
<g id="Foot_M">
	<g id="Left-Ankle_M">
		<g id="None_Ankle_Left_M_Option">
		</g>
		<g id="Heavy_Ankle_Left_M_Option">
			<path id="Plate_Heavy-Ankle_Left_M" d="M868.4,1545l3.8,38.4l78.7,98.7l76.7-34.6l83.6-21.6l-63.1-112.2
				c-31.8-4.4-69-0.6-111.8,12.3l-23.8,21L868.4,1545"/>
			<path id="Trim_Heavy-Ankle_Left_M" d="M936.3,1526l9,10.9l-28.1,23.9l-31.8-1.4l1.1,15.6l68.2,84.4l68.5-32.1
				l82.4-19.6l8.5,17.3l-86.5,22.4l-76.7,34.6l-78.7-98.7l-3.8-38.4l44.1,2L936.3,1526"/>
		</g>
		<g id="Legacy_Ankle_Left_M_Option">
			<path id="Plate-2_Legacy-Ankle_Left_M" d="M1075.2,1585.1l46,41.5l31.7,39.8l-50.7,16.5l-116.1-24.1l-42.4-56.2
				L1075.2,1585.1"/>
			<path id="Plate-1_Legacy-Ankle_Left_M" d="M866.4,1506.9c0,0,46.4,20.7,114.9,18.2c47.1-1.7,66.2-13.5,66.2-13.5
				l39.8,73.8l-10.3,40.8L909.1,1613l-41.3-35L866.4,1506.9"/>
			<path id="Trauma-Plate-2_Legacy-Ankle_Left_M_ToggleOff" d="M1085.1,1594l35.9,32.4l18.6,23.2l-38.6,12.5
				l-102.2-21.3l-16.8-22.2l95,7.5L1085.1,1594"/>
			<path id="Trauma-Plate-1_Legacy-Ankle_Left_M_ToggleOff" d="M883.9,1532.7l0.7,33.8l33.4,27.1l147.5,11.6l10.4-40.7
				l-18.8-34.8c-12.4,3.6-50.3,14.5-75.1,15.4C942.8,1546.5,905.9,1538.4,883.9,1532.7"/>
		</g>
		<g id="Basic_Ankle_Left_M_Option">
			<path id="Main_Basic-Ankle_Left_M" d="M1136.9,1658.4l-83.1-146.4c-49.1-2.6-95.2,5.6-137.9,25.6
				c-4.1,1.9-7.1,5.5-8.5,9.8c-0.9,2.8-1.9,6.2-3.1,9.8c-5,15.8-0.4,33.1,11.6,44.4c25.5,24,69.9,63.2,97,72.5
				C1074.7,1695.3,1136.9,1658.4,1136.9,1658.4"/>
			<path id="Trauma-Plate_Basic-Ankle_Left_M_ToggleOff" d="M1064,1530c-40.9-0.7-101.8,7.2-137.7,23.8l-3.6,11.5
				c-2.4,7.6-0.2,15.8,5.8,21.5c23.4,22.1,65.6,60.8,91.5,69.8c34.8,12,87.3-7,107.3-15.2L1064,1530"/>
		</g>
	</g>
	<g id="Left-Toe_M">
		<g id="Armored_Toe_Left_M_Option">
			<g id="Plate_Armored_Toe_Left_M">
				<path d="M994.2,1696l102.1,56.7l77.1,5.3l61.8-15.7c12.9-10.8,18.1-35,7-59.2l-87-41.4l-68.3,17.1L994.2,1696"/>
				<path d="M1079.7,1661.9c0,0,79.6,23.3,89.6,37.1c11,15.3,4.1,58.9,4.1,58.9"/>
			</g>
			<g id="Trim_Armored_Toe_Left_M">
				<path d="M1143.3,1635l-81.9,19.8l-69.1,42l14.3,7.9l73.3-42.9l81.6-19.2L1143.3,1635"/>
				<path d="M1061.3,1654.9l18.4,7.1"/>
			</g>
		</g>
		<g id="Spikes_Toe_Left_M_Option">
			<path d="M1133.5,1767.1c31.4-5.5,63.1-13.1,95.1-22.7c1.5-0.5,3.1-0.2,4.4,0.7c1.3,0.9,2,2.4,2.1,4
				c0.1,3.6,0.2,7.9,0.3,10.8c0.1,2-1.1,3.9-3,4.8c-24.8,10.7-56.3,17.9-92.8,22.4c-1.4,0.2-2.8-0.3-3.9-1.2
				c-1.1-0.9-1.7-2.3-1.8-3.7C1133.7,1776.2,1133.5,1767.1,1133.5,1767.1"/>
			<path d="M1184.7,1787.9c0,0-27.2-3.1-39.4-4.4c-2-0.2-3.8-1.2-5-2.8c-1.2-1.6-1.8-3.6-1.5-5.5
				c0.7-5.3,4.5-7.9,11.5-7.7c2.2,0,4.4,0.7,6.3,1.9C1163.8,1774.2,1184.7,1787.9,1184.7,1787.9"/>
			<path d="M1259.2,1766.1c0,0-24.4-2.1-35.4-3.1c-1.9-0.2-3.6-1.2-4.6-2.7c-1.1-1.6-1.4-3.5-0.9-5.3
				c1-3.7,4.1-5.5,9.5-5.4c1.8,0,3.5,0.5,5.1,1.4C1239.3,1754.7,1259.2,1766.1,1259.2,1766.1"/>
		</g>
		<g id="None_Toe_Left_M_Option">
		</g>
	</g>
	<g id="Right-Ankle_M">
		<g id="None_Ankle_Right_M_Option">
		</g>
		<g id="Heavy_Ankle_Right_M_Option">
			<path id="Plate_Heavy-Ankle_Right_M" d="M396.6,1545l-3.8,38.4l-78.7,98.7l-76.7-34.6l-83.6-21.6l63.1-112.2
				c31.8-4.4,69-0.6,111.8,12.3l23.8,21L396.6,1545"/>
			<path id="Trim_Heavy-Ankle_Right_M" d="M328.7,1526l-9,10.9l28.1,23.9l31.9-1.4l-1.1,15.6l-68.2,84.4l-68.5-32.1
				l-82.4-19.6l-8.5,17.3l86.5,22.4l76.7,34.6l78.7-98.7l3.8-38.4l-44.1,2L328.7,1526"/>
		</g>
		<g id="Legacy_Ankle_Right_M_Option">
			<path id="Plate-2_Legacy-Ankle_Right_M" d="M189.8,1585.1l-46,41.5l-31.7,39.8l50.7,16.5l116.1-24.1l42.4-56.2
				L189.8,1585.1"/>
			<path id="Plate-1_Legacy-Ankle_Right_M" d="M398.6,1506.9c0,0-46.4,20.7-114.9,18.2c-47.1-1.7-66.2-13.5-66.2-13.5
				l-39.8,73.8l10.3,40.8l167.8-13.2l41.3-35L398.6,1506.9"/>
			<path id="Trauma-Plate-2_Legacy-Ankle_Right_M_ToggleOff" d="M179.9,1594l-35.9,32.4l-18.6,23.2l38.6,12.5
				l102.2-21.3l16.8-22.2l-95,7.5L179.9,1594"/>
			<path id="Trauma-Plate-1_Legacy-Ankle_Right_M_ToggleOff" d="M381.1,1532.7l-0.7,33.8l-33.4,27.1l-147.5,11.6
				l-10.4-40.7l18.8-34.8c12.4,3.6,50.3,14.5,75.1,15.4C322.2,1546.5,359.1,1538.4,381.1,1532.7"/>
		</g>
		<g id="Basic_Ankle_Right_M_Option">
			<path id="Main_Basic-Ankle_Right_M" d="M128.1,1658.4l83.1-146.4c49.1-2.6,95.2,5.6,137.9,25.6
				c4.1,1.9,7.1,5.5,8.5,9.8c0.9,2.8,1.9,6.2,3.1,9.8c5,15.8,0.4,33.1-11.6,44.4c-25.5,24-69.9,63.2-97,72.5
				C190.3,1695.3,128.1,1658.4,128.1,1658.4"/>
			<path id="Trauma-Plate_Basic-Ankle_Right_M_ToggleOff" d="M201,1530c40.9-0.7,101.8,7.2,137.7,23.8l3.6,11.5
				c2.4,7.6,0.2,15.8-5.8,21.5c-23.4,22.1-65.6,60.8-91.5,69.8c-34.8,12-87.3-7-107.3-15.2L201,1530"/>
		</g>
	</g>
	<g id="Right-Toe_M">
		<g id="Armored_Toe_Right_M_Option">
			<g id="Plate_Armored_Toe_Right_M">
				<path d="M270.8,1696l-102.1,56.7l-77.1,5.3l-61.8-15.7c-12.9-10.8-18.1-35-7-59.2l87-41.4l68.3,17.1L270.8,1696"/>
				<path d="M185.3,1661.9c0,0-79.6,23.3-89.5,37.1c-11,15.3-4.1,58.9-4.1,58.9"/>
			</g>
			<g id="Trim_Armored_Toe_Right_M">
				<path d="M121.7,1635l81.9,19.8l69.1,42l-14.3,7.9l-73.3-42.9l-81.6-19.2L121.7,1635"/>
				<path d="M203.7,1654.9l-18.4,7.1"/>
			</g>
		</g>
		<g id="Spikes_Toe_Right_M_Option">
			<path d="M131.5,1767.1c-31.4-5.5-63.1-13.1-95.1-22.7c-1.5-0.5-3.1-0.2-4.4,0.7c-1.3,0.9-2,2.4-2.1,4
				c-0.1,3.6-0.2,7.9-0.3,10.8c-0.1,2,1.1,3.9,3,4.8c24.8,10.7,56.3,17.9,92.8,22.4c1.4,0.2,2.8-0.3,3.9-1.2
				c1.1-0.9,1.7-2.3,1.8-3.7C131.3,1776.2,131.5,1767.1,131.5,1767.1"/>
			<path d="M80.3,1787.9c0,0,27.2-3.1,39.4-4.4c2-0.2,3.8-1.2,5-2.8c1.2-1.6,1.8-3.6,1.5-5.5c-0.7-5.3-4.5-7.9-11.5-7.7
				c-2.2,0-4.4,0.7-6.3,1.9C101.2,1774.2,80.3,1787.9,80.3,1787.9"/>
			<path d="M5.8,1766.1c0,0,24.5-2.1,35.4-3.1c1.9-0.2,3.6-1.2,4.6-2.7c1.1-1.6,1.4-3.5,0.9-5.3c-1-3.7-4.1-5.5-9.5-5.4
				c-1.8,0-3.5,0.5-5.1,1.4C25.7,1754.7,5.8,1766.1,5.8,1766.1"/>
		</g>
		<g id="None_Toe_Right_M_Option">
		</g>
	</g>
</g>
<g id="Knees_M">
	<g id="Left-Knee_M">
		<g id="None-(Nih-Plates)_Knee_Left_M_Option">
		</g>
		<g id="Long_Knee_Left_M_Option">
			<g id="Missiles_Long-Knee_Left_M_ToggleOff">
				<path id="Base_Missiles_Long-Knee_Left_M" d="M971.3,967l8.6,103.4l23.8-15.7c3.9-2.5,6.1-7,5.8-11.6
					c-0.9-14.1-2.8-44.5-3.8-60.6c-0.4-6.1-4.9-11-10.9-12L971.3,967z"/>
				<g id="Missile-2_Missiles_Long-Knee_Left_M">
					<path d="M990.8,1025.4c-6,1-10,6.6-9,12.6c1,6,6.7,10.1,12.7,9.1c6-1,10.1-6.6,9-12.6
						C1002.5,1028.5,996.8,1024.4,990.8,1025.4z"/>
					<path d="M991.5,1029c-4,0.7-6.8,4.5-6.1,8.5c0.7,4,4.5,6.8,8.5,6.1c4-0.6,6.8-4.4,6.1-8.5
						C999.4,1031.1,995.6,1028.3,991.5,1029z"/>
				</g>
				<g id="Missile-1_Missiles_Long-Knee_Left_M">
					<path d="M987.5,977.7c-6,1-10.1,6.6-9,12.6s6.7,10.1,12.7,9.1c6-1,10.1-6.6,9-12.6
						C999.2,980.8,993.5,976.7,987.5,977.7z"/>
					<path d="M988.2,981.2c-4,0.6-6.8,4.5-6.1,8.5c0.7,4,4.5,6.8,8.6,6.1c4-0.6,6.8-4.5,6.1-8.5
						C996.1,983.3,992.3,980.6,988.2,981.2z"/>
				</g>
			</g>
			<g id="Straps_Long-Knee_Left_M">
				<path d="M769.2,959l12.6-1.9l4.2,27.7l-12.6,1.9L769.2,959z"/>
				<path d="M763.1,963.4l6.6-1l3.2,20.9l-6.6,1L763.1,963.4z"/>
				<path d="M978.8,955.2l-12.6,1.9l-4.2-27.7l12.6-1.9L978.8,955.2z"/>
				<path d="M985,950.8l-6.6,1l-3.2-20.9l6.6-1L985,950.8z"/>
			</g>
			<g id="Knee_Long-Knee_Left_M">
				<path d="M928.4,847.4l-141.2,23.5l-9.2,97.5l75.7,301.8l141.2-23.5l-26.1-310L928.4,847.4z"/>
				<path d="M928.4,847.4l2.1,90.7l64.3,308.5"/>
				<path d="M787.2,870.9l28.3,86.4l38.1,312.9"/>
				<path d="M930.5,938.2l-115,19.1"/>
			</g>
		</g>
		<g id="Heavy_Knee_Left_M_Option">
			<g id="Missiles_Heavy-Knee_Left_M_ToggleOff">
				<path id="Base_Missiles_Heavy-Knee_Left_M" d="M989.9,917.2l18.8,102l22.1-18c3.6-2.9,5.3-7.5,4.6-12.1
					c-2.3-13.9-7.2-44-9.8-59.9c-1-6-6-10.5-12.1-10.8L989.9,917.2z"/>
				<g id="Missile-2_Missiles_Heavy-Knee_Left_M">
					<path d="M1015.1,973.4c-5.9,1.6-9.3,7.6-7.7,13.4c1.6,5.9,7.7,9.4,13.5,7.8c5.9-1.6,9.3-7.6,7.7-13.4
						C1027.1,975.3,1021,971.8,1015.1,973.4z"/>
					<path d="M1016.2,976.9c-3.9,1-6.3,5.1-5.2,9c1.1,3.9,5.2,6.3,9.1,5.2c4-1,6.3-5.1,5.2-9
						C1024.2,978.2,1020.1,975.8,1016.2,976.9z"/>
				</g>
				<g id="Missile-1_Missiles_Heavy-Knee_Left_M">
					<path d="M1007.1,926.2c-5.9,1.6-9.4,7.6-7.7,13.5c1.6,5.9,7.7,9.4,13.6,7.8c5.9-1.6,9.3-7.6,7.7-13.5
						C1019,928.2,1013,924.7,1007.1,926.2z"/>
					<path d="M1008.1,929.7c-4,1-6.3,5.1-5.2,9.1c1.1,3.9,5.2,6.3,9.1,5.3c4-1,6.3-5.1,5.2-9.1
						C1016.2,931,1012.1,928.7,1008.1,929.7z"/>
				</g>
			</g>
			<path id="Plate-2_Heavy-Knee_Left_M" d="M970.3,870.9l-30.3-18.3l-151.1,26L767,905.9l29.6,151.5l59.5,1.4l84.9-14.6
				l59-21.4L970.3,870.9z"/>
			<g id="Plate-1_Heavy-Knee_Left_M">
				<path d="M963,879.3l-27.9-17.7l-138.3,23.8l-19.9,26l28.6,146.2l50.6,1.3l84.9-14.6l50.6-18.7L963,879.3z"/>
				<path d="M914.5,899.8l-84.9,14.6l26.4,144.4l44-1.7l40.9-12.9L914.5,899.8z"/>
				<path d="M829.7,914.4l-32.9-29l-19.9,26L829.7,914.4z"/>
				<path d="M914.5,899.8l20.6-38.2l27.9,17.7L914.5,899.8z"/>
			</g>
			<g id="Trim_Heavy-Knee_Left_M">
				<path d="M767.4,957.9l-4.7,11.5l16.7,91.5l6.6-1.1L767.4,957.9z"/>
				<path d="M923.6,1001l-66.6,11.5l6.5,35.7l66.6-11.5L923.6,1001z"/>
				<path d="M773.9,941.4l-9.3,1.6l21.4,116.7l10.9-1.9l-0.1-0.5h-0.2L773.9,941.4z"/>
				<path d="M979.4,917.2l20.6,105.6l-1.9,0.7l10.9-1.9l-19.4-106.2L979.4,917.2z"/>
			</g>
		</g>
		<g id="Galaxy_Knee_Left_M_Option">
			<g id="Missiles_Galaxy-Knee_Left_M_ToggleOff">
				<path id="Base_Missiles_Galaxy-Knee_Left_M" d="M986.7,920.5l-33.1,98.3l28.1-4.9c4.6-0.8,8.3-4,9.9-8.3
					c4.8-13.3,15.1-42,20.6-57.1c2.1-5.7-0.1-12.1-5.3-15.3L986.7,920.5z"/>
				<g id="Missile-2_Missiles_Galaxy-Knee_Left_M">
					<path d="M981.4,981.9c-5.9-1.5-11.8,2.1-13.3,8c-1.4,5.9,2.2,11.9,8.1,13.4c5.9,1.5,11.8-2.1,13.3-8
						C990.9,989.4,987.3,983.4,981.4,981.9z"/>
					<path d="M980.6,985.4c-4-1-8,1.4-8.9,5.4c-1,4,1.5,8,5.4,9c4,1,8-1.4,8.9-5.4C987,990.5,984.6,986.4,980.6,985.4z"
						/>
				</g>
				<g id="Missile-1_Missiles_Galaxy-Knee_Left_M">
					<path d="M997.3,936.8c-5.9-1.5-11.9,2.1-13.3,8c-1.4,5.9,2.2,11.9,8.1,13.4c5.9,1.5,11.9-2.1,13.3-8
						C1006.8,944.3,1003.2,938.3,997.3,936.8z"/>
					<path d="M996.5,940.3c-4-1-8,1.4-9,5.4c-1,4,1.5,8,5.4,9c4,1,8-1.4,9-5.4C1002.9,945.3,1000.5,941.3,996.5,940.3z"
						/>
				</g>
			</g>
			<g id="Strap_Galaxy-Knee_Left_M">
				<path d="M771.5,932.1l29.7-4.5l4.2,27.7l-29.7,4.5L771.5,932.1z"/>
				<path d="M756.3,937.9l15.7-2.4l3.2,20.9l-15.7,2.4L756.3,937.9z"/>
			</g>
			<path id="Knee_Galaxy-Knee_Left_M" d="M946.6,1039.5l42.4-126.4l-44.9-51.8l-131.2,20l-27.4,62.8l78.1,108
				L946.6,1039.5z"/>
			<g id="Trim_Galaxy-Knee_Left_M">
				<path d="M853.5,875.2l50-7.6l5,33.1l-50,7.6L853.5,875.2z"/>
				<path d="M785.5,944.1c47.1,2.8,94.6,105.5,94.6,105.5l-16.5,2.5L785.5,944.1z"/>
				<path d="M988.9,913.1c-44.1,16.7-58.9,128.9-58.9,128.9l16.5-2.5L988.9,913.1z"/>
			</g>
		</g>
		<g id="Legacy_Knee_Left_M_Option">
			<g id="Missiles_Legacy-Knee_Left_M_ToggleOff">
				<path id="Base_Missiles_Legacy-Knee_Left_M" d="M990,886.2l1.9,103.7l24.8-14.1c4-2.3,6.5-6.6,6.5-11.2
					c0-14.1,0.1-44.6,0.2-60.7c0-6.1-4.2-11.3-10.1-12.6L990,886.2z"/>
				<g id="Missile-2_Missiles_Legacy-Knee_Left_M">
					<path d="M1005.7,945.8c-6,0.6-10.5,6-9.8,12c0.6,6,6,10.5,12.1,9.9c6.1-0.6,10.5-6,9.8-12
						C1017.2,949.6,1011.8,945.2,1005.7,945.8z"/>
					<path d="M1006.2,949.4c-4.1,0.4-7,4-6.6,8.1c0.4,4.1,4.1,7.1,8.1,6.7c4.1-0.4,7-4,6.6-8.1
						C1013.9,952,1010.3,949,1006.2,949.4z"/>
				</g>
				<g id="Missile-1_Missiles_Legacy-Knee_Left_M">
					<path d="M1005.5,897.9c-6.1,0.6-10.5,6-9.8,12c0.6,6.1,6,10.5,12.1,9.9c6.1-0.6,10.5-6,9.8-12
						C1017,901.8,1011.6,897.4,1005.5,897.9z"/>
					<path d="M1006,901.5c-4.1,0.4-7,4-6.6,8.1c0.4,4.1,4.1,7.1,8.1,6.7c4.1-0.4,7-4,6.6-8.1
						C1013.7,904.1,1010,901.2,1006,901.5z"/>
				</g>
			</g>
			<path id="Plate-2_Legacy-Knee_Left_M" d="M975.4,946.6l-42.5-29.7l-95,14.8l-37,42.1l30.5,102.7h75.2l71-22.7
				L975.4,946.6z"/>
			<path id="Plate-1_Legacy-Knee_Left_M" d="M989.8,877.2l-54.5-38.1L813.5,858L766,911.9l39.1,131.7l99.3-0.9
				l88.2-28.2L989.8,877.2z"/>
		</g>
		<g id="Basic_Knee_Left_M_Option">
			<g id="Missiles_Basic-Knee_Left_M_ToggleOff">
				<path id="Base_Missiles_Basic-Knee_Left_M" d="M981.2,881.1c0.1,0.4,0.2,0.9,0.2,1.3c2.1,20.7,5.7,64.5,4.2,102.3
					l24.4-14.7c4-2.4,6.4-6.7,6.3-11.3c-0.3-14.1-1-44.6-1.3-60.7c-0.1-6.1-4.5-11.2-10.4-12.4L981.2,881.1z"/>
				<g id="Missile-2_Missiles_Basic-Knee_Left_M">
					<path d="M998.4,940.3c-6,0.7-10.3,6.2-9.5,12.2c0.8,6,6.3,10.3,12.3,9.6c6-0.7,10.3-6.2,9.5-12.2
						C1010,943.9,1004.5,939.6,998.4,940.3z"/>
					<path d="M999,943.9c-4.1,0.5-6.9,4.2-6.4,8.2c0.5,4.1,4.2,7,8.3,6.5c4.1-0.5,6.9-4.2,6.4-8.2
						C1006.8,946.3,1003,943.4,999,943.9z"/>
				</g>
				<g id="Missile-1_Missiles_Basic-Knee_Left_M">
					<path d="M997,892.5c-6,0.7-10.3,6.2-9.5,12.2c0.8,6,6.3,10.3,12.3,9.6c6-0.7,10.3-6.2,9.5-12.2
						C1008.6,896.1,1003.1,891.8,997,892.5z"/>
					<path d="M997.6,896.1c-4.1,0.5-6.9,4.2-6.4,8.2c0.5,4.1,4.2,7,8.3,6.5c4.1-0.5,6.9-4.2,6.4-8.2
						C1005.4,898.5,1001.6,895.6,997.6,896.1z"/>
				</g>
			</g>
			<g id="Knee_Basic-Knee_Left_M">
				<path d="M754.2,903.7l15.2-2.5c0,0,11.5,73.9,16.6,106.6c1.3,8.4-4.4,16.3-12.8,17.7l0,0L754.2,903.7z"/>
				<path d="M768.9,898.2l8.7,54.8c11.1-6.3,39.2,5.3,48.4,38.2c16.8,60.4,31.5,74.3,84.2,68.8
					c41-4.2,70.3-23.5,73.7-51.9c4.9-41.1,0-100.6-2.5-125.7c-0.3-3.1-1.9-6-4.4-7.9c-2.5-1.9-5.6-2.8-8.7-2.4
					C923.9,877.9,768.9,898.2,768.9,898.2z"/>
				<path d="M763.7,899l5.2-0.8l9.7,59.3l-5.2,0.8L763.7,899z"/>
			</g>
		</g>
	</g>
	<g id="Right-Knee_M">
		<g id="None-(Nih-Plates)_Knee_Right_M_Option">
		</g>
		<g id="Long_Knee_Right_M_Option">
			<g id="Missiles_Long-Knee_Right_M_ToggleOff">
				<path id="Base_Missiles_Long-Knee_Right_M" d="M293.9,967l-8.6,103.4l-23.8-15.7c-3.9-2.5-6.1-7-5.8-11.6
					c0.9-14.1,2.8-44.5,3.8-60.6c0.4-6.1,4.9-11,10.9-12L293.9,967z"/>
				<g id="Missile-2_Missiles_Long-Knee_Right_M">
					<path d="M274.4,1025.4c6,1,10,6.6,9,12.6c-1,6-6.7,10.1-12.7,9.1c-6-1-10-6.6-9-12.6
						C262.7,1028.5,268.4,1024.4,274.4,1025.4z"/>
					<path d="M273.7,1029c4,0.7,6.8,4.5,6.1,8.5c-0.7,4-4.5,6.8-8.6,6.1c-4-0.6-6.8-4.4-6.1-8.5
						C265.8,1031.1,269.6,1028.3,273.7,1029z"/>
				</g>
				<g id="Missile-1_Missiles_Long-Knee_Right_M">
					<path d="M277.7,977.7c6,1,10.1,6.6,9,12.6s-6.7,10.1-12.7,9.1c-6-1-10.1-6.6-9-12.6S271.7,976.7,277.7,977.7z"/>
					<path d="M277,981.2c4,0.6,6.8,4.5,6.1,8.5c-0.7,4-4.5,6.8-8.6,6.1c-4-0.6-6.8-4.5-6.1-8.5
						C269.1,983.3,273,980.6,277,981.2z"/>
				</g>
			</g>
			<g id="Straps_Long-Knee_Right_M">
				<path d="M496,959l-12.6-1.9l-4.2,27.7l12.6,1.9L496,959z"/>
				<path d="M502.1,963.4l-6.6-1l-3.2,20.9l6.6,1L502.1,963.4z"/>
				<path d="M286.4,955.2l12.6,1.9l4.2-27.7l-12.6-1.9L286.4,955.2z"/>
				<path d="M280.2,950.8l6.6,1l3.2-20.9l-6.6-1L280.2,950.8z"/>
			</g>
			<g id="Knee_Long-Knee_Right_M">
				<path d="M336.8,847.4L478,870.9l9.2,97.5l-75.7,301.8l-141.2-23.5l26.1-310L336.8,847.4z"/>
				<path d="M336.8,847.4l-2.1,90.7l-64.3,308.5"/>
				<path d="M478,870.9l-28.3,86.4l-38.1,312.9"/>
				<path d="M334.7,938.2l115,19.1"/>
			</g>
		</g>
		<g id="Heavy_Knee_Right_M_Option">
			<g id="Missiles_Heavy-Knee_Right_M_ToggleOff">
				<path id="Base_Missiles_Heavy-Knee_Right_M" d="M275.4,917.2l-18.8,102l-22.1-18c-3.6-2.9-5.4-7.5-4.6-12.1
					c2.3-13.9,7.2-44,9.8-59.9c1-6,6-10.5,12.1-10.8L275.4,917.2z"/>
				<g id="Missile-2_Missiles_Heavy-Knee_Right_M">
					<path d="M250.1,973.4c5.9,1.6,9.3,7.6,7.7,13.4c-1.6,5.9-7.7,9.4-13.6,7.8c-5.9-1.6-9.3-7.6-7.7-13.4
						C238.1,975.3,244.2,971.8,250.1,973.4z"/>
					<path d="M249,976.9c4,1,6.3,5.1,5.2,9c-1.1,3.9-5.2,6.3-9.1,5.2c-4-1-6.3-5.1-5.2-9
						C241,978.2,245.1,975.8,249,976.9z"/>
				</g>
				<g id="Missile-1_Missiles_Heavy-Knee_Right_M">
					<path d="M258.1,926.2c5.9,1.6,9.3,7.6,7.7,13.5c-1.6,5.9-7.7,9.4-13.6,7.8c-5.9-1.6-9.3-7.6-7.7-13.5
						C246.2,928.2,252.3,924.7,258.1,926.2z"/>
					<path d="M257.1,929.7c4,1,6.3,5.1,5.2,9.1c-1.1,3.9-5.2,6.3-9.1,5.3c-4-1-6.3-5.1-5.2-9.1
						C249,931,253.1,928.7,257.1,929.7z"/>
				</g>
			</g>
			<path id="Plate-2_Heavy-Knee_Right_M" d="M294.9,870.9l30.3-18.3l151.1,26l21.9,27.3l-29.6,151.5l-59.5,1.4
				l-84.9-14.6l-59-21.4L294.9,870.9z"/>
			<g id="Plate-1_Heavy-Knee_Right_M">
				<path d="M302.2,879.3l27.9-17.7l138.4,23.8l19.9,26l-28.6,146.2l-50.6,1.3l-84.9-14.6l-50.6-18.7L302.2,879.3z"/>
				<path d="M350.7,899.8l84.9,14.6l-26.4,144.4l-44-1.7l-40.9-12.9L350.7,899.8z"/>
				<path d="M435.5,914.4l32.9-29l19.9,26L435.5,914.4z"/>
				<path d="M350.7,899.8l-20.6-38.2l-27.9,17.7L350.7,899.8z"/>
			</g>
			<g id="Trim_Heavy-Knee_Right_M">
				<path d="M497.8,957.9l4.7,11.5l-16.7,91.5l-6.6-1.1L497.8,957.9z"/>
				<path d="M341.6,1001l66.6,11.5l-6.5,35.7l-66.6-11.5L341.6,1001z"/>
				<path d="M491.3,941.4l9.3,1.6l-21.4,116.7l-10.9-1.9l0.1-0.5h0.2L491.3,941.4z"/>
				<path d="M285.8,917.2l-20.6,105.6l1.9,0.7l-10.9-1.9l19.4-106.2L285.8,917.2z"/>
			</g>
		</g>
		<g id="Galaxy_Knee_Right_M_Option">
			<g id="Missiles_Galaxy-Knee_Right_M_ToggleOff">
				<path id="Base_Missiles_Galaxy-Knee_Right_M" d="M278.6,920.5l33.1,98.3l-28.1-4.9c-4.6-0.8-8.3-4-9.9-8.3
					c-4.8-13.3-15.1-42-20.6-57.1c-2.1-5.7,0.1-12.1,5.3-15.3L278.6,920.5z"/>
				<g id="Missile-2_Missiles_Galaxy-Knee_Right_M">
					<path d="M283.8,981.9c5.9-1.5,11.8,2.1,13.3,8c1.4,5.9-2.2,11.9-8.1,13.4c-5.9,1.5-11.8-2.1-13.3-8
						C274.3,989.4,277.9,983.4,283.8,981.9z"/>
					<path d="M284.6,985.4c4-1,8,1.4,8.9,5.4c1,4-1.5,8-5.4,9c-4,1-8-1.4-8.9-5.4C278.2,990.5,280.6,986.4,284.6,985.4z
						"/>
				</g>
				<g id="Missile-1_Missiles_Galaxy-Knee_Right_M">
					<path d="M267.9,936.8c5.9-1.5,11.9,2.1,13.3,8c1.4,5.9-2.2,11.9-8.1,13.4c-5.9,1.5-11.9-2.1-13.3-8
						C258.4,944.3,262,938.3,267.9,936.8z"/>
					<path d="M268.7,940.3c4-1,8,1.4,9,5.4s-1.5,8-5.4,9c-4,1-8-1.4-9-5.4C262.3,945.3,264.7,941.3,268.7,940.3z"/>
				</g>
			</g>
			<g id="Strap_Galaxy-Knee_Right_M">
				<path d="M493.7,932.1l-29.7-4.5l-4.2,27.7l29.7,4.5L493.7,932.1z"/>
				<path d="M508.9,937.9l-15.7-2.4l-3.2,20.9l15.7,2.4L508.9,937.9z"/>
			</g>
			<path id="Knee_Galaxy-Knee_Right_M" d="M318.6,1039.5l-42.4-126.4l44.9-51.8l131.2,20l27.4,62.8l-78.1,108
				L318.6,1039.5z"/>
			<g id="Trim_Galaxy-Knee_Right_M">
				<path d="M411.7,875.2l-50-7.6l-5,33.1l50,7.6L411.7,875.2z"/>
				<path d="M479.7,944.1c-47.1,2.8-94.6,105.5-94.6,105.5l16.5,2.5L479.7,944.1z"/>
				<path d="M276.3,913.1c44.1,16.7,58.9,128.9,58.9,128.9l-16.5-2.5L276.3,913.1z"/>
			</g>
		</g>
		<g id="Legacy_Knee_Right_M_Option">
			<g id="Missiles_Legacy-Knee_Right_M_ToggleOff">
				<path id="Base_Missiles_Legacy-Knee_Right_M" d="M275.2,886.2l-1.9,103.7l-24.8-14.1c-4-2.3-6.5-6.6-6.5-11.2
					c0-14.1-0.1-44.6-0.2-60.7c0-6.1,4.2-11.3,10.1-12.6L275.2,886.2z"/>
				<g id="Missile-2_Missiles_Legacy-Knee_Right_M">
					<path d="M259.5,945.8c6,0.6,10.5,6,9.8,12c-0.6,6-6,10.5-12.1,9.9c-6-0.6-10.5-6-9.8-12
						C248,949.6,253.4,945.2,259.5,945.8z"/>
					<path d="M259,949.4c4.1,0.4,7,4,6.6,8.1c-0.4,4.1-4.1,7.1-8.1,6.7c-4.1-0.4-7-4-6.6-8.1
						C251.3,952,255,949,259,949.4z"/>
				</g>
				<g id="Missile-1_Missiles_Legacy-Knee_Right_M">
					<path d="M259.7,897.9c6.1,0.6,10.5,6,9.8,12c-0.6,6.1-6,10.5-12.1,9.9c-6.1-0.6-10.5-6-9.8-12
						C248.2,901.8,253.7,897.4,259.7,897.9z"/>
					<path d="M259.2,901.5c4.1,0.4,7,4,6.6,8.1c-0.4,4.1-4.1,7.1-8.1,6.7c-4.1-0.4-7-4-6.6-8.1
						C251.5,904.1,255.2,901.2,259.2,901.5z"/>
				</g>
			</g>
			<path id="Plate-2_Legacy-Knee_Right_M" d="M289.8,946.6l42.5-29.7l95,14.8l37,42.1l-30.5,102.7h-75.2l-71-22.7
				L289.8,946.6z"/>
			<path id="Plate-1_Legacy-Knee_Right_M" d="M275.4,877.2l54.5-38.1L451.7,858l47.5,53.9l-39.1,131.7l-99.3-0.9
				l-88.2-28.2L275.4,877.2z"/>
		</g>
		<g id="Basic_Knee_Right_M_Option">
			<g id="Missiles_Basic-Knee_Right_M_ToggleOff">
				<path id="Base_Missiles_Basic-Knee_Right_M" d="M284,881.1c-0.1,0.4-0.2,0.9-0.2,1.3c-2.1,20.7-5.7,64.5-4.2,102.3
					l-24.4-14.7c-4-2.4-6.3-6.7-6.2-11.3c0.3-14.1,1-44.6,1.3-60.7c0.1-6.1,4.5-11.2,10.4-12.4L284,881.1z"/>
				<g id="Missile-2_Missiles_Basic-Knee_Right_M">
					<path d="M266.8,940.3c6,0.7,10.3,6.2,9.5,12.2c-0.8,6-6.3,10.3-12.3,9.6s-10.3-6.2-9.5-12.2
						C255.2,943.9,260.7,939.6,266.8,940.3z"/>
					<path d="M266.2,943.9c4.1,0.5,6.9,4.2,6.4,8.2c-0.5,4.1-4.2,7-8.3,6.5c-4.1-0.5-6.9-4.2-6.4-8.2
						C258.5,946.3,262.2,943.4,266.2,943.9z"/>
				</g>
				<g id="Missile-1_Missiles_Basic-Knee_Right_M">
					<path d="M268.2,892.5c6,0.7,10.3,6.2,9.5,12.2c-0.8,6-6.3,10.3-12.3,9.6c-6-0.7-10.3-6.2-9.5-12.2
						C256.6,896.1,262.1,891.8,268.2,892.5z"/>
					<path d="M267.6,896.1c4.1,0.5,6.9,4.2,6.4,8.2c-0.5,4.1-4.2,7-8.3,6.5c-4.1-0.5-6.9-4.2-6.4-8.2
						C259.9,898.5,263.6,895.6,267.6,896.1z"/>
				</g>
			</g>
			<g id="Knee_Basic-Knee_Right_M">
				<path d="M511,903.7l-15.2-2.5c0,0-11.5,73.9-16.6,106.6c-1.3,8.4,4.4,16.3,12.8,17.7l0,0L511,903.7z"/>
				<path d="M496.3,898.2l-8.7,54.8c-11.1-6.3-39.2,5.3-48.4,38.2c-16.8,60.4-31.5,74.3-84.2,68.8
					c-41-4.2-70.3-23.5-73.7-51.9c-4.9-41.1,0-100.6,2.5-125.7c0.3-3.1,1.9-6,4.4-7.9c2.5-1.9,5.6-2.8,8.7-2.4
					C341.3,877.9,496.3,898.2,496.3,898.2z"/>
				<path d="M501.5,899l-5.2-0.8l-9.7,59.3l5.2,0.8L501.5,899z"/>
			</g>
		</g>
	</g>
</g>
<g id="Thighs_M">
	<g id="Left-Thigh_M">
		<g id="None_Thigh_Left_M_Option">
		</g>
		<g id="Pocket_Thigh_Left_M_Option">
			<path d="M990.2,537.4c5.8,68.8,14,134.1,24.3,196c2.1,12.4-1.1,25-8.8,34.9c-7.7,9.9-19.3,16-31.8,17
				c-56.7,4.6-114.2,13.3-172.1,24.4c-9.7,1.9-19.8-0.3-27.9-6c-8.1-5.7-13.5-14.5-15-24.3c-9.8-65.1-29.4-196.2-37.1-247.1
				c-1.7-11.5,6.2-22.3,17.7-24.1c25.6-4,65.8-10.4,65.8-10.4L990.2,537.4"/>
			<path d="M963.5,472.2c8-1.3,15.9,3.2,18.9,10.8c9.8,26.1,18.2,67.8,11.7,89.2c-8.5,27.7-94.7,187.2-116.1,226.6
				c-3,5.5-8.4,9.2-14.6,9.9c-12.3,1.4-33.5,3.9-47.5,5.6c-7.8,0.9-14.9-4.5-16-12.3c-7.1-47.4-30.3-202.6-39.2-262.4
				c-2.2-14.5-12.5-26.4-26.6-30.4c0,0,0,0,0,0S912.9,480.3,963.5,472.2"/>
			<path id="Stitch_Left" d="M960.9,472.6c18.3-2.5,31.4,72.5,25.5,91.9c-7.7,25-93.7,190.2-113,225.8
				c-2.7,5-7.6,8.3-13.2,9l-37.1,5.4c-7,0.8-13.5-4.1-14.5-11.1c-6.4-42.8-31.4-209.2-39.8-263.1c-3-19.1-23.2-23.1-23.2-23.1"/>
			<path d="M738.7,508.3l223.1-35.8"/>
		</g>
		<g id="Heavy_Thigh_Left_M_Option">
			<g id="Thigh_Heavy-Thigh_Left_M">
				<path d="M766.9,469.6l-61.2,78.1l70,279.8l47.6,16.9l-33.1-318.9L766.9,469.6"/>
				<path d="M923.3,453.4l76,63.8l-11,288.2l-43.1,26.4l-33.1-318.9L923.3,453.4"/>
				<path d="M923.3,453.4l-156.4,16.3l23.2,55.8l122-12.7L923.3,453.4"/>
				<path d="M912.1,512.8l-122,12.7l33.1,318.9l122-12.7L912.1,512.8"/>
			</g>
			<g id="Trim_Heavy-Thigh_Left_M">
				<path d="M929.5,428.9l-173.6,18l11,22.7l156.4-16.3L929.5,428.9"/>
				<path d="M996.3,489.8l-66.8-61l-6.1,24.5l76,63.8L996.3,489.8"/>
				<path d="M703,520.3l52.9-73.4l11,22.7l-61.2,78.1L703,520.3"/>
			</g>
		</g>
		<g id="Legacy_Thigh_Left_M_Option">
			<path id="Plate-3_Legacy-Thigh_Left_M" d="M768.7,708.2l19.4,113l109.4,17l88.4-38.6l4.3-115.4l-100.6,47.3
				L768.7,708.2"/>
			<path id="Plate-2_Legacy-Thigh_Left_M" d="M744.4,599.4L763,707.2l126.5,24.3l106.4-50l5.2-131.3L880.9,627
				L744.4,599.4"/>
			<path id="Plate-1_Legacy-Thigh_Left_M" d="M1012.6,443L919,361.2l-125,20.5l-71.8,118.7l18,98.1L880.9,627
				l125.8-80.3L1012.6,443"/>
			<path id="Trauma-Plate-3_Legacy-Thigh_Left_M_ToggleOff" d="M968.8,719.4L897,753.1c-3.4,1.6-7.1,2.1-10.7,1.4
				L794,736.7l10.9,63.5l90.3,14l71.3-31.2L968.8,719.4"/>
			<path id="Trauma-Plate-2_Legacy-Thigh_Left_M_ToggleOff" d="M979.5,590.6l-89,56.8c-4,2.5-8.6,3.4-13,2.5
				l-107.8-21.8l10.1,58.6l107.4,20.6l89.3-42L979.5,590.6"/>
			<path id="Trauma-Plate-1_Legacy-Thigh_Left_M_ToggleOff" d="M805.3,403.4l-61.7,102.1l13.3,72.7l120.5,24.3l110-70.2
				l4.4-78.2l-78.3-68.5L805.3,403.4"/>
			<g id="Ridge_Legacy-Thigh_Left_M_ToggleOff">
				<path d="M910.5,608.1l4.9,111.3l-25.9,12.2l-33.3-6.4l-15-106.1l39.6,8L910.5,608.1"/>
				<path d="M915.4,719.3l6.8,108.1l-24.8,10.8l-28.5-4.4l-12.7-108.7l33.3,6.4L915.4,719.3"/>
				<path d="M841.3,619l-30.8-240l42.9-21.9l45.4,7.4l11.8,243.6L880.9,627L841.3,619"/>
				<path d="M853.3,357.1L880.9,627"/>
				<path d="M880.9,627l8.6,104.5"/>
				<path d="M889.6,731.5l7.9,106.8"/>
			</g>
		</g>
		<g id="Basic_Thigh_Left_M_Option">
			<path id="Thigh_Basic-Thigh_Left_M" d="M1006.3,442.8c0,0-53.3-68.5-80.5-79.9c-25.8-10.8-60.3-6.1-82.5,11.6
				c-33.8,27.1-111.4,85.7-120.2,151c-9.8,72.9,43.2,234.1,61.3,286.1c6.1,17.7,29.3,25.7,47,26.4c32.8,1.2,122.6-1.6,144.1-50
				C1004.6,722.2,1006.3,442.8,1006.3,442.8"/>
			<path id="Trauma-Plate_Basic-Thigh_Left_M_ToggleOff" d="M988.3,449c-8-9.9-27.1-33.1-45.5-50.9
				c-8.8-8.5-17.2-15.8-23.8-18.6c-20.1-8.4-47-4.8-64.3,9.1c-19.6,15.7-54.6,42.3-81.2,74.8c-16.1,19.7-29.4,41.6-32.5,64.5
				c-9.5,70.8,42.9,227.2,60.4,277.8c1.5,4.4,5.7,7.2,10.1,9.3c6.5,3.2,14.1,4.7,20.6,5c18.4,0.7,55.9,0.2,87.2-10.2
				c17.3-5.7,33.1-14.1,39.7-29.1c8.3-18.7,13.8-55.7,18.1-98.1C986.2,592,988,477,988.3,449"/>
			<g id="Ridge_Basic-Thigh_Left_M_ToggleOff">
				<path d="M916.4,357.2l-36.8-9.5L841,369l12.5,469.2c25.4,4.9,25.8,5.9,48.1-0.8L916.4,357.2"/>
				<path d="M879.9,347.8l-1,494.3"/>
			</g>
		</g>
	</g>
	<g id="Right-Thigh_M">
		<g id="None_Thigh_Right_M_Option">
		</g>
		<g id="Pocket_Thigh_Right_M_Option">
			<path d="M275,537.4c-5.8,68.8-14,134.1-24.3,196c-2.1,12.4,1.1,25,8.8,34.9c7.7,9.9,19.3,16,31.8,17
				c56.7,4.6,114.2,13.3,172.1,24.4c9.7,1.9,19.8-0.3,27.9-6c8.1-5.7,13.5-14.5,15-24.3c9.8-65.1,29.4-196.2,37.1-247.1
				c1.7-11.5-6.2-22.3-17.7-24.1c-25.6-4-65.8-10.4-65.8-10.4L275,537.4"/>
			<path d="M301.7,472.2c-8-1.3-15.9,3.2-18.9,10.8c-9.8,26.1-18.2,67.8-11.7,89.2c8.5,27.7,94.7,187.2,116.1,226.6
				c3,5.5,8.4,9.2,14.6,9.9c12.3,1.4,33.5,3.9,47.5,5.6c7.8,0.9,14.9-4.5,16.1-12.3c7.1-47.4,30.3-202.6,39.2-262.4
				c2.2-14.5,12.5-26.4,26.6-30.4c0,0,0,0,0,0S352.3,480.3,301.7,472.2"/>
			<path id="Stitch_Right" d="M304.3,472.6c-18.3-2.5-31.4,72.5-25.5,91.9c7.7,25,93.7,190.2,113,225.8
				c2.7,5,7.6,8.3,13.2,9l37.1,5.4c7,0.8,13.5-4.1,14.5-11.1c6.4-42.8,31.4-209.2,39.8-263.1c3-19.1,23.2-23.1,23.2-23.1"/>
			<path d="M526.5,508.3l-223.1-35.8"/>
		</g>
		<g id="Heavy_Thigh_Right_M_Option">
			<g id="Thigh_Heavy-Thigh_Right_M">
				<path d="M498.3,469.6l61.2,78.1l-70,279.8L442,844.4l33.1-318.9L498.3,469.6"/>
				<path d="M341.9,453.4l-76,63.8l11,288.2l43.1,26.4l33.1-318.9L341.9,453.4"/>
				<path d="M341.9,453.4l156.4,16.3l-23.2,55.8l-122-12.7L341.9,453.4"/>
				<path d="M353.1,512.8l122,12.7L442,844.4l-122-12.7L353.1,512.8"/>
			</g>
			<g id="Trim_Heavy-Thigh_Right_M">
				<path d="M335.8,428.9l173.6,18l-11,22.7l-156.4-16.3L335.8,428.9"/>
				<path d="M268.9,489.8l66.8-61l6.1,24.5l-76,63.8L268.9,489.8"/>
				<path d="M562.2,520.3l-52.9-73.4l-11,22.7l61.2,78.1L562.2,520.3"/>
			</g>
		</g>
		<g id="Legacy_Thigh_Right_M_Option">
			<path id="Plate-3_Legacy-Thigh_Right_M" d="M496.5,708.2l-19.4,113l-109.4,17l-88.4-38.6l-4.3-115.4l100.6,47.3
				L496.5,708.2"/>
			<path id="Plate-2_Legacy-Thigh_Right_M" d="M520.9,599.4l-18.7,107.8l-126.5,24.3l-106.4-50l-5.2-131.3L384.3,627
				L520.9,599.4"/>
			<path id="Plate-1_Legacy-Thigh_Right_M" d="M252.7,443l93.6-81.9l125,20.5L543,500.4l-18,98.1L384.3,627l-125.8-80.3
				L252.7,443"/>
			<path id="Trauma-Plate-3_Legacy-Thigh_Right_M_ToggleOff" d="M296.4,719.4l71.8,33.7c3.4,1.6,7.1,2.1,10.7,1.4
				l92.3-17.7l-10.9,63.5l-90.3,14l-71.3-31.2L296.4,719.4"/>
			<path id="Trauma-Plate-2_Legacy-Thigh_Right_M_ToggleOff" d="M285.7,590.6l89,56.8c4,2.5,8.6,3.4,13,2.5l107.8-21.8
				l-10.1,58.6l-107.4,20.6l-89.3-42L285.7,590.6"/>
			<path id="Trauma-Plate-1_Legacy-Thigh_Right_M_ToggleOff" d="M459.9,403.4l61.7,102.1l-13.4,72.7l-120.5,24.3
				l-110-70.2l-4.4-78.2l78.3-68.5L459.9,403.4"/>
			<g id="Ridge_Legacy-Thigh_Right_M_ToggleOff">
				<path d="M354.7,608.1l-4.9,111.3l25.9,12.2l33.3-6.4l15-106.1l-39.6,8L354.7,608.1"/>
				<path d="M349.8,719.3l-6.8,108.1l24.8,10.8l28.4-4.4l12.7-108.7l-33.3,6.4L349.8,719.3"/>
				<path d="M423.9,619l30.8-240l-42.9-21.9l-45.4,7.4l-11.8,243.6l29.6,18.9L423.9,619"/>
				<path d="M411.9,357.1L384.3,627"/>
				<path d="M384.3,627l-8.6,104.5"/>
				<path d="M375.7,731.5l-7.9,106.8"/>
			</g>
		</g>
		<g id="Basic_Thigh_Right_M_Option">
			<path id="Thigh_Basic-Thigh_Right_M" d="M258.9,442.8c0,0,53.3-68.5,80.5-79.9c25.8-10.8,60.3-6.1,82.5,11.6
				c33.8,27.1,111.4,85.7,120.2,151c9.8,72.9-43.2,234.1-61.3,286.1c-6.1,17.7-29.3,25.7-47,26.4c-32.8,1.2-122.6-1.6-144.1-50
				C260.6,722.2,258.9,442.8,258.9,442.8"/>
			<path id="Trauma-Plate_Basic-Thigh_Right_M_ToggleOff" d="M276.9,449c8-9.9,27.1-33.1,45.5-50.9
				c8.8-8.5,17.2-15.8,23.8-18.6c20.1-8.4,47-4.8,64.3,9.1c19.6,15.7,54.6,42.3,81.2,74.8c16.1,19.7,29.4,41.6,32.5,64.5
				c9.5,70.8-42.9,227.2-60.4,277.8c-1.5,4.4-5.7,7.2-10.1,9.3c-6.5,3.2-14.1,4.7-20.6,5c-18.4,0.7-55.9,0.2-87.2-10.2
				c-17.3-5.7-33.1-14.1-39.7-29.1c-8.3-18.7-13.8-55.7-18.1-98.1C279,592,277.2,477,276.9,449"/>
			<g id="Ridge_Basic-Thigh_Right_M_ToggleOff">
				<path d="M348.8,357.2l36.8-9.5l38.6,21.3l-12.5,469.2c-25.4,4.9-25.8,5.9-48.1-0.8L348.8,357.2"/>
				<path d="M385.3,347.8l1,494.3"/>
			</g>
		</g>
	</g>
</g>
<g id="Groin_M">
	<g id="None_Groin_M_Option">
	</g>
	<g id="Basic_Groin_M_Option">
		<path id="Groin_Basic_M" d="M566.1,514.1L455.3,270.1h354.3L698.8,514.1l-66.4,58.2L566.1,514.1z"/>
		<path id="Trauma-Plating_Groin_M_ToggleOff" d="M577.8,493.8l-91.3-201.1h291.9l-91.3,201.1l-54.7,47.9L577.8,493.8z"
			/>
	</g>
</g>
<g id="Waist_M">
	<g id="Accessories_Waist_M">
		<g id="Kama_M_ToggleOff">
			<g id="Clean_Kama_M_Option">
				<g id="Trim_Kama-Clean">
					<path d="M806.7,101.6l38.1,609.9l280,186.2l-212.4-825L806.7,101.6z"/>
					<path d="M458.8,101.6l-38.1,609.9l-280,186.2l212.4-825L458.8,101.6z"/>
				</g>
				<g id="Main_Kama-Clean">
					<path d="M826.6,100.3l36.8,589.9l252.6,173.6L912.4,72.7L826.6,100.3z"/>
					<path d="M438.9,100.3l-36.8,589.9L149.4,863.9L353.1,72.7L438.9,100.3z"/>
				</g>
			</g>
			<g id="Tattered_Kama_M_Option">
				<g id="Main_Kama-Tattered">
					<path d="M913.8,74.3c24.1-5.3,35.6,128.5,49.8,193.1c6.4,29.3,7.4,58.9,15,88.2c13.2,50.9,36.7,101.7,47.7,151.7
						c8.8,40,3.2,81.3,12.9,121.4c7.4,30.4,22.7,56.7,32.9,85.7c11.4,32.5,18.5,65,26.7,98.4c5,20.3,10.9,39.9,17.5,59.8
						c2.2,6.7,4.1,13.5,5.8,20.4c0.5,2.1,1,4.2,1.5,6.3c0.3,1.3,1.8,4.7,0.8,3.8c-6.9-6.1-10.6-17.6-17-24.7
						c-12.5-13.9-28.2-24.3-40-38.9c-4.6-5.6-8.1-11.9-11.3-18.4c-0.3-0.6-2.4-5.5-2.6-5.5c-24.2,5.1-48.3,14.3-68.9-6.3
						c-16.4-16.3-30.5-51.5-38.8-73.3c-3.5-9.1,1.2-63-5-68.1c-4.6-3.7-8.8,44.8-14.3,41.5c-34.8-20.5-84.2-32.8-84.2-32.8
						s-3.9-68.7-1-108c2.5-35.3-2.4-66-7.6-100.5c-6.7-44.7-5.9-90.6-2.9-135.5C835.4,260,779.6,103.9,913.8,74.3z M993.5,735
						c-4.3,18.1-4.7,38.9,5.6,55.2c3.4,5.5,12.1,14.2,19.6,11.8c31.7-9.8-7.2-58.6-17.3-69.5L993.5,735z M900.5,602.3
						c-5.7,3.5-10.7,7.6-14.8,12.9c-15,19.1,26.2,9.6,19.1-13.6L900.5,602.3z"/>
					<path d="M351.7,74.3c-24.1-5.3-35.6,128.5-49.8,193.1c-6.4,29.3-7.4,58.9-15,88.2
						c-13.2,50.9-36.7,101.7-47.7,151.7c-8.8,40-3.2,81.3-12.9,121.4c-7.4,30.4-22.7,56.7-32.9,85.7c-11.4,32.5-18.5,65-26.7,98.4
						c-5,20.3-10.9,39.9-17.5,59.8c-2.2,6.7-4.1,13.5-5.9,20.4c-0.5,2.1-1,4.2-1.5,6.3c-0.3,1.3-1.8,4.7-0.8,3.8
						c6.9-6.1,10.6-17.6,17-24.7c12.5-13.9,31.9-2.5,43.8-17.1c4.6-5.6,10.6-18.9,13.8-25.4c0.3-0.6,8.6-16.5,8.9-16.5
						c24.2,5.1,9.1,23.3,29.7,2.7c16.4-16.3,57.2-64.3,65.6-86.1c3.5-9.1-3.2-28.2,3-33.3c4.6-3.7,10.8,10,16.3,6.7
						c34.8-20.5,78-59.1,78-59.1s10.1-42.4,7.3-81.7c-2.5-35.3,2.4-66,7.6-100.5c6.7-44.7,5.9-90.6,2.9-135.5
						C430.1,260,485.9,103.9,351.7,74.3z M263.3,747.2c4.3,18.1,3.7,14.9-6.6,31.2c-3.4,5.5-2.3,25.9-9.9,23.6
						c-31.7-9.8,7.1-58.6,17.3-69.5L263.3,747.2z M338.4,663c5.7,3.5,24-1,28.2,4.2c15,19.1-41.5,35.6-34.4,12.4L338.4,663z"/>
				</g>
			</g>
		</g>
		<g id="Loin-Cloth_M_ToggleOff">
			<g id="Clean_Loin-Cloth_M_Option">
				<path id="Trim_Loin-Cloth-Clean" d="M766.8,140.8h-268v477.1l134,134l134-134V140.8z"/>
				<path id="Main_Loin-Cloth-Clean" d="M749.6,191H515.9v415.9l116.8,116.8l116.8-116.8V191z"/>
			</g>
			<path id="Tattered_Loin-Cloth_M_Option" d="M767.5,139.1c-0.8,28.1-2.1,56-0.1,84.1c1.8,24.6,6.7,49.9,6.5,74.6
				c-0.2,19.5-6.1,38.2-7.5,57.5c-2.2,31.8,1.1,65.9,4.7,97.5c7.2,62-20.2,270.4-20.2,270.4l-55.4-50.5L658,764.2l-31.3-58.7
				l-28.4,47.2l-21.6-8.3L561.8,808l-24.9-48.9l-15.9-53.2c0,0-4.4-26-13.8-71.7c-4-19.6-14-39-14.7-59.2
				c-1.7-50.2,16.3-100.4,18.1-150.7c1.4-40.1-9.8-79.1-13.4-118.8c-3.1-34.6-8.5-89.7,15.6-118.3
				C537.6,157.8,767.5,139.1,767.5,139.1z M592.2,657.4c-1.4,6.3-2.9,12.6-4,19c-0.7,3.9-1.2,7.8-1.5,11.7
				c-0.3,5.3,0.2,11.2,2.5,16.1c0.2,0.4,3.6-1.4,3.9-1.6c3.8-2.4,6.3-6.1,7.7-10.3c3.2-9.9,5.1-28.1-4.4-35.6L592.2,657.4z
				 M733.7,587c-6.6,3.7-15.6,8-20.4,14c-3.6,4.5-6.1,9.2-7.2,14.8c-0.8,3.8-1.3,7.5-1.6,11.4c-0.9,14.1,7.5,18.9,18.5,8.8
				C732.9,626.9,744.1,598.6,733.7,587z"/>
		</g>
		<g id="Left-Holster_M_ToggleOff">
			<g id="Thigh-Plate-Holster_Left_M_Option">
				<g id="Weapon_Thigh-Plate-Holster-Left_M">
					<g id="Main_Weapon_Thigh-Plate-Holster-Left_M">
						<path d="M972,424.5l2.5-38.3l6.6,0.4l1.6-24.1l-6.6-0.4l0.8-12.5c0.3-4.1,5.9-7,12.6-6.6
							c15.3,1,41.6,2.7,56.9,3.7c6.7,0.4,11.9,4.1,11.6,8.2l-0.8,12.5l-6.6-0.4l-1.6,24.1l6.6,0.4l-2.5,38.3l-15.5-1l-6.9,106.1
							l-50.2-3.3l6.9-106.1L972,424.5z"/>
						<path d="M1046.9,423.7l-8.9-0.6l-8.3,127.5l-50.2-3.3l8.3-127.5l-8.9-0.6l1.9-29.1l68,4.4L1046.9,423.7z"/>
						<path d="M1037.5,354.4l-40.3-2.6l-2.6,39.4l40.3,2.6L1037.5,354.4z"/>
						<path d="M998.7,432.1l-6.6-0.4l-6.6,100.3l6.6,0.4L998.7,432.1z"/>
						<path d="M1017,410.3l-6.6-0.4l-9.2,140.8l6.6,0.4L1017,410.3z"/>
						<path d="M1032.3,434.3l-6.6-0.4l-7.3,111.3l6.6,0.4L1032.3,434.3z"/>
					</g>
					<g id="Accent_Weapon_Thigh-Plate-Holster-Left_M">
						<path d="M1008.9,432.8l-10.2-0.7l-6.6,100.3l10.2,0.7L1008.9,432.8z"/>
						<path d="M1025.7,433.9l-10.3-0.7l-7.3,111.3l10.3,0.7L1025.7,433.9z"/>
						<path d="M1003.9,352.2l-6.6-0.4l-2.6,39.4l6.6,0.4L1003.9,352.2z"/>
						<path d="M1037.5,354.4l-6.6-0.4l-2.6,39.4l6.6,0.4L1037.5,354.4z"/>
						<path d="M1000.4,395.5l-0.3,4l28.4,1.9l0.3-4L1000.4,395.5z"/>
						<path d="M1000.1,399.5l-0.3,4l28.4,1.9l0.3-4L1000.1,399.5z"/>
						<path d="M1000.7,391.5l-0.3,4l28.4,1.9l0.3-4L1000.7,391.5z"/>
						<path d="M1003.9,342.1l-0.3,4l28.4,1.9l0.3-4L1003.9,342.1z"/>
					</g>
				</g>
				<path id="Holster_Thigh-Plate-Holster-Left_M" d="M1040.3,543.8l-35.6-2.4L984.8,469l-10.9-0.7L952.2,790
					c0,0,30.1,2,51.1,3.5c5.3,0.4,10.6-1.4,14.6-4.9c4-3.5,6.5-8.5,6.8-13.8C1028.7,715.3,1040.3,543.8,1040.3,543.8z"/>
			</g>
			<g id="Hanging-Holster_Left_M_Option">
				<g id="Weapon_Hanging-Holster-Left_M">
					<g id="Main_Weapon_Hanging-Holster-Left_M">
						<path d="M973.6,518l1.8-38.4l6.6,0.3l1.1-24.1l-6.6-0.3l0.6-12.6c0.2-4.1,5.8-7.1,12.5-6.8
							c15.4,0.7,41.6,1.9,57,2.6c6.7,0.3,12,3.9,11.8,7.9l-0.6,12.6l-6.6-0.3l-1.1,24.1l6.6,0.3l-1.8,38.4l-15.5-0.7l-4.9,106.2
							l-50.2-2.3l4.9-106.2L973.6,518z"/>
						<path d="M1048.5,515.8l-8.9-0.4l-5.9,127.7l-50.2-2.3l5.9-127.7l-8.9-0.4l1.3-29.1l68.1,3.1L1048.5,515.8z"/>
						<path d="M1037.8,446.7l-40.3-1.9l-1.8,39.4l40.3,1.9L1037.8,446.7z"/>
						<path d="M1000.4,525.1l-6.6-0.3l-4.6,100.4l6.6,0.3L1000.4,525.1z"/>
						<path d="M1018.3,503l-6.6-0.3l-4.6,100.4l6.6,0.3L1018.3,503z"/>
						<path d="M1034.1,526.7l-6.6-0.3l-4.6,100.4l6.6,0.3L1034.1,526.7z"/>
					</g>
					<g id="Accent_Weapon_Hanging-Holster-Left_M">
						<path d="M1001.4,488.5l-0.2,4l28.4,1.3l0.2-4L1001.4,488.5z"/>
						<path d="M1001.3,492.5l-0.2,4l28.4,1.3l0.2-4L1001.3,492.5z"/>
						<path d="M1001.6,484.5l-0.2,4l28.4,1.3l0.2-4L1001.6,484.5z"/>
						<path d="M1003.9,435l-0.2,4l28.4,1.3l0.2-4L1003.9,435z"/>
						<path d="M1004.1,445.1l-6.6-0.3l-1.8,39.4l6.6,0.3L1004.1,445.1z"/>
						<path d="M1037.8,446.7l-6.6-0.3l-1.8,39.4l6.6,0.3L1037.8,446.7z"/>
						<path d="M1027.5,526.4l-10-0.5l-4.6,100.4l10,0.5L1027.5,526.4z"/>
						<path d="M1010.5,525.6l-10-0.5l-4.6,100.4l10,0.5L1010.5,525.6z"/>
					</g>
				</g>
				<path id="Holster_Hanging-Holster-Left_M" d="M974,666l-8.1-161.7l74.7,121.7l-16.5,220
					c-17.4,18.3-34.6,18.4-51.4-2L974,666z"/>
				<g id="Straps_Hanging-Holster-Left_M">
					<path d="M688.2,243.4c81.7,117.2,164,216.5,277.7,260.9l1.4,27.7c-141.4-59.6-217.2-160.6-300.8-288.6H688.2z"/>
					<path d="M973.6,698.9c-76.4,58.5-159,90.4-258,95.7l7,21.9c85.6-7.8,165.5-39.5,251-94.5V698.9z"/>
					<path d="M973.6,722l0.2-23.1c19.9,8.8,43,9.5,61.2,3l-1.8,23.6C1013.6,730.5,991.3,730.8,973.6,722z"/>
				</g>
				<g id="Buckle_Hanging-Holster-Left_M">
					<path d="M794.9,793.4l-10.7,1.6l0.5,3.5l10.7-1.6L794.9,793.4"/>
					<path d="M765.7,361.8l-7.4-9.8l-2.8,2.1l7.4,9.8L765.7,361.8"/>
					<path d="M762.8,364l-12.1,9.8l-28.6-35.3l27.6-22.3l28.6,35.3l-12.6,10.2l-6.1-8.1l6.2-5l-15.8-19.5l-15.2,12.3
						l15.8,19.5l6.2-5.1L762.8,364"/>
					<path d="M794.5,793.5l-8.4,1.3l-1.2-8.3l-20.6,4.4l2.9,19.3l20.6-4.4l-1.1-7.5l8.5-1.3l2.2,14.8l-37.3,8l-5.2-35
						l37.3-8L794.5,793.5"/>
				</g>
			</g>
			<g id="Belt-Holster_Left_M_Option">
				<g id="Weapon_Belt-Holster-Left_M">
					<g id="Main_Weapon_Belt-Holster-Left_M">
						<path d="M970.1,266.9l-2.6-38.3l6.6-0.4l-1.6-24.1l-6.6,0.4l-0.8-12.5c-0.3-4.1,4.9-7.7,11.6-8.2
							c15.3-1,41.6-2.8,56.9-3.8c6.7-0.4,12.3,2.5,12.6,6.6l0.8,12.5l-6.6,0.4l1.6,24.1l6.6-0.4l2.6,38.3l-15.5,1l7.1,106.1
							l-50.2,3.3l-7.1-106.1L970.1,266.9z"/>
						<path d="M1044.3,256.3l-8.9,0.6l8.5,127.5l-50.2,3.3l-8.5-127.5l-8.9,0.6l-1.9-29.1l68-4.5L1044.3,256.3z"/>
						<path d="M1025.9,188.8l-40.3,2.7l2.6,39.4l40.3-2.7L1025.9,188.8z"/>
						<path d="M997.6,271l-6.6,0.4l6.7,100.3l6.6-0.4L997.6,271z"/>
						<path d="M1012.9,247l-6.6,0.4l6.7,100.3l6.6-0.4L1012.9,247z"/>
						<path d="M1031.2,268.7l-6.6,0.4l6.7,100.3l6.6-0.4L1031.2,268.7z"/>
					</g>
					<g id="Accent_Weapon_Belt-Holster-Left_M">
						<path d="M994.5,234.5l0.3,4l28.4-1.9l-0.3-4L994.5,234.5z"/>
						<path d="M994.7,238.5l0.3,4l28.4-1.9l-0.3-4L994.7,238.5z"/>
						<path d="M994.2,230.5l0.3,4l28.4-1.9l-0.3-4L994.2,230.5z"/>
						<path d="M990.9,181.1l0.3,4l28.4-1.9l-0.3-4L990.9,181.1z"/>
						<path d="M992.2,191.1l-6.6,0.4l2.6,39.4l6.6-0.4L992.2,191.1z"/>
						<path d="M1025.9,188.8l-6.6,0.4l2.6,39.4l6.6-0.4L1025.9,188.8z"/>
						<path d="M1024.6,269.2l-10,0.7l6.7,100.3l10-0.7L1024.6,269.2z"/>
						<path d="M1007.7,270.3l-10,0.7l6.7,100.3l10-0.7L1007.7,270.3z"/>
					</g>
				</g>
				<path id="Holster_Belt-Holster-Left_M" d="M987.2,413.9l-26.2-159.8l87.9,112.6l8.3,220.5
					c-15.3,20.1-32.3,22.2-51.3,3.8L987.2,413.9z"/>
			</g>
		</g>
		<g id="Right-Holster_M_ToggleOff">
			<g id="Thigh-Plate-Holster_Right_M_Option">
				<g id="Weapon_Thigh-Plate-Holster-Right_M">
					<g id="Main_Weapon_Thigh-Plate-Holster-Right_M">
						<path d="M293.2,424.5l-2.5-38.3l-6.6,0.4l-1.6-24.1l6.6-0.4l-0.8-12.5c-0.3-4.1-5.9-7-12.6-6.6
							c-15.3,1-41.6,2.7-56.9,3.7c-6.7,0.4-11.9,4.1-11.6,8.2l0.8,12.5l6.6-0.4l1.6,24.1l-6.6,0.4l2.5,38.3l15.5-1l6.9,106.1
							l50.2-3.3l-6.9-106.1L293.2,424.5z"/>
						<path d="M218.3,423.7l8.9-0.6l8.3,127.5l50.2-3.3l-8.3-127.5l8.9-0.6l-1.9-29.1l-68,4.4L218.3,423.7z"/>
						<path d="M227.7,354.4l40.3-2.6l2.6,39.4l-40.3,2.6L227.7,354.4z"/>
						<path d="M266.6,432.1l6.6-0.4l6.6,100.3l-6.6,0.4L266.6,432.1z"/>
						<path d="M248.2,410.3l6.6-0.4l9.2,140.8l-6.6,0.4L248.2,410.3z"/>
						<path d="M232.9,434.3l6.6-0.4l7.3,111.3l-6.6,0.4L232.9,434.3z"/>
					</g>
					<g id="Accent_Weapon_Thigh-Plate-Holster-Right_M">
						<path d="M256.3,432.8l10.2-0.7l6.6,100.3l-10.2,0.7L256.3,432.8z"/>
						<path d="M239.5,433.9l10.3-0.7l7.3,111.3l-10.3,0.7L239.5,433.9z"/>
						<path d="M261.3,352.2l6.6-0.4l2.6,39.4l-6.6,0.4L261.3,352.2z"/>
						<path d="M227.7,354.4l6.6-0.4l2.6,39.4l-6.6,0.4L227.7,354.4z"/>
						<path d="M264.8,395.5l0.3,4l-28.4,1.9l-0.3-4L264.8,395.5z"/>
						<path d="M265.1,399.5l0.3,4l-28.4,1.9l-0.3-4L265.1,399.5z"/>
						<path d="M264.6,391.5l0.3,4l-28.4,1.9l-0.3-4L264.6,391.5z"/>
						<path d="M261.3,342.1l0.3,4l-28.4,1.9l-0.3-4L261.3,342.1z"/>
					</g>
				</g>
				<path id="Holster_Thigh-Plate-Holster-Right_M" d="M224.9,543.8l35.6-2.4l19.9-72.4l10.9-0.7L313,790
					c0,0-30.1,2-51.1,3.5c-5.3,0.4-10.6-1.4-14.6-4.9c-4-3.5-6.5-8.5-6.8-13.8C236.5,715.3,224.9,543.8,224.9,543.8z"/>
			</g>
			<g id="Hanging-Holster_Right_M_Option">
				<g id="Weapon_Hanging-Holster-Right_M">
					<g id="Main_Weapon_Hanging-Holster-Right_M">
						<path d="M291.6,518l-1.8-38.4l-6.6,0.3l-1.1-24.1l6.6-0.3l-0.6-12.6c-0.2-4.1-5.8-7.1-12.5-6.8
							c-15.4,0.7-41.6,1.9-57,2.6c-6.7,0.3-12,3.9-11.8,7.9l0.6,12.6l6.6-0.3l1.1,24.1l-6.6,0.3l1.8,38.4l15.5-0.7l4.9,106.2
							l50.2-2.3l-4.9-106.2L291.6,518z"/>
						<path d="M216.7,515.8l8.9-0.4l5.9,127.7l50.2-2.3l-5.9-127.7l8.9-0.4l-1.3-29.1l-68.1,3.1L216.7,515.8z"/>
						<path d="M227.4,446.7l40.3-1.9l1.8,39.4l-40.3,1.9L227.4,446.7z"/>
						<path d="M264.8,525.1l6.6-0.3l4.6,100.4l-6.6,0.3L264.8,525.1z"/>
						<path d="M246.9,503l6.6-0.3l4.6,100.4l-6.6,0.3L246.9,503z"/>
						<path d="M231.1,526.7l6.6-0.3l4.6,100.4l-6.6,0.3L231.1,526.7z"/>
					</g>
					<g id="Accent_Weapon_Hanging-Holster-Right_M">
						<path d="M263.8,488.5l0.2,4l-28.4,1.3l-0.2-4L263.8,488.5z"/>
						<path d="M263.9,492.5l0.2,4l-28.4,1.3l-0.2-4L263.9,492.5z"/>
						<path d="M263.6,484.5l0.2,4l-28.4,1.3l-0.2-4L263.6,484.5z"/>
						<path d="M261.3,435l0.2,4l-28.4,1.3l-0.2-4L261.3,435z"/>
						<path d="M261.1,445.1l6.6-0.3l1.8,39.4l-6.6,0.3L261.1,445.1z"/>
						<path d="M227.4,446.7l6.6-0.3l1.8,39.4l-6.6,0.3L227.4,446.7z"/>
						<path d="M237.7,526.4l10-0.5l4.6,100.4l-10,0.5L237.7,526.4z"/>
						<path d="M254.7,525.6l10-0.5l4.6,100.4l-10,0.5L254.7,525.6z"/>
					</g>
				</g>
				<path id="Holster_Hanging-Holster-Right_M" d="M291.2,666l8.1-161.7L224.6,626l16.5,220c17.4,18.3,34.6,18.4,51.4-2
					L291.2,666z"/>
				<g id="Straps_Hanging-Holster-Right_M">
					<path d="M577,243.4c-81.7,117.2-164,216.5-277.7,260.9l-1.4,27.7c141.4-59.6,217.2-160.6,300.8-288.6H577z"/>
					<path d="M291.6,698.9c76.4,58.5,159,90.4,258,95.7l-7,21.9c-85.6-7.8-165.5-39.5-251-94.5V698.9z"/>
					<path d="M291.6,722l-0.2-23.1c-19.9,8.8-43,9.5-61.2,3l1.8,23.6C251.6,730.5,273.9,730.8,291.6,722z"/>
				</g>
				<g id="Buckle_Hanging-Holster-Right_M">
					<path d="M470.3,793.4L481,795l-0.5,3.5l-10.7-1.6L470.3,793.4"/>
					<path d="M499.5,361.8l7.4-9.8l2.8,2.1l-7.4,9.8L499.5,361.8"/>
					<path d="M502.4,364l12.1,9.8l28.6-35.3l-27.6-22.3L487,351.5l12.6,10.2l6.1-8.1l-6.2-5l15.8-19.5l15.2,12.3
						l-15.8,19.5l-6.2-5.1L502.4,364"/>
					<path d="M470.7,793.5l8.5,1.3l1.2-8.3l20.6,4.4l-2.9,19.3l-20.6-4.4l1.1-7.5l-8.5-1.3l-2.2,14.8l37.3,8l5.2-35
						l-37.3-8L470.7,793.5"/>
				</g>
			</g>
			<g id="Belt-Holster_Right_M_Option">
				<g id="Weapon_Belt-Holster-Right_M">
					<g id="Main_Weapon_Belt-Holster-Right_M">
						<path d="M295.1,266.9l2.6-38.3l-6.6-0.4l1.6-24.1l6.6,0.4l0.8-12.5c0.3-4.1-4.9-7.7-11.6-8.2
							c-15.3-1-41.6-2.8-56.9-3.8c-6.7-0.4-12.3,2.5-12.6,6.6l-0.8,12.5l6.6,0.4l-1.6,24.1l-6.6-0.4l-2.6,38.3l15.5,1l-7.1,106.1
							l50.2,3.3l7.1-106.1L295.1,266.9z"/>
						<path d="M220.9,256.3l8.9,0.6l-8.5,127.5l50.2,3.3l8.5-127.5l8.9,0.6l1.9-29.1l-68-4.5L220.9,256.3z"/>
						<path d="M239.3,188.8l40.3,2.7l-2.6,39.4l-40.3-2.7L239.3,188.8z"/>
						<path d="M267.6,271l6.6,0.4l-6.7,100.3l-6.6-0.4L267.6,271z"/>
						<path d="M252.3,247l6.6,0.4l-6.7,100.3l-6.6-0.4L252.3,247z"/>
						<path d="M234,268.7l6.6,0.4l-6.7,100.3l-6.6-0.4L234,268.7z"/>
					</g>
					<g id="Accent_Weapon_Belt-Holster-Right_M">
						<path d="M270.7,234.5l-0.3,4l-28.4-1.9l0.3-4L270.7,234.5z"/>
						<path d="M270.5,238.5l-0.3,4l-28.4-1.9l0.3-4L270.5,238.5z"/>
						<path d="M271,230.5l-0.3,4l-28.4-1.9l0.3-4L271,230.5z"/>
						<path d="M274.3,181.1l-0.3,4l-28.4-1.9l0.3-4L274.3,181.1z"/>
						<path d="M273,191.1l6.6,0.4l-2.6,39.4l-6.6-0.4L273,191.1z"/>
						<path d="M239.3,188.8l6.6,0.4l-2.6,39.4l-6.6-0.4L239.3,188.8z"/>
						<path d="M240.6,269.2l10,0.7l-6.7,100.3l-10-0.7L240.6,269.2z"/>
						<path d="M257.6,270.3l10,0.7l-6.7,100.3l-10-0.7L257.6,270.3z"/>
					</g>
				</g>
				<path id="Holster_Belt-Holster-Right_M" d="M278,413.9l26.2-159.8l-87.9,112.6L208,587.2
					c15.2,20.1,32.3,22.2,51.3,3.8L278,413.9z"/>
			</g>
		</g>
	</g>
	<g id="Under-Belt_M">
		<g id="Sash_M_Option">
			<path d="M333.1,60c27.2-5.8,69.4,11,105,13.9c38.1,3.1,76.3,0.4,114.4,2.9c22.3,1.5,44.2,7,66.3,10
				c42.5,5.7,85,2.7,127.4-2.8c11.2-1.4,22.6-1.7,33.6-4c27.8-5.8,63.9-12.2,87.8-23.4c21.1-5.3,42.5-6.2,62.4-1.3
				c20.2,5,6.1,45.4,7,61.9c1,17.4,13.5,85.9,21,101.9c8.3,17.7,14.8,37-9.4,48.7c-20.3,9.7-41.9,0.9-62.5-1.8
				c-24.3-3.2-48.4-1.6-72.4,3.1c-29.4,5.7-58.4,16.3-88.3,19.1c-40,3.7-80.4-3.7-120.4-3.1c-23,0.3-45.1,7.8-68.2,5.9
				c-38.6-3.1-73.7-18.8-111.1-22.5c-18.8-1.9-37.6,2.5-56.4,2.5c-13,0-25-3.5-37.5-6.6c-12.4-3-24-1.8-30.9-13.5
				c-5.1-8.8,5.7-32.8,10.9-40.3c13.3-19.3,16.9-87.5,12.1-109.4C319.7,82.8,314.2,64,333.1,60z"/>
			<path d="M305.5,222.2c42.6-0.1,79.9-0.9,118.3,13.8c130,50.1,127.1,43.3,182.4,49c81.4,8.4,113.8,5.3,147.5-2.4
				c13.6-3.1,27.2-7.4,39.4-13.6c21.7-11,42.7-22.3,62-37.6c23.4-18.6,64.3-31.2,97.2-29.7c0,0-6.4-21.5-15.4-85.2
				c-2.3-16.5,8.1-34.5-0.1-56.9c-3.5-9.6-35.8-7-57.8-5.2c-43.3,3.5-62.5,34.9-96,59.9c-19.5,14.6-42.6,31.9-71.4,41.2
				c-45.4,14.7-116,21.4-249.9-23.2C418,117.8,381,90.3,323.4,99.2c0,0,2.1,29.6,2.1,44.5C325.6,191.1,305.5,222.2,305.5,222.2z"/>
		</g>
		<g id="Girth-Belt_M_Option">
			<path d="M632.4,115.8c-98.8,0-296.5-24-296.5-24l6.4-20.3c0,0,192.8,16,290.1,24c96.8-8,290.1-24,290.1-24l6.4,20.3
				C929,91.8,731.3,115.8,632.4,115.8z"/>
			<path d="M632.4,136.1c-100.9,0-302.7-24-302.7-24l6.2-20.3c0,0,247.1,20,296.5,24c49.4-4,296.5-24,296.5-24l6.2,20.3
				C935.1,112.1,733.3,136.1,632.4,136.1z"/>
			<path d="M632.4,156.5c-102.4,0-307.3-24-307.3-24l4.6-20.3c0,0,252.3,20,302.7,24c50.5-4,302.7-24,302.7-24l4.6,20.3
				C939.7,132.5,734.9,156.5,632.4,156.5z"/>
			<path d="M632.4,176.8c-103.7,0-311.2-24-311.2-24l3.9-20.3c0,0,256.1,20,307.3,24c51.2-4,307.3-24,307.3-24l3.9,20.3
				C943.6,152.8,736.2,176.8,632.4,176.8z"/>
			<path d="M632.4,197.1c-104.9,0-314.7-24-314.7-24l3.5-20.3c0,0,259.3,20,311.2,24c51.9-4,311.2-24,311.2-24l3.5,20.3
				C947.1,173.1,737.3,197.1,632.4,197.1z"/>
			<path d="M632.4,217.5c-106,0-318-24-318-24l3.3-20.3c0,0,262.2,20,314.7,24c52.4-4,314.7-24,314.7-24l3.3,20.3
				C950.4,193.5,738.4,217.5,632.4,217.5z"/>
			<path d="M632.4,237.8c-107.1,0-321.2-24-321.2-24l3.3-20.3c0,0,265,20,318,24c53-4,318-24,318-24l3.3,20.3
				C953.7,213.8,739.5,237.8,632.4,237.8z"/>
			<path d="M632.4,258.1c-108.2,0-324.6-24-324.6-24l3.4-20.3c0,0,267.7,20,321.2,24c53.5-4,321.2-24,321.2-24l3.3,20.3
				C957,234.1,740.6,258.1,632.4,258.1z"/>
			<path d="M632.4,278.5c-109.4,0-328.2-24-328.2-24l3.7-20.3c0,0,270.5,20,324.6,24c54.1-4,324.6-24,324.6-24l3.7,20.3
				C960.7,254.5,741.8,278.5,632.4,278.5z"/>
			<path d="M632.4,298.8c-110.8,0-332.4-24-332.4-24l4.2-20.3c0,0,273.5,20,328.2,24c54.7-4,328.2-24,328.2-24l4.2,20.3
				C964.8,274.8,743.2,298.8,632.4,298.8z"/>
		</g>
	</g>
	<g id="Belt_M">
		<g id="Pouch-Belt-Full_M_Option">
			<path id="Main_Pouch-Belt-Full_M" d="M953.4,201.4c-72.3,6.5-237.4,30.1-320.8,30.1c-84.2,0-249.3-23.8-320.7-30.1
				l10.7-84.6c58.7,5.2,228.6,29.2,310.1,29.2c79.1,0,245.5-23.8,308.1-29.5L953.4,201.4z"/>
			<g id="Pouches_Pouch-Belt-Full_M">
				<g>
					<g>
						<g>
							<path d="M482.8,116.4c-3.1-0.2-6.1,0.3-9,1.4c-7.5,3-22.3,8.8-22.3,8.8l85.7,4.9l23.2-10
								C560.3,121.5,500.1,117.6,482.8,116.4z"/>
							<path d="M563.4,124.4c0.1-0.9-0.3-1.8-1-2.3c-0.7-0.5-1.7-0.6-2.5-0.3c-7.5,3.2-22.6,9.7-22.6,9.7L526,263.9
								c7.7-4.4,15.3-7.3,22.8-9c4.3-0.9,7.4-4.6,7.6-9C557.7,205.3,559.3,164.8,563.4,124.4z"/>
							<path d="M537.2,131.5l-85.7-4.9c-0.5,20.1-2.4,40.2-3.5,60.3c-1.1,22.2-1.6,44.5-3.6,66.9
								c-0.1,1.6,0.4,3.2,1.5,4.4c1.1,1.2,2.6,1.9,4.3,1.9c24.6-0.1,49,1.4,73.4,4.2c1.5,0.2,3.1-0.3,4.2-1.2c1.2-1,1.9-2.4,2-3.9
								c1.1-15.6,3.9-56.9,3.9-56.9L537.2,131.5z"/>
							<path d="M537.2,131.5l-85.7-4.9c0,0-2,16.9-4,33.5c-1,8,1.4,16.1,6.6,22.3c5.2,6.2,12.7,10,20.8,10.4
								c10.1,0.6,21.4,1.2,31.5,1.8c8.1,0.5,16-2.4,21.9-8c5.9-5.6,9.2-13.4,9.1-21.5C537.3,148.5,537.2,131.5,537.2,131.5z"/>
							<path d="M491.6,178c3,0.2,5.4,2.8,5.2,5.8c-0.2,3-2.8,5.4-5.8,5.2c-3-0.2-5.4-2.8-5.2-5.8
								C486,180.1,488.6,177.8,491.6,178z"/>
						</g>
					</g>
					<g>
						<g>
							<path d="M364.6,100.3c-3.3-0.2-6.6,0.4-9.7,1.7c-7.1,3.1-19.7,8.6-19.7,8.6l78.2,4.5l21.2-10.1
								C434.6,105,381.4,101.4,364.6,100.3z"/>
							<path d="M437.3,108c0.1-0.9-0.3-1.8-1.1-2.4c-0.8-0.5-1.7-0.6-2.6-0.2c-7,3.3-20.3,9.7-20.3,9.7l-10.8,132.4
								c6.9-4.4,13.7-7.3,20.5-9c4.2-1,7.2-4.7,7.3-8.9C431.7,188.9,433.4,148.4,437.3,108z"/>
							<path d="M413.4,115.1l-78.2-4.5c-0.6,20.1-2.4,40.2-3.5,60.3c-1.1,22.2-1.7,44.5-3.6,66.9
								c-0.1,1.6,0.4,3.2,1.5,4.4c1.1,1.2,2.7,1.9,4.3,1.8c22.1-0.2,44,1.1,65.9,3.8c1.5,0.2,3.1-0.3,4.3-1.2c1.2-1,1.9-2.4,2-3.9
								c1.1-15.7,3.9-56.9,3.9-56.9L413.4,115.1z"/>
							<path d="M413.4,115.1l-78.2-4.5c0,0-2,17.1-3.8,33.6c-0.9,8,1.5,16,6.7,22.2c5.2,6.2,12.7,9.9,20.7,10.4
								c7.7,0.4,15.9,0.9,23.6,1.4c8.1,0.5,16-2.4,21.8-8c5.9-5.6,9.2-13.3,9.2-21.3C413.4,132.2,413.4,115.1,413.4,115.1z"/>
							<path d="M371.5,161.7c2.8,0.2,4.9,2.8,4.7,5.8c-0.2,3-2.6,5.4-5.3,5.2c-2.8-0.2-4.9-2.8-4.7-5.8
								C366.4,163.9,368.8,161.6,371.5,161.7z"/>
						</g>
					</g>
					<g>
						<path d="M285.7,109.1l5.8-9.1l30,1l3.7,11.3L285.7,109.1z"/>
						<path d="M325.1,113.3c0.1-0.7-0.1-1.4-0.6-2c-0.5-0.5-1.1-0.9-1.9-0.9c-9-0.3-36.9-1.4-36.9-1.4l-5.3,119.1
							c1.2,3,16.3,4.9,28.4,5.2c5.3,0.1,9.7-4.1,9.8-9.3C319.5,187.1,320.8,150.1,325.1,113.3z"/>
					</g>
				</g>
				<g>
					<g>
						<g>
							<path d="M782.5,116.4c3-0.2,6.1,0.3,9,1.4c7.5,3,22.3,8.8,22.3,8.8l-85.7,4.9l-23.2-10
								C704.9,121.5,765.1,117.6,782.5,116.4z"/>
							<path d="M701.8,124.4c-0.1-0.9,0.3-1.8,1-2.3c0.7-0.5,1.7-0.6,2.5-0.3c7.5,3.2,22.6,9.7,22.6,9.7l11.2,132.3
								c-7.7-4.4-15.3-7.3-22.8-9c-4.3-0.9-7.4-4.6-7.6-9C707.5,205.3,705.9,164.8,701.8,124.4z"/>
							<path d="M728,131.5l85.7-4.9c0.5,20.1,2.4,40.2,3.5,60.3c1.1,22.2,1.6,44.5,3.6,66.9c0.1,1.6-0.4,3.2-1.5,4.4
								c-1.1,1.2-2.6,1.9-4.3,1.9c-24.6-0.1-49,1.4-73.4,4.2c-1.5,0.2-3.1-0.3-4.2-1.2c-1.2-1-1.9-2.4-2-3.9
								c-1.1-15.6-3.9-56.9-3.9-56.9L728,131.5z"/>
							<path d="M728,131.5l85.7-4.9c0,0,2,16.9,4,33.5c1,8-1.4,16.1-6.6,22.3c-5.2,6.2-12.7,10-20.8,10.4
								c-10.1,0.6-21.4,1.2-31.5,1.8c-8.1,0.5-16-2.4-21.9-8c-5.9-5.6-9.2-13.4-9.1-21.5C727.9,148.5,728,131.5,728,131.5z"/>
							<path d="M773.6,178c-3,0.2-5.4,2.8-5.2,5.8c0.2,3,2.8,5.4,5.8,5.2c3-0.2,5.4-2.8,5.2-5.8
								C779.2,180.1,776.6,177.8,773.6,178z"/>
						</g>
					</g>
					<g>
						<g>
							<path d="M900.7,100.3c3.3-0.2,6.6,0.4,9.7,1.7c7.1,3.1,19.7,8.6,19.7,8.6l-78.2,4.5L830.6,105
								C830.6,105,883.8,101.4,900.7,100.3z"/>
							<path d="M827.9,108c-0.1-0.9,0.3-1.8,1.1-2.4c0.8-0.5,1.7-0.6,2.6-0.2c7,3.3,20.3,9.7,20.3,9.7l10.8,132.4
								c-6.9-4.4-13.7-7.3-20.5-9c-4.2-1-7.2-4.7-7.3-8.9C833.5,188.9,831.8,148.4,827.9,108z"/>
							<path d="M851.9,115.1l78.2-4.5c0.6,20.1,2.4,40.2,3.5,60.3c1.1,22.2,1.7,44.5,3.6,66.9c0.1,1.6-0.4,3.2-1.5,4.4
								c-1.1,1.2-2.7,1.9-4.3,1.8c-22.1-0.2-44,1.1-65.9,3.8c-1.5,0.2-3.1-0.3-4.3-1.2c-1.2-1-1.9-2.4-2-3.9
								c-1.1-15.7-3.9-56.9-3.9-56.9L851.9,115.1z"/>
							<path d="M851.9,115.1l78.2-4.5c0,0,2,17.1,3.8,33.6c0.9,8-1.5,16-6.7,22.2c-5.2,6.2-12.7,9.9-20.7,10.4
								c-7.7,0.4-15.9,0.9-23.6,1.4c-8.1,0.5-16-2.4-21.8-8c-5.9-5.6-9.2-13.3-9.2-21.3C851.8,132.2,851.9,115.1,851.9,115.1z"/>
							<path d="M893.7,161.7c-2.8,0.2-4.9,2.8-4.7,5.8c0.2,3,2.6,5.4,5.3,5.2c2.8-0.2,4.9-2.8,4.7-5.8
								C898.8,163.9,896.4,161.6,893.7,161.7z"/>
						</g>
					</g>
					<g>
						<path d="M979.5,109.1l-5.8-9.1l-30,1l-3.7,11.3L979.5,109.1z"/>
						<path d="M940.1,113.3c-0.1-0.7,0.1-1.4,0.6-2c0.5-0.5,1.1-0.9,1.9-0.9c9-0.3,36.9-1.4,36.9-1.4l5.3,119.1
							c-1.2,3-16.3,4.9-28.4,5.2c-5.3,0.1-9.7-4.1-9.8-9.3C945.7,187.1,944.4,150.1,940.1,113.3z"/>
					</g>
				</g>
				<path d="M670.9,123.6l11.8,11.6l-97-1.8l7.5-10.6L670.9,123.6z"/>
				<path d="M585.7,133.4l96.7,1.8c-1.1,21-0.6,41.9-1.2,62.9c-0.6,23.3-1.9,46.6-1.6,70.1c0,1.6-0.6,3.2-1.8,4.3
					c-1.2,1.1-2.8,1.7-4.4,1.5c-28.1-2.1-56.3-2.6-84.5-1.6c-1.5,0.1-3-0.5-4.1-1.6s-1.7-2.5-1.7-4.1c0.1-16.1,0.4-59.7,0.4-59.7
					L585.7,133.4z"/>
				<path d="M585.7,133.4l96.7,1.8c0,0,0.9,18.6,1.7,36.2c0.4,8.1-2.6,16-8.3,21.8c-5.7,5.8-13.5,9-21.6,8.9
					c-13.6-0.3-29.5-0.6-43.2-0.8c-8.1-0.2-15.8-3.7-21.3-9.7c-5.4-6.1-8.1-14.1-7.4-22.2C584,151.8,585.7,133.4,585.7,133.4z"/>
				<path d="M632.9,185.3c-3.4-0.1-6.3,2.5-6.3,5.6c-0.1,3.2,2.7,5.8,6.1,5.9c3.4,0.1,6.3-2.5,6.3-5.6
					C639.1,188,636.4,185.4,632.9,185.3z"/>
			</g>
		</g>
		<g id="Pouch-Belt-6_M_Option">
			<path id="Main_Pouch-Belt-6_M" d="M953.4,201.3c-72.3,6.5-237.4,30.1-320.8,30.1c-84.2,0-249.3-23.8-320.7-30.1
				l10.7-84.6C381.2,122,551.1,146,632.6,146c79.1,0,245.5-23.8,308.1-29.5L953.4,201.3z"/>
			<rect id="Buckle_Pouch-Belt-6_M" x="573.5" y="137.9" width="119.5" height="98.1"/>
			<g id="Pouches_Pouch-Belt-6_M">
				<g>
					<g>
						<g>
							<path d="M482.8,116.3c-3.1-0.2-6.1,0.3-9,1.4c-7.5,3-22.3,8.8-22.3,8.8l85.7,4.9l23.2-10
								C560.3,121.4,500.1,117.5,482.8,116.3z"/>
							<path d="M563.4,124.3c0.1-0.9-0.3-1.8-1-2.3c-0.7-0.5-1.7-0.7-2.5-0.3c-7.5,3.2-22.6,9.7-22.6,9.7L526,263.8
								c7.7-4.4,15.3-7.3,22.8-9c4.3-0.9,7.4-4.6,7.6-9C557.7,205.2,559.3,164.7,563.4,124.3z"/>
							<path d="M537.2,131.4l-85.7-4.9c-0.5,20.1-2.4,40.2-3.5,60.3c-1.1,22.2-1.6,44.5-3.6,66.9
								c-0.1,1.6,0.4,3.2,1.5,4.4c1.1,1.2,2.6,1.9,4.3,1.9c24.6-0.1,49,1.4,73.4,4.2c1.5,0.2,3.1-0.3,4.2-1.2c1.2-1,1.9-2.4,2-3.9
								c1.1-15.6,3.9-56.9,3.9-56.9L537.2,131.4z"/>
							<path d="M537.2,131.4l-85.7-4.9c0,0-2,16.9-4,33.4c-1,8,1.4,16.1,6.6,22.3c5.2,6.2,12.7,10,20.8,10.4
								c10.1,0.6,21.4,1.2,31.5,1.8c8.1,0.5,16-2.4,21.9-8c5.9-5.6,9.2-13.4,9.1-21.5C537.3,148.4,537.2,131.4,537.2,131.4z"/>
							<path d="M491.6,177.9c3,0.2,5.4,2.8,5.2,5.8c-0.2,3-2.8,5.4-5.8,5.2c-3-0.2-5.4-2.8-5.2-5.8
								C486,180,488.6,177.7,491.6,177.9z"/>
						</g>
					</g>
					<g>
						<g>
							<path d="M364.6,100.2c-3.3-0.2-6.6,0.4-9.7,1.7c-7.1,3.1-19.7,8.6-19.7,8.6l78.2,4.5l21.2-10.1
								C434.6,104.9,381.4,101.3,364.6,100.2z"/>
							<path d="M437.3,107.9c0.1-0.9-0.3-1.8-1.1-2.4c-0.8-0.5-1.7-0.6-2.6-0.2c-7,3.3-20.3,9.6-20.3,9.6l-10.8,132.4
								c6.9-4.4,13.7-7.3,20.5-9c4.2-1,7.2-4.7,7.3-8.9C431.7,188.8,433.4,148.3,437.3,107.9z"/>
							<path d="M413.4,115l-78.2-4.5c-0.6,20.1-2.4,40.2-3.5,60.3c-1.1,22.2-1.7,44.5-3.6,66.9
								c-0.1,1.6,0.4,3.2,1.5,4.4c1.1,1.2,2.7,1.9,4.3,1.8c22.1-0.2,44,1.1,65.9,3.8c1.5,0.2,3.1-0.3,4.3-1.2c1.2-1,1.9-2.4,2-3.9
								c1.1-15.7,3.9-56.9,3.9-56.9L413.4,115z"/>
							<path d="M413.4,115l-78.2-4.5c0,0-2,17.1-3.8,33.6c-0.9,8,1.5,16,6.7,22.2c5.2,6.2,12.7,9.9,20.7,10.4
								c7.7,0.4,15.9,0.9,23.6,1.4c8.1,0.5,16-2.4,21.8-8c5.9-5.5,9.2-13.3,9.2-21.3C413.4,132.1,413.4,115,413.4,115z"/>
							<path d="M371.5,161.7c2.8,0.2,4.9,2.8,4.7,5.8c-0.2,3-2.6,5.4-5.3,5.2c-2.8-0.2-4.9-2.8-4.7-5.8
								C366.4,163.8,368.8,161.5,371.5,161.7z"/>
						</g>
					</g>
					<g>
						<path d="M285.7,109l5.8-9.1l30,1l3.7,11.3L285.7,109z"/>
						<path d="M325.1,113.3c0.1-0.7-0.1-1.4-0.6-2c-0.5-0.5-1.1-0.9-1.9-0.9c-9-0.3-36.9-1.4-36.9-1.4L280.4,228
							c1.2,3,16.3,4.9,28.4,5.2c5.3,0.1,9.7-4.1,9.8-9.3C319.5,187,320.8,150,325.1,113.3z"/>
					</g>
				</g>
				<g>
					<g>
						<g>
							<path d="M782.5,116.3c3-0.2,6.1,0.3,9,1.4c7.5,3,22.3,8.8,22.3,8.8l-85.7,4.9l-23.2-10
								C704.9,121.4,765.1,117.5,782.5,116.3z"/>
							<path d="M701.8,124.3c-0.1-0.9,0.3-1.8,1-2.3c0.7-0.5,1.7-0.7,2.5-0.3c7.5,3.2,22.6,9.7,22.6,9.7l11.2,132.3
								c-7.7-4.4-15.3-7.3-22.8-9c-4.3-0.9-7.4-4.6-7.6-9C707.5,205.2,705.9,164.7,701.8,124.3z"/>
							<path d="M728,131.4l85.7-4.9c0.5,20.1,2.4,40.2,3.5,60.3c1.1,22.2,1.6,44.5,3.6,66.9c0.1,1.6-0.4,3.2-1.5,4.4
								c-1.1,1.2-2.6,1.9-4.3,1.9c-24.6-0.1-49,1.4-73.4,4.2c-1.5,0.2-3.1-0.3-4.2-1.2c-1.2-1-1.9-2.4-2-3.9
								c-1.1-15.6-3.9-56.9-3.9-56.9L728,131.4z"/>
							<path d="M728,131.4l85.7-4.9c0,0,2,16.9,4,33.4c1,8-1.4,16.1-6.6,22.3c-5.2,6.2-12.7,10-20.8,10.4
								c-10.1,0.6-21.4,1.2-31.5,1.8c-8.1,0.5-16-2.4-21.9-8c-5.9-5.6-9.2-13.4-9.1-21.5C727.9,148.4,728,131.4,728,131.4z"/>
							<path d="M773.6,177.9c-3,0.2-5.4,2.8-5.2,5.8c0.2,3,2.8,5.4,5.8,5.2c3-0.2,5.4-2.8,5.2-5.8
								C779.2,180,776.6,177.7,773.6,177.9z"/>
						</g>
					</g>
					<g>
						<g>
							<path d="M900.7,100.2c3.3-0.2,6.6,0.4,9.7,1.7c7.1,3.1,19.7,8.6,19.7,8.6l-78.2,4.5l-21.2-10.1
								C830.6,104.9,883.8,101.3,900.7,100.2z"/>
							<path d="M827.9,107.9c-0.1-0.9,0.3-1.8,1.1-2.4c0.8-0.5,1.7-0.6,2.6-0.2c7,3.3,20.3,9.6,20.3,9.6l10.8,132.4
								c-6.9-4.4-13.7-7.3-20.5-9c-4.2-1-7.2-4.7-7.3-8.9C833.5,188.8,831.8,148.3,827.9,107.9z"/>
							<path d="M851.9,115l78.2-4.5c0.6,20.1,2.4,40.2,3.5,60.3c1.1,22.2,1.7,44.5,3.6,66.9c0.1,1.6-0.4,3.2-1.5,4.4
								c-1.1,1.2-2.7,1.9-4.3,1.8c-22.1-0.2-44,1.1-65.9,3.8c-1.5,0.2-3.1-0.3-4.3-1.2c-1.2-1-1.9-2.4-2-3.9
								c-1.1-15.7-3.9-56.9-3.9-56.9L851.9,115z"/>
							<path d="M851.9,115l78.2-4.5c0,0,2,17.1,3.8,33.6c0.9,8-1.5,16-6.7,22.2c-5.2,6.2-12.7,9.9-20.7,10.4
								c-7.7,0.4-15.9,0.9-23.6,1.4c-8.1,0.5-16-2.4-21.8-8c-5.9-5.5-9.2-13.3-9.2-21.3C851.8,132.1,851.9,115,851.9,115z"/>
							<path d="M893.7,161.7c-2.8,0.2-4.9,2.8-4.7,5.8c0.2,3,2.6,5.4,5.3,5.2c2.8-0.2,4.9-2.8,4.7-5.8
								C898.8,163.8,896.4,161.5,893.7,161.7z"/>
						</g>
					</g>
					<g>
						<path d="M979.5,109l-5.8-9.1l-30,1l-3.7,11.3L979.5,109z"/>
						<path d="M940.1,113.3c-0.1-0.7,0.1-1.4,0.6-2c0.5-0.5,1.1-0.9,1.9-0.9c9-0.3,36.9-1.4,36.9-1.4l5.3,119.1
							c-1.2,3-16.3,4.9-28.4,5.2c-5.3,0.1-9.7-4.1-9.8-9.3C945.7,187,944.4,150,940.1,113.3z"/>
					</g>
				</g>
			</g>
		</g>
		<g id="Pouch-Belt-4_M_Option">
			<path id="Main_Pouch-Belt-4_M" d="M953.4,201.3c-72.3,6.5-237.4,30.1-320.8,30.1c-84.2,0-249.3-23.8-320.7-30.1
				l10.7-84.6C381.2,122,551.1,146,632.6,146c79.1,0,245.5-23.8,308.1-29.5L953.4,201.3z"/>
			<rect id="Buckle_Pouch-Belt-4_M" x="573.5" y="137.9" width="119.5" height="98.1"/>
			<g id="Pouches_Pouch-Belt-4_M">
				<g>
					<g>
						<path d="M364.6,100.2c-3.3-0.2-6.6,0.4-9.7,1.7c-7.1,3.1-19.7,8.6-19.7,8.6l78.2,4.5l21.2-10.1
							C434.6,104.9,381.4,101.3,364.6,100.2z"/>
						<path d="M437.3,107.9c0.1-0.9-0.3-1.8-1.1-2.4c-0.8-0.5-1.7-0.6-2.6-0.2c-7,3.3-20.3,9.6-20.3,9.6l-10.8,132.4
							c6.9-4.4,13.7-7.3,20.5-9c4.2-1,7.2-4.7,7.3-8.9C431.7,188.8,433.4,148.3,437.3,107.9z"/>
						<path d="M413.4,115l-78.2-4.5c-0.6,20.1-2.4,40.2-3.5,60.3c-1.1,22.2-1.7,44.5-3.6,66.9c-0.1,1.6,0.4,3.2,1.5,4.4
							c1.1,1.2,2.7,1.9,4.3,1.8c22.1-0.2,44,1.1,65.9,3.8c1.5,0.2,3.1-0.3,4.3-1.2c1.2-1,1.9-2.4,2-3.9c1.1-15.7,3.9-56.9,3.9-56.9
							L413.4,115z"/>
						<path d="M413.4,115l-78.2-4.5c0,0-2,17.1-3.8,33.6c-0.9,8,1.5,16,6.7,22.2c5.2,6.2,12.7,9.9,20.7,10.4
							c7.7,0.4,15.9,0.9,23.6,1.4c8.1,0.5,16-2.4,21.8-8c5.9-5.5,9.2-13.3,9.2-21.3C413.4,132.1,413.4,115,413.4,115z"/>
						<path d="M371.5,161.7c2.8,0.2,4.9,2.8,4.7,5.8c-0.2,3-2.6,5.4-5.3,5.2c-2.8-0.2-4.9-2.8-4.7-5.8
							C366.4,163.8,368.8,161.5,371.5,161.7z"/>
					</g>
				</g>
				<g>
					<path d="M285.7,109l5.8-9.1l30,1l3.7,11.3L285.7,109z"/>
					<path d="M325.1,113.3c0.1-0.7-0.1-1.4-0.6-2c-0.5-0.5-1.1-0.9-1.9-0.9c-9-0.3-36.9-1.4-36.9-1.4L280.4,228
						c1.2,3,16.3,4.9,28.4,5.2c5.3,0.1,9.7-4.1,9.8-9.3C319.5,187,320.8,150,325.1,113.3z"/>
				</g>
				<g>
					<g>
						<path d="M900.7,100.2c3.3-0.2,6.6,0.4,9.7,1.7c7.1,3.1,19.7,8.6,19.7,8.6l-78.2,4.5l-21.2-10.1
							C830.6,104.9,883.8,101.3,900.7,100.2z"/>
						<path d="M827.9,107.9c-0.1-0.9,0.3-1.8,1.1-2.4c0.8-0.5,1.7-0.6,2.6-0.2c7,3.3,20.3,9.6,20.3,9.6l10.8,132.4
							c-6.9-4.4-13.7-7.3-20.5-9c-4.2-1-7.2-4.7-7.3-8.9C833.5,188.8,831.8,148.3,827.9,107.9z"/>
						<path d="M851.9,115l78.2-4.5c0.6,20.1,2.4,40.2,3.5,60.3c1.1,22.2,1.7,44.5,3.6,66.9c0.1,1.6-0.4,3.2-1.5,4.4
							c-1.1,1.2-2.7,1.9-4.3,1.8c-22.1-0.2-44,1.1-65.9,3.8c-1.5,0.2-3.1-0.3-4.3-1.2c-1.2-1-1.9-2.4-2-3.9
							c-1.1-15.7-3.9-56.9-3.9-56.9L851.9,115z"/>
						<path d="M851.9,115l78.2-4.5c0,0,2,17.1,3.8,33.6c0.9,8-1.5,16-6.7,22.2c-5.2,6.2-12.7,9.9-20.7,10.4
							c-7.7,0.4-15.9,0.9-23.6,1.4c-8.1,0.5-16-2.4-21.8-8c-5.9-5.5-9.2-13.3-9.2-21.3C851.8,132.1,851.9,115,851.9,115z"/>
						<path d="M893.7,161.7c-2.8,0.2-4.9,2.8-4.7,5.8c0.2,3,2.6,5.4,5.3,5.2c2.8-0.2,4.9-2.8,4.7-5.8
							C898.8,163.8,896.4,161.5,893.7,161.7z"/>
					</g>
				</g>
				<g>
					<path d="M979.5,109l-5.8-9.1l-30,1l-3.7,11.3L979.5,109z"/>
					<path d="M940.1,113.3c-0.1-0.7,0.1-1.4,0.6-2c0.5-0.5,1.1-0.9,1.9-0.9c9-0.3,36.9-1.4,36.9-1.4l5.3,119.1
						c-1.2,3-16.3,4.9-28.4,5.2c-5.3,0.1-9.7-4.1-9.8-9.3C945.7,187,944.4,150,940.1,113.3z"/>
				</g>
			</g>
		</g>
		<g id="Pouch-Belt-2_M_Option">
			<path id="Main_Pouch-Belt-2_M" d="M953.4,201.3c-72.3,6.5-237.4,30.1-320.8,30.1c-84.2,0-249.3-23.8-320.7-30.1
				l10.7-84.6C381.2,122,551.1,146,632.6,146c79.1,0,245.5-23.8,308.1-29.5L953.4,201.3z"/>
			<rect id="Buckle_Pouch-Belt-2_M" x="573.5" y="137.9" width="119.5" height="98.1"/>
			<g id="Pouches_Pouch-Belt-2_M">
				<g>
					<path d="M285.7,109l5.8-9.1l30,1l3.7,11.3L285.7,109z"/>
					<path d="M325.1,113.3c0.1-0.7-0.1-1.4-0.6-2c-0.5-0.5-1.1-0.9-1.9-0.9c-9-0.3-36.9-1.4-36.9-1.4L280.4,228
						c1.2,3,16.3,4.9,28.4,5.2c5.3,0.1,9.7-4.1,9.8-9.3C319.5,187,320.8,150,325.1,113.3z"/>
				</g>
				<g>
					<path d="M979.5,109l-5.8-9.1l-30,1l-3.7,11.3L979.5,109z"/>
					<path d="M940.1,113.3c-0.1-0.7,0.1-1.4,0.6-2c0.5-0.5,1.1-0.9,1.9-0.9c9-0.3,36.9-1.4,36.9-1.4l5.3,119.1
						c-1.2,3-16.3,4.9-28.4,5.2c-5.3,0.1-9.7-4.1-9.8-9.3C945.7,187,944.4,150,940.1,113.3z"/>
				</g>
			</g>
		</g>
		<g id="Basic-Belt_M_Option">
			<path id="Main_Basic-Belt_M" d="M953.4,201.3c-72.3,6.5-237.4,30.1-320.8,30.1c-84.2,0-249.3-23.8-320.7-30.1
				l10.7-84.6C381.2,122,551.1,146,632.6,146c79.1,0,245.5-23.8,308.1-29.5L953.4,201.3z"/>
			<rect id="Buckle_Basic-Belt_M" x="573.5" y="137.9" width="119.5" height="98.1"/>
		</g>
	</g>
</g>
</svg>
