<?xml version="1.0" encoding="utf-8"?>
<!-- Generator: Adobe Illustrator 25.0.0, SVG Export Plug-In . SVG Version: 6.00 Build 0)  -->
<svg version="1.1" id="Layer_1" xmlns:serif="http://www.serif.com/"
	 xmlns="http://www.w3.org/2000/svg" xmlns:xlink="http://www.w3.org/1999/xlink" x="0px" y="0px" viewBox="0 0 1200 1700"
	 style="enable-background:new 0 0 1200 1700;" xml:space="preserve">
<g id="Ankles_M">
	<g id="Left-Ankle_M">
		<g id="None_Ankle_Left_M_Option">
		</g>
		<path id="Basic_Ankle_Left_M_Option" class="st0" d="M1096.4,1635.3l-83.1-156.1L869,1509.8l-13.1,44.6l116.6,97.6l49.6,15.8
			L1096.4,1635.3z"/>
	</g>
	<g id="Right-Ankle_M">
		<g id="None_Ankle_Right_M_Option">
		</g>
		<path id="Basic_Ankle_Right_M_Option" class="st0" d="M103.6,1635.3l83.1-156.1l144.3,30.7l13.1,44.6L227.5,1652l-49.6,15.8
			L103.6,1635.3z"/>
	</g>
</g>
<g id="Shins_M">
	<g id="Left-Shin_M">
		<g id="None_Shin_Left_M_Option">
		</g>
		<path id="Basic_Shin_Left_M_Option" class="st0" d="M992.3,1143.7l-45.5-64.1l-77.8,8.4l-70,124.5l93.6,266.7l114.6-15.8
			L992.3,1143.7z"/>
	</g>
	<g id="Right-Shin_M">
		<g id="None_Shin_Right_M_Option">
		</g>
		<path id="Basic_Shin_Right_M_Option" class="st0" d="M207.7,1143.7l45.5-64.1l77.8,8.4l70,124.5l-93.6,266.7l-114.6-15.8
			L207.7,1143.7z"/>
	</g>
</g>
<g id="Knees_M">
	<g id="Left-Knee_M">
		<g id="Legacy_Knee_Left_M_Option">
			<path class="st0" d="M942.8,950.5l-42.5-29.7l-95,14.8l-37,42l30.5,102.7H874l71-22.7L942.8,950.5z"/>
			<path class="st0" d="M957.2,881.1L902.7,843l-121.9,18.9l-47.5,53.9l39.1,131.7l187.5-29.1L957.2,881.1z"/>
		</g>
		<path id="Basic_Knee_Left_M_Option" class="st0" d="M715.8,915.1l17.2,65.2l47.4-2.5c0,0,18.8,81.6,94.1,76.6
			c78.6-5.2,86.1-99,86.1-99L949,876.1L715.8,915.1z"/>
	</g>
	<g id="Right-Knee_M">
		<g id="Legacy_Knee_Right_M_Option">
			<path class="st0" d="M257,950.5l42.5-29.7l95,14.8l37,42l-30.5,102.7h-75.2l-71-22.7L257,950.5z"/>
			<path class="st0" d="M242.6,881.1l54.5-38.1L419,861.9l47.5,53.9l-39.1,131.7l-187.5-29.1L242.6,881.1z"/>
		</g>
		<path id="Basic_Knee_Right_M_Option" class="st0" d="M485,914.4l-17.4,66l-47.4-2.5c0,0-18.8,81.6-94.1,76.6
			c-78.6-5.2-86.1-99-86.1-99l11.7-79.4L485,914.4z"/>
	</g>
</g>
<g id="Thighs_M">
	<g id="Left-Thigh_M">
		<g id="None_Thigh_Left_M_Option">
		</g>
		<g id="Legacy_Thigh_Left_M_Option">
			<path id="Plate-3_Legacy_Thigh_Left_M" class="st0" d="M729.4,679.4l19.4,96.8l105.5,16.1l92.3-34.6l4.3-98.9l-100.6,40.5
				L729.4,679.4z"/>
			<path id="Plate-2_Legacy_Thigh_Left_M" class="st0" d="M707.1,599.4l16.5,79l126.5,20.8l106.4-42.9l5.2-112.5l-120.2,65.8
				L707.1,599.4z"/>
			<path id="Plate-1_Legacy_Thigh_Left_M" class="st0" d="M973.2,452l-80.5-79.9l-82.5,11.6L690,534.8l13.8,64.4l137.8,10.5
				l125.8-68.8L973.2,452z"/>
		</g>
		<path id="Basic_Thigh_Left_M_Option" class="st0" d="M973.2,452l-80.5-79.9l-82.5,11.6L690,534.8l61.3,286.1l47,26.4l150.1-19
			L973.2,452z"/>
	</g>
	<g id="Right-Thigh_M">
		<g id="None_Thigh_Right_M_Option">
		</g>
		<g id="Legacy_Thigh_Right_M_Option">
			<path id="Plate-3_Legacy_Thigh_Left_M1" serif:id="Plate-3_Legacy_Thigh_Left_M" class="st0" d="M470.6,679.4l-19.4,96.8
				l-105.5,16.1l-92.3-34.6l-4.3-98.9l100.6,40.5L470.6,679.4z"/>
			<path id="Plate-2_Legacy_Thigh_Left_M1" serif:id="Plate-2_Legacy_Thigh_Left_M" class="st0" d="M492.9,599.4l-16.5,79
				l-126.5,20.8l-106.4-42.9l-5.2-112.5l120.2,65.8L492.9,599.4z"/>
			<path id="Plate-1_Legacy_Thigh_Left_M1" serif:id="Plate-1_Legacy_Thigh_Left_M" class="st0" d="M226.8,452l80.5-79.9l82.5,11.6
				l120.3,151l-13.8,64.4l-137.8,10.5l-125.8-68.8L226.8,452z"/>
		</g>
		<path id="Basic_Thigh_Right_M_Option" class="st0" d="M226.8,452l80.5-79.9l82.5,11.6l120.3,151l-61.3,286.1l-47,26.4l-150.1-19
			L226.8,452z"/>
	</g>
</g>
<g id="Groin_M">
	<g id="None_Groin_M_Option">
	</g>
	<path id="Basic_Groin_M_Option" class="st0" d="M533.6,518.3L422.8,274.2h354.3L666.4,518.3L600,576.4L533.6,518.3z"/>
</g>
<g id="Waist_M">
	<g id="Accessories_Waist_M">
		<g id="Kama_M_ToggleOff">
			<g id="Clean_Kama_M_Option">
				<g id="Trim_Kama-Clean">
					<path class="st1" d="M773.9,105.7L812,715.6l280.1,186.2l-212.4-825L773.9,105.7z"/>
					<path class="st1" d="M426.1,105.7L388,715.6L107.9,901.8l212.4-825L426.1,105.7z"/>
				</g>
				<g id="Main_Kama-Clean">
					<path class="st1" d="M793.9,104.4l36.8,589.9L1083.4,868L879.6,76.8L793.9,104.4z"/>
					<path class="st1" d="M406.1,104.4l-36.8,589.9L116.6,868L320.4,76.8L406.1,104.4z"/>
				</g>
			</g>
			<g id="Tattered_Kama_M_Option">
				<g id="Main_Kama-Tattered">
					<path class="st0" d="M881.1,78.4c24.1-5.3,35.6,128.5,49.8,193.1c6.4,29.3,7.4,58.9,15,88.2c13.2,50.9,36.7,101.7,47.7,151.7
						c8.8,40,3.2,81.3,12.9,121.4c7.4,30.4,22.7,56.7,32.9,85.7c11.4,32.5,18.5,65,26.7,98.4c5,20.4,10.9,39.9,17.5,59.8
						c2.2,6.7,4.1,13.5,5.8,20.4c0.5,2.1,1,4.2,1.5,6.3c0.3,1.3,1.8,4.7,0.8,3.8c-6.9-6.1-10.6-17.6-17-24.7
						c-12.5-13.9-28.2-24.3-40-38.9c-4.6-5.6-8.1-11.9-11.3-18.4c-0.3-0.6-2.4-5.5-2.6-5.5c-24.2,5.1-48.3,14.3-68.9-6.3
						c-16.4-16.3-30.5-51.5-38.8-73.3c-3.5-9.1,1.2-63-5-68.1c-4.6-3.7-8.8,44.8-14.3,41.5c-34.8-20.5-84.2-32.8-84.2-32.8
						s-3.9-68.7-1-108c2.5-35.3-2.4-66-7.6-100.5c-6.7-44.7-5.9-90.6-2.9-135.5C802.6,264.1,746.9,108,881.1,78.4z M960.8,739.1
						c-4.3,18.1-4.7,38.9,5.6,55.2c3.4,5.5,12.1,14.2,19.6,11.8c31.7-9.8-7.1-58.6-17.3-69.5L960.8,739.1z M867.8,606.4
						c-5.7,3.5-10.7,7.6-14.8,12.9c-15,19.1,26.2,9.6,19.1-13.6L867.8,606.4z"/>
					<path class="st0" d="M318.9,78.4c-24.1-5.3-35.6,128.5-49.8,193.1c-6.4,29.3-7.4,58.9-15,88.2
						c-13.2,50.9-36.7,101.7-47.7,151.7c-8.8,40-3.2,81.3-12.9,121.4c-7.4,30.4-22.7,56.7-32.9,85.7c-11.4,32.5-18.5,65-26.7,98.4
						c-5,20.4-10.9,39.9-17.5,59.8c-2.2,6.7-4.1,13.5-5.9,20.4c-0.5,2.1-1,4.2-1.5,6.3c-0.3,1.3-1.8,4.7-0.8,3.8
						c6.9-6.1,10.6-17.6,17-24.7c12.5-13.9,31.9-2.5,43.8-17.1c4.6-5.6,10.6-18.9,13.8-25.4c0.3-0.6,8.6-16.5,8.9-16.5
						c24.2,5.1,9.1,23.3,29.7,2.7c16.4-16.3,57.2-64.3,65.6-86.1c3.5-9.1-3.2-28.2,3-33.3c4.6-3.7,10.8,10,16.4,6.7
						c34.8-20.5,78-59.1,78-59.1s10.1-42.4,7.3-81.7c-2.5-35.3,2.4-66,7.6-100.5c6.7-44.7,5.9-90.6,2.9-135.5
						C397.4,264.1,453.1,108,318.9,78.4z M230.5,751.3c4.3,18.1,3.7,14.9-6.6,31.2c-3.4,5.5-2.3,25.9-9.9,23.6
						c-31.7-9.8,7.1-58.6,17.3-69.5L230.5,751.3z M305.6,667.1c5.7,3.5,24-1,28.2,4.2c15,19.1-41.5,35.6-34.4,12.4L305.6,667.1z"/>
				</g>
			</g>
		</g>
		<g id="Loin-Cloth_M_ToggleOff">
			<g id="Clean_Loin-Cloth_M_Option">
				<path id="Trim_Loin-Cloth-Clean" class="st1" d="M734,144.9H466V622l134,134l134-134V144.9z"/>
				<path id="Main_Loin-Cloth-Clean" class="st1" d="M716.8,195.1H483.2V611L600,727.8L716.8,611V195.1z"/>
			</g>
			<path id="Tattered_Loin-Cloth_M_Option" class="st0" d="M734.7,143.2c-0.8,28.1-2.1,56-0.1,84.1c1.8,24.6,6.7,49.9,6.5,74.6
				c-0.2,19.5-6.1,38.2-7.5,57.5c-2.2,31.8,1.1,65.9,4.7,97.5c7.2,62-20.2,270.4-20.2,270.4l-55.5-50.5l-37.5,91.5l-31.3-58.7
				l-28.4,47.2l-30-9.6L521,825.4l-29.3-62.3l-3.6-53.2c0,0-4.4-26-13.8-71.7c-4-19.6-14-39-14.7-59.2
				c-1.7-50.2,16.3-100.4,18.1-150.7c1.4-40.1-9.8-79.1-13.4-118.8c-3.1-34.6-8.5-89.7,15.6-118.3
				C504.8,161.9,734.7,143.2,734.7,143.2z M559.4,661.5c-1.4,6.3-2.9,12.6-4,19c-0.7,3.9-1.2,7.8-1.5,11.7
				c-0.3,5.3,0.2,11.2,2.5,16.1c0.2,0.4,3.6-1.4,3.9-1.6c3.8-2.4,6.3-6.1,7.7-10.3c3.2-9.9,5.1-28.1-4.4-35.6L559.4,661.5z
				 M700.9,591.1c-6.6,3.7-15.6,8-20.4,14c-3.6,4.5-6.1,9.2-7.2,14.8c-0.8,3.8-1.3,7.5-1.6,11.4c-0.9,14.1,7.5,18.9,18.5,8.8
				C700.1,631,711.4,602.7,700.9,591.1z"/>
		</g>
	</g>
	<g id="Under-Belt_M">
		<g id="Sash_M_Option">
			<path class="st0" d="M300.6,64.1c27.2-5.8,69.4,11,105,13.9c38.1,3.1,76.3,0.4,114.4,2.9c22.3,1.5,44.2,7,66.3,10
				c42.5,5.7,85,2.7,127.4-2.8c11.2-1.4,22.6-1.7,33.6-4c27.8-5.8,63.9-12.2,87.8-23.4c21.2-5.3,42.5-6.2,62.4-1.3
				c20.2,5,6.1,45.4,7,61.9c1,17.4,13.5,85.9,21,101.9c8.3,17.7,14.8,37-9.4,48.7c-20.3,9.7-41.9,0.9-62.5-1.8
				c-24.3-3.2-48.4-1.6-72.4,3.1c-29.4,5.7-58.4,16.3-88.3,19.1c-40.1,3.7-80.4-3.7-120.5-3.1c-23,0.3-45.1,7.8-68.2,5.9
				c-38.6-3.1-73.7-18.8-111.1-22.5c-18.8-1.9-37.6,2.5-56.4,2.5c-13,0.1-25-3.5-37.5-6.6c-12.4-3-24-1.8-30.9-13.5
				c-5.1-8.8,5.7-32.8,10.9-40.3c13.3-19.3,16.9-87.5,12.1-109.4C287.3,86.9,281.7,68.1,300.6,64.1z"/>
			<path class="st0" d="M273.1,226.3c42.6-0.1,79.9-0.9,118.3,13.8c130.1,50.1,127.1,43.3,182.4,49c81.4,8.4,113.8,5.3,147.5-2.4
				c13.6-3.1,27.2-7.4,39.4-13.6c21.7-11,42.7-22.3,62-37.6c23.4-18.6,64.3-31.2,97.2-29.7c0,0-6.4-21.5-15.4-85.2
				c-2.3-16.5,8.1-34.5-0.1-56.9c-3.5-9.6-35.8-7-57.8-5.2c-43.3,3.5-62.5,34.9-96,59.9c-19.5,14.6-42.6,31.8-71.4,41.2
				c-45.4,14.7-116,21.4-249.9-23.2c-43.7-14.6-80.7-42.1-138.4-33.2c0,0,2.1,29.6,2.1,44.5C293.1,195.2,273.1,226.3,273.1,226.3z"
				/>
		</g>
		<g id="Girth-Belt_M_Option">
			<path class="st0" d="M600,119.9c-98.9,0-296.6-24-296.6-24l6.4-20.3c0,0,192.9,16,290.1,24c96.8-8,290.1-24,290.1-24l6.4,20.3
				C896.6,95.9,698.9,119.9,600,119.9z"/>
			<path class="st0" d="M600,140.2c-100.9,0-302.7-24-302.7-24l6.2-20.3c0,0,247.1,20,296.6,24c49.4-4,296.6-24,296.6-24l6.2,20.3
				C902.7,116.2,700.9,140.2,600,140.2z"/>
			<path class="st0" d="M600,160.6c-102.4,0-307.3-24-307.3-24l4.6-20.3c0,0,252.3,20,302.7,24c50.5-4,302.7-24,302.7-24l4.6,20.3
				C907.3,136.6,702.4,160.6,600,160.6z"/>
			<path class="st0" d="M600,180.9c-103.7,0-311.2-24-311.2-24l3.9-20.3c0,0,256.1,20,307.3,24c51.2-4,307.3-24,307.3-24l3.9,20.3
				C911.2,156.9,703.7,180.9,600,180.9z"/>
			<path class="st0" d="M600,201.2c-104.9,0-314.7-24-314.7-24l3.5-20.3c0,0,259.3,20,311.2,24c51.9-4,311.2-24,311.2-24l3.5,20.3
				C914.7,177.2,704.9,201.2,600,201.2z"/>
			<path class="st0" d="M600,221.6c-106,0-318-24-318-24l3.3-20.3c0,0,262.3,20,314.7,24c52.5-4,314.7-24,314.7-24l3.3,20.3
				C918,197.6,706,221.6,600,221.6z"/>
			<path class="st0" d="M600,241.9c-107.1,0-321.3-24-321.3-24l3.3-20.3c0,0,265,20,318,24c53-4,318-24,318-24l3.3,20.3
				C921.3,217.9,707.1,241.9,600,241.9z"/>
			<path class="st0" d="M600,262.2c-108.2,0-324.6-24-324.6-24l3.4-20.3c0,0,267.7,20,321.3,24c53.5-4,321.3-24,321.3-24l3.3,20.3
				C924.6,238.2,708.2,262.2,600,262.2z"/>
			<path class="st0" d="M600,282.6c-109.4,0-328.3-24-328.3-24l3.7-20.3c0,0,270.5,20,324.6,24c54.1-4,324.6-24,324.6-24l3.7,20.3
				C928.3,258.6,709.4,282.6,600,282.6z"/>
			<path class="st0" d="M600,302.9c-110.8,0-332.4-24-332.4-24l4.2-20.3c0,0,273.6,20,328.3,24c54.7-4,328.3-24,328.3-24l4.2,20.3
				C932.4,278.9,710.8,302.9,600,302.9z"/>
		</g>
	</g>
	<g id="Belt_M">
		<g id="Pouch-Belt_M_Option">
			<path id="Main-Belt_Pouch-Belt_M" class="st0" d="M915.2,205.3c-71.2,6.5-233.8,30.1-315.9,30.1c-82.9,0-245.5-23.8-315.7-30.1
				l10.5-84.6c57.7,5.2,225,29.2,305.3,29.2c77.9,0,241.7-23.8,303.3-29.5L915.2,205.3z"/>
			<g id="Pouches_Pouch-Belt_M">
				<g>
					<path id="Buckle_Simple-Belt_Classic" class="st0" d="M583.3,142l-98.7-7.9l-10.3,127.7l98.7,7.9L583.3,142z"/>
					<path id="Buckle_Simple-Belt_Classic1" serif:id="Buckle_Simple-Belt_Classic" class="st0" d="M588.3,125L483,116.6l-5.5,68
						l105.4,8.5L588.3,125z"/>
				</g>
				<g>
					<g>
						<path id="Buckle_Simple-Belt_Classic2" serif:id="Buckle_Simple-Belt_Classic" class="st0" d="M616.7,142l98.7-7.9l10.3,127.7
							l-98.7,7.9L616.7,142z"/>
						<path id="Buckle_Simple-Belt_Classic3" serif:id="Buckle_Simple-Belt_Classic" class="st0" d="M611.7,125l105.4-8.5l5.5,68
							L617.1,193L611.7,125z"/>
					</g>
					<g>
						<path id="Buckle_Simple-Belt_Classic4" serif:id="Buckle_Simple-Belt_Classic" class="st0" d="M746.7,129.4l98.7-7.9
							l10.3,127.7l-98.7,7.9L746.7,129.4z"/>
						<path id="Buckle_Simple-Belt_Classic5" serif:id="Buckle_Simple-Belt_Classic" class="st0" d="M741.7,112.4l105.4-8.5l5.5,68
							l-105.4,8.5L741.7,112.4z"/>
					</g>
					<g>
						<path id="Buckle_Simple-Belt_Classic6" serif:id="Buckle_Simple-Belt_Classic" class="st0" d="M872.8,107.7l64.4-5.2
							l10.3,127.7l-64.4,5.2L872.8,107.7z"/>
						<path id="Buckle_Simple-Belt_Classic7" serif:id="Buckle_Simple-Belt_Classic" class="st0" d="M871.4,90.3l70.6-5.7l5.5,68
							l-70.6,5.7L871.4,90.3z"/>
					</g>
				</g>
				<g>
					<path id="Buckle_Simple-Belt_Classic8" serif:id="Buckle_Simple-Belt_Classic" class="st0" d="M453.3,129.4l-98.7-7.9
						l-10.3,127.7l98.7,7.9L453.3,129.4z"/>
					<path id="Buckle_Simple-Belt_Classic9" serif:id="Buckle_Simple-Belt_Classic" class="st0" d="M458.3,112.4L353,103.9l-5.5,68
						l105.4,8.5L458.3,112.4z"/>
				</g>
				<g>
					<path id="Buckle_Simple-Belt_Classic10" serif:id="Buckle_Simple-Belt_Classic" class="st0" d="M327.2,107.7l-64.4-5.2
						l-10.3,127.7l64.4,5.2L327.2,107.7z"/>
					<path id="Buckle_Simple-Belt_Classic11" serif:id="Buckle_Simple-Belt_Classic" class="st0" d="M328.6,90.3l-70.6-5.7l-5.5,68
						l70.6,5.7L328.6,90.3z"/>
				</g>
			</g>
		</g>
		<g id="Basic-Belt_M_Option">
			<path id="Main-Belt_Basic-Belt_M" class="st0" d="M920.8,205.3c-72.3,6.5-237.5,30.1-320.9,30.1c-84.2,0-249.4-23.8-320.7-30.1
				l10.7-84.6C348.5,126,518.4,150,600,150c79.2,0,245.6-23.8,308.1-29.5L920.8,205.3z"/>
			<rect id="Buckle_Basic-Belt_M" x="540.9" y="142" class="st0" width="119.6" height="98.1"/>
		</g>
	</g>
</g>
</svg>
