<?xml version="1.0" encoding="utf-8"?>
<!-- Generator: Adobe Illustrator 25.0.0, SVG Export Plug-In . SVG Version: 6.00 Build 0)  -->
<svg version="1.1" id="Layer_1" xmlns:serif="http://www.serif.com/"
	 xmlns="http://www.w3.org/2000/svg" xmlns:xlink="http://www.w3.org/1999/xlink" x="0px" y="0px" viewBox="0 0 1200 1700"
	 style="enable-background:new 0 0 1200 1700;" xml:space="preserve">
<g id="Shins_M">
	<g id="Left-Shin_M">
		<g id="None_Shin_Left_M_Option">
		</g>
		<g id="Wraps_Shin_Left_M_Option">
			<path class="st0" d="M1029.9,1557.3c-66.7,22-130.3,26-191.1,13.4l-24.8-109.5l203.5-11.4L1029.9,1557.3z"/>
			<path class="st0" d="M1023.8,1475.3c-65.2,27.6-131.8,40.9-199.8,39.2l-22.4-108.4l207.5-43.2L1023.8,1475.3z"/>
			<path class="st0" d="M1018.8,1414.4c-112.6,15.3-194,44.7-212.4,22.6l-18.8-110.2l217.5-4.8L1018.8,1414.4z"/>
			<path class="st0" d="M1013.3,1350.3c0,0-74,11.9-111.4,12.7c-37.8,0.8-115.2-7.9-115.2-7.9l-9.9-105.3l220.3-10L1013.3,1350.3z"
				/>
			<path class="st0" d="M1001.9,1255.1c0,0-74.5,18.5-112.7,23.6c-38.5,5.1-112.2,6.8-112.2,6.8l-12.8-104.1l223.6-36.7
				L1001.9,1255.1z"/>
			<path class="st0" d="M987,1136.8l12.5,83.5c0,0-83-14-123.8-14c-40.2,0-111.6,13-111.6,13l-10.2-103.7c0,0,86.3-18,127.6-18
				c39.4,0,100.8,12,100.8,12L987,1136.8z"/>
		</g>
		<g id="Basic_Shin_Left_M_Option">
			<path id="Shin_Left_Basic_M" class="st0" d="M992.5,1142.9l-45.5-64.1l-77.8,8.4l-70,124.5l93.6,266.7l114.6-15.8L992.5,1142.9z"
				/>
			<path id="Trauma-Plating_Left-Shin_M_ToggleOff" class="st0" d="M978.7,1147.6l14.1,302.8l-90.6,12.5L814.5,1213l63.3-112.7
				l62.5-6.7L978.7,1147.6"/>
		</g>
	</g>
	<g id="Right-Shin_M">
		<g id="None_Shin_Right_M_Option">
		</g>
		<g id="Wraps_Shin_Right_M_Option">
			<path class="st0" d="M170.9,1557.3c66.7,22,130.3,26,191.1,13.4l24.8-109.5l-203.5-11.4L170.9,1557.3z"/>
			<path class="st0" d="M177.1,1475.3c65.2,27.6,131.8,40.9,199.8,39.2l22.4-108.4l-207.5-43.2L177.1,1475.3z"/>
			<path class="st0" d="M182,1414.4c112.6,15.3,194,44.7,212.4,22.6l18.8-110.2l-217.5-4.8L182,1414.4z"/>
			<path class="st0" d="M187.5,1350.3c0,0,74,11.9,111.4,12.7c37.8,0.8,115.2-7.9,115.2-7.9l9.9-105.3l-220.3-10L187.5,1350.3z"/>
			<path class="st0" d="M199,1255.1c0,0,74.5,18.5,112.7,23.6c38.5,5.1,112.2,6.8,112.2,6.8l12.8-104.1L213,1144.7L199,1255.1z"/>
			<path class="st0" d="M213.8,1136.8l-12.5,83.5c0,0,83-14,123.8-14c40.2,0,111.6,13,111.6,13l10.2-103.7c0,0-86.3-18-127.6-18
				c-39.4,0-100.8,12-100.8,12L213.8,1136.8z"/>
		</g>
		<g id="Basic_Shin_Right_M_Option">
			<path id="Shin_Right_Basic_M" class="st0" d="M207.8,1142.9l45.5-64.1l77.8,8.4l70,124.5l-93.6,266.7L193,1462.6L207.8,1142.9z"
				/>
			<path id="Trauma-Plating_Right-Shin_M_ToggleOff" class="st0" d="M221.6,1147.6l-14.1,302.8l90.6,12.5l87.7-249.9l-63.3-112.7
				l-62.5-6.7L221.6,1147.6"/>
		</g>
	</g>
</g>
<g id="Ankles_M">
	<g id="Left-Ankle_M">
		<g id="None_Ankle_Left_M_Option">
		</g>
		<path id="Basic_Ankle_Left_M_Option" class="st0" d="M1096.6,1646.5l-83.1-156.1L869.2,1521l-13.1,44.6l116.6,97.6l49.6,15.8
			L1096.6,1646.5z"/>
	</g>
	<g id="Right-Ankle_M">
		<g id="None_Ankle_Right_M_Option">
		</g>
		<path id="Basic_Ankle_Right_M_Option" class="st0" d="M103.8,1646.5l83.1-156.1l144.3,30.7l13.1,44.6l-116.6,97.6l-49.6,15.8
			L103.8,1646.5z"/>
	</g>
</g>
<g id="Knees_M">
	<g id="Left-Knee_M">
		<g id="None-(Nih-Plates)_Left_M_Option"></g>
		<g id="Legacy_Knee_Left_M_Option">
			<path class="st0" d="M943,949.7L900.5,920l-95,14.8l-37,42.1l30.5,102.7h75.2l71-22.7L943,949.7z"/>
			<path class="st0" d="M957.4,880.3l-54.5-38.1L781,861.1L733.6,915l39.1,131.7l187.5-29.1L957.4,880.3z"/>
		</g>
		<path id="Basic_Knee_Left_M_Option" class="st0" d="M716,914.4l17.2,65.2l47.4-2.5c0,0,18.8,81.6,94.1,76.6
			c78.6-5.2,86.1-99,86.1-99l-11.7-79.4L716,914.4z"/>
	</g>
	<g id="Right-Knee_M">
		<g id="None-(Nih-Plates)_Right_M_Option"></g>
		<g id="Legacy_Knee_Right_M_Option">
			<path class="st0" d="M257.2,949.7l42.5-29.7l95,14.8l37,42.1l-30.5,102.7h-75.2l-71-22.7L257.2,949.7z"/>
			<path class="st0" d="M242.8,880.3l54.5-38.1l121.9,18.9l47.5,53.9l-39.1,131.7l-187.5-29.1L242.8,880.3z"/>
		</g>
		<path id="Basic_Knee_Right_M_Option" class="st0" d="M485.2,913.6l-17.4,66l-47.4-2.5c0,0-18.8,81.6-94.1,76.6
			c-78.6-5.2-86.1-99-86.1-99l11.7-79.4L485.2,913.6z"/>
	</g>
</g>
<g id="Thighs_M">
	<g id="Left-Thigh_M">
		<g id="None_Thigh_Left_M_Option">
		</g>
		<g id="Legacy_Thigh_Left_M_Option">
			<path id="Plate-3_Legacy_Thigh_Left_M" class="st0" d="M729.5,678.6l19.4,96.8l105.5,16.1l92.3-34.6L951,658l-100.6,40.5
				L729.5,678.6z"/>
			<path id="Plate-2_Legacy_Thigh_Left_M" class="st0" d="M707.3,598.7l16.5,79l126.5,20.8l106.4-42.9l5.2-112.5l-120.2,65.8
				L707.3,598.7z"/>
			<path id="Plate-1_Legacy_Thigh_Left_M" class="st0" d="M973.4,451.3l-80.5-79.9L810.4,383L690.2,534l13.8,64.4l137.8,10.5
				l125.8-68.8L973.4,451.3z"/>
		</g>
		<g id="Basic_Thigh_Left_M_Option">
			<path id="Thigh_Left_Basic_M" class="st0" d="M973.4,451.3l-80.5-79.9L810.4,383L690.2,534l61.3,286.1l47,26.4l150.1-19
				L973.4,451.3z"/>
			<path id="Trauma-Plating_Left-Thigh_M_ToggleOff" class="st0" d="M959,456.7l-23.7,358.4l-134,17l-37.5-21l-58.6-273.5
				l112.7-141.4l70.1-9.9L959,456.7"/>
		</g>
	</g>
	<g id="Right-Thigh_M">
		<g id="None_Thigh_Right_M_Option">
		</g>
		<g id="Legacy_Thigh_Right_M_Option">
			<path id="Plate-3_Legacy_Thigh_Right_M" class="st0" d="M470.8,678.6l-19.4,96.8l-105.5,16.1l-92.3-34.6l-4.3-98.9l100.6,40.5
				L470.8,678.6z"/>
			<path id="Plate-2_Legacy_Thigh_Right_M" class="st0" d="M493,598.7l-16.5,79l-126.5,20.8l-106.4-42.9l-5.2-112.5l120.2,65.8
				L493,598.7z"/>
			<path id="Plate-1_Legacy_Thigh_Right_M" class="st0" d="M226.9,451.3l80.5-79.9l82.5,11.6l120.3,151l-13.8,64.4l-137.8,10.5
				l-125.8-68.8L226.9,451.3z"/>
		</g>
		<g id="Basic_Thigh_Right_M_Option">
			<path id="Thigh_Right_Basic_M" class="st0" d="M226.9,451.3l80.5-79.9l82.5,11.6l120.3,151l-61.3,286.1l-47,26.4l-150.1-19
				L226.9,451.3z"/>
			<path id="Trauma-Plating_Right-Thigh_M_ToggleOff" class="st0" d="M241.3,456.7L265,815.1l134,17l37.5-21l58.6-273.5L382.4,396.1
				l-70.1-9.9L241.3,456.7"/>
		</g>
	</g>
</g>
<g id="Groin_M">
	<g id="None_Groin_M_Option">
	</g>
	<g id="Basic_Groin_M_Option">
		<path id="Groin_Basic_M" class="st0" d="M533.8,517.5L423,273.4h354.3L666.5,517.5l-66.4,58.2L533.8,517.5z"/>
		<path id="Trauma-Plating_Groin_M_ToggleOff" class="st0" d="M545.5,497.1L454.2,296h291.9l-91.3,201.1L600.2,545L545.5,497.1z"/>
	</g>
</g>
<g id="Waist_M">
	<g id="Accessories_Waist_M">
		<g id="Kama_M_ToggleOff">
			<g id="Clean_Kama_M_Option">
				<g id="Trim_Kama-Clean">
					<path class="st1" d="M774.1,104.9l38.1,609.9L1092.2,901L879.8,76L774.1,104.9z"/>
					<path class="st1" d="M426.2,104.9l-38.1,609.9L108.1,901L320.5,76L426.2,104.9z"/>
				</g>
				<g id="Main_Kama-Clean">
					<path class="st1" d="M794.1,103.6l36.8,589.9l252.7,173.6L879.8,76L794.1,103.6z"/>
					<path class="st1" d="M406.3,103.6l-36.8,589.9L116.8,867.2L320.5,76L406.3,103.6z"/>
				</g>
			</g>
			<g id="Tattered_Kama_M_Option">
				<g id="Main_Kama-Tattered">
					<path class="st0" d="M881.3,77.6c24.1-5.3,35.6,128.5,49.8,193.1c6.4,29.3,7.4,58.9,15,88.2c13.2,50.9,36.7,101.7,47.7,151.7
						c8.8,40,3.2,81.3,12.9,121.4c7.4,30.4,22.7,56.7,32.9,85.7c11.4,32.5,18.5,65,26.7,98.4c5,20.4,10.9,39.9,17.5,59.8
						c2.2,6.7,4.1,13.5,5.8,20.4c0.5,2.1,1,4.2,1.5,6.3c0.3,1.3,1.8,4.7,0.8,3.8c-6.9-6.1-10.6-17.6-17-24.7
						c-12.5-13.9-28.2-24.3-40-38.9c-4.6-5.6-8.1-11.9-11.3-18.4c-0.3-0.6-2.4-5.5-2.6-5.5c-24.2,5.1-48.3,14.3-68.9-6.3
						c-16.4-16.3-30.5-51.5-38.8-73.3c-3.5-9.1,1.2-63-5-68.1c-4.6-3.7-8.8,44.8-14.3,41.5c-34.8-20.5-84.2-32.8-84.2-32.8
						s-3.9-68.7-1-108c2.5-35.3-2.4-66-7.6-100.5C794.2,427,795,381,798,336.2C802.8,263.3,747.1,107.2,881.3,77.6z M960.9,738.3
						c-4.3,18.1-4.7,38.9,5.6,55.2c3.4,5.5,12.1,14.2,19.6,11.8c31.7-9.8-7.1-58.6-17.3-69.5L960.9,738.3z M867.9,605.6
						c-5.7,3.5-10.7,7.6-14.8,12.9c-15,19.1,26.2,9.6,19.1-13.6L867.9,605.6z"/>
					<path class="st0" d="M319.1,77.6c-24.1-5.3-35.6,128.5-49.8,193.1c-6.4,29.3-7.4,58.9-15,88.2
						c-13.2,50.9-36.7,101.7-47.7,151.7c-8.8,40-3.2,81.3-12.9,121.4c-7.4,30.4-22.7,56.7-32.9,85.7c-11.4,32.5-18.5,65-26.7,98.4
						c-5,20.4-10.9,39.9-17.5,59.8c-2.2,6.7-4.1,13.5-5.9,20.4c-0.5,2.1-1,4.2-1.5,6.3c-0.3,1.3-1.8,4.7-0.8,3.8
						c6.9-6.1,10.6-17.6,17-24.7c12.5-13.9,31.9-2.5,43.8-17.1c4.6-5.6,10.6-18.9,13.8-25.4c0.3-0.6,8.6-16.5,8.9-16.5
						c24.2,5.1,9.1,23.3,29.7,2.7c16.4-16.3,57.2-64.3,65.6-86.1c3.5-9.1-3.2-28.2,3-33.3c4.6-3.7,10.8,10,16.3,6.7
						c34.8-20.5,78-59.1,78-59.1s10.1-42.4,7.3-81.7c-2.5-35.3,2.4-66,7.6-100.5c6.7-44.7,5.9-90.6,2.9-135.5
						C397.5,263.3,453.3,107.2,319.1,77.6z M230.7,750.5c4.3,18.1,3.7,14.9-6.6,31.2c-3.4,5.5-2.3,25.9-9.9,23.6
						c-31.7-9.8,7.1-58.6,17.3-69.5L230.7,750.5z M305.8,666.3c5.7,3.5,24-1,28.2,4.2c15,19.1-41.5,35.6-34.4,12.4L305.8,666.3z"/>
				</g>
			</g>
		</g>
		<g id="Loin-Cloth_M_ToggleOff">
			<g id="Clean_Loin-Cloth_M_Option">
				<path id="Trim_Loin-Cloth-Clean" class="st1" d="M734.2,144.1H466.1v477.1l134,134l134-134V144.1z"/>
				<path id="Main_Loin-Cloth-Clean" class="st1" d="M717,194.3H483.3v415.9L600.2,727L717,610.2V194.3z"/>
			</g>
			<path id="Tattered_Loin-Cloth_M_Option" class="st0" d="M734.9,142.4c-0.8,28.1-2.1,56-0.1,84.1c1.8,24.6,6.7,49.9,6.5,74.6
				c-0.2,19.5-6.1,38.2-7.5,57.5c-2.2,31.8,1.1,65.9,4.7,97.5c7.2,62-20.2,270.4-20.2,270.4l-55.5-50.5l-37.5,91.5l-31.3-58.7
				l-28.4,47.2l-21.6-8.3l-14.9,63.6l-24.9-48.9l-15.9-53.2c0,0-4.4-26-13.8-71.7c-4-19.6-14-39-14.7-59.2
				c-1.7-50.2,16.3-100.4,18.1-150.7c1.4-40.1-9.8-79.1-13.4-118.8c-3.1-34.6-8.5-89.7,15.6-118.3
				C505,161.2,734.9,142.4,734.9,142.4z M559.6,660.7c-1.4,6.3-2.9,12.6-4,19c-0.7,3.9-1.2,7.8-1.5,11.7c-0.3,5.3,0.2,11.2,2.5,16.1
				c0.2,0.4,3.6-1.4,3.9-1.6c3.8-2.4,6.3-6.1,7.7-10.3c3.2-9.9,5.1-28.1-4.4-35.6L559.6,660.7z M701.1,590.3
				c-6.6,3.7-15.6,8-20.4,14c-3.6,4.5-6.1,9.2-7.2,14.8c-0.8,3.8-1.3,7.5-1.6,11.4c-0.9,14.1,7.5,18.9,18.5,8.8
				C700.3,630.3,711.6,601.9,701.1,590.3z"/>
		</g>
		<g id="Left-Holster_M_ToggleOff">
			<g id="Weapon_Holster-Left_M">
				<g id="Main_Weapon_Holster-Left_M">
					<path class="st0" d="M941.7,521.3l1.8-38.4l6.6,0.3l1.1-24.1l-6.6-0.3l0.6-12.6c0.2-4.1,5.8-7.1,12.5-6.8
						c15.4,0.7,41.7,1.9,57,2.6c6.7,0.3,12,3.9,11.8,7.9l-0.6,12.6l-6.6-0.3l-1.1,24.1l6.6,0.3l-1.8,38.4l-15.5-0.7l-4.9,106.2
						l-50.2-2.3l4.9-106.2L941.7,521.3z"/>
					<path class="st0" d="M1016.6,519.1l-8.9-0.4l-5.9,127.7l-50.2-2.3l5.9-127.7l-8.9-0.4l1.3-29.1l68.1,3.1L1016.6,519.1z"/>
					<path class="st0" d="M1005.9,450l-40.3-1.9l-1.8,39.4l40.3,1.9L1005.9,450z"/>
					<path class="st0" d="M968.5,528.4l-6.6-0.3l-4.6,100.4l6.6,0.3L968.5,528.4z"/>
					<path class="st0" d="M986.4,506.3l-6.6-0.3l-4.6,100.4l6.6,0.3L986.4,506.3z"/>
					<path class="st0" d="M1002.2,530l-6.6-0.3L991,630l6.6,0.3L1002.2,530z"/>
				</g>
				<g id="Accent_Weapon_Holster-Left_M">
					<path class="st0" d="M969.5,491.8l-0.2,4l28.4,1.3l0.2-4L969.5,491.8z"/>
					<path class="st0" d="M969.4,495.8l-0.2,4l28.4,1.3l0.2-4L969.4,495.8z"/>
					<path class="st0" d="M969.7,487.8l-0.2,4l28.4,1.3l0.2-4L969.7,487.8z"/>
					<path class="st0" d="M972,438.3l-0.2,4l28.4,1.3l0.2-4L972,438.3z"/>
					<path class="st0" d="M972.2,448.4l-6.6-0.3l-1.8,39.4l6.6,0.3L972.2,448.4z"/>
					<path class="st0" d="M1005.9,450l-6.6-0.3l-1.8,39.4l6.6,0.3L1005.9,450z"/>
					<path class="st0" d="M995.6,529.7l-10-0.5l-4.6,100.4l10,0.5L995.6,529.7z"/>
					<path class="st0" d="M978.6,528.9l-10-0.5l-4.6,100.4l10,0.5L978.6,528.9z"/>
				</g>
			</g>
			<path id="Holster_Holster-Left_M" class="st0" d="M942.1,669.3L934,507.6l74.7,121.7l-16.5,220c-17.4,18.3-34.6,18.4-51.4-2
				L942.1,669.3z"/>
			<g id="Straps_Holster-Left_M">
				<path class="st0" d="M656.3,246.7C738,363.9,820.3,463.2,934,507.6l1.4,27.7C794,475.7,718.2,374.7,634.6,246.7H656.3z"/>
				<path class="st0" d="M941.7,702.2c-76.5,58.5-159.1,90.4-258,95.7l7,21.9c85.6-7.8,165.6-39.5,251-94.5V702.2z"/>
				<path class="st0" d="M941.7,725.3l0.2-23.1c19.9,8.8,43,9.5,61.2,3l-1.8,23.6C981.7,733.8,959.4,734.1,941.7,725.3z"/>
			</g>
			<g id="Buckle_Holster-Left_M">
				<path class="st0" d="M763.2,796.7l-10.7,1.6l0.5,3.5l10.7-1.6L763.2,796.7"/>
				<path class="st0" d="M734,365.1l-7.4-9.8l-2.8,2.1l7.4,9.8L734,365.1"/>
				<path class="st0" d="M731.2,367.3l-12.1,9.8l-28.6-35.3l27.6-22.3l28.6,35.3L733.9,365l-6.2-8.1l6.2-5l-15.8-19.5L703,344.7
					l15.8,19.5l6.2-5.1L731.2,367.3"/>
				<path class="st0" d="M762.8,796.8l-8.5,1.3l-1.2-8.3l-20.6,4.4l2.9,19.3L756,809l-1.1-7.5l8.5-1.3l2.2,14.8l-37.3,8l-5.2-35
					l37.3-8L762.8,796.8"/>
			</g>
		</g>
		<g id="Right-Holster_M_ToggleOff">
			<g id="Weapon_Holster-Right_M">
				<g id="Main_Weapon_Holster-Right_M">
					<path class="st0" d="M259,521.3l-1.8-38.4l-6.6,0.3l-1.1-24.1l6.6-0.3l-0.6-12.6c-0.2-4.1-5.8-7.1-12.5-6.8
						c-15.4,0.7-41.7,1.9-57,2.6c-6.7,0.3-12,3.9-11.8,7.9l0.6,12.6l6.6-0.3l1.1,24.1l-6.6,0.3l1.8,38.4l15.5-0.7l4.9,106.2
						l50.2-2.3L243.5,522L259,521.3z"/>
					<path class="st0" d="M184.1,519.1l8.9-0.4l5.9,127.7l50.2-2.3l-5.9-127.7l8.9-0.4l-1.3-29.1l-68.1,3.1L184.1,519.1z"/>
					<path class="st0" d="M194.8,450l40.3-1.9l1.8,39.4l-40.3,1.9L194.8,450z"/>
					<path class="st0" d="M232.2,528.4l6.6-0.3l4.6,100.4l-6.6,0.3L232.2,528.4z"/>
					<path class="st0" d="M214.3,506.3l6.6-0.3l4.6,100.4l-6.6,0.3L214.3,506.3z"/>
					<path class="st0" d="M198.5,530l6.6-0.3l4.6,100.4l-6.6,0.3L198.5,530z"/>
				</g>
				<g id="Accent_Weapon_Holster-Right_M">
					<path class="st0" d="M231.1,491.8l0.2,4l-28.4,1.3l-0.2-4L231.1,491.8z"/>
					<path class="st0" d="M231.3,495.8l0.2,4l-28.4,1.3l-0.2-4L231.3,495.8z"/>
					<path class="st0" d="M231,487.8l0.2,4l-28.4,1.3l-0.2-4L231,487.8z"/>
					<path class="st0" d="M228.7,438.3l0.2,4l-28.4,1.3l-0.2-4L228.7,438.3z"/>
					<path class="st0" d="M228.5,448.4l6.6-0.3l1.8,39.4l-6.6,0.3L228.5,448.4z"/>
					<path class="st0" d="M194.8,450l6.6-0.3l1.8,39.4l-6.6,0.3L194.8,450z"/>
					<path class="st0" d="M205.1,529.7l10-0.5l4.6,100.4l-10,0.5L205.1,529.7z"/>
					<path class="st0" d="M222.1,528.9l10-0.5l4.6,100.4l-10,0.5L222.1,528.9z"/>
				</g>
			</g>
			<path id="Holster_Holster-Right_M" class="st0" d="M258.6,669.3l8.1-161.7L192,629.3l16.5,220c17.4,18.3,34.6,18.4,51.4-2
				L258.6,669.3z"/>
			<g id="Straps_Holster-Right_M">
				<path class="st0" d="M544.4,246.7c-81.7,117.2-164,216.5-277.7,260.9l-1.4,27.7c141.4-59.6,217.2-160.6,300.8-288.6H544.4z"/>
				<path class="st0" d="M259,702.2c76.5,58.5,159.1,90.4,258,95.7l-7,21.9c-85.6-7.8-165.6-39.5-251-94.5V702.2z"/>
				<path class="st0" d="M259,725.3l-0.2-23.1c-19.9,8.8-43,9.5-61.2,3l1.8,23.6C219,733.8,241.3,734.1,259,725.3z"/>
			</g>
			<g id="Buckle_Holster-Right_M">
				<path class="st0" d="M437.7,796.7l10.7,1.6l-0.5,3.5l-10.7-1.6L437.7,796.7"/>
				<path class="st0" d="M466.9,365.1l7.4-9.8l2.8,2.1l-7.4,9.8L466.9,365.1"/>
				<path class="st0" d="M469.8,367.3l12.1,9.8l28.6-35.3L483,319.5l-28.6,35.3L467,365l6.2-8.1l-6.2-5l15.8-19.5l15.2,12.3
					l-15.8,19.5l-6.2-5.1L469.8,367.3"/>
				<path class="st0" d="M438.1,796.8l8.5,1.3l1.2-8.3l20.6,4.4l-2.9,19.3L445,809l1.1-7.5l-8.5-1.3l-2.2,14.8l37.3,8l5.2-35
					l-37.3-8L438.1,796.8"/>
			</g>
		</g>
	</g>
	<g id="Under-Belt_M">
		<g id="Sash_M_Option">
			<path class="st0" d="M300.8,63.4c27.2-5.8,69.4,11,105,13.9c38.1,3.1,76.3,0.4,114.4,2.9c22.3,1.5,44.2,7,66.3,10
				c42.5,5.7,85,2.7,127.4-2.8c11.2-1.4,22.6-1.7,33.6-4c27.8-5.8,63.9-12.2,87.8-23.4c21.2-5.3,42.5-6.2,62.4-1.3
				c20.2,5,6.1,45.4,7,61.9c1,17.4,13.5,85.9,21,101.9c8.3,17.7,14.8,37-9.4,48.7c-20.3,9.7-41.9,0.9-62.5-1.8
				c-24.3-3.2-48.4-1.6-72.4,3.1c-29.4,5.7-58.4,16.3-88.3,19.1c-40.1,3.7-80.4-3.7-120.5-3.1c-23,0.3-45.1,7.8-68.2,5.9
				c-38.6-3.1-73.7-18.8-111.1-22.5c-18.8-1.9-37.6,2.5-56.4,2.5c-13,0-25-3.5-37.5-6.6c-12.4-3-24-1.8-30.9-13.5
				c-5.1-8.8,5.7-32.8,10.9-40.3c13.3-19.3,16.9-87.5,12.1-109.4C287.4,86.1,281.9,67.4,300.8,63.4z"/>
			<path class="st0" d="M273.2,225.5c42.6-0.1,79.9-0.9,118.3,13.9c130.1,50.1,127.1,43.3,182.4,49c81.4,8.4,113.8,5.3,147.5-2.4
				c13.6-3.1,27.2-7.4,39.4-13.6c21.7-11,42.7-22.3,62-37.6c23.4-18.6,64.3-31.2,97.2-29.7c0,0-6.4-21.5-15.4-85.2
				c-2.3-16.5,8.1-34.5-0.1-56.9c-3.5-9.6-35.8-7-57.8-5.2c-43.3,3.5-62.5,34.9-96,59.9c-19.5,14.6-42.6,31.9-71.4,41.2
				c-45.4,14.7-116,21.4-249.9-23.2c-43.7-14.6-80.7-42.1-138.4-33.2c0,0,2.1,29.6,2.1,44.5C293.3,194.4,273.2,225.5,273.2,225.5z"
				/>
		</g>
		<g id="Girth-Belt_M_Option">
			<path class="st0" d="M600.2,119.1c-98.9,0-296.6-24-296.6-24l6.4-20.3c0,0,192.9,16,290.1,24c96.8-8,290.1-24,290.1-24l6.4,20.3
				C896.7,95.1,699,119.1,600.2,119.1z"/>
			<path class="st0" d="M600.2,139.4c-100.9,0-302.7-24-302.7-24l6.2-20.3c0,0,247.1,20,296.6,24c49.4-4,296.6-24,296.6-24l6.2,20.3
				C902.9,115.4,701.1,139.4,600.2,139.4z"/>
			<path class="st0" d="M600.2,159.8c-102.4,0-307.3-24-307.3-24l4.6-20.3c0,0,252.3,20,302.7,24c50.5-4,302.7-24,302.7-24l4.6,20.3
				C907.5,135.8,702.6,159.8,600.2,159.8z"/>
			<path class="st0" d="M600.2,180.1c-103.7,0-311.2-24-311.2-24l3.9-20.3c0,0,256.1,20,307.3,24c51.2-4,307.3-24,307.3-24l3.9,20.3
				C911.4,156.1,703.9,180.1,600.2,180.1z"/>
			<path class="st0" d="M600.2,200.4c-104.9,0-314.7-24-314.7-24l3.5-20.3c0,0,259.3,20,311.2,24c51.9-4,311.2-24,311.2-24l3.5,20.3
				C914.9,176.4,705.1,200.4,600.2,200.4z"/>
			<path class="st0" d="M600.2,220.8c-106,0-318-24-318-24l3.3-20.3c0,0,262.3,20,314.7,24c52.5-4,314.7-24,314.7-24l3.3,20.3
				C918.2,196.8,706.2,220.8,600.2,220.8z"/>
			<path class="st0" d="M600.2,241.1c-107.1,0-321.3-24-321.3-24l3.3-20.3c0,0,265,20,318,24c53-4,318-24,318-24l3.3,20.3
				C921.4,217.1,707.3,241.1,600.2,241.1z"/>
			<path class="st0" d="M600.2,261.4c-108.2,0-324.6-24-324.6-24l3.3-20.3c0,0,267.7,20,321.3,24c53.5-4,321.3-24,321.3-24l3.3,20.3
				C924.8,237.4,708.4,261.4,600.2,261.4z"/>
			<path class="st0" d="M600.2,281.8c-109.4,0-328.3-24-328.3-24l3.7-20.3c0,0,270.5,20,324.6,24c54.1-4,324.6-24,324.6-24l3.7,20.3
				C928.4,257.8,709.6,281.8,600.2,281.8z"/>
			<path class="st0" d="M600.2,302.1c-110.8,0-332.4-24-332.4-24l4.2-20.3c0,0,273.6,20,328.3,24c54.7-4,328.3-24,328.3-24l4.2,20.3
				C932.6,278.1,711,302.1,600.2,302.1z"/>
		</g>
	</g>
	<g id="Belt_M">
		<g id="Pouch-Belt-Full_M_Option">
			<path id="Main_Pouch-Belt-Full_M" class="st0" d="M921.1,204.7c-72.3,6.5-237.5,30.1-320.9,30.1c-84.2,0-249.4-23.8-320.7-30.1
				l10.7-84.6c58.7,5.2,228.6,29.2,310.1,29.2c79.2,0,245.6-23.8,308.1-29.5L921.1,204.7z"/>
			<g id="Pouches_Pouch-Belt-Full_M">
				<g>
					<g>
						<g>
							<path class="st0" d="M450.5,119.7c-3-0.2-6.1,0.3-9,1.4c-7.5,3-22.3,8.8-22.3,8.8l85.7,4.9l23.2-10
								C528.1,124.8,467.8,120.9,450.5,119.7z"/>
							<path class="st0" d="M531.1,127.7c0.1-0.9-0.3-1.8-1-2.3s-1.7-0.7-2.5-0.3c-7.5,3.2-22.6,9.7-22.6,9.7l-11.2,132.3
								c7.7-4.4,15.3-7.3,22.8-9c4.3-0.9,7.4-4.6,7.6-9C525.4,208.6,527,168.1,531.1,127.7z"/>
							<path class="st0" d="M504.9,134.8l-85.7-4.9c-0.5,20.1-2.4,40.2-3.5,60.3c-1.1,22.2-1.6,44.5-3.6,66.9
								c-0.1,1.6,0.4,3.2,1.5,4.4c1.1,1.2,2.6,1.9,4.3,1.9c24.6-0.1,49.1,1.4,73.5,4.2c1.5,0.2,3.1-0.3,4.2-1.2c1.2-1,1.9-2.4,2-3.9
								c1.1-15.6,3.9-56.9,3.9-56.9L504.9,134.8z"/>
							<path class="st0" d="M504.9,134.8l-85.7-4.9c0,0-2,16.9-4,33.5c-1,8,1.4,16.1,6.6,22.3c5.2,6.2,12.7,10,20.8,10.4
								c10.1,0.6,21.4,1.2,31.5,1.8c8.1,0.5,16-2.4,21.9-8s9.2-13.4,9.1-21.5C505,151.8,504.9,134.8,504.9,134.8z"/>
							<path class="st0" d="M459.3,181.3c3,0.2,5.4,2.8,5.2,5.8c-0.2,3-2.8,5.4-5.8,5.2c-3-0.2-5.4-2.8-5.2-5.8
								C453.7,183.4,456.3,181.1,459.3,181.3z"/>
						</g>
					</g>
					<g>
						<g>
							<path class="st0" d="M332.3,103.6c-3.3-0.2-6.6,0.4-9.6,1.7c-7.1,3.1-19.7,8.6-19.7,8.6l78.2,4.5l21.2-10.1
								C402.3,108.3,349.1,104.7,332.3,103.6z"/>
							<path class="st0" d="M405,111.3c0.1-0.9-0.3-1.8-1.1-2.4c-0.8-0.5-1.7-0.6-2.6-0.2c-7,3.3-20.3,9.7-20.3,9.7l-10.8,132.4
								c6.9-4.4,13.7-7.3,20.5-9c4.2-1,7.2-4.7,7.3-8.9C399.4,192.2,401.1,151.7,405,111.3z"/>
							<path class="st0" d="M381.1,118.4l-78.2-4.5c-0.6,20.1-2.4,40.2-3.5,60.3c-1.1,22.2-1.7,44.5-3.6,66.9
								c-0.1,1.6,0.4,3.2,1.5,4.4c1.1,1.2,2.7,1.9,4.3,1.8c22.1-0.2,44,1.1,65.9,3.8c1.5,0.2,3.1-0.3,4.3-1.2c1.2-1,1.9-2.4,2-3.9
								c1.1-15.7,3.9-56.9,3.9-56.9L381.1,118.4z"/>
							<path class="st0" d="M381.1,118.4l-78.2-4.5c0,0-2,17.1-3.8,33.6c-0.9,8,1.5,16,6.7,22.2c5.2,6.2,12.7,9.9,20.7,10.4
								c7.7,0.4,15.9,0.9,23.6,1.4c8.1,0.5,16-2.4,21.8-8c5.9-5.5,9.2-13.3,9.2-21.3C381.1,135.5,381.1,118.4,381.1,118.4z"/>
							<path class="st0" d="M339.2,165.1c2.8,0.2,4.9,2.8,4.7,5.8c-0.2,3-2.6,5.4-5.3,5.2c-2.8-0.2-4.9-2.8-4.7-5.8
								S336.5,164.9,339.2,165.1z"/>
						</g>
					</g>
					<g>
						<path class="st0" d="M253.4,112.4l5.8-9.1l30,1l3.7,11.3L253.4,112.4z"/>
						<path class="st0" d="M292.8,116.7c0.1-0.7-0.1-1.4-0.6-2c-0.5-0.5-1.1-0.9-1.9-0.9c-9-0.3-36.9-1.4-36.9-1.4l-5.3,119.1
							c1.2,3,16.3,4.9,28.4,5.2c5.3,0.1,9.7-4.1,9.8-9.3C287.2,190.4,288.5,153.4,292.8,116.7z"/>
					</g>
				</g>
				<g>
					<g>
						<g>
							<path class="st0" d="M750.2,119.7c3-0.2,6.1,0.3,8.9,1.4c7.5,3,22.3,8.8,22.3,8.8l-85.7,4.9l-23.2-10
								C672.6,124.8,732.8,120.9,750.2,119.7z"/>
							<path class="st0" d="M669.6,127.7c-0.1-0.9,0.3-1.8,1-2.3s1.7-0.7,2.5-0.3c7.5,3.2,22.6,9.7,22.6,9.7l11.2,132.3
								c-7.7-4.4-15.3-7.3-22.8-9c-4.3-0.9-7.4-4.6-7.6-9C675.3,208.6,673.7,168.1,669.6,127.7z"/>
							<path class="st0" d="M695.8,134.8l85.7-4.9c0.5,20.1,2.4,40.2,3.5,60.3c1.1,22.2,1.6,44.5,3.6,66.9c0.1,1.6-0.4,3.2-1.5,4.4
								c-1.1,1.2-2.6,1.9-4.3,1.9c-24.6-0.1-49.1,1.4-73.5,4.2c-1.5,0.2-3.1-0.3-4.2-1.2c-1.2-1-1.9-2.4-2-3.9
								c-1.1-15.6-3.9-56.9-3.9-56.9L695.8,134.8z"/>
							<path class="st0" d="M695.8,134.8l85.7-4.9c0,0,2,16.9,4,33.5c1,8-1.4,16.1-6.6,22.3c-5.2,6.2-12.7,10-20.8,10.4
								c-10.1,0.6-21.4,1.2-31.5,1.8c-8.1,0.5-16-2.4-21.9-8c-5.9-5.6-9.2-13.4-9.1-21.5C695.7,151.8,695.8,134.8,695.8,134.8z"/>
							<path class="st0" d="M741.3,181.3c-3,0.2-5.4,2.8-5.2,5.8c0.2,3,2.8,5.4,5.8,5.2c3-0.2,5.4-2.8,5.2-5.8
								C747,183.4,744.4,181.1,741.3,181.3z"/>
						</g>
					</g>
					<g>
						<g>
							<path class="st0" d="M868.4,103.6c3.3-0.2,6.6,0.4,9.7,1.7c7.1,3.1,19.7,8.6,19.7,8.6l-78.2,4.5l-21.2-10.1
								C798.4,108.3,851.6,104.7,868.4,103.6z"/>
							<path class="st0" d="M795.7,111.3c-0.1-0.9,0.3-1.8,1.1-2.4s1.7-0.6,2.6-0.2c7,3.3,20.3,9.7,20.3,9.7l10.8,132.4
								c-6.9-4.4-13.7-7.3-20.5-9c-4.2-1-7.2-4.7-7.3-8.9C801.3,192.2,799.6,151.7,795.7,111.3z"/>
							<path class="st0" d="M819.6,118.4l78.2-4.5c0.6,20.1,2.4,40.2,3.5,60.3c1.1,22.2,1.7,44.5,3.6,66.9c0.1,1.6-0.4,3.2-1.5,4.4
								c-1.1,1.2-2.7,1.9-4.3,1.8c-22.1-0.2-44,1.1-65.9,3.8c-1.5,0.2-3.1-0.3-4.3-1.2c-1.2-1-1.9-2.4-2-3.9
								c-1.1-15.7-3.9-56.9-3.9-56.9L819.6,118.4z"/>
							<path class="st0" d="M819.6,118.4l78.2-4.5c0,0,2,17.1,3.8,33.6c0.9,8-1.5,16-6.7,22.2c-5.2,6.2-12.7,9.9-20.7,10.4
								c-7.7,0.4-15.9,0.9-23.6,1.4c-8.1,0.5-16-2.4-21.8-8c-5.9-5.5-9.2-13.3-9.2-21.3C819.6,135.5,819.6,118.4,819.6,118.4z"/>
							<path class="st0" d="M861.4,165.1c-2.8,0.2-4.9,2.8-4.7,5.8c0.2,3,2.6,5.4,5.3,5.2c2.8-0.2,4.9-2.8,4.7-5.8
								C866.6,167.2,864.2,164.9,861.4,165.1z"/>
						</g>
					</g>
					<g>
						<path class="st0" d="M947.2,112.4l-5.8-9.1l-30,1l-3.7,11.3L947.2,112.4z"/>
						<path class="st0" d="M907.9,116.7c-0.1-0.7,0.1-1.4,0.6-2c0.5-0.5,1.1-0.9,1.9-0.9c9-0.3,36.9-1.4,36.9-1.4l5.3,119.1
							c-1.2,3-16.3,4.9-28.4,5.2c-5.3,0.1-9.7-4.1-9.8-9.3C913.5,190.4,912.1,153.4,907.9,116.7z"/>
					</g>
				</g>
				<path class="st0" d="M638.6,127l11.8,11.6l-97-1.8l7.5-10.6L638.6,127z"/>
				<path class="st0" d="M553.4,136.7l96.7,1.8c-1.1,21-0.6,41.9-1.2,62.9c-0.6,23.2-1.9,46.6-1.6,70.1c0,1.6-0.6,3.2-1.8,4.3
					c-1.2,1.1-2.8,1.7-4.4,1.5c-28.1-2.1-56.3-2.6-84.5-1.6c-1.5,0.1-3-0.5-4.1-1.6c-1.1-1.1-1.7-2.5-1.7-4.1
					c0.1-16.1,0.4-59.7,0.4-59.7L553.4,136.7z"/>
				<path class="st0" d="M553.4,136.7l96.7,1.8c0,0,0.9,18.6,1.7,36.2c0.4,8.1-2.6,16-8.3,21.8c-5.7,5.8-13.5,9-21.6,8.9
					c-13.6-0.3-29.5-0.6-43.2-0.8c-8.1-0.2-15.8-3.7-21.3-9.7c-5.4-6.1-8.1-14.1-7.4-22.2C551.7,155.1,553.4,136.7,553.4,136.7z"/>
				<path class="st0" d="M600.7,188.6c-3.4-0.1-6.3,2.5-6.3,5.6c-0.1,3.2,2.7,5.8,6.1,5.9c3.4,0.1,6.3-2.5,6.3-5.6
					S604.1,188.7,600.7,188.6z"/>
			</g>
		</g>
		<g id="Pouch-Belt-6_M_Option">
			<path id="Main_Pouch-Belt-6_M" class="st0" d="M921.1,204.6c-72.3,6.5-237.5,30.1-320.9,30.1c-84.2,0-249.4-23.8-320.7-30.1
				l10.7-84.6c58.7,5.2,228.6,29.2,310.1,29.2c79.2,0,245.6-23.8,308.1-29.5L921.1,204.6z"/>
			<rect id="Buckle_Pouch-Belt-6_M" x="541.2" y="141.3" class="st0" width="119.6" height="98.1"/>
			<g id="Pouches_Pouch-Belt-6_M">
				<g>
					<g>
						<g>
							<path class="st0" d="M450.5,119.7c-3-0.2-6.1,0.3-9,1.4c-7.5,3-22.3,8.8-22.3,8.8l85.7,4.9l23.2-10
								C528.1,124.8,467.8,120.8,450.5,119.7z"/>
							<path class="st0" d="M531.1,127.6c0.1-0.9-0.3-1.8-1-2.3c-0.7-0.5-1.7-0.6-2.5-0.3c-7.5,3.2-22.6,9.7-22.6,9.7l-11.2,132.3
								c7.7-4.4,15.3-7.3,22.8-9c4.3-0.9,7.4-4.6,7.6-9C525.4,208.5,527,168,531.1,127.6z"/>
							<path class="st0" d="M504.9,134.7l-85.7-4.9c-0.5,20.1-2.4,40.2-3.5,60.3c-1.1,22.2-1.6,44.5-3.6,66.9
								c-0.1,1.6,0.4,3.2,1.5,4.4c1.1,1.2,2.6,1.9,4.3,1.9c24.6-0.1,49.1,1.4,73.5,4.2c1.5,0.2,3.1-0.3,4.2-1.2c1.2-1,1.9-2.4,2-3.9
								c1.1-15.6,3.9-56.9,3.9-56.9L504.9,134.7z"/>
							<path class="st0" d="M504.9,134.7l-85.7-4.9c0,0-2,16.9-4,33.4c-1,8,1.4,16.1,6.6,22.3c5.2,6.2,12.7,10,20.8,10.4
								c10.1,0.6,21.4,1.2,31.5,1.8c8.1,0.5,16-2.4,21.9-8c5.9-5.6,9.2-13.4,9.1-21.5C505,151.8,504.9,134.7,504.9,134.7z"/>
							<path class="st0" d="M459.3,181.2c3,0.2,5.4,2.8,5.2,5.8c-0.2,3-2.8,5.4-5.8,5.2c-3-0.2-5.4-2.8-5.2-5.8
								C453.7,183.4,456.3,181,459.3,181.2z"/>
						</g>
					</g>
					<g>
						<g>
							<path class="st0" d="M332.3,103.5c-3.3-0.2-6.6,0.4-9.6,1.7c-7.1,3.1-19.7,8.6-19.7,8.6l78.2,4.5l21.2-10.1
								C402.3,108.2,349.1,104.7,332.3,103.5z"/>
							<path class="st0" d="M405,111.2c0.1-0.9-0.3-1.8-1.1-2.4c-0.8-0.5-1.7-0.6-2.6-0.2c-7,3.3-20.3,9.7-20.3,9.7l-10.8,132.4
								c6.9-4.4,13.7-7.3,20.5-9c4.2-1,7.2-4.7,7.3-8.9C399.4,192.1,401.1,151.6,405,111.2z"/>
							<path class="st0" d="M381.1,118.3l-78.2-4.5c-0.6,20.1-2.4,40.2-3.5,60.3c-1.1,22.2-1.7,44.5-3.6,66.9
								c-0.1,1.6,0.4,3.2,1.5,4.4c1.1,1.2,2.7,1.9,4.3,1.8c22.1-0.2,44,1.1,65.9,3.8c1.5,0.2,3.1-0.3,4.3-1.2c1.2-1,1.9-2.4,2-3.9
								c1.1-15.7,3.9-56.9,3.9-56.9L381.1,118.3z"/>
							<path class="st0" d="M381.1,118.3l-78.2-4.5c0,0-2,17.1-3.8,33.6c-0.9,8,1.5,16,6.7,22.2c5.2,6.2,12.7,9.9,20.7,10.4
								c7.7,0.4,15.9,0.9,23.6,1.4c8.1,0.5,16-2.4,21.8-8c5.9-5.5,9.2-13.3,9.2-21.3C381.1,135.4,381.1,118.3,381.1,118.3z"/>
							<path class="st0" d="M339.2,165c2.8,0.2,4.9,2.8,4.7,5.8c-0.2,3-2.6,5.4-5.3,5.2c-2.8-0.2-4.9-2.8-4.7-5.8
								C334.1,167.2,336.5,164.8,339.2,165z"/>
						</g>
					</g>
					<g>
						<path class="st0" d="M253.4,112.3l5.8-9.1l30,1l3.7,11.3L253.4,112.3z"/>
						<path class="st0" d="M292.8,116.6c0.1-0.7-0.1-1.4-0.6-2c-0.5-0.5-1.1-0.9-1.9-0.9c-9-0.3-36.9-1.4-36.9-1.4l-5.3,119.1
							c1.2,3,16.3,4.9,28.4,5.2c5.3,0.1,9.7-4.1,9.8-9.3C287.2,190.3,288.5,153.3,292.8,116.6z"/>
					</g>
				</g>
				<g>
					<g>
						<g>
							<path class="st0" d="M750.2,119.7c3-0.2,6.1,0.3,8.9,1.4c7.5,3,22.3,8.8,22.3,8.8l-85.7,4.9l-23.2-10
								C672.6,124.8,732.8,120.8,750.2,119.7z"/>
							<path class="st0" d="M669.6,127.6c-0.1-0.9,0.3-1.8,1-2.3c0.7-0.5,1.7-0.6,2.5-0.3c7.5,3.2,22.6,9.7,22.6,9.7l11.2,132.3
								c-7.7-4.4-15.3-7.3-22.8-9c-4.3-0.9-7.4-4.6-7.6-9C675.3,208.5,673.7,168,669.6,127.6z"/>
							<path class="st0" d="M695.8,134.7l85.7-4.9c0.5,20.1,2.4,40.2,3.5,60.3c1.1,22.2,1.6,44.5,3.6,66.9c0.1,1.6-0.4,3.2-1.5,4.4
								c-1.1,1.2-2.6,1.9-4.3,1.9c-24.6-0.1-49.1,1.4-73.5,4.2c-1.5,0.2-3.1-0.3-4.2-1.2c-1.2-1-1.9-2.4-2-3.9
								c-1.1-15.6-3.9-56.9-3.9-56.9L695.8,134.7z"/>
							<path class="st0" d="M695.8,134.7l85.7-4.9c0,0,2,16.9,4,33.4c1,8-1.4,16.1-6.6,22.3c-5.2,6.2-12.7,10-20.8,10.4
								c-10.1,0.6-21.4,1.2-31.5,1.8c-8.1,0.5-16-2.4-21.9-8c-5.9-5.6-9.2-13.4-9.1-21.5C695.7,151.8,695.8,134.7,695.8,134.7z"/>
							<path class="st0" d="M741.3,181.2c-3,0.2-5.4,2.8-5.2,5.8c0.2,3,2.8,5.4,5.8,5.2c3-0.2,5.4-2.8,5.2-5.8
								C747,183.4,744.4,181,741.3,181.2z"/>
						</g>
					</g>
					<g>
						<g>
							<path class="st0" d="M868.4,103.5c3.3-0.2,6.6,0.4,9.7,1.7c7.1,3.1,19.7,8.6,19.7,8.6l-78.2,4.5l-21.2-10.1
								C798.4,108.2,851.6,104.7,868.4,103.5z"/>
							<path class="st0" d="M795.7,111.2c-0.1-0.9,0.3-1.8,1.1-2.4c0.8-0.5,1.7-0.6,2.6-0.2c7,3.3,20.3,9.7,20.3,9.7l10.8,132.4
								c-6.9-4.4-13.7-7.3-20.5-9c-4.2-1-7.2-4.7-7.3-8.9C801.3,192.1,799.6,151.6,795.7,111.2z"/>
							<path class="st0" d="M819.6,118.3l78.2-4.5c0.6,20.1,2.4,40.2,3.5,60.3c1.1,22.2,1.7,44.5,3.6,66.9c0.1,1.6-0.4,3.2-1.5,4.4
								c-1.1,1.2-2.7,1.9-4.3,1.8c-22.1-0.2-44,1.1-65.9,3.8c-1.5,0.2-3.1-0.3-4.3-1.2c-1.2-1-1.9-2.4-2-3.9
								c-1.1-15.7-3.9-56.9-3.9-56.9L819.6,118.3z"/>
							<path class="st0" d="M819.6,118.3l78.2-4.5c0,0,2,17.1,3.8,33.6c0.9,8-1.5,16-6.7,22.2c-5.2,6.2-12.7,9.9-20.7,10.4
								c-7.7,0.4-15.9,0.9-23.6,1.4c-8.1,0.5-16-2.4-21.8-8c-5.9-5.5-9.2-13.3-9.2-21.3C819.6,135.4,819.6,118.3,819.6,118.3z"/>
							<path class="st0" d="M861.4,165c-2.8,0.2-4.9,2.8-4.7,5.8c0.2,3,2.6,5.4,5.3,5.2c2.8-0.2,4.9-2.8,4.7-5.8
								C866.6,167.2,864.2,164.8,861.4,165z"/>
						</g>
					</g>
					<g>
						<path class="st0" d="M947.2,112.3l-5.8-9.1l-30,1l-3.7,11.3L947.2,112.3z"/>
						<path class="st0" d="M907.9,116.6c-0.1-0.7,0.1-1.4,0.6-2c0.5-0.5,1.1-0.9,1.9-0.9c9-0.3,36.9-1.4,36.9-1.4l5.3,119.1
							c-1.2,3-16.3,4.9-28.4,5.2c-5.3,0.1-9.7-4.1-9.8-9.3C913.5,190.3,912.1,153.3,907.9,116.6z"/>
					</g>
				</g>
			</g>
		</g>
		<g id="Pouch-Belt-4_M_Option">
			<path id="Main_Pouch-Belt-4_M" class="st0" d="M921.1,204.6c-72.3,6.5-237.5,30.1-320.9,30.1c-84.2,0-249.4-23.8-320.7-30.1
				l10.7-84.6c58.7,5.2,228.6,29.2,310.1,29.2c79.2,0,245.6-23.8,308.1-29.5L921.1,204.6z"/>
			<rect id="Buckle_Pouch-Belt-4_M" x="541.2" y="141.3" class="st0" width="119.6" height="98.1"/>
			<g id="Pouches_Pouch-Belt-4_M">
				<g>
					<g>
						<path class="st0" d="M332.3,103.5c-3.3-0.2-6.6,0.4-9.6,1.7c-7.1,3.1-19.7,8.6-19.7,8.6l78.2,4.5l21.2-10.1
							C402.3,108.2,349.1,104.7,332.3,103.5z"/>
						<path class="st0" d="M405,111.2c0.1-0.9-0.3-1.8-1.1-2.4c-0.8-0.5-1.7-0.6-2.6-0.2c-7,3.3-20.3,9.7-20.3,9.7l-10.8,132.4
							c6.9-4.4,13.7-7.3,20.5-9c4.2-1,7.2-4.7,7.3-8.9C399.4,192.1,401.1,151.6,405,111.2z"/>
						<path class="st0" d="M381.1,118.3l-78.2-4.5c-0.6,20.1-2.4,40.2-3.5,60.3c-1.1,22.2-1.7,44.5-3.6,66.9
							c-0.1,1.6,0.4,3.2,1.5,4.4c1.1,1.2,2.7,1.9,4.3,1.8c22.1-0.2,44,1.1,65.9,3.8c1.5,0.2,3.1-0.3,4.3-1.2c1.2-1,1.9-2.4,2-3.9
							c1.1-15.7,3.9-56.9,3.9-56.9L381.1,118.3z"/>
						<path class="st0" d="M381.1,118.3l-78.2-4.5c0,0-2,17.1-3.8,33.6c-0.9,8,1.5,16,6.7,22.2c5.2,6.2,12.7,9.9,20.7,10.4
							c7.7,0.4,15.9,0.9,23.6,1.4c8.1,0.5,16-2.4,21.8-8c5.9-5.5,9.2-13.3,9.2-21.3C381.1,135.4,381.1,118.3,381.1,118.3z"/>
						<path class="st0" d="M339.2,165c2.8,0.2,4.9,2.8,4.7,5.8c-0.2,3-2.6,5.4-5.3,5.2c-2.8-0.2-4.9-2.8-4.7-5.8
							C334.1,167.2,336.5,164.8,339.2,165z"/>
					</g>
				</g>
				<g>
					<path class="st0" d="M253.4,112.3l5.8-9.1l30,1l3.7,11.3L253.4,112.3z"/>
					<path class="st0" d="M292.8,116.6c0.1-0.7-0.1-1.4-0.6-2c-0.5-0.5-1.1-0.9-1.9-0.9c-9-0.3-36.9-1.4-36.9-1.4l-5.3,119.1
						c1.2,3,16.3,4.9,28.4,5.2c5.3,0.1,9.7-4.1,9.8-9.3C287.2,190.3,288.5,153.3,292.8,116.6z"/>
				</g>
				<g>
					<g>
						<path class="st0" d="M868.4,103.5c3.3-0.2,6.6,0.4,9.7,1.7c7.1,3.1,19.7,8.6,19.7,8.6l-78.2,4.5l-21.2-10.1
							C798.4,108.2,851.6,104.7,868.4,103.5z"/>
						<path class="st0" d="M795.7,111.2c-0.1-0.9,0.3-1.8,1.1-2.4c0.8-0.5,1.7-0.6,2.6-0.2c7,3.3,20.3,9.7,20.3,9.7l10.8,132.4
							c-6.9-4.4-13.7-7.3-20.5-9c-4.2-1-7.2-4.7-7.3-8.9C801.3,192.1,799.6,151.6,795.7,111.2z"/>
						<path class="st0" d="M819.6,118.3l78.2-4.5c0.6,20.1,2.4,40.2,3.5,60.3c1.1,22.2,1.7,44.5,3.6,66.9c0.1,1.6-0.4,3.2-1.5,4.4
							c-1.1,1.2-2.7,1.9-4.3,1.8c-22.1-0.2-44,1.1-65.9,3.8c-1.5,0.2-3.1-0.3-4.3-1.2c-1.2-1-1.9-2.4-2-3.9
							c-1.1-15.7-3.9-56.9-3.9-56.9L819.6,118.3z"/>
						<path class="st0" d="M819.6,118.3l78.2-4.5c0,0,2,17.1,3.8,33.6c0.9,8-1.5,16-6.7,22.2c-5.2,6.2-12.7,9.9-20.7,10.4
							c-7.7,0.4-15.9,0.9-23.6,1.4c-8.1,0.5-16-2.4-21.8-8c-5.9-5.5-9.2-13.3-9.2-21.3C819.6,135.4,819.6,118.3,819.6,118.3z"/>
						<path class="st0" d="M861.4,165c-2.8,0.2-4.9,2.8-4.7,5.8c0.2,3,2.6,5.4,5.3,5.2c2.8-0.2,4.9-2.8,4.7-5.8
							C866.6,167.2,864.2,164.8,861.4,165z"/>
					</g>
				</g>
				<g>
					<path class="st0" d="M947.2,112.3l-5.8-9.1l-30,1l-3.7,11.3L947.2,112.3z"/>
					<path class="st0" d="M907.9,116.6c-0.1-0.7,0.1-1.4,0.6-2c0.5-0.5,1.1-0.9,1.9-0.9c9-0.3,36.9-1.4,36.9-1.4l5.3,119.1
						c-1.2,3-16.3,4.9-28.4,5.2c-5.3,0.1-9.7-4.1-9.8-9.3C913.5,190.3,912.1,153.3,907.9,116.6z"/>
				</g>
			</g>
		</g>
		<g id="Pouch-Belt-2_M_Option">
			<path id="Main_Pouch-Belt-2_M" class="st0" d="M921.1,204.6c-72.3,6.5-237.5,30.1-320.9,30.1c-84.2,0-249.4-23.8-320.7-30.1
				l10.7-84.6c58.7,5.2,228.6,29.2,310.1,29.2c79.2,0,245.6-23.8,308.1-29.5L921.1,204.6z"/>
			<rect id="Buckle_Pouch-Belt-2_M" x="541.2" y="141.3" class="st0" width="119.6" height="98.1"/>
			<g id="Pouches_Pouch-Belt-2_M">
				<g>
					<path class="st0" d="M253.4,112.3l5.8-9.1l30,1l3.7,11.3L253.4,112.3z"/>
					<path class="st0" d="M292.8,116.6c0.1-0.7-0.1-1.4-0.6-2c-0.5-0.5-1.1-0.9-1.9-0.9c-9-0.3-36.9-1.4-36.9-1.4l-5.3,119.1
						c1.2,3,16.3,4.9,28.4,5.2c5.3,0.1,9.7-4.1,9.8-9.3C287.2,190.3,288.5,153.3,292.8,116.6z"/>
				</g>
				<g>
					<path class="st0" d="M947.2,112.3l-5.8-9.1l-30,1l-3.7,11.3L947.2,112.3z"/>
					<path class="st0" d="M907.9,116.6c-0.1-0.7,0.1-1.4,0.6-2c0.5-0.5,1.1-0.9,1.9-0.9c9-0.3,36.9-1.4,36.9-1.4l5.3,119.1
						c-1.2,3-16.3,4.9-28.4,5.2c-5.3,0.1-9.7-4.1-9.8-9.3C913.5,190.3,912.1,153.3,907.9,116.6z"/>
				</g>
			</g>
		</g>
		<g id="Basic-Belt_M_Option">
			<path id="Main_Basic-Belt_M" class="st0" d="M921.1,204.6c-72.3,6.5-237.5,30.1-320.9,30.1c-84.2,0-249.4-23.8-320.7-30.1
				l10.7-84.6c58.7,5.2,228.6,29.2,310.1,29.2c79.2,0,245.6-23.8,308.1-29.5L921.1,204.6z"/>
			<rect id="Buckle_Basic-Belt_M" x="541.2" y="141.3" class="st0" width="119.6" height="98.1"/>
		</g>
	</g>
</g>
</svg>
