<?xml version="1.0" encoding="UTF-8" standalone="no"?>
<!DOCTYPE svg PUBLIC "-//W3C//DTD SVG 1.1//EN" "http://www.w3.org/Graphics/SVG/1.1/DTD/svg11.dtd">
<svg id="Male-Body" width="100%" height="100%" viewBox="0 0 1800 3300" version="1.1" xmlns="http://www.w3.org/2000/svg" style="stroke:black;fill:white;stroke-width:2px;">
	<style>
		.option {
			visibility: hidden;
		}
	</style>
	<g id="Back">
		<g id="Cape" transform="translate(-345.148,0)">
			<g id="Full-Cape_Option" transform="matrix(4.16667,0,0,4.16667,-106.797,0)">
				<path d="M282.382,188.133C252.498,199.416 219.224,253.787 215.107,295.138C212.51,321.231 199.786,347.741 200.978,373.719C202.186,400.062 188.897,427.382 187.92,453.706C187.04,477.422 180.043,488.257 175.981,511.709C169.904,546.803 163.185,569.926 157.733,605.049C153.4,632.967 140.299,656.04 134.145,664.751C133.582,665.547 172.258,664.613 180.066,663.35C205.284,659.269 224.613,658.09 249.639,664.229C276.827,670.898 303.539,674.986 331.343,668.837C358.129,662.913 383.311,648.755 410.783,646.225C432.127,644.259 452.952,651.144 473.474,655.924C478.676,657.136 485.884,660.234 491.268,659.892C491.404,659.884 489.545,647.386 489.273,646.04C486.62,632.918 480.568,620.393 473.47,609.161C455.416,580.592 461.642,549.247 458.342,515.481C455.143,482.746 458.488,449.941 452.986,417.265C448.119,388.362 431.018,361.468 426.736,332.303C421.711,298.087 410.04,261.437 399.709,228.191C387.039,187.419 312.266,176.85 282.382,188.133Z" style="stroke-width:0.97px;"/>
			</g>
			<g id="Shoulder-Cape_Option" transform="matrix(0.871254,0,0,1.0528,117.868,-16.9251)">
				<path d="M1552.7,783.806C1536.45,746.35 1522.52,708.924 1522.52,708.924C1528.19,698.577 1571.95,698.914 1584.23,699.549C1612.85,701.028 1653.09,711.751 1670.56,729.276C1680.53,739.27 1700.88,739.819 1707.64,751.967C1708.17,752.916 1714.34,763.088 1713.75,763.539C1713.67,763.599 1717.21,784.138 1721.36,808.087C1750.4,827.225 1776.49,852.445 1794.03,881.876C1838.26,956.076 1882.39,1039.73 1916.55,1119.39C1945.68,1187.3 1994.99,1253.64 2025.12,1320.56C2059.17,1396.22 2075.4,1449.28 2104.84,1526.43C2135.2,1606.03 2172.7,1677.06 2229.28,1735.43C2251.53,1758.38 2288.19,1777.74 2302.77,1807.86C2304.26,1810.95 2316.79,1840.04 2316.52,1840.14C2305.86,1844.13 2289.09,1840.88 2277.71,1841.02C2232.81,1841.54 2138.94,1798.1 2097.11,1815.4C2043.26,1837.66 2049.08,1925.72 1999,1955.77C1947.02,1986.97 1858.82,1909.99 1799.1,1909.88C1744.13,1909.77 1757.38,2030.24 1709.18,2054.92C1694.26,2062.56 1596.3,2064.12 1596.88,2061.87C1603.23,2037.21 1613.58,1973.8 1602.77,1903.84C1589.18,1815.83 1586.57,1756.05 1574.26,1667.74C1566.04,1608.72 1572.61,1578.45 1557.76,1520.67C1541.28,1456.53 1549.02,1382.75 1528.1,1319.86C1507.47,1257.83 1514.64,1186.34 1501.6,1121.81C1480.94,1019.54 1498.72,829.766 1551.31,784.951C1551.77,784.562 1552.23,784.181 1552.7,783.806Z" style="stroke-width:4.18px;"/>
			</g>
			<g id="No-Cape_Option"></g>
		</g>
	</g>
	<g id="Flight-Suit" transform="translate(250,575)">
		<title>Flight Suit (Kute)</title>
		<g id="Soft-Parts_M">
			<g id="Suit_M">
				<g id="Neck_Seal_M">
					<path id="Plain-Neck-Seal_M_Option" class="st0" d="M774.3,37.4l31.2,72.9l-2.2,72.3l-163.5,17v0.1l-0.3,0l-0.3,0v-0.1l-162.5-17
						l-2.2-72.3l31.2-72.9l134.5,7.1L774.3,37.4"/>
					<g id="Standard-Neck-Seal_M_Option">
						<path class="st0" d="M785.6,52.7c0-9.6-9.8-17.3-21.9-17.3c0,0-82.7,9.1-124,9.1c-41.3,0-124-9.1-124-9.1
							c-12.1,0-21.9,7.8-21.9,17.3c0,9.6,9.8,17.3,21.9,17.3c0,0,82.7,9.1,124,9.1c41.3,0,124-9.1,124-9.1
							C775.8,70,785.6,62.3,785.6,52.7z"/>
						<path class="st0" d="M793,73c0-10-10.3-18.2-23-18.2c0,0-86.9,9.6-130.3,9.6c-43.4,0-130.3-9.6-130.3-9.6c-12.7,0-23,8.1-23,18.2
							c0,10,10.3,18.2,23,18.2c0,0,86.9,9.6,130.3,9.6c43.4,0,130.3-9.6,130.3-9.6C782.7,91.1,793,83,793,73z"/>
						<path class="st0" d="M801.4,98.1c0-10.6-10.9-19.2-24.3-19.2c0,0-91.6,10.1-137.4,10.1c-45.8,0-137.4-10.1-137.4-10.1
							c-13.4,0-24.3,8.6-24.3,19.2s10.9,19.2,24.3,19.2c0,0,91.6,10.1,137.4,10.1c45.8,0,137.4-10.1,137.4-10.1
							C790.5,117.3,801.4,108.7,801.4,98.1z"/>
						<path class="st0" d="M809.5,121.1C809.5,110,798,101,784,101c0,0-96.2,10.6-144.3,10.6c-48.1,0-144.3-10.6-144.3-10.6
							c-14.1,0-25.5,9-25.5,20.1s11.4,20.1,25.5,20.1c0,0,96.2,10.6,144.3,10.6c48.1,0,144.3-10.6,144.3-10.6
							C798,141.3,809.5,132.2,809.5,121.1z"/>
						<path class="st0" d="M817.5,143.7c0-8.4-12-15.2-26.7-15.2c0,0-100.8,8-151.1,8s-151.1-8-151.1-8c-14.7,0-26.7,6.8-26.7,15.2
							c0,8.4,12,15.2,26.7,15.2c0,0,100.7,8,151.1,8s151.1-8,151.1-8C805.5,158.9,817.5,152.1,817.5,143.7z"/>
						<path class="st0" d="M817.5,169.1c0-8.4-12-15.2-26.7-15.2c0,0-100.8,8-151.1,8s-151.1-8-151.1-8c-14.7,0-26.7,6.8-26.7,15.2
							s12,15.2,26.7,15.2c0,0,100.7,15.4,151.1,15.4s151.1-15.4,151.1-15.4C805.5,184.3,817.5,177.5,817.5,169.1z"/>
					</g>
				</g>
				<g id="Flight-Suit_M">
					<path class="st0" d="M516.4,1662l-15.7,92.9l-116.9,566.3c0,0-52.3,31.5-79.1,36.9c-26.8,5.4-81.9-4.7-81.9-4.7l40.8-458.5
						l30.8-195.8l7-83.3c0,0-26.8-242.9-18.1-364c8.7-121.1,70.6-362.6,70.6-362.6l285.9,6.2l285.9-6.2c0,0,61.8,241.5,70.6,362.6
						c8.7,121.1-18.1,364-18.1,364l7,83.3l30.8,195.8l40.8,458.5c0,0-56.4,12.7-83.2,7.3c-26.8-5.4-77.8-39.6-77.8-39.6l-116.9-566.3
						l-15.7-92.9l-123.2-323.4L516.4,1662z"/>
					<g>
						<path class="st0" d="M1110.6,434.7l127,444l11,228.9l-101.2,19.5l-64.1-215.5L938.5,549.7l7.3-165.8l24.5-39.6L1110.6,434.7z"/>
						<path class="st0" d="M169.2,434.4L309,344.3l24.5,39.6l5.5,171L196.5,911.6l-64.2,215.5l-101.2-19.5l11-228.9L169.2,434.4z"/>
					</g>
				</g>

			</g>
			<g id="Boots_M">
				<g id="Tall_Boots_M_Option">
					<g id="Bottom_Tall-Boot_M">
						<path class="st0" d="M879.6,2428.6c0.3,1.4,0.6,2.8,1,4.3c10.2,18.8,38,25.2,57.1,29.7c13.5,3.2,26.5,7.6,39.2,13
							c17.6,7.5,26.4,20.6,40.1,33.1c6.1,5.6,13.4,9.9,20.4,14.1c17.5,10.6,34.4,11.4,54.4,11.9c26.7,0.8,50.3-2.9,76.6-8.8
							c23-5.2,40.2-9.5,60.1-15.1c6-1.7,13.2-2.9,16.8-7.3l3,6.7l2.2,17.5c0,0-21.5,11.6-44.5,16.7c-22.9,5.1-69.2,12.3-69.2,12.3
							l-3.2-7.6l-10.4,2.2l0.5,7.5l-25.2,1.4l-5.4-7.3l-8.4,0.2l1.3,6.5c0,0-15.6-0.3-24.3-5.4c-1.7-2.5-4.8-6.5-4.8-6.5l-6-3.3
							l0.8,6.1l-21.7-7.8l-1.1-8.4l-6.2-3.7l-0.3,6.1l-15.5-12l-1.7-7.4l-33.2-17.5l-11.3,4.6l-27-5.9l-0.9-5.8l-6.9-2.8l-4.8,4.5
							l-18.1-7.5l-0.4-5.4l-5.9-2.1l-0.7,3.9l-17.2-11.9L879.6,2428.6z M878.9,2421.7L878.9,2421.7L878.9,2421.7L878.9,2421.7z"/>
						<path class="st0" d="M399.9,2428.6c-0.3,1.4-0.6,2.8-1,4.3c-10.2,18.8-38,25.2-57.1,29.7c-13.5,3.2-26.5,7.6-39.2,13
							c-17.6,7.5-26.4,20.6-40.1,33.1c-6.1,5.6-13.3,9.9-20.4,14.1c-17.5,10.6-34.4,11.4-54.3,11.9c-26.7,0.8-50.4-2.9-76.7-8.8
							c-23-5.2-40.2-9.5-60.1-15.1c-6-1.7-13.2-2.9-16.8-7.3l-3,6.7l-2.2,17.5c0,0,21.5,11.6,44.5,16.7c22.9,5.1,69.2,12.3,69.2,12.3
							l3.2-7.6l10.4,2.2l-0.5,7.5l25.2,1.4l5.4-7.3l8.4,0.2l-1.3,6.5c0,0,15.6-0.3,24.3-5.4c1.6-2.5,4.8-6.5,4.8-6.5l6-3.3l-0.8,6.1
							l21.7-7.8l1.1-8.4l6.2-3.7l0.3,6.1l15.4-12l1.7-7.4l33.2-17.5l11.3,4.6l27-5.9l0.9-5.8l6.9-2.8l4.8,4.5l18.1-7.5l0.4-5.4l5.9-2.1
							l0.7,3.9l17.2-11.9L399.9,2428.6z M400.6,2421.7L400.6,2421.7L400.6,2421.7L400.6,2421.7z"/>
					</g>
					<g id="Main_Tall-Boot_M">
						<path class="st0" d="M879.8,2286.1c-15.4-45.1-26.9-117.1-36.1-150c-6.9-24.6-38.5-158.6-33.3-175.4c5.3-17,208.5-51.8,215-36.4
							c10,23.5,21.6,255.8,23.3,290c1.3,25,5,49.7,5,74.8l0,0.1c2.7,13.7,4.8,28.3,10.5,40.6c10.7,23.1,10.2,33.2,28.1,50.6
							c12.3,12,44.1,33.2,58.7,42.3c6.2,3.9,12.8,6.8,19.5,9.4l0.6,0.2c27,10.1,56.1,13.9,70.8,43.8c3.2,6.5,6,14.3,5.4,21.8
							c-0.7,9.5-11,10.8-19,13.1c-19.9,5.7-37.1,10-60.1,15.1c-26.3,5.9-50,9.5-76.6,8.8c-19.9-0.6-36.8-1.4-54.4-11.9
							c-7-4.3-14.3-8.6-20.4-14.1c-13.7-12.5-22.5-25.6-40.1-33.1c-12.7-5.4-25.8-9.8-39.2-13c-19-4.5-46.8-10.9-57.1-29.7
							c-4-14.1,0.1-21.1,1.4-33.3l0.6-5.2c1-7.9,2.4-16.1,2.9-24.6c0.8-16.4-3.3-32.6-4.3-49c-0.6-9.3-1-18.6-1.2-27.9
							C879.9,2291.8,879.5,2288.4,879.8,2286.1z"/>
						<path class="st0" d="M399.8,2286.1c15.4-45.1,26.9-117.1,36.1-150c6.9-24.6,38.5-158.6,33.3-175.4c-5.3-17-208.5-51.8-215-36.4
							c-10,23.5-21.6,255.8-23.3,290c-1.3,25-5,49.7-5,74.8l0.1,0.1c-2.6,13.7-4.9,28.3-10.5,40.6c-10.7,23.1-10.2,33.2-28.1,50.6
							c-12.3,12-44.1,33.2-58.7,42.3c-6.2,3.9-12.8,6.8-19.6,9.4l-0.6,0.2c-27,10.1-56.1,13.9-70.8,43.8c-3.2,6.5-5.9,14.3-5.4,21.8
							c0.7,9.5,11,10.8,19,13.1c19.9,5.7,37.1,10,60.1,15.1c26.3,5.9,50,9.5,76.7,8.8c19.9-0.6,36.8-1.4,54.3-11.9
							c7.1-4.3,14.3-8.6,20.4-14.1c13.7-12.5,22.5-25.6,40.1-33.1c12.7-5.4,25.8-9.8,39.2-13c19-4.5,46.8-10.9,57.1-29.7
							c4-14.1-0.1-21.1-1.4-33.3l-0.6-5.2c-1-7.9-2.4-16.1-2.9-24.6c-0.8-16.4,3.3-32.6,4.3-49c0.6-9.3,1-18.6,1.2-27.9
							C399.6,2291.8,400,2288.4,399.8,2286.1z"/>
					</g>
				</g>
				<g id="Gunslinger_Boots_M_Option">
					<g id="Main_Gunslinger-Boot_M">
						<path class="st0" d="M880.5,2388.7c0.4,2.1,7.7,36.3,45.3,45.8c12.5,3.2,34-3.5,47.5-10.4c18.5-9.5,37.9-16.8,57.6-22.6l0.6,0.8
							c0.3,0.4,0.6,0.9,0.9,1.3c6.2,8.6,12.9,16.7,20,24.1l0.6,0.6l0.4,0.4c0.7,0.7,1.4,1.4,2.2,2.2c4.2,4.1,8.6,7.9,13.1,11.4l1.3,1
							l1,0.8c0.3,0.2,0.6,0.4,0.9,0.7c0.7,0.5,1.4,1,2.1,1.5c9.4,6.6,21.8,16.6,34.3,14.8c11.7-1.7,24.9-6.4,34.7-11.1
							c8.2-3.9,16.8-9.3,22.6-14.9c1.7-1.3,3.1-2.8,4.2-4.7c27.2,10.6,56.8,14.7,71.3,45c3.1,6.6,5.8,14.4,5.1,21.8
							c-0.8,9.5-11.2,10.6-19.3,12.8c-20.1,5.4-37.4,9.4-60.6,14.3c-26.5,5.5-50.4,8.8-77.2,7.7c-20-0.8-37-1.9-54.5-12.7
							c-7-4.3-14.3-8.7-20.3-14.4c-13.6-12.7-22.3-25.9-39.9-33.6c-12.7-5.6-25.8-10.2-39.3-13.6c-19.1-4.8-39.7-8.1-49.7-27.1
							C877.5,2416,878.4,2402.6,880.5,2388.7L880.5,2388.7"/>
						<path class="st0" d="M399.1,2388.7c-0.4,2.1-7.7,36.3-45.3,45.8c-12.5,3.2-34-3.5-47.5-10.4c-18.5-9.5-37.9-16.8-57.6-22.6
							l-0.6,0.8c-0.3,0.4-0.6,0.9-0.9,1.3c-6.2,8.6-12.9,16.7-20,24.1l-0.6,0.6l-0.4,0.4c-0.7,0.7-1.5,1.4-2.2,2.2
							c-4.2,4.1-8.6,7.9-13.1,11.4l-1.3,1l-1,0.8c-0.3,0.2-0.6,0.4-0.9,0.7c-0.7,0.5-1.4,1-2.1,1.5c-9.4,6.6-21.8,16.6-34.3,14.8
							c-11.7-1.7-24.9-6.4-34.7-11.1c-8.2-3.9-16.8-9.3-22.6-14.9c-1.7-1.3-3.1-2.8-4.2-4.7c-27.2,10.6-56.8,14.7-71.3,45
							c-3.1,6.6-5.8,14.4-5.1,21.8c0.8,9.5,11.2,10.6,19.3,12.8c20.1,5.4,37.4,9.4,60.6,14.3c26.5,5.5,50.4,8.8,77.2,7.7
							c20-0.8,37-1.9,54.5-12.7c7-4.3,14.3-8.7,20.3-14.4c13.6-12.7,22.3-25.9,39.9-33.6c12.7-5.6,25.8-10.2,39.3-13.6
							c19.1-4.8,39.7-8.1,49.7-27.1C402,2416,401.1,2402.6,399.1,2388.7L399.1,2388.7"/>
					</g>
					<g id="Bottom_Gunslinger-Boot_M">
						<path class="st0" d="M879.8,2414.6c0.9,5.2,2.5,10.5,5.4,15.9c10,19,30.6,22.3,49.7,27.1c13.5,3.4,26.6,8,39.3,13.6
							c17.6,7.7,26.3,20.9,39.9,33.6c6.1,5.7,13.3,10.1,20.3,14.4c17.5,10.8,34.5,11.8,54.5,12.7c26.8,1.1,50.7-2.2,77.2-7.7
							c23.2-4.9,40.5-8.9,60.6-14.3c6.5-1.7,14.4-2.8,17.7-8.1l0,0l3.8,8.5l2.2,17.5c0,0-21.5,11.6-44.5,16.7
							c-22.9,5.1-69.2,12.3-69.2,12.3l-3.2-7.6l-10.4,2.2l0.5,7.5l-25.2,1.4l-5.4-7.3l-8.4,0.2l1.3,6.5c0,0-15.6-0.3-24.3-5.4
							c-1.7-2.5-4.8-6.5-4.8-6.5l-6-3.3l0.8,6.1l-21.7-7.8l-1.1-8.4l-6.2-3.7l-0.3,6.1l-15.5-12l-1.7-7.4l-38.6-27.2l-6,14.2l-27-5.9
							l-0.9-5.8l-6.9-2.8l-4.8,4.5l-18.1-7.5l-0.4-5.4l-5.9-2.1l-0.7,3.9l-17.2-11.9l-3.3-23.8l-0.7-25.9L879.8,2414.6L879.8,2414.6"/>
						<path class="st0" d="M399.7,2414.6c-0.9,5.2-2.5,10.5-5.4,15.9c-10,19-30.6,22.3-49.7,27.1c-13.5,3.4-26.6,8-39.3,13.6
							c-17.6,7.7-26.3,20.9-39.9,33.6c-6.1,5.7-13.3,10.1-20.3,14.4c-17.5,10.8-34.5,11.8-54.5,12.7c-26.8,1.1-50.7-2.2-77.2-7.7
							c-23.2-4.9-40.5-8.9-60.6-14.3c-6.5-1.7-14.4-2.8-17.7-8.1l0,0l-3.8,8.5l-2.2,17.5c0,0,21.5,11.6,44.5,16.7
							c22.9,5.1,69.2,12.3,69.2,12.3l3.2-7.6l10.4,2.2l-0.5,7.5l25.2,1.4l5.4-7.3l8.4,0.2l-1.3,6.5c0,0,15.6-0.3,24.3-5.4
							c1.6-2.5,4.8-6.5,4.8-6.5l6-3.3l-0.8,6.1l21.7-7.8l1.1-8.4l6.2-3.7l0.3,6.1l15.4-12l1.7-7.4l38.6-27.2l6,14.2l27-5.9l0.9-5.8
							l6.9-2.8l4.8,4.5l18.1-7.5l0.4-5.4l5.9-2.1l0.7,3.9l17.2-11.9l3.3-23.8l0.7-25.9L399.7,2414.6L399.7,2414.6"/>
					</g>
					<g id="Top_Gunslinger-Boot_M">
						<path class="st0" d="M1030.6,2401.1c-23-33.1-38.6-73.8-44.1-109.7l0,0l6.4-0.6l0.2,0l0.8-0.1l2.1-0.3l3.3-0.4l1.3-0.2
							c3.8-0.4,7.4-1,11-1.5l5.7-1.1l1.2-0.3l0.4-0.1l0.9-0.2l4-0.9l3.5-0.9l0.6-0.1c12.2-3.1,24.5-6.9,24.5-6.9
							c3.3,15.8,4.9,33.8,11.6,48.6c10.4,23.3,29.5,41,47.3,58.7c12.2,12.2,24.2,26,38.8,35.3c6.2,3.9,12.8,7,19.6,9.6
							c-5.2,7.2-16.3,14.6-26.8,19.6c-9.8,4.7-23,9.4-34.7,11.1c-12.4,1.8-24.9-8.2-34.3-14.8c-16.2-11.5-30.7-27-43-44.7
							L1030.6,2401.1"/>
						<path class="st0" d="M248.9,2401.1c23-33.1,38.6-73.8,44.1-109.7l0,0l-6.4-0.6l-0.2,0l-0.8-0.1l-2.1-0.3l-3.3-0.4l-1.3-0.2
							c-3.7-0.4-7.4-1-11-1.5l-5.7-1.1l-1.2-0.3l-0.4-0.1l-0.9-0.2l-4-0.9l-3.5-0.9l-0.6-0.1c-12.2-3.1-24.5-6.9-24.5-6.9
							c-3.3,15.8-4.9,33.8-11.6,48.6c-10.4,23.3-29.5,41-47.3,58.7c-12.2,12.2-24.2,26-38.8,35.3c-6.2,3.9-12.8,7-19.5,9.6
							c5.2,7.2,16.3,14.6,26.8,19.6c9.8,4.7,23,9.4,34.7,11.1c12.4,1.8,24.9-8.2,34.3-14.8c16.2-11.5,30.7-27,43-44.7L248.9,2401.1"/>
					</g>
					<g id="Side_Gunslinger-Boot_M">
						<path class="st0" d="M1030.9,2401.5c-19.8,5.8-39.2,13.2-57.6,22.6c-13.5,6.9-34.9,13.6-47.5,10.4c-38.8-9.8-45.3-45.9-45.3-45.9
							c1.2-7.9,2.7-16,3.2-24.6c1-16.4-1.1-87.5,0.3-86.8c31.1,16.6,86.7,15.5,102.5,14.2l0,0C992,2327.4,1007.7,2368.3,1030.9,2401.5"
							/>
						<path class="st0" d="M248.7,2401.5c19.8,5.8,39.2,13.2,57.6,22.6c13.5,6.9,34.9,13.6,47.5,10.4c38.8-9.8,45.3-45.9,45.3-45.9
							c-1.2-7.9-2.7-16-3.2-24.6c-1-16.4,1.1-87.5-0.3-86.8c-31.1,16.6-86.7,15.5-102.5,14.2l0,0
							C287.5,2327.4,271.9,2368.3,248.7,2401.5"/>
					</g>
				</g>
				<g id="Basic_Boots_M_Option">
					<g id="Main_Basic-Boot_M">
						<path class="st0" d="M895.2,2284.2c15.5,0.2,34.4,9.9,48,12.2c14.6,2.5,30.5,2.2,46,0.7l6.3-0.7l0.2,0l0.8-0.1l2.1-0.3l3.2-0.4
							l1.3-0.2c3.6-0.5,7.2-1.1,10.8-1.6l5.6-1.1l1.2-0.3l0.4-0.1l0.9-0.2l3.9-0.9l3.4-0.9l0.6-0.1c11.9-3.2,23.8-7.1,23.8-7.1
							c3.5,15.4,5.3,33.1,11.9,47.6c10.5,22.7,10,32.5,27.6,49.7c12.1,11.8,43.2,32.6,57.6,41.5c6.1,3.8,12.6,6.7,19.2,9.2l0.6,0.2
							c26.5,9.9,55.1,13.6,69.5,43c3.2,6.4,5.8,14.1,5.3,21.3c-0.7,9.3-10.8,10.6-18.6,12.8c-19.5,5.6-36.4,9.8-58.9,14.8
							c-25.8,5.8-49,9.4-75.2,8.6c-19.5-0.6-36.1-1.4-53.3-11.7c-6.9-4.2-14-8.4-20-13.9c-13.4-12.3-22.1-25.1-39.4-32.4
							c-12.5-5.3-25.3-9.7-38.5-12.8c-18.7-4.4-46-10.7-56-29.2c-3.9-13.9,0.1-20.7,1.4-32.6l0.6-5.1c1-7.8,2.4-15.8,2.8-24.2
							c0.8-16.1-3.2-32-4.2-48.1c-0.6-9.1-1-18.2-1.2-27.3c0-1.5-0.8-8,0.6-8.6c2.1-0.8,4.3-1.3,6.5-1.5L895.2,2284.2z"/>
						<path class="st0" d="M384.7,2284.2c-15.5,0.2-34.4,9.9-48,12.2c-14.6,2.5-30.5,2.2-46,0.7l-6.3-0.7l-0.2,0l-0.8-0.1l-2.1-0.3
							l-3.2-0.4l-1.3-0.2c-3.6-0.5-7.2-1.1-10.8-1.6l-5.6-1.1l-1.2-0.3l-0.4-0.1l-0.9-0.2l-3.9-0.9l-3.4-0.9l-0.6-0.1
							c-11.9-3.2-23.8-7.1-23.8-7.1c-3.5,15.4-5.3,33.1-11.9,47.6c-10.5,22.7-10.1,32.5-27.6,49.7c-12.1,11.8-43.2,32.6-57.6,41.5
							c-6.1,3.8-12.6,6.7-19.2,9.2l-0.6,0.2c-26.5,9.9-55.1,13.6-69.5,43c-3.1,6.4-5.8,14.1-5.3,21.3c0.7,9.3,10.8,10.6,18.6,12.8
							c19.5,5.6,36.4,9.8,58.9,14.8c25.8,5.8,49,9.4,75.2,8.6c19.6-0.6,36.1-1.4,53.3-11.7c6.9-4.2,14-8.4,20-13.9
							c13.4-12.3,22.1-25.1,39.4-32.4c12.5-5.3,25.3-9.7,38.5-12.8c18.7-4.4,46-10.7,56-29.2c3.9-13.9-0.1-20.7-1.4-32.6l-0.6-5.1
							c-1-7.8-2.4-15.8-2.8-24.2c-0.8-16.1,3.2-32,4.2-48.1c0.6-9.1,1-18.2,1.2-27.3c0-1.5,0.8-8-0.6-8.6c-2.1-0.8-4.3-1.3-6.5-1.5
							L384.7,2284.2z"/>
					</g>
					<g id="Bottom_Basic-Boot_M">
						<path class="st0" d="M885.2,2431.8c5,9.2,14.3,15.4,24.7,19.8c9.5,4.8,20.6,6.8,31.3,9.3c1.4,0.4,2.9,0.7,4.3,1.1
							c2.1,0.6,4.3,1.1,6.4,1.8c0.6,0.2,1.3,0.4,1.9,0.6l1.1,0.3c0.7,0.2,1.4,0.4,2,0.6c0.3,0.1,0.6,0.2,0.9,0.3
							c1.2,0.4,2.3,0.8,3.4,1.1c0.4,0.1,0.8,0.3,1.2,0.4l0.6,0.2c1.8,0.6,3.5,1.3,5.3,1.9c0.4,0.1,0.8,0.3,1.1,0.4
							c1.6,0.6,3.2,1.2,4.8,1.9l1.2,0.5c1,0.4,1.9,0.8,2.9,1.2c0.4,0.2,0.8,0.3,1.2,0.5c2.8,1.2,5.4,2.6,7.9,4l0.3,0.2
							c0.2,0.1,0.4,0.2,0.6,0.4c0.8,0.5,1.5,1,2.2,1.5l0.5,0.3c0.2,0.1,0.3,0.2,0.5,0.3c0.7,0.5,1.5,1.1,2.2,1.6l0.6,0.5l0.9,0.8
							c3,2.4,5.7,5,8.5,7.7l0.8,0.8c1.5,1.5,3,3,4.5,4.6c1.5,1.6,3.1,3.2,4.7,4.8c1.6,1.6,3.3,3.3,5.1,4.9l0.6,0.5
							c0.5,0.5,1.1,0.9,1.6,1.4c0.1,0.1,0.2,0.2,0.3,0.2c0.9,0.7,1.8,1.4,2.7,2.1c0.6,0.4,1.2,0.9,1.8,1.3l0.3,0.2
							c0.8,0.6,1.6,1.1,2.3,1.6c0.3,0.2,0.7,0.4,1,0.7c1.2,0.8,2.3,1.5,3.5,2.2c0.8,0.5,1.6,1,2.4,1.5l1,0.6l2.6,1.6l1.2,0.7l0.8,0.5
							l0.8,0.4c1.2,0.7,2.4,1.3,3.6,1.8c0.6,0.3,1.1,0.5,1.7,0.8l0.6,0.3c3.6,1.6,7.2,2.8,10.8,3.7l0.7,0.2l0.8,0.2
							c0.3,0.1,0.5,0.1,0.8,0.2c0.7,0.2,1.5,0.3,2.2,0.5c0.6,0.1,1.2,0.2,1.7,0.3l1.4,0.2l0.4,0.1c0.4,0.1,0.8,0.1,1.2,0.2
							c0.6,0.1,1.3,0.2,1.9,0.3c0.9,0.1,1.8,0.2,2.7,0.3c0.2,0,0.5,0.1,0.7,0.1c2.3,0.2,4.6,0.4,6.9,0.6c1.3,0.1,2.6,0.1,3.9,0.2
							l1.1,0.1c2.4,0.1,4.9,0.2,7.5,0.3c1.6,0,3.2,0.1,4.8,0.1c0.6,0,1.2,0,1.8,0c0.8,0,1.7,0,2.5,0c0.6,0,1.2,0,1.8,0l0.6,0
							c3-0.1,5.9-0.2,8.8-0.3c0.4,0,0.8,0,1.2-0.1l1.2-0.1c0.4,0,0.8-0.1,1.1-0.1c4.3-0.3,8.6-0.7,12.8-1.2l1.2-0.1
							c1.1-0.1,2.1-0.3,3.2-0.4c0.5-0.1,0.9-0.1,1.4-0.2l1.2-0.2c0.9-0.1,1.8-0.3,2.6-0.4c3.7-0.6,7.4-1.2,11.2-1.9
							c0.8-0.2,1.7-0.3,2.5-0.5l1.1-0.2c0.4-0.1,0.8-0.1,1.2-0.2l1.2-0.2c0.4-0.1,0.8-0.2,1.2-0.2l0.8-0.2c0.9-0.2,1.8-0.4,2.7-0.6
							l1.2-0.3c1.1-0.2,2.1-0.5,3.2-0.7c0.9-0.2,1.9-0.4,2.8-0.6l0.3-0.1c5.9-1.3,11.4-2.6,16.7-3.9l2-0.5c1.5-0.4,3-0.7,4.5-1.1
							l1.8-0.4l0.8-0.2c2.1-0.5,4.2-1,6.2-1.6c1.2-0.3,2.5-0.6,3.7-0.9c3.5-0.9,7.1-1.9,10.6-2.8l1.6-0.4c0.6-0.2,1.2-0.3,1.8-0.5
							l0.7-0.2c2.7-0.8,5.5-1.5,8.3-2.3l0.6-0.2l1-0.3l2.9-0.8l1-0.3l1.5-0.4l0.6-0.2l1.2-0.4l1-0.4l0.5-0.2l0.6-0.2l0.3-0.1l0.6-0.3
							l0.5-0.3l0.3-0.1l0.5-0.3l0.6-0.4l0.6-0.4l0.6-0.4c0.9-0.7,1.7-1.6,2.3-2.6l0,0c0,0,5.2,7.8,5.6,21.2
							c-11.7,17-48.8,22.6-99.9,29.4c-50.9,6.8-82.2,5.5-103.5-3.7c-21.3-9.2-58.6-52.6-85.3-54.9c-26.7-2.3-58.2-16.5-71.2-24.1
							c-6.7-3.9-4.7-32-4.7-32L885.2,2431.8z"/>
						<path class="st0" d="M394.7,2431.8c-5,9.2-14.3,15.4-24.7,19.8c-9.5,4.8-20.6,6.8-31.3,9.3c-1.4,0.4-2.9,0.7-4.3,1.1
							c-2.1,0.6-4.3,1.1-6.4,1.8c-0.6,0.2-1.3,0.4-1.9,0.6l-1.1,0.3c-0.7,0.2-1.4,0.4-2,0.6c-0.3,0.1-0.6,0.2-0.9,0.3
							c-1.2,0.4-2.3,0.8-3.4,1.1c-0.4,0.1-0.8,0.3-1.2,0.4l-0.6,0.2c-1.8,0.6-3.5,1.3-5.3,1.9c-0.4,0.1-0.8,0.3-1.1,0.4
							c-1.6,0.6-3.2,1.2-4.8,1.9l-1.2,0.5c-1,0.4-1.9,0.8-2.9,1.2c-0.4,0.2-0.8,0.3-1.2,0.5c-2.8,1.2-5.4,2.6-7.9,4l-0.3,0.2
							c-0.2,0.1-0.4,0.2-0.6,0.4c-0.8,0.5-1.5,1-2.2,1.5l-0.5,0.3c-0.2,0.1-0.3,0.2-0.5,0.3c-0.7,0.5-1.5,1.1-2.2,1.6l-0.6,0.5
							l-0.9,0.8c-3,2.4-5.8,5-8.5,7.7l-0.8,0.8c-1.5,1.5-3,3-4.5,4.6c-1.6,1.6-3.1,3.2-4.7,4.8c-1.6,1.6-3.3,3.3-5.1,4.9l-0.6,0.5
							c-0.5,0.5-1.1,0.9-1.6,1.4c-0.1,0.1-0.2,0.2-0.3,0.2c-0.9,0.7-1.8,1.4-2.7,2.1c-0.6,0.4-1.2,0.9-1.8,1.3l-0.3,0.2
							c-0.8,0.6-1.5,1.1-2.3,1.6c-0.3,0.2-0.7,0.4-1,0.7c-1.2,0.8-2.3,1.5-3.5,2.2c-0.8,0.5-1.6,1-2.4,1.5l-1,0.6l-2.6,1.6l-1.2,0.7
							l-0.8,0.5l-0.8,0.4c-1.2,0.7-2.4,1.3-3.6,1.8c-0.6,0.3-1.1,0.5-1.7,0.8l-0.6,0.3c-3.6,1.6-7.2,2.8-10.8,3.7l-0.7,0.2l-0.8,0.2
							c-0.3,0.1-0.5,0.1-0.8,0.2c-0.7,0.2-1.5,0.3-2.2,0.5c-0.6,0.1-1.2,0.2-1.7,0.3l-1.4,0.2l-0.4,0.1c-0.4,0.1-0.8,0.1-1.1,0.2
							c-0.6,0.1-1.3,0.2-1.9,0.3c-0.9,0.1-1.8,0.2-2.7,0.3c-0.2,0-0.5,0.1-0.7,0.1c-2.3,0.2-4.6,0.4-6.9,0.6c-1.3,0.1-2.6,0.1-3.9,0.2
							l-1.1,0.1c-2.4,0.1-4.9,0.2-7.5,0.3c-1.6,0-3.2,0.1-4.8,0.1c-0.6,0-1.2,0-1.8,0c-0.8,0-1.7,0-2.5,0c-0.6,0-1.2,0-1.8,0l-0.6,0
							c-3-0.1-5.9-0.2-8.8-0.3c-0.4,0-0.8,0-1.2-0.1l-1.2-0.1c-0.4,0-0.7-0.1-1.1-0.1c-4.3-0.3-8.6-0.7-12.8-1.2l-1.2-0.1
							c-1.1-0.1-2.1-0.3-3.2-0.4c-0.5-0.1-0.9-0.1-1.4-0.2l-1.2-0.2c-0.9-0.1-1.8-0.3-2.6-0.4c-3.7-0.6-7.4-1.2-11.2-1.9
							c-0.8-0.2-1.7-0.3-2.5-0.5l-1.1-0.2c-0.4-0.1-0.8-0.1-1.2-0.2l-1.2-0.2c-0.4-0.1-0.8-0.2-1.2-0.2l-0.8-0.2
							c-0.9-0.2-1.8-0.4-2.7-0.6l-1.2-0.3c-1.1-0.2-2.1-0.5-3.2-0.7c-0.9-0.2-1.9-0.4-2.8-0.6l-0.3-0.1c-5.9-1.3-11.4-2.6-16.7-3.9
							l-2-0.5c-1.5-0.4-3-0.7-4.4-1.1l-1.8-0.4l-0.8-0.2c-2.1-0.5-4.1-1-6.2-1.6c-1.2-0.3-2.5-0.6-3.7-0.9c-3.6-0.9-7.1-1.9-10.6-2.8
							l-1.6-0.4c-0.6-0.2-1.2-0.3-1.8-0.5l-0.7-0.2c-2.7-0.8-5.5-1.5-8.3-2.3l-0.6-0.2l-1-0.3l-2.9-0.8l-1-0.3l-1.5-0.4l-0.6-0.2
							l-1.2-0.4l-1-0.4l-0.5-0.2l-0.6-0.2l-0.3-0.1l-0.6-0.3l-0.5-0.3l-0.3-0.1l-0.5-0.3l-0.6-0.4l-0.6-0.4l-0.6-0.4
							c-0.9-0.7-1.7-1.6-2.3-2.6l0,0c0,0-5.2,7.8-5.6,21.2c11.7,17,48.8,22.6,99.9,29.4c50.9,6.8,82.2,5.5,103.5-3.7
							c21.3-9.2,58.6-52.6,85.3-54.9c26.7-2.3,58.2-16.5,71.2-24.1c6.7-3.9,4.7-32,4.7-32L394.7,2431.8z"/>
					</g>
					<g id="Top_Basic-Boot_M">
						<path class="st0" d="M1032,2289.4c7.1,34.7,18.1,65,41.1,94.2c36,45.5,97.5,49.3,140,86.3c10.9,9.5,10.4,24.8,12.2,38.8
							c-17.6,5-33.1,8.9-52.9,13.4c-1.4-14,1.1-29.6-10.5-39.7c-42.5-37-109.4-35.6-145.4-81.1c-23.5-29.8-23.6-68.1-30.5-103.8
							c1.1-0.1,2.1-0.2,3.2-0.3l6.3-0.7l0.2,0l0.8-0.1l2.1-0.3l3.2-0.4l1.3-0.2c3.6-0.5,7.2-1.1,10.8-1.6l5.6-1.1l1.2-0.3l0.4-0.1
							l0.9-0.2l3.9-0.9l3.4-0.9l0.6-0.1C1030.4,2289.9,1031.2,2289.6,1032,2289.4z"/>
						<path class="st0" d="M247.9,2289.4c-7.1,34.7-18.1,65-41.2,94.2c-36,45.5-97.5,49.3-140,86.3c-10.9,9.5-10.4,24.8-12.1,38.8
							c17.6,5,33.1,8.9,52.9,13.4c1.4-14-1.1-29.6,10.5-39.7c42.5-37,109.4-35.6,145.4-81.1c23.5-29.8,23.6-68.1,30.4-103.8
							c-1.1-0.1-2.1-0.2-3.2-0.3l-6.3-0.7l-0.2,0l-0.8-0.1l-2.1-0.3l-3.2-0.4l-1.3-0.2c-3.6-0.5-7.2-1.1-10.8-1.6l-5.6-1.1l-1.2-0.3
							l-0.4-0.1l-0.9-0.2l-3.9-0.9l-3.4-0.9l-0.6-0.1C249.5,2289.9,248.7,2289.6,247.9,2289.4z"/>
					</g>
					<g id="Side_Basic-Boot_M">
						<path class="st0" d="M899.4,2284.5c14.6,1.6,31.4,9.9,43.8,11.9c0.7,0.1,1.4,0.2,2,0.3c0.2,4.4,0.1,8.7,0.2,12.6
							c0.5,21.8-2.2,114.8-6.5,114.6c-4.3-0.2-16.7-2.5-19.9-5.8c-2.1-2.2-2.5-7.6-3.2-10.5c-2.2-9.2-4.2-18.5-5.6-27.9
							c-1.9-12.6-3.3-25.1-4.3-37.9C904.5,2322.7,901.6,2303.6,899.4,2284.5z"/>
						<path class="st0" d="M380.5,2284.5c-14.6,1.6-31.4,9.9-43.8,11.9c-0.7,0.1-1.4,0.2-2,0.3c-0.2,4.4-0.1,8.7-0.2,12.6
							c-0.5,21.8,2.2,114.8,6.5,114.6c4.3-0.2,16.7-2.5,19.9-5.8c2.1-2.2,2.5-7.6,3.2-10.5c2.2-9.2,4.2-18.5,5.6-27.9
							c1.9-12.6,3.4-25.1,4.3-37.9C375.4,2322.7,378.3,2303.6,380.5,2284.5z"/>
					</g>
				</g>
			</g>
			<g id="Sleeves_M_Toggle">
				<g>
					<path class="st1" d="M928.1,571.1l28.4,62.9c0,0,44.9-34.2,74.8-51.1c29.9-17,46.4-28,73.3-38.4c26.9-10.4,53.9-15.7,53.9-15.7
						l-64.3-130.6l-61.3-103.1l-122.7,54.8L928.1,571.1z"/>
					<path class="st1" d="M943,604.3c-2.1-2.6,53.8-48,91.2-67.6c37.4-19.6,108.6-39.4,108.6-39.4"/>
				</g>
				<g>
					<path class="st1" d="M351.6,571.1L323.2,634c0,0-44.9-34.2-74.8-51.1c-29.9-17-46.4-28-73.3-38.4s-53.9-15.7-53.9-15.7l64.3-130.6
						l61.4-103.1l122.7,54.8L351.6,571.1z"/>
					<path class="st1" d="M336.6,604.3c2.1-2.6-53.8-48-91.2-67.6c-37.4-19.6-108.6-39.4-108.6-39.4"/>
				</g>
			</g>
			<g id="Gloves_M">
				<g id="Left-Glove_M">
					<g id="Fingerless_Left_Glove_M_Option">
						<g id="Fingers_Fingerless_Left_Glove_M">
							<path class="st0" d="M1208,1296c-5.7-0.3-11.1-0.2-16.8,1c-3.8,0.8-7.6,1.7-11.1,3.7c-10.5,6.1-7.7,19.3,1.7,24.3
								c10.9,5.9,28.2,0.1,33.2-11.2C1217.1,1309.1,1210.7,1300.4,1208,1296"/>
							<path class="st0" d="M1188.7,1307.5c-5.7-0.3-11.1-0.2-16.8,1c-3.8,0.8-7.6,1.7-11.1,3.7c-10.5,6.1-7.7,19.3,1.7,24.3
								c10.9,5.9,28.2,0.1,33.2-11.2C1197.8,1320.6,1191.5,1311.9,1188.7,1307.5"/>
							<path class="st0" d="M1175.2,1322.7c-5.7,0.5-12.9,1.8-18.3,3.7c-3.7,1.3-7.3,2.7-10.5,5.2c-9.6,7.4-5,20.1,5,23.8
								c11.6,4.3,28-3.7,31.4-15.6C1184.2,1334.9,1175.2,1322.7,1175.2,1322.7z"/>
							<path class="st0" d="M1116.3,1250.2c-3.2,14.3-5.8,22-5.8,22s-14.6,29.8-12,36.6c2.5,6.8,15.4,12.9,22.8,9.3
								c9.2-4.5,20.5-25.5,27.7-40.3c2.6-5.4,5.1-11.7,7.2-17.5C1126.7,1264.7,1116.3,1250.2,1116.3,1250.2L1116.3,1250.2z"/>
							<path class="st0" d="M1176.5,1320.4c-2.2,3.6-4.6,7.5-7.3,11.5c-14.4,21.8-36.6,40.6-22,57.2c13.7,15.6,44.8-25.3,44.8-25.3
								l14.4-18.8C1182.5,1339.4,1176.6,1320.6,1176.5,1320.4z"/>
						</g>
						<path id="Glove_Fingerless_Left_Glove_M" class="st0" d="M1206.5,1345.1l16-20.9c0,0,35-57.7,36.8-68.9
							c1.3-8.5,0.2-37.1,0.2-37.1l-10.9-110.6l-55.5,4.7l-45.7,14.9l-3.4,18.9c0,0-16.5,22.9-20.8,39.4c-3,11.6-1.4,39.3-5.3,57.9
							c-0.5,2.4-1,4.7-1.5,6.9l0,0c0,0,10.4,14.6,39.7,10.2c3.7-10.2,6.1-18.9,6.1-18.9s10,3.5,15.2,7.4c17.1,13.2,9.7,52.9,9.7,52.9
							s-3.9,7.9-10.4,18.6C1176.6,1320.6,1182.5,1339.4,1206.5,1345.1z"/>
					</g>
					<g id="Basic_Left_Glove_M_Option">
						<path class="st0" d="M1208,1296c-5.7-0.3-11.1-0.2-16.8,1c-3.8,0.8-7.6,1.7-11.1,3.7c-10.5,6.1-7.7,19.3,1.7,24.3
							c10.9,5.9,28.2,0.1,33.2-11.2C1217.1,1309.1,1210.7,1300.4,1208,1296"/>
						<path class="st0" d="M1188.7,1307.5c-5.7-0.3-11.1-0.2-16.8,1c-3.8,0.8-7.6,1.7-11.1,3.7c-10.5,6.1-7.7,19.3,1.7,24.3
							c10.9,5.9,28.2,0.1,33.2-11.2C1197.8,1320.6,1191.5,1311.9,1188.7,1307.5"/>
						<path class="st0" d="M1174.9,1323.1c-5.7,0.5-12.6,1.3-18,3.3c-3.7,1.3-7.3,2.7-10.5,5.2c-9.6,7.4-5,20.1,5,23.8
							c11.6,4.3,28-3.7,31.4-15.6C1184.2,1334.9,1174.9,1323.1,1174.9,1323.1z"/>
						<path class="st0" d="M1143.8,1146c0,0-16.5,22.9-20.8,39.4c-3,11.6-1.4,39.3-5.3,57.9c-3.8,18.6-7.3,28.9-7.3,28.9
							s-14.6,29.8-12,36.6c2.5,6.8,15.4,12.9,22.8,9.3c9.2-4.5,20.5-25.5,27.7-40.3c7.3-15,13.3-36.4,13.3-36.4s10,3.5,15.2,7.4
							c17.1,13.2,9.7,52.9,9.7,52.9s-7,14.2-17.6,30.2c-14.4,21.8-36.6,40.6-22,57.2c13.7,15.6,44.8-25.3,44.8-25.3l30.4-39.8
							c0,0,35-57.7,36.8-68.9c1.3-8.5,0.2-37.1,0.2-37.1l-10.9-110.6l-55.5,4.7l-45.7,14.9L1143.8,1146"/>
					</g>
				</g>
				<g id="Right-Glove_M">
					<g id="Fingerless_Right_Glove_M_Option">
						<g id="Fingers_Fingerless_Right_Glove_M">
							<path class="st0" d="M71.7,1296c5.7-0.3,11.1-0.2,16.8,1c3.9,0.8,7.6,1.7,11.1,3.7c10.5,6.1,7.6,19.3-1.7,24.3
								c-10.9,5.9-28.2,0.1-33.2-11.2C62.6,1309.1,68.9,1300.4,71.7,1296"/>
							<path class="st0" d="M90.9,1307.5c5.7-0.3,11.1-0.2,16.8,1c3.9,0.8,7.6,1.7,11.1,3.7c10.5,6.1,7.6,19.3-1.7,24.3
								c-10.9,5.9-28.2,0.1-33.2-11.2C81.8,1320.6,88.2,1311.9,90.9,1307.5"/>
							<path class="st0" d="M104.5,1322.7c5.7,0.5,12.8,1.8,18.3,3.7c3.7,1.3,7.3,2.7,10.5,5.2c9.6,7.4,5,20.1-5,23.8
								c-11.6,4.3-28-3.7-31.4-15.6C95.4,1334.9,104.5,1322.7,104.5,1322.7z"/>
							<path class="st0" d="M163.4,1250.2c3.2,14.3,5.8,22,5.8,22s14.6,29.8,12,36.6c-2.5,6.8-15.4,12.9-22.7,9.3
								c-9.1-4.5-20.5-25.5-27.7-40.3c-2.6-5.4-5.1-11.7-7.2-17.5C153,1264.7,163.4,1250.2,163.4,1250.2L163.4,1250.2z"/>
							<path class="st0" d="M103.1,1320.4c2.2,3.6,4.6,7.5,7.3,11.5c14.4,21.8,36.6,40.6,22,57.2c-13.7,15.6-44.8-25.3-44.8-25.3
								l-14.4-18.8C97.2,1339.4,103.1,1320.6,103.1,1320.4z"/>
						</g>
						<path id="Glove_Fingerless_Right_Glove_M" class="st0" d="M73.2,1345.1l-16-20.9c0,0-35-57.7-36.8-68.9
							c-1.4-8.5-0.2-37.1-0.2-37.1l10.9-110.6l55.5,4.7l45.7,14.9l3.4,18.9c0,0,16.5,22.9,20.9,39.4c3,11.6,1.4,39.3,5.3,57.9
							c0.5,2.4,1,4.7,1.5,6.9h0c0,0-10.4,14.6-39.7,10.2c-3.7-10.2-6.1-18.9-6.1-18.9s-10,3.5-15.2,7.4c-17.1,13.2-9.7,52.9-9.7,52.9
							s3.9,7.9,10.4,18.6C103.1,1320.6,97.2,1339.4,73.2,1345.1z"/>
					</g>
					<g id="Basic_Right_Glove_M_Option">
						<path class="st0" d="M71.7,1296c5.7-0.3,11.1-0.2,16.8,1c3.9,0.8,7.6,1.7,11.1,3.7c10.5,6.1,7.6,19.3-1.7,24.3
							c-10.9,5.9-28.2,0.1-33.2-11.2C62.6,1309.1,68.9,1300.4,71.7,1296"/>
						<path class="st0" d="M90.9,1307.5c5.7-0.3,11.1-0.2,16.8,1c3.9,0.8,7.6,1.7,11.1,3.7c10.5,6.1,7.6,19.3-1.7,24.3
							c-10.9,5.9-28.2,0.1-33.2-11.2C81.8,1320.6,88.2,1311.9,90.9,1307.5"/>
						<path class="st0" d="M104.7,1323.1c5.7,0.5,12.6,1.3,18,3.3c3.7,1.3,7.3,2.7,10.5,5.2c9.6,7.4,5,20.1-5,23.8
							c-11.6,4.3-28-3.7-31.4-15.6C95.4,1334.9,104.7,1323.1,104.7,1323.1z"/>
						<path class="st0" d="M135.8,1146c0,0,16.5,22.9,20.9,39.4c3,11.6,1.4,39.3,5.3,57.9c3.8,18.6,7.3,28.9,7.3,28.9
							s14.6,29.8,12,36.6c-2.5,6.8-15.4,12.9-22.7,9.3c-9.1-4.5-20.5-25.5-27.7-40.3c-7.3-15-13.3-36.4-13.3-36.4s-10,3.5-15.2,7.4
							c-17.1,13.2-9.7,52.9-9.7,52.9s7,14.2,17.6,30.2c14.4,21.8,36.6,40.6,22,57.2c-13.7,15.6-44.8-25.3-44.8-25.3l-30.5-39.8
							c0,0-35-57.7-36.8-68.9c-1.4-8.5-0.2-37.1-0.2-37.1l10.9-110.6l55.5,4.7l45.7,14.9L135.8,1146"/>
					</g>
				</g>
			</g>
			<path id="Vest_M" class="st0" d="M639.8,195.8c90.1-0.1,163.5-45.9,165.6-85.4l1.6,0.2l194.8,57.8l141.1,255.2l-30.3,12.4
				l-142.3-91.7l-24.5,39.6l-16.3,505.4c0,0-92.4,50.2-143.4,57c-36.5,4.8-91.5,7.2-146.2,7.1c-54.7,0.1-109.7-2.3-146.2-7.1
				c-51-6.8-143.4-57-143.4-57l-16.3-505.4l-24.5-39.6L167.1,436l-30.3-12.4l141.1-255.2l194.8-57.8l1.6-0.2
				C476.3,149.9,549.7,195.7,639.8,195.8"/>
		</g>
	</g>
	<g id="Upper-Body_M_Wrapper" transform="translate(190,557)">
		<title>Upper Body</title>
		<g id="Biceps_Current">
			<g id="LeftBiceps_Current"></g>
			<g id="RightBiceps_Current"></g>
		</g>
		<g id="Shoulders_Current">
			<g id="LeftShoulder_Current"></g>
			<g id="RightShoulder_Current"></g>
		</g>
		<g id="Chest_Current"></g>
		<g id="Elbows_Current">
			<g id="LeftElbow_Current"></g>
			<g id="LeftElbow_Current"></g>
		</g>
		<g id="Gauntlets_Current">
			<g id="LeftGauntlets_Current"></g>
			<g id="RightGauntlets_Current"></g>
		</g>
	</g>
	<g id="Lower-Body_M_Wrapper" transform="translate(290,1340)">
		<title>Lower Body</title>
		<g id="Shins_Current">
			<g id="LeftShin_Current"></g>
			<g id="RightShin_Current"></g>
		</g>
		<g id="Ankles_Current">
			<g id="LeftAnkle_Current"></g>
			<g id="RightAnkle_Current"></g>
		</g>
		<g id="Knees_Current">
			<g id="LeftKnee_Current"></g>
			<g id="RightKnee_Current"></g>
		</g>
		<g id="Thighs_Current">
			<g id="LeftThigh_Current"></g>
			<g id="RightThigh_Current"></g>
		</g>
		<g id="Groin_Current"></g>
		<g id="Waist_Current"></g>
	</g>
	<g id="Helmet_M_Wrapper" transform="translate(540,35)">
		<title>Helmet (Buy'ce)</title>
		<g id="Helmet_Current"></g>
	</g>
</svg>
