<?xml version="1.0" encoding="UTF-8" standalone="no"?>
<!DOCTYPE svg PUBLIC "-//W3C//DTD SVG 1.1//EN" "http://www.w3.org/Graphics/SVG/1.1/DTD/svg11.dtd">
<svg id="Male-Body" width="100%" height="100%" viewBox="0 0 1800 3200" version="1.1" xmlns="http://www.w3.org/2000/svg" style="stroke:black;fill:white;stroke-width:4px;">
	<style>
		.option {
			visibility: hidden;
		}
	</style>
	<g id="Back">
		<g id="Cape" transform="matrix(1,0,0,1,-345.148,0)">
			<g id="Full-Cape_Option" transform="matrix(4.16667,0,0,4.16667,-106.797,0)">
				<path d="M282.382,188.133C252.498,199.416 219.224,253.787 215.107,295.138C212.51,321.231 199.786,347.741 200.978,373.719C202.186,400.062 188.897,427.382 187.92,453.706C187.04,477.422 180.043,488.257 175.981,511.709C169.904,546.803 163.185,569.926 157.733,605.049C153.4,632.967 140.299,656.04 134.145,664.751C133.582,665.547 172.258,664.613 180.066,663.35C205.284,659.269 224.613,658.09 249.639,664.229C276.827,670.898 303.539,674.986 331.343,668.837C358.129,662.913 383.311,648.755 410.783,646.225C432.127,644.259 452.952,651.144 473.474,655.924C478.676,657.136 485.884,660.234 491.268,659.892C491.404,659.884 489.545,647.386 489.273,646.04C486.62,632.918 480.568,620.393 473.47,609.161C455.416,580.592 461.642,549.247 458.342,515.481C455.143,482.746 458.488,449.941 452.986,417.265C448.119,388.362 431.018,361.468 426.736,332.303C421.711,298.087 410.04,261.437 399.709,228.191C387.039,187.419 312.266,176.85 282.382,188.133Z" style="stroke-width:0.97px;"/>
			</g>
			<g id="Shoulder-Cape_Option" transform="matrix(0.871254,0,0,1.0528,117.868,-16.9251)">
				<path d="M1552.7,783.806C1536.45,746.35 1522.52,708.924 1522.52,708.924C1528.19,698.577 1571.95,698.914 1584.23,699.549C1612.85,701.028 1653.09,711.751 1670.56,729.276C1680.53,739.27 1700.88,739.819 1707.64,751.967C1708.17,752.916 1714.34,763.088 1713.75,763.539C1713.67,763.599 1717.21,784.138 1721.36,808.087C1750.4,827.225 1776.49,852.445 1794.03,881.876C1838.26,956.076 1882.39,1039.73 1916.55,1119.39C1945.68,1187.3 1994.99,1253.64 2025.12,1320.56C2059.17,1396.22 2075.4,1449.28 2104.84,1526.43C2135.2,1606.03 2172.7,1677.06 2229.28,1735.43C2251.53,1758.38 2288.19,1777.74 2302.77,1807.86C2304.26,1810.95 2316.79,1840.04 2316.52,1840.14C2305.86,1844.13 2289.09,1840.88 2277.71,1841.02C2232.81,1841.54 2138.94,1798.1 2097.11,1815.4C2043.26,1837.66 2049.08,1925.72 1999,1955.77C1947.02,1986.97 1858.82,1909.99 1799.1,1909.88C1744.13,1909.77 1757.38,2030.24 1709.18,2054.92C1694.26,2062.56 1596.3,2064.12 1596.88,2061.87C1603.23,2037.21 1613.58,1973.8 1602.77,1903.84C1589.18,1815.83 1586.57,1756.05 1574.26,1667.74C1566.04,1608.72 1572.61,1578.45 1557.76,1520.67C1541.28,1456.53 1549.02,1382.75 1528.1,1319.86C1507.47,1257.83 1514.64,1186.34 1501.6,1121.81C1480.94,1019.54 1498.72,829.766 1551.31,784.951C1551.77,784.562 1552.23,784.181 1552.7,783.806Z" style="stroke-width:4.18px;"/>
			</g>
			<g id="No-Cape_Option"></g>
		</g>
	</g>
	<g id="Flight-Suit" transform="translate(250,575)">
		<title>Flight Suit (Kute)</title>
		<g id="Soft-Parts">
			<g id="Boots">
				<path class="st0" d="M284,2475.6v31.2c0,0-69.5,51.6-101.6,56.8c-31,5-73.1-17.3-91-25.6c-8.6-4-16.4-24.3-16.4-24.3V2475l20,25.6
					l88.1,26.8L284,2475.6z"/>
				<path class="st0" d="M994.9,2475.6v31.2c0,0,69.5,51.6,101.6,56.8c31,5,73.1-17.3,91-25.6c8.6-4,16.4-24.3,16.4-24.3V2475
					c0,0-10.5,21-20,25.6c-18,8.7-88.1,26.8-88.1,26.8L994.9,2475.6z"/>
				<path class="st0" d="M150.2,2402.6c0,0-52.6,37.3-65.2,49.3c-5.8,5.5-11.5,14.3-10,22.5c1.7,8.6,9.8,24,20,29.3
					c17.7,9.2,56.7,29.7,86.3,25.6c31.2-4.4,101-51.8,101-51.8l54.1-71.1l-0.2,61.7l68.6-39.9c0,0,4.3-54.3,0.8-69.2
					c-3.4-14.3-22-37.5-22-37.5l-96-11.8L150.2,2402.6z"/>
				<path class="st0" d="M1128.7,2402.6c0,0,52.6,37.3,65.2,49.3c5.8,5.5,11.5,14.3,10,22.5c-1.7,8.6-9.8,24-20,29.3
					c-17.7,9.2-56.7,29.7-86.3,25.6c-31.2-4.4-101-51.8-101-51.8l-54.1-71.1v61.6l-68.6-39.9c0,0-4.1-54.2-0.6-69.1
					c3.4-14.3,22-37.5,22-37.5l96-11.8L1128.7,2402.6z"/>
				<path class="st0" d="M290.9,2466.2l45.5,1.9v-62.3L290.9,2466.2z"/>
				<path class="st0" d="M989.4,2468h-46.9v-62.3L989.4,2468z"/>
			</g>
			<g id="Suit">
				<path class="st0" d="M516,1662.3l-15.7,92.9l-116.9,566.3c0,0-52.3,31.5-79.1,36.9c-26.8,5.4-81.9-4.7-81.9-4.7l40.8-458.5
					l30.8-195.8l7-83.3c0,0-26.8-242.9-18.1-364c8.7-121.1,70.6-362.6,70.6-362.6l285.9,6.2l285.9-6.2c0,0,61.8,241.5,70.6,362.6
					c8.7,121.1-18.1,364-18.1,364l7,83.3l30.8,195.8l40.8,458.5c0,0-56.4,12.7-83.2,7.4c-26.8-5.4-77.8-39.6-77.8-39.6l-116.9-566.3
					l-15.7-92.9l-123.2-323.4L516,1662.3z"/>
				<g>
					<path class="st0" d="M785.2,53c0-9.6-9.8-17.3-21.9-17.3c0,0-82.7,9.1-124,9.1s-124-9.1-124-9.1c-12.1,0-21.9,7.8-21.9,17.3
						c0,9.6,9.8,17.3,21.9,17.3c0,0,82.7,9.1,124,9.1s124-9.1,124-9.1C775.4,70.3,785.2,62.6,785.2,53z"/>
					<path class="st0" d="M792.6,73.3c0-10-10.3-18.2-23-18.2c0,0-86.9,9.6-130.3,9.6c-43.4,0-130.3-9.6-130.3-9.6
						c-12.7,0-23,8.1-23,18.2s10.3,18.2,23,18.2c0,0,86.9,9.6,130.3,9.6c43.4,0,130.3-9.6,130.3-9.6C782.3,91.4,792.6,83.3,792.6,73.3z
						"/>
					<path class="st0" d="M801,98.4c0-10.6-10.9-19.2-24.3-19.2c0,0-91.6,10.1-137.4,10.1S501.8,79.2,501.8,79.2
						c-13.4,0-24.3,8.6-24.3,19.2c0,10.6,10.9,19.2,24.3,19.2c0,0,91.6,10.1,137.4,10.1s137.4-10.1,137.4-10.1
						C790.1,117.6,801,109,801,98.4z"/>
					<path class="st0" d="M809.1,121.4c0-11.1-11.4-20.1-25.5-20.1c0,0-96.2,10.6-144.3,10.6c-48.1,0-144.3-10.6-144.3-10.6
						c-14.1,0-25.5,9-25.5,20.1s11.4,20.1,25.5,20.1c0,0,96.2,10.6,144.3,10.6c48.1,0,144.3-10.6,144.3-10.6
						C797.6,141.6,809.1,132.5,809.1,121.4z"/>
					<path class="st0" d="M817.1,144c0-8.4-12-15.2-26.7-15.2c0,0-100.8,8-151.1,8s-151.1-8-151.1-8c-14.7,0-26.7,6.8-26.7,15.2
						s12,15.2,26.7,15.2c0,0,100.7,8,151.1,8s151.1-8,151.1-8C805.1,159.2,817.1,152.4,817.1,144z"/>
					<path class="st0" d="M817.1,169.4c0-8.4-12-15.2-26.7-15.2c0,0-100.8,8-151.1,8s-151.1-8-151.1-8c-14.7,0-26.7,6.8-26.7,15.2
						c0,8.4,12,15.2,26.7,15.2c0,0,100.7,15.4,151.1,15.4s151.1-15.4,151.1-15.4C805.1,184.6,817.1,177.8,817.1,169.4z"/>
				</g>
				<path class="st0" d="M1110.2,435l127,444l11,228.9l-101.2,19.5l-64.2-215.5L938.1,550l7.3-165.8l24.5-39.6L1110.2,435z"/>
				<path class="st0" d="M168.8,434.7l139.9-90.1l24.5,39.6l5.5,171L196.1,911.9l-64.2,215.5l-101.2-19.5l11-228.9L168.8,434.7z"/>
			</g>
			<g id="Gloves">
				<path id="Left_Glove" class="st0" d="M1142.8,1154.5l-23.7,28.6l-5.3,37.2l3.5,23.2l-17.8,53.9l-7.5,31.6l22.7,9.3l32.2-36.2
					l11.6-53.9l18.4,0.9v62.3l-38.8,48.3v12.1l8.9,17.7l19.4,5.6l28-27.9l27.8-42.8l30.8-54.5l9.6-17l-3.5-34.4l-10.9-110.6l-55.5,4.7
					l-45.7,14.9L1142.8,1154.5z"/>
				<path id="Right_Glove" class="st0" d="M136,1154.5l23.7,28.6l5.2,37.2l-3.5,23.2l17.8,53.9l7.5,31.6l-22.7,9.3l-32.2-36.2
					l-11.6-53.9l-18.4,0.9v62.3l38.8,48.3v12.1l-8.9,17.7l-19.4,5.6l-28-27.9l-27.8-42.8l-30.8-54.5l-9.6-17l3.5-34.4l10.9-110.6
					l55.5,4.7l45.7,14.9L136,1154.5z"/>
			</g>
			<g id="Sleeves_Toggle">
				<path class="st0" d="M1112.5,435l30.3,69.4c0,0-78.9,36-109.6,57c-27.8,19-74.8,69.2-74.8,69.2l-22.2-47.8l9.1-199.2l24.1-39
					L1112.5,435z"/>
				<path class="st0" d="M166.3,435L136,504.4c0,0,78.9,36,109.6,57c27.8,19,74.8,69.2,74.8,69.2l22.2-47.8l-9.1-199.2l-24.1-39
					L166.3,435z"/>
			</g>
			<path id="Vest" class="st0" d="M473.6,110.6c2.1,39.6,75.6,71.4,165.8,71.4s163.7-31.9,165.8-71.4l1.5,0.2l194.8,57.8l141.1,255.2
				l-30.3,12.4l-142.3-91.7l-24.5,39.6l-22.2,505.4c0,0-92.4,50.2-143.4,57c-71.7,9.5-215.2,9.5-286.9,0c-51-6.8-143.4-57-143.4-57
				l-16.3-505.4l-24.5-39.6l-142.3,91.7l-30.3-12.4l141.1-255.2l194.8-57.8L473.6,110.6z"/>
		</g>
	</g>
	<g id="Lower-body_wrapper" transform="translate(291,1343)">
		<title>Lower Body</title>
		<g id="Ankles_Current"></g>
		<g id="Shins_Current"></g>
		<g id="Knees_Current"></g>
		<g id="Thighs_Current"></g>
		<g id="Groin_Current"></g>
	</g>
	<g id="Upper-body_wrapper" transform="translate(190,557)">
		<title>Upper Body</title>
		<g id="Shoulders_Current">
			<g id="LeftShoulder_Current"></g>
			<g id="RightShoulder_Current"></g>
		</g>
		<g id="Biceps_Current">
			<g id="LeftBiceps_Current"></g>
			<g id="RightBiceps_Current"></g>
		</g>
		<g id="Chest_Current"></g>
		<g id="Elbows_Current">
			<g id="LeftElbow_Current"></g>
			<g id="LeftElbow_Current"></g>
		</g>
		<g id="Gauntlets_Current">
			<g id="LeftGauntlets_Current"></g>
			<g id="RightGauntlets_Current"></g>
		</g>
	</g>
	<g id="Helmet-wrapper" transform="translate(540,35)">
		<title>Helmet (Buy'ce)</title>
		<g id="Helmet_Current"></g>
	</g>
</svg>
