<?xml version="1.0" encoding="UTF-8" standalone="no"?>
<!DOCTYPE svg PUBLIC "-//W3C//DTD SVG 1.1//EN" "http://www.w3.org/Graphics/SVG/1.1/DTD/svg11.dtd">
<svg id="Male-Body" width="100%" height="100%" viewBox="0 0 1800 3200" version="1.1" xmlns="http://www.w3.org/2000/svg" style="stroke:black;fill:white;">
	<style>
		.option {
			visibility: hidden;
		}
	</style>
	<g id="Back">
		<g id="Cape" transform="matrix(1,0,0,1,-345.148,0)">
			<g id="No-Cape_Option"></g>
			<g id="Full-Cape_Option" transform="matrix(4.16667,0,0,4.16667,-106.797,0)">
				<path d="M282.382,188.133C252.498,199.416 219.224,253.787 215.107,295.138C212.51,321.231 199.786,347.741 200.978,373.719C202.186,400.062 188.897,427.382 187.92,453.706C187.04,477.422 180.043,488.257 175.981,511.709C169.904,546.803 163.185,569.926 157.733,605.049C153.4,632.967 140.299,656.04 134.145,664.751C133.582,665.547 172.258,664.613 180.066,663.35C205.284,659.269 224.613,658.09 249.639,664.229C276.827,670.898 303.539,674.986 331.343,668.837C358.129,662.913 383.311,648.755 410.783,646.225C432.127,644.259 452.952,651.144 473.474,655.924C478.676,657.136 485.884,660.234 491.268,659.892C491.404,659.884 489.545,647.386 489.273,646.04C486.62,632.918 480.568,620.393 473.47,609.161C455.416,580.592 461.642,549.247 458.342,515.481C455.143,482.746 458.488,449.941 452.986,417.265C448.119,388.362 431.018,361.468 426.736,332.303C421.711,298.087 410.04,261.437 399.709,228.191C387.039,187.419 312.266,176.85 282.382,188.133Z" style="stroke-width:0.97px;"/>
			</g>
			<g id="Shoulder-Cape_Option" transform="matrix(0.871254,0,0,1.0528,117.868,-16.9251)">
				<path d="M1552.7,783.806C1536.45,746.35 1522.52,708.924 1522.52,708.924C1528.19,698.577 1571.95,698.914 1584.23,699.549C1612.85,701.028 1653.09,711.751 1670.56,729.276C1680.53,739.27 1700.88,739.819 1707.64,751.967C1708.17,752.916 1714.34,763.088 1713.75,763.539C1713.67,763.599 1717.21,784.138 1721.36,808.087C1750.4,827.225 1776.49,852.445 1794.03,881.876C1838.26,956.076 1882.39,1039.73 1916.55,1119.39C1945.68,1187.3 1994.99,1253.64 2025.12,1320.56C2059.17,1396.22 2075.4,1449.28 2104.84,1526.43C2135.2,1606.03 2172.7,1677.06 2229.28,1735.43C2251.53,1758.38 2288.19,1777.74 2302.77,1807.86C2304.26,1810.95 2316.79,1840.04 2316.52,1840.14C2305.86,1844.13 2289.09,1840.88 2277.71,1841.02C2232.81,1841.54 2138.94,1798.1 2097.11,1815.4C2043.26,1837.66 2049.08,1925.72 1999,1955.77C1947.02,1986.97 1858.82,1909.99 1799.1,1909.88C1744.13,1909.77 1757.38,2030.24 1709.18,2054.92C1694.26,2062.56 1596.3,2064.12 1596.88,2061.87C1603.23,2037.21 1613.58,1973.8 1602.77,1903.84C1589.18,1815.83 1586.57,1756.05 1574.26,1667.74C1566.04,1608.72 1572.61,1578.45 1557.76,1520.67C1541.28,1456.53 1549.02,1382.75 1528.1,1319.86C1507.47,1257.83 1514.64,1186.34 1501.6,1121.81C1480.94,1019.54 1498.72,829.766 1551.31,784.951C1551.77,784.562 1552.23,784.181 1552.7,783.806Z" style="stroke-width:4.18px;"/>
			</g>
		</g>
	</g>
	<g id="Flight-Suit" transform="matrix(1.00223,0,0,1.14613,-458.879,1182.3)">
		<title>Flight Suit (Kute)</title>
		<g id="Soft-Parts">
			<g id="Boots" transform="matrix(1.32517,0,0,1.49961,729.581,-966.59)">
				<g>
					<g transform="matrix(-1.31718,0,0,1.08136,1689.97,-124.051)">
						<path d="M726.29,1716.4L726.29,1733.18C726.29,1733.18 686.583,1760.92 668.24,1763.71C650.512,1766.41 626.465,1754.43 616.231,1749.95C611.31,1747.8 606.835,1736.87 606.835,1736.87L606.835,1716.07C606.835,1716.07 612.824,1727.35 618.244,1729.82C628.534,1734.52 668.576,1744.25 668.576,1744.25L726.29,1716.4Z" style="stroke-width:2.24px;"/>
					</g>
					<g transform="matrix(-1.31718,0,0,1.08136,1689.97,-122.969)">
						<path d="M649.785,1676.13C649.785,1676.13 619.698,1696.21 612.54,1702.64C609.227,1705.62 605.942,1710.36 606.835,1714.72C607.786,1719.37 612.409,1727.66 618.244,1730.49C628.366,1735.41 650.646,1746.48 667.569,1744.25C685.409,1741.9 725.283,1716.4 725.283,1716.4L756.196,1678.15L756.196,1711.31L795.412,1689.83C795.412,1689.83 797.784,1660.65 795.748,1652.65C793.795,1644.97 783.196,1632.47 783.196,1632.47L728.303,1626.14L649.785,1676.13Z" style="stroke-width:2.24px;"/>
					</g>
					<g transform="matrix(-1.31718,0,0,1.08136,1689.97,-122.969)">
						<path d="M729.401,1711.31L756.196,1711.31L756.196,1677.81L729.401,1711.31Z" style="stroke-width:2.24px;"/>
					</g>
				</g>
				<g>
					<g transform="matrix(1.31718,0,0,1.08136,-758.572,-124.051)">
						<path d="M726.29,1716.4L726.29,1733.18C726.29,1733.18 686.583,1760.92 668.24,1763.71C650.512,1766.41 626.465,1754.43 616.231,1749.95C611.31,1747.8 606.835,1736.87 606.835,1736.87L606.835,1716.07L618.244,1729.82L668.576,1744.25L726.29,1716.4Z" style="stroke-width:2.24px;"/>
					</g>
					<g transform="matrix(1.31718,0,0,1.08136,-758.572,-122.969)">
						<path d="M649.785,1676.13C649.785,1676.13 619.698,1696.21 612.54,1702.64C609.227,1705.62 605.942,1710.36 606.835,1714.72C607.786,1719.37 612.409,1727.66 618.244,1730.49C628.366,1735.41 650.646,1746.48 667.569,1744.25C685.409,1741.9 725.283,1716.4 725.283,1716.4L756.196,1678.15L756.083,1711.37L795.299,1689.89C795.299,1689.89 797.784,1660.65 795.748,1652.65C793.795,1644.97 783.196,1632.47 783.196,1632.47L728.303,1626.14L649.785,1676.13Z" style="stroke-width:2.24px;"/>
					</g>
					<g transform="matrix(1.31718,0,0,1.08136,-758.572,-122.969)">
						<path d="M730.205,1710.31L756.196,1711.31L756.196,1677.81L730.205,1710.31Z" style="stroke-width:2.24px;"/>
					</g>
				</g>
			</g>
			<g id="Suit" transform="matrix(0.997778,0,0,1.0475,73.6392,34.784)">
				<g transform="matrix(1,0,0,0.832936,436.906,-1031.55)">
					<path d="M1309.9,1026.97L1436.93,1470.97L1447.89,1699.91L1346.67,1719.43L1282.52,1503.94L1137.87,1142L1145.14,976.225L1169.63,936.575L1309.9,1026.97Z" style="stroke-width:4.04px;"/>
				</g>
				<g transform="matrix(1,0,0,0.832936,436.906,-1031.55)">
					<path d="M368.514,1026.7L508.368,936.575L532.859,976.225L538.38,1147.23L395.824,1503.94L331.668,1719.43L230.445,1699.91L241.412,1470.97L368.514,1026.7Z" style="stroke-width:4.04px;"/>
				</g>
				<g transform="matrix(2.03538,0,0,1.63063,328.037,-1007.92)">
					<g transform="matrix(1.29579,0,0,0.929431,-738.62,-84.9653)">
						<path d="M984.737,430.319C984.737,425.068 981.013,420.806 976.426,420.806C976.426,420.806 945.078,425.806 929.404,425.806C913.73,425.806 882.382,420.806 882.382,420.806C877.795,420.806 874.071,425.068 874.071,430.319C874.071,435.569 877.795,439.832 882.382,439.832C882.382,439.832 913.73,444.832 929.404,444.832C945.078,444.832 976.426,439.832 976.426,439.832C981.013,439.832 984.737,435.569 984.737,430.319Z" style="stroke-width:1.78px;"/>
					</g>
					<g transform="matrix(1.36143,0,0,0.976507,-799.619,-94.8875)">
						<path d="M984.737,430.319C984.737,425.068 981.013,420.806 976.426,420.806C976.426,420.806 945.078,425.806 929.404,425.806C913.73,425.806 882.382,420.806 882.382,420.806C877.795,420.806 874.071,425.068 874.071,430.319C874.071,435.569 877.795,439.832 882.382,439.832C882.382,439.832 913.73,444.832 929.404,444.832C945.078,444.832 976.426,439.832 976.426,439.832C981.013,439.832 984.737,435.569 984.737,430.319Z" style="stroke-width:1.7px;"/>
					</g>
					<g transform="matrix(1.43578,0,0,1.02984,-868.719,-104.993)">
						<path d="M984.737,430.319C984.737,425.068 981.013,420.806 976.426,420.806C976.426,420.806 945.078,425.806 929.404,425.806C913.73,425.806 882.382,420.806 882.382,420.806C877.795,420.806 874.071,425.068 874.071,430.319C874.071,435.569 877.795,439.832 882.382,439.832C882.382,439.832 913.73,444.832 929.404,444.832C945.078,444.832 976.426,439.832 976.426,439.832C981.013,439.832 984.737,435.569 984.737,430.319Z" style="stroke-width:1.61px;"/>
					</g>
					<g transform="matrix(1.50761,0,0,1.08136,-935.486,-115.4)">
						<path d="M984.737,430.319C984.737,425.068 981.013,420.806 976.426,420.806C976.426,420.806 945.078,425.806 929.404,425.806C913.73,425.806 882.382,420.806 882.382,420.806C877.795,420.806 874.071,425.068 874.071,430.319C874.071,435.569 877.795,439.832 882.382,439.832C882.382,439.832 913.73,444.832 929.404,444.832C945.078,444.832 976.426,439.832 976.426,439.832C981.013,439.832 984.737,435.569 984.737,430.319Z" style="stroke-width:1.53px;"/>
					</g>
					<g transform="matrix(1.57903,0,0,0.816557,-1001.86,10.0899)">
						<path d="M984.737,430.319C984.737,425.068 981.013,420.806 976.426,420.806C976.426,420.806 945.078,425.806 929.404,425.806C913.73,425.806 882.382,420.806 882.382,420.806C877.795,420.806 874.071,425.068 874.071,430.319C874.071,435.569 877.795,439.832 882.382,439.832C882.382,439.832 913.73,444.832 929.404,444.832C945.078,444.832 976.426,439.832 976.426,439.832C981.013,439.832 984.737,435.569 984.737,430.319Z" style="stroke-width:1.59px;"/>
					</g>
					<g transform="matrix(1.57903,0,0,0.816557,-1001.86,23.0506)">
						<path d="M984.737,430.319C984.737,425.068 981.013,420.806 976.426,420.806C976.426,420.806 945.078,425.806 929.404,425.806C913.73,425.806 882.382,420.806 882.382,420.806C877.795,420.806 874.071,425.068 874.071,430.319C874.071,435.569 877.795,439.832 882.382,439.832C882.382,439.832 913.73,449.461 929.404,449.461C945.078,449.461 976.426,439.832 976.426,439.832C981.013,439.832 984.737,435.569 984.737,430.319Z" style="stroke-width:1.59px;"/>
					</g>
				</g>
				<g transform="matrix(1.74938,0,0,1.54809,-350.077,-1132.01)">
					<path d="M859.029,1277.8L850.029,1327.8L783.196,1632.47C783.196,1632.47 753.306,1649.43 737.963,1652.32C722.619,1655.21 691.136,1649.81 691.136,1649.81L714.446,1403.13L732.029,1297.8L736.029,1252.97C736.029,1252.97 720.696,1122.29 725.696,1057.13C730.696,991.977 766.029,862.023 766.029,862.023L929.463,865.356L1092.9,862.023C1092.9,862.023 1128.23,991.977 1133.23,1057.13C1138.23,1122.29 1122.9,1252.97 1122.9,1252.97L1126.9,1297.8L1144.48,1403.13L1167.79,1649.81C1167.79,1649.81 1135.54,1656.64 1120.2,1653.76C1104.86,1650.87 1075.73,1632.47 1075.73,1632.47L1008.9,1327.8L999.897,1277.8L929.463,1103.8L859.029,1277.8Z" style="stroke-width:2.24px;"/>
				</g>
			</g>
			<g id="Vest" transform="matrix(0.997778,0,0,0.8725,509.574,-557.169)">
				<path d="M673.214,142.643C675.327,182.234 748.818,214.084 839.037,214.084C929.255,214.084 1002.75,182.234 1004.86,142.653L1006.36,142.857L1201.12,200.628L1342.24,455.875L1311.91,468.266L1169.63,376.575L1145.14,416.225L1122.97,921.589C1122.97,921.589 1030.53,971.83 979.521,978.586C907.797,988.085 764.348,988.085 692.623,978.586C641.616,971.83 549.174,921.589 549.174,921.589L532.859,416.225L508.368,376.575L366.085,468.266L335.762,455.875L476.879,200.628L671.643,142.857L673.214,142.643Z" style="stroke-width:4.04px;"/>
			</g>
		</g>
		<g id="Gloves" transform="matrix(0.997778,0,0,1.0475,73.6392,34.784)">
			<g id="Left_Glove" transform="matrix(-1.74938,0,0,1.54809,2902.23,-1132.01)">
				<path d="M641.796,1004.6L655.339,1020.01L658.339,1040.01L656.339,1052.51L666.53,1081.51L670.839,1098.51L657.839,1103.51L639.456,1084.01L632.839,1055.01L622.339,1055.51L622.339,1089.01L644.523,1115.01L644.523,1121.51L639.456,1131.01L628.339,1134.01L612.339,1119.01L596.456,1096.01L578.839,1066.67L573.339,1057.51L575.339,1039.01L581.594,979.514L613.339,982.014L639.456,990.014L641.796,1004.6Z" style="stroke-width:2.24px;"/>
			</g>
			<g id="Right_Glove" transform="matrix(1.74938,0,0,1.54809,-350.077,-1132.01)">
				<path d="M641.796,1004.6L655.339,1020.01L658.339,1040.01L656.339,1052.51L666.53,1081.51L670.839,1098.51L657.839,1103.51L639.456,1084.01L632.839,1055.01L622.339,1055.51L622.339,1089.01L644.523,1115.01L644.523,1121.51L639.456,1131.01L628.339,1134.01L612.339,1119.01L596.456,1096.01L578.839,1066.67L573.339,1057.51L575.339,1039.01L581.594,979.514L613.339,982.014L639.456,990.014L641.796,1004.6Z" style="stroke-width:2.24px;"/>
			</g>
		</g>
		<g id="Sleeves_Toggle" transform="matrix(0.997778,0,0,1.0475,73.6392,34.784)">
			<g id="Sleeves">
				<g transform="matrix(-1.74938,0,0,1.54809,2902.23,-1132.01)">
					<path d="M659.13,617.472L641.796,654.806C641.796,654.806 686.894,674.153 704.463,685.472C720.352,695.709 747.213,722.722 747.213,722.722L759.88,697.022L754.68,589.822L740.88,568.822L659.13,617.472Z" style="stroke-width:2.24px;"/>
				</g>
				<g transform="matrix(1.74938,0,0,1.54809,-350.077,-1132.01)">
					<path d="M659.13,617.472L641.796,654.806C641.796,654.806 686.894,674.153 704.463,685.472C720.352,695.709 747.213,722.722 747.213,722.722L759.88,697.022L754.68,589.822L740.88,568.822L659.13,617.472Z" style="stroke-width:2.24px;"/>
				</g>
			</g>
		</g>
	</g>
	<g id="Lower-body_wrapper" transform="translate(291,1343)">
		<title>Lower Body</title>
		<g id="Ankles_Current"></g>
		<g id="Shins_Current"></g>
		<g id="Knees_Current"></g>
		<g id="Thighs_Current"></g>
		<g id="Groin_Current"></g>
	</g>
	<g id="Upper-body_wrapper" transform="translate(190,557)">
		<title>Upper Body</title>
		<g id="Shoulders_Current"></g>
		<g id="Biceps_Current"></g>
		<g id="Chest_Current"></g>
		<g id="Elbows_Current"></g>
		<g id="Gauntlets_Current"></g>
	</g>
	<g id="Helmet-wrapper" transform="translate(540,35)">
		<title>Helmet (Buy'ce)</title>
		<g id="Helmet_Current"></g>
	</g>
</svg>
