<?xml version="1.0" encoding="utf-8"?>
<!-- Generator: Adobe Illustrator 25.2.0, SVG Export Plug-In . SVG Version: 6.00 Build 0)  -->
<svg version="1.1" id="Layer_1" xmlns:serif="http://www.serif.com/"
	 xmlns="http://www.w3.org/2000/svg" xmlns:xlink="http://www.w3.org/1999/xlink" x="0px" y="0px" viewBox="0 0 1400 1400"
	 xml:space="preserve">
<g id="Biceps_M_ToggleOff">
	<g id="Left-Biceps_M">
		<g id="None_Biceps_Left_M_Option">
		</g>
		<g id="Full-Band_Biceps_Left_M_Option">
			<path id="Main_Full-Band_Biceps_Left_M" d="M1009.6,613.3l-9-24.8l4.7-146.7c0,0,112.3-38.2,150.9-51.3
				c7.2-2.4,15,1.2,17.7,8.3c14,36.8,53.5,140.6,53.5,140.6L1009.6,613.3"/>
			<g id="Trim_Full-Band_Biceps_Left_M">
				<path d="M1181.3,492.8c11.8,0,21.4,9.2,21.4,20.6c0,11.4-9.6,20.6-21.4,20.6c-11.8,0-21.4-9.2-21.4-20.6
					C1159.9,502.1,1169.5,492.8,1181.3,492.8"/>
				<path d="M1227.4,539.5l5,13.8c1.4,3.8,1.2,8.1-0.6,11.8c-1.8,3.7-4.9,6.5-8.8,7.8c-39.9,13.5-150,50.6-189.2,63.8
					c-7.8,2.6-16.3-1.4-19.1-9.2l-5.1-14.1L1227.4,539.5"/>
			</g>
		</g>
		<g id="Basic_Biceps_Left_M_Option">
			<path id="Main_Basic_Biceps_Left_M" d="M1224.3,527.2c-12.1-29.3-65.9-157.6-65.9-157.6s-88.4,36.5-110.4,45.6
				c-6.2,2.6-9.2,9.7-6.6,16c10.4,25.2,35.8,86.8,51.7,125.1c3.6,8.7,10.5,15.6,19.1,19.2c8.7,3.6,18.4,3.6,27.1,0
				c26-10.7,60.8-25.1,78.4-32.4C1223.9,540.6,1226.8,533.4,1224.3,527.2z"/>
			<path id="Strap_Basic_Biceps_Left_M" d="M1065,488l-62,25.6l-1.5,45.7l79.4-32.8L1065,488"/>
			<path id="Trauma-Plate_Basic_Biceps_Left_M_ToggleOff" d="M1223.9,521.1l-56.1-135.9l-107.6,44.4l49.4,119.8
				c1.8,4.3,5.1,7.7,9.4,9.4c4.3,1.8,9.1,1.8,13.3,0L1223.9,521.1"/>
		</g>
	</g>
	<g id="Right-Biceps_M">
		<g id="None_Biceps_Right_M_Option">
		</g>
		<g id="Full-Band_Biceps_Right_M_Option">
			<path id="Main_Full-Band_Biceps_Right_M" d="M392.7,613.3l9-24.8l-4.7-146.7c0,0-112.3-38.2-150.9-51.3
				c-7.2-2.4-15,1.2-17.7,8.3c-14,36.8-53.5,140.6-53.5,140.6L392.7,613.3"/>
			<g id="Trim_Full-Band_Biceps_Right_M">
				<path d="M221,492.8c-11.8,0-21.4,9.2-21.4,20.6c0,11.4,9.6,20.6,21.4,20.6s21.4-9.2,21.4-20.6
					C242.4,502.1,232.8,492.8,221,492.8"/>
				<path d="M174.8,539.5l-5,13.8c-1.4,3.8-1.2,8.1,0.6,11.8c1.8,3.7,5,6.5,8.8,7.8c40,13.5,150,50.6,189.2,63.8
					c7.8,2.6,16.3-1.4,19.1-9.2l5.1-14.1L174.8,539.5"/>
			</g>
		</g>
		<g id="Basic_Biceps_Right_M_Option">
			<path id="Main_Basic_Biceps_Right_M" d="M178,527.2c12.1-29.3,65.9-157.6,65.9-157.6s88.4,36.5,110.4,45.6
				c6.2,2.6,9.2,9.7,6.6,16c-10.4,25.2-35.8,86.8-51.7,125.1c-3.6,8.7-10.5,15.6-19.1,19.2c-8.7,3.6-18.4,3.6-27.1,0
				c-26-10.7-60.8-25.1-78.4-32.4C178.4,540.6,175.4,533.4,178,527.2z"/>
			<path id="Strap_Basic_Biceps_Right_M" d="M337.2,488l62,25.6l1.5,45.7l-79.4-32.8L337.2,488"/>
			<path id="Trauma-Plate_Basic_Biceps_Right_M_ToggleOff" d="M178.3,521.1l56.1-135.9l107.7,44.4l-49.4,119.8
				c-1.8,4.3-5.1,7.7-9.4,9.4c-4.3,1.8-9.1,1.8-13.3,0L178.3,521.1"/>
		</g>
	</g>
</g>
<g id="Chest_M">
	<g id="Chest_Classic_M">
		<g id="Abdomen_Classic_M">
			<path id="Abdomen-Plate_Classic_M" d="M557.3,820.3l-77.6-32.2l-7-71.9l60.6-19.8l51.3-102.8l116-37.2l116,37.2
				l51.3,102.8l60.6,19.8l-7,71.9l-77.6,32.2l-143.4-3.7L557.3,820.3z"/>
			<path id="Trauma-Plate_Abdomen_Classic_M_ToggleOff" d="M804.5,607.9l-103.8-33.2L597,607.9l-48,96.3
				c-2.1,4.2-5.7,7.3-10.2,8.8l-47.4,15.5l4.6,47.6l64.5,26.8l139.7-3.6c0.3,0,0.6,0,0.9,0l139.7,3.6l64.5-26.8l4.6-47.6l-47.4-15.5
				c-4.4-1.4-8.1-4.6-10.2-8.8L804.5,607.9z"/>
		</g>
		<g id="Iron-Heart_Classic_M">
			<path id="Heart_Classic_M" d="M672.4,427.6v-97.4l28.6-22.4l28.6,22.4v97.4L701,456.5L672.4,427.6z"/>
			<g id="None_Heart_Classic_M_Option">
			</g>
			<rect id="Center_Heart_Classic_M_Option" x="691.1" y="345.2" width="19.8" height="66.7"/>
		</g>
		<g id="Chest-Plates_Classic_M">
			<g id="Left-Chest_Classic_M">
				<path id="Chest_Left_Classic_M" d="M961.1,244.6l-237.9,28.5l-2.3,22.3l30.3,28.5l-2.3,120.2l-26.8,26v39.7
					l102.6,28.5l40.8,92.9l45.5,37.2l50.1-255.2l26.8-13.6L961.1,244.6z"/>
				<path id="Trauma-Plating_Left-Chest_Classic_ToggleOff" d="M738.9,288.9l0.1-0.7l208.8-25l22,127l-23.1,11.7
					l-46.3,235.8l-20.7-16.9l-42.4-96.5l-98-27.2v-19.8l26.7-25.9l2.6-134.5L738.9,288.9z"/>
			</g>
			<g id="Right-Chest_Classic_M">
				<path id="Chest_Right_Classic_M" d="M440.9,244.6l237.9,28.5l2.3,22.3l-30.3,28.5l2.3,120.2l26.8,26v39.7
					l-102.6,28.5l-40.8,92.9l-45.5,37.2l-50.1-255.2l-26.8-13.6L440.9,244.6z"/>
				<path id="Trauma-Plating_Right-Chest_Classic_ToggleOff" d="M663.6,288.9l-0.1-0.7l-208.8-25l-22,127l23.1,11.7
					l46.3,235.8l20.7-16.9l42.4-96.5l98-27.2v-19.8l-26.7-25.9l-2.6-134.5L663.6,288.9z"/>
			</g>
		</g>
		<g id="Neck-Armor_Classic_M">
			<path id="Neck-Plate_Classic_M" d="M589,229.7l-148.1-16.1l-26.8-82.2l122.5-36.7c0,0,16.2,27.5,28,37.2
				c12.1,9.9,28.2,21.6,43.3,28.2c16.5,7.2,36.7,12.1,55.9,15.2c21.6,3.5,53.1,3.5,74.6,0c19.2-3.1,41.4-8,57.9-15.2
				c15.1-6.6,29.1-18.3,41.2-28.2c11.8-9.7,28-37.2,28-37.2l122.5,36.7l-26.8,82.2L813,229.7l-112,14.9L589,229.7z"/>
			<path id="Trauma-Plates_Neck_Classic_M_ToggleOff" d="M679.7,228.8l-90.6-12l-136.3-25.9l-16-49.2l87.2-26.1
				c0,0,25.6,27,37.4,36.7c12.1,9.9,31.5,18.2,46.6,24.9c16.5,7.2,36.7,12.1,55.9,15.2c4.9,0.8,10.3,1.4,16,1.8V228.8z M722.3,194.1
				c5.7-0.4,11.1-1.1,16-1.8c19.2-3.1,41.4-8,57.9-15.2c15.1-6.6,34.5-16.9,46.5-26.9c11.8-9.7,30.5-36.1,30.5-36.1l92,27.6
				l-16.1,49.5L813,216.7l-90.6,12V194.1z"/>
		</g>
	</g>
	<g id="Chest_Legacy_M">
		<g id="Abdomen_Legacy_M">
			<path id="Plate-4_Upper-Armor_Legacy_M" d="M813.8,750.5l-15.3-14.3L701,721.9l-97.5,14.3l-15.3,14.3l-183.8-28.6
				l6.3,79.9l290.8,45.5l289.6-45.5l6.3-79.9L813.8,750.5z"/>
			<path id="Plate-3_Upper-Armor_Legacy_M" d="M817.5,679.3L801.7,665L701,650.7L600.3,665l-15.8,14.3l-189.9-28.6
				l6.5,79.9L701.6,776l299.2-45.5l6.5-79.9L817.5,679.3z"/>
			<path id="Plate-2_Upper-Armor_Legacy_M" d="M821.3,605.6l-16.3-14.3L701,577l-104.1,14.3l-16.3,14.3L384.5,577
				l6.8,79.9l310.3,45.5l309.1-45.5l6.8-79.9L821.3,605.6z"/>
			<path id="Plate-1_Upper-Armor_Legacy_M" d="M826.5,524l-17-15.2L701,493.6l-108.5,15.2l-17,15.2H371l7,54.5
				l323.6,48.3l322.3-48.3l7.1-54.5H826.5z"/>
			<g id="Trauma-Plates_Abdomen_Legacy_M_ToggleOff">
				<path id="Trauma-Plate-4_Abdomen_Legacy_M_Toggle" d="M701.6,776l281.7-42.8l-4.3,53.8l-277.5,43.6L423,787.1
					l-4.3-53.8L701.6,776z"/>
				<path id="Trauma-Plate-3_Abdomen_Legacy_M_Toggle" d="M701.6,702.4l291.5-42.9l-4.9,59.3l-286.6,43.6l-287.8-43.6
					l-4.9-59.3L701.6,702.4z"/>
				<path id="Trauma-Plate-2_Abdomen_Legacy_M_Toggle" d="M701.7,626.8l301.6-45.2l-5.5,65.6l-296.1,43.6l-297.3-43.6
					l-5.5-65.6L701.7,626.8z"/>
				<path id="Trauma-Plate-1_Abdomen_Legacy_M_Toggle" d="M388,527.4h188.7l17.1-12.9l107-12.7l107,12.7l17.1,12.9H1014
					l-4.3,33.3l-308.1,46.2l-309.3-46.2L388,527.4z"/>
			</g>
		</g>
		<g id="Chest-Plates_Legacy_M">
			<g id="Left-Chest_Legacy_M">
				<path id="Chest_Left_Legacy_M" d="M701.1,267.4v234.3l107,12.7l17.1,12.9h205.6l15.4-9.5l6.9-140.7l-53.3-144.9
					L701.1,267.4z"/>
				<path id="Trauma-Plating_Left-Chest_Legacy_M_ToggleOff" d="M987.4,261l41,118.9l-6.7,123.8L833.4,505l-25.3-35
					h-89.5l30.1-27.9l2.3-120.2l-30.3-28.5L987.4,261z"/>
			</g>
			<g id="Right-Chest_Legacy_M">
				<path id="Chest_Right_Legacy_M" d="M700.9,267.4v234.3l-107,12.7l-17.1,12.9H371.1l-15.4-9.5l-6.9-140.7l53.3-144.9
					L700.9,267.4z"/>
				<path id="Trauma-Plating_Right-Chest_Legacy_M_ToggleOff" d="M414.6,261l-41,118.9l6.7,123.8l188.3,1.3l25.3-35
					h89.5l-30.1-27.9L651,321.9l30.3-28.5L414.6,261z"/>
			</g>
		</g>
		<g id="Iron-Heart_Legacy_M">
			<path id="Heart_Legacy_M" d="M672.4,425.6v-97.4l28.6-22.4l28.6,22.4v97.4L701,454.5L672.4,425.6z"/>
			<g id="None_Heart_Legacy_M_Option">
			</g>
			<rect id="Center_Heart_Legacy_M_Option" x="691.1" y="343.2" width="19.8" height="66.7"/>
		</g>
		<g id="Neck-Armor_Legacy_M">
			<path id="Neck-Plate_Legacy_M" d="M587.5,253.7l-185.8-21.4l14.8-102.9L539,92.7c0,0,16.2,27.5,28,37.2
				c12.1,9.9,28.2,21.6,43.3,28.2c16.5,7.2,36.6,12.1,55.9,15.2c21.6,3.5,53.1,3.5,74.6,0c19.2-3.1,41.4-8,57.9-15.2
				c15.1-6.6,29.1-18.3,41.2-28.2c11.8-9.7,28-37.2,28-37.2l122.5,36.7l9.9,102.9l-180.5,20.9l-118.1,14.2L587.5,253.7z"/>
			<path id="Trauma-Plates_Neck_Legacy_M_ToggleOff" d="M681.9,241.3l-95.7-11.5L428,205.2l7.1-59.1l86.5-26.7
				c0,0,32.2,27.5,44,37.2c12.1,9.9,28.2,21.6,43.3,28.2c16.5,7.2,36.7,12.1,55.9,15.2c5.2,0.9,11.1,1.5,17.2,1.9V241.3z M720.1,202
				c6.9-0.4,13.4-1.1,19.2-2.1c19.2-3.1,41.4-8,57.9-15.2c15.1-6.6,29.1-18.3,41.2-28.2c11.8-9.7,42.7-37.2,42.7-37.2l87.8,26.7
				l5.1,62.3l-155.7,20.9l-98.2,11.8V202z"/>
		</g>
	</g>
	<g id="Chest_Heavy_M">
		<g id="Abdomen_Heavy_M">
			<g id="Under-Plates_Abdomen_Heavy_M">
				<rect x="582.9" y="714.9" width="236.2" height="30.2"/>
				<rect x="582.9" y="745.1" width="236.2" height="30.2"/>
				<rect x="582.9" y="775.3" width="236.2" height="30.2"/>
				<rect x="582.9" y="805.5" width="236.2" height="30.2"/>
				<rect x="582.9" y="835.6" width="236.2" height="30.2"/>
			</g>
			<g id="Abdomen-Plate_Heavy_M">
				<path d="M628.5,617.6l-117.7,50l-11.1-26.8l128.8-54.7V617.6z"/>
				<path d="M552,767.8l-41.3-100.2l117.7-50L665.3,723L552,767.8z"/>
				<path d="M499.7,640.8l-49.5,8.6l73,173.6l49.8-9.9L499.7,640.8z"/>
				<path d="M773.5,617.6l117.7,50l11.1-26.8l-128.8-54.7V617.6z"/>
				<path d="M850,767.8l41.3-100.2l-117.7-50L736.7,723L850,767.8z"/>
				<path d="M902.3,640.8l49.5,8.6l-73,173.6l-49.8-9.9L902.3,640.8z"/>
				<rect x="628.9" y="586.1" width="144.3" height="31.5"/>
				<path d="M665.3,723l-36.9-105.4h145.1L736.7,723H665.3z"/>
			</g>
		</g>
		<g id="Neck-Armor_Heavy_M">
			<g id="Neck-Plate_Heavy_M">
				<path d="M538.8,92.7l-102,22.4c0,0,11.8,46.3,18.4,72.1c2.4,9.4,11.8,15.2,21.3,13.1c18.5-4.1,47.9-10.5,66.8-14.7
					c4.8-1,8.9-4,11.5-8.1c2.6-4.2,3.3-9.2,2.1-13.9C550.2,137.6,538.8,92.7,538.8,92.7z"/>
				<path d="M863.2,92.7l102,22.4c0,0-11.8,46.3-18.4,72.1c-2.4,9.4-11.8,15.2-21.3,13.1c-18.5-4.1-47.9-10.5-66.8-14.7
					c-4.8-1-8.9-4-11.5-8.1c-2.6-4.2-3.3-9.2-2.1-13.9C851.8,137.6,863.2,92.7,863.2,92.7z"/>
			</g>
			<g id="Secondary_Neck-Plate_Heavy_M">
				<path d="M513.4,94.6L462,105.8c0,0,7.8,30.5,11.7,45.7c1.2,4.7,5.9,7.5,10.6,6.5c9.3-2,24.3-5.3,33.9-7.4
					c2.4-0.5,4.4-2,5.7-4c1.3-2.1,1.6-4.5,1-6.9C521,124.3,513.4,94.6,513.4,94.6z"/>
				<path d="M888.6,94.6l51.3,11.3c0,0-7.8,30.5-11.7,45.7c-1.2,4.7-5.9,7.5-10.6,6.5c-9.3-2-24.3-5.3-33.9-7.4
					c-2.4-0.5-4.4-2-5.7-4c-1.3-2.1-1.6-4.5-1-6.9C881,124.3,888.6,94.6,888.6,94.6z"/>
			</g>
		</g>
		<g id="Full-Chest_Heavy_M">
			<path id="Under-Plate_Chest_Heavy_M" d="M759.2,550.4H642.8l-29.3,25.1v16.8l15.4-6.4h144.3l15.4,6.5v-17
				L759.2,550.4z"/>
			<g id="Chest-Plate_Heavy_M">
				<path d="M497.3,626.1l103.3-60l14-28.4l27.5,3.7h117.7l27.5-3.7l14,28.4l103.3,60l48,10.5l-1.2,17.6l-51.3-8.9
					l-111.7-46.6v-23.1l-29.3-25.1H642.8l-29.3,25.1v23.1l-111.7,46.6l-51.3,8.9l-1.2-17.6L497.3,626.1z"/>
				<path d="M952.7,636.6l59.8-153.6l8.8,31.5l-19,114.2L952.7,636.6z"/>
				<path d="M380.7,514.5l8.8-31.5l59.8,153.6l-49.6-7.9L380.7,514.5z"/>
				<path d="M447.6,423.2V359L442.7,244l29.8-33l90.2-18.8l23.3,27.4h229.9l23.3-27.4l90.2,18.8l29.8,33l-4.8,112.2
					l-0.1-0.3v67.3l-167,114.5l-27.5,3.7H642.1l-27.5-3.7L447.6,423.2z"/>
				<path d="M954.4,359v64.2l58.2,59.8L954.4,359z"/>
				<path d="M614.6,537.7l-167-114.5L389.4,483l59.8,153.6l48-10.5l103.3-60L614.6,537.7z"/>
				<path d="M1012.6,483l-59.8,153.6l-48-10.5l-103.3-60l-14-28.4l167-114.5L1012.6,483z"/>
				<path d="M1002.4,628.7l-2,12.2l-48.8,13.3l1.2-17.6L1002.4,628.7z"/>
				<path d="M447.6,359v64.2L389.4,483L447.6,359z"/>
				<path d="M442.7,244c-0.6,59-7.6,118-24.2,177l29.1-62L442.7,244z"/>
				<path d="M959.4,244c0.6,59,7.6,118,24.2,177l-29.1-62L959.4,244z"/>
				<path d="M449.3,636.6l1.2,17.6L401.6,641l-2-12.2L449.3,636.6z"/>
			</g>
			<g id="Accents_Chest-Plate_Heavy_M_ToggleOn">
				<g id="Accent-3_Accents_Chest-Plate_Heavy_M">
					<path d="M837.5,357.4l-6.1-19.1h27.9l-6.1,19.1H837.5z"/>
					<path d="M837.5,394.4l-6.1-19.1h27.9l-6.1,19.1H837.5z"/>
					<rect x="819.6" y="243.9" width="52.3" height="5.7"/>
					<rect x="819.6" y="262.2" width="52.3" height="5.7"/>
				</g>
				<path id="Accent-2_Accents_Chest-Plate_Heavy_M" d="M545.2,190.2c-0.3-3.5-3.3-6.2-6.8-5.9
					c-11.4,0.7-35.2,2.3-46.7,3c-1.7,0.1-3.3,0.9-4.4,2.2c-1.1,1.3-1.7,3-1.6,4.7c1.2,16.4,4.4,59.2,5.6,75.4
					c0.3,3.5,3.3,6.2,6.8,5.9c11.4-0.7,35.2-2.3,46.7-3c1.7-0.1,3.3-0.9,4.4-2.2c1.1-1.3,1.7-3,1.6-4.7
					C549.6,249.3,546.4,206.4,545.2,190.2z"/>
				<g id="Accent-1_Accents_Chest-Plate_Heavy_M">
					<path d="M538.3,190.3l-45.9,3l5.7,76.1l45.9-3L538.3,190.3z"/>
					<path d="M533.3,196.3l-35,2.3l0.8,10.9l35-2.3L533.3,196.3z"/>
					<path d="M503.9,209.1l-4.8,0.3l4.5,59.7l4.8-0.3L503.9,209.1z"/>
					<path d="M508.9,208.8l-4.8,0.3l4.5,59.7l4.8-0.3L508.9,208.8z"/>
					<path d="M534.1,207.2l-4.8,0.3l4.5,59.7l4.8-0.3L534.1,207.2z"/>
					<path d="M529.1,207.5l-4.8,0.3l4.5,59.7l4.8-0.3L529.1,207.5z"/>
					<path d="M519,208.2l-4.8,0.3l4.5,59.7l4.8-0.3L519,208.2z"/>
					<path d="M524,207.8l-4.8,0.3l4.5,59.7l4.8-0.3L524,207.8z"/>
					<path d="M514,208.5l-4.8,0.3l4.5,59.7l4.8-0.3L514,208.5z"/>
				</g>
			</g>
		</g>
		<g id="Iron-Heart_Heavy_M">
			<path id="Heart_Heavy_M" d="M701,304.1l34.3,31.8v62.4L701,430.2l-34.3-31.8V336L701,304.1z"/>
			<g id="None_Heart_Heavy_M_Option">
			</g>
			<g id="Center_Heart_Heavy_M_Option">
				<rect x="688.5" y="336.9" width="25" height="30.3"/>
				<rect x="688.5" y="367.2" width="4.2" height="30.3"/>
				<rect x="705.1" y="367.2" width="4.2" height="30.3"/>
				<rect x="709.3" y="367.2" width="4.2" height="30.3"/>
				<rect x="696.8" y="367.2" width="4.2" height="30.3"/>
				<rect x="701" y="367.2" width="4.2" height="30.3"/>
				<rect x="692.6" y="367.2" width="4.2" height="30.3"/>
			</g>
		</g>
	</g>
	<g id="Chest_Gunslinger_M">
		<g id="Abdomen_Gunslinger_M">
			<g id="Left_Abdomen_Gunslinger_M">
				<path d="M850.1,762.4L927,624l-40-56.5l-3.2-6.8l-43.7,5.4l-17.9,213.3L850.1,762.4z"/>
				<path d="M850.1,762.4L927,624l20.2,28.5l26.6-21.3l-7.1,94.8L850.1,762.4z"/>
			</g>
			<g id="Right_Abdomen_Gunslinger_M">
				<path d="M551.9,762.4L475,624l-20.2,28.5l-26.6-21.3l7.1,94.8L551.9,762.4z"/>
				<path d="M551.9,762.4L475,624l40-56.5l3.2-6.8l43.7,5.4l17.9,213.3L551.9,762.4z"/>
			</g>
			<path id="Center_Abdomen_Gunslinger_M" d="M701,520.6l139.2,45.5l-17.9,213.3l-21.3,13l-100-5.4l-100,5.4l-21.3-13
				l-17.9-213.3L701,520.6z"/>
		</g>
		<g id="Chest-Plates_Gunslinger_M">
			<g id="Left-Chest_Gunslinger_M">
				<path d="M709,281.3v-32.9l26.9-26.9l258.6-29.3l23.3,144.4l-38.5,290.3l-32.1,25.7l-60.1-85l-16.8-36.1l-160.4-48.9
					l41.7-41.7V319.7L709,281.3z"/>
				<path d="M870.2,531.4l118.2-69.8l29.4-124.8l-26,134.2L887,567.5L870.2,531.4z"/>
				<path d="M883.8,560.7l-43.7,5.4L701,520.6v-40.3l169.2,51.1L883.8,560.7z"/>
			</g>
			<g id="Right-Chest_Gunslinger_M">
				<path d="M693,281.3v-32.9l-26.9-26.9l-258.6-29.3l-23.3,144.4l38.5,290.3l32.1,25.7l60.1-85l16.8-36.1l160.4-48.9
					l-41.7-41.7V319.7L693,281.3z"/>
				<path d="M531.8,531.4l-118.2-69.8l-29.4-124.8l26,134.2L515,567.5L531.8,531.4z"/>
				<path d="M518.2,560.7l43.7,5.4L701,520.6v-40.3l-169.2,51.1L518.2,560.7z"/>
			</g>
		</g>
		<g id="Iron-Heart_Gunslinger_M">
			<path id="Under-Heart_Gunslinger_M" d="M692.2,482.5l-41.7-41.7V319.7l42.5-38.5v-32.9h16v32.9l42.5,38.5v121.1
				l-41.7,41.7l-8.8-2.2L692.2,482.5z"/>
			<path id="Heart_Gunslinger_M" d="M670.3,430.9V330.7l30.7-30.7l30.7,30.7v100.2L701,461.6L670.3,430.9z"/>
			<g id="None_Heart_Gunslinger_M_Option">
			</g>
			<rect id="Center_Heart_Gunslinger_M_Option" x="691.9" y="336.8" width="18.2" height="87.9"/>
		</g>
	</g>
	<g id="Chest_Gunslinger-MK1_M">
		<path id="Abdomen_Gunslinger-MK1_M" d="M930.8,628.1l-2.4,21.4c0,0-94.9,61.1-133.2,83.2
			c-35.5,20.5-62.8,24.7-94.2,24.7s-58.8-4.2-94.2-24.7c-38.3-22.1-133.2-83.2-133.2-83.2l-2.4-21.4H930.8z"/>
		<g id="Chest-Plates_Gunslinger-MK1_M">
			<g id="Left-Chest_Gunslinger-MK1_M">
				<g id="Bottom_Left-Chest_Gunslinger-MK1_M">
					<path d="M988.3,429.6L948,449.8L727.6,573.9l19.9,39.4h190.8L988.3,429.6z"/>
					<path d="M716.1,581.7l31.5,31.5l-19.9-39.4L716.1,581.7z"/>
				</g>
				<g id="Top_Left-Chest_Gunslinger-MK1_M">
					<path d="M739.1,230.6v51.1l34.1,75.3l-45.6,98.3l0,118.5L948,449.8l-18-219.2H739.1z"/>
					<path d="M948,449.8l40.3-20.2L972.9,212L930,230.6L948,449.8z"/>
					<path d="M720.8,209.6l252.1,2.4L930,230.6H739.1L720.8,209.6z"/>
					<path d="M720.8,209.6v71.3l18.3,0.8v-51.1L720.8,209.6z"/>
					<path d="M760.1,358.2l13.2-1.2l-34.1-75.3l-18.3-0.8L760.1,358.2z"/>
					<path d="M716.1,449.8l11.6,5.5l45.6-98.3l-13.2,1.2L716.1,449.8z"/>
					<path d="M727.6,573.9l-11.6,7.9v-132l11.6,5.5V573.9z"/>
				</g>
			</g>
			<g id="Right-Chest_Gunslinger-MK1_M">
				<g id="Bottom_Right-Chest_Gunslinger-MK1_M">
					<path d="M413.7,429.6l40.3,20.2l220.4,124.1l-19.9,39.4H463.6L413.7,429.6z"/>
					<path d="M685.9,581.7l-31.5,31.5l19.9-39.4L685.9,581.7z"/>
				</g>
				<g id="Top_Right-Chest_Gunslinger-MK1_M">
					<path d="M662.9,230.6v51.1L628.8,357l45.6,98.3l0,118.5L454,449.8l18-219.2H662.9z"/>
					<path d="M454,449.8l-40.3-20.2L429.1,212l42.9,18.6L454,449.8z"/>
					<path d="M681.2,209.6L429.1,212l42.9,18.6h190.8L681.2,209.6z"/>
					<path d="M681.2,209.6v71.3l-18.3,0.8v-51.1L681.2,209.6z"/>
					<path d="M641.9,358.2l-13.2-1.2l34.1-75.3l18.3-0.8L641.9,358.2z"/>
					<path d="M685.9,449.8l-11.6,5.5L628.8,357l13.2,1.2L685.9,449.8z"/>
					<path d="M674.4,573.9l11.6,7.9v-132l-11.6,5.5V573.9z"/>
				</g>
			</g>
		</g>
		<g id="Iron-Heart_Gunslinger-MK1_M">
			<path id="Under-Heart_Gunslinger-MK1_M" d="M480,628.1l-8.7-14.9h182.4l31.5-31.5v-132l-44-91.5l39.2-77.3v-61.6
				h41.2v61.6l39.2,77.3l-44,91.5v132l31.5,31.5h182.4l-8.7,14.9H480z"/>
			<g id="Heart_Gunslinger-MK1_M">
				<path d="M691.3,437.3l-38.1-78l33.1-64.1h29.6l33.1,64.1l-38.1,78H691.3z"/>
				<path d="M694.6,431.4l-34.8-71.2l30.3-58.7l22.1,0.3l30.1,58.4l-34.8,71.2L694.6,431.4z"/>
			</g>
			<g id="None_Heart_Gunslinger-MK1_M_Option">
			</g>
			<rect id="Center_Heart_Gunslinger-MK1_M_Option" x="696.2" y="322" width="9.7" height="109.5"/>
		</g>
	</g>
	<g id="Chest_Galaxy_M">
		<g id="Abdomen_Galaxy_M">
			<path id="Abdomen-Plate_Galaxy_M" d="M627.2,751.4l-22,16l-111.9-16l-8.2-61.8l53-1.1l32.1-52.5l14.6-48.3l116-106.2
				l0.2,0.2l0.2-0.2l116,106.2l14.6,48.3l32.1,52.5l53,1.1l-8.2,61.8l-111.9,16l-22-16H627.2z"/>
			<path id="Trauma-Plate_Abdomen_Galaxy_M_ToggleOff" d="M700.8,505.9l-100.2,91.8l-13.8,45.8l-38.4,62.8l-42.7,0.9
				l3.7,28.4l91.2,13l20.8-15.1h159.4l20.8,15.1l91.2-13l3.7-28.4l-42.7-0.9l-38.4-62.8l-13.8-45.8l-100.2-91.8l-0.2,0.2
				L700.8,505.9z"/>
		</g>
		<g id="Full-Chest_Galaxy_M">
			<path id="Chest-Plate_Galaxy_M" d="M654.4,327.4l-0.2,108.2l34,34.4L569,582.9L553.5,635l-25.3,41.5h-43.7l-21.2-31
				l-27-151.5l-39.6-61.9l50.1-162.1l57.8-7.3l8.1-35.8l61.9-7.6l19.6,32h213l19.6-32l61.9,7.6l8.1,35.8l57.8,7.3l50.1,162.1
				l-39.6,61.9l-27,151.5l-21.2,31h-43.7L848.5,635L833,582.9l-119.2-113l34-34.4l-0.2-108.2L701,291.1L654.4,327.4z"/>
			<path id="Trauma-Plating_Left-Chest_Galaxy_M_ToggleOff" d="M817.6,269.3H702.3l63.3,49.2l0.2,124.4l-26.3,26.6
				l109.3,103.6l16.2,54.5l18.8,30.9h24l13.6-19.9l26.9-151.2l37-57.9l-44.3-143.1l-58.8-7.5l-8.1-35.8l-37.8-4.6L817.6,269.3z"/>
			<path id="Trauma-Plating_Right-Chest_Galaxy_M_ToggleOff" d="M565.6,238.6l-37.8,4.6l-8.1,35.8l-58.8,7.5
				l-44.3,143.1l37,57.9l26.9,151.2l13.6,19.9h24l18.8-30.9l16.2-54.5l109.3-103.6L636.2,443l0.2-124.4l63.3-49.2H584.4L565.6,238.6
				z"/>
			<g id="Accents_Chest-Plate_Galaxy_M_ToggleOn">
				<rect x="818.8" y="303.9" width="98" height="13"/>
				<rect x="818.8" y="326.9" width="98" height="13"/>
			</g>
		</g>
		<g id="Iron-Heart_Galaxy_M">
			<path id="Heart_Galaxy_M" d="M672.4,432.5v-97.4l28.6-22.4l28.6,22.4v97.4L701,461.3L672.4,432.5z"/>
			<g id="None_Heart_Galaxy_M_Option">
			</g>
			<rect id="Center_Heart_Galaxy_M_Option" x="691.1" y="350" width="19.8" height="66.7"/>
		</g>
		<g id="Neck-Armor_Galaxy_M">
			<g id="Neck-Plate_Galaxy_M">
				<path d="M677.2,240.8l-78.3,1.3l-19.3-31.6l-74.7,8.9l-7.4,32.8l-47.9,5.9l-35.3-121.8l122.5-36.7
					c0,0,16.2,27.5,28,37.2c12.1,9.9,28.2,21.6,43.3,28.2c16.5,7.2,36.7,12.1,55.9,15.2c2,0.3,4.1,0.6,6.2,0.9L677.2,240.8z"/>
				<path d="M724.8,240.8l78.3,1.3l19.3-31.6l74.7,8.9l7.4,32.8l47.9,5.9l35.3-121.8L865.4,99.5c0,0-16.2,27.5-28,37.2
					c-12.1,9.9-28.2,21.6-43.3,28.2c-16.5,7.2-36.7,12.1-55.9,15.2c-2,0.3-4.1,0.6-6.2,0.9L724.8,240.8z"/>
			</g>
			<g id="Trauma-Plates_Neck_Galaxy_M_ToggleOff">
				<path d="M873.2,120.7c-6.7,9.9-16.4,23.4-24.4,29.9c-13.2,10.9-30.9,23.5-47.5,30.8c-15.8,6.9-34.6,11.8-53.1,15.2
					l-3.2,26.5l48.1,0.8l20-32.7L912,203l7.5,32.8l20.1,2.5l26.1-89.9L873.2,120.7z"/>
				<path d="M528.8,120.7l-92.4,27.7l26.1,89.9l20.1-2.5L490,203l98.8-11.8l20,32.7l48.1-0.8l-3.2-26.5
					c-18.5-3.4-37.3-8.3-53.1-15.2c-16.6-7.2-34.3-19.9-47.5-30.8C545.2,144.1,535.4,130.6,528.8,120.7z"/>
			</g>
		</g>
	</g>
</g>
<g id="Chest-Attachments_M">
	<g id="Pilot-Box_Accessories_Chest_M_Option">
		<g id="Main_Pilot-Box_Accessories_Chest_M">
			<rect x="601.3" y="272.5" width="49.3" height="79.5"/>
			<rect x="571.3" y="409.3" width="259.7" height="8.8"/>
			<path d="M831,252.9c0-2.8-1.1-5.4-3.1-7.4c-2-2-4.6-3.1-7.4-3.1H581.7c-2.8,0-5.4,1.1-7.4,3.1c-2,2-3.1,4.6-3.1,7.4
				c0,36.5,0,156.4,0,156.4H831V252.9z"/>
			<path d="M831,418.1H571.3l16,23.8H815L831,418.1z"/>
			<rect x="591.3" y="438.9" width="85" height="82"/>
			<rect x="571.6" y="455.2" width="19.7" height="49.3"/>
			<rect x="810.7" y="455.2" width="19.7" height="49.3"/>
			<rect x="726.1" y="438.9" width="84.9" height="82"/>
			<rect x="676.3" y="438.9" width="11.3" height="82"/>
			<rect x="714.7" y="438.9" width="11.3" height="82"/>
		</g>
		<g id="Parts-2_Pilot-Box_Accessories_Chest_M">
			<rect x="551.9" y="457.4" width="19.7" height="44.9"/>
			<rect x="830.4" y="457.4" width="19.7" height="44.9"/>
			<rect x="687.6" y="436.6" width="27" height="86.7"/>
			<path d="M743.8,262.5H591.3V362h152.5V262.5z M650.6,272.5h-49.3V352h49.3V272.5z"/>
		</g>
		<g id="Parts-1_Pilot-Box_Accessories_Chest_M">
			<circle cx="625.9" cy="294.5" r="12.1"/>
			<circle cx="625.9" cy="329.4" r="12.1"/>
			<g>
				<g>
					<path d="M551.9,462.3l-46.1,0.9c-6.5,0-11.4-0.2-14-3.4c-1.7-2.1-1.9-5.1-2-8.6c-0.2-6.6,1.1-14.5,3.1-23.5
						c12.3-53.8,51.7-139.9,56.4-233.9c3.4-69-18.2-178.1-18.2-178.1c-1.9-9.4-11-15.5-20.4-13.6c-9.4,1.9-15.5,11-13.6,20.4
						c0,0,20.8,103.8,17.6,169.5c-3.1,63.3-23,122.8-38.6,170.6c-11.3,34.6-20.2,63.7-20.9,84.4c-0.5,16,3.6,28.2,11.7,36.8
						c7.9,8.3,20.3,14,39.4,14c0.3,0,45.7-0.9,45.7-0.9V462.3z"/>
					<path d="M507.7,88.1l34.6-2.9"/>
					<path d="M504.7,67.3l34.6-3.1"/>
					<path d="M510.8,112.3l34.5-2.9"/>
					<path d="M513.2,138.6l34.6-2.9"/>
					<path d="M515,164.6l34.6-2.9"/>
					<path d="M515,185.5l34.6,0.6"/>
					<path d="M513.6,206.4l34.5,4.8"/>
					<path d="M511.1,227.7l34.1,6.4"/>
					<path d="M507.4,249.9l33.4,9.9"/>
					<path d="M502.4,273.4l33.4,9.3"/>
					<path d="M497.3,293.5l33.6,8.4"/>
					<path d="M491,315.4l33.9,7.1"/>
					<path d="M484.8,335.7l33.4,9"/>
					<path d="M478.3,355.8l33.1,10.2"/>
					<path d="M470.7,379.2l33.5,9"/>
					<path d="M463.8,402l33.3,9.7"/>
					<path d="M457.7,426.8l35.3,1"/>
					<path d="M455.2,454.1l35.2-12.5"/>
					<path d="M463.8,480.4l26.2-26.3"/>
					<path d="M485.9,495.3l7.1-34.4"/>
					<path d="M509.6,497.9l0.7-34.8"/>
					<path d="M531.9,497.5v-34.8"/>
				</g>
				<g>
					<path d="M850.1,462.3l46.1,0.9c6.5,0,11.4-0.2,14-3.4c1.7-2.1,1.9-5.1,2-8.6c0.2-6.6-1.1-14.5-3.1-23.5
						c-12.3-53.8-51.7-139.9-56.4-233.9c-3.4-69,18.2-178.1,18.2-178.1c1.9-9.4,11-15.5,20.4-13.6c9.4,1.9,15.5,11,13.6,20.4
						c0,0-20.8,103.8-17.6,169.5c3.1,63.3,23,122.8,38.6,170.6c11.3,34.6,20.2,63.7,20.9,84.4c0.5,16-3.6,28.2-11.7,36.8
						c-7.9,8.3-20.3,14-39.4,14c-0.3,0-45.7-0.9-45.7-0.9V462.3z"/>
					<path d="M894.3,88.1l-34.6-2.9"/>
					<path d="M897.3,67.3l-34.6-3.1"/>
					<path d="M891.2,112.3l-34.5-2.9"/>
					<path d="M888.8,138.6l-34.6-2.9"/>
					<path d="M887,164.6l-34.6-2.9"/>
					<path d="M887,185.5l-34.6,0.6"/>
					<path d="M888.4,206.4l-34.5,4.8"/>
					<path d="M890.9,227.7l-34.1,6.4"/>
					<path d="M894.6,249.9l-33.4,9.9"/>
					<path d="M899.6,273.4l-33.4,9.3"/>
					<path d="M904.7,293.5l-33.6,8.4"/>
					<path d="M911,315.4l-33.9,7.1"/>
					<path d="M917.2,335.7l-33.4,9"/>
					<path d="M923.7,355.8l-33.1,10.2"/>
					<path d="M931.3,379.2l-33.5,9"/>
					<path d="M938.2,402l-33.3,9.7"/>
					<path d="M944.3,426.8l-35.3,1"/>
					<path d="M946.8,454.1l-35.2-12.5"/>
					<path d="M938.2,480.4L912,454.1"/>
					<path d="M916.1,495.3l-7.1-34.4"/>
					<path d="M892.4,497.9l-0.7-34.8"/>
					<path d="M870.1,497.5v-34.8"/>
				</g>
			</g>
			<rect x="658.4" y="472" width="23.5" height="15.7"/>
			<rect x="720" y="472" width="23.5" height="15.7"/>
			<path d="M545,13.8c0-6.6-5.4-12-12-12h-27.1c-6.6,0-12,5.4-12,12v24c0,6.6,5.4,12,12,12H533c6.6,0,12-5.4,12-12V13.8
				z"/>
			<rect x="505.8" y="1.8" width="3.7" height="48"/>
			<path d="M857,13.8c0-6.6,5.4-12,12-12h27.1c6.6,0,12,5.4,12,12v24c0,6.6-5.4,12-12,12H869c-6.6,0-12-5.4-12-12V13.8z
				"/>
			<rect x="892.5" y="1.8" width="3.7" height="48"/>
		</g>
		<g id="Buttons-2_Pilot-Box_Accessories_Chest_M">
			<circle cx="656.3" cy="384.3" r="6"/>
			<rect x="777.9" y="322.7" width="16" height="39.3"/>
			<rect x="678.3" y="272.5" width="55.5" height="12.5"/>
			<rect x="711.1" y="288" width="22.7" height="12.5"/>
			<circle cx="698.8" cy="384.3" r="6"/>
		</g>
		<g id="Buttons-1_Pilot-Box_Accessories_Chest_M">
			<rect x="777.9" y="262.5" width="16" height="39.3"/>
			<rect x="678.3" y="288" width="22.7" height="12.5"/>
			<circle cx="636.3" cy="384.3" r="6"/>
			<circle cx="676.8" cy="384.3" r="6"/>
		</g>
	</g>
	<g id="Bandoleer_Accessories_Chest_M_Option">
		<g id="Strap_Bandoleer_Accessories_Chest_M">
			<path d="M998.3,132.6l-70-33.6L485.5,901.7l70.1,38.6L998.3,132.6"/>
			<path d="M979.3,119.7l-26.6-12.4l-88.4,160.2l25.6,14.1L979.3,119.7"/>
			<path d="M854,351l-29.3-16.1L688.9,581.2l29.2,16.1L854,351"/>
			<path d="M856.9,360.3l-41.5-22.9l-13.6,24.7l41.5,22.9L856.9,360.3"/>
			<path d="M840.4,390.2l-41.5-22.9L785.3,392l41.5,22.9L840.4,390.2"/>
			<path d="M823.9,420.1l-41.5-22.9l-13.6,24.7l41.5,22.9L823.9,420.1"/>
			<path d="M807.4,450l-41.5-22.9l-13.6,24.7l41.5,22.9L807.4,450"/>
			<path d="M790.9,479.9L749.4,457l-13.6,24.7l41.5,22.9L790.9,479.9"/>
			<path d="M757.9,539.7l-41.5-22.9l-13.6,24.7l41.5,22.9L757.9,539.7"/>
			<path d="M774.4,509.8l-41.5-22.9l-13.6,24.7l41.5,22.9L774.4,509.8"/>
			<path d="M741.4,569.6l-41.5-22.9l-13.6,24.7l41.5,22.9L741.4,569.6"/>
		</g>
		<g id="Ammo_Bandoleer_Accessories_Chest_M">
			<g>
				<g>
					<path d="M855.4,362.9l17,9.4c1.8,1,2.5,3.3,1.5,5.1c-1.9,3.5-5,9.1-7,12.6c-1,1.8-3.3,2.5-5.1,1.5l-17-9.4
						L855.4,362.9z"/>
					<path d="M868,369.8l-1.4-0.8l-10.6,19.2l1.4,0.8L868,369.8z"/>
					<path d="M865,368.1l-1.4-0.8L853,386.6l1.4,0.8L865,368.1z"/>
				</g>
				<g>
					<path d="M813.9,340l-10.6,19.2l-17-9.4c-1.8-1-2.5-3.3-1.5-5.1c1.9-3.5,5-9.1,7-12.6c1-1.8,3.3-2.5,5.1-1.5
						L813.9,340z"/>
					<path d="M801.1,332.9l-1.4-0.8L789,351.3l1.4,0.8L801.1,332.9z"/>
				</g>
			</g>
			<g>
				<g>
					<path d="M822.4,422.9l17,9.4c1.8,1,2.5,3.3,1.5,5.1c-1.9,3.5-5,9.1-7,12.6c-1,1.8-3.3,2.5-5.1,1.5l-17-9.4
						L822.4,422.9z"/>
					<path d="M834.9,429.8l-1.4-0.8l-10.6,19.2l1.4,0.8L834.9,429.8z"/>
					<path d="M831.9,428.2l-1.4-0.8l-10.6,19.2l1.4,0.8L831.9,428.2z"/>
				</g>
				<g>
					<path d="M780.8,400l-10.6,19.2l-17-9.4c-1.8-1-2.5-3.3-1.5-5.1c1.9-3.5,5-9.1,7-12.6c1-1.8,3.3-2.5,5.1-1.5
						L780.8,400z"/>
					<path d="M768,392.9l-1.4-0.8L756,411.3l1.4,0.8L768,392.9z"/>
				</g>
			</g>
			<g>
				<g>
					<path d="M805.9,452.6l17,9.4c1.8,1,2.5,3.3,1.5,5.1c-1.9,3.5-5,9.1-7,12.6c-1,1.8-3.3,2.5-5.1,1.5l-17-9.4
						L805.9,452.6z"/>
					<path d="M818.5,459.5l-1.4-0.8L806.5,478l1.4,0.8L818.5,459.5z"/>
					<path d="M815.5,457.9l-1.4-0.8l-10.6,19.2l1.4,0.8L815.5,457.9z"/>
				</g>
				<g>
					<path d="M764.4,429.7l-10.6,19.2l-17-9.4c-1.8-1-2.5-3.3-1.5-5.1c1.9-3.5,5-9.1,7-12.6c1-1.8,3.3-2.5,5.1-1.5
						L764.4,429.7z"/>
					<path d="M751.6,422.6l-1.4-0.8l-10.6,19.2l1.4,0.8L751.6,422.6z"/>
				</g>
			</g>
			<g>
				<g>
					<path d="M789.4,482.7l17,9.4c1.8,1,2.5,3.3,1.5,5.1c-1.9,3.5-5,9.1-7,12.6c-1,1.8-3.3,2.5-5.1,1.5l-17-9.4
						L789.4,482.7z"/>
					<path d="M801.9,489.6l-1.4-0.8L789.9,508l1.4,0.8L801.9,489.6z"/>
					<path d="M798.9,488l-1.4-0.8l-10.6,19.2l1.4,0.8L798.9,488z"/>
				</g>
				<g>
					<path d="M747.9,459.8L737.3,479l-17-9.4c-1.8-1-2.5-3.3-1.5-5.1c1.9-3.5,5-9.1,7-12.6c1-1.8,3.3-2.5,5.1-1.5
						L747.9,459.8z"/>
					<path d="M735,452.7l-1.4-0.8L723,471.1l1.4,0.8L735,452.7z"/>
				</g>
			</g>
		</g>
		<g id="Buckles_Bandoleer_Accessories_Chest_M">
			<g>
				<path d="M902.4,264.8L871.9,248l-17.2,31.3l30.5,16.8L902.4,264.8z"/>
				<path d="M894.6,270.1l-23-12.7l-17.2,31.3l23,12.7L894.6,270.1z"/>
			</g>
			<path d="M902.4,228.2l-19.7-10.8l17.1-31.1l39.8,21.9l-17.1,31.1L902.4,228.2l3.9-7l11.2,6.2l9.4-17.1l-22-12.1
				l-9.4,17.1l10.8,5.9"/>
		</g>
	</g>
	<g id="No-Device_Accessories_Chest_M_Option">
	</g>
</g>
<g id="Collar_M_ToggleOff">
	<g id="Armored_Collar_M_Option">
		<path id="Main_Pauldron_Collar_Center_M" d="M517.1,85.6c0,0,42.1,61.3,183.9,61.3s183.9-61.3,183.9-61.3l178,52.8
			C962.9,290.7,701,289.2,701,289.2s-261,2.9-362-150.8L517.1,85.6z"/>
		<path id="Center-Plate_Pauldron_Collar_Center_M" d="M632.5,159.7c20,3.2,42.7,5.2,68.5,5.2c25.8,0,48.5-1.9,68.5-5.2
			L797,262.2c-55.1,9.2-95.9,9-95.9,9c-0.1,0-0.2,0-0.3,0c0,0-40.8,0.4-95.9-8.7L632.5,159.7z"/>
		<g id="Plates_Pauldron_Collar_Center_M">
			<path d="M535.1,125c17.6,11.4,43.4,23.5,79.7,31.4l-27.6,103c-22.6-4.4-46.9-10.4-71.4-18.5
				c-22.7-7.6-45.7-17.1-67.5-29L535.1,125z"/>
			<path d="M432.1,202.5c-23.5-14.6-45.3-32.4-63.3-54.1l142.4-42.2c2.5,2.4,5.5,5.2,9.1,8.2L432.1,202.5z"/>
			<path d="M866.5,125c-17.6,11.4-43.4,23.5-79.7,31.4l27.6,103c22.6-4.4,46.9-10.4,71.4-18.5
				c22.7-7.6,45.7-17.1,67.5-29L866.5,125z"/>
			<path d="M969.4,202.5c23.5-14.6,45.3-32.4,63.3-54.1l-142.4-42.2c-2.5,2.4-5.5,5.2-9.1,8.2L969.4,202.5z"/>
		</g>
	</g>
	<g id="Cloth-Wrap-Left_Collar_M_Option">
		<g id="Main_Cloth-Wrap-Left_Collar_M">
			<path d="M595.9,206c-53-16.6-62.6-43.3-65.8-70.2c-1.3-11,14.4-39.6-1.8-47c-18.3-8.3-61.6,4.8-79.4,8.6
				c-13.2,2.8-25,6.1-38.5,6.3c-31.2,0.4-56,21.2-58.8,36.8c-3.9,21.8,34.6,29.7,52.7,46.2C449.4,228,465.1,284,560,299.3
				c43.5,7,86.7-2.9,127.1-11.9c104.5-23.3,161.4-43.3,228.6-95.2c29.4-22.7,73.7-41.1,72.6-71.5c0-1.3-21.4-14-23.5-14.5
				c-18.8-4.7-34.9-12.5-55.6-12.9c-12.4-0.2-10.3,10.5-11.2,15.3c-3.5,18.5-20.4,32.5-41.7,46.5C800.3,191.8,672.6,203.2,595.9,206
				z"/>
			<path d="M595.9,206c-14,0.5-26.3,2.7-37,3.4c-48.5,3-65.8-8.9-75.2-30.5"/>
			<path d="M445.2,97.9c-14,22.9-12.2,49.8-1,67.5"/>
			<path d="M852,163.1c-36.3,49.7-90.2,65.4-149.2,71.4"/>
			<path d="M950.4,102c-2.1,12.6-9.6,17.2-18.9,25.7c-5.3,4.9-11.8,8.4-16.1,14.3c-1.5,2.2-2.4,4.7-3.3,7.2"/>
		</g>
		<path id="Buckle_Cloth-Wrap-Left_Collar_M" d="M839.6,153.8l30.9-22.1l53.6,74.8l-30.9,22.1L839.6,153.8z"/>
	</g>
	<g id="Cloth-Wrap-Right_Collar_M_Option">
		<g id="Main_Cloth-Wrap-Right_Collar_M">
			<path d="M805.7,206c53-16.6,62.6-43.3,65.8-70.2c1.3-11-14.4-39.6,1.8-47c18.3-8.3,61.6,4.8,79.4,8.6
				c13.2,2.8,25,6.1,38.5,6.3c31.2,0.4,56,21.2,58.7,36.8c3.9,21.8-34.6,29.7-52.7,46.2C952.2,228,936.5,284,841.6,299.3
				c-43.5,7-86.7-2.9-127.1-11.9C610,264.1,553,244.1,485.9,192.2c-29.4-22.7-73.7-41.1-72.6-71.5c0-1.3,21.4-14,23.5-14.5
				c18.8-4.7,34.9-12.5,55.6-12.9c12.4-0.2,10.3,10.5,11.2,15.3c3.5,18.5,20.4,32.5,41.7,46.5C601.3,191.8,729,203.2,805.7,206z"/>
			<path d="M805.7,206c14,0.5,26.3,2.7,37,3.4c48.5,3,65.8-8.9,75.2-30.5"/>
			<path d="M956.4,97.9c14,22.9,12.2,49.8,1,67.5"/>
			<path d="M549.6,163.1c36.3,49.7,90.2,65.4,149.2,71.4"/>
			<path d="M451.2,102c2.1,12.6,9.6,17.2,18.9,25.7c5.3,4.9,11.8,8.4,16.1,14.3c1.5,2.2,2.4,4.7,3.3,7.2"/>
		</g>
		<path id="Buckle_Cloth-Wrap-Right_Collar_M" d="M562,153.8l-30.9-22.1l-53.6,74.8l30.9,22.1L562,153.8z"/>
	</g>
</g>
<g id="Shoulders_M">
	<g id="Left-Shoulder_M">
		<g id="None_Shoulder_Left_M_Option">
		</g>
		<g id="Pauldron_Shoulder_Left_M_Option">
			<path id="Main_Pauldron_Shoulder_Left_M" d="M875.9,138.9l295.7,140.1l142.5-148.5L931.4,84.1L875.9,138.9z"/>
			<g id="Plate_Pauldron_Shoulder_Left_M">
				<path d="M1286.9,133.2l-119.3,123.9L906.9,133.6l42.3-41.8L1286.9,133.2z"/>
				<path d="M1291.9,127.7L955.4,87l3.8-4.4l334.9,39.3L1291.9,127.7z"/>
			</g>
		</g>
		<g id="Gunslinger-Bell_Shoulder_Left_M_Option">
			<path id="Main_Gunslinger-Bell_Shoulder_Left_M" d="M1007,143.7c65.3-1.6,211.1,50.8,205.3,237.3l-0.8,36.8
				l-126.9,52.1L973.2,321.1l0-177.4L1007,143.7z"/>
			<path id="Ridge_Gunslinger-Bell_Shoulder_Left_M_Toggle" d="M973.2,143.7L973.2,143.7l0-21.5
				c138.9-0.7,270.4,59.1,260.4,289.4l-21.3,5c-0.2-2.7-0.4-5.4-0.6-8l0.6-27.6c5.9-186.5-139.9-238.9-205.3-237.3l-7.2,0
				C985.3,141.7,975.5,142.2,973.2,143.7L973.2,143.7L973.2,143.7z"/>
			<g id="Trim_Gunslinger-Bell_Shoulder_Left_M_Toggle">
				<rect x="973.2" y="135.4" width="33.8" height="186"/>
				<path d="M1007,309.9l-33.8,11.2l111.5,149l27-20.2L1007,309.9z"/>
				<path d="M1095.9,428.7l-11.8,41.4l133.3-54.7v-36.5L1095.9,428.7z"/>
			</g>
		</g>
		<g id="Heavy-Bell_Shoulder_Left_M_Option">
			<path id="Bottom_Heavy-Bell_Shoulder_Left_M" d="M1226.8,358l14.9,51.8c-29.3,19.5-53.2,30.4-72,36.4
				c-12.7,4.1-26.4,2.8-38.2-3.5c-11.7-6.3-20.4-17.1-24-29.9c-1.5-5.5-2.6-9.3-2.6-9.3L1226.8,358z"/>
			<path id="Main_Heavy-Bell_Shoulder_Left_M" d="M960.1,118.3C960.1,118.3,960.1,118.3,960.1,118.3
				c116.2-26.4,226.5,23.2,246.4,110.8c14.9,65.7,27.8,122.2,27.8,122.2c-50.4,48.2-135.8,62.9-215.6,62.3
				C976.5,316.6,964.6,220.6,960.1,118.3"/>
			<g id="Trim_Heavy-Bell_Shoulder_Left_M_Toggle">
				<path d="M1119.1,398.1c3.9,12,9.3,23.2,20.5,29.2c11.7,6.3,25.3,5,38,0.9c16.5-5.3,38.2-17.8,62.7-33.1l3.8,13.3
					c-28.4,20.9-54,33-72.8,39c-12.7,4.1-28.1,1.6-39.8-4.7c-11.7-6.3-20.4-17.1-24-29.9c-1.5-5.5-2.6-9.3-2.6-9.3L1119.1,398.1z"/>
				<path d="M979.9,112.2c5.3,93.7,16.3,185.2,55.4,274.9c70.4,0.6,145.5-23,196.7-58.9l4.7,20.7
					c-53.6,51.7-138.2,65.3-217.9,64.6c-42.3-97-54.1-195.3-58.6-297.6C960.1,115.9,974,113.1,979.9,112.2z"/>
			</g>
		</g>
		<g id="Bell_Shoulder_Left_M_Option">
			<path id="Main_Bell_Shoulder_Left_M" d="M943.5,121.8l-0.1-0.5c100-31.8,203.6,13.7,231.4,101.1
				c20.8,65.5,44.6,140.2,44.6,140.2l-181,57.6L943.5,121.8"/>
			<path id="Ridge_Bell_Shoulder_Left_M_Toggle" d="M941.7,107.5L946,121c85.8-27.3,201.8,18.5,229.1,104.3l42.5,133.8
				l15-4.8c0,0-19.5-61.7-42.1-132.3C1166.3,144.6,1063.1,73.8,941.7,107.5"/>
			<g id="Trim_Bell_Shoulder_Left_M_Toggle">
				<path d="M958.7,114.7l-15.7,4.9l95.4,300.6l14.4-4.9L958.7,114.7"/>
				<path d="M1048.5,401.5l-10.1,18.7l183.5-57.7l-4.7-14.7L1048.5,401.5"/>
			</g>
		</g>
		<g id="Legacy-x3_Shoulder_Left_M_Option">
			<path id="Plate-3_Shoulder_Left_Legacy-x3_M" d="M1071.5,180.8l-77.7,79.6l45.5,98.6l102.3-5.4l54.2,49.7l48.2-3.4
				L1071.5,180.8z"/>
			<path id="Trauma-Plate-3_Shoulder_Legacy-x3_Left_M_ToggleOff" d="M1202.3,384.8l31.2-2.2l-148.8-189.6l-69.4,71.1
				l35.2,76.3l94.3-5.9L1202.3,384.8z"/>
			<path id="Plate-2_Shoulder_Left_Legacy-x3_M" d="M1029.5,131.5L968,224.2l63.1,88.4l99.6-24.4l62.5,38.7l46.8-12.3
				L1029.5,131.5z"/>
			<path id="Trauma-Plate-2_Shoulder_Legacy-x3_Left_M_ToggleOff" d="M1195.9,307.6l30.2-7.9l-181.3-158.9l-55,82.6
				l48.7,68.5l91.6-23.2L1195.9,307.6z"/>
			<path id="Plate-1_Shoulder_Left_Legacy-x3_M" d="M953.8,84.1l-27.7,107.7l88.6,62.8l86-55.7l71.7,16.1l40.1-27
				L953.8,84.1z"/>
			<path id="Trauma-Plate-1_Shoulder_Legacy-x3_Left_M_ToggleOff" d="M1168.9,195.8l25.9-17.4L971.3,88.1l-24.7,96.2
				l68.6,48.6l78.8-52.1L1168.9,195.8z"/>
		</g>
		<g id="Legacy-x2_Shoulder_Left_M_Option">
			<path id="Plate-2_Shoulder_Left_Legacy-x2_M" d="M1029.5,131.5L968,224.2l63.1,88.4l99.6-24.4l62.5,38.7l46.8-12.3
				L1029.5,131.5z"/>
			<path id="Trauma-Plate-2_Shoulder_Legacy-x2_Left_M_ToggleOff" d="M1195.9,307.6l30.2-7.9l-181.3-158.9l-55,82.6
				l48.7,68.5l91.6-23.2L1195.9,307.6z"/>
			<path id="Plate-1_Shoulder_Left_Legacy-x2_M" d="M953.8,84.1l-27.7,107.7l88.6,62.8l86-55.7l71.7,16.1l40.1-27
				L953.8,84.1z"/>
			<path id="Trauma-Plate-1_Shoulder_Legacy-x2_Left_M_ToggleOff" d="M1168.9,195.8l25.9-17.4L971.3,88.1l-24.7,96.2
				l68.6,48.6l78.8-52.1L1168.9,195.8z"/>
		</g>
		<g id="Classic_Shoulder_Left_M_Option">
			<path id="Main_Shoulder_Classic_Left_M" d="M1042.4,116.3l-26.7,120.8l21.4,69.6l143,72.4l24-36.9L1042.4,116.3z"/>
			<path id="Trauma-Plates_Shoulder_Classic_Left_M_ToggleOff" d="M1034.3,236.4l17.7,57.7l121.7,61.6l20.6-31.6
				l-137-191.8L1034.3,236.4z"/>
		</g>
	</g>
	<g id="Right-Shoulder_M">
		<g id="None_Shoulder_Right_M_Option">
		</g>
		<g id="Pauldron_Shoulder_Right_M_Option">
			<path id="Main_Pauldron_Shoulder_Right_M" d="M526.1,138.9L230.4,278.9L87.9,130.4l382.7-46.3L526.1,138.9z"/>
			<g id="Plate_Pauldron_Shoulder_Right_M">
				<path d="M115.1,133.2l119.3,123.9l260.7-123.5l-42.3-41.8L115.1,133.2z"/>
				<path d="M110,127.7L446.6,87l-3.8-4.4l-334.9,39.3L110,127.7z"/>
			</g>
		</g>
		<g id="Gunslinger-Bell_Shoulder_Right_M_Option">
			<path id="Main_Gunslinger-Bell_Shoulder_Right_M" d="M395,143.7c-65.3-1.6-211.1,50.8-205.3,237.3l0.8,36.8
				l126.9,52.1l111.3-148.8l0-177.4L395,143.7z"/>
			<path id="Ridge_Gunslinger-Bell_Shoulder_Right_M_Toggle" d="M428.8,143.7L428.8,143.7l0-21.5
				c-138.9-0.7-270.4,59.1-260.3,289.4l21.3,5c0.2-2.7,0.4-5.4,0.6-8l-0.6-27.6C183.9,194.5,329.7,142.1,395,143.7l7.2,0
				C416.7,141.7,426.5,142.2,428.8,143.7L428.8,143.7L428.8,143.7z"/>
			<g id="Trim_Gunslinger-Bell_Shoulder_Right_M_Toggle">
				<rect x="395" y="135.4" width="33.8" height="186"/>
				<path d="M395,309.9l33.8,11.2l-111.5,149l-27-20.2L395,309.9z"/>
				<path d="M306.1,428.7l11.8,41.4l-133.3-54.7v-36.5L306.1,428.7z"/>
			</g>
		</g>
		<g id="Heavy-Bell_Shoulder_Right_M_Option">
			<path id="Bottom_Heavy-Bell_Shoulder_Right_M" d="M175.2,358l-14.9,51.8c29.3,19.5,53.2,30.4,72,36.4
				c12.7,4.1,26.5,2.8,38.2-3.5c11.7-6.3,20.4-17.1,24-29.9c1.6-5.5,2.6-9.3,2.6-9.3L175.2,358z"/>
			<path id="Main_Heavy-Bell_Shoulder_Right_M" d="M441.9,118.3C441.9,118.3,441.9,118.3,441.9,118.3
				C325.7,91.9,215.4,141.5,195.5,229c-14.9,65.7-27.8,122.2-27.8,122.2c50.4,48.2,135.8,62.9,215.6,62.3
				C425.5,316.6,437.4,220.6,441.9,118.3"/>
			<g id="Trim_Heavy-Bell_Shoulder_Right_M_Toggle">
				<path d="M282.9,398.1c-3.9,12-9.3,23.2-20.4,29.2c-11.7,6.3-25.3,5-38,0.9c-16.5-5.3-38.2-17.8-62.7-33.1l-3.8,13.3
					c28.5,20.9,54,33,72.8,39c12.7,4.1,28.1,1.6,39.8-4.7c11.7-6.3,20.4-17.1,24-29.9c1.6-5.5,2.6-9.3,2.6-9.3L282.9,398.1z"/>
				<path d="M422.1,112.2c-5.3,93.7-16.3,185.2-55.4,274.9c-70.4,0.6-145.5-23-196.7-58.9l-4.7,20.7
					c53.6,51.7,138.2,65.3,217.9,64.6c42.3-97,54.1-195.3,58.6-297.6C441.9,115.9,428,113.1,422.1,112.2z"/>
			</g>
		</g>
		<g id="Bell_Shoulder_Right_M_Option">
			<path id="Main_Bell_Shoulder_Right_M" d="M458.5,121.8l0.1-0.5c-100-31.8-203.6,13.7-231.4,101.1
				c-20.8,65.5-44.6,140.2-44.6,140.2l181,57.6L458.5,121.8"/>
			<path id="Ridge_Bell_Shoulder_Right_M_Toggle" d="M460.3,107.5L456,121c-85.8-27.3-201.8,18.5-229.1,104.3
				l-42.5,133.8l-15-4.8c0,0,19.5-61.7,42.1-132.3C235.7,144.6,338.9,73.8,460.3,107.5"/>
			<g id="Trim_Bell_Shoulder_Right_M_Toggle">
				<path d="M443.3,114.7l15.7,4.9l-95.4,300.6l-14.4-4.9L443.3,114.7"/>
				<path d="M353.5,401.5l10.1,18.7l-183.5-57.7l4.7-14.7L353.5,401.5"/>
			</g>
		</g>
		<g id="Legacy-x3_Shoulder_Right_M_Option">
			<path id="Plate-3_Shoulder_Right_Legacy-x3_M" d="M330.5,180.8l77.7,79.6l-45.5,98.6l-102.4-5.4l-54.2,49.7
				l-48.2-3.4L330.5,180.8z"/>
			<path id="Trauma-Plate-3_Shoulder_Legacy-x3_Right_M_ToggleOff" d="M199.7,384.8l-31.2-2.2l148.8-189.6l69.4,71.1
				l-35.2,76.3l-94.3-5.9L199.7,384.8z"/>
			<path id="Plate-2_Shoulder_Right_Legacy-x3_M" d="M372.5,131.5l61.5,92.7l-63.1,88.4l-99.6-24.4L208.9,327
				l-46.8-12.3L372.5,131.5z"/>
			<path id="Trauma-Plate-2_Shoulder_Legacy-x3_Right_M_ToggleOff" d="M206.1,307.6l-30.2-7.9l181.2-158.9l55,82.6
				L363.5,292l-91.6-23.2L206.1,307.6z"/>
			<path id="Plate-1_Shoulder_Right_Legacy-x3_M" d="M448.2,84.1l27.7,107.7l-88.6,62.8l-86-55.7l-71.7,16.1l-40.1-27
				L448.2,84.1z"/>
			<path id="Trauma-Plate-1_Shoulder_Legacy-x3_Right_M_ToggleOff" d="M233.1,195.8l-25.9-17.4l223.5-90.2l24.7,96.2
				l-68.6,48.6L308,180.9L233.1,195.8z"/>
		</g>
		<g id="Legacy-x2_Shoulder_Right_M_Option">
			<path id="Plate-2_Shoulder_Right_Legacy-x2_M" d="M372.5,131.5l61.5,92.7l-63.1,88.4l-99.6-24.4L208.9,327
				l-46.8-12.3L372.5,131.5z"/>
			<path id="Trauma-Plate-2_Shoulder_Legacy-x2_Right_M_ToggleOff" d="M206.1,307.6l-30.2-7.9l181.2-158.9l55,82.6
				L363.5,292l-91.6-23.2L206.1,307.6z"/>
			<path id="Plate-1_Shoulder_Right_Legacy-x2_M" d="M448.2,84.1l27.7,107.7l-88.6,62.8l-86-55.7l-71.7,16.1l-40.1-27
				L448.2,84.1z"/>
			<path id="Trauma-Plate-1_Shoulder_Legacy-x2_Right_M_ToggleOff" d="M233.1,195.8l-25.9-17.4l223.5-90.2l24.7,96.2
				l-68.6,48.6L308,180.9L233.1,195.8z"/>
		</g>
		<g id="Classic_Shoulder_Right_M_Option">
			<path id="Main_Shoulder_Classic_Right_M" d="M359.6,116.3l26.7,120.8l-21.4,69.6l-143,72.4l-24-36.9L359.6,116.3z"/>
			<path id="Trauma-Plates_Shoulder_Classic_Right_M_ToggleOff" d="M367.7,236.4L350,294.1l-121.7,61.6l-20.6-31.6
				l137-191.8L367.7,236.4z"/>
		</g>
	</g>
</g>
<g id="Gauntlets_M">
	<g id="Left-Gauntlets_M">
		<g id="Rage_Gauntlet_Left_M_Option">
			<path d="M1179.7,1123.6c-4.1-17.4-8.3-35.5-16.9-54c-10.5-7-26.5-28.7-37.2-51.5c-5.8-12.5-10.9-108,8-115.5
				c43.6-17.2,83-23.3,129.7-25.7c21.9-1.1,40.8-2.5,62.7,6.6c27.6,11.5,16.7,42.4,27.1,79.8c15.2,54.4,44.8,140.5,40.3,197.3
				c-1.3,15.7-3.9,32-8.6,46.4c-6.6,20.1-11.1,47.5-12.4,69c-1,16.3-1.4,32.9,2.2,49c2.2,10,8.9,16.5,6,26.5
				c-2,6.8-16.1,10.2-18.5,16.1c-0.4,1,1.8,5.9,2,7.2c1.1,6.3-1.5,10.1-5.9,13.6c-15.9,12.5-28.2,4.2-45.9-0.1
				c-11.7-2.9-23.6-3.2-35.4-3c-19.2,0.3-35.2,6.2-53.5,11.3c-18.8,5.3-25.4,6.2-42.6-8.4c-0.6-0.5-8,1.3-9,1.3
				c-6.3,0-24.6-21.2-26.2-26.7c-7.6-27.9,6.2-52-0.4-81.5c-1-2.7-10.7-10.8-12.9-12.9c-8.2-7.9-12.2-19.2-15.9-30.2
				c-12.4-36.3,13.6-26.3,20.9-56.3C1149.7,1130.8,1179.7,1123.6,1179.7,1123.6z"/>
			<path d="M1239.3,1025.6c-11.8-9.8-25.3-18.2-35.6-30.1c-27.2-31.3-29.2-68.4-25.3-107.3"/>
			<path d="M1307,948.6c0.2,13.4-2.1,28.7-7.3,40.5c-4,9-10.5,15.9-12.8,25.9c-3.6,15.8-0.3,30.9,4.7,46.3"/>
			<path d="M1348.8,1022.1c-1.1,11.8-3.7,25-2.3,37c0.9,7.4,4.3,13.7,5.8,21c1.6,8.1-0.1,16.9-2.6,24.3"/>
			<path d="M1225.3,1112.1c-10.5-8.7-22.7-14.5-33.9-22.2c-10.3-7.1-18.9-12.4-28.6-20.4"/>
			<path d="M1262.6,1154c-25-24.4-50.9-37.7-82.9-30.4"/>
			<path d="M1260.1,1225.7c-2.6,6.9-5.9,13.4-8.9,20.1c-1.4,3.1-2.6,8-5.2,10.2c-2.7,2.3-8.1,2.5-11.4,3.2
				c-8.9,1.8-17.9,3.1-26.9,4.4c-21.5,3.2-40.6,17.2-62.6,17.6"/>
			<path d="M1146.4,1270.3c-4-7.1-7.2-14.7-11.3-21.8c-4.9-8.6-11.2-17.2-13.9-26.9"/>
			<path d="M1297.2,1305.2c-7.9-1.8-17-3.2-24.4-7.3c-13.3-7.3-26.7-24.9-31.7-39.8"/>
			<path d="M1210.9,1335.1c1.9-22.4,7.1-44.7,26.2-56.1c3.9-2.3,8-3,12.3-4.2"/>
			<path d="M1180.7,1388c-6-5.6-11-9.9-13.3-20.5c-1.8-8.3-1.2-26-1.1-34.2c0.1-6.5-5.2-41.7-10.1-53.4"/>
			<path d="M1143.6,1162.5c-2.4,5.6-4.5,12-6.3,19.3c-1.7,6.8-4.2,11.5-7.1,15.2c-2.8-6.7-8.1-17.3-4.3-23.9
				c1.9-3.4,5.8-5.7,9-7.4C1137.3,1164.3,1140.6,1161.9,1143.6,1162.5z"/>
			<path d="M1362.9,1366.3c-7.1,3.3-15,10.1-23.2,8.3c-4.8-1-8.5-4.1-12.4-7.3c-1-0.8-3.7-3.9-5-3.6
				c-7,1.4-14.3,5.8-21,8.6c-8.1,3.3-16.5,5.4-24.6,8.4c-6.5,2.4-18.9,6.1-25.6,8"/>
		</g>
		<g id="Heavy_Gauntlet_Left_M_Option">
			<g id="Top-2_Heavy_Gauntlet_Left_M">
				<path d="M1291.2,814.3l18.4,1.4l15.1,86.4l-15.6,13.1L1291.2,814.3z"/>
				<path d="M1307.8,907.7l19.3,112.7l-10.1,13.7l11.8,66.3l-4.7,3.5l-32.6-181.5L1307.8,907.7z"/>
				<circle cx="1307.9" cy="879.6" r="4"/>
			</g>
			<g id="Top-1_Heavy_Gauntlet_Left_M">
				<path d="M1277.8,1116.3l46.2-12.5l-32.6-181.5l16.3-14.7l-17.6-98.9l-69.9-7.2L1277.8,1116.3z"/>
				<path d="M1272.2,806.9l19.3,115.4"/>
			</g>
			<g id="Accent-Top_Heavy_Gauntlet_Left_M">
				<path d="M1310.7,1075.9l-29.4,6l4.5,22.9l29.4-7L1310.7,1075.9z"/>
				<path d="M1292.2,979.8l-29.4,6l17.2,89.6l29.4-6L1292.2,979.8z"/>
				<path d="M1265.8,813.5l-33.2-2.5l17.4,98.2l30.8-6.3L1265.8,813.5z"/>
			</g>
			<path id="Bottom_Heavy_Gauntlet_Left_M" d="M1221.2,806.3c-35.7,1.4-72.9,16.8-96.1,46.9c-7.5,9.8-9.8,22.6-6.2,34.4
				c17.4,57,74.3,243.5,74.3,243.5l84.6-14.8L1221.2,806.3z"/>
			<g id="Accent-Bottom_Heavy_Gauntlet_Left_M">
				<path d="M1277.8,1116.3l-84.6,14.8l-4.6-15l86.2-16.2L1277.8,1116.3z"/>
				<path d="M1225,827.3c-46.1,4.6-84.6,21.4-102.7,71.4l-3.4-11.1c-2.8-9.3-2-19.2,2.2-27.8l4.3-6.9
					c23.2-29.9,60.2-45.2,95.8-46.6L1225,827.3z"/>
				<path d="M1213,813.2l-37.3,7.4l29.4,148.1l37.3-7.4L1213,813.2z"/>
				<path d="M1208.7,816.9l-27.5,5.4l27.2,137l27.5-5.4L1208.7,816.9z"/>
				<path d="M1181.2,822.4l-5.4-1.8"/>
				<path d="M1213,813.2l-4.4,3.7"/>
				<path d="M1242.4,961.3l-6.6-7.4"/>
				<path d="M1205.1,968.7l3.9-9.5"/>
			</g>
			<g id="Whistling-Birds_Attachment_Heavy_Gauntlet_Left_M_Option">
				<path id="Head_Whistling-Birds_Attachment_Heavy_Gauntlet_Left_M" d="M1349.8,961.4l-22.7,59l-9.3-53.4
					L1349.8,961.4z"/>
				<g id="Birds_Whistling-Birds_Attachment_Heavy_Gauntlet_Left_M">
					<g>
						<path d="M1323.8,969.9c1.3-0.2,2.7,2.3,3.3,5.7c0.6,3.4,0,6.3-1.2,6.5c-1.3,0.2-2.8-2.3-3.3-5.7
							C1322,973,1322.5,970.1,1323.8,969.9z"/>
						<path d="M1326.8,986.9c1.3-0.2,2.7,2.3,3.3,5.7c0.6,3.4,0,6.3-1.2,6.5c-1.3,0.2-2.8-2.3-3.3-5.7
							C1325,990.1,1325.5,987.2,1326.8,986.9z"/>
						<path d="M1332.4,968.4c1.3-0.2,2.8,2.3,3.3,5.7c0.6,3.4,0,6.3-1.2,6.5c-1.3,0.2-2.7-2.3-3.3-5.7
							C1330.7,971.5,1331.2,968.6,1332.4,968.4z"/>
						<path d="M1329.6,1014c-0.5-1-0.9-2.2-1.1-3.6c-0.6-3.3-0.1-6.3,1.2-6.5c0.9-0.2,1.9,1.1,2.6,3L1329.6,1014z
							 M1336.2,996.9c-0.8-1-1.6-2.8-2-5c-0.6-3.4,0-6.3,1.2-6.5c1.2-0.2,2.6,2,3.2,5.1L1336.2,996.9z M1343,979.1
							c-1.2,0-2.6-2.5-3.1-5.7c-0.6-3.4-0.1-6.3,1.2-6.5c1.3-0.2,2.7,2.3,3.3,5.7c0.1,0.8,0.2,1.5,0.2,2.2L1343,979.1z"/>
					</g>
				</g>
				<g id="Base_Whistling-Birds_Attachment_Heavy_Gauntlet_Left_M">
					<path d="M1319.7,800.4l-21.5,3.7l1.7,9.5l21.5-3.7L1319.7,800.4z"/>
					<path d="M1323.3,809.5l-23.4,4.1l26.5,151.8l23.4-4.1L1323.3,809.5z"/>
					<path d="M1326.7,810.6l-3.1,0.5l22.9,131.1l3.1-0.5L1326.7,810.6z"/>
					<path d="M1319.5,810.2l-3.1,0.5l24.8,142.4l3.1-0.5L1319.5,810.2z"/>
				</g>
				<g id="Accent_Whistling-Birds_Attachment_Heavy_Gauntlet_Left_M">
					<path d="M1297.9,801.8l-8.5,1.5l26.9,154.2l8.5-1.5L1297.9,801.8z"/>
					<path d="M1349.9,951.6l-33.7,5.9l1.7,9.5l33.7-5.9L1349.9,951.6z"/>
					<path d="M1312.4,801.7l-14.1,2.5l3.9,22.1l14.1-2.5L1312.4,801.7z"/>
					<path d="M1312.9,824.4l-10.7,1.9l9.2,52.6l7.3-21.6L1312.9,824.4z"/>
				</g>
			</g>
			<g id="Flamethrower_Attachment_Heavy_Gauntlet_Left_M_Option">
				<g id="Tubes_Flamethrower_Attachment_Heavy_Gauntlet_Left_M">
					<path d="M1307,816.5l-8.7,1.5l46.2,265.3l8.7-1.5L1307,816.5z"/>
					<path d="M1327,813l-8.7,1.5l33.1,190.2l8.7-1.5L1327,813z"/>
					<path d="M1312.6,832.6l-13.1,2.3l11,63.2l13.1-2.3L1312.6,832.6z"/>
					<path d="M1331.5,829.3l-12,2.1l11,63.2l12-2.1L1331.5,829.3z"/>
				</g>
				<g id="Main_Flamethrower_Attachment_Heavy_Gauntlet_Left_M">
					<path d="M1330,808.3l-35.8,6.2l3.6,20.7l35.8-6.2L1330,808.3z"/>
					<path d="M1345.4,892l-37.4,6.5l1.8,10.1l37.4-6.5L1345.4,892z"/>
					<path d="M1345.6,902.4l-34.3,6l0.9,5.1l34.3-6L1345.6,902.4z"/>
					<path d="M1310.7,891.6l-5.8,1.2l5.4,30.9l5.8-1.2L1310.7,891.6z"/>
				</g>
				<g id="Accent_Flamethrower_Attachment_Heavy_Gauntlet_Left_M">
					<path d="M1360.4,1003.1l-9.3,1.6l0.8,13.3l12.2-2.1L1360.4,1003.1z"/>
					<path d="M1352.2,934.9l-16.5,2.9l3.5,20.1l16.5-2.9L1352.2,934.9z"/>
					<path d="M1353.4,955.5l-12,2.1l3.5,20.1l12-2.1L1353.4,955.5z"/>
					<path d="M1349,1048l-12,2.1l4.8,27.6l12-2.1L1349,1048z"/>
					<path d="M1333.5,958.9l-12,2.1l6.5,37.5l12-2.1L1333.5,958.9z"/>
					<path d="M1353.7,1061.4l-16.6,2.9l0.9,5.4l16.5-2.9L1353.7,1061.4z"/>
				</g>
				<path id="Base_Flamethrower_Attachment_Heavy_Gauntlet_Left_M" d="M1304.9,892.8l-14.8-83.7l10.7,2.2l24.9,141.5
					l-9.2,6.3l-6.2-35.4l5.8-1.2l-5.4-30.9L1304.9,892.8z"/>
			</g>
			<g id="Missle_Attachment_Heavy_Gauntlet_Left_M_Option">
				<g id="Head_Missle_Attachment_Heavy_Gauntlet_Left_M">
					<path d="M1347.5,1005.7l-28-43.4l39.3-8L1347.5,1005.7z"/>
					<path d="M1333.6,963.9c0.9-0.2,1.9,1.6,2.3,3.8c0.4,2.3,0,4.3-0.8,4.5c-0.9,0.2-1.9-1.5-2.3-3.8
						C1332.4,966.1,1332.8,964,1333.6,963.9z"/>
					<path d="M1337.1,975.9c0.7-0.1,1.5,1.2,1.8,3.1c0.3,1.8,0,3.5-0.7,3.6c-0.7,0.1-1.5-1.2-1.8-3.1
						C1336.1,977.7,1336.4,976.1,1337.1,975.9z"/>
					<path d="M1339.4,987.1c0.6-0.1,1.4,1.1,1.7,2.8c0.3,1.7,0,3.2-0.6,3.3c-0.6,0.1-1.4-1.1-1.7-2.8
						C1338.5,988.7,1338.8,987.3,1339.4,987.1z"/>
					<path d="M1327.3,965.2c0.9-0.2,1.9,1.5,2.3,3.8c0.4,2.3,0,4.3-0.8,4.5c-0.9,0.2-1.9-1.5-2.3-3.8
						C1326,967.3,1326.4,965.3,1327.3,965.2z"/>
					<path d="M1352.7,960c0.9-0.2,1.9,1.6,2.3,3.9c0.4,2.3,0,4.3-0.8,4.5c-0.9,0.2-1.9-1.6-2.3-3.9
						C1351.5,962.2,1351.9,960.2,1352.7,960z"/>
					<path d="M1346.4,961.3c0.9-0.2,1.9,1.5,2.3,3.8c0.4,2.3,0,4.3-0.8,4.5c-0.9,0.2-1.9-1.5-2.3-3.8
						C1345.1,963.5,1345.5,961.5,1346.4,961.3z"/>
					<path d="M1347.3,973.9c0.7-0.1,1.5,1.2,1.8,3.1c0.3,1.8,0,3.5-0.7,3.6c-0.7,0.1-1.5-1.2-1.8-3.1
						C1346.3,975.6,1346.6,974,1347.3,973.9z"/>
					<path d="M1348.8,985.2c0.6-0.1,1.4,1.1,1.7,2.8c0.3,1.7,0,3.2-0.6,3.3c-0.6,0.1-1.4-1.1-1.7-2.8
						C1347.9,986.8,1348.2,985.3,1348.8,985.2z"/>
					<path d="M1340,962.6c0.9-0.2,1.9,1.5,2.3,3.8c0.4,2.3,0,4.3-0.8,4.5c-0.9,0.2-1.9-1.5-2.3-3.8
						C1338.8,964.8,1339.1,962.7,1340,962.6z"/>
					<path d="M1342.2,974.9c0.7-0.1,1.5,1.2,1.8,3.1c0.3,1.8,0,3.5-0.7,3.6c-0.7,0.1-1.5-1.2-1.8-3.1
						C1341.2,976.7,1341.5,975,1342.2,974.9z"/>
					<path d="M1344.1,986.2c0.6-0.1,1.4,1.1,1.7,2.8c0.3,1.7,0,3.2-0.6,3.3c-0.6,0.1-1.4-1.1-1.7-2.8
						S1343.5,986.3,1344.1,986.2z"/>
					<path d="M1353.3,979.5c-0.7-0.1-1.4-1.4-1.7-3.1c-0.3-1.8,0-3.5,0.7-3.6c0.7-0.1,1.5,1.2,1.8,3L1353.3,979.5z
						 M1331.3,980.5c-0.3-1.8,0-3.4,0.7-3.5c0.7-0.1,1.5,1.2,1.8,3.1c0.3,1.7,0.1,3.2-0.5,3.5L1331.3,980.5z"/>
				</g>
				<g id="Main_Missle_Attachment_Heavy_Gauntlet_Left_M">
					<path d="M1353,948.8l-29.7,6.1l1.2,6.5l29.7-6.1L1353,948.8z"/>
					<path d="M1328.8,810.5l-29.7,6.1l1.1,6.5l29.7-6.1L1328.8,810.5z"/>
					<path d="M1318.5,787.7l-17.5,3.6l1.2,6.5l17.5-3.6L1318.5,787.7z"/>
					<path d="M1327.2,792.7l-32.6,6.6l3.1,17.5l32.6-6.6L1327.2,792.7z"/>
					<path d="M1332.6,816.5l-35.1,7.2l23,131.7l35.1-7.2L1332.6,816.5z"/>
					<path d="M1310.9,893.1l-5.8,1.2l5.4,30.9l5.8-1.2L1310.9,893.1z"/>
				</g>
				<g id="Accent_Missle_Attachment_Heavy_Gauntlet_Left_M">
					<path d="M1349,1014.1l-5.7-11.1l7.3-1.5L1349,1014.1z"/>
					<path d="M1349.4,998.7l-5.9,1.2l-0.2,3.1l7.3-1.5L1349.4,998.7z"/>
					<path d="M1318.8,778.1l-21.5,4.4l1.6,9.1l21.5-4.4L1318.8,778.1z"/>
					<path d="M1314.4,774.1l-14.3,2.9l-2.8,5.5l21.5-4.4L1314.4,774.1z"/>
					<path d="M1322.1,818.7l-6,1.2l23,131.7l6-1.2L1322.1,818.7z"/>
					<path d="M1314,820.3l-6,1.2l23,131.7l6-1.2L1314,820.3z"/>
					<path d="M1335.6,819.4l-3-2.9l23,131.7l1.8-3.9L1335.6,819.4z"/>
					<path d="M1330.2,817l-6,1.2l23,131.7l6-1.2L1330.2,817z"/>
					<path d="M1305.9,822l-3.7,0.7l23,131.7l3.7-0.7L1305.9,822z"/>
				</g>
				<path id="Base_Missle_Attachment_Heavy_Gauntlet_Left_M" d="M1301.2,812.7l-10.7-2.2l26.2,150l9.2-6.2L1301.2,812.7
					z M1310.9,893.1l-5.8,1.2l5.4,30.9l5.8-1.2L1310.9,893.1z"/>
			</g>
			<g id="No-Device_Attachment_Heavy_Gauntlet_Left_M_Option">
			</g>
		</g>
		<g id="Gunslinger_Gauntlet_Left_M_Option">
			<g id="Accent-Top_Gunslinger_Gauntlet_Left_M">
				<path d="M1282.9,824.1l6.6,59.9l-30.2,8.4l-7-56.8L1282.9,824.1z"/>
				<path d="M1268.6,1046.2l6,30.6l-26.6,5.7l-6.3-30.5L1268.6,1046.2z"/>
			</g>
			<path id="Top_Gunslinger_Gauntlet_Left_M" d="M1282.9,824.1l13.7-5.2l24.3,280.7l-66.5,14.1l-9-43.6l2.6,12.3
				l26.6-5.7l-6-30.6l-26.9,5.8l-40.8-196.9L1282.9,824.1l-30.7,11.6l7,56.8l30.2-8.4L1282.9,824.1z"/>
			<g id="Accent-Bottom_Gunslinger_Gauntlet_Left_M">
				<path d="M1162.6,945.9l-7.9-24.5l-17.2,5.5l7.8,24.5L1162.6,945.9z"/>
				<path d="M1171.6,973.8l-7.9-24.5l-17.2,5.5l7.8,24.5L1171.6,973.8z"/>
				<path d="M1241.7,1052l-59.4,12.8l9.6,29.8l56.2-12.1L1241.7,1052z"/>
			</g>
			<path id="Bottom_Gunslinger_Gauntlet_Left_M" d="M1247.1,1078.1l-5.4-26.1l-59.4,12.8l9.6,29.8l56.2-12.1l6.5,31.2
				c0,0-20.9,3.7-36.5,6.4c-9.8,1.7-19.3-4-22.4-13.5c-16.7-51.6-66.8-206.8-66.8-206.8l73-40.7L1247.1,1078.1z M1171.6,973.8
				l-7.9-24.5l-17.2,5.5l7.8,24.5L1171.6,973.8z M1162.6,945.9l-7.9-24.5l-17.2,5.5l7.8,24.5L1162.6,945.9z"/>
			<g id="Whistling-Birds_Attachment_Gunslinger_Gauntlet_Left_M_Option">
				<path id="Head_Whistling-Birds_Attachment_Gunslinger_Gauntlet_Left_M" d="M1343.8,988.3l-27.7,56.8l-4.7-54
					L1343.8,988.3z"/>
				<g id="Birds_Whistling-Birds_Attachment_Gunslinger_Gauntlet_Left_M">
					<g>
						<path d="M1317.2,994.5c1.3-0.1,2.5,2.6,2.8,5.9c0.3,3.4-0.5,6.2-1.8,6.4c-1.3,0.1-2.5-2.6-2.8-6
							C1315.1,997.5,1315.9,994.6,1317.2,994.5z"/>
						<path d="M1318.7,1011.8c1.3-0.1,2.5,2.5,2.8,6c0.3,3.4-0.5,6.2-1.8,6.3c-1.3,0.1-2.5-2.6-2.8-6
							C1316.6,1014.7,1317.4,1011.9,1318.7,1011.8z"/>
						<path d="M1325.9,993.8c1.3-0.1,2.5,2.6,2.8,5.9c0.3,3.4-0.5,6.2-1.8,6.3s-2.5-2.6-2.8-6
							C1323.9,996.7,1324.7,993.9,1325.9,993.8z"/>
						<path d="M1319.2,1039c-0.4-1-0.7-2.3-0.8-3.7c-0.3-3.4,0.5-6.2,1.8-6.3c0.9-0.1,1.8,1.2,2.3,3.2L1319.2,1039z
							 M1327.2,1022.5c-0.8-1-1.4-2.9-1.5-5.1c-0.3-3.4,0.5-6.2,1.8-6.4c1.2-0.1,2.4,2.3,2.8,5.4L1327.2,1022.5z M1335.5,1005.3
							c-1.2-0.2-2.4-2.7-2.6-5.9c-0.3-3.4,0.5-6.2,1.8-6.3c1.3-0.1,2.5,2.6,2.8,5.9c0.1,0.8,0.1,1.5,0,2.2L1335.5,1005.3z"/>
					</g>
				</g>
				<g id="Base_Whistling-Birds_Attachment_Gunslinger_Gauntlet_Left_M">
					<path d="M1327.8,825.3l-21.7,1.9l0.8,9.6l21.7-1.9L1327.8,825.3z"/>
					<path d="M1330.6,834.7l-23.7,2l13.3,153.5l23.7-2L1330.6,834.7z"/>
					<path d="M1333.8,836.1l-3.1,0.3l11.5,132.6l3.1-0.3L1333.8,836.1z"/>
					<path d="M1326.7,835l-3.1,0.3l12.4,144l3.1-0.3L1326.7,835z"/>
				</g>
				<g id="Accent_Whistling-Birds_Attachment_Gunslinger_Gauntlet_Left_M">
					<path d="M1305.8,824.8l-8.6,0.7l13.5,155.9l8.6-0.7L1305.8,824.8z"/>
					<path d="M1344.8,978.5l-34.1,2.9l0.8,9.6l34.1-2.9L1344.8,978.5z"/>
					<path d="M1320.3,826l-14.2,1.2l1.9,22.4l14.3-1.2L1320.3,826z"/>
					<path d="M1318.8,848.6l-10.8,0.9l4.6,53.2l9.1-20.9L1318.8,848.6z"/>
				</g>
			</g>
			<g id="Flamethrower_Attachment_Gunslinger_Gauntlet_Left_M_Option">
				<g id="Tubes_Flamethrower_Attachment_Gunslinger_Gauntlet_Left_M">
					<path d="M1313.2,835.3l-8.8,0.7l22.3,268.4l8.8-0.7L1313.2,835.3z"/>
					<path d="M1333.4,833.7l-8.8,0.7l16,192.4l8.8-0.7L1333.4,833.7z"/>
					<path d="M1316.3,852l-12.1,1l5.3,63.9l12.1-1L1316.3,852z"/>
					<path d="M1336.5,850.4l-12.1,1l5.3,63.9l12.1-1L1336.5,850.4z"/>
				</g>
				<g id="Main_Flamethrower_Attachment_Gunslinger_Gauntlet_Left_M">
					<path d="M1337.2,833.4l-36.2,3l1.4,16.8l36.2-3L1337.2,833.4z"/>
					<path d="M1344.7,914l-37.9,3.1l0.9,10.2l37.9-3.1L1344.7,914z"/>
					<path d="M1344,924.4l-34.7,2.9l0.4,5.2l34.7-2.9L1344,924.4z"/>
					<path d="M1310.2,910.5l-5.8,0.7l2.7,31.2l5.8-0.7L1310.2,910.5z"/>
				</g>
				<g id="Accent_Flamethrower_Attachment_Gunslinger_Gauntlet_Left_M">
					<path d="M1349.7,1026.1l-9.4,0.8l-0.4,13.3l12.4-1L1349.7,1026.1z"/>
					<path d="M1347.7,957.4l-16.7,1.4l1.7,20.3l16.7-1.4L1347.7,957.4z"/>
					<path d="M1347.1,977.9l-12.1,1l1.7,20.3l12.1-1L1347.1,977.9z"/>
					<path d="M1334.3,1069.7l-12.1,1l2.3,27.9l12.1-1L1334.3,1069.7z"/>
					<path d="M1326.9,979.6l-12.1,1l3.2,38l12.1-1L1326.9,979.6z"/>
					<path d="M1337.8,1083.4l-16.7,1.4l0.4,5.4l16.7-1.4L1337.8,1083.4z"/>
				</g>
				<path id="Base_Flamethrower_Attachment_Gunslinger_Gauntlet_Left_M" d="M1304.3,911.2l-7.2-84.7l10.4,3.1
					l12.2,143.2l-9.7,5.4l-3.1-35.8l5.8-0.7l-2.7-31.2L1304.3,911.2z"/>
			</g>
			<g id="Missle_Attachment_Gunslinger_Gauntlet_Left_M_Option">
				<g id="Head_Missle_Attachment_Gunslinger_Gauntlet_Left_M">
					<path d="M1337,1027.6l-24-45.6l39.9-4.5L1337,1027.6z"/>
					<path d="M1326.8,984.7c0.9-0.1,1.7,1.7,1.9,4c0.2,2.3-0.3,4.3-1.2,4.4s-1.7-1.7-1.9-4
						C1325.4,986.7,1325.9,984.8,1326.8,984.7z"/>
					<path d="M1329.1,997c0.7-0.1,1.4,1.4,1.6,3.2c0.2,1.9-0.3,3.4-1,3.5c-0.7,0.1-1.4-1.4-1.5-3.2
						C1328,998.7,1328.4,997.1,1329.1,997z"/>
					<path d="M1330.5,1008.3c0.6-0.1,1.3,1.3,1.4,3c0.2,1.7-0.3,3.2-0.9,3.2c-0.7,0.1-1.3-1.3-1.4-3
						C1329.5,1009.9,1329.9,1008.4,1330.5,1008.3z"/>
					<path d="M1320.3,985.4c0.9-0.1,1.7,1.7,1.9,4s-0.3,4.3-1.2,4.4c-0.9,0.1-1.7-1.7-1.9-4
						C1318.9,987.5,1319.4,985.5,1320.3,985.4z"/>
					<path d="M1346.2,982.5c0.9-0.1,1.7,1.7,1.9,4c0.2,2.3-0.3,4.3-1.2,4.4c-0.9,0.1-1.7-1.7-1.9-4
						C1344.7,984.5,1345.3,982.6,1346.2,982.5z"/>
					<path d="M1339.7,983.2c0.9-0.1,1.7,1.7,1.9,4s-0.3,4.3-1.2,4.4s-1.7-1.7-1.9-4
						C1338.3,985.3,1338.8,983.3,1339.7,983.2z"/>
					<path d="M1339.5,995.8c0.7-0.1,1.4,1.4,1.6,3.2c0.2,1.9-0.3,3.4-1,3.5c-0.7,0.1-1.4-1.4-1.6-3.2
						C1338.3,997.5,1338.8,995.9,1339.5,995.8z"/>
					<path d="M1340,1007.3c0.6-0.1,1.3,1.3,1.4,3c0.1,1.7-0.3,3.2-0.9,3.2c-0.6,0.1-1.3-1.3-1.4-3
						C1339,1008.8,1339.4,1007.3,1340,1007.3z"/>
					<path d="M1333.2,983.9c0.9-0.1,1.7,1.7,1.9,4c0.2,2.3-0.3,4.3-1.2,4.4c-0.9,0.1-1.7-1.7-1.9-4
						C1331.8,986,1332.4,984,1333.2,983.9z"/>
					<path d="M1334.3,996.4c0.7-0.1,1.4,1.4,1.5,3.2c0.2,1.9-0.3,3.4-1,3.5c-0.7,0.1-1.4-1.4-1.6-3.2
						C1333.2,998.1,1333.6,996.5,1334.3,996.4z"/>
					<path d="M1335.3,1007.8c0.6-0.1,1.3,1.3,1.4,3c0.2,1.7-0.3,3.2-0.9,3.2c-0.6,0.1-1.3-1.3-1.4-3
						C1334.2,1009.3,1334.6,1007.9,1335.3,1007.8z"/>
					<path d="M1345.1,1002c-0.6-0.1-1.2-1.5-1.4-3.2c-0.2-1.9,0.3-3.4,1-3.5c0.7-0.1,1.4,1.3,1.5,3.1L1345.1,1002z
						 M1323,1001c-0.1-1.8,0.3-3.4,1-3.4c0.7-0.1,1.4,1.4,1.6,3.2c0.2,1.7-0.2,3.2-0.8,3.5L1323,1001z"/>
				</g>
				<g id="Main_Missle_Attachment_Gunslinger_Gauntlet_Left_M">
					<path d="M1347.4,971.3l-30.2,3.4l0.6,6.6l30.2-3.4L1347.4,971.3z"/>
					<path d="M1335.4,831.5l-30.2,3.4l0.6,6.6l30.2-3.4L1335.4,831.5z"/>
					<path d="M1327.2,807.8l-17.8,2l0.6,6.6l17.8-2L1327.2,807.8z"/>
					<path d="M1335.4,813.6l-33.1,3.7l1.5,17.7l33.1-3.7L1335.4,813.6z"/>
					<path d="M1338.7,837.8l-35.6,4l11.4,133.2l35.6-4L1338.7,837.8z"/>
					<path d="M1310.4,912.2l-5.8,0.7l2.7,31.2l5.8-0.7L1310.4,912.2z"/>
				</g>
				<g id="Accent_Missle_Attachment_Gunslinger_Gauntlet_Left_M">
					<path d="M1337.7,1036.1l-4.7-11.6l7.4-0.8L1337.7,1036.1z"/>
					<path d="M1339.4,1020.8l-6,0.7l-0.5,3.1l7.4-0.8L1339.4,1020.8z"/>
					<path d="M1328.4,798.3l-21.8,2.5l0.8,9.2l21.8-2.5L1328.4,798.3z"/>
					<path d="M1324.3,793.9l-14.5,1.6l-3.2,5.3l21.8-2.5L1324.3,793.9z"/>
					<path d="M1328.1,839l-6.1,0.7l11.4,133.2l6.1-0.7L1328.1,839z"/>
					<path d="M1319.8,839.9l-6.1,0.7l11.4,133.2l6.1-0.7L1319.8,839.9z"/>
					<path d="M1341.5,840.9l-2.7-3.1l11.4,133.2l2.1-3.7L1341.5,840.9z"/>
					<path d="M1336.3,838.1l-6.1,0.7l11.4,133.2l6.1-0.7L1336.3,838.1z"/>
					<path d="M1311.6,840.9l-3.7,0.4l11.4,133.2l3.7-0.4L1311.6,840.9z"/>
				</g>
				<path id="Base_Missle_Attachment_Gunslinger_Gauntlet_Left_M" d="M1307.8,831.3l-10.4-3.1l13,151.7l9.7-5.4
					L1307.8,831.3z M1310.4,912.2l-5.8,0.7l2.7,31.2l5.8-0.7L1310.4,912.2z"/>
			</g>
			<g id="No-Device_Attachment_Gunslinger_Gauntlet_Left_M_Option">
			</g>
		</g>
		<g id="Basic_Gauntlet_Left_M_Option">
			<path id="Top-2_Basic_Gauntlet_Left_M" d="M1339.1,1120l14.4-23.2l-41.3-195.3l-6.9,23.6l19.6,89l-7.7,22.1
				L1339.1,1120z"/>
			<path id="Top-1_Basic_Gauntlet_Left_M" d="M1312.3,901.5l-6.9,23.6l19.6,89l-7.7,22.1l21.7,83.8l-9.5,15.3l5,54.3
				l-16.7,4.3l-22.5-81.7l-15.5-5.7l-71.4-239.3l94.5-9.9L1312.3,901.5z"/>
			<g id="Accent-Bottom_Basic_Gauntlet_Left_M">
				<path d="M1172.5,939.1l-20.9,6.9l10.3,31.1l20.9-6.9L1172.5,939.1z"/>
				<path d="M1190.3,993.6l-20.9,6.9l10.3,31.1l20.9-6.9L1190.3,993.6z"/>
				<path d="M1208.8,1049.3l-20.9,6.9l10.3,31.1l20.9-6.9L1208.8,1049.3z"/>
			</g>
			<path id="Bottom_Basic_Gauntlet_Left_M" d="M1151.8,945.9l-7.7-23.7l65.6-51.1l70.3,235.4l-71.4,13.1l-28.7-88
				l20.8-6.9l-10.3-31.1l-20.7,6.8l-7.6-23.3l20.9-6.9l-10.3-31.1L1151.8,945.9z M1208.8,1049.3l-21,6.9l10.2,31.1l21.1-7
				L1208.8,1049.3z"/>
			<g id="Whistling-Birds_Attachment_Basic_Gauntlet_Left_M_Option">
				<path id="Head_Whistling-Birds_Attachment_Basic_Gauntlet_Left_M" d="M1369.6,1014.3l-20.5,59.8l-11.2-53
					L1369.6,1014.3z"/>
				<g id="Birds_Whistling-Birds_Attachment_Basic_Gauntlet_Left_M">
					<g>
						<path d="M1343.9,1023.8c1.3-0.3,2.8,2.2,3.5,5.5c0.7,3.3,0.3,6.3-1,6.5c-1.3,0.3-2.8-2.2-3.5-5.6
							C1342.3,1027,1342.7,1024.1,1343.9,1023.8z"/>
						<path d="M1347.5,1040.7c1.3-0.3,2.8,2.2,3.5,5.6c0.7,3.3,0.3,6.3-1,6.5c-1.3,0.3-2.8-2.2-3.5-5.6
							C1345.8,1043.9,1346.3,1041,1347.5,1040.7z"/>
						<path d="M1352.5,1022c1.2-0.3,2.8,2.2,3.5,5.6c0.7,3.3,0.3,6.3-1,6.5c-1.2,0.3-2.8-2.2-3.5-5.5
							C1350.8,1025.2,1351.3,1022.3,1352.5,1022z"/>
						<path d="M1351.3,1067.7c-0.5-1-0.9-2.2-1.2-3.5c-0.7-3.3-0.3-6.3,1-6.5c0.9-0.2,1.9,1,2.7,2.9L1351.3,1067.7z
							 M1357.3,1050.3c-0.9-0.9-1.7-2.7-2.2-4.9c-0.7-3.3-0.3-6.3,1-6.5c1.2-0.3,2.6,1.9,3.4,5L1357.3,1050.3z M1363.5,1032.3
							c-1.2,0-2.7-2.4-3.3-5.6c-0.7-3.3-0.3-6.2,1-6.5c1.2-0.3,2.8,2.2,3.5,5.5c0.2,0.8,0.3,1.5,0.3,2.2L1363.5,1032.3z"/>
					</g>
				</g>
				<g id="Base_Whistling-Birds_Attachment_Basic_Gauntlet_Left_M">
					<path d="M1333.8,854.6l-21.3,4.5l2,9.4l21.3-4.5L1333.8,854.6z"/>
					<path d="M1337.7,863.6l-23.3,4.9l31.9,150.8l23.3-4.9L1337.7,863.6z"/>
					<path d="M1341.1,864.5l-3.1,0.6l27.6,130.2l3.1-0.6L1341.1,864.5z"/>
					<path d="M1333.9,864.4l-3.1,0.6l29.9,141.4l3-0.6L1333.9,864.4z"/>
				</g>
				<g id="Accent_Whistling-Birds_Attachment_Basic_Gauntlet_Left_M">
					<path d="M1312,856.8l-8.5,1.8l32.4,153.1l8.5-1.8L1312,856.8z"/>
					<path d="M1369.4,1004.6l-33.5,7.1l2,9.4l33.5-7.1L1369.4,1004.6z"/>
					<path d="M1326.4,856.1l-14,3l4.7,22l14-3L1326.4,856.1z"/>
					<path d="M1327.8,878.8l-10.7,2.3l11.1,52.2l6.5-21.8L1327.8,878.8z"/>
				</g>
			</g>
			<g id="Flamethrower_Attachment_Basic_Gauntlet_Left_M_Option">
				<g id="Tubes_Flamethrower_Attachment_Basic_Gauntlet_Left_M">
					<path d="M1320.6,866.3l-8.7,1.8l54.9,263.7l8.6-1.8L1320.6,866.3z"/>
					<path d="M1340.4,862.2l-8.7,1.8l39.4,189l8.7-1.8L1340.4,862.2z"/>
					<path d="M1325.6,882.5l-11.9,2.5l13.1,62.8l11.9-2.5L1325.6,882.5z"/>
					<path d="M1345.5,878.4l-11.9,2.5l13.1,62.8l11.9-2.5L1345.5,878.4z"/>
				</g>
				<g id="Main_Flamethrower_Attachment_Basic_Gauntlet_Left_M">
					<path d="M1344.1,861.4l-35.6,7.4l3.4,16.5l35.6-7.4L1344.1,861.4z"/>
					<path d="M1361.4,940.6l-37.2,7.7l2.1,10l37.2-7.7L1361.4,940.6z"/>
					<path d="M1362,950.9l-34.1,7.1l1.1,5.1l34.1-7.1L1362,950.9z"/>
					<path d="M1326.7,941.3l-5.7,1.4l6.4,30.7l5.7-1.4L1326.7,941.3z"/>
				</g>
				<g id="Accent_Flamethrower_Attachment_Basic_Gauntlet_Left_M">
					<path d="M1380.1,1051.1l-9.3,1.9l1.3,13.2l12.1-2.5L1380.1,1051.1z"/>
					<path d="M1369.7,983.2l-16.5,3.4l4.2,20l16.4-3.4L1369.7,983.2z"/>
					<path d="M1371.6,1003.7l-11.9,2.5l4.2,20l11.9-2.5L1371.6,1003.7z"/>
					<path d="M1370.2,1096.3l-11.9,2.5l5.7,27.4l11.9-2.5L1370.2,1096.3z"/>
					<path d="M1351.7,1007.8l-11.9,2.5l7.8,37.3l11.9-2.5L1351.7,1007.8z"/>
					<path d="M1375.3,1109.6l-16.5,3.4l1.1,5.3l16.5-3.4L1375.3,1109.6z"/>
				</g>
				<path id="Base_Flamethrower_Attachment_Basic_Gauntlet_Left_M" d="M1321,942.7l-17.5-83.2l10.7,1.8l29.6,140.6
					l-9,6.5l-7.4-35.2l5.7-1.4l-6.5-30.7L1321,942.7z"/>
			</g>
			<g id="Missle_Attachment_Basic_Gauntlet_Left_M_Option">
				<g id="Head_Missle_Attachment_Basic_Gauntlet_Left_M">
					<path d="M1367.6,1054.2l-29.4-42.4l39-9.4L1367.6,1054.2z"/>
					<path d="M1352.3,1012.9c0.8-0.2,1.9,1.5,2.4,3.8c0.5,2.3,0.2,4.3-0.7,4.5c-0.9,0.2-1.9-1.5-2.4-3.8
						C1351.1,1015.1,1351.4,1013.1,1352.3,1012.9z"/>
					<path d="M1356.1,1024.8c0.7-0.2,1.6,1.2,1.9,3c0.4,1.8,0.1,3.5-0.5,3.6c-0.7,0.2-1.6-1.2-1.9-3
						C1355.2,1026.6,1355.4,1025,1356.1,1024.8z"/>
					<path d="M1358.9,1035.9c0.6-0.2,1.4,1.1,1.8,2.8c0.3,1.7,0.1,3.2-0.5,3.3s-1.4-1.1-1.8-2.8
						C1358,1037.5,1358.3,1036.1,1358.9,1035.9z"/>
					<path d="M1345.9,1014.4c0.9-0.2,1.9,1.5,2.4,3.8c0.5,2.3,0.2,4.3-0.7,4.5c-0.8,0.2-1.9-1.5-2.4-3.8
						C1344.8,1016.6,1345.1,1014.6,1345.9,1014.4z"/>
					<path d="M1371.2,1008.3c0.8-0.2,1.9,1.5,2.4,3.8c0.5,2.3,0.2,4.3-0.7,4.5c-0.8,0.2-1.9-1.5-2.4-3.8
						C1370.1,1010.5,1370.4,1008.5,1371.2,1008.3z"/>
					<path d="M1364.9,1009.8c0.9-0.2,1.9,1.5,2.4,3.8c0.5,2.3,0.2,4.3-0.7,4.5c-0.9,0.2-1.9-1.5-2.4-3.8
						C1363.8,1012,1364.1,1010,1364.9,1009.8z"/>
					<path d="M1366.2,1022.4c0.7-0.2,1.6,1.2,1.9,3c0.4,1.8,0.2,3.4-0.5,3.6c-0.7,0.2-1.6-1.2-1.9-3
						C1365.3,1024.2,1365.5,1022.5,1366.2,1022.4z"/>
					<path d="M1368.2,1033.7c0.6-0.2,1.4,1.1,1.8,2.8c0.4,1.7,0.1,3.2-0.5,3.3s-1.4-1.1-1.8-2.8
						C1367.3,1035.3,1367.5,1033.8,1368.2,1033.7z"/>
					<path d="M1358.6,1011.3c0.9-0.2,1.9,1.5,2.4,3.8c0.5,2.3,0.2,4.3-0.7,4.5c-0.9,0.2-1.9-1.5-2.4-3.8
						C1357.4,1013.6,1357.7,1011.5,1358.6,1011.3z"/>
					<path d="M1361.2,1023.6c0.7-0.2,1.6,1.2,1.9,3c0.4,1.8,0.2,3.5-0.5,3.6c-0.7,0.2-1.6-1.2-1.9-3
						C1360.2,1025.4,1360.5,1023.8,1361.2,1023.6z"/>
					<path d="M1363.5,1034.8c0.6-0.2,1.4,1.1,1.8,2.8c0.4,1.7,0.1,3.2-0.5,3.3c-0.6,0.2-1.4-1.1-1.8-2.8
						C1362.7,1036.4,1362.9,1034.9,1363.5,1034.8z"/>
					<path d="M1372.5,1027.8c-0.7-0.1-1.4-1.4-1.8-3c-0.4-1.8-0.2-3.5,0.5-3.6c0.7-0.2,1.5,1.1,1.9,2.9L1372.5,1027.8z
						 M1350.5,1029.5c-0.3-1.8-0.1-3.4,0.6-3.5c0.7-0.2,1.6,1.2,1.9,3c0.4,1.7,0.2,3.2-0.4,3.5L1350.5,1029.5z"/>
				</g>
				<g id="Main_Missle_Attachment_Basic_Gauntlet_Left_M">
					<path d="M1371.1,997.1l-29.5,7.1l1.4,6.5l29.5-7.1L1371.1,997.1z"/>
					<path d="M1342.1,859.8l-29.5,7.1l1.4,6.5l29.5-7.1L1342.1,859.8z"/>
					<path d="M1331,837.3l-17.4,4.2l1.4,6.5l17.4-4.2L1331,837.3z"/>
					<path d="M1339.9,842l-32.4,7.8l3.7,17.4l32.4-7.8L1339.9,842z"/>
					<path d="M1346.2,865.6l-34.9,8.4l27.6,130.9l34.9-8.4L1346.2,865.6z"/>
					<path d="M1327.2,942.9l-5.7,1.4l6.5,30.7l5.7-1.4L1327.2,942.9z"/>
				</g>
				<g id="Accent_Missle_Attachment_Basic_Gauntlet_Left_M">
					<path d="M1369.4,1062.5l-6.1-10.9l7.3-1.7L1369.4,1062.5z"/>
					<path d="M1369.2,1047.2l-5.8,1.4l-0.1,3.1l7.3-1.7L1369.2,1047.2z"/>
					<path d="M1331.1,827.7l-21.3,5.1l1.9,9.1l21.3-5.1L1331.1,827.7z"/>
					<path d="M1326.5,823.8l-14.2,3.4l-2.6,5.6l21.3-5.1L1326.5,823.8z"/>
					<path d="M1335.7,868.1l-5.9,1.4l27.6,130.8l5.9-1.4L1335.7,868.1z"/>
					<path d="M1327.7,870.1l-5.9,1.4l27.6,130.8l5.9-1.4L1327.7,870.1z"/>
					<path d="M1349.3,868.4l-3.1-2.8l27.6,130.8l1.6-3.9L1349.3,868.4z"/>
					<path d="M1343.8,866.2l-5.9,1.4l27.6,130.8l5.9-1.4L1343.8,866.2z"/>
					<path d="M1319.7,872l-3.7,0.9l27.6,130.8l3.7-0.9L1319.7,872z"/>
				</g>
				<path id="Base_Missle_Attachment_Basic_Gauntlet_Left_M" d="M1314.7,862.9l-10.7-1.8l31.4,149l9-6.6L1314.7,862.9z
					 M1327.2,942.9l-5.7,1.4l6.5,30.7l5.7-1.4L1327.2,942.9z"/>
			</g>
			<g id="No-Device_Attachment_Basic_Gauntlet_Left_M_Option">
			</g>
		</g>
	</g>
	<g id="Right-Gauntlets_M">
		<g id="Rage_Gauntlet_Right_M_Option">
			<path d="M217.3,1123.6c4.1-17.4,8.3-35.5,16.9-54c10.5-7,26.5-28.7,37.2-51.5c5.8-12.5,10.9-108-8-115.5
				c-43.6-17.2-83-23.3-129.7-25.7c-21.9-1.1-40.8-2.5-62.7,6.6c-27.6,11.5-16.7,42.4-27.1,79.8C28.6,1017.6-1,1103.8,3.5,1160.5
				c1.2,15.7,3.9,32,8.6,46.4c6.6,20.1,11.1,47.5,12.4,69c1,16.3,1.4,32.9-2.2,49c-2.2,10-8.9,16.5-6,26.5
				c2,6.8,16.1,10.2,18.5,16.1c0.4,1-1.8,5.9-2,7.2c-1.1,6.3,1.5,10.1,5.9,13.6c15.9,12.5,28.2,4.2,46-0.1c11.7-2.9,23.6-3.2,35.4-3
				c19.1,0.3,35.2,6.2,53.5,11.3c18.8,5.3,25.4,6.2,42.6-8.4c0.6-0.5,8,1.3,9,1.3c6.3,0,24.6-21.2,26.2-26.7
				c7.6-27.9-6.2-52,0.4-81.5c1-2.7,10.7-10.8,12.9-12.9c8.2-7.9,12.2-19.2,15.9-30.2c12.4-36.3-13.6-26.3-21-56.3
				C247.3,1130.8,217.3,1123.6,217.3,1123.6z"/>
			<path d="M157.8,1025.6c11.8-9.8,25.4-18.2,35.6-30.1c27.2-31.3,29.2-68.4,25.3-107.3"/>
			<path d="M90,948.6c-0.2,13.4,2.1,28.7,7.3,40.5c4,9,10.5,15.9,12.7,25.9c3.6,15.8,0.3,30.9-4.7,46.3"/>
			<path d="M48.3,1022.1c1.1,11.8,3.7,25,2.3,37c-0.9,7.4-4.3,13.7-5.8,21c-1.6,8.1,0.1,16.9,2.6,24.3"/>
			<path d="M171.7,1112.1c10.5-8.7,22.7-14.5,33.9-22.2c10.3-7.1,19-12.4,28.6-20.4"/>
			<path d="M134.4,1154c25-24.4,50.9-37.7,82.9-30.4"/>
			<path d="M136.9,1225.7c2.6,6.9,5.9,13.4,8.9,20.1c1.4,3.1,2.6,8,5.2,10.2c2.7,2.3,8.1,2.5,11.4,3.2
				c8.9,1.8,17.9,3.1,26.9,4.4c21.5,3.2,40.6,17.2,62.6,17.6"/>
			<path d="M250.6,1270.3c4-7.1,7.2-14.7,11.3-21.8c4.9-8.6,11.2-17.2,13.9-26.9"/>
			<path d="M99.9,1305.2c7.9-1.8,17-3.2,24.4-7.3c13.3-7.3,26.7-24.9,31.7-39.8"/>
			<path d="M186.1,1335.1c-1.9-22.4-7.1-44.7-26.2-56.1c-3.9-2.3-8-3-12.3-4.2"/>
			<path d="M216.3,1388c6-5.6,11-9.9,13.3-20.5c1.8-8.3,1.2-26,1.1-34.2c-0.1-6.5,5.2-41.7,10.1-53.4"/>
			<path d="M253.4,1162.5c2.4,5.6,4.5,12,6.3,19.3c1.6,6.8,4.2,11.5,7.1,15.2c2.8-6.7,8.1-17.3,4.3-23.9
				c-2-3.4-5.8-5.7-9-7.4C259.8,1164.3,256.4,1161.9,253.4,1162.5z"/>
			<path d="M34.2,1366.3c7.1,3.3,15,10.1,23.2,8.3c4.8-1,8.5-4.1,12.4-7.3c1-0.8,3.7-3.9,5-3.6c7,1.4,14.3,5.8,21,8.6
				c8.1,3.3,16.5,5.4,24.7,8.4c6.5,2.4,18.9,6.1,25.6,8"/>
		</g>
		<g id="Heavy_Gauntlet_Right_M_Option">
			<g id="Top-2_Heavy_Gauntlet_Right_M">
				<path d="M112.8,814.3l-18.4,1.4l-15.1,86.4l15.6,13.1L112.8,814.3z"/>
				<path d="M96.2,907.7l-19.3,112.7L87,1034l-11.8,66.3l4.7,3.5l32.6-181.5L96.2,907.7z"/>
				<circle cx="96" cy="879.6" r="4"/>
			</g>
			<g id="Top-1_Heavy_Gauntlet_Right_M">
				<path d="M126.1,1116.3l-46.2-12.5l32.6-181.5l-16.3-14.7l17.6-98.9l69.9-7.2L126.1,1116.3z"/>
				<path d="M131.8,806.9l-19.3,115.4"/>
			</g>
			<g id="Accent-Top_Heavy_Gauntlet_Right_M">
				<path d="M93.2,1075.9l29.4,6l-4.5,22.9l-29.4-7L93.2,1075.9z"/>
				<path d="M111.7,979.8l29.4,6l-17.2,89.6l-29.4-6L111.7,979.8z"/>
				<path d="M138.1,813.5l33.2-2.5l-17.4,98.2l-30.8-6.3L138.1,813.5z"/>
			</g>
			<path id="Bottom_Heavy_Gauntlet_Right_M" d="M182.8,806.3c35.7,1.4,72.9,16.8,96.1,46.9c7.5,9.8,9.8,22.6,6.2,34.4
				c-17.4,57-74.3,243.5-74.3,243.5l-84.6-14.8L182.8,806.3z"/>
			<g id="Accent-Bottom_Heavy_Gauntlet_Right_M">
				<path d="M126.1,1116.3l84.6,14.8l4.6-15l-86.1-16.2L126.1,1116.3z"/>
				<path d="M178.9,827.3c46.1,4.6,84.6,21.4,102.7,71.4l3.4-11.1c2.8-9.3,2-19.2-2.2-27.8l-4.3-6.9
					c-23.2-29.9-60.2-45.2-95.7-46.6L178.9,827.3z"/>
				<path d="M190.9,813.2l37.3,7.4l-29.4,148.1l-37.3-7.4L190.9,813.2z"/>
				<path d="M195.3,816.9l27.5,5.4l-27.2,137l-27.5-5.4L195.3,816.9z"/>
				<path d="M222.8,822.4l5.4-1.8"/>
				<path d="M190.9,813.2l4.4,3.7"/>
				<path d="M161.5,961.3l6.6-7.4"/>
				<path d="M198.8,968.7l-3.9-9.5"/>
			</g>
			<g id="Whistling-Birds_Attachment_Heavy_Gauntlet_Right_M_Option">
				<path id="Head_Whistling-Birds_Attachment_Heavy_Gauntlet_Right_M" d="M54.1,961.4l22.7,59l9.3-53.4L54.1,961.4z"/>
				<g id="Birds_Whistling-Birds_Attachment_Heavy_Gauntlet_Right_M">
					<g>
						<path d="M80.1,969.9c-1.3-0.2-2.7,2.3-3.3,5.7c-0.6,3.4,0,6.3,1.2,6.5c1.3,0.2,2.7-2.3,3.3-5.7
							C81.9,973,81.4,970.1,80.1,969.9z"/>
						<path d="M77.2,986.9c-1.3-0.2-2.7,2.3-3.3,5.7c-0.6,3.4,0,6.3,1.2,6.5c1.3,0.2,2.7-2.3,3.3-5.7
							C79,990.1,78.4,987.2,77.2,986.9z"/>
						<path d="M71.5,968.4c-1.3-0.2-2.7,2.3-3.3,5.7c-0.6,3.4,0,6.3,1.2,6.5c1.3,0.2,2.7-2.3,3.3-5.7
							C73.3,971.5,72.7,968.6,71.5,968.4z"/>
						<path d="M74.3,1014c0.5-1,0.9-2.2,1.1-3.6c0.6-3.3,0-6.3-1.2-6.5c-0.9-0.2-1.9,1.1-2.6,3L74.3,1014z M67.8,996.9
							c0.8-1,1.6-2.8,2-5c0.6-3.4,0-6.3-1.2-6.5c-1.2-0.2-2.6,2-3.2,5.1L67.8,996.9z M60.9,979.1c1.2,0,2.6-2.5,3.1-5.7
							c0.6-3.4,0-6.3-1.2-6.5c-1.3-0.2-2.7,2.3-3.3,5.7c-0.1,0.8-0.2,1.5-0.2,2.2L60.9,979.1z"/>
					</g>
				</g>
				<g id="Base_Whistling-Birds_Attachment_Heavy_Gauntlet_Right_M">
					<path d="M84.2,800.4l21.5,3.7l-1.6,9.5l-21.5-3.7L84.2,800.4z"/>
					<path d="M80.6,809.5l23.4,4.1L77.5,965.4l-23.4-4.1L80.6,809.5z"/>
					<path d="M77.2,810.6l3.1,0.5L57.4,942.3l-3.1-0.5L77.2,810.6z"/>
					<path d="M84.4,810.2l3.1,0.5L62.7,953.1l-3.1-0.5L84.4,810.2z"/>
				</g>
				<g id="Accent_Whistling-Birds_Attachment_Heavy_Gauntlet_Right_M">
					<path d="M106.1,801.8l8.5,1.5L87.7,957.5l-8.5-1.5L106.1,801.8z"/>
					<path d="M54,951.6l33.7,5.9l-1.6,9.5l-33.7-5.9L54,951.6z"/>
					<path d="M91.6,801.7l14.1,2.5l-3.9,22.1l-14.1-2.5L91.6,801.7z"/>
					<path d="M91.1,824.4l10.7,1.9l-9.2,52.6l-7.3-21.6L91.1,824.4z"/>
				</g>
			</g>
			<g id="Flamethrower_Attachment_Heavy_Gauntlet_Right_M_Option">
				<g id="Tubes_Flamethrower_Attachment_Heavy_Gauntlet_Right_M">
					<path d="M96.9,816.5l8.7,1.5l-46.2,265.3l-8.7-1.5L96.9,816.5z"/>
					<path d="M77,813l8.7,1.5l-33.1,190.2l-8.7-1.5L77,813z"/>
					<path d="M91.3,832.6l13.1,2.3l-11,63.2l-13.1-2.3L91.3,832.6z"/>
					<path d="M72.4,829.3l12,2.1l-11,63.2l-12-2.1L72.4,829.3z"/>
				</g>
				<g id="Main_Flamethrower_Attachment_Heavy_Gauntlet_Right_M">
					<path d="M74,808.3l35.8,6.2l-3.6,20.7L70.4,829L74,808.3z"/>
					<path d="M58.5,892l37.4,6.5l-1.8,10.1l-37.4-6.5L58.5,892z"/>
					<path d="M58.3,902.4l34.3,6l-0.9,5.1l-34.3-6L58.3,902.4z"/>
					<path d="M93.3,891.6l5.8,1.2l-5.4,30.9l-5.8-1.2L93.3,891.6z"/>
				</g>
				<g id="Accent_Flamethrower_Attachment_Heavy_Gauntlet_Right_M">
					<path d="M43.6,1003.1l9.3,1.6l-0.8,13.3l-12.2-2.1L43.6,1003.1z"/>
					<path d="M51.7,934.9l16.5,2.9l-3.5,20.1l-16.5-2.9L51.7,934.9z"/>
					<path d="M50.5,955.5l12,2.1L59,977.7l-12-2.1L50.5,955.5z"/>
					<path d="M55,1048l12,2.1l-4.8,27.6l-12-2.1L55,1048z"/>
					<path d="M70.5,958.9l12,2.1l-6.5,37.5l-12-2.1L70.5,958.9z"/>
					<path d="M50.3,1061.4l16.5,2.9l-0.9,5.4l-16.5-2.9L50.3,1061.4z"/>
				</g>
				<path id="Base_Flamethrower_Attachment_Heavy_Gauntlet_Right_M" d="M99,892.8l14.8-83.7l-10.7,2.2L78.2,952.8
					l9.2,6.3l6.2-35.4l-5.8-1.2l5.4-30.9L99,892.8z"/>
			</g>
			<g id="Missle_Attachment_Heavy_Gauntlet_Right_M_Option">
				<g id="Head_Missle_Attachment_Heavy_Gauntlet_Right_M">
					<path d="M56.4,1005.7l27.9-43.4l-39.3-8L56.4,1005.7z"/>
					<path d="M70.3,963.9c-0.9-0.2-1.9,1.6-2.3,3.8c-0.4,2.3,0,4.3,0.8,4.5c0.9,0.2,1.9-1.5,2.3-3.8
						C71.5,966.1,71.2,964,70.3,963.9z"/>
					<path d="M66.9,975.9c-0.7-0.1-1.5,1.2-1.8,3.1c-0.3,1.8,0,3.5,0.7,3.6c0.7,0.1,1.5-1.2,1.8-3.1
						C67.9,977.7,67.6,976.1,66.9,975.9z"/>
					<path d="M64.5,987.1c-0.6-0.1-1.4,1.1-1.7,2.8s0,3.2,0.6,3.3c0.6,0.1,1.4-1.1,1.7-2.8
						C65.4,988.7,65.1,987.3,64.5,987.1z"/>
					<path d="M76.7,965.2c-0.9-0.2-1.9,1.5-2.3,3.8c-0.4,2.3,0,4.3,0.8,4.5c0.9,0.2,1.9-1.5,2.3-3.8
						C77.9,967.3,77.5,965.3,76.7,965.2z"/>
					<path d="M51.2,960c-0.9-0.2-1.9,1.6-2.3,3.9c-0.4,2.3,0,4.3,0.8,4.5c0.9,0.2,1.9-1.6,2.3-3.9
						C52.4,962.2,52.1,960.2,51.2,960z"/>
					<path d="M57.6,961.3c-0.9-0.2-1.9,1.5-2.3,3.8c-0.4,2.3,0,4.3,0.8,4.5c0.9,0.2,1.9-1.5,2.3-3.8
						C58.8,963.5,58.4,961.5,57.6,961.3z"/>
					<path d="M56.7,973.9c-0.7-0.1-1.5,1.2-1.8,3.1c-0.3,1.8,0,3.5,0.7,3.6c0.7,0.1,1.5-1.2,1.8-3.1
						C57.7,975.6,57.4,974,56.7,973.9z"/>
					<path d="M55.1,985.2c-0.6-0.1-1.4,1.1-1.7,2.8c-0.3,1.7,0,3.2,0.6,3.3c0.6,0.1,1.4-1.1,1.7-2.8
						C56,986.8,55.8,985.3,55.1,985.2z"/>
					<path d="M63.9,962.6c-0.9-0.2-1.9,1.5-2.3,3.8c-0.4,2.3,0,4.3,0.8,4.5c0.9,0.2,1.9-1.5,2.3-3.8
						C65.2,964.8,64.8,962.7,63.9,962.6z"/>
					<path d="M61.8,974.9c-0.7-0.1-1.5,1.2-1.8,3.1c-0.3,1.8,0,3.5,0.7,3.6c0.7,0.1,1.5-1.2,1.8-3.1
						C62.8,976.7,62.5,975,61.8,974.9z"/>
					<path d="M59.8,986.2c-0.6-0.1-1.4,1.1-1.7,2.8c-0.3,1.7,0,3.2,0.6,3.3c0.6,0.1,1.4-1.1,1.7-2.8
						S60.4,986.3,59.8,986.2z"/>
					<path d="M50.6,979.5c0.6-0.1,1.4-1.4,1.7-3.1c0.3-1.8,0-3.5-0.7-3.6c-0.7-0.1-1.5,1.2-1.8,3L50.6,979.5z
						 M72.7,980.5c0.3-1.8,0-3.4-0.7-3.5c-0.7-0.1-1.5,1.2-1.8,3.1c-0.3,1.7-0.1,3.2,0.5,3.5L72.7,980.5z"/>
				</g>
				<g id="Main_Missle_Attachment_Heavy_Gauntlet_Right_M">
					<path d="M51,948.8l29.7,6.1l-1.1,6.5l-29.7-6.1L51,948.8z"/>
					<path d="M75.1,810.5l29.7,6.1l-1.1,6.5L74,817.1L75.1,810.5z"/>
					<path d="M85.5,787.7l17.5,3.6l-1.1,6.5l-17.5-3.6L85.5,787.7z"/>
					<path d="M76.8,792.7l32.6,6.6l-3.1,17.5l-32.6-6.6L76.8,792.7z"/>
					<path d="M71.3,816.5l35.1,7.2l-23,131.7l-35.1-7.2L71.3,816.5z"/>
					<path d="M93,893.1l5.8,1.2l-5.4,30.9l-5.8-1.2L93,893.1z"/>
				</g>
				<g id="Accent_Missle_Attachment_Heavy_Gauntlet_Right_M">
					<path d="M54.9,1014.1l5.7-11.1l-7.3-1.5L54.9,1014.1z"/>
					<path d="M54.6,998.7l5.9,1.2l0.2,3.1l-7.3-1.5L54.6,998.7z"/>
					<path d="M85.1,778.1l21.5,4.4l-1.6,9.1l-21.5-4.4L85.1,778.1z"/>
					<path d="M89.5,774.1l14.3,2.9l2.8,5.5l-21.5-4.4L89.5,774.1z"/>
					<path d="M81.8,818.7l6,1.2l-23,131.7l-6-1.2L81.8,818.7z"/>
					<path d="M89.9,820.3l6,1.2l-23,131.7l-6-1.2L89.9,820.3z"/>
					<path d="M68.3,819.4l3-2.9l-23,131.7l-1.8-3.9L68.3,819.4z"/>
					<path d="M73.7,817l6,1.2L56.7,950l-6-1.2L73.7,817z"/>
					<path d="M98,822l3.7,0.7l-23,131.7l-3.7-0.7L98,822z"/>
				</g>
				<path id="Base_Missle_Attachment_Heavy_Gauntlet_Right_M" d="M102.7,812.7l10.7-2.2l-26.2,150l-9.2-6.2L102.7,812.7
					z M93,893.1l5.8,1.2l-5.4,30.9l-5.8-1.2L93,893.1z"/>
			</g>
			<g id="No-Device_Attachment_Heavy_Gauntlet_Right_M_Option">
			</g>
		</g>
		<g id="Gunslinger_Gauntlet_Right_M_Option">
			<g id="Accent-Top_Gunslinger_Gauntlet_Right_M">
				<path d="M120.3,824.1l-6.6,59.9l30.2,8.4l7-56.8L120.3,824.1z"/>
				<path d="M134.6,1046.2l-6,30.6l26.6,5.7l6.3-30.5L134.6,1046.2z"/>
			</g>
			<path id="Top_Gunslinger_Gauntlet_Right_M" d="M120.3,824.1l-13.7-5.2l-24.3,280.7l66.5,14.1l9-43.6l-2.6,12.3
				l-26.6-5.7l6-30.6l26.9,5.8l40.8-196.9L120.3,824.1l30.6,11.6l-7,56.8l-30.2-8.4L120.3,824.1z"/>
			<g id="Accent-Bottom_Gunslinger_Gauntlet_Right_M">
				<path d="M240.6,945.9l7.9-24.5l17.2,5.5l-7.9,24.5L240.6,945.9z"/>
				<path d="M231.6,973.8l7.9-24.5l17.2,5.5l-7.9,24.5L231.6,973.8z"/>
				<path d="M161.5,1052l59.4,12.8l-9.6,29.8l-56.2-12.1L161.5,1052z"/>
			</g>
			<path id="Bottom_Gunslinger_Gauntlet_Right_M" d="M156.1,1078.1l5.4-26.1l59.4,12.8l-9.6,29.8l-56.2-12.1l-6.5,31.2
				c0,0,20.9,3.7,36.5,6.4c9.8,1.7,19.3-4,22.4-13.5c16.7-51.6,66.8-206.8,66.8-206.8l-73-40.7L156.1,1078.1z M231.6,973.8l7.9-24.5
				l17.2,5.5l-7.9,24.5L231.6,973.8z M240.6,945.9l7.9-24.5l17.2,5.5l-7.9,24.5L240.6,945.9z"/>
			<g id="Whistling-Birds_Attachment_Gunslinger_Gauntlet_Right_M_Option">
				<path id="Head_Whistling-Birds_Attachment_Gunslinger_Gauntlet_Right_M" d="M59.3,988.3l27.7,56.8l4.7-54
					L59.3,988.3z"/>
				<g id="Birds_Whistling-Birds_Attachment_Gunslinger_Gauntlet_Right_M">
					<g>
						<path d="M86,994.5c-1.3-0.1-2.5,2.6-2.8,5.9c-0.3,3.4,0.5,6.2,1.8,6.4c1.3,0.1,2.5-2.6,2.8-6
							C88.1,997.5,87.3,994.6,86,994.5z"/>
						<path d="M84.5,1011.8c-1.3-0.1-2.5,2.5-2.8,6c-0.3,3.4,0.5,6.2,1.8,6.3c1.3,0.1,2.5-2.6,2.8-6
							C86.6,1014.7,85.8,1011.9,84.5,1011.8z"/>
						<path d="M77.3,993.8c-1.3-0.1-2.5,2.6-2.8,5.9c-0.3,3.4,0.5,6.2,1.8,6.3s2.5-2.6,2.8-6
							C79.3,996.7,78.5,993.9,77.3,993.8z"/>
						<path d="M84,1039c0.4-1,0.7-2.3,0.8-3.7c0.3-3.4-0.5-6.2-1.8-6.3c-0.9-0.1-1.8,1.2-2.3,3.2L84,1039z M76,1022.5
							c0.7-1,1.4-2.9,1.5-5.1c0.3-3.4-0.5-6.2-1.8-6.4c-1.2-0.1-2.4,2.3-2.8,5.4L76,1022.5z M67.6,1005.3c1.2-0.2,2.4-2.7,2.6-5.9
							c0.3-3.4-0.5-6.2-1.8-6.3c-1.3-0.1-2.5,2.6-2.8,5.9c-0.1,0.8-0.1,1.5,0,2.2L67.6,1005.3z"/>
					</g>
				</g>
				<g id="Base_Whistling-Birds_Attachment_Gunslinger_Gauntlet_Right_M">
					<path d="M75.4,825.3l21.7,1.9l-0.8,9.6l-21.7-1.9L75.4,825.3z"/>
					<path d="M72.6,834.7l23.7,2L83,990.3l-23.7-2L72.6,834.7z"/>
					<path d="M69.3,836.1l3.1,0.3L61,969l-3.1-0.3L69.3,836.1z"/>
					<path d="M76.5,835l3.1,0.3l-12.4,144L64,979L76.5,835z"/>
				</g>
				<g id="Accent_Whistling-Birds_Attachment_Gunslinger_Gauntlet_Right_M">
					<path d="M97.3,824.8l8.6,0.7L92.5,981.5l-8.6-0.7L97.3,824.8z"/>
					<path d="M58.4,978.5l34.1,2.9l-0.8,9.6l-34.1-2.9L58.4,978.5z"/>
					<path d="M82.9,826l14.2,1.2l-1.9,22.4l-14.2-1.2L82.9,826z"/>
					<path d="M84.3,848.6l10.9,0.9l-4.6,53.2l-9.1-20.9L84.3,848.6z"/>
				</g>
			</g>
			<g id="Flamethrower_Attachment_Gunslinger_Gauntlet_Right_M_Option">
				<g id="Tubes_Flamethrower_Attachment_Gunslinger_Gauntlet_Right_M">
					<path d="M90,835.3l8.8,0.7l-22.3,268.4l-8.8-0.7L90,835.3z"/>
					<path d="M69.8,833.7l8.8,0.7l-16,192.4l-8.8-0.7L69.8,833.7z"/>
					<path d="M86.9,852l12.1,1L93.7,917l-12.1-1L86.9,852z"/>
					<path d="M66.7,850.4l12.1,1l-5.3,63.9l-12.1-1L66.7,850.4z"/>
				</g>
				<g id="Main_Flamethrower_Attachment_Gunslinger_Gauntlet_Right_M">
					<path d="M66,833.4l36.2,3l-1.4,16.8l-36.2-3L66,833.4z"/>
					<path d="M58.5,914l37.9,3.1l-0.8,10.2l-37.9-3.1L58.5,914z"/>
					<path d="M59.2,924.4l34.7,2.9l-0.4,5.2l-34.7-2.9L59.2,924.4z"/>
					<path d="M93,910.5l5.8,0.7l-2.7,31.2l-5.8-0.7L93,910.5z"/>
				</g>
				<g id="Accent_Flamethrower_Attachment_Gunslinger_Gauntlet_Right_M">
					<path d="M53.5,1026.1l9.4,0.8l0.4,13.3l-12.4-1L53.5,1026.1z"/>
					<path d="M55.5,957.4l16.7,1.4l-1.7,20.3l-16.7-1.4L55.5,957.4z"/>
					<path d="M56.1,977.9l12.1,1l-1.7,20.3l-12.1-1L56.1,977.9z"/>
					<path d="M68.8,1069.7l12.1,1l-2.3,27.9l-12.1-1L68.8,1069.7z"/>
					<path d="M76.3,979.6l12.1,1l-3.2,38l-12.1-1L76.3,979.6z"/>
					<path d="M65.4,1083.4l16.7,1.4l-0.4,5.4l-16.7-1.4L65.4,1083.4z"/>
				</g>
				<path id="Base_Flamethrower_Attachment_Gunslinger_Gauntlet_Right_M" d="M98.9,911.2l7.2-84.7l-10.4,3.1L83.5,972.8
					l9.7,5.4l3-35.8l-5.8-0.7l2.7-31.2L98.9,911.2z"/>
			</g>
			<g id="Missle_Attachment_Gunslinger_Gauntlet_Right_M_Option">
				<g id="Head_Missle_Attachment_Gunslinger_Gauntlet_Right_M">
					<path d="M66.2,1027.6l24-45.6l-39.9-4.5L66.2,1027.6z"/>
					<path d="M76.4,984.7c-0.9-0.1-1.7,1.7-1.9,4c-0.2,2.3,0.3,4.3,1.2,4.4c0.9,0.1,1.7-1.7,1.9-4
						C77.8,986.7,77.3,984.8,76.4,984.7z"/>
					<path d="M74,997c-0.7-0.1-1.4,1.4-1.6,3.2c-0.2,1.9,0.3,3.4,1,3.5c0.7,0.1,1.4-1.4,1.6-3.2
						C75.2,998.7,74.7,997.1,74,997z"/>
					<path d="M72.7,1008.3c-0.6-0.1-1.3,1.3-1.4,3c-0.1,1.7,0.3,3.2,0.9,3.2c0.6,0.1,1.3-1.3,1.4-3
						C73.7,1009.9,73.3,1008.4,72.7,1008.3z"/>
					<path d="M82.9,985.4c-0.9-0.1-1.7,1.7-1.9,4c-0.2,2.3,0.3,4.3,1.2,4.4c0.9,0.1,1.7-1.7,1.9-4
						C84.3,987.5,83.7,985.5,82.9,985.4z"/>
					<path d="M57,982.5c-0.9-0.1-1.7,1.7-1.9,4c-0.2,2.3,0.3,4.3,1.2,4.4c0.9,0.1,1.7-1.7,1.9-4
						C58.4,984.5,57.9,982.6,57,982.5z"/>
					<path d="M63.5,983.2c-0.9-0.1-1.7,1.7-1.9,4c-0.2,2.3,0.3,4.3,1.2,4.4c0.9,0.1,1.7-1.7,1.9-4
						C64.9,985.3,64.4,983.3,63.5,983.2z"/>
					<path d="M63.7,995.8c-0.7-0.1-1.4,1.4-1.6,3.2c-0.2,1.9,0.3,3.4,1,3.5c0.7,0.1,1.4-1.4,1.6-3.2
						C64.8,997.5,64.4,995.9,63.7,995.8z"/>
					<path d="M63.2,1007.3c-0.6-0.1-1.3,1.3-1.4,3c-0.1,1.7,0.3,3.2,0.9,3.2c0.6,0.1,1.3-1.3,1.4-3
						C64.2,1008.8,63.8,1007.3,63.2,1007.3z"/>
					<path d="M69.9,983.9c-0.9-0.1-1.7,1.7-1.9,4c-0.2,2.3,0.3,4.3,1.2,4.4c0.9,0.1,1.7-1.7,1.9-4
						C71.4,986,70.8,984,69.9,983.9z"/>
					<path d="M68.9,996.4c-0.7-0.1-1.4,1.4-1.6,3.2c-0.2,1.9,0.3,3.4,1,3.5c0.7,0.1,1.4-1.4,1.6-3.2
						C70,998.1,69.6,996.5,68.9,996.4z"/>
					<path d="M67.9,1007.8c-0.6-0.1-1.3,1.3-1.4,3c-0.1,1.7,0.3,3.2,0.9,3.2c0.6,0.1,1.3-1.3,1.4-3
						C68.9,1009.3,68.5,1007.9,67.9,1007.8z"/>
					<path d="M58.1,1002c0.6-0.1,1.2-1.5,1.4-3.2c0.2-1.9-0.3-3.4-1-3.5c-0.7-0.1-1.4,1.3-1.5,3.1L58.1,1002z
						 M80.2,1001c0.1-1.8-0.3-3.4-1-3.4c-0.7-0.1-1.4,1.4-1.6,3.2c-0.1,1.7,0.2,3.2,0.8,3.5L80.2,1001z"/>
				</g>
				<g id="Main_Missle_Attachment_Gunslinger_Gauntlet_Right_M">
					<path d="M55.8,971.3l30.2,3.4l-0.6,6.6L55.2,978L55.8,971.3z"/>
					<path d="M67.7,831.5l30.2,3.4l-0.6,6.6l-30.2-3.4L67.7,831.5z"/>
					<path d="M76,807.8l17.8,2l-0.6,6.6l-17.8-2L76,807.8z"/>
					<path d="M67.8,813.6l33.1,3.7l-1.5,17.7l-33.1-3.7L67.8,813.6z"/>
					<path d="M64.4,837.8l35.6,4L88.7,975.1l-35.6-4L64.4,837.8z"/>
					<path d="M92.8,912.2l5.8,0.7l-2.7,31.2l-5.8-0.7L92.8,912.2z"/>
				</g>
				<g id="Accent_Missle_Attachment_Gunslinger_Gauntlet_Right_M">
					<path d="M65.5,1036.1l4.7-11.6l-7.4-0.8L65.5,1036.1z"/>
					<path d="M63.8,1020.8l6,0.7l0.5,3.1l-7.4-0.8L63.8,1020.8z"/>
					<path d="M74.8,798.3l21.8,2.5l-0.8,9.2L74,807.6L74.8,798.3z"/>
					<path d="M78.9,793.9l14.5,1.6l3.2,5.3l-21.8-2.5L78.9,793.9z"/>
					<path d="M75.1,839l6.1,0.7L69.8,972.9l-6.1-0.7L75.1,839z"/>
					<path d="M83.3,839.9l6.1,0.7L78,973.9l-6.1-0.7L83.3,839.9z"/>
					<path d="M61.7,840.9l2.7-3.1L53,971l-2.1-3.7L61.7,840.9z"/>
					<path d="M66.9,838.1l6.1,0.7L61.6,972l-6.1-0.7L66.9,838.1z"/>
					<path d="M91.5,840.9l3.7,0.4L83.9,974.5l-3.7-0.4L91.5,840.9z"/>
				</g>
				<path id="Base_Missle_Attachment_Gunslinger_Gauntlet_Right_M" d="M95.4,831.3l10.4-3.1l-13,151.7l-9.7-5.4
					L95.4,831.3z M92.8,912.2l5.8,0.7l-2.7,31.2l-5.8-0.7L92.8,912.2z"/>
			</g>
			<g id="No-Device_Attachment_Gunslinger_Gauntlet_Right_M_Option">
			</g>
		</g>
		<g id="Basic_Gauntlet_Right_M_Option">
			<path id="Top-2_Basic_Gauntlet_Right_M" d="M62.4,1120L48,1096.8l41.3-195.3l6.9,23.6l-19.6,89l7.7,22.1L62.4,1120z"
				/>
			<path id="Top-1_Basic_Gauntlet_Right_M" d="M89.2,901.5l6.9,23.6l-19.6,89l7.7,22.1L62.4,1120l9.5,15.3l-5,54.3
				l16.7,4.3l22.5-81.7l15.5-5.7l71.4-239.3l-94.5-9.9L89.2,901.5z"/>
			<g id="Accent-Bottom_Basic_Gauntlet_Right_M">
				<path d="M229,939.1l20.9,6.9l-10.3,31.1l-20.9-6.9L229,939.1z"/>
				<path d="M211.3,993.6l20.9,6.9l-10.3,31.1l-20.9-6.9L211.3,993.6z"/>
				<path d="M192.8,1049.3l20.9,6.9l-10.3,31.1l-20.9-6.9L192.8,1049.3z"/>
			</g>
			<path id="Bottom_Basic_Gauntlet_Right_M" d="M249.8,945.9l7.7-23.7l-65.6-51.1l-70.3,235.4l71.4,13.1l28.7-88
				l-20.8-6.9l10.3-31.1l20.7,6.8l7.6-23.3l-20.8-6.9l10.3-31.1L249.8,945.9z M192.8,1049.3l21,6.9l-10.2,31.1l-21.1-7L192.8,1049.3
				z"/>
			<g id="Whistling-Birds_Attachment_Basic_Gauntlet_Right_M_Option">
				<path id="Head_Whistling-Birds_Attachment_Basic_Gauntlet_Right_M" d="M31.9,1014.3l20.5,59.8l11.2-53L31.9,1014.3z
					"/>
				<g id="Birds_Whistling-Birds_Attachment_Basic_Gauntlet_Right_M">
					<g>
						<path d="M57.6,1023.8c-1.2-0.3-2.8,2.2-3.5,5.5c-0.7,3.3-0.3,6.3,1,6.5c1.2,0.3,2.8-2.2,3.5-5.6
							C59.3,1027,58.9,1024.1,57.6,1023.8z"/>
						<path d="M54,1040.7c-1.2-0.3-2.8,2.2-3.5,5.6c-0.7,3.3-0.3,6.3,1,6.5c1.2,0.3,2.8-2.2,3.5-5.6
							C55.7,1043.9,55.3,1041,54,1040.7z"/>
						<path d="M49,1022c-1.2-0.3-2.8,2.2-3.5,5.6c-0.7,3.3-0.3,6.3,1,6.5c1.2,0.3,2.8-2.2,3.5-5.5
							C50.7,1025.2,50.3,1022.3,49,1022z"/>
						<path d="M50.2,1067.7c0.5-1,0.9-2.2,1.2-3.5c0.7-3.3,0.3-6.3-1-6.5c-0.9-0.2-1.9,1-2.7,2.9L50.2,1067.7z
							 M44.3,1050.3c0.9-0.9,1.7-2.7,2.2-4.9c0.7-3.3,0.3-6.3-1-6.5c-1.2-0.3-2.6,1.9-3.4,5L44.3,1050.3z M38.1,1032.3
							c1.2,0,2.7-2.4,3.3-5.6c0.7-3.3,0.3-6.2-1-6.5c-1.2-0.3-2.8,2.2-3.5,5.5c-0.2,0.8-0.3,1.5-0.3,2.2L38.1,1032.3z"/>
					</g>
				</g>
				<g id="Base_Whistling-Birds_Attachment_Basic_Gauntlet_Right_M">
					<path d="M67.8,854.6l21.3,4.5l-2,9.4L65.8,864L67.8,854.6z"/>
					<path d="M63.8,863.6l23.3,4.9l-31.9,150.8l-23.3-4.9L63.8,863.6z"/>
					<path d="M60.4,864.5l3.1,0.6L35.9,995.4l-3.1-0.6L60.4,864.5z"/>
					<path d="M67.6,864.4l3.1,0.6l-29.9,141.4l-3.1-0.6L67.6,864.4z"/>
				</g>
				<g id="Accent_Whistling-Birds_Attachment_Basic_Gauntlet_Right_M">
					<path d="M89.6,856.8l8.5,1.8l-32.4,153.1l-8.5-1.8L89.6,856.8z"/>
					<path d="M32.2,1004.6l33.5,7.1l-2,9.4l-33.5-7.1L32.2,1004.6z"/>
					<path d="M75.1,856.1l14,3l-4.7,22l-14-3L75.1,856.1z"/>
					<path d="M73.8,878.8l10.7,2.3l-11.1,52.2l-6.5-21.8L73.8,878.8z"/>
				</g>
			</g>
			<g id="Flamethrower_Attachment_Basic_Gauntlet_Right_M_Option">
				<g id="Tubes_Flamethrower_Attachment_Basic_Gauntlet_Right_M">
					<path d="M81,866.3l8.7,1.8l-54.9,263.7l-8.7-1.8L81,866.3z"/>
					<path d="M61.2,862.2l8.7,1.8l-39.4,189l-8.7-1.8L61.2,862.2z"/>
					<path d="M75.9,882.5l11.9,2.5l-13.1,62.8l-11.9-2.5L75.9,882.5z"/>
					<path d="M56.1,878.4l11.9,2.5l-13.1,62.8L43,941.2L56.1,878.4z"/>
				</g>
				<g id="Main_Flamethrower_Attachment_Basic_Gauntlet_Right_M">
					<path d="M57.5,861.4l35.6,7.4l-3.4,16.5L54,877.9L57.5,861.4z"/>
					<path d="M40.1,940.6l37.2,7.7l-2.1,10L38,950.6L40.1,940.6z"/>
					<path d="M39.6,950.9l34.1,7.1l-1.1,5.1L38.5,956L39.6,950.9z"/>
					<path d="M74.8,941.3l5.7,1.4l-6.5,30.7l-5.7-1.4L74.8,941.3z"/>
				</g>
				<g id="Accent_Flamethrower_Attachment_Basic_Gauntlet_Right_M">
					<path d="M21.5,1051.1l9.3,1.9l-1.2,13.2l-12.1-2.5L21.5,1051.1z"/>
					<path d="M31.9,983.2l16.4,3.4l-4.2,20l-16.4-3.4L31.9,983.2z"/>
					<path d="M30,1003.7l11.9,2.5l-4.2,20l-11.9-2.5L30,1003.7z"/>
					<path d="M31.4,1096.3l11.9,2.5l-5.7,27.4l-11.9-2.5L31.4,1096.3z"/>
					<path d="M49.8,1007.8l11.9,2.5l-7.8,37.3l-11.9-2.5L49.8,1007.8z"/>
					<path d="M26.3,1109.6l16.4,3.4l-1.1,5.3l-16.4-3.4L26.3,1109.6z"/>
				</g>
				<path id="Base_Flamethrower_Attachment_Basic_Gauntlet_Right_M" d="M80.6,942.7l17.5-83.2l-10.7,1.8l-29.6,140.6
					l9,6.5l7.4-35.2l-5.7-1.4l6.5-30.7L80.6,942.7z"/>
			</g>
			<g id="Missle_Attachment_Basic_Gauntlet_Right_M_Option">
				<g id="Head_Missle_Attachment_Basic_Gauntlet_Right_M">
					<path d="M33.9,1054.2l29.4-42.4l-39-9.4L33.9,1054.2z"/>
					<path d="M49.3,1012.9c-0.9-0.2-1.9,1.5-2.4,3.8c-0.5,2.3-0.2,4.3,0.7,4.5c0.9,0.2,1.9-1.5,2.4-3.8
						C50.4,1015.1,50.1,1013.1,49.3,1012.9z"/>
					<path d="M45.4,1024.8c-0.7-0.2-1.6,1.2-1.9,3c-0.4,1.8-0.1,3.5,0.5,3.6c0.7,0.2,1.6-1.2,1.9-3
						C46.4,1026.6,46.1,1025,45.4,1024.8z"/>
					<path d="M42.7,1035.9c-0.6-0.2-1.4,1.1-1.8,2.8c-0.4,1.7-0.1,3.2,0.5,3.3c0.6,0.2,1.4-1.1,1.8-2.8
						C43.5,1037.5,43.3,1036.1,42.7,1035.9z"/>
					<path d="M55.6,1014.4c-0.9-0.2-1.9,1.5-2.4,3.8c-0.5,2.3-0.2,4.3,0.7,4.5c0.9,0.2,1.9-1.5,2.4-3.8
						C56.8,1016.6,56.5,1014.6,55.6,1014.4z"/>
					<path d="M30.3,1008.3c-0.9-0.2-1.9,1.5-2.4,3.8c-0.5,2.3-0.2,4.3,0.7,4.5c0.9,0.2,1.9-1.5,2.4-3.8
						C31.5,1010.5,31.2,1008.5,30.3,1008.3z"/>
					<path d="M36.6,1009.8c-0.9-0.2-1.9,1.5-2.4,3.8c-0.5,2.3-0.2,4.3,0.7,4.5c0.9,0.2,1.9-1.5,2.4-3.8
						C37.8,1012,37.5,1010,36.6,1009.8z"/>
					<path d="M35.3,1022.4c-0.7-0.2-1.6,1.2-1.9,3c-0.4,1.8-0.1,3.4,0.5,3.6c0.7,0.2,1.6-1.2,1.9-3
						C36.2,1024.2,36,1022.5,35.3,1022.4z"/>
					<path d="M33.4,1033.7c-0.6-0.2-1.4,1.1-1.8,2.8c-0.4,1.7-0.1,3.2,0.5,3.3c0.6,0.2,1.4-1.1,1.8-2.8
						C34.2,1035.3,34,1033.8,33.4,1033.7z"/>
					<path d="M43,1011.3c-0.9-0.2-1.9,1.5-2.4,3.8c-0.5,2.3-0.2,4.3,0.7,4.5c0.9,0.2,1.9-1.5,2.4-3.8
						C44.1,1013.6,43.8,1011.5,43,1011.3z"/>
					<path d="M40.4,1023.6c-0.7-0.2-1.6,1.2-1.9,3c-0.4,1.8-0.1,3.5,0.5,3.6c0.7,0.2,1.6-1.2,1.9-3
						C41.3,1025.4,41.1,1023.8,40.4,1023.6z"/>
					<path d="M38,1034.8c-0.6-0.2-1.4,1.1-1.8,2.8c-0.4,1.7-0.1,3.2,0.5,3.3c0.6,0.2,1.4-1.1,1.8-2.8
						C38.9,1036.4,38.7,1034.9,38,1034.8z"/>
					<path d="M29,1027.8c0.7-0.1,1.4-1.4,1.8-3c0.4-1.8,0.1-3.5-0.5-3.6c-0.7-0.2-1.5,1.1-1.9,2.9L29,1027.8z
						 M51.1,1029.5c0.4-1.8,0.1-3.4-0.6-3.5c-0.7-0.2-1.6,1.2-1.9,3c-0.4,1.7-0.2,3.2,0.4,3.5L51.1,1029.5z"/>
				</g>
				<g id="Main_Missle_Attachment_Basic_Gauntlet_Right_M">
					<path d="M30.5,997.1l29.5,7.1l-1.4,6.5l-29.5-7.1L30.5,997.1z"/>
					<path d="M59.4,859.8l29.5,7.1l-1.4,6.5L58,866.3L59.4,859.8z"/>
					<path d="M70.5,837.3l17.4,4.2l-1.4,6.5l-17.4-4.2L70.5,837.3z"/>
					<path d="M61.7,842l32.4,7.8l-3.7,17.4L58,859.4L61.7,842z"/>
					<path d="M55.4,865.6l34.9,8.4l-27.6,130.9l-34.9-8.4L55.4,865.6z"/>
					<path d="M74.4,942.9l5.7,1.4l-6.5,30.7l-5.7-1.4L74.4,942.9z"/>
				</g>
				<g id="Accent_Missle_Attachment_Basic_Gauntlet_Right_M">
					<path d="M32.2,1062.5l6.1-10.9l-7.3-1.7L32.2,1062.5z"/>
					<path d="M32.4,1047.2l5.8,1.4l0.1,3.1l-7.3-1.7L32.4,1047.2z"/>
					<path d="M70.5,827.7l21.3,5.1l-1.9,9.1l-21.3-5.1L70.5,827.7z"/>
					<path d="M75,823.8l14.2,3.4l2.6,5.6l-21.3-5.1L75,823.8z"/>
					<path d="M65.8,868.1l5.9,1.4l-27.6,130.8l-5.9-1.4L65.8,868.1z"/>
					<path d="M73.8,870.1l5.9,1.4l-27.6,130.8l-5.9-1.4L73.8,870.1z"/>
					<path d="M52.3,868.4l3.1-2.8L27.7,996.5l-1.6-3.9L52.3,868.4z"/>
					<path d="M57.8,866.2l5.9,1.4L36.1,998.5l-5.9-1.4L57.8,866.2z"/>
					<path d="M81.9,872l3.7,0.9L58,1003.7l-3.7-0.9L81.9,872z"/>
				</g>
				<path id="Base_Missle_Attachment_Basic_Gauntlet_Right_M" d="M86.9,862.9l10.7-1.8l-31.4,149l-9-6.6L86.9,862.9z
					 M74.4,942.9l5.7,1.4l-6.5,30.7l-5.7-1.4L74.4,942.9z"/>
			</g>
			<g id="No-Device_Attachment_Basic_Gauntlet_Right_M_Option">
			</g>
		</g>
	</g>
</g>
</svg>
