<?xml version="1.0" encoding="utf-8"?>
<!-- Generator: Adobe Illustrator 25.0.0, SVG Export Plug-In . SVG Version: 6.00 Build 0)  -->
<svg version="1.1" id="Layer_1" xmlns:serif="http://www.serif.com/"
	 xmlns="http://www.w3.org/2000/svg" xmlns:xlink="http://www.w3.org/1999/xlink" x="0px" y="0px" viewBox="0 0 1400 1400"
	 style="enable-background:new 0 0 1400 1400;" xml:space="preserve">
<g id="Biceps_F_ToggleOff">
	<g id="Left-Biceps_F">
		<g id="Basic_Bicep_Left_F_Option">
			<path class="st0" d="M1089.5,412.7l-94.7,34.7c-2,18.9-4.5,37.9-7.6,53.8c-2.8,14.5-8.3,36.3-15.3,61.8v0l20.9,59.7
				c2.4,7.2,9.7,10.9,16.4,8.5c33.5-12.2,127.9-46.5,162.1-59c3.3-1.2,6-3.8,7.6-7.2c1.5-3.4,1.7-7.3,0.5-10.9L1140,437.5l-8.3,3.6
				L1089.5,412.7z"/>
			<path class="st1" d="M988.4,609.5l186.5-68.9"/>
			<ellipse class="st0" cx="1135.5" cy="517.2" rx="18.3" ry="19"/>
		</g>
		<g id="None_Bicep_Left_F_Option">
		</g>
	</g>
	<g id="Right-Biceps_F">
		<g id="Basic_Bicep_Right_F_Option">
			<path class="st0" d="M310.3,412.7l94.7,34.7c2,18.9,4.5,37.9,7.6,53.8c2.8,14.5,8.3,36.3,15.3,61.8v0L407,622.7
				c-2.4,7.2-9.7,10.9-16.4,8.5c-33.5-12.2-127.9-46.5-162.1-59c-3.3-1.2-6-3.8-7.6-7.2c-1.5-3.4-1.7-7.3-0.5-10.9l39.4-116.7
				l8.3,3.6L310.3,412.7z"/>
			<path class="st1" d="M411.5,609.5L225,540.7"/>
			<ellipse class="st0" cx="264.3" cy="517.2" rx="18.3" ry="19"/>
		</g>
		<g id="None_Bicep_Right_F_Option">
		</g>
	</g>
</g>
<g id="Chest_F">
	<g id="Chest_Classic_F">
		<g id="Abdomen_Classic_F">
			<path id="Abdomen-Plate_Classic_F" class="st0" d="M556.3,742.4c33.5,7,95.6,10.9,143.4,10.9c47.8,0,109.9-3.9,143.4-10.9
				c21.2-4.4,59.6-100.1,59.6-100.1l-55.6-38.3l-41.3-89.3l-106-26.1l-106,26.1l-41.3,89.3l-55.6,38.3
				C496.8,642.2,535.1,737.9,556.3,742.4"/>
			<path id="Trauma-Plate_Abdomen_Classic_F_ToggleOff" class="st0" d="M797.2,524.4l-97.4-24l-97.4,24l-39,84.2
				c-0.9,1.9-2.2,3.5-4,4.7l-48,33c6.1,14.5,19.6,45.1,33,66.5c3.6,5.7,7.1,10.7,10.5,14.4c1.5,1.6,4,3.6,4.4,3.9
				c33,6.8,93.7,10.5,140.5,10.5c46.8,0,107.5-3.7,140.5-10.5c0.5-0.3,2.9-2.3,4.4-3.9c3.4-3.7,6.9-8.7,10.5-14.4
				c13.4-21.4,26.8-51.9,33-66.5l-48-33c-1.7-1.2-3.1-2.8-4-4.7L797.2,524.4z"/>
		</g>
		<g id="Iron-Heart_Classic_F">
			<path id="Heart_Classic_F" class="st0" d="M671.4,383.8v-93.7l28.6-21.6l28.6,21.6v93.7L700,411.6L671.4,383.8z"/>
			<rect id="Center_Heart_Classic_F_Option" x="689.6" y="298.7" class="st0" width="20.8" height="82.7"/>
			<g id="None_Heart_Classic_F_Option">
			</g>
		</g>
		<g id="Left-Chest_Classic_F">
			<path id="Chest_Left_Classic_F" class="st0" d="M946.5,274.7c-39.4-38.3-223.9-39.5-223.9-39.5l-2.3,21.5l30.3,27.4l-2.3,115.6
				l-26.8,25v38.1l102.6,27.4l40.8,89.4l45.5,35.8c0,0,47.5-109.3,53.3-170.4C967.5,404.6,980.9,308.2,946.5,274.7"/>
			<path id="Trauma-Plating_Left-Chest_F_ToggleOff" class="st0" d="M733.5,247l-0.6,5.2l26,23.5c2.5,2.2,3.8,5.4,3.8,8.6
				l-2.3,115.6c-0.1,3-1.4,5.9-3.6,8.1l-23.2,21.6v24.5l93.8,25.1c3.5,0.9,6.3,3.3,7.8,6.5l39.7,86.9l30.6,24.1
				c12.8-31.2,42-106.1,46.3-152.6c2.2-23.8,8-67.4,4.8-105.6c-1.9-22.8-6.5-43.8-18.6-55.5c-10.7-10.4-33.4-17-59.7-22.2
				C825.7,250.1,759.2,247.6,733.5,247z"/>
		</g>
		<g id="Right-Chest_Classic_F">
			<path id="Chest_Right_Classic_F" class="st0" d="M453.5,274.7c39.4-38.3,223.9-39.5,223.9-39.5l2.3,21.5l-30.3,27.4l2.3,115.6
				l26.8,25v38.1l-102.6,27.4L535,579.7l-45.5,35.8c0,0-47.5-109.3-53.3-170.4C432.5,404.6,419.1,308.2,453.5,274.7"/>
			<path id="Trauma-Plating_Right-Chest_F_ToggleOff" class="st0" d="M666.5,247c-25.8,0.6-92.3,3.2-144.9,13.7
				c-26.2,5.2-49,11.9-59.7,22.2c-12.1,11.8-16.7,32.7-18.6,55.5c-3.1,38.2,2.6,81.8,4.8,105.6c4.4,46.4,33.5,121.3,46.3,152.6
				l30.6-24.1l39.7-86.9c1.4-3.2,4.3-5.6,7.8-6.5l93.8-25.1v-24.5L643.3,408c-2.3-2.1-3.6-5-3.6-8.1l-2.3-115.6
				c-0.1-3.3,1.3-6.4,3.8-8.6l26-23.5L666.5,247z"/>
		</g>
		<g id="Neck-Armor_Classic_F">
			<path id="Neck-Plate_Classic_F" class="st0" d="M700,218.2c-72.8,0-218.5-15.6-218.5-15.6l-22.5-59.3l102.9-26.5
				c0,0,13.6,19.8,23.5,26.8c10.1,7.2,23.7,15.6,36.4,20.3c13.9,5.2,30.8,8.7,46.9,10.9c18.1,2.5,44.6,2.5,62.7,0
				c16.1-2.3,34.8-5.7,48.7-10.9c12.7-4.8,24.5-13.2,34.6-20.3c9.9-7,23.5-26.8,23.5-26.8l102.9,26.5l-22.5,59.3
				C918.5,202.6,772.8,218.2,700,218.2z"/>
			<path id="Trauma-Plates_Neck_Classic_F_ToggleOff" class="st0" d="M687.7,206.5c-64.5-1.3-169-11.7-197.5-14.6l-15.5-40.7
				l82.2-21.1c5.4,7.1,14.3,17.9,21.4,22.9c10.9,7.7,25.5,16.7,39.1,21.8c14.7,5.5,32.5,9.2,49.6,11.6c6.2,0.9,13.3,1.5,20.8,1.8
				V206.5z M712.3,188.1c7.5-0.3,14.6-0.9,20.8-1.8c17-2.4,36.7-6.1,51.3-11.6c13.7-5.1,26.4-14.1,37.3-21.8
				c7.1-5,15.9-15.8,21.4-22.9l82.2,21.1l-15.5,40.7c-28.5,2.9-133,13.4-197.5,14.6V188.1z"/>
		</g>
	</g>
	<g id="Chest_Legacy_F">
		<g id="Abdomen_Legacy_F">
			<path id="Plate-4_Upper-Armor_Legacy_F" class="st1" d="M798.7,677.6l-13.3-12.4l-85.3-12.5l-85.3,12.5l-13.3,12.4
				l-160.8-25l5.5,69.7L700.6,762L954,722.4l5.5-69.7L798.7,677.6z"/>
			<path id="Plate-3_Upper-Armor_Legacy_F" class="st1" d="M802,615.5l-13.8-12.4l-88.1-12.5l-88.1,12.5l-13.8,12.4
				l-166.1-25l5.7,69.7l262.9,39.7l261.8-39.7l5.7-69.7L802,615.5z"/>
			<path id="Plate-2_Upper-Armor_Legacy_F" class="st1" d="M805.4,551.2l-14.2-12.4l-91.1-12.5L609,538.8l-14.2,12.4
				l-171.6-25L429,596l271.6,39.7L971.1,596l5.9-69.7L805.4,551.2z"/>
			<path id="Plate-1_Upper-Armor_Legacy_F" class="st1" d="M809.9,480.1L795,466.8l-95-13.3l-95,13.3l-14.9,13.2h-179
				l6.2,47.6l283.2,42.1l282.1-42.1l6.2-47.6H809.9z"/>
			<g id="Trauma-Plates_Abdomen_Legacy_F_Secondary_ToggleOff">
				<path id="Trauma-Plate-4_Abdomen_Legacy_F_Toggle" class="st1" d="M700.6,699.9l246.5-37.3l-3.7,47l-242.8,38l-243.8-38l-3.7-47
					L700.6,699.9z"/>
				<path id="Trauma-Plate-3_Abdomen_Legacy_F_Toggle" class="st1" d="M700.6,635.7l255-37.4l-4.2,51.7l-250.8,38l-251.9-38
					l-4.2-51.7L700.6,635.7z"/>
				<path id="Trauma-Plate-2_Abdomen_Legacy_F_Toggle" class="st1" d="M700.6,569.8l263.9-39.4l-4.9,57.2l-259.1,38l-260.2-38
					l-4.9-57.2L700.6,569.8z"/>
				<path id="Trauma-Plate-1_Abdomen_Legacy_F_Toggle" class="st1" d="M426.2,483.1h165.1l14.9-11.3l93.6-11.1l93.6,11.1l14.9,11.3
					h165.5l-3.8,29l-269.6,40.3L430,512.1L426.2,483.1z"/>
			</g>
		</g>
		<g id="Chest-Plates_Legacy_F">
			<g id="Left-Chest_Legacy_F">
				<path id="Chest_Left_Legacy_F" class="st0" d="M700.1,256.3v204.4l93.6,11.1l14.9,11.3h179.9l13.5-8.3l6-122.7
					l-46.6-126.3L700.1,256.3z"/>
				<path id="Trauma-Plating_Left-Chest_F_Secondary_ToggleOff" class="st0" d="M950.6,250.7l35.9,103.7l-5.8,108l-164.8,1.2
					L793.7,433h-78.3l26.3-24.3l2-104.8L717.2,279L950.6,250.7z"/>
			</g>
			<g id="Right-Chest_Legacy_F">
				<path id="Chest_Right_Legacy_F" class="st0" d="M699.9,256.3v204.4l-93.6,11.1l-14.9,11.3H411.4l-13.5-8.3l-6-122.7
					l46.6-126.3L699.9,256.3z"/>
				<path id="Trauma-Plating_Right-Chest_F_Secondary_ToggleOff" class="st0" d="M449.4,250.7l-35.9,103.7l5.8,108l164.8,1.2
					l22.2-30.5h78.3l-26.3-24.3l-2-104.8l26.5-24.9L449.4,250.7z"/>
			</g>
		</g>
		<g id="Iron-Heart_Legacy_F">
			<path id="Heart_Legacy_F" class="st0" d="M675.1,394.3v-84.9l25-19.6l25,19.6v84.9l-25,25.2L675.1,394.3z"/>
			<rect id="Center_Heart_Legacy_F_Secondary_Option" x="691.5" y="322.4" class="st0" width="17.3" height="58.1"/>
			<g id="None_Heart_Legacy_F_Option">
			</g>
		</g>
		<g id="Neck-Armor_Legacy_F">
			<path id="Neck-Plate_Legacy_F" class="st0" d="M600.8,244.4l-162.6-18.7l12.9-89.7l107.2-32c0,0,14.2,23.9,24.5,32.4
				c10.5,8.6,24.6,18.8,37.9,24.6c14.5,6.3,32.1,10.5,48.9,13.2c18.9,3.1,46.4,3.1,65.3,0c16.8-2.7,36.2-6.9,50.7-13.2
				c13.2-5.8,25.5-15.9,36-24.6c10.3-8.5,24.5-32.4,24.5-32.4l107.2,32l8.7,89.7l-158,18.2l-103.3,12.4L600.8,244.4"/>
			<path id="Trauma-Plates_Neck_Legacy_F_Secondary_ToggleOff" class="st0" d="M715.9,193.4c7.9-0.4,15.4-1.1,22-2.2
				c18.3-3,39.4-7.7,55.1-14.5c14.7-6.4,28.5-17.5,40.3-27.2c6.7-5.5,14.8-16.5,20.7-25.1l82.4,24.6l6,61.4l-140.6,16.2
				c0,0-0.1,0-0.1,0L715.9,237V193.4z M684.1,236.9l-81-9.7c0,0-0.1,0-0.1,0l-144.4-16.6l8.8-61.4l83-24.8
				c5.9,8.6,14,19.6,20.7,25.1c11.7,9.6,27.4,20.8,42.1,27.2c15.8,6.9,35,11.6,53.3,14.5c5.3,0.9,11.3,1.5,17.5,1.9V236.9z"/>
		</g>
	</g>
	<g id="Chest_Heavy_F">
		<g id="Abdomen_Heavy_F">
			<g id="Under-Plates_Abdomen_Heavy_F">
				<rect x="597.6" y="665.4" class="st0" width="205.2" height="26.2"/>
				<rect x="597.6" y="691.6" class="st0" width="205.2" height="26.2"/>
				<rect x="597.6" y="717.8" class="st0" width="205.2" height="26.2"/>
				<rect x="597.6" y="744" class="st0" width="205.2" height="26.2"/>
				<rect x="597.6" y="770.2" class="st0" width="205.2" height="26.2"/>
			</g>
			<g id="Abdomen-Plate_Heavy_F">
				<path class="st0" d="M637.1,580.8l-102.3,43.4l-9.6-23.3l111.9-47.5V580.8z"/>
				<path class="st0" d="M570.7,711.3l-35.9-87.1l102.3-43.4l32,91.6L570.7,711.3z"/>
				<path class="st0" d="M525.3,600.9l-43,7.5l63.4,150.8l43.3-8.6L525.3,600.9z"/>
				<path class="st0" d="M763.2,580.8l102.3,43.4l9.6-23.3l-111.9-47.5V580.8z"/>
				<path class="st0" d="M829.6,711.3l35.9-87.1l-102.3-43.4l-32,91.6L829.6,711.3z"/>
				<path class="st0" d="M875.1,600.9l43,7.5l-63.4,150.8l-43.3-8.6L875.1,600.9z"/>
				<rect x="637.5" y="553.4" class="st0" width="125.4" height="27.4"/>
				<path class="st0" d="M669.2,672.4l-32-91.6h126l-32,91.6H669.2z"/>
			</g>
		</g>
		<g id="Neck-Armor_Heavy_F">
			<g id="Neck-Plate_Heavy_F">
				<path class="st0" d="M559.2,124.8l-88.6,19.5c0,0,9.6,37.7,15.5,60.4c2.4,9.4,11.8,15.2,21.3,13.1c15.3-3.4,37.8-8.3,53.4-11.7
					c4.8-1,8.9-4,11.5-8.1c2.6-4.2,3.3-9.2,2.1-13.9C568.5,161.1,559.2,124.8,559.2,124.8z"/>
				<path class="st0" d="M841.1,124.8l88.6,19.5c0,0-9.6,37.7-15.5,60.4c-2.4,9.4-11.8,15.2-21.3,13.1c-15.3-3.4-37.8-8.3-53.4-11.7
					c-4.8-1-8.9-4-11.5-8.1c-2.6-4.2-3.3-9.2-2.1-13.9C831.8,161.1,841.1,124.8,841.1,124.8z"/>
			</g>
			<g id="Secondary_Neck-Plate_Heavy_F">
				<path class="st0" d="M537.2,126.4l-44.6,9.8c0,0,6.4,25.1,9.9,38.6c1.2,4.7,5.9,7.5,10.6,6.5c7.8-1.7,19.2-4.2,27.2-6
					c2.4-0.5,4.4-2,5.7-4c1.3-2.1,1.6-4.5,1-6.9C543.4,150.8,537.2,126.4,537.2,126.4z"/>
				<path class="st0" d="M863.2,126.4l44.6,9.8c0,0-6.4,25.1-9.9,38.6c-1.2,4.7-5.9,7.5-10.6,6.5c-7.8-1.7-19.2-4.2-27.2-6
					c-2.4-0.5-4.4-2-5.7-4c-1.3-2.1-1.6-4.5-1-6.9C856.9,150.8,863.2,126.4,863.2,126.4z"/>
			</g>
		</g>
		<g id="Full-Chest_Heavy_F">
			<path id="Under-Plate_Chest_Heavy_F" class="st0" d="M750.8,522.5H649.6l-25.4,21.8v14.6l13.3-5.5h125.4l13.3,5.6v-14.7
				L750.8,522.5z"/>
			<g id="Chest-Plate_Heavy_F">
				<path class="st0" d="M523.2,588.2l89.8-52.1l12.2-24.7l23.9,3.2h102.3l23.9-3.2l12.2,24.7l89.8,52.1l41.7,9.1l-1.1,15.3
					l-44.6-7.8l-97-40.5v-20.1l-25.4-21.8H649.6l-25.4,21.8v20.1l-97,40.5l-44.6,7.8l-1.1-15.3L523.2,588.2z"/>
				<path class="st0" d="M918.9,597.3l52-133.4l7.6,27.3L962,590.5L918.9,597.3z"/>
				<path class="st0" d="M421.9,491.2l7.6-27.3l52,133.4l-43.1-6.9L421.9,491.2z"/>
				<path class="st0" d="M480,411.9v-55.7l-4.3-100l25.9-28.7l78.4-16.3l20.3,23.8H800l20.3-23.8l78.4,16.3l25.9,28.7l-4.2,97.5
					l-0.1-0.2v58.4l-145.1,99.5l-23.9,3.2H649l-23.9-3.2L480,411.9z"/>
				<path class="st0" d="M920.3,356.2v55.7l50.5,52L920.3,356.2z"/>
				<path class="st0" d="M625.1,511.4L480,411.9l-50.5,52l52,133.4l41.7-9.1l89.8-52.1L625.1,511.4z"/>
				<path class="st0" d="M970.8,463.9l-52,133.4l-41.7-9.1l-89.8-52.1l-12.2-24.7l145.1-99.5L970.8,463.9z"/>
				<path class="st0" d="M962,590.5l-1.8,10.6l-42.4,11.5l1.1-15.3L962,590.5z"/>
				<path class="st0" d="M480,356.2v55.7l-50.5,52L480,356.2z"/>
				<path class="st0" d="M475.8,256.2c-0.5,51.3-6.6,102.5-21,153.8l25.3-53.9L475.8,256.2z"/>
				<path class="st0" d="M924.6,256.2c0.5,51.3,6.6,102.5,21,153.8l-25.3-53.9L924.6,256.2z"/>
				<path class="st0" d="M481.5,597.3l1.1,15.3l-42.4-11.5l-1.8-10.6L481.5,597.3z"/>
			</g>
			<g id="Accents_Chest-Plate_Heavy_F_ToggleOn">
				<g id="Accent-3_Accents_Chest-Plate_Heavy_F">
					<path class="st0" d="M818.8,354.8l-5.3-16.6h24.2l-5.3,16.6H818.8z"/>
					<path class="st0" d="M818.8,386.9l-5.3-16.6h24.2l-5.3,16.6H818.8z"/>
					<rect x="803.2" y="256.1" class="st0" width="45.4" height="5"/>
					<rect x="803.2" y="272" class="st0" width="45.4" height="5"/>
				</g>
				<path id="Accent-2_Accents_Chest-Plate_Heavy_F" class="st0" d="M564.9,210.4c-0.3-3.5-3.3-6.2-6.8-5.9
					c-9.9,0.6-28.9,1.9-38.9,2.5c-1.7,0.1-3.3,0.9-4.4,2.2c-1.1,1.3-1.7,3-1.6,4.7c1.1,14.5,3.7,49.4,4.8,63.8
					c0.3,3.5,3.3,6.2,6.8,5.9c9.9-0.6,28.9-1.9,38.9-2.5c1.7-0.1,3.3-0.9,4.4-2.2c1.1-1.3,1.7-3,1.6-4.7
					C568.6,259.7,565.9,224.7,564.9,210.4z"/>
				<g id="Accent-1_Accents_Chest-Plate_Heavy_F">
					<path class="st0" d="M558.9,209.6l-39.9,2.6l5,66.2l39.9-2.6L558.9,209.6z"/>
					<path class="st0" d="M554.5,214.8l-30.4,2l0.7,9.5l30.4-2L554.5,214.8z"/>
					<path class="st0" d="M528.9,226l-4.2,0.3l3.9,51.8l4.2-0.3L528.9,226z"/>
					<path class="st0" d="M533.3,225.7l-4.2,0.3l3.9,51.8l4.2-0.3L533.3,225.7z"/>
					<path class="st0" d="M555.2,224.3l-4.2,0.3l3.9,51.8l4.2-0.3L555.2,224.3z"/>
					<path class="st0" d="M550.8,224.5l-4.2,0.3l3.9,51.8l4.2-0.3L550.8,224.5z"/>
					<path class="st0" d="M542.1,225.1l-4.2,0.3l3.9,51.8l4.2-0.3L542.1,225.1z"/>
					<path class="st0" d="M546.4,224.8l-4.2,0.3l3.9,51.8l4.2-0.3L546.4,224.8z"/>
					<path class="st0" d="M537.7,225.4l-4.2,0.3l3.9,51.8l4.2-0.3L537.7,225.4z"/>
				</g>
			</g>
		</g>
		<g id="Iron-Heart_Heavy_F">
			<path id="Heart_Heavy_F" class="st0" d="M700.2,308.5l29.8,27.6v54.2L700.2,418l-29.8-27.6v-54.2L700.2,308.5z"/>
			<g id="None_Heart_Heavy_F_Option">
			</g>
			<g id="Center_Heart_Heavy_F_Option">
				<rect x="689.3" y="337" class="st0" width="21.7" height="26.3"/>
				<rect x="689.3" y="363.3" class="st0" width="3.6" height="26.3"/>
				<rect x="703.8" y="363.3" class="st0" width="3.6" height="26.3"/>
				<rect x="707.4" y="363.3" class="st0" width="3.6" height="26.3"/>
				<rect x="696.5" y="363.3" class="st0" width="3.6" height="26.3"/>
				<rect x="700.1" y="363.3" class="st0" width="3.6" height="26.3"/>
				<rect x="692.9" y="363.3" class="st0" width="3.6" height="26.3"/>
			</g>
		</g>
	</g>
	<g id="Chest_Gunslinger_F">
		<g id="Abdomen_Gunslinger_F">
			<g id="Left_Abdomen_Gunslinger_F">
				<path class="st0" d="M826,696.1l64.8-116.7l-33.7-47.6l-2.7-5.8l-36.8,4.6l-15.1,179.9L826,696.1z"/>
				<path class="st0" d="M826,696.1l64.8-116.7l17,24l22.4-17.9l-6,80L826,696.1z"/>
			</g>
			<g id="Right_Abdomen_Gunslinger_F">
				<path class="st0" d="M574.4,696.1l-64.8-116.7l-17,24l-22.4-17.9l6,80L574.4,696.1z"/>
				<path class="st0" d="M574.4,696.1l-64.8-116.7l33.7-47.6l2.7-5.8l36.8,4.6l15.1,179.9L574.4,696.1z"/>
			</g>
			<path id="Center_Abdomen_Gunslinger_F" class="st0" d="M700.2,492.2l117.4,38.4l-15.1,179.9l-17.9,10.9l-84.3-4.6l-84.3,4.6
				l-17.9-10.9l-15.1-179.9L700.2,492.2z"/>
		</g>
		<g id="Chest-Plates_Gunslinger_F">
			<g id="Left-Chest_Gunslinger_F">
				<path class="st0" d="M706.9,290.3v-27.7l22.7-22.7l218.1-24.8L967.3,337l-32.5,244.8l-27,21.6l-50.7-71.7l-14.2-30.4
					l-135.3-41.3l35.2-35.2V322.8L706.9,290.3z"/>
				<path class="st0" d="M842.9,501.3l99.7-58.9l24.8-105.3l-21.9,113.2l-88.3,81.3L842.9,501.3z"/>
				<path class="st0" d="M854.4,526l-36.8,4.6l-117.4-38.4v-34l142.7,43.1L854.4,526z"/>
			</g>
			<g id="Right-Chest_Gunslinger_F">
				<path class="st0" d="M693.4,290.3v-27.7l-22.7-22.7l-218.1-24.8L433.1,337l32.5,244.8l27.1,21.6l50.7-71.7l14.2-30.4l135.3-41.3
					l-35.2-35.2V322.8L693.4,290.3z"/>
				<path class="st0" d="M557.5,501.3l-99.7-58.9l-24.8-105.3L455,450.4l88.3,81.3L557.5,501.3z"/>
				<path class="st0" d="M546,526l36.8,4.6l117.4-38.4v-34l-142.7,43.1L546,526z"/>
			</g>
		</g>
		<g id="Iron-Heart_Gunslinger_F">
			<path id="Under-Heart_Gunslinger_F" class="st0" d="M692.7,460.1l-35.2-35.2V322.8l35.8-32.5v-27.7h13.5v27.7l35.8,32.5v102.1
				l-35.2,35.2l-7.4-1.9L692.7,460.1z"/>
			<path id="Heart_Gunslinger_F" class="st0" d="M674.2,416.5V332l25.9-25.9l25.9,25.9v84.5l-25.9,25.9L674.2,416.5z"/>
			<g id="None_Heart_Gunslinger_F_Option">
			</g>
			<rect id="Center_Heart_Gunslinger_F_Option" x="692.5" y="337.2" class="st0" width="15.3" height="74.2"/>
		</g>
	</g>
</g>
<g id="Shoulders_F">
	<g id="Left-Shoulder_F">
		<g id="Bell_Shoulder_Left_F_Option">
			<path id="Ridge_Bell_Shoulder_Left_F_Toggle" class="st0" d="M970.5,168.1C970.5,168.1,970.5,168.1,970.5,168.1
				c88.3-28.1,182.6,20.7,210.6,109l45.1,141.7l15.5-4.9c0,0-21.5-67.6-44.6-140.1c-30.8-96.8-134.2-150.3-231-119.5l0,0
				L970.5,168.1"/>
			<path id="Main_Bell_Shoulder_Left_F" class="st0" d="M965.9,165.7C965.9,165.7,965.9,165.7,965.9,165.7
				c91.7-29.2,189.6,21.5,218.8,113.2c21.9,68.7,46.8,147.2,46.8,147.2l-166,52.8L965.9,165.7"/>
		</g>
		<g id="Legacy_Shoulder_Left_F_Option">
			<path id="Plate-3_Shoulder_Left_Legacy_F" class="st0" d="M1109.6,227l-77.9,79.4l45.3,98.7l102.4-5.2l54.1,49.8
				l48.2-3.3L1109.6,227z"/>
			<path id="Plate-2_Shoulder_Left_Legacy_F" class="st0" d="M1067.8,177.4l-61.5,92.7l63.1,88.4l99.6-24.4l62.5,38.7
				l46.8-12.3L1067.8,177.4z"/>
			<path id="Plate-1_Shoulder_Left_Legacy_F" class="st0" d="M992,129.9l-27.7,107.7l88.6,62.8l86-55.7l71.7,16.1l40.1-27
				L992,129.9z"/>
		</g>
		<path id="Classic_Shoulder_Left_F_Option" class="st0" d="M1002.4,133.5c0,0-25.8,89.1-26.7,120.8
			c-0.7,24.4,3.6,54.2,21.4,69.6c27.4,23.7,143,72.4,143,72.4l24-36.9L1002.4,133.5z"/>
	</g>
	<g id="Right-Shoulder_F">
		<g id="Bell_Shoulder_Right_F_Option">
			<path id="Ridge_Bell_Shoulder_Right_F_Toggle" class="st0" d="M430.1,168.1L430.1,168.1c-88.3-28.1-182.6,20.7-210.6,109
				l-45.1,141.7l-15.5-4.9c0,0,21.5-67.6,44.6-140.1c30.8-96.8,134.2-150.3,231-119.5h0L430.1,168.1"/>
			<path id="Main_Bell_Shoulder_Right_F" class="st0" d="M434.6,165.7C434.6,165.7,434.6,165.7,434.6,165.7
				c-91.7-29.2-189.6,21.5-218.8,113.2C193.9,347.6,169,426,169,426l166,52.8L434.6,165.7"/>
		</g>
		<g id="Legacy_Shoulder_Right_F_Option">
			<path id="Plate-3_Shoulder_Right_Legacy_F" class="st0" d="M290.4,227l77.9,79.4L323,405.1L220.7,400l-54.1,49.8
				l-48.2-3.3L290.4,227z"/>
			<path id="Plate-2_Shoulder_Right_Legacy_F" class="st0" d="M332.3,177.4l61.5,92.7l-63.1,88.4l-99.6-24.4l-62.5,38.7
				l-46.8-12.3L332.3,177.4z"/>
			<path id="Plate-1_Shoulder_Right_Legacy_F" class="st0" d="M408,129.9l27.7,107.7L347,300.5l-86-55.7l-71.7,16.1
				l-40.1-27L408,129.9z"/>
		</g>
		<path id="Classic_Shoulder_Right_F_Option" class="st0" d="M397.4,133.5c0,0,25.8,89.1,26.7,120.8
			c0.7,24.4-3.6,54.2-21.4,69.6c-27.4,23.7-143,72.4-143,72.4l-24-36.9L397.4,133.5z"/>
	</g>
</g>
<g id="Gauntlets_F">
	<g id="Left-Gauntlets_F">
		<g id="Basic_Gauntlet_Left_F_Option">
			<path id="Base_Basic_Gauntlet_Left_F" class="st0" d="M1164.1,835.9l-68.9,11.1l-7.5,32l52.5,221.2l65.3-22.8L1164.1,835.9z"/>
			<path id="Middle_Basic_Gauntlet_Left_F" class="st0" d="M1248.9,818.2l-87.4,6.7l42.8,251.1l20.1,80.9l43.7,81.9l14.7-16.4
				l-4.9-35.6l-8-62l-41.2-214.3l29.2-27.6L1248.9,818.2z"/>
			<path id="Top_Basic_Gauntlet_Left_F" class="st0" d="M1228.8,910.8l39.6,237.8l26.3,14.6l-31.4-284.4L1228.8,910.8z"/>
		</g>
	</g>
	<g id="Right-Gauntlets_F">
		<g id="Basic_Gauntlet_Right_F_Option">
			<path id="Base_Basic_Gauntlet_Right_F" class="st0" d="M235.9,835.9l68.9,11.1l7.5,32l-52.5,221.2l-65.3-22.8L235.9,835.9z"/>
			<path id="Middle_Basic_Gauntlet_Right_F" class="st0" d="M151.1,818.2l87.4,6.7L195.7,1076l-20.1,80.9l-43.7,81.9l-14.7-16.4
				l4.9-35.6l8.1-62l41.2-214.3l-29.2-27.6L151.1,818.2z"/>
			<path id="Top_Basic_Gauntlet_Right_F" class="st0" d="M171.2,910.8l-39.6,237.8l-26.2,14.6l31.4-284.4L171.2,910.8z"/>
		</g>
	</g>
</g>
</svg>
