<?xml version="1.0" encoding="UTF-8" standalone="no"?>
<!DOCTYPE svg PUBLIC "-//W3C//DTD SVG 1.1//EN" "http://www.w3.org/Graphics/SVG/1.1/DTD/svg11.dtd">
<svg viewBox="0 0 1400 1400" version="1.1" xmlns="http://www.w3.org/2000/svg">
    <g id="Gauntlet_Upper-Body" transform="matrix(1.32813,0,0,1.71875,81.4967,-491.626)">
        <g id="Left_Gauntlet_Upper-Body_Classic">
            <g transform="matrix(1.31718,0,0,1.08136,-756.697,-107.226)">
                <path d="M1219.98,849.641L1177.58,856.806L1173.78,873.241L1216.18,990.041L1252.18,971.441L1219.98,849.641Z" style="stroke-width:2.96px;"/>
            </g>
            <g transform="matrix(1.31718,0,0,1.08136,-756.697,-107.226)">
                <path d="M1272.05,838.775L1218.05,844.108L1251.38,970.775L1266.05,1011.44L1295.38,1052.11L1304.05,1043.44L1300.05,1025.44L1293.38,994.108L1262.05,886.108L1279.38,871.441L1272.05,838.775Z" style="stroke-width:2.96px;"/>
            </g>
            <g transform="matrix(1.31718,0,0,1.08136,-756.697,-107.226)">
                <path d="M1262.09,886.284L1293.06,1006.22L1309.72,1013.07L1282.56,869.241L1262.09,886.284Z" style="stroke-width:2.96px;"/>
            </g>
        </g>
        <g id="Right_Gauntlet_Upper-Body_Classic">
            <g transform="matrix(-1.31718,0,0,1.08136,1688.09,-107.226)">
                <path d="M1219.98,849.641L1177.58,856.806L1173.78,873.241L1216.18,990.041L1252.18,971.441L1219.98,849.641Z" style="stroke-width:2.96px;"/>
            </g>
            <g transform="matrix(-1.31718,0,0,1.08136,1688.09,-107.226)">
                <path d="M1272.05,838.775L1218.05,844.108L1251.38,970.775L1266.05,1011.44L1295.38,1052.11L1304.05,1043.44L1300.05,1025.44L1293.38,994.108L1262.05,886.108L1279.38,871.441L1272.05,838.775Z" style="stroke-width:2.96px;"/>
            </g>
            <g transform="matrix(-1.31718,0,0,1.08136,1688.09,-107.226)">
                <path d="M1262.09,886.284L1293.06,1006.22L1309.72,1013.07L1282.56,869.241L1262.09,886.284Z" style="stroke-width:2.96px;"/>
            </g>
        </g>
    </g>
    <g id="Upper-Body_Classic" transform="matrix(1.00223,0,0,1.14613,-649.709,593.853)">
        <g id="Abdomen_Upper-Body_Classic" transform="matrix(1.74549,0,0,1.62162,-275.888,-1131.49)">
            <path d="M847.463,833.472L803.13,816.139L799.13,777.472L833.796,766.806L863.13,711.472L929.463,691.472L995.796,711.472L1025.13,766.806L1059.8,777.472L1055.8,816.139L1011.46,833.472L929.463,831.472L847.463,833.472Z" style="stroke-width:2.96px;"/>
        </g>
        <g id="Heart_Upper-Body_Classic" transform="matrix(0.997778,0,0,0.8725,74.5427,-1031.55)">
            <g id="Outer_Heart_Upper-Body_Classic" transform="matrix(1.74938,0,0,1.85859,-350.982,-114.536)">
                <path d="M913.13,622.189L913.13,569.789L929.463,557.722L945.796,569.789L945.796,622.189L929.463,637.722L913.13,622.189Z" style="stroke-width:2.96px;"/>
            </g>
            <g id="Center_Heart_Upper-Body_Classic" transform="matrix(1,0,0,1,384.913,32)">
                <rect x="880.174" y="927.445" width="19.826" height="66.667" style="stroke-width:5.33px;"/>
            </g>
        </g>
        <g id="Chest_Upper-Body_Classic" transform="matrix(1.32517,0,0,1.49961,729.581,-947.081)">
            <g id="Left_Chest_Upper-Body_Classic" transform="matrix(-1.31718,0,0,1.08136,1689.97,-122.969)">
                <path d="M780.796,523.722L916.796,539.056L918.13,551.056L900.796,566.389L902.13,631.056L917.463,645.056L917.463,666.389L858.796,681.722L835.463,731.722L809.463,751.722L780.796,614.389L765.463,607.056L780.796,523.722Z" style="stroke-width:2.96px;"/>
            </g>
            <g id="Right_Chest_Upper-Body_Classic" transform="matrix(1.31718,0,0,1.08136,-758.572,-122.969)">
                <path d="M780.796,523.722L916.796,539.056L918.13,551.056L900.796,566.389L902.13,631.056L917.463,645.056L917.463,666.389L858.796,681.722L835.463,731.722L809.463,751.722L780.796,614.389L765.463,607.056L780.796,523.722Z" style="stroke-width:2.96px;"/>
            </g>
        </g>
        <g id="Shoulder_Upper-Body_Classic" transform="matrix(1.32517,0,0,1.49961,729.581,-947.081)">
            <g id="Left_Shoulder_Upper-Body_Classic" transform="matrix(-1.509,0,0,1.23884,1810.67,-218.529)">
                <path d="M710.463,483.389L723.796,540.139L713.13,572.806L641.796,606.806L629.796,589.472L710.463,483.389Z" style="stroke-width:2.58px;"/>
            </g>
            <g id="Right_Shoulder_Upper-Body_Classic" transform="matrix(1.509,0,0,1.23884,-879.381,-218.529)">
                <path d="M710.463,483.389L723.796,540.139L713.13,572.806L641.796,606.806L629.796,589.472L710.463,483.389Z" style="stroke-width:2.58px;"/>
            </g>
        </g>
        <g id="Neck_Upper-Body_Classic" transform="matrix(1.74549,0,0,1.62162,-275.66,-1131.49)">
            <path d="M865.463,515.722L780.796,507.056L765.463,462.809L835.463,443.056C835.463,443.056 844.712,457.829 851.463,463.056C858.352,468.389 867.561,474.664 876.201,478.221C885.645,482.11 897.151,484.708 908.13,486.389C920.463,488.278 938.463,488.278 950.796,486.389C961.775,484.708 974.472,482.11 983.916,478.221C992.556,474.664 1000.57,468.389 1007.46,463.056C1014.21,457.829 1023.46,443.056 1023.46,443.056L1093.46,462.809L1078.13,507.056L993.463,515.722L929.463,523.722L865.463,515.722Z" style="stroke-width:2.96px;"/>
        </g>
    </g>
    <g id="Upper-Body_Legacy" transform="matrix(1,0,0,1,-188.295,-556.444)">
        <g id="Chest_Upper-Body_Legacy">
            <g id="Abdomen_Upper-Body_Legacy">
                <g transform="matrix(0,134.779,149.155,0,888.219,1306.59)">
                    <path d="M0.209,0.756L0.103,0.654L-0.003,-0L0.103,-0.654L0.209,-0.756L-0.003,-1.988L0.59,-1.946L0.927,0.004L0.59,1.946L-0.003,1.988L0.209,0.756Z" style="fill-rule:nonzero;stroke-width:0.04px;"/>
                </g>
                <g transform="matrix(0,123.381,136.541,0,888.219,1243.19)">
                    <path d="M0.165,0.853L0.049,0.738L-0.067,-0L0.049,-0.738L0.165,-0.853L-0.067,-2.244L0.58,-2.196L0.949,0.004L0.58,2.196L-0.067,2.244L0.165,0.853Z" style="fill-rule:nonzero;stroke-width:0.04px;"/>
                </g>
                <g transform="matrix(0,122.539,135.61,0,888.215,1170.37)">
                    <path d="M0.159,0.887L0.043,0.767L-0.074,0L0.043,-0.767L0.159,-0.887L-0.075,-2.334L0.578,-2.284L0.949,0.005L0.578,2.284L-0.075,2.334L0.159,0.887Z" style="fill-rule:nonzero;stroke-width:0.04px;"/>
                </g>
                <g transform="matrix(0,132.818,146.985,0,888.219,1079.55)">
                    <path d="M0.216,0.854L0.102,0.738L-0.013,-0L0.102,-0.738L0.216,-0.854L0.216,-2.245L0.626,-2.197L0.99,0.004L0.626,2.197L0.216,2.245L0.216,0.854Z" style="fill-rule:nonzero;stroke-width:0.04px;"/>
                </g>
            </g>
            <g id="Chest_Upper-Body_Legacy1" transform="matrix(4.79324,0,0,4.33125,1186.67,1111.64)">
                <path d="M0,-68.134L-62.242,-60.024L-124.62,-68.134L-135.738,-34.686L-134.307,-2.205L-131.096,0L-88.194,0L-84.636,-2.987L-62.31,-5.93L-39.984,-2.987L-36.425,0L6.477,0L9.687,-2.205L11.118,-34.686L0,-68.134Z" style="fill-rule:nonzero;stroke-width:1.17px;"/>
            </g>
        </g>
        <g id="Heart_Upper-Body_Legacy" transform="matrix(1,0,0,1,-387,-32)">
            <g id="Outer_Heart_Upper-Body_Legacy" transform="matrix(1.74938,0,0,1.85859,-350.982,-114.536)">
                <path d="M913.13,622.189L913.13,569.789L929.463,557.722L945.796,569.789L945.796,622.189L929.463,637.722L913.13,622.189Z" style="stroke-width:2.96px;"/>
            </g>
            <g id="Center_Heart_Upper-Body_Legacy" transform="matrix(1,0,0,1,384.913,32)">
                <rect x="880.174" y="927.445" width="19.826" height="66.667" style="stroke-width:5.33px;"/>
            </g>
        </g>
        <g id="Neck_Upper-Body_Legacy" transform="matrix(1.74938,0,0,1.85859,-735.273,-146.536)">
            <path d="M863.225,529.688L757.022,518.173L765.463,462.809L835.463,443.056C835.463,443.056 844.712,457.829 851.463,463.056C858.352,468.389 867.561,474.664 876.201,478.221C885.645,482.11 897.151,484.708 908.13,486.389C920.463,488.278 938.463,488.278 950.796,486.389C961.775,484.708 974.472,482.11 983.916,478.221C992.556,474.664 1000.57,468.389 1007.46,463.056C1014.21,457.829 1023.46,443.056 1023.46,443.056L1093.46,462.809L1099.14,518.173L995.942,529.425L928.442,537.066L863.225,529.688Z" style="stroke-width:2.96px;"/>
        </g>
        <g id="Shoulder_Upper-Body_Legacy">
            <g id="Left_Shoulder_Upper-Body_Legacy">
                <g transform="matrix(0.31991,0.25632,-0.203027,0.253396,1208.36,652.44)">
                    <path d="M370.175,142.432L343.052,483.293L579.884,633.386L766.873,423.821L945.782,439.454L1032.63,338.71L370.175,142.432Z" style="stroke-width:14.42px;"/>
                </g>
                <g transform="matrix(0.362527,0.191355,-0.15157,0.287152,1143.43,622.06)">
                    <path d="M370.175,142.432L343.052,483.293L579.884,633.386L766.873,423.821L945.782,439.454L1032.63,338.71L370.175,142.432Z" style="stroke-width:14.42px;"/>
                </g>
                <g transform="matrix(0.405235,0.061863,-0.0490007,0.320981,1037.31,617.733)">
                    <path d="M370.175,142.432L343.052,483.293L579.884,633.386L766.873,423.821L945.782,439.454L1032.63,338.71L370.175,142.432Z" style="stroke-width:14.42px;"/>
                </g>
            </g>
            <g id="Right_Shoulder_Upper-Body_Legacy" transform="matrix(-1,0,0,1,1776.59,0)">
                <g transform="matrix(0.31991,0.25632,-0.203027,0.253396,1208.36,652.44)">
                    <path d="M370.175,142.432L343.052,483.293L579.884,633.386L766.873,423.821L945.782,439.454L1032.63,338.71L370.175,142.432Z" style="stroke-width:14.42px;"/>
                </g>
                <g transform="matrix(0.362527,0.191355,-0.15157,0.287152,1143.43,622.06)">
                    <path d="M370.175,142.432L343.052,483.293L579.884,633.386L766.873,423.821L945.782,439.454L1032.63,338.71L370.175,142.432Z" style="stroke-width:14.42px;"/>
                </g>
                <g transform="matrix(0.405235,0.061863,-0.0490007,0.320981,1037.31,617.733)">
                    <path d="M370.175,142.432L343.052,483.293L579.884,633.386L766.873,423.821L945.782,439.454L1032.63,338.71L370.175,142.432Z" style="stroke-width:14.42px;"/>
                </g>
            </g>
        </g>
    </g>
</svg>
