<?xml version="1.0" encoding="utf-8"?>
<!-- Generator: Adobe Illustrator 25.0.0, SVG Export Plug-In . SVG Version: 6.00 Build 0)  -->
<svg version="1.1" id="Layer_1" xmlns:serif="http://www.serif.com/"
	 xmlns="http://www.w3.org/2000/svg" xmlns:xlink="http://www.w3.org/1999/xlink" x="0px" y="0px" viewBox="0 0 1400 1400"
	 style="enable-background:new 0 0 1400 1400;" xml:space="preserve">
<g id="Biceps_M_ToggleOff">
	<g id="Left-Biceps_M">
		<g id="Basic_Bicep_Left_M_Option">
			<path class="st0" d="M1184.1,402.2c-1.3-3.8-4.1-6.8-7.7-8.6c-3.6-1.7-7.7-1.9-11.5-0.6c-42.1,14.9-163.2,57.6-163.2,57.6
				l-2.1,89.6c0,0,20.6,58.9,30.4,86.6c2.7,7.8,11.3,11.9,19.1,9.2c37.9-13.3,141.2-49.5,179-62.7c3.8-1.3,6.8-4.1,8.6-7.7
				c1.7-3.6,1.9-7.7,0.6-11.5C1225.6,520.5,1196,435.9,1184.1,402.2z"/>
			<path class="st1" d="M1025.3,613.2l207-73.7"/>
			<circle class="st1" cx="1188.7" cy="514.5" r="20.3"/>
		</g>
		<g id="None_Bicep_Left_M_Option">
		</g>
	</g>
	<g id="Right-Biceps_M">
		<g id="Basic_Bicep_Right_M_Option">
			<path class="st0" d="M215.9,402.2c1.3-3.8,4.1-6.8,7.7-8.6c3.6-1.7,7.7-1.9,11.5-0.6c42.1,14.9,163.2,57.6,163.2,57.6l2.1,89.6
				c0,0-20.6,58.9-30.4,86.6c-2.7,7.8-11.3,11.9-19.1,9.2c-37.9-13.3-141.1-49.5-179-62.7c-3.8-1.3-6.8-4.1-8.6-7.7
				c-1.7-3.6-2-7.7-0.6-11.5C174.4,520.5,204,435.9,215.9,402.2z"/>
			<path class="st1" d="M374.7,613.2l-207-73.7"/>
			<circle class="st1" cx="211.3" cy="514.5" r="20.3"/>
		</g>
		<g id="None_Bicep_Right_M_Option">
		</g>
	</g>
</g>
<g id="Chest_M">
	<g id="Chest_Classic_M">
		<g id="Abdomen_Classic_M">
			<path id="Abdomen-Plate_Classic_M" class="st0" d="M556.3,846.1l-77.6-32.2l-7-71.9l60.6-19.8l51.3-102.8l116-37.2l116,37.2
				l51.3,102.8l60.6,19.8l-7,71.9l-77.6,32.2l-143.4-3.7L556.3,846.1z"/>
			<path id="Trauma-Plate_Abdomen_Classic_M_ToggleOff" class="st0" d="M803.5,633.7l-103.8-33.2L596,633.7L548,730
				c-2.1,4.2-5.7,7.3-10.2,8.8l-47.4,15.5l4.6,47.6l64.5,26.8l139.7-3.6c0.3,0,0.6,0,0.9,0l139.7,3.6l64.5-26.8l4.6-47.6l-47.4-15.5
				c-4.4-1.4-8.1-4.6-10.2-8.8L803.5,633.7z"/>
		</g>
		<g id="Iron-Heart_Classic_M">
			<path id="Heart_Classic_M" class="st0" d="M671.4,453.4V356l28.6-22.4l28.6,22.4v97.4L700,482.3L671.4,453.4z"/>
			<rect id="Center_Heart_Classic_M_Option" x="690.1" y="371" class="st0" width="19.8" height="66.7"/>
			<g id="None_Heart_Classic_M_Option">
			</g>
		</g>
		<g id="Chest-Plates_Classic_M">
			<g id="Left-Chest_Classic_M">
				<path id="Chest_Left_Classic_M" class="st0" d="M960.1,270.4l-237.9,28.5l-2.3,22.3l30.3,28.5l-2.3,120.2l-26.8,26v39.6
					l102.6,28.5l40.8,92.9l45.5,37.2l50.1-255.2l26.8-13.6L960.1,270.4z"/>
				<path id="Trauma-Plating_Left-Chest_ToggleOff" class="st0" d="M737.9,314.7l0.1-0.7l208.8-25l22,127l-23.1,11.7l-46.3,235.8
					l-20.7-16.9L836.3,550l-98-27.2V503l26.7-25.9l2.6-134.5L737.9,314.7z"/>
			</g>
			<g id="Right-Chest_Classic_M">
				<path id="Chest_Right_Classic_M" class="st0" d="M439.9,270.4l237.9,28.5l2.3,22.3l-30.3,28.5l2.3,120.2l26.8,26v39.6
					l-102.6,28.5L535.6,657l-45.5,37.2l-50.1-255.2l-26.8-13.6L439.9,270.4z"/>
				<path id="Trauma-Plating_Right-Chest_ToggleOff" class="st0" d="M662.6,314.7l-0.1-0.7l-208.8-25l-22,127l23.1,11.7l46.3,235.8
					l20.7-16.9l42.4-96.5l98-27.2V503l-26.7-25.9l-2.6-134.5L662.6,314.7z"/>
			</g>
		</g>
		<g id="Neck-Armor_Classic_M">
			<path id="Neck-Plate_Classic_M" class="st0" d="M588,255.5l-148.1-16.1l-26.8-82.2l122.5-36.7c0,0,16.2,27.5,28,37.2
				c12.1,9.9,28.2,21.6,43.3,28.2c16.5,7.2,36.7,12.1,55.9,15.2c21.6,3.5,53.1,3.5,74.6,0c19.2-3.1,41.4-8,57.9-15.2
				c15.1-6.6,29.1-18.3,41.2-28.2c11.8-9.7,28-37.2,28-37.2l122.5,36.7l-26.8,82.2L812,255.5l-112,14.9L588,255.5z"/>
			<path id="Trauma-Plates_Neck_Classic_M_ToggleOff" class="st0" d="M678.7,254.6l-90.6-12l-136.3-25.9l-16-49.2l87.2-26.1
				c0,0,25.6,27,37.4,36.7c12.1,9.9,31.5,18.2,46.6,24.9c16.5,7.2,36.7,12.1,55.9,15.2c4.9,0.8,10.3,1.4,16,1.8V254.6z M721.3,219.9
				c5.7-0.4,11.1-1.1,16-1.8c19.2-3.1,41.4-8,57.9-15.2c15.1-6.6,34.5-16.9,46.5-26.9c11.8-9.7,30.5-36.1,30.5-36.1l92,27.6
				l-16.1,49.5L812,242.5l-90.6,12V219.9z"/>
		</g>
	</g>
	<g id="Chest_Legacy_M">
		<g id="Abdomen_Legacy_M">
			<path id="Plate-4_Upper-Armor_Legacy_M" class="st1" d="M812.7,778.3l-15.3-14.3l-97.5-14.3l-97.5,14.3l-15.3,14.3l-183.8-28.6
				l6.3,79.9l290.8,45.5l289.6-45.5l6.3-79.9L812.7,778.3z"/>
			<path id="Plate-3_Upper-Armor_Legacy_M" class="st1" d="M816.4,707.1l-15.8-14.3l-100.7-14.3l-100.7,14.3l-15.8,14.3l-189.9-28.6
				l6.5,79.9l300.4,45.5l299.2-45.5l6.5-79.9L816.4,707.1z"/>
			<path id="Plate-2_Upper-Armor_Legacy_M" class="st1" d="M820.3,633.4L804,619.1l-104.1-14.3l-104.1,14.3l-16.3,14.3l-196.1-28.6
				l6.8,79.9l310.3,45.5l309.1-45.5l6.8-79.9L820.3,633.4z"/>
			<path id="Plate-1_Upper-Armor_Legacy_M" class="st1" d="M825.4,551.8l-17-15.2l-108.5-15.2l-108.5,15.2l-17,15.2H369.9l7,54.5
				l323.6,48.3l322.3-48.3l7-54.5H825.4z"/>
			<g id="Trauma-Plates_Abdomen_Legacy_M_ToggleOff">
				<path id="Trauma-Plate-4_Abdomen_Legacy_M_Toggle" class="st1" d="M700.5,803.8L982.2,761l-4.3,53.8l-277.5,43.6l-278.6-43.6
					l-4.3-53.8L700.5,803.8z"/>
				<path id="Trauma-Plate-3_Abdomen_Legacy_M_Toggle" class="st1" d="M700.6,730.2L992,687.3l-4.9,59.3l-286.6,43.6l-287.8-43.6
					l-4.9-59.3L700.6,730.2z"/>
				<path id="Trauma-Plate-2_Abdomen_Legacy_M_Toggle" class="st1" d="M700.6,654.6l301.6-45.2l-5.6,65.6l-296.1,43.6L403.2,675
					l-5.5-65.6L700.6,654.6z"/>
				<path id="Trauma-Plate-1_Abdomen_Legacy_M_Toggle" class="st1" d="M386.9,555.2h188.7l17.1-12.9l107-12.7l107,12.7l17.1,12.9
					h189.1l-4.3,33.3l-308.1,46.2l-309.3-46.2L386.9,555.2z"/>
			</g>
		</g>
		<g id="Chest-Plates_Legacy_M">
			<g id="Left-Chest_Legacy_M">
				<path id="Chest_Left_Legacy_M" class="st0" d="M700,295.2v234.3l107,12.7l17.1,12.9h205.6l15.4-9.5L1052,405l-53.3-144.9
					L700,295.2z"/>
				<path id="Trauma-Plating_Left-Chest_ToggleOff1" serif:id="Trauma-Plating_Left-Chest_ToggleOff" class="st0" d="M986.2,288.8
					l41,118.9l-6.7,123.8l-188.3,1.3l-25.3-35h-89.5l30.1-27.9l2.3-120.2l-30.3-28.5L986.2,288.8z"/>
			</g>
			<g id="Right-Chest_Legacy_M">
				<path id="Chest_Right_Legacy_M" class="st0" d="M699.7,295.2v234.3l-107,12.7l-17.1,12.9H370l-15.4-9.5L347.7,405L401,260.1
					L699.7,295.2z"/>
				<path id="Trauma-Plating_Right-Chest_ToggleOff1" serif:id="Trauma-Plating_Right-Chest_ToggleOff" class="st0" d="M413.5,288.8
					l-41,118.9l6.7,123.8l188.3,1.3l25.3-35h89.5l-30.1-27.9l-2.3-120.2l30.3-28.5L413.5,288.8z"/>
			</g>
		</g>
		<g id="Iron-Heart_Legacy_M">
			<path id="Heart_Legacy_M" class="st0" d="M671.4,453.4V356l28.6-22.4l28.6,22.4v97.4L700,482.3L671.4,453.4z"/>
			<rect id="Center_Heart_Legacy_M_Option" x="690.1" y="371" class="st0" width="19.8" height="66.7"/>
			<g id="None_Heart_Legacy_M_Option">
			</g>
		</g>
		<g id="Neck-Armor_Legacy_M">
			<path id="Neck-Plate_Legacy_M" class="st0" d="M586.5,281.5l-185.8-21.4l14.8-102.9L538,120.5c0,0,16.2,27.5,28,37.2
				c12.1,9.9,28.2,21.6,43.3,28.2c16.5,7.2,36.6,12.1,55.9,15.2c21.6,3.5,53.1,3.5,74.6,0c19.2-3.1,41.4-8,57.9-15.2
				c15.1-6.6,29.1-18.3,41.2-28.2c11.8-9.7,28-37.2,28-37.2l122.5,36.7l9.9,102.9L818.7,281l-118.1,14.2L586.5,281.5z"/>
			<path id="Trauma-Plates_Neck_Legacy_M_ToggleOff" class="st0" d="M682.3,269.1l-95.7-11.5L408.5,233l7.1-49.1L522,147.1
				c0,0,32.2,27.5,44,37.2c12.1,9.9,28.2,21.6,43.3,28.2c16.5,7.2,36.6,12.1,55.9,15.2c5.2,0.9,11.1,1.5,17.2,1.9V269.1z
				 M720.5,229.8c6.9-0.4,13.4-1.1,19.2-2.1c19.2-3.1,41.4-8,57.9-15.2c15.1-6.6,29.1-18.3,41.2-28.2c11.8-9.7,42.7-37.2,42.7-37.2
				l107.8,36.7l5.1,52.3l-175.7,20.9l-98.2,11.8V229.8z"/>
		</g>
	</g>
</g>
<g id="Shoulders_M">
	<g id="Left-Shoulder_M">
		<g id="Legacy_Shoulder_Left_M_Option">
			<path id="Plate-3_Shoulder_Left_Legacy_M" class="st0" d="M1109.6,227l-77.9,79.4l45.3,98.7l102.4-5.2l54.1,49.8l48.2-3.3
				L1109.6,227z"/>
			<path id="Plate-2_Shoulder_Left_Legacy_M" class="st0" d="M1067.8,177.4l-61.5,92.7l63.1,88.4l99.6-24.4l62.5,38.7l46.8-12.3
				L1067.8,177.4z"/>
			<path id="Plate-1_Shoulder_Left_Legacy_M" class="st0" d="M992,129.9l-27.7,107.7l88.6,62.8l86-55.7l71.7,16.1l40.1-27L992,129.9
				z"/>
		</g>
		<path id="Classic_Shoulder_Left_M_Option" class="st0" d="M1062.4,162l-26.7,120.8l21.4,69.6l143,72.4l24-36.9L1062.4,162z"/>
	</g>
	<g id="Right-Shoulder_M">
		<g id="Legacy_Shoulder_Right_M_Option">
			<path id="Plate-3_Shoulder_Right_Legacy_M" class="st0" d="M290.4,227l77.9,79.4L323,405.1L220.7,400l-54.1,49.8l-48.2-3.3
				L290.4,227z"/>
			<path id="Plate-2_Shoulder_Right_Legacy_M" class="st0" d="M332.3,177.4l61.5,92.7l-63.1,88.4l-99.6-24.4l-62.5,38.7l-46.8-12.3
				L332.3,177.4z"/>
			<path id="Plate-1_Shoulder_Right_Legacy_M" class="st0" d="M408,129.9l27.7,107.7L347,300.5l-86-55.7l-71.7,16.1l-40.1-27
				L408,129.9z"/>
		</g>
		<path id="Classic_Shoulder_Right_M_Option" class="st0" d="M337.4,162l26.7,120.8l-21.4,69.6l-143,72.4l-24-36.9L337.4,162z"/>
	</g>
</g>
<g id="Gauntlets_M">
	<g id="Left-Gauntlets_M">
		<g id="Basic_Gauntlet_Left_M_Option">
			<path class="st0" d="M1210.7,903.2l-74.2,13.3l-6.7,30.5l74.2,217.1l63-34.6L1210.7,903.2z"/>
			<path class="st0" d="M1301.8,883l-94.5,9.9l58.3,235.4l25.7,75.6l51.3,75.6l15.2-16.1l-7-33.5l-11.7-58.2L1284.3,971l30.3-27.3
				L1301.8,883z"/>
			<path class="st0" d="M1284.4,971.3l54.2,222.9l29.2,12.7l-47.5-267.3L1284.4,971.3z"/>
		</g>
	</g>
	<g id="Right-Gauntlets_M">
		<g id="Basic_Gauntlet_Right_M_Option">
			<path class="st0" d="M189.3,903.2l74.2,13.3l6.6,30.5l-74.2,217.1l-63-34.6L189.3,903.2z"/>
			<path class="st0" d="M98.2,883l94.5,9.9l-58.3,235.4l-25.7,75.6l-51.3,75.6l-15.2-16.1l7-33.5l11.7-58.2L115.7,971l-30.3-27.3
				L98.2,883z"/>
			<path class="st0" d="M115.6,971.3l-54.2,222.9L32.3,1207l47.5-267.3L115.6,971.3z"/>
		</g>
	</g>
</g>
</svg>
