<?xml version="1.0" encoding="utf-8"?>
<!-- Generator: Adobe Illustrator 25.0.0, SVG Export Plug-In . SVG Version: 6.00 Build 0)  -->
<svg version="1.1" id="Layer_1" xmlns:serif="http://www.serif.com/"
	 xmlns="http://www.w3.org/2000/svg" xmlns:xlink="http://www.w3.org/1999/xlink" x="0px" y="0px" viewBox="0 0 1400 1400"
	 style="enable-background:new 0 0 1400 1400;" xml:space="preserve">
<g id="Biceps_F_ToggleOff">
	<g id="Left-Biceps_F">
		<g id="Basic_Bicep_Right_F_Primary_Option">
			<path class="st0" d="M1089.5,412.7l-94.7,34.7c-2,18.9-4.5,37.9-7.6,53.8c-2.8,14.5-8.3,36.3-15.3,61.8v0l20.9,59.7
				c2.4,7.2,9.7,10.9,16.4,8.5c33.5-12.2,127.9-46.5,162.1-59c3.3-1.2,6-3.8,7.6-7.2c1.5-3.4,1.7-7.3,0.5-10.9L1140,437.5l-8.3,3.6
				L1089.5,412.7z"/>
			<path class="st1" d="M988.4,609.5l186.5-68.9"/>
			<ellipse class="st0" cx="1135.5" cy="517.2" rx="18.3" ry="19"/>
		</g>
		<g id="None_Bicep_Right_F_Option">
		</g>
	</g>
	<g id="Right-Biceps_F">
		<g id="Basic_Bicep_Right_F_Primary_Option1" serif:id="Basic_Bicep_Right_F_Primary_Option">
			<path class="st0" d="M310.3,412.7l94.7,34.7c2,18.9,4.5,37.9,7.6,53.8c2.8,14.5,8.3,36.3,15.3,61.8v0L407,622.7
				c-2.4,7.2-9.7,10.9-16.4,8.5c-33.5-12.2-127.9-46.5-162.1-59c-3.3-1.2-6-3.8-7.6-7.2c-1.5-3.4-1.7-7.3-0.5-10.9l39.4-116.7
				l8.3,3.6L310.3,412.7z"/>
			<path class="st1" d="M411.5,609.5L225,540.7"/>
			<ellipse class="st0" cx="264.3" cy="517.2" rx="18.3" ry="19"/>
		</g>
		<g id="None_Bicep_Right_F_Option1" serif:id="None_Bicep_Right_F_Option">
		</g>
	</g>
</g>
<g id="Chest_F">
	<g id="Chest_Classic_F">
		<g id="Abdomen_Classic_F">
			<path id="Abdomen-Plate_Classic_F" class="st0" d="M556.3,742.4c33.5,7,95.6,10.9,143.4,10.9c47.8,0,109.9-3.9,143.4-10.9
				c21.2-4.4,59.6-100.1,59.6-100.1l-55.6-38.3l-41.3-89.3l-106-26.1l-106,26.1l-41.3,89.3l-55.6,38.3
				C496.8,642.2,535.1,737.9,556.3,742.4"/>
			<path id="Trauma-Plate_Abdomen_Classic_F_ToggleOff" class="st0" d="M797.2,524.4l-97.4-24l-97.4,24l-39,84.2
				c-0.9,1.9-2.2,3.5-4,4.7l-48,33c6.1,14.5,19.6,45.1,33,66.5c3.6,5.7,7.1,10.7,10.5,14.4c1.5,1.6,4,3.6,4.4,3.9
				c33,6.8,93.7,10.5,140.5,10.5c46.8,0,107.5-3.7,140.5-10.5c0.5-0.3,2.9-2.3,4.4-3.9c3.4-3.7,6.9-8.7,10.5-14.4
				c13.4-21.4,26.8-51.9,33-66.5l-48-33c-1.7-1.2-3.1-2.8-4-4.7L797.2,524.4z"/>
		</g>
		<g id="Iron-Heart_Classic_F">
			<path id="Heart_Classic_F" class="st0" d="M671.4,383.8v-93.7l28.6-21.6l28.6,21.6v93.7L700,411.6L671.4,383.8z"/>
			<rect id="Center_Heart_Classic_F_Option" x="689.6" y="298.7" class="st0" width="20.8" height="82.7"/>
			<g id="None_Heart_Classic_F_Option">
			</g>
		</g>
		<g id="Left-Chest_Classic_F">
			<path id="Chest_Left_Classic_F" class="st0" d="M946.5,274.7c-39.4-38.3-223.9-39.5-223.9-39.5l-2.3,21.5l30.3,27.4l-2.3,115.6
				l-26.8,25v38.1l102.6,27.4l40.8,89.4l45.5,35.8c0,0,47.5-109.3,53.3-170.4C967.5,404.6,980.9,308.2,946.5,274.7"/>
			<path id="Trauma-Plating_Left-Chest_F_ToggleOff" class="st0" d="M733.5,247l-0.6,5.2l26,23.5c2.5,2.2,3.8,5.4,3.8,8.6
				l-2.3,115.6c-0.1,3-1.4,5.9-3.6,8.1l-23.2,21.6v24.5l93.8,25.1c3.5,0.9,6.3,3.3,7.8,6.5l39.7,86.9l30.6,24.1
				c12.8-31.2,42-106.1,46.3-152.6c2.2-23.8,8-67.4,4.8-105.6c-1.9-22.8-6.5-43.8-18.6-55.5c-10.7-10.4-33.4-17-59.7-22.2
				C825.7,250.1,759.2,247.6,733.5,247z"/>
		</g>
		<g id="Right-Chest_Classic_F">
			<path id="Chest_Right_Classic_F" class="st0" d="M453.5,274.7c39.4-38.3,223.9-39.5,223.9-39.5l2.3,21.5l-30.3,27.4l2.3,115.6
				l26.8,25v38.1l-102.6,27.4L535,579.7l-45.5,35.8c0,0-47.5-109.3-53.3-170.4C432.5,404.6,419.1,308.2,453.5,274.7"/>
			<path id="Trauma-Plating_Right-Chest_F_ToggleOff" class="st0" d="M666.5,247c-25.8,0.6-92.3,3.2-144.9,13.7
				c-26.2,5.2-49,11.9-59.7,22.2c-12.1,11.8-16.7,32.7-18.6,55.5c-3.1,38.2,2.6,81.8,4.8,105.6c4.4,46.4,33.5,121.3,46.3,152.6
				l30.6-24.1l39.7-86.9c1.4-3.2,4.3-5.6,7.8-6.5l93.8-25.1v-24.5L643.3,408c-2.3-2.1-3.6-5-3.6-8.1l-2.3-115.6
				c-0.1-3.3,1.3-6.4,3.8-8.6l26-23.5L666.5,247z"/>
		</g>
		<g id="Neck-Armor_Classic_F">
			<path id="Neck-Plate_Classic_F" class="st0" d="M700,218.2c-72.8,0-218.5-15.6-218.5-15.6l-22.5-59.3l102.9-26.5
				c0,0,13.6,19.8,23.5,26.8c10.1,7.2,23.7,15.6,36.4,20.3c13.9,5.2,30.8,8.7,46.9,10.9c18.1,2.5,44.6,2.5,62.7,0
				c16.1-2.3,34.8-5.7,48.7-10.9c12.7-4.8,24.5-13.2,34.6-20.3c9.9-7,23.5-26.8,23.5-26.8l102.9,26.5l-22.5,59.3
				C918.5,202.6,772.8,218.2,700,218.2z"/>
			<path id="Trauma-Plates_Neck_Classic_F_ToggleOff" class="st0" d="M687.7,206.5c-64.5-1.3-169-11.7-197.5-14.6l-15.5-40.7
				l82.2-21.1c5.4,7.1,14.3,17.9,21.4,22.9c10.9,7.7,25.5,16.7,39.1,21.8c14.7,5.5,32.5,9.2,49.6,11.6c6.2,0.9,13.3,1.5,20.8,1.8
				V206.5z M712.3,188.1c7.5-0.3,14.6-0.9,20.8-1.8c17-2.4,36.7-6.1,51.3-11.6c13.7-5.1,26.4-14.1,37.3-21.8
				c7.1-5,15.9-15.8,21.4-22.9l82.2,21.1l-15.5,40.7c-28.5,2.9-133,13.4-197.5,14.6V188.1z"/>
		</g>
	</g>
	<g id="Chest_Legacy_F">
		<g id="Abdomen_Legacy_F">
			<path id="Plate-4_Upper-Armor_Legacy_F_Primary" class="st1" d="M798.7,677.6l-13.3-12.4l-85.3-12.5l-85.3,12.5l-13.3,12.4
				l-160.8-25l5.5,69.7L700.6,762L954,722.4l5.5-69.7L798.7,677.6z"/>
			<path id="Plate-3_Upper-Armor_Legacy_F_Primary" class="st1" d="M802,615.5l-13.8-12.4l-88.1-12.5l-88.1,12.5l-13.8,12.4
				l-166.1-25l5.7,69.7l262.9,39.7l261.8-39.7l5.7-69.7L802,615.5z"/>
			<path id="Plate-2_Upper-Armor_Legacy_F_Primary" class="st1" d="M805.4,551.2l-14.2-12.4l-91.1-12.5L609,538.8l-14.2,12.4
				l-171.6-25L429,596l271.6,39.7L971.1,596l5.9-69.7L805.4,551.2z"/>
			<path id="Plate-1_Upper-Armor_Legacy_F_Primary" class="st1" d="M809.9,480.1L795,466.8l-95-13.3l-95,13.3l-14.9,13.2h-179
				l6.2,47.6l283.2,42.1l282.1-42.1l6.2-47.6H809.9z"/>
			<g id="Trauma-Plates_Abdomen_Legacy_F_Secondary_ToggleOff">
				<path id="Trauma-Plate-4_Abdomen_Legacy_F_Toggle" class="st1" d="M700.6,699.9l246.5-37.3l-3.7,47l-242.8,38l-243.8-38l-3.7-47
					L700.6,699.9z"/>
				<path id="Trauma-Plate-3_Abdomen_Legacy_F_Toggle" class="st1" d="M700.6,635.7l255-37.4l-4.2,51.7l-250.8,38l-251.9-38
					l-4.2-51.7L700.6,635.7z"/>
				<path id="Trauma-Plate-2_Abdomen_Legacy_F_Toggle" class="st1" d="M700.6,569.8l263.9-39.4l-4.9,57.2l-259.1,38l-260.2-38
					l-4.9-57.2L700.6,569.8z"/>
				<path id="Trauma-Plate-1_Abdomen_Legacy_F_Toggle" class="st1" d="M426.2,483.1h165.1l14.9-11.3l93.6-11.1l93.6,11.1l14.9,11.3
					h165.5l-3.8,29l-269.6,40.3L430,512.1L426.2,483.1z"/>
			</g>
		</g>
		<g id="Chest-Plates_Legacy_F">
			<g id="Left-Chest_Legacy_F">
				<path id="Chest_Left_Legacy_F_Primary" class="st0" d="M700.1,256.3v204.4l93.6,11.1l14.9,11.3h179.9l13.5-8.3l6-122.7
					l-46.6-126.3L700.1,256.3z"/>
				<path id="Trauma-Plating_Left-Chest_F_Secondary_ToggleOff" class="st0" d="M950.6,250.7l35.9,103.7l-5.8,108l-164.8,1.2
					L793.7,433h-78.3l26.3-24.3l2-104.8L717.2,279L950.6,250.7z"/>
			</g>
			<g id="Right-Chest_Legacy_F">
				<path id="Chest_Right_Legacy_F_Primary" class="st0" d="M699.9,256.3v204.4l-93.6,11.1l-14.9,11.3H411.4l-13.5-8.3l-6-122.7
					l46.6-126.3L699.9,256.3z"/>
				<path id="Trauma-Plating_Right-Chest_F_Secondary_ToggleOff" class="st0" d="M449.4,250.7l-35.9,103.7l5.8,108l164.8,1.2
					l22.2-30.5h78.3l-26.3-24.3l-2-104.8l26.5-24.9L449.4,250.7z"/>
			</g>
		</g>
		<g id="Iron-Heart_Legacy_F">
			<path id="Heart_Legacy_F_Primary" class="st0" d="M675.1,394.3v-84.9l25-19.6l25,19.6v84.9l-25,25.2L675.1,394.3z"/>
			<rect id="Center_Heart_Legacy_F_Secondary_Option" x="691.5" y="322.4" class="st0" width="17.3" height="58.1"/>
			<g id="None_Heart_Legacy_F_Option">
			</g>
		</g>
		<g id="Neck-Armor_Legacy_F">
			<path id="Neck-Plate_Legacy_F_Primary" class="st0" d="M600.8,244.4l-162.6-18.7l12.9-89.7l107.2-32c0,0,14.2,23.9,24.5,32.4
				c10.5,8.6,24.6,18.8,37.9,24.6c14.5,6.3,32.1,10.5,48.9,13.2c18.9,3.1,46.4,3.1,65.3,0c16.8-2.7,36.2-6.9,50.7-13.2
				c13.2-5.8,25.5-15.9,36-24.6c10.3-8.5,24.5-32.4,24.5-32.4l107.2,32l8.7,89.7l-158,18.2l-103.3,12.4L600.8,244.4"/>
			<path id="Trauma-Plates_Neck_Legacy_F_Secondary_ToggleOff" class="st0" d="M715.9,193.4c7.9-0.4,15.4-1.1,22-2.2
				c18.3-3,39.4-7.7,55.1-14.5c14.7-6.4,28.5-17.5,40.3-27.2c6.7-5.5,14.8-16.5,20.7-25.1l82.4,24.6l6,61.4l-140.6,16.2
				c0,0-0.1,0-0.1,0L715.9,237V193.4z M684.1,236.9l-81-9.7c0,0-0.1,0-0.1,0l-144.4-16.6l8.8-61.4l83-24.8
				c5.9,8.6,14,19.6,20.7,25.1c11.7,9.6,27.4,20.8,42.1,27.2c15.8,6.9,35,11.6,53.3,14.5c5.3,0.9,11.3,1.5,17.5,1.9V236.9z"/>
		</g>
	</g>
</g>
<g id="Shoulders_F">
	<g id="Left-Shoulder_F">
		<g id="Bell_Shoulder_Left_F_Option">
			<path id="Ridge_Bell_Shoulder_Left_F" class="st0" d="M970.5,168.1C970.5,168.1,970.5,168.1,970.5,168.1
				c88.3-28.1,182.6,20.7,210.6,109l45.1,141.7l15.5-4.9c0,0-21.5-67.6-44.6-140.1c-30.8-96.8-134.2-150.3-231-119.5l0,0
				L970.5,168.1"/>
			<path id="Main_Bell_Shoulder_Left_F" class="st0" d="M965.9,165.7C965.9,165.7,965.9,165.7,965.9,165.7
				c91.7-29.2,189.6,21.5,218.8,113.2c21.9,68.7,46.8,147.2,46.8,147.2l-166,52.8L965.9,165.7"/>
		</g>
		<g id="Legacy_Shoulder_Left_F_Option">
			<path id="Plate-3_Shoulder_Left_Legacy_M_Primary" class="st0" d="M1109.6,227l-77.9,79.4l45.3,98.7l102.4-5.2l54.1,49.8
				l48.2-3.3L1109.6,227z"/>
			<path id="Plate-2_Shoulder_Left_Legacy_M_Primary" class="st0" d="M1067.8,177.4l-61.5,92.7l63.1,88.4l99.6-24.4l62.5,38.7
				l46.8-12.3L1067.8,177.4z"/>
			<path id="Plate-1_Shoulder_Left_Legacy_M_Primary" class="st0" d="M992,129.9l-27.7,107.7l88.6,62.8l86-55.7l71.7,16.1l40.1-27
				L992,129.9z"/>
		</g>
		<path id="Classic_Shoulder_Left_F_Primary_Option" class="st0" d="M1002.4,133.5c0,0-25.8,89.1-26.7,120.8
			c-0.7,24.4,3.6,54.2,21.4,69.6c27.4,23.7,143,72.4,143,72.4l24-36.9L1002.4,133.5z"/>
	</g>
	<g id="Right-Shoulder_F">
		<g id="Bell_Shoulder_Right_F_Option">
			<path id="Ridge_Bell_Shoulder_Right_F" class="st0" d="M430.1,168.1L430.1,168.1c-88.3-28.1-182.6,20.7-210.6,109l-45.1,141.7
				l-15.5-4.9c0,0,21.5-67.6,44.6-140.1c30.8-96.8,134.2-150.3,231-119.5h0L430.1,168.1"/>
			<path id="Main_Bell_Shoulder_Right_F" class="st0" d="M434.6,165.7C434.6,165.7,434.6,165.7,434.6,165.7
				c-91.7-29.2-189.6,21.5-218.8,113.2C193.9,347.6,169,426,169,426l166,52.8L434.6,165.7"/>
		</g>
		<g id="Legacy_Shoulder_Right_F_Option">
			<path id="Plate-3_Shoulder_Right_Legacy_M_Primary" class="st0" d="M290.4,227l77.9,79.4L323,405.1L220.7,400l-54.1,49.8
				l-48.2-3.3L290.4,227z"/>
			<path id="Plate-2_Shoulder_Right_Legacy_M_Primary" class="st0" d="M332.3,177.4l61.5,92.7l-63.1,88.4l-99.6-24.4l-62.5,38.7
				l-46.8-12.3L332.3,177.4z"/>
			<path id="Plate-1_Shoulder_Right_Legacy_M_Primary" class="st0" d="M408,129.9l27.7,107.7L347,300.5l-86-55.7l-71.7,16.1
				l-40.1-27L408,129.9z"/>
		</g>
		<path id="Classic_Shoulder_Right_F_Primary_Option" class="st0" d="M397.4,133.5c0,0,25.8,89.1,26.7,120.8
			c0.7,24.4-3.6,54.2-21.4,69.6c-27.4,23.7-143,72.4-143,72.4l-24-36.9L397.4,133.5z"/>
	</g>
</g>
<g id="Gauntlets_F">
	<g id="Left-Gauntlets_F">
		<g id="Basic_Gauntlet_Left_F_Primary_Option">
			<path id="Base_Basic_Gauntlet_Left_F" class="st0" d="M1164.1,835.9l-68.9,11.1l-7.5,32l52.5,221.2l65.3-22.8L1164.1,835.9z"/>
			<path id="Middle_Basic_Gauntlet_Left_F" class="st0" d="M1248.9,818.2l-87.4,6.7l42.8,251.1l20.1,80.9l43.7,81.9l14.7-16.4
				l-4.9-35.6l-8-62l-41.2-214.3l29.2-27.6L1248.9,818.2z"/>
			<path id="Top_Basic_Gauntlet_Left_F" class="st0" d="M1228.8,910.8l39.6,237.8l26.3,14.6l-31.4-284.4L1228.8,910.8z"/>
		</g>
	</g>
	<g id="Right-Gauntlets_F">
		<g id="Basic_Gauntlet_Right_F_Primary_Option">
			<path id="Base_Basic_Gauntlet_Right_F" class="st0" d="M235.9,835.9l68.9,11.1l7.5,32l-52.5,221.2l-65.3-22.8L235.9,835.9z"/>
			<path id="Middle_Basic_Gauntlet_Right_F" class="st0" d="M151.1,818.2l87.4,6.7L195.7,1076l-20.1,80.9l-43.7,81.9l-14.7-16.4
				l4.9-35.6l8.1-62l41.2-214.3l-29.2-27.6L151.1,818.2z"/>
			<path id="Top_Basic_Gauntlet_Right_F" class="st0" d="M171.2,910.8l-39.6,237.8l-26.2,14.6l31.4-284.4L171.2,910.8z"/>
		</g>
	</g>
</g>
</svg>
