<?xml version="1.0" encoding="utf-8"?>
<!-- Generator: Adobe Illustrator 25.2.0, SVG Export Plug-In . SVG Version: 6.00 Build 0)  -->
<svg version="1.1" id="Layer_1" xmlns:serif="http://www.serif.com/"
	 xmlns="http://www.w3.org/2000/svg" xmlns:xlink="http://www.w3.org/1999/xlink" x="0px" y="0px" viewBox="0 0 1400 1400"
	 xml:space="preserve">
<g id="Biceps_F_ToggleOff">
	<g id="Left-Biceps_F">
		<g id="None_Biceps_Left_F_Option">
		</g>
		<g id="Full-Band_Biceps_Left_F_Option">
			<path id="Main_Full-Band_Biceps_Left_F" d="M995.5,559l-7.5-20.7l-35-109.5c0,0,122.5-41.6,163.1-55.4
				c7.2-2.4,15,1.2,17.7,8.3c12.3,32.4,43.9,115.6,43.9,115.6L995.5,559"/>
			<g id="Trim_Full-Band_Biceps_Left_F">
				<path d="M1139.1,458.2c9.9,0,17.9,7.7,17.9,17.2s-8,17.2-17.9,17.2c-9.9,0-17.9-7.7-17.9-17.2
					S1129.2,458.2,1139.1,458.2"/>
				<path d="M1177.7,497.3l4.2,11.5c1.2,3.2,1,6.8-0.5,9.8c-1.5,3.1-4.1,5.4-7.4,6.5c-33.4,11.3-125.5,42.3-158.3,53.4
					c-6.5,2.2-13.6-1.2-16-7.7l-4.3-11.8L1177.7,497.3"/>
			</g>
		</g>
		<g id="Basic_Biceps_Left_F_Option">
			<path id="Main_Basic_Biceps_Left_F" d="M1200.1,549.5c-12.1-29.3-65.9-157.6-65.9-157.6s-88.4,36.5-110.4,45.6
				c-6.2,2.6-9.2,9.7-6.6,16c10.4,25.2,35.8,86.8,51.7,125.1c3.6,8.7,10.5,15.6,19.1,19.2c8.7,3.6,18.4,3.6,27.1,0
				c26-10.7,60.8-25.1,78.4-32.4C1199.7,562.9,1202.6,555.7,1200.1,549.5z"/>
			<path id="Strap_Basic_Biceps_Left_F" d="M1040.8,510.3l-48.1,19.8l11.3,40.5l52.7-21.7L1040.8,510.3"/>
			<path id="Trauma-Plate_Basic_Biceps_Left_F_ToggleOff" d="M1199.7,543.4l-56.1-135.9l-107.7,44.4l49.5,119.8
				c1.8,4.3,5.2,7.7,9.4,9.4c4.3,1.8,9,1.8,13.3,0L1199.7,543.4"/>
		</g>
	</g>
	<g id="Right-Biceps_F">
		<g id="None_Biceps_Right_F_Option">
		</g>
		<g id="Full-Band_Biceps_Right_F_Option">
			<path id="Main_Full-Band_Biceps_Right_F" d="M418.8,559l7.5-20.7l35-109.5c0,0-122.5-41.6-163.1-55.4
				c-7.2-2.4-15,1.2-17.7,8.3c-12.3,32.4-43.9,115.6-43.9,115.6L418.8,559"/>
			<g id="Trim_Full-Band_Biceps_Right_F">
				<path d="M275.2,458.2c-9.9,0-17.9,7.7-17.9,17.2s8,17.2,17.9,17.2c9.9,0,17.9-7.7,17.9-17.2
					S285.1,458.2,275.2,458.2"/>
				<path d="M236.6,497.3l-4.2,11.5c-1.2,3.2-1,6.8,0.5,9.8c1.5,3.1,4.1,5.4,7.4,6.5c33.4,11.3,125.5,42.3,158.3,53.4
					c6.5,2.2,13.6-1.2,16-7.7l4.3-11.8L236.6,497.3"/>
			</g>
		</g>
		<g id="Basic_Biceps_Right_F_Option">
			<path id="Main_Basic_Biceps_Right_F" d="M214.2,549.5c12.1-29.3,65.9-157.6,65.9-157.6s88.4,36.5,110.4,45.6
				c6.2,2.6,9.2,9.7,6.6,16c-10.4,25.2-35.8,86.8-51.7,125.1c-3.6,8.7-10.5,15.6-19.1,19.2c-8.7,3.6-18.4,3.6-27.1,0
				c-26-10.7-60.8-25.1-78.4-32.4C214.6,562.9,211.7,555.7,214.2,549.5z"/>
			<path id="Strap_Basic_Biceps_Right_F" d="M373.5,510.3l48.1,19.8l-11.3,40.5l-52.7-21.7L373.5,510.3"/>
			<path id="Trauma-Plate_Basic_Biceps_Right_F_ToggleOff" d="M214.6,543.4l56.1-135.9l107.7,44.4l-49.4,119.8
				c-1.8,4.3-5.1,7.7-9.4,9.4s-9.1,1.8-13.3,0L214.6,543.4"/>
		</g>
	</g>
</g>
<g id="Chest_F">
	<g id="Chest_Classic_F">
		<g id="Abdomen_Classic_F">
			<path id="Abdomen-Plate_Classic_F" d="M563.1,741.2c33.5,7,95.6,10.9,143.4,10.9c47.8,0,109.9-3.9,143.4-10.9
				c21.2-4.4,59.6-100.1,59.6-100.1l-55.6-38.3l-41.3-89.3l-106-26.1l-106,26.1l-41.3,89.3l-55.6,38.3
				C503.5,641.1,541.8,736.8,563.1,741.2"/>
			<path id="Trauma-Plate_Abdomen_Classic_F_ToggleOff" d="M804,523.3l-97.4-24l-97.4,24l-39,84.2
				c-0.9,1.9-2.2,3.5-4,4.7l-48,33c6.1,14.5,19.6,45.1,33,66.5c3.6,5.7,7.1,10.7,10.5,14.4c1.5,1.6,4,3.6,4.4,3.9
				c33,6.8,93.7,10.5,140.5,10.5c46.8,0,107.5-3.7,140.5-10.5c0.5-0.3,2.9-2.3,4.4-3.9c3.4-3.7,6.9-8.7,10.5-14.4
				c13.4-21.4,26.8-51.9,33-66.5l-48-33c-1.7-1.2-3.1-2.8-4-4.7L804,523.3z"/>
		</g>
		<g id="Iron-Heart_Classic_F">
			<path id="Heart_Classic_F" d="M678.2,382.7V289l28.6-21.6l28.6,21.6v93.7l-28.6,27.8L678.2,382.7z"/>
			<g id="None_Heart_Classic_F_Option">
			</g>
			<rect id="Center_Heart_Classic_F_Option" x="696.4" y="297.6" width="20.8" height="82.7"/>
		</g>
		<g id="Left-Chest_Classic_F">
			<path id="Chest_Left_Classic_F" d="M953.3,273.6c-39.4-38.3-223.9-39.5-223.9-39.5l-2.3,21.5l30.3,27.4l-2.3,115.6
				l-26.8,25v38.1l102.6,27.4l40.8,89.4l45.5,35.8c0,0,47.5-109.3,53.3-170.4C974.3,403.5,987.7,307,953.3,273.6"/>
			<path id="Trauma-Plating_Left-Chest_Classic_F_ToggleOff" d="M740.2,245.8l-0.6,5.2l26,23.5c2.5,2.2,3.8,5.4,3.8,8.6
				l-2.3,115.6c-0.1,3-1.4,5.9-3.6,8.1l-23.2,21.6V453l93.8,25.1c3.5,0.9,6.3,3.3,7.8,6.5l39.7,86.9l30.6,24.1
				c12.8-31.2,42-106.1,46.3-152.6c2.2-23.8,8-67.4,4.8-105.6c-1.9-22.8-6.5-43.8-18.6-55.5c-10.7-10.4-33.4-17-59.7-22.2
				C832.5,249,766,246.4,740.2,245.8z"/>
		</g>
		<g id="Right-Chest_Classic_F">
			<path id="Chest_Right_Classic_F" d="M460.2,273.6c39.4-38.3,223.9-39.5,223.9-39.5l2.3,21.5L656.1,283l2.3,115.6
				l26.8,25v38.1l-102.6,27.4l-40.8,89.4l-45.5,35.8c0,0-47.5-109.3-53.3-170.4C439.2,403.5,425.8,307,460.2,273.6"/>
			<path id="Trauma-Plating_Right-Chest_Classic_F_ToggleOff" d="M673.3,245.8c-25.8,0.6-92.3,3.2-144.9,13.7
				c-26.2,5.2-49,11.9-59.7,22.2c-12.1,11.8-16.7,32.7-18.6,55.5c-3.1,38.2,2.6,81.8,4.8,105.6c4.4,46.4,33.5,121.3,46.3,152.6
				l30.6-24.1l39.7-86.9c1.4-3.2,4.3-5.6,7.8-6.5l93.8-25.1v-24.5l-23.2-21.6c-2.3-2.1-3.6-5-3.6-8.1l-2.3-115.6
				c-0.1-3.3,1.3-6.4,3.8-8.6l26-23.5L673.3,245.8z"/>
		</g>
		<g id="Neck-Armor_Classic_F">
			<path id="Neck-Plate_Classic_F" d="M706.8,217.1c-72.8,0-218.5-15.6-218.5-15.6l-22.5-59.3l102.9-26.5
				c0,0,13.6,19.8,23.5,26.8c10.1,7.1,23.7,15.6,36.4,20.3c13.9,5.2,30.8,8.7,46.9,10.9c18.1,2.5,44.6,2.5,62.7,0
				c16.1-2.3,34.8-5.7,48.7-10.9c12.7-4.8,24.5-13.2,34.6-20.3c9.9-7,23.5-26.8,23.5-26.8l102.9,26.5l-22.5,59.3
				C925.3,201.5,779.6,217.1,706.8,217.1z"/>
			<path id="Trauma-Plates_Neck_Classic_F_ToggleOff" d="M694.5,205.4c-64.5-1.3-169-11.7-197.5-14.6l-15.5-40.7
				l82.2-21.1c5.4,7.1,14.3,17.9,21.4,22.9c10.9,7.7,25.5,16.7,39.1,21.8c14.7,5.5,32.5,9.2,49.6,11.6c6.2,0.9,13.3,1.5,20.8,1.8
				V205.4z M719.1,187c7.5-0.3,14.6-0.9,20.8-1.8c17-2.4,36.7-6.1,51.3-11.6c13.7-5.1,26.4-14.1,37.3-21.8
				c7.1-5,15.9-15.8,21.4-22.9l82.2,21.1l-15.5,40.7c-28.5,2.9-133,13.4-197.5,14.6V187z"/>
		</g>
	</g>
	<g id="Chest_Legacy_F">
		<g id="Abdomen_Legacy_F">
			<path id="Plate-4_Upper-Armor_Legacy_F" d="M805.5,676.5l-13.3-12.4l-85.3-12.5l-85.3,12.5l-13.3,12.4l-160.8-25
				l5.5,69.7l254.5,39.7l253.5-39.7l5.5-69.7L805.5,676.5z"/>
			<path id="Plate-3_Upper-Armor_Legacy_F" d="M808.8,614.4L795,602l-88.1-12.5L618.7,602l-13.8,12.4l-166.1-25
				l5.7,69.7l262.9,39.7l261.8-39.7l5.7-69.7L808.8,614.4z"/>
			<path id="Plate-2_Upper-Armor_Legacy_F" d="M812.1,550.1l-14.2-12.4l-91.1-12.5l-91.1,12.5l-14.2,12.4l-171.6-25
				l5.9,69.7l271.6,39.7l270.5-39.7l5.9-69.7L812.1,550.1z"/>
			<path id="Plate-1_Upper-Armor_Legacy_F" d="M816.6,478.9l-14.9-13.2l-95-13.3l-95,13.3L597,478.9H418l6.2,47.6
				l283.2,42.1l282.1-42.1l6.2-47.6H816.6z"/>
			<g id="Trauma-Plates_Abdomen_Legacy_F_ToggleOff">
				<path id="Trauma-Plate-4_Abdomen_Legacy_F_Toggle" d="M707.4,698.8l246.5-37.3l-3.7,47l-242.8,38l-243.8-38l-3.7-47
					L707.4,698.8z"/>
				<path id="Trauma-Plate-3_Abdomen_Legacy_F_Toggle" d="M707.4,634.5l255-37.4l-4.2,51.7l-250.8,38l-251.9-38
					l-4.2-51.7L707.4,634.5z"/>
				<path id="Trauma-Plate-2_Abdomen_Legacy_F_Toggle" d="M707.4,568.6l263.9-39.4l-4.9,57.2l-259.1,38l-260.2-38
					l-4.9-57.2L707.4,568.6z"/>
				<path id="Trauma-Plate-1_Abdomen_Legacy_F_Toggle" d="M433,481.9h165.1l14.9-11.3l93.6-11.1l93.6,11.1l14.9,11.3
					h165.5l-3.8,29l-269.6,40.3L436.7,511L433,481.9z"/>
			</g>
		</g>
		<g id="Chest-Plates_Legacy_F">
			<g id="Left-Chest_Legacy_F">
				<path id="Chest_Left_Legacy_F" d="M706.9,255.2v204.4l93.6,11.1l14.9,11.3h179.9l13.5-8.3l6-122.7l-46.6-126.3
					L706.9,255.2z"/>
				<path id="Trauma-Plating_Left-Chest_Legacy_F_ToggleOff" d="M957.4,249.6l35.9,103.7l-5.8,108l-164.8,1.2
					l-22.2-30.5h-78.3l26.3-24.3l2-104.8L724,277.9L957.4,249.6z"/>
			</g>
			<g id="Right-Chest_Legacy_F">
				<path id="Chest_Right_Legacy_F" d="M706.6,255.2v204.4L613,470.7l-14.9,11.3H418.1l-13.5-8.3l-6-122.7l46.6-126.3
					L706.6,255.2z"/>
				<path id="Trauma-Plating_Right-Chest_Legacy_F_ToggleOff" d="M456.2,249.6l-35.9,103.7l5.8,108l164.8,1.2l22.2-30.5
					h78.3l-26.3-24.3l-2-104.8l26.5-24.9L456.2,249.6z"/>
			</g>
		</g>
		<g id="Iron-Heart_Legacy_F">
			<path id="Heart_Legacy_F" d="M681.9,393.2v-84.9l25-19.6l25,19.6v84.9l-25,25.2L681.9,393.2z"/>
			<rect id="Center_Heart_Legacy_F_Option" x="698.2" y="321.3" width="17.3" height="58.1"/>
			<g id="None_Heart_Legacy_F_Option">
			</g>
		</g>
		<g id="Neck-Armor_Legacy_F">
			<path id="Neck-Plate_Legacy_F" d="M607.6,243.2L445,224.6l12.9-89.7l107.2-32c0,0,14.2,23.9,24.5,32.4
				c10.5,8.6,24.6,18.8,37.9,24.6c14.5,6.3,32.1,10.5,48.9,13.2c18.9,3.1,46.4,3.1,65.3,0c16.8-2.7,36.2-6.9,50.7-13.2
				c13.2-5.8,25.5-15.9,36-24.6c10.3-8.5,24.5-32.4,24.5-32.4l107.2,32l8.7,89.7l-158,18.2l-103.3,12.4L607.6,243.2"/>
			<path id="Trauma-Plates_Neck_Legacy_F_ToggleOff" d="M722.7,192.3c7.9-0.4,15.4-1.1,22-2.2
				c18.3-3,39.4-7.7,55.1-14.5c14.7-6.4,28.5-17.5,40.3-27.2c6.7-5.5,14.8-16.5,20.7-25.1l82.4,24.6l6,61.4l-140.6,16.2
				c0,0-0.1,0-0.1,0l-85.9,10.3V192.3z M690.9,235.8l-81-9.7c0,0-0.1,0-0.1,0l-144.4-16.6l8.8-61.4l83-24.8
				c5.9,8.6,14,19.6,20.7,25.1c11.7,9.6,27.4,20.8,42.1,27.2c15.8,6.9,35,11.6,53.3,14.5c5.3,0.9,11.3,1.5,17.5,1.9V235.8z"/>
		</g>
	</g>
	<g id="Chest_Heavy_F">
		<g id="Abdomen_Heavy_F">
			<g id="Under-Plates_Abdomen_Heavy_F">
				<rect x="604.3" y="664.3" width="205.2" height="26.2"/>
				<rect x="604.3" y="690.5" width="205.2" height="26.2"/>
				<rect x="604.3" y="716.7" width="205.2" height="26.2"/>
				<rect x="604.3" y="742.9" width="205.2" height="26.2"/>
				<rect x="604.3" y="769.1" width="205.2" height="26.2"/>
			</g>
			<g id="Abdomen-Plate_Heavy_F">
				<path d="M643.9,579.7l-102.3,43.4l-9.6-23.3l111.9-47.5V579.7z"/>
				<path d="M577.5,710.2l-35.9-87.1l102.3-43.4l32,91.6L577.5,710.2z"/>
				<path d="M532,599.8l-43,7.5l63.4,150.8l43.3-8.6L532,599.8z"/>
				<path d="M770,579.7l102.3,43.4l9.6-23.3L770,552.3V579.7z"/>
				<path d="M836.4,710.2l35.9-87.1L770,579.7l-32,91.6L836.4,710.2z"/>
				<path d="M881.9,599.8l43,7.5l-63.4,150.8l-43.3-8.6L881.9,599.8z"/>
				<rect x="644.3" y="552.3" width="125.4" height="27.4"/>
				<path d="M675.9,671.3l-32-91.6h126l-32,91.6H675.9z"/>
			</g>
		</g>
		<g id="Neck-Armor_Heavy_F">
			<g id="Neck-Plate_Heavy_F">
				<path d="M566,123.7l-88.6,19.5c0,0,9.6,37.7,15.5,60.4c2.4,9.4,11.8,15.2,21.3,13.1c15.3-3.4,37.8-8.3,53.4-11.7
					c4.8-1,8.9-4,11.5-8.1c2.6-4.2,3.3-9.2,2.1-13.9C575.3,160,566,123.7,566,123.7z"/>
				<path d="M847.9,123.7l88.6,19.5c0,0-9.6,37.7-15.5,60.4c-2.4,9.4-11.8,15.2-21.3,13.1c-15.3-3.4-37.8-8.3-53.4-11.7
					c-4.8-1-8.9-4-11.5-8.1c-2.6-4.2-3.3-9.2-2.1-13.9C838.6,160,847.9,123.7,847.9,123.7z"/>
			</g>
			<g id="Secondary_Neck-Plate_Heavy_F">
				<path d="M543.9,125.3l-44.6,9.8c0,0,6.4,25.1,9.9,38.6c1.2,4.7,5.9,7.5,10.6,6.5c7.8-1.7,19.2-4.2,27.2-6
					c2.4-0.5,4.4-2,5.7-4c1.3-2.1,1.6-4.5,1-6.9C550.2,149.7,543.9,125.3,543.9,125.3z"/>
				<path d="M870,125.3l44.6,9.8c0,0-6.4,25.1-9.9,38.6c-1.2,4.7-5.9,7.5-10.6,6.5c-7.8-1.7-19.2-4.2-27.2-6
					c-2.4-0.5-4.4-2-5.7-4c-1.3-2.1-1.6-4.5-1-6.9C863.7,149.7,870,125.3,870,125.3z"/>
			</g>
		</g>
		<g id="Full-Chest_Heavy_F">
			<path id="Under-Plate_Chest_Heavy_F" d="M757.5,521.4H656.3l-25.4,21.8v14.6l13.3-5.5h125.4l13.3,5.6v-14.7
				L757.5,521.4z"/>
			<g id="Chest-Plate_Heavy_F">
				<path d="M529.9,587.1l89.8-52.1l12.2-24.7l23.9,3.2h102.3l23.9-3.2l12.2,24.7l89.8,52.1l41.7,9.1l-1.1,15.3
					l-44.6-7.8l-97-40.5v-20.1l-25.4-21.8H656.3l-25.4,21.8v20.1l-97,40.5l-44.6,7.8l-1.1-15.3L529.9,587.1z"/>
				<path d="M925.7,596.2l52-133.4l7.6,27.3l-16.5,99.2L925.7,596.2z"/>
				<path d="M428.6,490.1l7.6-27.3l52,133.4l-43.1-6.9L428.6,490.1z"/>
				<path d="M486.8,410.8v-55.7l-4.3-100l25.9-28.7l78.4-16.3l20.3,23.8h199.7l20.3-23.8l78.4,16.3l25.9,28.7l-4.2,97.5
					l-0.1-0.2v58.4L782,510.3l-23.9,3.2H655.8l-23.9-3.2L486.8,410.8z"/>
				<path d="M927.1,355.1v55.7l50.5,52L927.1,355.1z"/>
				<path d="M631.9,510.3l-145.1-99.5l-50.5,52l52,133.4l41.7-9.1l89.8-52.1L631.9,510.3z"/>
				<path d="M977.6,462.8l-52,133.4l-41.7-9.1L794.2,535L782,510.3l145.1-99.5L977.6,462.8z"/>
				<path d="M968.8,589.4L967,600l-42.4,11.5l1.1-15.3L968.8,589.4z"/>
				<path d="M486.8,355.1v55.7l-50.5,52L486.8,355.1z"/>
				<path d="M482.5,255.1c-0.5,51.3-6.6,102.5-21,153.8l25.3-53.9L482.5,255.1z"/>
				<path d="M931.4,255.1c0.5,51.3,6.6,102.5,21,153.8l-25.3-53.9L931.4,255.1z"/>
				<path d="M488.2,596.2l1.1,15.3L446.9,600l-1.8-10.6L488.2,596.2z"/>
			</g>
			<g id="Accents_Chest-Plate_Heavy_F_ToggleOn">
				<g id="Accent-3_Accents_Chest-Plate_Heavy_F">
					<path d="M825.6,353.7l-5.3-16.6h24.2l-5.3,16.6H825.6z"/>
					<path d="M825.6,385.8l-5.3-16.6h24.2l-5.3,16.6H825.6z"/>
					<rect x="810" y="255" width="45.4" height="5"/>
					<rect x="810" y="270.9" width="45.4" height="5"/>
				</g>
				<path id="Accent-2_Accents_Chest-Plate_Heavy_F" d="M571.6,209.2c-0.3-3.5-3.3-6.2-6.8-5.9
					c-9.9,0.6-28.9,1.9-38.9,2.5c-1.7,0.1-3.3,0.9-4.4,2.2c-1.1,1.3-1.7,3-1.6,4.7c1.1,14.5,3.7,49.4,4.8,63.8
					c0.3,3.5,3.3,6.2,6.8,5.9c9.9-0.6,28.9-1.9,38.9-2.5c1.7-0.1,3.3-0.9,4.4-2.2c1.1-1.3,1.7-3,1.6-4.7
					C575.3,258.6,572.7,223.6,571.6,209.2z"/>
				<g id="Accent-1_Accents_Chest-Plate_Heavy_F">
					<path d="M565.6,208.5l-39.9,2.6l5,66.2l39.9-2.6L565.6,208.5z"/>
					<path d="M561.3,213.7l-30.4,2l0.7,9.5l30.4-2L561.3,213.7z"/>
					<path d="M535.7,224.8l-4.2,0.3l3.9,51.8l4.2-0.3L535.7,224.8z"/>
					<path d="M540.1,224.6l-4.2,0.3l3.9,51.8l4.2-0.3L540.1,224.6z"/>
					<path d="M562,223.1l-4.2,0.3l3.9,51.8l4.2-0.3L562,223.1z"/>
					<path d="M557.6,223.4l-4.2,0.3l3.9,51.8l4.2-0.3L557.6,223.4z"/>
					<path d="M548.8,224l-4.2,0.3l3.9,51.8l4.2-0.3L548.8,224z"/>
					<path d="M553.2,223.7l-4.2,0.3l3.9,51.8l4.2-0.3L553.2,223.7z"/>
					<path d="M544.5,224.3l-4.2,0.3l3.9,51.8l4.2-0.3L544.5,224.3z"/>
				</g>
			</g>
		</g>
		<g id="Iron-Heart_Heavy_F">
			<path id="Heart_Heavy_F" d="M706.9,307.4l29.8,27.6v54.2l-29.8,27.6l-29.8-27.6V335L706.9,307.4z"/>
			<g id="None_Heart_Heavy_F_Option">
			</g>
			<g id="Center_Heart_Heavy_F_Option">
				<rect x="696.1" y="335.9" width="21.7" height="26.3"/>
				<rect x="696.1" y="362.1" width="3.6" height="26.3"/>
				<rect x="710.5" y="362.1" width="3.6" height="26.3"/>
				<rect x="714.2" y="362.1" width="3.6" height="26.3"/>
				<rect x="703.3" y="362.1" width="3.6" height="26.3"/>
				<rect x="706.9" y="362.1" width="3.6" height="26.3"/>
				<rect x="699.6" y="362.1" width="3.6" height="26.3"/>
			</g>
		</g>
	</g>
	<g id="Chest_Gunslinger_F">
		<g id="Abdomen_Gunslinger_F">
			<g id="Left_Abdomen_Gunslinger_F">
				<path d="M832.7,695l64.8-116.7l-33.7-47.6l-2.7-5.8l-36.8,4.6l-15.1,179.9L832.7,695z"/>
				<path d="M832.7,695l64.8-116.7l17,24l22.4-17.9l-6,80L832.7,695z"/>
			</g>
			<g id="Right_Abdomen_Gunslinger_F">
				<path d="M581.2,695l-64.8-116.7l-17,24l-22.4-17.9l6,80L581.2,695z"/>
				<path d="M581.2,695l-64.8-116.7l33.7-47.6l2.7-5.8l36.8,4.6l15.1,179.9L581.2,695z"/>
			</g>
			<path id="Center_Abdomen_Gunslinger_F" d="M706.9,491.1l117.4,38.4l-15.1,179.9l-17.9,10.9l-84.3-4.6l-84.3,4.6
				l-17.9-10.9l-15.1-179.9L706.9,491.1z"/>
		</g>
		<g id="Chest-Plates_Gunslinger_F">
			<g id="Left-Chest_Gunslinger_F">
				<path d="M713.7,289.2v-27.7l22.7-22.7l218.1-24.8l19.6,121.8l-32.5,244.8l-27,21.6l-50.7-71.7l-14.2-30.4
					l-135.3-41.3l35.2-35.2V321.7L713.7,289.2z"/>
				<path d="M849.6,500.2l99.7-58.9l24.8-105.3l-21.9,113.2l-88.3,81.3L849.6,500.2z"/>
				<path d="M861.1,524.9l-36.8,4.6l-117.4-38.4v-34l142.7,43.1L861.1,524.9z"/>
			</g>
			<g id="Right-Chest_Gunslinger_F">
				<path d="M700.2,289.2v-27.7l-22.7-22.7l-218.1-24.8l-19.6,121.8l32.5,244.8l27,21.6l50.7-71.7l14.2-30.4l135.3-41.3
					l-35.2-35.2V321.7L700.2,289.2z"/>
				<path d="M564.3,500.2l-99.7-58.9l-24.8-105.3l21.9,113.2l88.3,81.3L564.3,500.2z"/>
				<path d="M552.7,524.9l36.8,4.6l117.4-38.4v-34l-142.7,43.1L552.7,524.9z"/>
			</g>
		</g>
		<g id="Iron-Heart_Gunslinger_F">
			<path id="Under-Heart_Gunslinger_F" d="M699.5,458.9l-35.2-35.2V321.7l35.8-32.5v-27.7h13.5v27.7l35.8,32.5v102.1
				l-35.2,35.2l-7.4-1.9L699.5,458.9z"/>
			<path id="Heart_Gunslinger_F" d="M681,415.4v-84.5l25.9-25.9l25.9,25.9v84.5l-25.9,25.9L681,415.4z"/>
			<g id="None_Heart_Gunslinger_F_Option">
			</g>
			<rect id="Center_Heart_Gunslinger_F_Option" x="699.3" y="336.1" width="15.3" height="74.2"/>
		</g>
	</g>
	<g id="Chest_Gunslinger-MK1_F">
		<path id="Abdomen_Gunslinger-MK1_F" d="M919.3,592.2l-2.2,19.8c0,0-87.7,56.5-123.2,77c-32.8,19-58.1,22.8-87.2,22.8
			s-54.4-3.9-87.2-22.8c-35.4-20.5-123.2-77-123.2-77l-2.2-19.8H919.3z"/>
		<g id="Chest-Plates_Gunslinger-MK1_F">
			<g id="Left-Chest_Gunslinger-MK1_F">
				<g id="Bottom_Left-Chest_Gunslinger-MK1_F">
					<path d="M972.6,408.6l-37.3,18.7L731.4,542l18.4,36.4h176.5L972.6,408.6z"/>
					<path d="M720.7,549.3l29.1,29.1L731.4,542L720.7,549.3z"/>
				</g>
				<g id="Top_Left-Chest_Gunslinger-MK1_F">
					<path d="M742.1,224.5v47.3l31.5,69.7l-42.2,90.9l0,109.7l203.9-114.8l-16.7-202.7H742.1z"/>
					<path d="M935.3,427.3l37.3-18.7l-14.3-201.3l-39.7,17.2L935.3,427.3z"/>
					<path d="M725.1,205.1l233.2,2.2l-39.7,17.2H742.1L725.1,205.1z"/>
					<path d="M725.1,205.1v66l17,0.7v-47.3L725.1,205.1z"/>
					<path d="M761.4,342.6l12.2-1.1l-31.5-69.7l-17-0.7L761.4,342.6z"/>
					<path d="M720.7,427.3l10.7,5.1l42.2-90.9l-12.2,1.1L720.7,427.3z"/>
					<path d="M731.4,542l-10.7,7.3V427.3l10.7,5.1V542z"/>
				</g>
			</g>
			<g id="Right-Chest_Gunslinger-MK1_F">
				<g id="Bottom_Right-Chest_Gunslinger-MK1_F">
					<path d="M441,408.6l37.3,18.7L682.1,542l-18.4,36.4H487.2L441,408.6z"/>
					<path d="M692.8,549.3l-29.1,29.1l18.4-36.4L692.8,549.3z"/>
				</g>
				<g id="Top_Right-Chest_Gunslinger-MK1_F">
					<path d="M671.5,224.5v47.3L640,341.5l42.2,90.9l0,109.7L478.3,427.3L495,224.5H671.5z"/>
					<path d="M478.3,427.3L441,408.6l14.3-201.3l39.7,17.2L478.3,427.3z"/>
					<path d="M688.4,205.1l-233.2,2.2l39.7,17.2h176.5L688.4,205.1z"/>
					<path d="M688.4,205.1v66l-17,0.7v-47.3L688.4,205.1z"/>
					<path d="M652.2,342.6l-12.2-1.1l31.5-69.7l17-0.7L652.2,342.6z"/>
					<path d="M692.8,427.3l-10.7,5.1L640,341.5l12.2,1.1L692.8,427.3z"/>
					<path d="M682.1,542l10.7,7.3V427.3l-10.7,5.1V542z"/>
				</g>
			</g>
		</g>
		<g id="Iron-Heart_Gunslinger-MK1_F">
			<path id="Under-Heart_Gunslinger-MK1_F" d="M502.3,592.2l-8.1-13.7H663l29.1-29.1V427.3l-40.7-84.7l36.3-71.5v-57
				h38.1v57l36.3,71.5l-40.7,84.7v122.1l29.1,29.1h168.7l-8.1,13.7H502.3z"/>
			<g id="Heart_Gunslinger-MK1_F">
				<path d="M697.8,415.7l-35.3-72.2l30.6-59.3h27.4l30.6,59.3l-35.3,72.2H697.8z"/>
				<path d="M700.8,410.3l-32.2-65.8l28-54.3l20.4,0.2l27.9,54l-32.2,65.9L700.8,410.3z"/>
			</g>
			<g id="None_Heart_Gunslinger-MK1_F_Option">
			</g>
			<rect id="Center_Heart_Gunslinger-MK1_F_Option" x="702.3" y="309.1" width="8.9" height="101.3"/>
		</g>
	</g>
	<g id="Chest_Galaxy_F">
		<g id="Abdomen_Galaxy_F">
			<path id="Abdomen-Plate_Galaxy_F" d="M637.5,724.7l-20.6,15l-104.9-15l-7.6-58l49.7-1l30.1-49.2l13.7-45.3
				l108.8-99.6l0.2,0.2l0.2-0.2l108.8,99.6l13.7,45.3l30.1,49.2l49.7,1l-7.6,58l-104.9,15l-20.6-15H637.5z"/>
			<path id="Trauma-Plate_Abdomen_Galaxy_F_ToggleOff" d="M706.6,494.5l-94,86l-12.9,42.9l-36,58.9l-40,0.8l3.5,26.6
				l85.5,12.2l19.5-14.2h149.4L801,722l85.5-12.2l3.5-26.6l-40-0.8l-36-58.9L801,580.6l-94-86l-0.2,0.2L706.6,494.5z"/>
		</g>
		<g id="Full-Chest_Galaxy_F">
			<path id="Chest-Plate_Galaxy_F" d="M663.1,327.1l-0.2,101.4l31.9,32.2L583,566.7l-14.5,48.9l-23.7,39h-40.9l-19.9-29
				l-25.3-142.1l-37.1-58.1l47-152l54.2-6.9l7.6-33.6l58.1-7.1l18.3,30h199.7l18.3-30l58.1,7.1l7.6,33.6l54.2,6.9l47,152l-37.1,58.1
				l-25.3,142.1l-19.9,29h-40.9l-23.7-39l-14.5-48.9L718.8,460.8l31.9-32.2l-0.2-101.4l-43.7-34L663.1,327.1z"/>
			<path id="Trauma-Plating_Left-Chest_Galaxy_F_ToggleOff" d="M816.1,272.7H708l59.3,46.2l0.2,116.6l-24.6,24.9
				l102.5,97.2l15.2,51.1l17.6,29h22.5l12.8-18.7l25.3-141.8l34.7-54.3L932,288.8l-55.2-7l-7.6-33.6l-35.5-4.3L816.1,272.7z"/>
			<path id="Trauma-Plating_Right-Chest_Galaxy_F_ToggleOff" d="M579.8,243.9l-35.5,4.3l-7.6,33.6l-55.2,7l-41.5,134.1
				l34.7,54.3L500,619l12.8,18.7h22.5l17.6-29l15.2-51.1l102.5-97.2L646,435.5l0.2-116.6l59.3-46.2H597.4L579.8,243.9z"/>
			<g id="Accents_Chest-Plate_Galaxy_F_ToggleOn">
				<rect x="817.3" y="305.2" width="91.9" height="12.2"/>
				<rect x="817.3" y="326.7" width="91.9" height="12.2"/>
			</g>
		</g>
		<g id="Iron-Heart_Galaxy_F">
			<path id="Heart_Galaxy_F" d="M680,425.7v-91.3l26.8-21l26.8,21v91.3l-26.8,27.1L680,425.7z"/>
			<g id="None_Heart_Galaxy_F_Option">
			</g>
			<rect id="Center_Heart_Galaxy_F_Option" x="697.5" y="348.4" width="18.6" height="62.5"/>
		</g>
		<g id="Neck-Armor_Galaxy_F">
			<g id="Neck-Plate_Galaxy_F">
				<path d="M684.4,245.9l-73.5,1.2l-18.1-29.7l-70.1,8.4l-7,30.7l-44.9,5.6l-33.1-114.2l114.8-34.4
					c0,0,15.2,25.7,26.2,34.9c11.3,9.3,26.4,20.2,40.6,26.4c15.5,6.8,34.4,11.3,52.4,14.2c1.9,0.3,3.8,0.6,5.8,0.8L684.4,245.9z"/>
				<path d="M729.1,245.9l73.5,1.2l18.1-29.7l70.1,8.4l7,30.7l44.9,5.6l33.1-114.2L861,113.5c0,0-15.2,25.7-26.2,34.9
					c-11.3,9.3-26.4,20.2-40.6,26.4c-15.5,6.8-34.4,11.3-52.4,14.2c-1.9,0.3-3.8,0.6-5.8,0.8L729.1,245.9z"/>
			</g>
			<g id="Trauma-Plates_Neck_Galaxy_F_ToggleOff">
				<path d="M868.3,133.3c-6.2,9.3-15.4,22-22.8,28.1c-12.4,10.2-29,22.1-44.5,28.9c-14.8,6.5-32.4,11.1-49.7,14.3
					l-3,24.8l45.1,0.7l18.7-30.7l92.7,11.1l7,30.8l18.9,2.3l24.5-84.3L868.3,133.3z"/>
				<path d="M545.3,133.3l-86.6,26l24.5,84.3l18.9-2.3l7-30.8l92.7-11.1l18.7,30.7l45.1-0.7l-3-24.8
					c-17.3-3.2-35-7.8-49.7-14.3c-15.5-6.8-32.2-18.7-44.5-28.9C560.7,155.3,551.5,142.6,545.3,133.3z"/>
			</g>
		</g>
	</g>
</g>
<g id="Chest-Attachments_F">
	<g id="Pilot-Box_Accessories_Chest_F_Option">
		<g id="Main_Pilot-Box_Accessories_Chest_F">
			<rect x="607.5" y="295" width="49.3" height="79.5"/>
			<rect x="577.5" y="431.9" width="259.7" height="8.8"/>
			<path d="M837.2,275.5c0-2.8-1.1-5.4-3.1-7.4c-2-2-4.6-3.1-7.4-3.1H588c-2.8,0-5.4,1.1-7.4,3.1c-2,2-3.1,4.6-3.1,7.4
				c0,36.5,0,156.4,0,156.4h259.7V275.5z"/>
			<path d="M837.2,440.7H577.5l16,23.8h227.7L837.2,440.7z"/>
			<rect x="597.5" y="461.4" width="85" height="82"/>
			<rect x="577.9" y="477.8" width="19.7" height="49.3"/>
			<rect x="817" y="477.8" width="19.7" height="49.3"/>
			<rect x="732.4" y="461.4" width="84.9" height="82"/>
			<rect x="682.5" y="461.4" width="11.3" height="82"/>
			<rect x="721" y="461.4" width="11.3" height="82"/>
		</g>
		<g id="Parts-2_Pilot-Box_Accessories_Chest_F">
			<rect x="558.2" y="480" width="19.7" height="44.9"/>
			<rect x="836.6" y="480" width="19.7" height="44.9"/>
			<rect x="693.9" y="459.1" width="27" height="86.7"/>
			<path d="M750,285H597.5v99.5H750V285z M656.9,295h-49.3v79.5h49.3V295z"/>
		</g>
		<g id="Parts-1_Pilot-Box_Accessories_Chest_F">
			<circle cx="632.2" cy="317.1" r="12.1"/>
			<circle cx="632.2" cy="352" r="12.1"/>
			<g>
				<g>
					<path d="M558.2,484.9l-46.1,0.9c-6.5,0-11.4-0.2-14-3.4c-1.7-2.1-1.9-5.1-2-8.6c-0.2-6.6,1.1-14.5,3.1-23.5
						c12.3-53.8,51.7-139.9,56.4-233.9c3.4-69-18.2-178.1-18.2-178.1c-1.9-9.4-11-15.5-20.4-13.6c-9.4,1.9-15.5,11-13.6,20.4
						c0,0,20.8,103.8,17.6,169.5c-3.1,63.3-23,122.8-38.6,170.6C471,419.9,462,449,461.4,469.7c-0.5,16,3.6,28.2,11.7,36.8
						c7.9,8.3,20.3,14,39.4,14c0.3,0,45.7-0.9,45.7-0.9V484.9z"/>
					<path d="M514,110.6l34.6-2.9"/>
					<path d="M511,89.8l34.6-3.1"/>
					<path d="M517,134.9l34.5-2.9"/>
					<path d="M519.5,161.1l34.6-2.9"/>
					<path d="M521.3,187.1l34.6-2.9"/>
					<path d="M521.3,208.1l34.6,0.6"/>
					<path d="M519.9,228.9l34.5,4.8"/>
					<path d="M517.4,250.3l34.1,6.4"/>
					<path d="M513.7,272.4l33.4,9.9"/>
					<path d="M508.6,296l33.4,9.3"/>
					<path d="M503.5,316.1l33.6,8.4"/>
					<path d="M497.3,338l33.9,7.1"/>
					<path d="M491,358.2l33.4,9"/>
					<path d="M484.5,378.4l33.1,10.2"/>
					<path d="M477,401.8l33.5,9"/>
					<path d="M470.1,424.5l33.3,9.7"/>
					<path d="M463.9,449.4l35.3,1"/>
					<path d="M461.4,476.6l35.2-12.5"/>
					<path d="M470.1,502.9l26.2-26.3"/>
					<path d="M492.1,517.8l7.1-34.4"/>
					<path d="M515.9,520.5l0.7-34.8"/>
					<path d="M538.2,520v-34.8"/>
				</g>
				<g>
					<path d="M856.3,484.9l46.1,0.9c6.5,0,11.4-0.2,14-3.4c1.7-2.1,1.9-5.1,2-8.6c0.2-6.6-1.1-14.5-3.1-23.5
						c-12.3-53.8-51.7-139.9-56.4-233.9c-3.4-69,18.2-178.1,18.2-178.1c1.9-9.4,11-15.5,20.5-13.6c9.4,1.9,15.5,11,13.6,20.4
						c0,0-20.8,103.8-17.6,169.5c3.1,63.3,23,122.8,38.6,170.6c11.3,34.6,20.2,63.7,20.9,84.4c0.5,16-3.6,28.2-11.7,36.8
						c-7.9,8.3-20.3,14-39.4,14c-0.3,0-45.7-0.9-45.7-0.9V484.9z"/>
					<path d="M900.5,110.6l-34.6-2.9"/>
					<path d="M903.5,89.8l-34.6-3.1"/>
					<path d="M897.5,134.9L863,132"/>
					<path d="M895,161.1l-34.6-2.9"/>
					<path d="M893.3,187.1l-34.6-2.9"/>
					<path d="M893.3,208.1l-34.6,0.6"/>
					<path d="M894.7,228.9l-34.5,4.8"/>
					<path d="M897.1,250.3l-34.1,6.4"/>
					<path d="M900.8,272.4l-33.4,9.9"/>
					<path d="M905.9,296l-33.4,9.3"/>
					<path d="M911,316.1l-33.6,8.4"/>
					<path d="M917.2,338l-34,7.1"/>
					<path d="M923.5,358.2l-33.4,9"/>
					<path d="M930,378.4l-33.1,10.2"/>
					<path d="M937.5,401.8l-33.5,9"/>
					<path d="M944.4,424.5l-33.3,9.7"/>
					<path d="M950.6,449.4l-35.3,1"/>
					<path d="M953.1,476.6l-35.2-12.5"/>
					<path d="M944.4,502.9l-26.2-26.3"/>
					<path d="M922.4,517.8l-7.1-34.4"/>
					<path d="M898.7,520.5l-0.7-34.8"/>
					<path d="M876.3,520v-34.8"/>
				</g>
			</g>
			<rect x="664.7" y="494.6" width="23.5" height="15.7"/>
			<rect x="726.3" y="494.6" width="23.5" height="15.7"/>
			<path d="M551.2,36.4c0-6.6-5.4-12-12-12h-27.1c-6.6,0-12,5.4-12,12v24c0,6.6,5.4,12,12,12h27.1c6.6,0,12-5.4,12-12
				V36.4z"/>
			<rect x="512.1" y="24.4" width="3.7" height="48"/>
			<path d="M863.3,36.4c0-6.6,5.4-12,12-12h27.1c6.6,0,12,5.4,12,12v24c0,6.6-5.4,12-12,12h-27.1c-6.6,0-12-5.4-12-12
				V36.4z"/>
			<rect x="898.7" y="24.4" width="3.7" height="48"/>
		</g>
		<g id="Buttons-2_Pilot-Box_Accessories_Chest_F">
			<circle cx="662.5" cy="406.8" r="6"/>
			<rect x="784.1" y="345.2" width="16" height="39.3"/>
			<rect x="684.5" y="295" width="55.5" height="12.5"/>
			<rect x="717.3" y="310.5" width="22.7" height="12.5"/>
			<circle cx="705" cy="406.8" r="6"/>
		</g>
		<g id="Buttons-1_Pilot-Box_Accessories_Chest_F">
			<rect x="784.1" y="285" width="16" height="39.3"/>
			<rect x="684.5" y="310.5" width="22.7" height="12.5"/>
			<circle cx="642.5" cy="406.8" r="6"/>
			<circle cx="683" cy="406.8" r="6"/>
		</g>
	</g>
	<g id="Bandoleer_Accessories_Chest_F_Option">
		<g id="Strap_Bandoleer_Accessories_Chest_F">
			<path d="M1001.1,152.9l-69.8-34.1L543.6,821.7l70,38.6L1001.1,152.9"/>
			<path d="M982.1,140l-26.6-12.4l-88.4,160.2l25.6,14.1L982.1,140"/>
			<path d="M856.8,371.3l-29.3-16.1L691.7,601.5l29.2,16.1L856.8,371.3"/>
			<path d="M859.7,380.6l-41.5-22.9l-13.6,24.7l41.5,22.9L859.7,380.6"/>
			<path d="M843.2,410.5l-41.5-22.9l-13.6,24.7l41.5,22.9L843.2,410.5"/>
			<path d="M826.7,440.4l-41.5-22.9l-13.6,24.7l41.5,22.9L826.7,440.4"/>
			<path d="M810.2,470.3l-41.5-22.9l-13.6,24.7l41.5,22.9L810.2,470.3"/>
			<path d="M793.7,500.2l-41.5-22.9L738.6,502l41.5,22.9L793.7,500.2"/>
			<path d="M760.7,560l-41.5-22.9l-13.6,24.7l41.5,22.9L760.7,560"/>
			<path d="M777.2,530.1l-41.5-22.9l-13.6,24.7l41.5,22.9L777.2,530.1"/>
			<path d="M744.2,589.9L702.7,567l-13.6,24.7l41.5,22.9L744.2,589.9"/>
		</g>
		<g id="Ammo_Bandoleer_Accessories_Chest_F">
			<g>
				<g>
					<path d="M858.2,383.2l17,9.4c1.8,1,2.5,3.3,1.5,5.1c-1.9,3.5-5,9.1-7,12.6c-1,1.8-3.3,2.5-5.1,1.5l-17-9.4
						L858.2,383.2z"/>
					<path d="M870.7,390.1l-1.4-0.8l-10.6,19.2l1.4,0.8L870.7,390.1z"/>
					<path d="M867.8,388.4l-1.4-0.8l-10.6,19.2l1.4,0.8L867.8,388.4z"/>
				</g>
				<g>
					<path d="M816.7,360.3l-10.6,19.2l-17-9.4c-1.8-1-2.5-3.3-1.5-5.1c1.9-3.5,5-9.1,7-12.6c1-1.8,3.3-2.5,5.1-1.5
						L816.7,360.3z"/>
					<path d="M803.8,353.2l-1.4-0.8l-10.6,19.2l1.4,0.8L803.8,353.2z"/>
				</g>
			</g>
			<g>
				<g>
					<path d="M825.1,443.2l17,9.4c1.8,1,2.5,3.3,1.5,5.1c-1.9,3.5-5,9.1-7,12.6c-1,1.8-3.3,2.5-5.1,1.5l-17-9.4
						L825.1,443.2z"/>
					<path d="M837.7,450.1l-1.4-0.8l-10.6,19.2l1.4,0.8L837.7,450.1z"/>
					<path d="M834.7,448.5l-1.4-0.8l-10.6,19.2l1.4,0.8L834.7,448.5z"/>
				</g>
				<g>
					<path d="M783.6,420.3L773,439.5l-17-9.4c-1.8-1-2.5-3.3-1.5-5.1c1.9-3.5,5-9.1,7-12.6c1-1.8,3.3-2.5,5.1-1.5
						L783.6,420.3z"/>
					<path d="M770.8,413.2l-1.4-0.8l-10.6,19.2l1.4,0.8L770.8,413.2z"/>
				</g>
			</g>
			<g>
				<g>
					<path d="M808.7,472.9l17,9.4c1.8,1,2.5,3.3,1.5,5.1c-1.9,3.5-5,9.1-7,12.6c-1,1.8-3.3,2.5-5.1,1.5l-17-9.4
						L808.7,472.9z"/>
					<path d="M821.2,479.8l-1.4-0.8l-10.6,19.2l1.4,0.8L821.2,479.8z"/>
					<path d="M818.3,478.2l-1.4-0.8l-10.6,19.2l1.4,0.8L818.3,478.2z"/>
				</g>
				<g>
					<path d="M767.2,450l-10.6,19.2l-17-9.4c-1.8-1-2.5-3.3-1.5-5.1c1.9-3.5,5-9.1,7-12.6c1-1.8,3.3-2.5,5.1-1.5
						L767.2,450z"/>
					<path d="M754.3,442.9l-1.4-0.8l-10.6,19.2l1.4,0.8L754.3,442.9z"/>
				</g>
			</g>
			<g>
				<g>
					<path d="M792.1,503l17,9.4c1.8,1,2.5,3.3,1.5,5.1c-1.9,3.5-5,9.1-7,12.6c-1,1.8-3.3,2.5-5.1,1.5l-17-9.4L792.1,503
						z"/>
					<path d="M804.7,509.9l-1.4-0.8l-10.6,19.2l1.4,0.8L804.7,509.9z"/>
					<path d="M801.7,508.3l-1.4-0.8l-10.6,19.2l1.4,0.8L801.7,508.3z"/>
				</g>
				<g>
					<path d="M750.6,480.1L740,499.3l-17-9.4c-1.8-1-2.5-3.3-1.5-5.1c1.9-3.5,5-9.1,7-12.6c1-1.8,3.3-2.5,5.1-1.5
						L750.6,480.1z"/>
					<path d="M737.8,473l-1.4-0.8l-10.6,19.2l1.4,0.8L737.8,473z"/>
				</g>
			</g>
		</g>
		<g id="Buckles_Bandoleer_Accessories_Chest_F">
			<g>
				<path d="M905.1,285.1l-30.5-16.8l-17.2,31.3l30.5,16.8L905.1,285.1z"/>
				<path d="M897.3,290.4l-23-12.7L857.1,309l23,12.7L897.3,290.4z"/>
			</g>
			<path d="M905.2,248.5l-19.7-10.8l17.1-31.1l39.8,21.9l-17.1,31.1L905.2,248.5l3.9-7l11.2,6.2l9.4-17.1l-22-12.1
				l-9.4,17.1l10.8,5.9"/>
		</g>
	</g>
	<g id="No-Device_Accessories_Chest_F_Option">
	</g>
</g>
<g id="Collar_F_ToggleOff">
	<g id="Armored_Collar_F_Option">
		<path id="Main_Pauldron_Collar_Center_F" d="M536.6,111.8c0,0,39,56.7,170.2,56.7c131.2,0,170.2-56.7,170.2-56.7
			l164.8,48.9c-92.6,141-335,139.6-335,139.6s-241.6,2.7-335-139.6L536.6,111.8z"/>
		<path id="Center-Plate_Pauldron_Collar_Center_F" d="M643.4,180.4c18.5,3,39.5,4.8,63.4,4.8c23.9,0,44.9-1.8,63.4-4.8
			l25.4,94.9c-51,8.5-88.7,8.3-88.7,8.3c-0.1,0-0.2,0-0.3,0c0,0-37.7,0.4-88.7-8L643.4,180.4z"/>
		<g id="Plates_Pauldron_Collar_Center_F">
			<path d="M553.2,148.3c16.3,10.5,40.2,21.7,73.7,29l-25.5,95.3c-20.9-4-43.4-9.6-66.1-17.2c-21-7-42.3-15.8-62.5-26.8
				L553.2,148.3z"/>
			<path d="M458,220c-21.8-13.5-41.9-30-58.6-50.1l131.8-39.1c2.3,2.3,5.1,4.8,8.4,7.6L458,220z"/>
			<path d="M859.9,148.3c-16.3,10.5-40.2,21.7-73.7,29l25.5,95.3c20.9-4,43.4-9.6,66.1-17.2c21-7,42.3-15.8,62.5-26.8
				L859.9,148.3z"/>
			<path d="M955.2,220c21.8-13.5,41.9-30,58.6-50.1L882,130.8c-2.3,2.3-5.1,4.8-8.4,7.6L955.2,220z"/>
		</g>
	</g>
	<g id="Cloth-Wrap-Left_Collar_F_Option">
		<g id="Main_Cloth-Wrap-Left_Collar_F">
			<path d="M600.6,217c-47.5-14.9-56.1-38.8-58.9-62.9c-1.2-9.8,12.9-35.5-1.6-42.1c-16.4-7.5-55.1,4.3-71.1,7.7
				c-11.8,2.5-22.4,14.5-34.5,14.7c-27.9,0.3-50.1,30.8-52.6,44.8c-3.5,19.5,31,5.7,47.2,20.6c40.4,37,54.5,87.2,139.5,101
				c39,6.3,77.7-2.6,113.9-10.7c93.6-20.9,144.6-38.8,204.8-85.3c26.3-20.3,66-36.9,65-64.1c0-1.2-19.2-12.6-21-13
				c-16.9-4.2-31.2-11.2-49.8-11.5c-11.1-0.2-9.3,9.4-10.1,13.7c-3.1,16.6-18.3,29.1-37.4,41.6C783.6,204.3,669.3,214.5,600.6,217z"
				/>
			<path d="M600.6,217c-12.6,0.5-23.6,2.4-33.2,3c-43.4,2.7-58.9-7.9-67.4-27.4"/>
			<path d="M465.5,120.2c-12.6,20.5-11,44.6-0.9,60.4"/>
			<path d="M830,178.6c-32.5,44.6-80.8,58.6-133.6,64"/>
			<path d="M918.1,123.8c-1.9,11.3-8.6,15.5-16.9,23c-4.8,4.4-10.6,7.5-14.4,12.8c-1.4,1.9-2.1,4.2-2.9,6.4"/>
		</g>
		<path id="Buckle_Cloth-Wrap-Left_Collar_F" d="M818.8,170.2l27.7-19.8l48,67l-27.7,19.8L818.8,170.2z"/>
	</g>
	<g id="Cloth-Wrap-Right_Collar_F_Option">
		<g id="Main_Cloth-Wrap-Right_Collar_F">
			<path d="M813,217c47.5-14.9,56.1-38.8,58.9-62.9c1.2-9.8-12.9-35.5,1.6-42.1c16.4-7.5,55.1,4.3,71.1,7.7
				c11.8,2.5,22.4,14.5,34.5,14.7c27.9,0.3,50.1,30.8,52.6,44.8c3.5,19.5-31,5.7-47.2,20.6c-40.4,37-54.5,87.2-139.5,101
				c-39,6.3-77.7-2.6-113.9-10.7c-93.6-20.9-144.6-38.8-204.8-85.3c-26.3-20.3-66-36.9-65-64.1c0-1.2,19.2-12.6,21-13
				c16.9-4.2,31.2-11.2,49.8-11.5c11.1-0.2,9.3,9.4,10.1,13.7c3.1,16.6,18.3,29.1,37.4,41.6C629.9,204.3,744.3,214.5,813,217z"/>
			<path d="M813,217c12.6,0.5,23.6,2.4,33.2,3c43.4,2.7,58.9-7.9,67.4-27.4"/>
			<path d="M948,120.2c12.6,20.5,11,44.6,0.9,60.4"/>
			<path d="M583.6,178.6c32.5,44.6,80.8,58.6,133.6,64"/>
			<path d="M495.5,123.8c1.9,11.3,8.6,15.5,16.9,23c4.8,4.4,10.6,7.5,14.4,12.8c1.4,1.9,2.1,4.2,2.9,6.4"/>
		</g>
		<path id="Buckle_Cloth-Wrap-Right_Collar_F" d="M594.7,170.2l-27.7-19.8l-48,67l27.7,19.8L594.7,170.2z"/>
	</g>
</g>
<g id="Shoulders_F">
	<g id="Left-Shoulder_F">
		<g id="None_Shoulder_Left_F_Option">
		</g>
		<g id="Pauldron_Shoulder_Left_F_Option">
			<path id="Main_Pauldron_Shoulder_Left_F" d="M837.5,161.2l295.7,140.1l142.5-148.5l-382.7-46.3L837.5,161.2z"/>
			<g id="Plate_Pauldron_Shoulder_Left_F">
				<path d="M1248.4,155.5l-119.3,123.9L868.4,155.9l42.3-41.8L1248.4,155.5z"/>
				<path d="M1253.5,150L917,109.3l3.8-4.4l334.9,39.3L1253.5,150z"/>
			</g>
		</g>
		<g id="Gunslinger-Bell_Shoulder_Left_F_Option">
			<path id="Main_Gunslinger-Bell_Shoulder_Left_F" d="M969.5,139c65.3-1.6,211.1,50.8,205.3,237.3l-0.8,36.8
				L1047,465.2L935.7,316.4l0-177.4L969.5,139z"/>
			<path id="Ridge_Gunslinger-Bell_Shoulder_Left_F_Toggle" d="M935.8,139L935.8,139l0-21.5
				c138.9-0.7,270.4,59.1,260.4,289.4l-21.3,5c-0.2-2.7-0.4-5.4-0.6-8l0.6-27.6c5.8-186.5-139.9-238.9-205.3-237.3l-7.2,0
				C947.9,137,938.1,137.5,935.8,139L935.8,139L935.8,139z"/>
			<g id="Trim_Gunslinger-Bell_Shoulder_Left_F_Toggle">
				<rect x="935.7" y="130.6" width="33.8" height="186"/>
				<path d="M969.5,305.2l-33.8,11.2l111.5,149l27-20.2L969.5,305.2z"/>
				<path d="M1058.4,424l-11.8,41.4l133.3-54.7v-36.5L1058.4,424z"/>
			</g>
		</g>
		<g id="Heavy-Bell_Shoulder_Left_F_Option">
			<path id="Bottom_Heavy-Bell_Shoulder_Left_F" d="M1179.3,360.3l14.9,51.8c-29.3,19.5-53.2,30.4-72,36.4
				c-12.7,4.1-26.4,2.8-38.2-3.5c-11.7-6.3-20.4-17.1-24-29.9c-1.6-5.5-2.6-9.3-2.6-9.3L1179.3,360.3z"/>
			<path id="Main_Heavy-Bell_Shoulder_Left_F" d="M912.7,120.6C912.7,120.6,912.7,120.6,912.7,120.6
				c116.2-26.4,226.5,23.2,246.4,110.8c14.9,65.7,27.8,122.2,27.8,122.2c-50.3,48.2-135.8,62.9-215.6,62.3
				C929,318.9,917.2,222.9,912.7,120.6"/>
			<g id="Trim_Heavy-Bell_Shoulder_Left_F_Toggle">
				<path d="M1071.6,400.4c3.9,12,9.3,23.2,20.4,29.2c11.7,6.3,25.3,5,38,0.9c16.5-5.3,38.2-17.8,62.7-33.1l3.8,13.3
					c-28.4,20.9-54,33-72.8,39c-12.7,4.1-28,1.6-39.8-4.7c-11.7-6.3-20.4-17.1-24-29.9c-1.6-5.5-2.6-9.3-2.6-9.3L1071.6,400.4z"/>
				<path d="M932.4,114.5c5.3,93.7,16.3,185.2,55.4,274.9c70.4,0.6,145.5-23,196.7-58.9l4.7,20.7
					c-53.6,51.7-138.2,65.3-217.9,64.6c-42.3-97-54.1-195.3-58.6-297.6C912.7,118.2,926.5,115.4,932.4,114.5z"/>
			</g>
		</g>
		<g id="Bell_Shoulder_Left_F_Option">
			<path id="Main_Bell_Shoulder_Left_F" d="M901.1,128.3l-0.1-0.5c105.1-33.4,214.1,14.4,243.3,106.3
				c21.9,68.9,46.9,147.5,46.9,147.5l-190.3,60.5L901.1,128.3"/>
			<path id="Ridge_Bell_Shoulder_Left_F_Toggle" d="M899.2,113.3c0,0,4.5,14.2,4.5,14.2
				c90.2-28.7,212.2,19.4,240.9,109.7l44.7,140.6l15.8-5c0,0-20.5-64.9-44.2-139.1C1135.4,152.3,1026.9,77.8,899.2,113.3"/>
			<g id="Trim_Bell_Shoulder_Left_F_Toggle">
				<path d="M917.1,120.8l-16.5,5.2l100.3,316.1l15.1-5.2L917.1,120.8"/>
				<path d="M1011.5,422.5l-10.6,19.7l193-60.7l-4.9-15.4L1011.5,422.5"/>
			</g>
		</g>
		<g id="Legacy-x3_Shoulder_Left_F_Option">
			<path id="Plate-3_Shoulder_Left_Legacy-x3_F" d="M1034,203.1l-77.7,79.6l45.5,98.6l102.3-5.4l54.2,49.7l48.2-3.4
				L1034,203.1z"/>
			<path id="Trauma-Plate-3_Shoulder_Legacy-x3_Left_F_ToggleOff" d="M1164.8,407.1l31.2-2.2l-148.8-189.6l-69.4,71.1
				l35.2,76.3l94.3-5.9L1164.8,407.1z"/>
			<path id="Plate-2_Shoulder_Left_Legacy-x3_F" d="M992,153.8l-61.5,92.7l63.1,88.4l99.6-24.4l62.5,38.7l46.8-12.3
				L992,153.8z"/>
			<path id="Trauma-Plate-2_Shoulder_Legacy-x3_Left_F_ToggleOff" d="M1158.4,329.9l30.2-7.9l-181.3-158.9l-55,82.6
				l48.7,68.5l91.6-23.2L1158.4,329.9z"/>
			<path id="Plate-1_Shoulder_Left_Legacy-x3_F" d="M916.3,106.4l-27.7,107.7l88.6,62.8l86-55.7l71.7,16.1l40.1-27
				L916.3,106.4z"/>
			<path id="Trauma-Plate-1_Shoulder_Legacy-x3_Left_F_ToggleOff" d="M1131.4,218.1l25.9-17.4l-223.5-90.2l-24.7,96.2
				l68.6,48.6l78.8-52.1L1131.4,218.1z"/>
		</g>
		<g id="Legacy-x2_Shoulder_Left_F_Option">
			<path id="Plate-2_Shoulder_Left_Legacy-x2_F" d="M992,153.8l-61.5,92.7l63.1,88.4l99.6-24.4l62.5,38.7l46.8-12.3
				L992,153.8z"/>
			<path id="Trauma-Plate-2_Shoulder_Legacy-x2_Left_F_ToggleOff" d="M1158.4,329.9l30.2-7.9l-181.3-158.9l-55,82.6
				l48.7,68.5l91.6-23.2L1158.4,329.9z"/>
			<path id="Plate-1_Shoulder_Left_Legacy-x2_F" d="M916.3,106.4l-27.7,107.7l88.6,62.8l86-55.7l71.7,16.1l40.1-27
				L916.3,106.4z"/>
			<path id="Trauma-Plate-1_Shoulder_Legacy-x2_Left_F_ToggleOff" d="M1131.4,218.1l25.9-17.4l-223.5-90.2l-24.7,96.2
				l68.6,48.6l78.8-52.1L1131.4,218.1z"/>
		</g>
		<g id="Classic_Shoulder_Left_F_Option">
			<path id="Main_Shoulder_Classic_Left_F" d="M1014.9,138.6l-26.7,120.8l21.4,69.6l143,72.4l24-36.9L1014.9,138.6z"/>
			<path id="Trauma-Plates_Shoulder_Classic_Left_F_ToggleOff" d="M1006.8,258.6l17.7,57.7l121.7,61.6l20.6-31.6
				l-137.1-191.8L1006.8,258.6z"/>
		</g>
	</g>
	<g id="Right-Shoulder_F">
		<g id="None_Shoulder_Right_F_Option">
		</g>
		<g id="Pauldron_Shoulder_Right_F_Option">
			<path id="Main_Pauldron_Shoulder_Right_F" d="M575.8,161.2L280.1,301.2L137.6,152.7l382.7-46.3L575.8,161.2z"/>
			<g id="Plate_Pauldron_Shoulder_Right_F">
				<path d="M164.8,155.5l119.3,123.9l260.7-123.5l-42.3-41.8L164.8,155.5z"/>
				<path d="M159.7,150l336.5-40.7l-3.8-4.4l-334.9,39.3L159.7,150z"/>
			</g>
		</g>
		<g id="Gunslinger-Bell_Shoulder_Right_F_Option">
			<path id="Main_Gunslinger-Bell_Shoulder_Right_F" d="M444.8,139c-65.3-1.6-211.1,50.8-205.3,237.3l0.8,36.8
				l126.9,52.1l111.3-148.8l0-177.4L444.8,139z"/>
			<path id="Ridge_Gunslinger-Bell_Shoulder_Right_F_Toggle" d="M478.5,139L478.5,139l0-21.5
				c-138.9-0.7-270.4,59.1-260.3,289.4l21.3,5c0.2-2.7,0.4-5.4,0.6-8l-0.6-27.6C233.6,189.8,379.4,137.4,444.8,139l7.2,0
				C466.4,137,476.2,137.5,478.5,139L478.5,139L478.5,139z"/>
			<g id="Trim_Gunslinger-Bell_Shoulder_Right_F_Toggle">
				<rect x="444.8" y="130.6" width="33.8" height="186"/>
				<path d="M444.8,305.2l33.8,11.2l-111.5,149l-27-20.2L444.8,305.2z"/>
				<path d="M355.8,424l11.8,41.4l-133.3-54.7v-36.5L355.8,424z"/>
			</g>
		</g>
		<g id="Heavy-Bell_Shoulder_Right_F_Option">
			<path id="Bottom_Heavy-Bell_Shoulder_Right_F" d="M234.9,360.3L220,412.1c29.3,19.5,53.2,30.4,72,36.4
				c12.7,4.1,26.5,2.8,38.2-3.5c11.7-6.3,20.4-17.1,24-29.9c1.6-5.5,2.6-9.3,2.6-9.3L234.9,360.3z"/>
			<path id="Main_Heavy-Bell_Shoulder_Right_F" d="M501.6,120.6C501.6,120.6,501.6,120.6,501.6,120.6
				c-116.2-26.4-226.5,23.2-246.4,110.8c-14.9,65.7-27.8,122.2-27.8,122.2c50.4,48.2,135.8,62.9,215.6,62.3
				C485.2,318.9,497.1,222.9,501.6,120.6"/>
			<g id="Trim_Heavy-Bell_Shoulder_Right_F_Toggle">
				<path d="M342.6,400.4c-3.9,12-9.3,23.2-20.4,29.2c-11.7,6.3-25.3,5-38,0.9c-16.5-5.3-38.2-17.8-62.7-33.1l-3.8,13.3
					c28.5,20.9,54,33,72.8,39c12.7,4.1,28.1,1.6,39.8-4.7c11.7-6.3,20.4-17.1,24-29.9c1.6-5.5,2.6-9.3,2.6-9.3L342.6,400.4z"/>
				<path d="M481.8,114.5c-5.3,93.7-16.3,185.2-55.4,274.9c-70.4,0.6-145.5-23-196.7-58.9l-4.7,20.7
					c53.6,51.7,138.2,65.3,217.9,64.6c42.3-97,54.1-195.3,58.6-297.6C501.6,118.2,487.7,115.4,481.8,114.5z"/>
			</g>
		</g>
		<g id="Bell_Shoulder_Right_F_Option">
			<path id="Main_Bell_Shoulder_Right_F" d="M513.2,128.3c0,0,0.1-0.5,0.1-0.5c-105.1-33.4-214.1,14.4-243.3,106.3
				C248,303,223,381.6,223,381.6l190.3,60.5L513.2,128.3"/>
			<path id="Ridge_Bell_Shoulder_Right_F_Toggle" d="M515.1,113.3l-4.5,14.2C420.3,98.8,298.4,147,269.7,237.2
				l-44.7,140.6l-15.8-5c0,0,20.5-64.9,44.2-139.1C278.9,152.3,387.4,77.8,515.1,113.3"/>
			<g id="Trim_Bell_Shoulder_Right_F_Toggle">
				<path d="M497.1,120.8l16.5,5.2L413.4,442.1l-15.1-5.2L497.1,120.8"/>
				<path d="M402.8,422.5l10.6,19.7l-193-60.7l4.9-15.4L402.8,422.5"/>
			</g>
		</g>
		<g id="Legacy-x3_Shoulder_Right_F_Option">
			<path id="Plate-3_Shoulder_Right_Legacy-x3_F" d="M380.2,203.1l77.7,79.6l-45.5,98.6L310,375.9l-54.2,49.7l-48.2-3.4
				L380.2,203.1z"/>
			<path id="Trauma-Plate-3_Shoulder_Legacy-x3_Right_F_ToggleOff" d="M249.4,407.1l-31.2-2.2L367,215.4l69.4,71.1
				l-35.2,76.3l-94.3-5.9L249.4,407.1z"/>
			<path id="Plate-2_Shoulder_Right_Legacy-x3_F" d="M422.2,153.8l61.5,92.7l-63.1,88.4l-99.6-24.4l-62.5,38.7
				L211.8,337L422.2,153.8z"/>
			<path id="Trauma-Plate-2_Shoulder_Legacy-x3_Right_F_ToggleOff" d="M255.8,329.9l-30.2-7.9l181.2-158.9l55,82.6
				l-48.7,68.5l-91.6-23.2L255.8,329.9z"/>
			<path id="Plate-1_Shoulder_Right_Legacy-x3_F" d="M497.9,106.4l27.7,107.7L437,277l-86-55.7l-71.7,16.1l-40.1-27
				L497.9,106.4z"/>
			<path id="Trauma-Plate-1_Shoulder_Legacy-x3_Right_F_ToggleOff" d="M282.8,218.1l-25.9-17.4l223.5-90.2l24.7,96.2
				l-68.6,48.6l-78.8-52.1L282.8,218.1z"/>
		</g>
		<g id="Legacy-x2_Shoulder_Right_F_Option">
			<path id="Plate-2_Shoulder_Right_Legacy-x2_F" d="M422.2,153.8l61.5,92.7l-63.1,88.4l-99.6-24.4l-62.5,38.7
				L211.8,337L422.2,153.8z"/>
			<path id="Trauma-Plate-2_Shoulder_Legacy-x2_Right_F_ToggleOff" d="M255.8,329.9l-30.2-7.9l181.2-158.9l55,82.6
				l-48.7,68.5l-91.6-23.2L255.8,329.9z"/>
			<path id="Plate-1_Shoulder_Right_Legacy-x2_F" d="M497.9,106.4l27.7,107.7L437,277l-86-55.7l-71.7,16.1l-40.1-27
				L497.9,106.4z"/>
			<path id="Trauma-Plate-1_Shoulder_Legacy-x2_Right_F_ToggleOff" d="M282.8,218.1l-25.9-17.4l223.5-90.2l24.7,96.2
				l-68.6,48.6l-78.8-52.1L282.8,218.1z"/>
		</g>
		<g id="Classic_Shoulder_Right_F_Option">
			<path id="Main_Shoulder_Classic_Right_F" d="M399.3,138.6L426,259.4L404.6,329l-143,72.4l-24-36.9L399.3,138.6z"/>
			<path id="Trauma-Plates_Shoulder_Classic_Right_F_ToggleOff" d="M407.4,258.6l-17.7,57.7L268,378l-20.6-31.6
				l137-191.8L407.4,258.6z"/>
		</g>
	</g>
</g>
<g id="Gauntlets_F">
	<g id="Left-Gauntlets_F">
		<g id="Rage_Gauntlet_Left_F_Option">
			<path d="M1130.1,1114.7c-3.6-15.3-7.3-31.2-14.8-47.5c-9.2-6.2-23.3-25.3-32.7-45.3c-5.1-11-9.6-95,7.1-101.6
				c38.3-15.1,73-20.5,114.1-22.6c19.3-1,35.9-2.2,55.2,5.8c24.2,10.1,14.7,37.3,23.9,70.2c13.4,47.9,39.4,123.6,35.4,173.5
				c-1.1,13.8-3.4,28.1-7.6,40.8c-5.8,17.6-9.8,41.8-10.9,60.8c-0.8,14.4-1.2,28.9,1.9,43.1c1.9,8.8,7.9,14.5,5.3,23.3
				c-1.8,6-14.1,9-16.3,14.2c-0.3,0.8,1.6,5.2,1.8,6.3c1,5.5-1.3,8.9-5.2,12c-14,11-24.8,3.7-40.4-0.1c-10.3-2.5-20.8-2.8-31.2-2.7
				c-16.8,0.2-31,5.4-47.1,9.9c-16.6,4.6-22.4,5.5-37.5-7.4c-0.5-0.4-7.1,1.2-7.9,1.2c-5.6,0-21.7-18.6-23-23.5
				c-6.7-24.6,5.5-45.8-0.4-71.7c-0.9-2.4-9.4-9.5-11.3-11.4c-7.2-7-10.7-16.9-14-26.6c-10.9-32,12-23.1,18.4-49.6
				C1103.7,1121.1,1130.1,1114.7,1130.1,1114.7z"/>
			<path d="M1182.5,1028.6c-10.4-8.6-22.3-16-31.4-26.5c-23.9-27.5-25.7-60.2-22.3-94.4"/>
			<path d="M1242.1,960.9c0.1,11.8-1.9,25.2-6.5,35.7c-3.5,7.9-9.2,13.9-11.2,22.8c-3.2,13.9-0.3,27.2,4.1,40.7"/>
			<path d="M1278.8,1025.5c-1,10.4-3.3,22-2,32.6c0.8,6.5,3.8,12.1,5.1,18.4c1.4,7.1-0.1,14.9-2.3,21.4"/>
			<path d="M1170.2,1104.6c-9.3-7.7-20-12.7-29.8-19.5c-9.1-6.2-16.7-10.9-25.2-17.9"/>
			<path d="M1203,1141.5c-22-21.5-44.8-33.2-72.9-26.8"/>
			<path d="M1200.8,1204.6c-2.3,6.1-5.2,11.8-7.8,17.7c-1.2,2.7-2.3,7-4.6,9c-2.4,2-7.1,2.2-10,2.8
				c-7.9,1.6-15.7,2.7-23.7,3.9c-18.9,2.8-35.7,15.1-55,15.5"/>
			<path d="M1100.8,1243.8c-3.5-6.3-6.4-12.9-9.9-19.2c-4.3-7.5-9.8-15.2-12.2-23.7"/>
			<path d="M1233.4,1274.5c-7-1.6-15-2.8-21.5-6.4c-11.7-6.4-23.5-21.9-27.9-35"/>
			<path d="M1157.6,1300.8c1.7-19.7,6.2-39.4,23.1-49.3c3.4-2,7-2.7,10.8-3.7"/>
			<path d="M1131,1347.4c-5.3-4.9-9.7-8.7-11.7-18c-1.6-7.3-1.1-22.8-0.9-30.1c0.1-5.7-4.6-36.7-8.9-47"/>
			<path d="M1098.3,1149c-2.1,4.9-3.9,10.6-5.5,17c-1.4,6-3.7,10.1-6.3,13.4c-2.5-5.9-7.1-15.2-3.8-21.1
				c1.7-3,5.1-5,7.9-6.5C1092.8,1150.6,1095.7,1148.5,1098.3,1149z"/>
			<path d="M1291.2,1328.3c-6.3,2.9-13.2,8.8-20.4,7.3c-4.2-0.9-7.5-3.6-10.9-6.4c-0.9-0.7-3.3-3.4-4.4-3.2
				c-6.2,1.3-12.6,5.1-18.5,7.5c-7.1,2.9-14.5,4.8-21.7,7.4c-5.7,2.1-16.6,5.4-22.5,7.1"/>
		</g>
		<g id="Heavy_Gauntlet_Left_F_Option">
			<g id="Top-2_Heavy_Gauntlet_Left_F">
				<path d="M1253.7,783.8l18.3,2.9l8,87.4l-16.7,11.8L1253.7,783.8z"/>
				<path d="M1262.6,878.2l10,113.9l-11.2,12.8l6.3,67.1l-5,3.1l-17.6-183.5L1262.6,878.2z"/>
				<path d="M1265.4,846.2c2.2,0.2,3.8,2.1,3.7,4.3c-0.2,2.2-2.1,3.8-4.3,3.7c-2.2-0.2-3.8-2.1-3.7-4.3
					C1261.3,847.7,1263.2,846.1,1265.4,846.2z"/>
			</g>
			<g id="Top-1_Heavy_Gauntlet_Left_F">
				<path d="M1215.6,1083.7l47.1-8.7l-17.6-183.5l17.5-13.3l-9.4-100l-69.1-12.9L1215.6,1083.7z"/>
				<path d="M1235.4,774.9l9.8,116.6"/>
			</g>
			<g id="Accent-Top_Heavy_Gauntlet_Left_F">
				<path d="M1251.8,1046.1l-29.8,3.5l2.6,23.2l29.9-4.5L1251.8,1046.1z"/>
				<path d="M1241.2,948.8l-29.8,3.5l9.8,90.7l29.8-3.6L1241.2,948.8z"/>
				<path d="M1228.6,780.9l-32.8-5.2l9.3,99.3l31.2-3.7L1228.6,780.9z"/>
			</g>
			<path id="Bottom_Heavy_Gauntlet_Left_F" d="M1184.6,770.1c-35.7-1.6-74,10.7-99.6,38.9c-8.3,9.1-11.6,21.7-9,33.7
				c12.6,58.2,54.1,248.8,54.1,248.8l85.5-7.8L1184.6,770.1z"/>
			<g id="Accent-Bottom_Heavy_Gauntlet_Left_F">
				<path d="M1215.6,1083.7l-85.5,7.8l-3.3-15.4l87.2-9.1L1215.6,1083.7z"/>
				<path d="M1186.7,791.4c-46.3,0.9-86.1,14.4-108.2,62.8l-2.5-11.4c-2.1-9.5-0.4-19.3,4.4-27.5l4.9-6.6
					c25.6-27.9,63.7-40.1,99.2-38.6L1186.7,791.4z"/>
				<path d="M1175.9,776.3l-37.8,4.3l17.2,150l37.8-4.3L1175.9,776.3z"/>
				<path d="M1171.3,779.6l-27.8,3.2l15.9,138.8l27.8-3.2L1171.3,779.6z"/>
				<path d="M1143.4,782.8l-5.3-2.2"/>
				<path d="M1175.9,776.3l-4.7,3.3"/>
				<path d="M1193.1,926.3l-5.9-7.9"/>
				<path d="M1155.3,930.6l4.7-9.1"/>
			</g>
			<g id="Whistling-Birds_Attachment_Heavy_Gauntlet_Left_F_Option">
				<path id="Head_Whistling-Birds_Attachment_Heavy_Gauntlet_Left_F" d="M1300.1,935.2l-27.4,56.9l-4.9-54
					L1300.1,935.2z"/>
				<g id="Birds_Whistling-Birds_Attachment_Heavy_Gauntlet_Left_F">
					<g>
						<path d="M1273.5,941.6c1.3-0.1,2.5,2.5,2.8,5.9c0.3,3.4-0.5,6.2-1.7,6.4c-1.3,0.1-2.5-2.5-2.8-5.9
							C1271.4,944.5,1272.2,941.7,1273.5,941.6z"/>
						<path d="M1275,958.8c1.3-0.1,2.5,2.5,2.8,5.9c0.3,3.4-0.5,6.2-1.7,6.4c-1.3,0.1-2.6-2.5-2.9-5.9
							C1273,961.7,1273.8,958.9,1275,958.8z"/>
						<path d="M1282.2,940.8c1.3-0.1,2.6,2.5,2.9,5.9c0.3,3.4-0.5,6.2-1.7,6.3s-2.5-2.5-2.8-5.9
							C1280.2,943.7,1281,940.9,1282.2,940.8z"/>
						<path d="M1275.7,986c-0.4-1-0.7-2.3-0.8-3.7c-0.3-3.4,0.5-6.2,1.7-6.3c0.9-0.1,1.8,1.2,2.3,3.2L1275.7,986z
							 M1283.6,969.5c-0.8-1-1.4-2.9-1.6-5.1c-0.3-3.4,0.5-6.2,1.7-6.3c1.2-0.1,2.4,2.2,2.8,5.3L1283.6,969.5z M1291.9,952.3
							c-1.2-0.1-2.4-2.7-2.7-5.9c-0.3-3.4,0.5-6.2,1.7-6.3c1.3-0.1,2.6,2.5,2.9,5.9c0.1,0.8,0.1,1.5,0,2.3L1291.9,952.3z"/>
					</g>
				</g>
				<g id="Base_Whistling-Birds_Attachment_Heavy_Gauntlet_Left_F">
					<path d="M1283.3,772.3l-21.7,2l0.9,9.6l21.7-2L1283.3,772.3z"/>
					<path d="M1286.2,781.7l-23.7,2.2l13.9,153.5l23.7-2.2L1286.2,781.7z"/>
					<path d="M1289.4,783l-3.1,0.3l12,132.6l3.1-0.3L1289.4,783z"/>
					<path d="M1282.3,782l-3.1,0.3l13.1,143.9l3.1-0.3L1282.3,782z"/>
				</g>
				<g id="Accent_Whistling-Birds_Attachment_Heavy_Gauntlet_Left_F">
					<path d="M1261.4,771.9l-8.6,0.8l14.2,155.9l8.6-0.8L1261.4,771.9z"/>
					<path d="M1301,925.5l-34.1,3.1l0.9,9.6l34.1-3.1L1301,925.5z"/>
					<path d="M1275.9,773l-14.2,1.3l2,22.4l14.2-1.3L1275.9,773z"/>
					<path d="M1274.5,795.7l-10.8,1l4.8,53.2l9-20.9L1274.5,795.7z"/>
				</g>
			</g>
			<g id="Flamethrower_Attachment_Heavy_Gauntlet_Left_F_Option">
				<g id="Tubes_Flamethrower_Attachment_Heavy_Gauntlet_Left_F">
					<path d="M1269.3,787.2l-8.8,0.8l24.3,268.2l8.8-0.8L1269.3,787.2z"/>
					<path d="M1289.5,785.4l-8.8,0.8l17.4,192.3l8.8-0.8L1289.5,785.4z"/>
					<path d="M1273.6,803.8l-13.2,1.2l5.8,63.9l13.2-1.2L1273.6,803.8z"/>
					<path d="M1292.7,802.1l-12.1,1.1l5.8,63.9l12.1-1.1L1292.7,802.1z"/>
				</g>
				<g id="Main_Flamethrower_Attachment_Heavy_Gauntlet_Left_F">
					<path d="M1292.9,781l-36.2,3.3l1.9,20.9l36.2-3.3L1292.9,781z"/>
					<path d="M1301.4,865.7l-37.8,3.4l0.9,10.2l37.8-3.4L1301.4,865.7z"/>
					<path d="M1300.7,876.1l-34.7,3.1l0.5,5.2l34.7-3.1L1300.7,876.1z"/>
					<path d="M1266.8,862.4l-5.8,0.7l2.9,31.2l5.8-0.7L1266.8,862.4z"/>
				</g>
				<g id="Accent_Flamethrower_Attachment_Heavy_Gauntlet_Left_F">
					<path d="M1307.2,977.7l-9.4,0.9l-0.3,13.3l12.3-1.1L1307.2,977.7z"/>
					<path d="M1304.7,909l-16.7,1.5l1.8,20.3l16.7-1.5L1304.7,909z"/>
					<path d="M1304.2,929.6l-12.1,1.1l1.8,20.3l12.1-1.1L1304.2,929.6z"/>
					<path d="M1292.2,1021.4l-12.1,1.1l2.5,27.9l12.1-1.1L1292.2,1021.4z"/>
					<path d="M1284,931.4l-12.1,1.1l3.4,37.9l12.1-1.1L1284,931.4z"/>
					<path d="M1295.8,1035.2l-16.7,1.5l0.5,5.4l16.7-1.5L1295.8,1035.2z"/>
				</g>
				<path id="Base_Flamethrower_Attachment_Heavy_Gauntlet_Left_F" d="M1261,863.1l-7.8-84.6l10.4,3.1l13.3,143.1
					l-9.7,5.5l-3.3-35.8l5.8-0.7l-2.9-31.2L1261,863.1z"/>
			</g>
			<g id="Missle_Attachment_Heavy_Gauntlet_Left_F_Option">
				<g id="Head_Fissle_Attachment_Heavy_Gauntlet_Left_F">
					<path d="M1294.2,979.2l-24.3-45.5l39.8-4.8L1294.2,979.2z"/>
					<path d="M1283.8,936.3c0.9-0.1,1.8,1.7,2,4s-0.3,4.3-1.2,4.4c-0.9,0.1-1.8-1.7-2-4
						C1282.4,938.4,1282.9,936.4,1283.8,936.3z"/>
					<path d="M1286.2,948.7c0.7-0.1,1.4,1.4,1.6,3.2c0.2,1.9-0.3,3.4-1,3.5c-0.7,0.1-1.4-1.4-1.6-3.2
						S1285.5,948.7,1286.2,948.7z"/>
					<path d="M1287.7,960c0.6-0.1,1.3,1.2,1.4,3c0.2,1.7-0.2,3.2-0.9,3.2c-0.6,0.1-1.3-1.3-1.4-3
						C1286.6,961.5,1287,960.1,1287.7,960z"/>
					<path d="M1277.3,937.1c0.9-0.1,1.8,1.7,2,4c0.2,2.3-0.3,4.3-1.2,4.4s-1.8-1.7-2-4
						C1275.9,939.2,1276.4,937.2,1277.3,937.1z"/>
					<path d="M1303.1,934c0.9-0.1,1.8,1.7,2,4c0.2,2.3-0.3,4.3-1.2,4.4s-1.8-1.7-2-4
						C1301.7,936.1,1302.3,934.1,1303.1,934z"/>
					<path d="M1296.7,934.8c0.9-0.1,1.8,1.7,2,4c0.2,2.3-0.3,4.3-1.2,4.4c-0.9,0.1-1.8-1.7-2-4
						C1295.3,936.9,1295.8,934.9,1296.7,934.8z"/>
					<path d="M1296.5,947.4c0.7-0.1,1.4,1.4,1.6,3.2s-0.3,3.4-1,3.5c-0.7,0.1-1.4-1.4-1.6-3.2
						C1295.4,949.1,1295.8,947.5,1296.5,947.4z"/>
					<path d="M1297.2,958.9c0.6-0.1,1.3,1.3,1.4,3c0.2,1.7-0.2,3.2-0.9,3.2c-0.6,0.1-1.3-1.2-1.4-3
						C1296.1,960.4,1296.5,958.9,1297.2,958.9z"/>
					<path d="M1290.2,935.6c0.9-0.1,1.8,1.7,2,4c0.2,2.3-0.3,4.3-1.2,4.4s-1.8-1.7-2-4
						C1288.8,937.6,1289.4,935.7,1290.2,935.6z"/>
					<path d="M1291.4,948c0.7-0.1,1.4,1.4,1.6,3.2c0.2,1.9-0.3,3.4-1,3.5c-0.7,0.1-1.4-1.4-1.6-3.2
						C1290.2,949.7,1290.7,948.1,1291.4,948z"/>
					<path d="M1292.4,959.4c0.6-0.1,1.3,1.2,1.4,3c0.2,1.7-0.2,3.2-0.9,3.2c-0.6,0.1-1.3-1.2-1.4-3
						C1291.4,961,1291.8,959.5,1292.4,959.4z"/>
					<path d="M1302.2,953.5c-0.6-0.1-1.3-1.5-1.4-3.2c-0.2-1.9,0.3-3.4,1-3.5c0.7-0.1,1.4,1.3,1.6,3.1L1302.2,953.5z
						 M1280.1,952.7c-0.1-1.8,0.3-3.4,1-3.4c0.7-0.1,1.4,1.4,1.6,3.2c0.2,1.7-0.2,3.2-0.8,3.5L1280.1,952.7z"/>
				</g>
				<g id="Main_Fissle_Attachment_Heavy_Gauntlet_Left_F">
					<path d="M1304.3,922.9l-30.1,3.6l0.6,6.6l30.1-3.6L1304.3,922.9z"/>
					<path d="M1291.5,783.1l-30.1,3.6l0.6,6.6l30.1-3.6L1291.5,783.1z"/>
					<path d="M1283.1,759.5l-17.7,2.1l0.6,6.6l17.7-2.1L1283.1,759.5z"/>
					<path d="M1291.4,765.2l-33,3.9l1.6,17.7l33-3.9L1291.4,765.2z"/>
					<path d="M1294.9,789.4l-35.6,4.2l12.2,133.2l35.6-4.2L1294.9,789.4z"/>
					<path d="M1267,863.9l-5.8,0.7l2.9,31.2l5.8-0.7L1267,863.9z"/>
				</g>
				<g id="Accent_Fissle_Attachment_Heavy_Gauntlet_Left_F">
					<path d="M1295,987.7l-4.8-11.5l7.4-0.9L1295,987.7z"/>
					<path d="M1296.6,972.4l-6,0.7l-0.5,3.1l7.4-0.9L1296.6,972.4z"/>
					<path d="M1284.3,750l-21.8,2.6l0.8,9.2l21.7-2.6L1284.3,750z"/>
					<path d="M1280.2,745.6l-14.5,1.7l-3.2,5.3l21.8-2.6L1280.2,745.6z"/>
					<path d="M1284.2,790.7l-6.1,0.7l12.2,133.2l6-0.7L1284.2,790.7z"/>
					<path d="M1276,791.7l-6.1,0.7l12.2,133.2l6.1-0.7L1276,791.7z"/>
					<path d="M1297.6,792.5l-2.7-3.1l12.2,133.2l2.1-3.7L1297.6,792.5z"/>
					<path d="M1292.4,789.7l-6.1,0.7l12.2,133.2l6.1-0.7L1292.4,789.7z"/>
					<path d="M1267.8,792.6l-3.7,0.4l12.2,133.2l3.7-0.4L1267.8,792.6z"/>
				</g>
				<path id="Base_Fissle_Attachment_Heavy_Gauntlet_Left_F" d="M1263.8,783.1l-10.4-3.1l13.9,151.7l9.7-5.5
					L1263.8,783.1z M1267,863.9l-5.8,0.7l2.9,31.2l5.8-0.7L1267,863.9z"/>
			</g>
			<g id="No-Device_Attachment_Heavy_Gauntlet_Left_F_Option">
			</g>
		</g>
		<g id="Gunslinger_Gauntlet_Left_F_Option">
			<g id="Accent-Top_Gunslinger_Gauntlet_Left_F">
				<path d="M1235.7,805.2l1.6,60.3l-30.8,5.9l-2.3-57.2L1235.7,805.2z"/>
				<path d="M1203.1,1025.3l3.5,31l-27,3.5l-3.8-30.9L1203.1,1025.3z"/>
			</g>
			<path id="Top_Gunslinger_Gauntlet_Left_F" d="M1235.7,805.2l14.1-4l1.2,281.8l-67.4,8.6l-5.4-44.1l1.5,12.5l27-3.5
				l-3.5-31l-27.3,3.6l-24.5-199.6L1235.7,805.2l-31.5,9l2.3,57.2l30.8-5.9L1235.7,805.2z"/>
			<g id="Accent-Bottom_Gunslinger_Gauntlet_Left_F">
				<path d="M1105.7,916.7l-5.8-25.1l-17.6,4.1l5.8,25.1L1105.7,916.7z"/>
				<path d="M1112.4,945.2l-5.8-25.1l-17.6,4.1l5.8,25.1L1112.4,945.2z"/>
				<path d="M1175.8,1028.9l-60.3,7.9l7.1,30.5l57-7.4L1175.8,1028.9z"/>
			</g>
			<path id="Bottom_Gunslinger_Gauntlet_Left_F" d="M1179.1,1055.4l-3.3-26.4l-60.3,7.9l7.1,30.5l57-7.4l3.9,31.7
				c0,0-21.1,1.9-36.9,3.4c-9.9,0.9-18.9-5.6-21.2-15.3c-12.4-52.8-49.6-211.6-49.6-211.6l76.1-34.6L1179.1,1055.4z M1112.4,945.2
				l-5.8-25.1l-17.6,4.1l5.8,25.1L1112.4,945.2z M1105.7,916.7l-5.8-25.1l-17.6,4.1l5.8,25.1L1105.7,916.7z"/>
			<g id="Whistling-Birds_Attachment_Gunslinger_Gauntlet_Left_F_Option">
				<path id="Head_Whistling-Birds_Attachment_Gunslinger_Gauntlet_Left_F" d="M1282.9,973.8l-32.2,54.4l-0.2-54.2
					L1282.9,973.8z"/>
				<g id="Birds_Whistling-Birds_Attachment_Gunslinger_Gauntlet_Left_F">
					<g>
						<path d="M1255.8,977.8c1.3,0,2.3,2.8,2.3,6.2c0,3.4-1,6.2-2.3,6.2c-1.3,0-2.3-2.8-2.3-6.2
							C1253.5,980.6,1254.5,977.8,1255.8,977.8z"/>
						<path d="M1255.9,995.1c1.3,0,2.3,2.8,2.3,6.2c0,3.4-1,6.2-2.3,6.2c-1.3,0-2.3-2.8-2.3-6.2
							C1253.6,997.9,1254.6,995.1,1255.9,995.1z"/>
						<path d="M1264.6,977.8c1.3,0,2.3,2.8,2.3,6.2c0,3.4-1,6.2-2.3,6.2c-1.3,0-2.3-2.8-2.3-6.2
							C1262.3,980.6,1263.3,977.8,1264.6,977.8z"/>
						<path d="M1254.2,1022.3c-0.3-1-0.5-2.3-0.5-3.7c0-3.4,1-6.2,2.3-6.2c0.9,0,1.7,1.4,2.1,3.4L1254.2,1022.3z
							 M1263.5,1006.5c-0.7-1.1-1.1-3-1.1-5.3c0-3.4,1-6.2,2.3-6.2c1.2,0,2.2,2.4,2.3,5.6L1263.5,1006.5z M1273.2,990.1
							c-1.2-0.3-2.1-2.9-2.1-6.1c0-3.4,1-6.2,2.3-6.2c1.3,0,2.3,2.8,2.3,6.2c0,0.8,0,1.5-0.1,2.2L1273.2,990.1z"/>
					</g>
				</g>
				<g id="Base_Whistling-Birds_Attachment_Gunslinger_Gauntlet_Left_F">
					<path d="M1280.2,810l-21.8,0.1l0,9.6l21.8-0.1L1280.2,810z"/>
					<path d="M1282.3,819.6l-23.8,0.1l0.6,154.1l23.8-0.1L1282.3,819.6z"/>
					<path d="M1285.4,821.3l-3.1,0l0.6,133.1l3.1,0L1285.4,821.3z"/>
					<path d="M1278.4,819.7l-3.1,0l0.6,144.5l3.1,0L1278.4,819.7z"/>
				</g>
				<g id="Accent_Whistling-Birds_Attachment_Gunslinger_Gauntlet_Left_F">
					<path d="M1258.4,807.7l-8.7,0l0.7,156.5l8.7,0L1258.4,807.7z"/>
					<path d="M1284.6,964.1l-34.2,0.1l0,9.6l34.2-0.1L1284.6,964.1z"/>
					<path d="M1272.8,810.1l-14.3,0.1l0.1,22.4l14.3-0.1L1272.8,810.1z"/>
					<path d="M1269.4,832.5l-10.9,0l0.2,53.4l10.8-20L1269.4,832.5z"/>
				</g>
			</g>
			<g id="Flamethrower_Attachment_Gunslinger_Gauntlet_Left_F_Option">
				<g id="Tubes_Flamethrower_Attachment_Gunslinger_Gauntlet_Left_F">
					<path d="M1264.9,818.8l-8.8,0l0.2,269.3l8.8,0L1264.9,818.8z"/>
					<path d="M1285.2,818.8l-8.8,0l0.2,193.1l8.8,0L1285.2,818.8z"/>
					<path d="M1266.6,835.7l-12.2,0l0,64.1l12.2,0L1266.6,835.7z"/>
					<path d="M1286.9,835.7l-12.2,0l0.1,64.1l12.2,0L1286.9,835.7z"/>
				</g>
				<g id="Main_Flamethrower_Attachment_Gunslinger_Gauntlet_Left_F">
					<path d="M1289,818.8l-36.3,0l0,16.9l36.3,0L1289,818.8z"/>
					<path d="M1289.8,899.9l-38,0l0,10.3l38,0L1289.8,899.9z"/>
					<path d="M1288.3,910.1l-34.8,0v5.2l34.8,0V910.1z"/>
					<path d="M1255.7,893.5l-5.9,0.2l0.1,31.3l5.9-0.2L1255.7,893.5z"/>
				</g>
				<g id="Accent_Flamethrower_Attachment_Gunslinger_Gauntlet_Left_F">
					<path d="M1285.6,1011.9l-9.5,0l-1.5,13.2l12.4,0L1285.6,1011.9z"/>
					<path d="M1289.3,943.3l-16.8,0l0,20.4l16.8,0L1289.3,943.3z"/>
					<path d="M1286.9,963.7l-12.2,0l0,20.4l12.2,0L1286.9,963.7z"/>
					<path d="M1266.8,1054.1l-12.2,0l0,28l12.2,0L1266.8,1054.1z"/>
					<path d="M1266.7,963.8l-12.2,0l0,38.1l12.2,0L1266.7,963.8z"/>
					<path d="M1269.1,1068.1l-16.8,0l0,5.4l16.8,0L1269.1,1068.1z"/>
				</g>
				<path id="Base_Flamethrower_Attachment_Gunslinger_Gauntlet_Left_F" d="M1249.8,893.7l-0.2-85l10.1,4l0.4,143.7
					L1250,961l-0.1-35.9l5.9-0.2l-0.1-31.3L1249.8,893.7z"/>
			</g>
			<g id="Missle_Attachment_Gunslinger_Gauntlet_Left_F_Option">
				<g id="Head_Fissle_Attachment_Gunslinger_Gauntlet_Left_F">
					<path d="M1272.8,1012.4l-20.2-47.5l40.1-1.2L1272.8,1012.4z"/>
					<path d="M1266.2,968.8c0.9,0,1.6,1.8,1.6,4.2c0,2.3-0.7,4.3-1.6,4.3c-0.9,0-1.6-1.8-1.6-4.2
						C1264.6,970.7,1265.3,968.8,1266.2,968.8z"/>
					<path d="M1267.5,981.3c0.7,0,1.3,1.5,1.3,3.3c0,1.9-0.6,3.4-1.3,3.4c-0.7,0-1.3-1.5-1.3-3.3
						C1266.3,982.8,1266.8,981.3,1267.5,981.3z"/>
					<path d="M1268,992.7c0.7,0,1.2,1.4,1.2,3.1c0,1.7-0.5,3.1-1.2,3.1c-0.6,0-1.2-1.4-1.2-3.1
						C1266.8,994.1,1267.3,992.7,1268,992.7z"/>
					<path d="M1259.7,969c0.9,0,1.6,1.8,1.6,4.2c0,2.3-0.7,4.3-1.6,4.3c-0.9,0-1.6-1.8-1.6-4.2
						C1258.1,970.9,1258.8,969,1259.7,969z"/>
					<path d="M1285.7,968.2c0.9,0,1.6,1.8,1.6,4.2c0,2.3-0.7,4.3-1.6,4.3c-0.9,0-1.6-1.8-1.6-4.2
						C1284.1,970.1,1284.8,968.2,1285.7,968.2z"/>
					<path d="M1279.2,968.4c0.9,0,1.6,1.8,1.6,4.2c0,2.3-0.7,4.3-1.6,4.3c-0.9,0-1.6-1.8-1.6-4.2
						C1277.6,970.3,1278.3,968.4,1279.2,968.4z"/>
					<path d="M1277.9,980.9c0.7,0,1.3,1.5,1.3,3.3c0,1.9-0.6,3.4-1.3,3.4c-0.7,0-1.3-1.5-1.3-3.3
						C1276.7,982.5,1277.2,981,1277.9,980.9z"/>
					<path d="M1277.6,992.4c0.6,0,1.2,1.4,1.2,3.1c0,1.7-0.5,3.1-1.2,3.1c-0.6,0-1.2-1.4-1.2-3.1
						C1276.4,993.8,1276.9,992.4,1277.6,992.4z"/>
					<path d="M1272.7,968.6c0.9,0,1.6,1.8,1.6,4.2c0,2.3-0.7,4.3-1.6,4.3c-0.9,0-1.6-1.8-1.6-4.2
						C1271.1,970.5,1271.8,968.6,1272.7,968.6z"/>
					<path d="M1272.7,981.1c0.7,0,1.3,1.5,1.3,3.3c0,1.9-0.6,3.4-1.3,3.4c-0.7,0-1.3-1.5-1.3-3.3
						S1272,981.1,1272.7,981.1z"/>
					<path d="M1272.8,992.5c0.6,0,1.2,1.4,1.2,3.1c0,1.7-0.5,3.1-1.2,3.1c-0.7,0-1.2-1.4-1.2-3.1
						C1271.6,994,1272.1,992.6,1272.8,992.5z"/>
					<path d="M1283,987.5c-0.6-0.2-1.1-1.6-1.1-3.3c0-1.9,0.6-3.4,1.3-3.4c0.7,0,1.3,1.4,1.3,3.3L1283,987.5z
						 M1261.1,984.8c0-1.8,0.6-3.3,1.3-3.3c0.7,0,1.3,1.5,1.3,3.3c0,1.7-0.5,3.2-1.1,3.4L1261.1,984.8z"/>
				</g>
				<g id="Main_Fissle_Attachment_Gunslinger_Gauntlet_Left_F">
					<path d="M1287.8,957.2l-30.3,0.9l0,6.6l30.3-0.9L1287.8,957.2z"/>
					<path d="M1287.4,816.8l-30.3,0.9l0,6.6l30.3-0.9L1287.4,816.8z"/>
					<path d="M1281.1,792.6l-17.9,0.6l0,6.6l17.9-0.5L1281.1,792.6z"/>
					<path d="M1288.8,799l-33.3,1l0.1,17.8l33.3-1L1288.8,799z"/>
					<path d="M1290.2,823.4l-35.8,1.1l0.4,133.7l35.8-1.1L1290.2,823.4z"/>
					<path d="M1255.8,895.2l-5.9,0.2l0.1,31.3l5.9-0.2L1255.8,895.2z"/>
				</g>
				<g id="Accent_Fissle_Attachment_Gunslinger_Gauntlet_Left_F">
					<path d="M1272.9,1020.9l-3.8-11.9l7.5-0.2L1272.9,1020.9z"/>
					<path d="M1275.8,1005.8l-6,0.2l-0.7,3l7.5-0.2L1275.8,1005.8z"/>
					<path d="M1283.1,783.2l-21.9,0.7l0,9.3l21.9-0.7L1283.1,783.2z"/>
					<path d="M1279.4,778.5l-14.6,0.4l-3.7,5l21.9-0.7L1279.4,778.5z"/>
					<path d="M1279.4,823.7l-6.1,0.2l0.4,133.7l6.1-0.2L1279.4,823.7z"/>
					<path d="M1271.2,824l-6.1,0.2l0.4,133.7l6.1-0.2L1271.2,824z"/>
					<path d="M1292.6,826.7l-2.4-3.4l0.4,133.7l2.4-3.5L1292.6,826.7z"/>
					<path d="M1287.7,823.5l-6.1,0.2l0.4,133.7l6.1-0.2L1287.7,823.5z"/>
					<path d="M1262.9,824.2l-3.8,0.1l0.4,133.7l3.8-0.1L1262.9,824.2z"/>
				</g>
				<path id="Base_Fissle_Attachment_Gunslinger_Gauntlet_Left_F" d="M1259.8,814.3l-10.1-4l0.5,152.3l10.1-4.6
					L1259.8,814.3z M1255.8,895.2l-5.9,0.2l0.1,31.3l5.9-0.2L1255.8,895.2z"/>
			</g>
			<g id="No-Device_Attachment_Gunslinger_Gauntlet_Left_F_Option">
			</g>
		</g>
		<g id="Basic_Gauntlet_Left_F_Option">
			<path id="Top-2_Basic_Gauntlet_Left_F" d="M1270.3,1106.4l16.3-21.9l-25.1-198l-8.8,23l12.3,90.3l-9.5,21.4
				L1270.3,1106.4z"/>
			<path id="Top-1_Basic_Gauntlet_Left_F" d="M1261.4,886.5l-8.8,23l12.3,90.3l-9.5,21.4l14.8,85.3l-10.7,14.4l0.5,54.5
				l-17,3l-15.8-83.3l-15-7l-51.6-244.4l95-2.1L1261.4,886.5z"/>
			<g id="Accent-Bottom_Basic_Gauntlet_Left_F">
				<path d="M1119,912.4l-21.4,5.2l7.7,31.8l21.4-5.2L1119,912.4z"/>
				<path d="M1132.3,968.2l-21.4,5.2l7.7,31.8l21.4-5.2L1132.3,968.2z"/>
				<path d="M1146.1,1025.3l-21.4,5.2l7.7,31.8l21.4-5.2L1146.1,1025.3z"/>
			</g>
			<path id="Bottom_Basic_Gauntlet_Left_F" d="M1097.8,917.5l-5.8-24.3l69.6-45.6l50.7,240.3l-72.3,7.2l-21.4-90
				l21.3-5.1l-7.7-31.8l-21.2,5.1l-5.7-23.9l21.3-5.2l-7.7-31.8L1097.8,917.5z M1146.1,1025.3l-21.5,5.2l7.6,31.9l21.6-5.2
				L1146.1,1025.3z"/>
			<g id="Whistling-Birds_Attachment_Basic_Gauntlet_Left_F_Option">
				<path id="Head_Whistling-Birds_Attachment_Basic_Gauntlet_Left_F" d="M1309.3,1003.6l-25.3,57.9l-6.8-53.8
					L1309.3,1003.6z"/>
				<g id="Birds_Whistling-Birds_Attachment_Basic_Gauntlet_Left_F">
					<g>
						<path d="M1282.9,1011c1.3-0.2,2.6,2.5,3.1,5.8c0.4,3.4-0.2,6.3-1.5,6.4c-1.3,0.2-2.6-2.5-3.1-5.8
							C1281,1014,1281.7,1011.1,1282.9,1011z"/>
						<path d="M1285.1,1028.1c1.3-0.2,2.6,2.5,3.1,5.8c0.4,3.4-0.2,6.3-1.5,6.4c-1.3,0.2-2.6-2.4-3.1-5.8
							C1283.2,1031.1,1283.8,1028.3,1285.1,1028.1z"/>
						<path d="M1291.6,1009.8c1.3-0.2,2.6,2.4,3.1,5.8c0.4,3.4-0.3,6.3-1.5,6.4c-1.3,0.2-2.6-2.5-3.1-5.8
							C1289.7,1012.9,1290.4,1010,1291.6,1009.8z"/>
						<path d="M1286.7,1055.3c-0.4-1-0.8-2.2-0.9-3.6c-0.4-3.4,0.2-6.3,1.5-6.4c0.9-0.1,1.8,1.2,2.5,3.1L1286.7,1055.3z
							 M1294.1,1038.4c-0.8-1-1.5-2.9-1.8-5.1c-0.4-3.4,0.2-6.2,1.5-6.4c1.2-0.2,2.5,2.2,3,5.2L1294.1,1038.4z M1301.7,1021
							c-1.2-0.1-2.5-2.6-2.9-5.8c-0.4-3.4,0.2-6.3,1.5-6.4c1.3-0.2,2.6,2.5,3.1,5.8c0.1,0.8,0.1,1.5,0.1,2.3L1301.7,1021z"/>
					</g>
				</g>
				<g id="Base_Whistling-Birds_Attachment_Basic_Gauntlet_Left_F">
					<path d="M1286.7,841.4l-21.6,2.8l1.2,9.5l21.6-2.8L1286.7,841.4z"/>
					<path d="M1289.9,850.7l-23.6,3l19.5,152.9l23.6-3L1289.9,850.7z"/>
					<path d="M1293.2,851.9l-3.1,0.4l16.8,132.1l3.1-0.4L1293.2,851.9z"/>
					<path d="M1286,851.2l-3.1,0.4l18.3,143.4l3.1-0.4L1286,851.2z"/>
				</g>
				<g id="Accent_Whistling-Birds_Attachment_Basic_Gauntlet_Left_F">
					<path d="M1264.8,841.8l-8.6,1.1l19.8,155.3l8.6-1.1L1264.8,841.8z"/>
					<path d="M1309.8,993.8l-33.9,4.3l1.2,9.5l33.9-4.3L1309.8,993.8z"/>
					<path d="M1279.2,842.4l-14.2,1.8l2.8,22.3l14.2-1.8L1279.2,842.4z"/>
					<path d="M1278.7,865.1l-10.8,1.4l6.8,53l8.3-21.2L1278.7,865.1z"/>
				</g>
			</g>
			<g id="Flamethrower_Attachment_Basic_Gauntlet_Left_F_Option">
				<g id="Tubes_Flamethrower_Attachment_Basic_Gauntlet_Left_F">
					<path d="M1272.5,852l-8.8,1.1l33.1,267.3l8.8-1.1L1272.5,852z"/>
					<path d="M1292.7,849.6l-8.8,1.1l23.7,191.6l8.8-1.1L1292.7,849.6z"/>
					<path d="M1276.3,868.6l-12.1,1.5l7.9,63.7l12.1-1.5L1276.3,868.6z"/>
					<path d="M1296.4,866.1l-12.1,1.5l7.9,63.7l12.1-1.5L1296.4,866.1z"/>
				</g>
				<g id="Main_Flamethrower_Attachment_Basic_Gauntlet_Left_F">
					<path d="M1296.4,849.1l-36.1,4.5l2.1,16.8l36.1-4.5L1296.4,849.1z"/>
					<path d="M1307.2,929.4l-37.7,4.7l1.3,10.2l37.7-4.7L1307.2,929.4z"/>
					<path d="M1306.9,939.8l-34.6,4.3l0.6,5.1l34.6-4.3L1306.9,939.8z"/>
					<path d="M1272.5,927.3l-5.8,0.9l3.9,31.1l5.8-0.9L1272.5,927.3z"/>
				</g>
				<g id="Accent_Flamethrower_Attachment_Basic_Gauntlet_Left_F">
					<path d="M1316.7,1041.1l-9.4,1.2l0.2,13.3l12.3-1.5L1316.7,1041.1z"/>
					<path d="M1311.9,972.6l-16.7,2.1l2.5,20.3l16.7-2.1L1311.9,972.6z"/>
					<path d="M1312.1,993.2l-12.1,1.5l2.5,20.3l12.1-1.5L1312.1,993.2z"/>
					<path d="M1303.1,1085.3l-12.1,1.5l3.4,27.8l12.1-1.5L1303.1,1085.3z"/>
					<path d="M1292,995.6l-12.1,1.5l4.7,37.8l12.1-1.5L1292,995.6z"/>
					<path d="M1307.1,1098.9l-16.7,2.1l0.7,5.4l16.7-2.1L1307.1,1098.9z"/>
				</g>
				<path id="Base_Flamethrower_Attachment_Basic_Gauntlet_Left_F" d="M1266.7,928.2l-10.6-84.3l10.5,2.7l18,142.6
					l-9.5,5.8l-4.5-35.7l5.8-0.9l-3.9-31.1L1266.7,928.2z"/>
			</g>
			<g id="Missle_Attachment_Basic_Gauntlet_Left_F_Option">
				<g id="Head_Fissle_Attachment_Basic_Gauntlet_Left_F">
					<path d="M1304,1043.2l-25.9-44.6l39.7-6.1L1304,1043.2z"/>
					<path d="M1292.1,1000.7c0.9-0.1,1.8,1.6,2.1,4c0.3,2.3-0.2,4.3-1,4.4c-0.9,0.1-1.8-1.6-2.1-4
						C1290.8,1002.8,1291.3,1000.8,1292.1,1000.7z"/>
					<path d="M1295,1012.9c0.7-0.1,1.5,1.3,1.7,3.2c0.2,1.8-0.1,3.4-0.8,3.5c-0.7,0.1-1.4-1.3-1.7-3.2
						C1293.9,1014.6,1294.3,1013,1295,1012.9z"/>
					<path d="M1296.8,1024.2c0.6-0.1,1.3,1.2,1.6,2.9c0.2,1.7-0.1,3.2-0.8,3.3c-0.6,0.1-1.3-1.2-1.5-2.9
						C1295.8,1025.8,1296.2,1024.3,1296.8,1024.2z"/>
					<path d="M1285.7,1001.7c0.9-0.1,1.8,1.6,2.1,4c0.3,2.3-0.2,4.3-1,4.4c-0.9,0.1-1.8-1.6-2.1-4
						C1284.4,1003.8,1284.8,1001.8,1285.7,1001.7z"/>
					<path d="M1311.4,997.7c0.9-0.1,1.8,1.6,2.1,3.9c0.3,2.3-0.2,4.3-1.1,4.4c-0.9,0.1-1.8-1.6-2.1-4
						C1310.1,999.8,1310.5,997.9,1311.4,997.7z"/>
					<path d="M1305,998.7c0.9-0.1,1.8,1.6,2.1,4c0.3,2.3-0.2,4.3-1,4.4c-0.9,0.1-1.8-1.6-2.1-4
						C1303.6,1000.8,1304.1,998.8,1305,998.7z"/>
					<path d="M1305.3,1011.3c0.7-0.1,1.4,1.3,1.7,3.2c0.2,1.8-0.1,3.5-0.8,3.5c-0.7,0.1-1.4-1.3-1.7-3.2
						C1304.2,1013,1304.6,1011.4,1305.3,1011.3z"/>
					<path d="M1306.3,1022.8c0.6-0.1,1.3,1.2,1.5,2.9c0.2,1.7-0.1,3.2-0.8,3.3c-0.6,0.1-1.3-1.2-1.6-2.9
						C1305.3,1024.3,1305.6,1022.8,1306.3,1022.8z"/>
					<path d="M1298.6,999.7c0.9-0.1,1.8,1.6,2.1,4c0.3,2.3-0.2,4.3-1,4.4c-0.9,0.1-1.8-1.6-2.1-4
						C1297.2,1001.8,1297.7,999.8,1298.6,999.7z"/>
					<path d="M1300.1,1012.1c0.7-0.1,1.4,1.3,1.7,3.2c0.2,1.9-0.2,3.5-0.8,3.6c-0.7,0.1-1.4-1.3-1.7-3.2
						C1299.1,1013.8,1299.4,1012.2,1300.1,1012.1z"/>
					<path d="M1301.6,1023.5c0.6-0.1,1.3,1.2,1.5,2.9c0.2,1.7-0.1,3.2-0.8,3.3c-0.6,0.1-1.3-1.2-1.5-2.9
						C1300.6,1025,1300.9,1023.6,1301.6,1023.5z"/>
					<path d="M1311.1,1017.3c-0.7-0.1-1.3-1.5-1.5-3.2c-0.2-1.9,0.1-3.5,0.8-3.6c0.7-0.1,1.4,1.3,1.7,3.1L1311.1,1017.3
						z M1289,1017.2c-0.2-1.8,0.2-3.4,0.8-3.5c0.7-0.1,1.5,1.3,1.7,3.2c0.2,1.7-0.1,3.2-0.7,3.5L1289,1017.2z"/>
				</g>
				<g id="Main_Fissle_Attachment_Basic_Gauntlet_Left_F">
					<path d="M1312.2,986.6l-30,4.6l0.8,6.6l30-4.6L1312.2,986.6z"/>
					<path d="M1294.6,847.3l-30,4.6l0.8,6.6l30-4.6L1294.6,847.3z"/>
					<path d="M1285.3,824l-17.7,2.7l0.8,6.6l17.7-2.7L1285.3,824z"/>
					<path d="M1293.8,829.4l-32.9,5.1l2.2,17.7l32.9-5.1L1293.8,829.4z"/>
					<path d="M1298.1,853.5l-35.4,5.5l16.8,132.7l35.4-5.5L1298.1,853.5z"/>
					<path d="M1272.8,928.9l-5.8,0.9l3.9,31.1l5.8-0.9L1272.8,928.9z"/>
				</g>
				<g id="Accent_Fissle_Attachment_Basic_Gauntlet_Left_F">
					<path d="M1305.1,1051.6l-5.2-11.3l7.4-1.1L1305.1,1051.6z"/>
					<path d="M1306.2,1036.3l-5.9,0.9l-0.4,3.1l7.4-1.1L1306.2,1036.3z"/>
					<path d="M1286.2,814.5l-21.6,3.3l1.2,9.2l21.7-3.3L1286.2,814.5z"/>
					<path d="M1281.9,810.2l-14.4,2.2l-3,5.4l21.6-3.3L1281.9,810.2z"/>
					<path d="M1287.5,855.1l-6,0.9l16.8,132.7l6-0.9L1287.5,855.1z"/>
					<path d="M1279.3,856.4l-6,0.9l16.8,132.7l6-0.9L1279.3,856.4z"/>
					<path d="M1301,856.5l-2.8-3l16.8,132.7l2-3.8L1301,856.5z"/>
					<path d="M1295.7,853.8l-6,0.9l16.8,132.7l6-0.9L1295.7,853.8z"/>
					<path d="M1271.2,857.6l-3.7,0.6l16.8,132.7l3.7-0.6L1271.2,857.6z"/>
				</g>
				<path id="Base_Fissle_Attachment_Basic_Gauntlet_Left_F" d="M1266.9,848.2l-10.6-2.7l19.1,151.1l9.5-5.8
					L1266.9,848.2z M1272.8,928.9l-5.8,0.9l3.9,31.1l5.8-0.9L1272.8,928.9z"/>
			</g>
			<g id="No-Device_Attachment_Basic_Gauntlet_Left_F_Option">
			</g>
		</g>
	</g>
	<g id="Right-Gauntlets_F">
		<g id="Rage_Gauntlet_Right_F_Option">
			<path d="M283.5,1114.7c3.6-15.3,7.3-31.2,14.8-47.5c9.2-6.2,23.3-25.3,32.7-45.3c5.1-11,9.6-95-7.1-101.6
				c-38.3-15.1-73-20.5-114.1-22.6c-19.3-1-35.9-2.2-55.2,5.8c-24.2,10.1-14.7,37.3-23.8,70.2c-13.4,47.9-39.4,123.6-35.4,173.5
				c1.1,13.8,3.4,28.1,7.6,40.8c5.8,17.6,9.8,41.8,10.9,60.8c0.8,14.4,1.2,28.9-1.9,43.1c-1.9,8.8-7.9,14.5-5.2,23.3
				c1.8,6,14.1,9,16.3,14.2c0.3,0.8-1.6,5.2-1.8,6.3c-1,5.5,1.3,8.9,5.2,12c14,11,24.8,3.7,40.4-0.1c10.3-2.5,20.8-2.8,31.2-2.7
				c16.8,0.2,31,5.4,47.1,9.9c16.6,4.6,22.4,5.5,37.5-7.4c0.5-0.4,7.1,1.2,7.9,1.2c5.6,0,21.7-18.6,23-23.5
				c6.7-24.6-5.5-45.8,0.4-71.7c0.9-2.4,9.4-9.5,11.3-11.4c7.2-7,10.7-16.9,14-26.6c10.9-32-12-23.1-18.4-49.6
				C309.8,1121.1,283.5,1114.7,283.5,1114.7z"/>
			<path d="M231.1,1028.6c10.4-8.6,22.3-16,31.4-26.5c23.9-27.5,25.7-60.2,22.3-94.4"/>
			<path d="M171.5,960.9c-0.1,11.8,1.9,25.2,6.5,35.7c3.5,7.9,9.2,13.9,11.2,22.8c3.2,13.9,0.3,27.2-4.1,40.7"/>
			<path d="M134.7,1025.5c1,10.4,3.2,22,2,32.6c-0.8,6.5-3.8,12.1-5.1,18.4c-1.4,7.1,0.1,14.9,2.3,21.4"/>
			<path d="M243.3,1104.6c9.3-7.7,20-12.7,29.8-19.5c9.1-6.2,16.7-10.9,25.2-17.9"/>
			<path d="M210.5,1141.5c22-21.5,44.8-33.2,72.9-26.8"/>
			<path d="M212.7,1204.6c2.3,6.1,5.2,11.8,7.8,17.7c1.2,2.7,2.3,7,4.6,9c2.4,2,7.1,2.2,10,2.8
				c7.9,1.6,15.7,2.7,23.7,3.9c18.9,2.8,35.7,15.1,55,15.5"/>
			<path d="M312.7,1243.8c3.5-6.3,6.4-12.9,9.9-19.2c4.3-7.5,9.8-15.2,12.2-23.7"/>
			<path d="M180.1,1274.5c7-1.6,15-2.8,21.5-6.4c11.7-6.4,23.5-21.9,27.9-35"/>
			<path d="M256,1300.8c-1.7-19.7-6.2-39.4-23.1-49.3c-3.4-2-7-2.7-10.8-3.7"/>
			<path d="M282.6,1347.4c5.3-4.9,9.6-8.7,11.7-18c1.6-7.3,1.1-22.8,0.9-30.1c-0.1-5.7,4.6-36.7,8.9-47"/>
			<path d="M315.2,1149c2.1,4.9,3.9,10.6,5.5,17c1.4,6,3.7,10.1,6.3,13.4c2.5-5.9,7.1-15.2,3.8-21.1
				c-1.7-3-5.1-5-7.9-6.5C320.8,1150.6,317.9,1148.5,315.2,1149z"/>
			<path d="M122.3,1328.3c6.3,2.9,13.2,8.8,20.4,7.3c4.2-0.9,7.5-3.6,10.9-6.4c0.9-0.7,3.3-3.4,4.4-3.2
				c6.2,1.3,12.6,5.1,18.5,7.5c7.1,2.9,14.5,4.8,21.7,7.4c5.7,2.1,16.6,5.4,22.5,7.1"/>
		</g>
		<g id="Heavy_Gauntlet_Right_F_Option">
			<g id="Top-2_Heavy_Gauntlet_Right_F">
				<path d="M160.5,783.8l-18.3,2.9l-8,87.4l16.7,11.8L160.5,783.8z"/>
				<path d="M151.6,878.2l-10,113.9l11.2,12.8l-6.3,67.1l5,3.1l17.6-183.5L151.6,878.2z"/>
				<path d="M148.8,846.2c-2.2,0.2-3.8,2.1-3.7,4.3c0.2,2.2,2.1,3.8,4.3,3.7c2.2-0.2,3.8-2.1,3.7-4.3
					S151,846.1,148.8,846.2z"/>
			</g>
			<g id="Top-1_Heavy_Gauntlet_Right_F">
				<path d="M198.6,1083.7l-47.1-8.7l17.6-183.5l-17.5-13.3l9.4-100l69.1-12.9L198.6,1083.7z"/>
				<path d="M178.8,774.9l-9.8,116.6"/>
			</g>
			<g id="Accent-Top_Heavy_Gauntlet_Right_F">
				<path d="M162.4,1046.1l29.8,3.5l-2.6,23.2l-29.9-4.5L162.4,1046.1z"/>
				<path d="M173,948.8l29.8,3.5l-9.8,90.7l-29.8-3.6L173,948.8z"/>
				<path d="M185.7,780.9l32.8-5.2l-9.3,99.3l-31.2-3.7L185.7,780.9z"/>
			</g>
			<path id="Bottom_Heavy_Gauntlet_Right_F" d="M229.6,770.1c35.7-1.6,74,10.7,99.6,38.9c8.3,9.1,11.6,21.7,9,33.7
				c-12.6,58.2-54.1,248.8-54.1,248.8l-85.5-7.8L229.6,770.1z"/>
			<g id="Accent-Bottom_Heavy_Gauntlet_Right_F">
				<path d="M198.6,1083.7l85.5,7.8l3.3-15.4l-87.2-9.1L198.6,1083.7z"/>
				<path d="M227.5,791.4c46.3,0.9,86.1,14.4,108.2,62.8l2.5-11.4c2.1-9.5,0.4-19.3-4.4-27.5l-4.9-6.6
					c-25.6-27.9-63.7-40.1-99.2-38.6L227.5,791.4z"/>
				<path d="M238.3,776.3l37.8,4.3l-17.2,150l-37.8-4.3L238.3,776.3z"/>
				<path d="M243,779.6l27.8,3.2l-15.9,138.8l-27.8-3.2L243,779.6z"/>
				<path d="M270.8,782.8l5.3-2.2"/>
				<path d="M238.3,776.3l4.6,3.3"/>
				<path d="M221.2,926.3l5.9-7.9"/>
				<path d="M258.9,930.6l-4.7-9.1"/>
			</g>
			<g id="Whistling-Birds_Attachment_Heavy_Gauntlet_Right_F_Option">
				<path id="Head_Whistling-Birds_Attachment_Heavy_Gauntlet_Right_F" d="M114.1,935.2l27.4,56.9l4.9-54L114.1,935.2z"
					/>
				<g id="Birds_Whistling-Birds_Attachment_Heavy_Gauntlet_Right_F">
					<g>
						<path d="M140.7,941.6c-1.3-0.1-2.5,2.5-2.9,5.9c-0.3,3.4,0.5,6.2,1.7,6.4c1.3,0.1,2.5-2.5,2.9-5.9
							C142.8,944.5,142,941.7,140.7,941.6z"/>
						<path d="M139.2,958.8c-1.3-0.1-2.5,2.5-2.9,5.9c-0.3,3.4,0.5,6.2,1.7,6.4c1.3,0.1,2.5-2.5,2.9-5.9
							C141.2,961.7,140.4,958.9,139.2,958.8z"/>
						<path d="M132,940.8c-1.3-0.1-2.5,2.5-2.9,5.9c-0.3,3.4,0.5,6.2,1.7,6.3c1.3,0.1,2.5-2.5,2.9-5.9
							C134,943.7,133.3,940.9,132,940.8z"/>
						<path d="M138.6,986c0.4-1,0.7-2.3,0.8-3.7c0.3-3.4-0.5-6.2-1.7-6.3c-0.9-0.1-1.8,1.2-2.4,3.2L138.6,986z
							 M130.6,969.5c0.8-1,1.4-2.9,1.6-5.1c0.3-3.4-0.5-6.2-1.7-6.3c-1.2-0.1-2.4,2.2-2.8,5.3L130.6,969.5z M122.3,952.3
							c1.2-0.1,2.4-2.7,2.7-5.9c0.3-3.4-0.5-6.2-1.7-6.3c-1.3-0.1-2.5,2.5-2.9,5.9c-0.1,0.8-0.1,1.5,0,2.3L122.3,952.3z"/>
					</g>
				</g>
				<g id="Base_Whistling-Birds_Attachment_Heavy_Gauntlet_Right_F">
					<path d="M130.9,772.3l21.7,2l-0.9,9.6l-21.7-2L130.9,772.3z"/>
					<path d="M128,781.7l23.7,2.2l-13.9,153.5l-23.7-2.2L128,781.7z"/>
					<path d="M124.8,783l3.1,0.3l-12,132.6l-3.1-0.3L124.8,783z"/>
					<path d="M131.9,782l3.1,0.3l-13.1,143.9l-3.1-0.3L131.9,782z"/>
				</g>
				<g id="Accent_Whistling-Birds_Attachment_Heavy_Gauntlet_Right_F">
					<path d="M152.8,771.9l8.6,0.8l-14.2,155.9l-8.6-0.8L152.8,771.9z"/>
					<path d="M113.2,925.5l34.1,3.1l-0.9,9.6l-34.1-3.1L113.2,925.5z"/>
					<path d="M138.4,773l14.2,1.3l-2,22.4l-14.2-1.3L138.4,773z"/>
					<path d="M139.7,795.7l10.8,1l-4.8,53.2l-9-20.9L139.7,795.7z"/>
				</g>
			</g>
			<g id="Flamethrower_Attachment_Heavy_Gauntlet_Right_F_Option">
				<g id="Tubes_Flamethrower_Attachment_Heavy_Gauntlet_Right_F">
					<path d="M144.9,787.2l8.8,0.8l-24.3,268.2l-8.8-0.8L144.9,787.2z"/>
					<path d="M124.7,785.4l8.8,0.8l-17.4,192.3l-8.8-0.8L124.7,785.4z"/>
					<path d="M140.6,803.8l13.2,1.2l-5.8,63.9l-13.2-1.2L140.6,803.8z"/>
					<path d="M121.5,802.1l12.1,1.1l-5.8,63.9l-12.1-1.1L121.5,802.1z"/>
				</g>
				<g id="Main_Flamethrower_Attachment_Heavy_Gauntlet_Right_F">
					<path d="M121.3,781l36.2,3.3l-1.9,20.9l-36.2-3.3L121.3,781z"/>
					<path d="M112.8,865.7l37.8,3.4l-0.9,10.2l-37.8-3.4L112.8,865.7z"/>
					<path d="M113.5,876.1l34.7,3.1l-0.5,5.2l-34.7-3.1L113.5,876.1z"/>
					<path d="M147.4,862.4l5.8,0.7l-2.9,31.2l-5.8-0.7L147.4,862.4z"/>
				</g>
				<g id="Accent_Flamethrower_Attachment_Heavy_Gauntlet_Right_F">
					<path d="M107,977.7l9.4,0.9l0.3,13.3l-12.4-1.1L107,977.7z"/>
					<path d="M109.5,909l16.7,1.5l-1.8,20.3l-16.7-1.5L109.5,909z"/>
					<path d="M110,929.6l12.1,1.1l-1.8,20.3l-12.1-1.1L110,929.6z"/>
					<path d="M122,1021.4l12.1,1.1l-2.5,27.9l-12.1-1.1L122,1021.4z"/>
					<path d="M130.2,931.4l12.1,1.1l-3.4,37.9l-12.1-1.1L130.2,931.4z"/>
					<path d="M118.5,1035.2l16.7,1.5l-0.5,5.4l-16.7-1.5L118.5,1035.2z"/>
				</g>
				<path id="Base_Flamethrower_Attachment_Heavy_Gauntlet_Right_F" d="M153.2,863.1l7.8-84.6l-10.4,3.1l-13.3,143.1
					l9.7,5.5l3.3-35.8l-5.8-0.7l2.9-31.2L153.2,863.1z"/>
			</g>
			<g id="Missle_Attachment_Heavy_Gauntlet_Right_F_Option">
				<g id="Head_Fissle_Attachment_Heavy_Gauntlet_Right_F">
					<path d="M120,979.2l24.3-45.5l-39.9-4.8L120,979.2z"/>
					<path d="M130.4,936.3c-0.9-0.1-1.8,1.7-2,4c-0.2,2.3,0.3,4.3,1.2,4.4c0.9,0.1,1.8-1.7,2-4
						C131.9,938.4,131.3,936.4,130.4,936.3z"/>
					<path d="M128,948.7c-0.7-0.1-1.4,1.4-1.6,3.2s0.3,3.4,1,3.5c0.7,0.1,1.4-1.4,1.6-3.2S128.7,948.7,128,948.7z"/>
					<path d="M126.6,960c-0.6-0.1-1.3,1.2-1.4,3c-0.2,1.7,0.2,3.2,0.9,3.2c0.6,0.1,1.3-1.3,1.4-3
						C127.6,961.5,127.2,960.1,126.6,960z"/>
					<path d="M136.9,937.1c-0.9-0.1-1.8,1.7-2,4c-0.2,2.3,0.3,4.3,1.2,4.4c0.9,0.1,1.8-1.7,2-4
						C138.3,939.2,137.8,937.2,136.9,937.1z"/>
					<path d="M111.1,934c-0.9-0.1-1.8,1.7-2,4c-0.2,2.3,0.3,4.3,1.2,4.4s1.8-1.7,2-4C112.5,936.1,112,934.1,111.1,934z"
						/>
					<path d="M117.5,934.8c-0.9-0.1-1.8,1.7-2,4c-0.2,2.3,0.3,4.3,1.2,4.4c0.9,0.1,1.8-1.7,2-4
						C118.9,936.9,118.4,934.9,117.5,934.8z"/>
					<path d="M117.7,947.4c-0.7-0.1-1.4,1.4-1.6,3.2c-0.2,1.9,0.3,3.4,1,3.5c0.7,0.1,1.4-1.4,1.6-3.2
						S118.4,947.5,117.7,947.4z"/>
					<path d="M117.1,958.9c-0.6-0.1-1.3,1.3-1.4,3c-0.2,1.7,0.2,3.2,0.9,3.2c0.6,0.1,1.3-1.2,1.4-3
						C118.1,960.4,117.7,958.9,117.1,958.9z"/>
					<path d="M124,935.6c-0.9-0.1-1.8,1.7-2,4c-0.2,2.3,0.3,4.3,1.2,4.4s1.8-1.7,2-4C125.4,937.6,124.9,935.7,124,935.6
						z"/>
					<path d="M122.9,948c-0.7-0.1-1.4,1.4-1.6,3.2c-0.2,1.9,0.3,3.4,1,3.5c0.7,0.1,1.4-1.4,1.6-3.2
						C124,949.7,123.6,948.1,122.9,948z"/>
					<path d="M121.8,959.4c-0.6-0.1-1.3,1.2-1.4,3c-0.2,1.7,0.2,3.2,0.9,3.2c0.6,0.1,1.3-1.2,1.4-3
						C122.8,961,122.5,959.5,121.8,959.4z"/>
					<path d="M112.1,953.5c0.6-0.1,1.2-1.5,1.4-3.2c0.2-1.9-0.3-3.4-1-3.5c-0.7-0.1-1.4,1.3-1.6,3.1L112.1,953.5z
						 M134.2,952.7c0.1-1.8-0.3-3.4-1-3.4c-0.7-0.1-1.4,1.4-1.6,3.2c-0.2,1.7,0.2,3.2,0.8,3.5L134.2,952.7z"/>
				</g>
				<g id="Main_Fissle_Attachment_Heavy_Gauntlet_Right_F">
					<path d="M109.9,922.9l30.1,3.6l-0.6,6.6l-30.1-3.6L109.9,922.9z"/>
					<path d="M122.7,783.1l30.1,3.6l-0.6,6.6l-30.1-3.6L122.7,783.1z"/>
					<path d="M131.1,759.5l17.7,2.1l-0.6,6.6l-17.7-2.1L131.1,759.5z"/>
					<path d="M122.9,765.2l33,3.9l-1.6,17.7l-33-3.9L122.9,765.2z"/>
					<path d="M119.4,789.4l35.6,4.2l-12.2,133.2l-35.6-4.2L119.4,789.4z"/>
					<path d="M147.2,863.9l5.8,0.7l-2.9,31.2l-5.8-0.7L147.2,863.9z"/>
				</g>
				<g id="Accent_Fissle_Attachment_Heavy_Gauntlet_Right_F">
					<path d="M119.2,987.7l4.8-11.5l-7.4-0.9L119.2,987.7z"/>
					<path d="M117.6,972.4l6,0.7l0.5,3.1l-7.4-0.9L117.6,972.4z"/>
					<path d="M130,750l21.7,2.6l-0.8,9.2l-21.7-2.6L130,750z"/>
					<path d="M134,745.6l14.5,1.7l3.2,5.3L130,750L134,745.6z"/>
					<path d="M130,790.7l6.1,0.7l-12.2,133.2l-6.1-0.7L130,790.7z"/>
					<path d="M138.2,791.7l6.1,0.7l-12.2,133.2l-6.1-0.7L138.2,791.7z"/>
					<path d="M116.6,792.5l2.7-3.1l-12.2,133.2l-2.1-3.7L116.6,792.5z"/>
					<path d="M121.8,789.7l6.1,0.7l-12.2,133.2l-6.1-0.7L121.8,789.7z"/>
					<path d="M146.4,792.6l3.7,0.4L138,926.2l-3.7-0.4L146.4,792.6z"/>
				</g>
				<path id="Base_Fissle_Attachment_Heavy_Gauntlet_Right_F" d="M150.4,783.1l10.4-3.1L147,931.6l-9.7-5.5L150.4,783.1
					z M147.2,863.9l5.8,0.7l-2.9,31.2l-5.8-0.7L147.2,863.9z"/>
			</g>
			<g id="No-Device_Attachment_Heavy_Gauntlet_Right_F_Option">
			</g>
		</g>
		<g id="Gunslinger_Gauntlet_Right_F_Option">
			<g id="Accent-Top_Gunslinger_Gauntlet_Right_F">
				<path d="M177.3,805.2l-1.6,60.3l30.8,5.9l2.3-57.2L177.3,805.2z"/>
				<path d="M209.8,1025.3l-3.5,31l27,3.5l3.8-30.9L209.8,1025.3z"/>
			</g>
			<path id="Top_Gunslinger_Gauntlet_Right_F" d="M177.3,805.2l-14.1-4l-1.2,281.8l67.4,8.6l5.4-44.1l-1.5,12.5l-27-3.5
				l3.5-31l27.3,3.6l24.5-199.6L177.3,805.2l31.5,9l-2.3,57.2l-30.8-5.9L177.3,805.2z"/>
			<g id="Accent-Bottom_Gunslinger_Gauntlet_Right_F">
				<path d="M307.2,916.7l5.8-25.1l17.6,4.1l-5.8,25.1L307.2,916.7z"/>
				<path d="M300.5,945.2l5.8-25.1l17.6,4.1l-5.8,25.1L300.5,945.2z"/>
				<path d="M237.1,1028.9l60.3,7.9l-7.1,30.5l-57-7.4L237.1,1028.9z"/>
			</g>
			<path id="Bottom_Gunslinger_Gauntlet_Right_F" d="M233.9,1055.4l3.3-26.4l60.3,7.9l-7.1,30.5l-57-7.4l-3.9,31.7
				c0,0,21.1,1.9,36.9,3.4c9.9,0.9,18.9-5.6,21.2-15.3C300,1026.8,337.2,868,337.2,868l-76.1-34.6L233.9,1055.4z M300.5,945.2
				l5.8-25.1l17.6,4.1l-5.8,25.1L300.5,945.2z M307.2,916.7l5.8-25.1l17.6,4.1l-5.8,25.1L307.2,916.7z"/>
			<g id="Whistling-Birds_Attachment_Gunslinger_Gauntlet_Right_F_Option">
				<path id="Head_Whistling-Birds_Attachment_Gunslinger_Gauntlet_Right_F" d="M130,973.8l32.2,54.4l0.2-54.2
					L130,973.8z"/>
				<g id="Birds_Whistling-Birds_Attachment_Gunslinger_Gauntlet_Right_F">
					<g>
						<path d="M157.1,977.8c-1.3,0-2.3,2.8-2.3,6.2c0,3.4,1,6.2,2.3,6.2c1.3,0,2.3-2.8,2.3-6.2
							C159.4,980.6,158.4,977.8,157.1,977.8z"/>
						<path d="M157.1,995.1c-1.3,0-2.3,2.8-2.3,6.2c0,3.4,1,6.2,2.3,6.2c1.3,0,2.3-2.8,2.3-6.2
							C159.4,997.9,158.3,995.1,157.1,995.1z"/>
						<path d="M148.4,977.8c-1.3,0-2.3,2.8-2.3,6.2c0,3.4,1,6.2,2.3,6.2c1.3,0,2.3-2.8,2.3-6.2
							C150.7,980.6,149.6,977.8,148.4,977.8z"/>
						<path d="M158.8,1022.3c0.3-1,0.5-2.3,0.5-3.7c0-3.4-1-6.2-2.3-6.2c-0.9,0-1.7,1.4-2.1,3.4L158.8,1022.3z
							 M149.5,1006.5c0.7-1.1,1.1-3,1.1-5.3c0-3.4-1-6.2-2.3-6.2c-1.2,0-2.2,2.4-2.3,5.6L149.5,1006.5z M139.7,990.1
							c1.2-0.3,2.1-2.9,2.1-6.1c0-3.4-1-6.2-2.3-6.2c-1.3,0-2.3,2.8-2.3,6.2c0,0.8,0.1,1.5,0.1,2.2L139.7,990.1z"/>
					</g>
				</g>
				<g id="Base_Whistling-Birds_Attachment_Gunslinger_Gauntlet_Right_F">
					<path d="M132.7,810l21.8,0.1l0,9.6l-21.8-0.1L132.7,810z"/>
					<path d="M130.7,819.6l23.8,0.1l-0.6,154.1l-23.8-0.1L130.7,819.6z"/>
					<path d="M127.6,821.3l3.1,0l-0.6,133.1l-3.1,0L127.6,821.3z"/>
					<path d="M134.6,819.7l3.1,0l-0.6,144.5l-3.1,0L134.6,819.7z"/>
				</g>
				<g id="Accent_Whistling-Birds_Attachment_Gunslinger_Gauntlet_Right_F">
					<path d="M154.5,807.7l8.7,0l-0.7,156.5l-8.7,0L154.5,807.7z"/>
					<path d="M128.3,964.1l34.2,0.1l0,9.6l-34.2-0.1L128.3,964.1z"/>
					<path d="M140.2,810.1l14.3,0.1l-0.1,22.4l-14.3-0.1L140.2,810.1z"/>
					<path d="M143.5,832.5l10.9,0l-0.2,53.4l-10.8-20L143.5,832.5z"/>
				</g>
			</g>
			<g id="Flamethrower_Attachment_Gunslinger_Gauntlet_Right_F_Option">
				<g id="Tubes_Flamethrower_Attachment_Gunslinger_Gauntlet_Right_F">
					<path d="M148,818.8l8.8,0l-0.2,269.3l-8.8,0L148,818.8z"/>
					<path d="M127.8,818.8l8.8,0l-0.2,193.1l-8.8,0L127.8,818.8z"/>
					<path d="M146.4,835.7l12.2,0l-0.1,64.1l-12.2,0L146.4,835.7z"/>
					<path d="M126.1,835.7l12.2,0l0,64.1l-12.2,0L126.1,835.7z"/>
				</g>
				<g id="Main_Flamethrower_Attachment_Gunslinger_Gauntlet_Right_F">
					<path d="M124,818.8l36.3,0l0,16.9l-36.3,0L124,818.8z"/>
					<path d="M123.1,899.9l38,0l0,10.3l-38,0L123.1,899.9z"/>
					<path d="M124.7,910.1l34.8,0l0,5.2l-34.8,0L124.7,910.1z"/>
					<path d="M157.3,893.5l5.9,0.2L163,925l-5.9-0.2L157.3,893.5z"/>
				</g>
				<g id="Accent_Flamethrower_Attachment_Gunslinger_Gauntlet_Right_F">
					<path d="M127.3,1011.9l9.5,0l1.5,13.2l-12.4,0L127.3,1011.9z"/>
					<path d="M123.7,943.3l16.8,0l0,20.4l-16.8,0L123.7,943.3z"/>
					<path d="M126,963.7l12.2,0l0,20.4l-12.2,0L126,963.7z"/>
					<path d="M146.2,1054.1l12.2,0l0,28l-12.2,0L146.2,1054.1z"/>
					<path d="M146.3,963.8l12.2,0l0,38.1l-12.2,0L146.3,963.8z"/>
					<path d="M143.9,1068.1l16.8,0l0,5.4l-16.8,0L143.9,1068.1z"/>
				</g>
				<path id="Base_Flamethrower_Attachment_Gunslinger_Gauntlet_Right_F" d="M163.1,893.7l0.2-85l-10.1,4l-0.4,143.7
					l10.1,4.6L163,925l-5.9-0.2l0.1-31.3L163.1,893.7z"/>
			</g>
			<g id="Missle_Attachment_Gunslinger_Gauntlet_Right_F_Option">
				<g id="Head_Fissle_Attachment_Gunslinger_Gauntlet_Right_F">
					<path d="M140.1,1012.4l20.2-47.5l-40.1-1.2L140.1,1012.4z"/>
					<path d="M146.8,968.8c-0.9,0-1.6,1.8-1.6,4.2c0,2.3,0.7,4.3,1.6,4.3c0.9,0,1.6-1.8,1.6-4.2
						C148.3,970.7,147.6,968.8,146.8,968.8z"/>
					<path d="M145.4,981.3c-0.7,0-1.3,1.5-1.3,3.3s0.6,3.4,1.3,3.4c0.7,0,1.3-1.5,1.3-3.3
						C146.7,982.8,146.1,981.3,145.4,981.3z"/>
					<path d="M145,992.7c-0.6,0-1.2,1.4-1.2,3.1c0,1.7,0.5,3.1,1.2,3.1c0.6,0,1.2-1.4,1.2-3.1
						C146.1,994.1,145.6,992.7,145,992.7z"/>
					<path d="M153.3,969c-0.9,0-1.6,1.8-1.6,4.2c0,2.3,0.7,4.3,1.6,4.3c0.9,0,1.6-1.8,1.6-4.2
						C154.8,970.9,154.1,969,153.3,969z"/>
					<path d="M127.3,968.2c-0.9,0-1.6,1.8-1.6,4.2c0,2.3,0.7,4.3,1.6,4.3c0.9,0,1.6-1.8,1.6-4.2
						C128.9,970.1,128.2,968.2,127.3,968.2z"/>
					<path d="M133.8,968.4c-0.9,0-1.6,1.8-1.6,4.2c0,2.3,0.7,4.3,1.6,4.3c0.9,0,1.6-1.8,1.6-4.2
						C135.4,970.3,134.6,968.4,133.8,968.4z"/>
					<path d="M135,980.9c-0.7,0-1.3,1.5-1.3,3.3c0,1.9,0.6,3.4,1.3,3.4c0.7,0,1.3-1.5,1.3-3.3S135.7,981,135,980.9z"/>
					<path d="M135.4,992.4c-0.6,0-1.2,1.4-1.2,3.1c0,1.7,0.5,3.1,1.2,3.1c0.6,0,1.2-1.4,1.2-3.1
						C136.6,993.8,136.1,992.4,135.4,992.4z"/>
					<path d="M140.3,968.6c-0.9,0-1.6,1.8-1.6,4.2c0,2.3,0.7,4.3,1.6,4.3c0.9,0,1.6-1.8,1.6-4.2
						C141.9,970.5,141.1,968.6,140.3,968.6z"/>
					<path d="M140.2,981.1c-0.7,0-1.3,1.5-1.3,3.3s0.6,3.4,1.3,3.4c0.7,0,1.3-1.5,1.3-3.3S140.9,981.1,140.2,981.1z"/>
					<path d="M140.2,992.5c-0.6,0-1.2,1.4-1.2,3.1c0,1.7,0.5,3.1,1.2,3.1c0.6,0,1.2-1.4,1.2-3.1
						C141.4,994,140.8,992.6,140.2,992.5z"/>
					<path d="M130,987.5c0.6-0.2,1.1-1.6,1.1-3.3c0-1.9-0.6-3.4-1.3-3.4c-0.7,0-1.3,1.4-1.3,3.3L130,987.5z
						 M151.9,984.8c0-1.8-0.6-3.3-1.3-3.3c-0.7,0-1.3,1.5-1.3,3.3c0,1.7,0.5,3.2,1.1,3.4L151.9,984.8z"/>
				</g>
				<g id="Main_Fissle_Attachment_Gunslinger_Gauntlet_Right_F">
					<path d="M125.1,957.2l30.3,0.9l0,6.6l-30.3-0.9L125.1,957.2z"/>
					<path d="M125.6,816.8l30.3,0.9l0,6.6l-30.3-0.9L125.6,816.8z"/>
					<path d="M131.9,792.6l17.9,0.6l0,6.6l-17.9-0.5L131.9,792.6z"/>
					<path d="M124.2,799l33.3,1l-0.1,17.8l-33.3-1L124.2,799z"/>
					<path d="M122.8,823.4l35.8,1.1l-0.4,133.7l-35.8-1.1L122.8,823.4z"/>
					<path d="M157.1,895.2l5.9,0.2l-0.1,31.3l-5.9-0.2L157.1,895.2z"/>
				</g>
				<g id="Accent_Fissle_Attachment_Gunslinger_Gauntlet_Right_F">
					<path d="M140.1,1020.9l3.8-11.9l-7.5-0.2L140.1,1020.9z"/>
					<path d="M137.2,1005.8l6,0.2l0.7,3l-7.5-0.2L137.2,1005.8z"/>
					<path d="M129.9,783.2l21.9,0.7l0,9.3l-21.9-0.7L129.9,783.2z"/>
					<path d="M133.6,778.5l14.6,0.4l3.7,5l-21.9-0.7L133.6,778.5z"/>
					<path d="M133.6,823.7l6.1,0.2l-0.4,133.7l-6.1-0.2L133.6,823.7z"/>
					<path d="M141.8,824l6.1,0.2l-0.4,133.7l-6.1-0.2L141.8,824z"/>
					<path d="M120.3,826.7l2.4-3.4l-0.4,133.7l-2.4-3.5L120.3,826.7z"/>
					<path d="M125.3,823.5l6.1,0.2L131,957.4l-6.1-0.2L125.3,823.5z"/>
					<path d="M150.1,824.2l3.8,0.1l-0.4,133.7l-3.8-0.1L150.1,824.2z"/>
				</g>
				<path id="Base_Fissle_Attachment_Gunslinger_Gauntlet_Right_F" d="M153.1,814.3l10.1-4l-0.5,152.3l-10.1-4.6
					L153.1,814.3z M157.1,895.2l5.9,0.2l-0.1,31.3l-5.9-0.2L157.1,895.2z"/>
			</g>
			<g id="No-Device_Attachment_Gunslinger_Gauntlet_Right_F_Option">
			</g>
		</g>
		<g id="Basic_Gauntlet_Right_F_Option">
			<path id="Top-2_Basic_Gauntlet_Right_F" d="M143.1,1106.4l-16.3-21.9l25.1-198.1l8.8,23l-12.2,90.3l9.5,21.4
				L143.1,1106.4z"/>
			<path id="Top-1_Basic_Gauntlet_Right_F" d="M151.9,886.5l8.8,23l-12.2,90.3l9.5,21.4l-14.8,85.3l10.7,14.4l-0.5,54.5
				l16.9,3L186,1095l15-7l51.5-244.4l-95-2.1L151.9,886.5z"/>
			<g id="Accent-Bottom_Basic_Gauntlet_Right_F">
				<path d="M294.3,912.4l21.4,5.2l-7.7,31.8l-21.4-5.2L294.3,912.4z"/>
				<path d="M281,968.1l21.4,5.2l-7.7,31.8l-21.4-5.2L281,968.1z"/>
				<path d="M267.2,1025.2l21.4,5.2l-7.7,31.8l-21.4-5.2L267.2,1025.2z"/>
			</g>
			<path id="Bottom_Basic_Gauntlet_Right_F" d="M315.5,917.5l5.8-24.3l-69.6-45.6L201,1088l72.3,7.2l21.4-90l-21.3-5.1
				l7.7-31.8l21.2,5.1l5.7-23.9l-21.3-5.1l7.7-31.8L315.5,917.5z M267.2,1025.2l21.5,5.2l-7.6,31.9l-21.6-5.2L267.2,1025.2z"/>
			<g id="Whistling-Birds_Attachment_Basic_Gauntlet_Right_F_Option">
				<path id="Head_Whistling-Birds_Attachment_Basic_Gauntlet_Right_F" d="M104,1003.6l25.4,57.9l6.8-53.8L104,1003.6z"
					/>
				<g id="Birds_Whistling-Birds_Attachment_Basic_Gauntlet_Right_F">
					<g>
						<path d="M130.4,1011c-1.3-0.2-2.6,2.4-3.1,5.8c-0.4,3.4,0.2,6.3,1.5,6.4c1.3,0.2,2.6-2.5,3.1-5.8
							C132.3,1014,131.7,1011.1,130.4,1011z"/>
						<path d="M128.2,1028.1c-1.3-0.2-2.6,2.5-3.1,5.8c-0.4,3.4,0.2,6.2,1.5,6.4c1.3,0.2,2.6-2.4,3.1-5.8
							C130.2,1031.1,129.5,1028.3,128.2,1028.1z"/>
						<path d="M121.7,1009.8c-1.3-0.2-2.6,2.5-3.1,5.8c-0.4,3.4,0.2,6.3,1.5,6.4c1.3,0.2,2.6-2.5,3.1-5.8
							C123.6,1012.9,122.9,1010,121.7,1009.8z"/>
						<path d="M126.6,1055.3c0.4-1,0.8-2.2,0.9-3.6c0.4-3.4-0.2-6.3-1.5-6.4c-0.9-0.1-1.8,1.2-2.5,3.1L126.6,1055.3z
							 M119.3,1038.5c0.8-1,1.5-2.9,1.7-5.1c0.4-3.4-0.2-6.3-1.5-6.4c-1.2-0.2-2.5,2.2-3,5.2L119.3,1038.5z M111.6,1021
							c1.2-0.1,2.5-2.6,2.9-5.8c0.4-3.4-0.2-6.2-1.5-6.4c-1.3-0.2-2.6,2.5-3.1,5.8c-0.1,0.8-0.1,1.5-0.1,2.2L111.6,1021z"/>
					</g>
				</g>
				<g id="Base_Whistling-Birds_Attachment_Basic_Gauntlet_Right_F">
					<path d="M126.6,841.5l21.6,2.7l-1.2,9.5l-21.6-2.7L126.6,841.5z"/>
					<path d="M123.4,850.7l23.6,3l-19.4,152.9l-23.6-3L123.4,850.7z"/>
					<path d="M120.1,851.9l3.1,0.4l-16.8,132.1l-3.1-0.4L120.1,851.9z"/>
					<path d="M127.2,851.2l3.1,0.4L112.1,995l-3.1-0.4L127.2,851.2z"/>
				</g>
				<g id="Accent_Whistling-Birds_Attachment_Basic_Gauntlet_Right_F">
					<path d="M148.5,841.8l8.6,1.1l-19.7,155.3l-8.6-1.1L148.5,841.8z"/>
					<path d="M103.5,993.9l33.9,4.3l-1.2,9.5l-33.9-4.3L103.5,993.9z"/>
					<path d="M134,842.4l14.2,1.8l-2.8,22.3l-14.2-1.8L134,842.4z"/>
					<path d="M134.6,865.1l10.8,1.4l-6.7,53l-8.3-21.2L134.6,865.1z"/>
				</g>
			</g>
			<g id="Flamethrower_Attachment_Basic_Gauntlet_Right_F_Option">
				<g id="Tubes_Flamethrower_Attachment_Basic_Gauntlet_Right_F">
					<path d="M140.7,852.1l8.8,1.1l-33,267.3l-8.8-1.1L140.7,852.1z"/>
					<path d="M120.6,849.6l8.8,1.1l-23.7,191.6l-8.8-1.1L120.6,849.6z"/>
					<path d="M137,868.6l12.1,1.5l-7.9,63.7l-12.1-1.5L137,868.6z"/>
					<path d="M116.9,866.1l12.1,1.5l-7.9,63.7l-12.1-1.5L116.9,866.1z"/>
				</g>
				<g id="Main_Flamethrower_Attachment_Basic_Gauntlet_Right_F">
					<path d="M116.9,849.1l36.1,4.5l-2.1,16.8l-36.1-4.5L116.9,849.1z"/>
					<path d="M106.1,929.4l37.7,4.7l-1.3,10.2l-37.7-4.7L106.1,929.4z"/>
					<path d="M106.4,939.8l34.6,4.3l-0.6,5.1l-34.6-4.3L106.4,939.8z"/>
					<path d="M140.8,927.3l5.8,0.9l-3.9,31.1l-5.8-0.9L140.8,927.3z"/>
				</g>
				<g id="Accent_Flamethrower_Attachment_Basic_Gauntlet_Right_F">
					<path d="M96.6,1041.1l9.4,1.2l-0.2,13.3l-12.3-1.5L96.6,1041.1z"/>
					<path d="M101.4,972.6l16.7,2.1l-2.5,20.3l-16.7-2.1L101.4,972.6z"/>
					<path d="M101.2,993.2l12.1,1.5l-2.5,20.3l-12.1-1.5L101.2,993.2z"/>
					<path d="M110.2,1085.3l12.1,1.5l-3.4,27.8l-12.1-1.5L110.2,1085.3z"/>
					<path d="M121.3,995.7l12.1,1.5l-4.7,37.8l-12.1-1.5L121.3,995.7z"/>
					<path d="M106.2,1099l16.7,2.1l-0.7,5.4l-16.7-2.1L106.2,1099z"/>
				</g>
				<path id="Base_Flamethrower_Attachment_Basic_Gauntlet_Right_F" d="M146.6,928.2l10.6-84.3l-10.5,2.7l-17.9,142.6
					l9.5,5.8l4.5-35.7l-5.8-0.9l3.9-31.1L146.6,928.2z"/>
			</g>
			<g id="Missle_Attachment_Basic_Gauntlet_Right_F_Option">
				<g id="Head_Fissle_Attachment_Basic_Gauntlet_Right_F">
					<path d="M109.3,1043.2l25.8-44.7l-39.7-6.1L109.3,1043.2z"/>
					<path d="M121.2,1000.7c-0.9-0.1-1.8,1.6-2.1,4c-0.3,2.3,0.2,4.3,1,4.4c0.9,0.1,1.8-1.6,2.1-4
						C122.5,1002.8,122.1,1000.8,121.2,1000.7z"/>
					<path d="M118.3,1012.9c-0.7-0.1-1.4,1.3-1.7,3.2c-0.2,1.9,0.1,3.5,0.8,3.6c0.7,0.1,1.4-1.3,1.7-3.2
						C119.4,1014.6,119,1013,118.3,1012.9z"/>
					<path d="M116.5,1024.2c-0.6-0.1-1.3,1.2-1.5,2.9c-0.2,1.7,0.1,3.2,0.8,3.3c0.6,0.1,1.3-1.2,1.5-2.9
						C117.5,1025.8,117.1,1024.3,116.5,1024.2z"/>
					<path d="M127.6,1001.7c-0.9-0.1-1.8,1.6-2.1,4c-0.3,2.3,0.2,4.3,1,4.4c0.9,0.1,1.8-1.6,2.1-4
						C128.9,1003.8,128.5,1001.8,127.6,1001.7z"/>
					<path d="M101.9,997.7c-0.9-0.1-1.8,1.6-2.1,4c-0.3,2.3,0.2,4.3,1,4.4c0.9,0.1,1.8-1.6,2.1-4
						C103.3,999.9,102.8,997.9,101.9,997.7z"/>
					<path d="M108.3,998.7c-0.9-0.1-1.8,1.6-2.1,4c-0.3,2.3,0.2,4.3,1,4.4c0.9,0.1,1.8-1.6,2.1-4
						C109.7,1000.9,109.2,998.9,108.3,998.7z"/>
					<path d="M108.1,1011.3c-0.7-0.1-1.4,1.3-1.7,3.2c-0.2,1.8,0.1,3.4,0.8,3.5c0.7,0.1,1.4-1.3,1.7-3.2
						C109.1,1013,108.8,1011.5,108.1,1011.3z"/>
					<path d="M107,1022.8c-0.6-0.1-1.3,1.2-1.5,2.9c-0.2,1.7,0.1,3.2,0.8,3.3c0.6,0.1,1.3-1.2,1.5-2.9
						C108,1024.3,107.7,1022.9,107,1022.8z"/>
					<path d="M114.8,999.7c-0.9-0.1-1.8,1.6-2.1,4c-0.3,2.3,0.2,4.3,1,4.4c0.9,0.1,1.8-1.6,2.1-4
						C116.1,1001.8,115.6,999.9,114.8,999.7z"/>
					<path d="M113.2,1012.1c-0.7-0.1-1.4,1.3-1.7,3.2c-0.2,1.9,0.1,3.5,0.8,3.6c0.7,0.1,1.4-1.3,1.7-3.2
						C114.3,1013.8,113.9,1012.3,113.2,1012.1z"/>
					<path d="M111.8,1023.5c-0.6-0.1-1.3,1.2-1.5,2.9c-0.2,1.7,0.1,3.2,0.8,3.3c0.6,0.1,1.3-1.2,1.5-2.9
						C112.8,1025.1,112.4,1023.6,111.8,1023.5z"/>
					<path d="M102.2,1017.3c0.6-0.1,1.3-1.5,1.5-3.2c0.2-1.8-0.1-3.4-0.8-3.5c-0.7-0.1-1.4,1.3-1.7,3.1L102.2,1017.3z
						 M124.3,1017.2c0.2-1.8-0.2-3.3-0.8-3.5c-0.7-0.1-1.4,1.3-1.7,3.2c-0.2,1.7,0.1,3.2,0.7,3.5L124.3,1017.2z"/>
				</g>
				<g id="Main_Fissle_Attachment_Basic_Gauntlet_Right_F">
					<path d="M101.1,986.6l30,4.6l-0.8,6.6l-30-4.6L101.1,986.6z"/>
					<path d="M118.7,847.3l30,4.6l-0.8,6.6l-30-4.6L118.7,847.3z"/>
					<path d="M127.9,824l17.7,2.7l-0.8,6.6l-17.7-2.7L127.9,824z"/>
					<path d="M119.5,829.4l32.9,5.1l-2.2,17.7l-32.9-5.1L119.5,829.4z"/>
					<path d="M115.1,853.5l35.4,5.5l-16.7,132.7l-35.4-5.5L115.1,853.5z"/>
					<path d="M140.4,928.9l5.8,0.9l-3.9,31.1l-5.8-0.9L140.4,928.9z"/>
				</g>
				<g id="Accent_Fissle_Attachment_Basic_Gauntlet_Right_F">
					<path d="M108.2,1051.6l5.2-11.3l-7.4-1.1L108.2,1051.6z"/>
					<path d="M107.1,1036.3l5.9,0.9l0.4,3.1l-7.4-1.1L107.1,1036.3z"/>
					<path d="M127.1,814.5l21.6,3.3l-1.2,9.2l-21.6-3.3L127.1,814.5z"/>
					<path d="M131.3,810.2l14.4,2.2l3,5.4l-21.6-3.3L131.3,810.2z"/>
					<path d="M125.8,855.1l6,0.9l-16.7,132.7l-6-0.9L125.8,855.1z"/>
					<path d="M133.9,856.4l6,0.9L123.2,990l-6-0.9L133.9,856.4z"/>
					<path d="M112.3,856.5l2.8-3L98.4,986.2l-2-3.8L112.3,856.5z"/>
					<path d="M117.6,853.9l6,0.9l-16.7,132.7l-6-0.9L117.6,853.9z"/>
					<path d="M142.1,857.6l3.7,0.6l-16.7,132.7l-3.7-0.6L142.1,857.6z"/>
				</g>
				<path id="Base_Fissle_Attachment_Basic_Gauntlet_Right_F" d="M146.3,848.2l10.5-2.7l-19,151.1l-9.5-5.8L146.3,848.2
					z M140.4,928.9l5.8,0.9l-3.9,31.1l-5.8-0.9L140.4,928.9z"/>
			</g>
			<g id="No-Device_Attachment_Basic_Gauntlet_Right_F_Option">
			</g>
		</g>
	</g>
</g>
</svg>
